<svg xmlns="http://www.w3.org/2000/svg" width="70" height="70.468" viewBox="0 0 70 70.468">
  <g id="Grupo_979651" data-name="Grupo 979651" transform="translate(-705.472 -5232.539)">
    <g id="Grupo_979650" data-name="Grupo 979650" transform="translate(705.472 5232.539)">
      <g id="Grupo_979648" data-name="Grupo 979648" transform="translate(1.129 1.596)">
        <g id="Grupo_979629" data-name="Grupo 979629" transform="translate(26.25 6.774)">
          <path id="Trazado_654531" data-name="Trazado 654531" d="M754.195,5271.221a16.915,16.915,0,1,0,.508-8.717,7.666,7.666,0,0,1-.847-3.511v-4.685a8.544,8.544,0,0,0,1.942-1.468,8.169,8.169,0,0,0,1.118-1.377l.011.011a21.442,21.442,0,1,1-6.176,24.037,4.536,4.536,0,0,0,3.105-4.29Z" transform="translate(-750.751 -5246.382)" fill="#aab2bd"/>
        </g>
        <g id="Grupo_979630" data-name="Grupo 979630" transform="translate(29.694 11.29)">
          <path id="Trazado_654532" data-name="Trazado 654532" d="M773.043,5253.851a16.936,16.936,0,1,1-16.6,20.323h4.64a12.419,12.419,0,1,0,0-6.774h-2.721a7.864,7.864,0,0,1-1.411-1.931v-.012a16.964,16.964,0,0,1,16.089-11.606Z" transform="translate(-756.446 -5253.851)" fill="#ccd1d9"/>
        </g>
        <g id="Grupo_979631" data-name="Grupo 979631" transform="translate(34.334 15.807)">
          <path id="Trazado_654533" data-name="Trazado 654533" d="M776.076,5261.32a12.419,12.419,0,1,1-11.956,15.806h10.827v2.258l9.032-5.645-9.032-5.645v2.258H764.12a12.425,12.425,0,0,1,11.956-9.032Z" transform="translate(-764.12 -5261.32)" fill="#e6e9ed"/>
        </g>
        <g id="Grupo_979632" data-name="Grupo 979632" transform="translate(11.291 49.677)">
          <path id="Trazado_654534" data-name="Trazado 654534" d="M731.656,5317.334l3.387,13.549-4.516,4.516-4.516-4.516,3.387-13.549Z" transform="translate(-726.011 -5317.334)" fill="#e6e9ed"/>
        </g>
        <g id="Grupo_979633" data-name="Grupo 979633" transform="translate(13.198 45.162)">
          <path id="Trazado_654535" data-name="Trazado 654535" d="M734.383,5311.424l-1.479,2.958h-2.258l-1.479-2.958,2.609-1.558Z" transform="translate(-729.166 -5309.866)" fill="#ccd1d9"/>
        </g>
        <g id="Grupo_979634" data-name="Grupo 979634">
          <path id="Trazado_654536" data-name="Trazado 654536" d="M741.21,5242.2a8.646,8.646,0,0,1-1.456,4.832,8.15,8.15,0,0,1-1.118,1.377,8.547,8.547,0,0,1-1.942,1.469,8.678,8.678,0,0,1-4.268,1.106h-9.281a4.515,4.515,0,0,0-4.516,4.516H717.5a3.387,3.387,0,0,0,0,6.774h1.129v1.569a7.6,7.6,0,0,1-2.269,5.419L712.725,5266a16.423,16.423,0,0,1,11.076-28.564h8.569a7.719,7.719,0,0,0,5.454-2.258l.813.813a8.786,8.786,0,0,1,2.574,6.21Z" transform="translate(-707.339 -5235.179)" fill="#b27946"/>
        </g>
        <g id="Grupo_979635" data-name="Grupo 979635" transform="translate(15.807 41.786)">
          <path id="Trazado_654537" data-name="Trazado 654537" d="M742.512,5325.724v4.516H733.48l4.516-4.516-3.387-13.549,1.479-2.958,3.037,1.829,2.258-6.763a14.049,14.049,0,0,1,7.9,12.633v8.807h-6.774Z" transform="translate(-733.48 -5304.283)" fill="#fcd770"/>
        </g>
        <g id="Grupo_979636" data-name="Grupo 979636" transform="translate(0 41.786)">
          <path id="Trazado_654538" data-name="Trazado 654538" d="M717.5,5311.046l3.037-1.829,1.479,2.958-3.387,13.549,4.516,4.516h-9.033v-4.516h-6.774v-8.807a14.049,14.049,0,0,1,7.9-12.633Z" transform="translate(-707.339 -5304.283)" fill="#fcd770"/>
        </g>
        <g id="Grupo_979637" data-name="Grupo 979637" transform="translate(15.807 40.645)">
          <path id="Trazado_654539" data-name="Trazado 654539" d="M733.48,5306.913,738,5302.4a13.764,13.764,0,0,1,3.387,1.141l-2.258,6.763-3.037-1.829Z" transform="translate(-733.48 -5302.396)" fill="#ffc729"/>
        </g>
        <g id="Grupo_979638" data-name="Grupo 979638" transform="translate(7.903 40.645)">
          <path id="Trazado_654540" data-name="Trazado 654540" d="M723.8,5302.4l4.516,4.517-2.609,1.558-3.037,1.829-2.258-6.763a13.772,13.772,0,0,1,3.387-1.141Z" transform="translate(-720.409 -5302.396)" fill="#ffc729"/>
        </g>
        <g id="Grupo_979639" data-name="Grupo 979639" transform="translate(24.839 63.226)">
          <path id="Trazado_654541" data-name="Trazado 654541" d="M752.933,5339.74v1.129a3.383,3.383,0,0,1-3.387,3.387h-1.129v-4.516Z" transform="translate(-748.417 -5339.74)" fill="#f0d0b4"/>
        </g>
        <g id="Grupo_979640" data-name="Grupo 979640" transform="translate(2.258 63.226)">
          <path id="Trazado_654542" data-name="Trazado 654542" d="M715.59,5339.74v4.516h-1.129a3.383,3.383,0,0,1-3.387-3.387v-1.129Z" transform="translate(-711.074 -5339.74)" fill="#f0d0b4"/>
        </g>
        <g id="Grupo_979641" data-name="Grupo 979641" transform="translate(6.774 14.7)">
          <path id="Trazado_654543" data-name="Trazado 654543" d="M735.67,5277.34a4.543,4.543,0,0,0,3.2,1.321h1.648a4.508,4.508,0,0,1-2.495,2.033,4.463,4.463,0,0,1-1.411.226H732.09v4.516l-4.516,4.517-4.516-4.517v-1.5a6.763,6.763,0,0,0-2.247-5.036l-.022-.022a7.6,7.6,0,0,0,2.269-5.419v-1.569h-1.129a3.387,3.387,0,1,1,0-6.774h1.129a4.514,4.514,0,0,1,4.516-4.516h9.281a8.678,8.678,0,0,0,4.268-1.106v4.686a7.669,7.669,0,0,0,.847,3.511v.012a7.873,7.873,0,0,0,1.411,1.931l-2.258,2.258v2.258h-6.774a4.545,4.545,0,0,0,1.321,3.195Z" transform="translate(-718.542 -5259.49)" fill="#f0d0b4"/>
        </g>
        <g id="Grupo_979642" data-name="Grupo 979642" transform="translate(63.226 49.677)">
          <path id="Trazado_654544" data-name="Trazado 654544" d="M811.9,5317.334h4.516V5335.4H811.9Z" transform="translate(-811.9 -5317.334)" fill="#ff826e"/>
        </g>
        <g id="Grupo_979643" data-name="Grupo 979643" transform="translate(54.194 63.226)">
          <path id="Trazado_654545" data-name="Trazado 654545" d="M796.963,5339.74h4.516v4.516h-4.516Z" transform="translate(-796.963 -5339.74)" fill="#ff826e"/>
        </g>
        <g id="Grupo_979644" data-name="Grupo 979644" transform="translate(45.162 54.194)">
          <path id="Trazado_654546" data-name="Trazado 654546" d="M782.026,5324.8h4.516v13.549h-4.516Z" transform="translate(-782.026 -5324.803)" fill="#ff826e"/>
        </g>
        <g id="Grupo_979645" data-name="Grupo 979645" transform="translate(36.129 58.71)">
          <path id="Trazado_654547" data-name="Trazado 654547" d="M767.088,5332.272H771.6v9.032h-4.516Z" transform="translate(-767.088 -5332.272)" fill="#ff826e"/>
        </g>
        <g id="Grupo_979646" data-name="Grupo 979646" transform="translate(29.355 22.581)">
          <path id="Trazado_654548" data-name="Trazado 654548" d="M758.144,5274.781h13.548v-2.258l9.032,5.645-9.032,5.645v-2.258H755.886v-4.516Z" transform="translate(-755.886 -5272.523)" fill="#ff826e"/>
        </g>
        <g id="Grupo_979647" data-name="Grupo 979647" transform="translate(22.581 29.355)">
          <path id="Trazado_654549" data-name="Trazado 654549" d="M751.457,5283.726v2.258a4.5,4.5,0,0,1-.61,2.258H749.2a4.509,4.509,0,0,1-4.516-4.516Z" transform="translate(-744.683 -5283.726)" fill="#ff826e"/>
        </g>
      </g>
      <g id="Grupo_979649" data-name="Grupo 979649">
        <path id="Trazado_654550" data-name="Trazado 654550" d="M745.855,5268.05v-1.129H743.6v1.129a1.129,1.129,0,0,1-2.258,0v-1.129h-2.258v1.129a3.387,3.387,0,1,0,6.774,0Z" transform="translate(-718.758 -5246.131)"/>
        <path id="Trazado_654551" data-name="Trazado 654551" d="M768.7,5300.749H766.44v-4.516h-6.774v4.516h-2.258V5287.2h-6.774v13.548h-2.258v-9.032H741.6v9.032h-5.143a4.462,4.462,0,0,0,.628-2.258h2.258v-9.937a15.212,15.212,0,0,0-11.291-14.656v-2.5h3.387a5.457,5.457,0,0,0,.736-.074,22.577,22.577,0,1,0,9.262-28.413,9.819,9.819,0,0,0-2.739-8.753l-1.613-1.613-.8.8a6.537,6.537,0,0,1-4.654,1.928h-8.574a17.533,17.533,0,0,0-11.823,30.529l3.658,3.292a5.652,5.652,0,0,1,1.868,4.2v.615a15.212,15.212,0,0,0-11.291,14.656v9.938h2.258a4.521,4.521,0,0,0,4.516,4.517h63.226v-20.323H768.7Zm-6.774-2.258h2.258v2.258h-2.258Zm-9.032-9.032h2.258v11.291h-2.258Zm-9.032,4.517h2.258v6.774h-2.258Zm-11.291,6.774v-2.258h2.258A2.26,2.26,0,0,1,732.569,5300.749Zm4.516-12.2v7.68h-4.516V5287.2h-2.258v13.548h-5.178l3.04-3.041-3.44-13.764.744-1.489,3.2,1.92,2.267-6.8A12.949,12.949,0,0,1,737.085,5288.553Zm-16.5-9.48-3.2,1.919-1.48-4.441a12.734,12.734,0,0,1,1.624-.531Zm6.7-3.054a12.6,12.6,0,0,1,1.624.531l-1.48,4.441-3.2-1.919Zm-4.875,4.595,1.128.676-.7,1.393h-.863l-.7-1.393Zm-.247,4.329h.495l3.017,12.072-3.265,3.267-3.266-3.267Zm-.882-15.807v2.258h4.516v2.92l-3.387,3.387-3.387-3.387v-1.032a7.913,7.913,0,0,0-1.858-5.091,8.8,8.8,0,0,0,1.858-5.383v-2.7h-2.258a2.258,2.258,0,1,1,0-4.517h2.258v-1.129a3.391,3.391,0,0,1,3.387-3.387h9.282a9.849,9.849,0,0,0,3.136-.517v2.968a8.774,8.774,0,0,0,1.841,5.4l-1.841,1.841v1.6h-6.774v1.129a5.646,5.646,0,0,0,4.363,5.484,3.309,3.309,0,0,1-.975.161Zm17.4-9.032h14.21v-1.351l5.773,3.608-5.773,3.608v-1.351H737.085V5261.7Zm24.243,2.258-12.291-7.682v3.167H742.55a11.29,11.29,0,1,1,0,9.032h8.084v3.166Zm-28.306,4.517H733.7a3.393,3.393,0,0,1-3.194-2.259h4.323v1.129A3.352,3.352,0,0,1,734.619,5266.878Zm5.5,0a13.549,13.549,0,1,0,0-9.032h-1.41a6.529,6.529,0,0,1-.662-.9,15.789,15.789,0,1,1-.31,9.934Zm12.768-24.839a20.323,20.323,0,1,1-18.577,28.541,5.653,5.653,0,0,0,1.758-1.621,18.073,18.073,0,1,0,1.017-15.341c0-.031,0-.063,0-.095v-4.059a9.969,9.969,0,0,0,2.749-2.67,20.335,20.335,0,0,1,13.057-4.754Zm-37.369,24.576-2.777-2.5a15.179,15.179,0,0,1-5.016-11.264,15.346,15.346,0,0,1,15.329-15.329h8.574a8.772,8.772,0,0,0,5.4-1.84l.066.067a7.652,7.652,0,0,1-5.411,13.063h-9.282a5.654,5.654,0,0,0-5.532,4.517h-.114a4.516,4.516,0,1,0,0,9.032v.446A6.524,6.524,0,0,1,715.523,5266.614Zm-7.792,21.938a12.946,12.946,0,0,1,6.138-10.979l2.268,6.8,3.2-1.92.744,1.489-3.44,13.763,3.04,3.041H714.5V5287.2h-2.258v9.032H707.73Zm2.258,9.938h2.258v2.258A2.261,2.261,0,0,1,709.988,5298.49Zm60.967-13.548h2.258v15.806h-2.258Z" transform="translate(-705.472 -5232.539)"/>
      </g>
    </g>
  </g>
</svg>
