<svg xmlns="http://www.w3.org/2000/svg" width="70" height="76.798" viewBox="0 0 70 76.798">
  <g id="Grupo_979612" data-name="Grupo 979612" transform="translate(-320.48 -5233.109)">
    <g id="Grupo_979611" data-name="Grupo 979611" transform="translate(320.48 5233.109)">
      <path id="Trazado_654494" data-name="Trazado 654494" d="M364.5,5255.282a.75.75,0,0,1-.75-.75V5243.11a.75.75,0,0,1,.75-.75h24.437v-6.053a1.5,1.5,0,0,0-1.5-1.5h-52a1.5,1.5,0,0,0-1.5,1.5v7.708a17.06,17.06,0,1,1,0,28.641v35.2a1.5,1.5,0,0,0,1.5,1.5h52a1.5,1.5,0,0,0,1.5-1.5v-52.573Z" transform="translate(-325.025 -5233.683)" fill="#eaf6ff"/>
      <g id="Grupo_979590" data-name="Grupo 979590" transform="translate(8.911 1.125)">
        <path id="Trazado_654495" data-name="Trazado 654495" d="M343.209,5241.276h.052v-4.97a1.5,1.5,0,0,1,1.5-1.5h-9.325a1.5,1.5,0,0,0-1.5,1.5v7.708A16.984,16.984,0,0,1,343.209,5241.276Z" transform="translate(-333.936 -5234.807)" fill="#d8ecfe"/>
        <path id="Trazado_654496" data-name="Trazado 654496" d="M343.261,5327.159V5294.7h-.052a16.976,16.976,0,0,1-9.273-2.739v35.2a1.5,1.5,0,0,0,1.5,1.5h9.325a1.5,1.5,0,0,1-1.5-1.5Z" transform="translate(-333.936 -5254.111)" fill="#d8ecfe"/>
      </g>
      <g id="Grupo_979601" data-name="Grupo 979601" transform="translate(16.366 37.405)">
        <g id="Grupo_979599" data-name="Grupo 979599">
          <g id="Grupo_979591" data-name="Grupo 979591" transform="translate(0 14.579)">
            <path id="Trazado_654497" data-name="Trazado 654497" d="M351.488,5326.184h-6.3v-13.828a.75.75,0,0,1,.75-.75h4.8a.75.75,0,0,1,.75.75Z" transform="translate(-345.193 -5311.605)" fill="#fea95c"/>
          </g>
          <g id="Grupo_979592" data-name="Grupo 979592" transform="translate(0 14.579)">
            <path id="Trazado_654498" data-name="Trazado 654498" d="M348.369,5311.6h-2.426a.75.75,0,0,0-.75.75v13.828h2.426v-13.828A.75.75,0,0,1,348.369,5311.6Z" transform="translate(-345.193 -5311.605)" fill="#fe9738"/>
          </g>
          <g id="Grupo_979593" data-name="Grupo 979593" transform="translate(11.265 15.904)">
            <path id="Trazado_654499" data-name="Trazado 654499" d="M368.5,5326.859h-6.3v-12.5a.75.75,0,0,1,.75-.75h4.8a.75.75,0,0,1,.75.75Z" transform="translate(-362.203 -5313.606)" fill="#fe646f"/>
          </g>
          <g id="Grupo_979594" data-name="Grupo 979594" transform="translate(11.265 15.904)">
            <path id="Trazado_654500" data-name="Trazado 654500" d="M365.365,5313.606h-2.411a.751.751,0,0,0-.75.75v12.5h2.411v-12.5a.75.75,0,0,1,.75-.75Z" transform="translate(-362.203 -5313.606)" fill="#fd4755"/>
          </g>
          <g id="Grupo_979595" data-name="Grupo 979595" transform="translate(22.53 5.302)">
            <path id="Trazado_654501" data-name="Trazado 654501" d="M385.509,5321.452h-6.3v-23.105a.75.75,0,0,1,.75-.75h4.8a.75.75,0,0,1,.75.75Z" transform="translate(-379.214 -5297.597)" fill="#26a6fe"/>
          </g>
          <g id="Grupo_979596" data-name="Grupo 979596" transform="translate(22.53 5.302)">
            <path id="Trazado_654502" data-name="Trazado 654502" d="M382.51,5297.6h-2.546a.75.75,0,0,0-.75.75v23.105h2.546v-23.105a.749.749,0,0,1,.75-.75Z" transform="translate(-379.214 -5297.597)" fill="#0593fc"/>
          </g>
          <g id="Grupo_979597" data-name="Grupo 979597" transform="translate(33.795)">
            <path id="Trazado_654503" data-name="Trazado 654503" d="M402.519,5318.748h-6.3v-28.407a.75.75,0,0,1,.75-.75h4.8a.75.75,0,0,1,.75.75Z" transform="translate(-396.224 -5289.591)" fill="#05e39c"/>
          </g>
          <g id="Grupo_979598" data-name="Grupo 979598" transform="translate(33.795)">
            <path id="Trazado_654504" data-name="Trazado 654504" d="M399.505,5289.591h-2.53a.75.75,0,0,0-.75.75v28.407h2.53v-28.407A.75.75,0,0,1,399.505,5289.591Z" transform="translate(-396.225 -5289.591)" fill="#0ed290"/>
          </g>
        </g>
        <g id="Grupo_979600" data-name="Grupo 979600" transform="translate(12.093 5.633)">
          <circle id="Elipse_4718" data-name="Elipse 4718" cx="2.816" cy="2.816" r="2.816" fill="#fe646f"/>
        </g>
      </g>
      <g id="Grupo_979606" data-name="Grupo 979606" transform="translate(1.125 7.594)">
        <g id="Grupo_979602" data-name="Grupo 979602">
          <circle id="Elipse_4719" data-name="Elipse 4719" cx="17.059" cy="17.059" r="17.059" fill="#9857bd"/>
        </g>
        <g id="Grupo_979603" data-name="Grupo 979603" transform="translate(4.473 4.473)">
          <circle id="Elipse_4720" data-name="Elipse 4720" cx="12.586" cy="12.586" r="12.586" fill="#05e39c"/>
        </g>
        <g id="Grupo_979604" data-name="Grupo 979604" transform="translate(4.473 4.472)">
          <path id="Trazado_654505" data-name="Trazado 654505" d="M334.023,5263.916a12.608,12.608,0,0,1,10.041-12.328,12.586,12.586,0,1,0,0,24.655A12.608,12.608,0,0,1,334.023,5263.916Z" transform="translate(-328.933 -5251.329)" fill="#0ed290"/>
        </g>
        <g id="Grupo_979605" data-name="Grupo 979605" transform="translate(10.439 10.016)">
          <circle id="Elipse_4721" data-name="Elipse 4721" cx="2.113" cy="2.113" r="2.113" fill="#fff"/>
          <circle id="Elipse_4722" data-name="Elipse 4722" cx="2.113" cy="2.113" r="2.113" transform="translate(9.015 9.86)" fill="#fff"/>
        </g>
      </g>
      <g id="Grupo_979609" data-name="Grupo 979609" transform="translate(38.724 8.677)">
        <g id="Grupo_979607" data-name="Grupo 979607">
          <path id="Trazado_654506" data-name="Trazado 654506" d="M379.7,5259.134h28.65a.75.75,0,0,0,.75-.75v-11.421a.75.75,0,0,0-.75-.75H379.7a.75.75,0,0,0-.75.75v11.421A.75.75,0,0,0,379.7,5259.134Z" transform="translate(-378.955 -5246.212)" fill="#26a6fe"/>
        </g>
        <g id="Grupo_979608" data-name="Grupo 979608">
          <path id="Trazado_654507" data-name="Trazado 654507" d="M384.517,5258.384v-11.421a.75.75,0,0,1,.75-.75H379.7a.75.75,0,0,0-.75.75v11.421a.75.75,0,0,0,.75.75h5.563A.75.75,0,0,1,384.517,5258.384Z" transform="translate(-378.955 -5246.212)" fill="#0593fc"/>
        </g>
      </g>
      <g id="Grupo_979610" data-name="Grupo 979610">
        <path id="Trazado_654508" data-name="Trazado 654508" d="M365.824,5280.406a1.126,1.126,0,0,0-.975.563l-4,6.953a3.939,3.939,0,0,0-5.246,3.417H344.619a1.125,1.125,0,1,0,0,2.25h11.488a3.939,3.939,0,1,0,6.563-4.328l3.8-6.605h6.97a1.124,1.124,0,0,0,.8-.33l7.853-7.854v2.254a1.125,1.125,0,0,0,2.25,0v-4.97a1.125,1.125,0,0,0-1.125-1.125h-4.97a1.125,1.125,0,1,0,0,2.25H380.5l-7.524,7.524Zm-6.3,12.921a1.691,1.691,0,1,1,1.691-1.69A1.692,1.692,0,0,1,359.529,5293.327Z" transform="translate(-328.253 -5245.783)"/>
        <path id="Trazado_654509" data-name="Trazado 654509" d="M340.945,5277.054a13.7,13.7,0,0,0,13.29-10.338,1.125,1.125,0,0,0-2.181-.554,11.468,11.468,0,1,1,.18-4.781,1.125,1.125,0,0,0,2.217-.384,13.71,13.71,0,1,0-13.507,16.057Z" transform="translate(-322.761 -5238.689)"/>
        <path id="Trazado_654510" data-name="Trazado 654510" d="M342.718,5261.239a3.238,3.238,0,1,0-3.238,3.238A3.242,3.242,0,0,0,342.718,5261.239Zm-3.238.987a.988.988,0,1,1,.988-.987A.989.989,0,0,1,339.481,5262.227Z" transform="translate(-325.804 -5241.517)"/>
        <path id="Trazado_654511" data-name="Trazado 654511" d="M353.094,5279.366a3.238,3.238,0,1,0-3.238-3.238A3.241,3.241,0,0,0,353.094,5279.366Zm0-4.226a.988.988,0,1,1-.988.988A.989.989,0,0,1,353.094,5275.141Z" transform="translate(-330.402 -5246.546)"/>
        <path id="Trazado_654512" data-name="Trazado 654512" d="M341.773,5274.227a1.124,1.124,0,0,0,1.5-.527l6.761-14.086a1.125,1.125,0,1,0-2.028-.974l-6.761,14.086A1.125,1.125,0,0,0,341.773,5274.227Z" transform="translate(-327.456 -5241.516)"/>
        <path id="Trazado_654513" data-name="Trazado 654513" d="M388.6,5240.662h-3.089v-4.929a2.628,2.628,0,0,0-2.625-2.625h-52a2.628,2.628,0,0,0-2.625,2.625v7.119a18.168,18.168,0,0,0,0,29.818v34.61a2.628,2.628,0,0,0,2.625,2.626h52a2.628,2.628,0,0,0,2.625-2.626v-42.823a1.125,1.125,0,1,0-2.25,0v42.823a.376.376,0,0,1-.375.376h-52a.376.376,0,0,1-.375-.376v-33.267a18.184,18.184,0,1,0,0-32.506v-5.775a.376.376,0,0,1,.375-.375h52a.375.375,0,0,1,.375.375v4.929H359.954a1.877,1.877,0,0,0-1.875,1.875v11.421a1.877,1.877,0,0,0,1.875,1.875h23.312v3.375a1.125,1.125,0,1,0,2.25,0v-3.375H388.6a1.877,1.877,0,0,0,1.875-1.875v-11.421a1.877,1.877,0,0,0-1.875-1.875Zm-34.006,17.1a15.934,15.934,0,1,1-15.935-15.935,15.953,15.953,0,0,1,15.935,15.935Zm33.631-4.179h-27.9v-10.672h27.9Z" transform="translate(-320.48 -5233.109)"/>
        <path id="Trazado_654514" data-name="Trazado 654514" d="M387.378,5257.452a1.125,1.125,0,0,0,1.615,0l3.286-3.388a1.125,1.125,0,0,0-1.615-1.566l-2.478,2.555-1.275-1.314a1.125,1.125,0,1,0-1.615,1.566Z" transform="translate(-342.265 -5239.542)"/>
        <path id="Trazado_654515" data-name="Trazado 654515" d="M399.462,5259.521h11.076a1.125,1.125,0,1,0,0-2.25H399.462a1.125,1.125,0,0,0,0,2.25Z" transform="translate(-346.777 -5241.27)"/>
        <path id="Trazado_654516" data-name="Trazado 654516" d="M399.462,5253.768h11.076a1.125,1.125,0,1,0,0-2.25H399.462a1.125,1.125,0,0,0,0,2.25Z" transform="translate(-346.777 -5239.327)"/>
        <path id="Trazado_654517" data-name="Trazado 654517" d="M343.494,5318.175a1.125,1.125,0,0,0,1.125,1.125h40.09a1.125,1.125,0,0,0,1.125-1.125v-28.407a1.877,1.877,0,0,0-1.875-1.875h-4.8a1.877,1.877,0,0,0-1.875,1.875v27.282h-2.72v-21.98a1.877,1.877,0,0,0-1.875-1.875h-4.8a1.877,1.877,0,0,0-1.875,1.875v21.98H363.3v-11.378a1.877,1.877,0,0,0-1.875-1.874h-4.8a1.877,1.877,0,0,0-1.875,1.874v11.378h-2.72v-2.288a1.125,1.125,0,1,0-2.25,0v2.288h-4.046v-12.328h4.046v4.79a1.125,1.125,0,1,0,2.25,0v-5.165a1.877,1.877,0,0,0-1.875-1.875h-4.8a1.877,1.877,0,0,0-1.875,1.875Zm36.045-28.032h4.046v26.907h-4.046Zm-11.265,5.3h4.046v21.606h-4.046Zm-11.265,10.6h4.045v11h-4.045Z" transform="translate(-328.253 -5251.612)"/>
      </g>
    </g>
  </g>
</svg>
