<svg id="Grupo_1009605" data-name="Grupo 1009605" xmlns="http://www.w3.org/2000/svg" width="106.252" height="106.252" viewBox="0 0 106.252 106.252">
  <g id="bar_code-scan-qr_code-delivery-logistic-parcel_box" data-name="bar code-scan-qr code-delivery-logistic-parcel box">
    <path id="Trazado_655291" data-name="Trazado 655291" d="M892.733,244.688h-12.4v-40.73a1.777,1.777,0,0,0-.248-.9l-10.626-17.709a1.754,1.754,0,0,0-1.523-.867H800.647a1.756,1.756,0,0,0-1.523.867L788.5,203.054a1.788,1.788,0,0,0-.247.9v74.377a1.77,1.77,0,0,0,1.771,1.77h44.271v8.854a1.771,1.771,0,0,0,1.771,1.771h56.667a1.771,1.771,0,0,0,1.771-1.771v-42.5A1.77,1.77,0,0,0,892.733,244.688Zm-25.8-56.668,8.5,14.166h-29.06l-2.833-14.166Zm-38.269,0h11.263l2.834,14.166H825.83Zm-3.223,17.707h17.709v17.709H825.439ZM801.658,188.02h23.393l-2.834,14.166h-29.06Zm32.636,58.437v30.106h-42.5V205.728H821.9v19.48a1.77,1.77,0,0,0,1.77,1.771H844.92a1.771,1.771,0,0,0,1.771-1.771v-19.48h30.1v38.96h-40.73A1.77,1.77,0,0,0,834.294,246.458Zm56.668,40.73H837.836V248.229h53.125Z" transform="translate(-788.252 -184.478)" fill="#fff"/>
    <path id="Trazado_655292" data-name="Trazado 655292" d="M834.354,224.294H837.9v24.792h-3.543Z" transform="translate(-756.437 -157.001)" fill="#fff"/>
    <path id="Trazado_655293" data-name="Trazado 655293" d="M834.354,241.058H837.9V244.6h-3.543Z" transform="translate(-756.437 -145.432)" fill="#fff"/>
    <path id="Trazado_655294" data-name="Trazado 655294" d="M837.5,224.294h3.541v24.792H837.5Z" transform="translate(-754.267 -157.001)" fill="#fff"/>
    <path id="Trazado_655295" data-name="Trazado 655295" d="M837.5,241.058h3.541V244.6H837.5Z" transform="translate(-754.267 -145.432)" fill="#fff"/>
    <path id="Trazado_655296" data-name="Trazado 655296" d="M841.689,224.294h3.541v24.792h-3.541Z" transform="translate(-751.375 -157.001)" fill="#fff"/>
    <path id="Trazado_655297" data-name="Trazado 655297" d="M841.689,241.058h3.541V244.6h-3.541Z" transform="translate(-751.375 -145.432)" fill="#fff"/>
    <path id="Trazado_655298" data-name="Trazado 655298" d="M844.832,224.294h3.542v31.875h-3.542Z" transform="translate(-749.206 -157.001)" fill="#fff"/>
    <path id="Trazado_655299" data-name="Trazado 655299" d="M831.211,224.294h3.542v24.792h-3.542Z" transform="translate(-758.606 -157.001)" fill="#fff"/>
    <path id="Trazado_655300" data-name="Trazado 655300" d="M831.211,241.058h3.542V244.6h-3.542Z" transform="translate(-758.606 -145.432)" fill="#fff"/>
    <path id="Trazado_655301" data-name="Trazado 655301" d="M827.02,224.294h3.541v24.792H827.02Z" transform="translate(-761.498 -157.001)" fill="#fff"/>
    <path id="Trazado_655302" data-name="Trazado 655302" d="M827.02,241.058h3.541V244.6H827.02Z" transform="translate(-761.498 -145.432)" fill="#fff"/>
    <path id="Trazado_655303" data-name="Trazado 655303" d="M823.876,224.294h3.542v24.792h-3.542Z" transform="translate(-763.668 -157.001)" fill="#fff"/>
    <path id="Trazado_655304" data-name="Trazado 655304" d="M823.876,241.058h3.542V244.6h-3.542Z" transform="translate(-763.668 -145.432)" fill="#fff"/>
    <path id="Trazado_655305" data-name="Trazado 655305" d="M819.685,224.294h3.543v31.875h-3.543Z" transform="translate(-766.56 -157.001)" fill="#fff"/>
    <path id="Trazado_655306" data-name="Trazado 655306" d="M826.09,222.2H794.214a1.771,1.771,0,0,0-1.771,1.771v21.25a1.771,1.771,0,0,0,1.771,1.771H826.09a1.771,1.771,0,0,0,1.771-1.771v-21.25A1.771,1.771,0,0,0,826.09,222.2Zm-1.771,21.251H795.986V225.74h28.333Z" transform="translate(-785.36 -158.447)" fill="#fff"/>
    <path id="Trazado_655307" data-name="Trazado 655307" d="M798.405,229.931h1.771a1.771,1.771,0,0,0,0-3.542h-1.771a1.771,1.771,0,1,0,0,3.542Z" transform="translate(-782.468 -155.555)" fill="#fff"/>
    <path id="Trazado_655308" data-name="Trazado 655308" d="M802.6,229.931h10.626a1.771,1.771,0,0,0,0-3.542H802.6a1.771,1.771,0,1,0,0,3.542Z" transform="translate(-779.575 -155.555)" fill="#fff"/>
    <path id="Trazado_655309" data-name="Trazado 655309" d="M798.405,234.122h1.771a1.771,1.771,0,0,0,0-3.542h-1.771a1.771,1.771,0,1,0,0,3.542Z" transform="translate(-782.468 -152.663)" fill="#fff"/>
    <path id="Trazado_655310" data-name="Trazado 655310" d="M802.6,234.122h10.626a1.771,1.771,0,0,0,0-3.542H802.6a1.771,1.771,0,1,0,0,3.542Z" transform="translate(-779.575 -152.663)" fill="#fff"/>
    <path id="Trazado_655311" data-name="Trazado 655311" d="M797.552,215.864l2.29-2.29v13.435a1.77,1.77,0,1,0,3.541,0V213.574l2.29,2.29a1.771,1.771,0,0,0,2.5-2.5l-5.314-5.314a1.77,1.77,0,0,0-2.5,0l-5.312,5.314a1.77,1.77,0,0,0,2.5,2.5Z" transform="translate(-783.905 -168.57)" fill="#fff"/>
  </g>
</svg>
