<svg xmlns="http://www.w3.org/2000/svg" width="70" height="70" viewBox="0 0 70 70">
  <g id="Grupo_1009600" data-name="Grupo 1009600" transform="translate(-116.837 -5050.733)">
    <g id="Grupo_979588" data-name="Grupo 979588" transform="translate(116.837 5050.733)">
      <g id="Grupo_979586" data-name="Grupo 979586" transform="translate(1.094 1.094)">
        <g id="Grupo_979585" data-name="Grupo 979585">
          <circle id="Elipse_4714" data-name="Elipse 4714" cx="30.431" cy="30.431" r="30.431" fill="#ffe27a"/>
          <path id="Trazado_654483" data-name="Trazado 654483" d="M149.158,5132.288a30.43,30.43,0,0,1-30.4-29.2c-.016.409-.027.818-.027,1.23a30.431,30.431,0,1,0,60.861,0c0-.412-.011-.822-.027-1.23a30.43,30.43,0,0,1-30.4,29.2Z" transform="translate(-118.728 -5073.888)" fill="#f9cf58"/>
          <circle id="Elipse_4715" data-name="Elipse 4715" cx="25.177" cy="25.177" r="25.177" transform="translate(5.247 5.254)" fill="#f9f6f6"/>
          <path id="Trazado_654484" data-name="Trazado 654484" d="M152.981,5127.038a25.18,25.18,0,0,1-25.15-23.95c-.02.408-.031.818-.031,1.23a25.18,25.18,0,1,0,50.361,0q0-.618-.03-1.23a25.181,25.181,0,0,1-25.15,23.95Z" transform="translate(-122.551 -5073.888)" fill="#ecdaec"/>
          <path id="Trazado_654485" data-name="Trazado 654485" d="M156.018,5089.211l-15.471,15.471a25.18,25.18,0,1,0,17.805-42.985v21.881" transform="translate(-127.922 -5056.446)" fill="#ef8b53"/>
          <circle id="Elipse_4716" data-name="Elipse 4716" cx="3.3" cy="3.3" r="3.3" transform="translate(27.13 27.13)" fill="#ffe27a"/>
          <path id="Trazado_654486" data-name="Trazado 654486" d="M168.915,5105.158a3.3,3.3,0,0,1-3.063-2.07,3.3,3.3,0,1,0,6.125,0,3.3,3.3,0,0,1-3.062,2.07Z" transform="translate(-138.485 -5073.888)" fill="#f9cf58"/>
          <path id="Trazado_654487" data-name="Trazado 654487" d="M158.352,5127.038a25.078,25.078,0,0,1-16.532-6.187l-1.274,1.273a25.18,25.18,0,0,0,42.986-17.805c0-.412-.011-.823-.031-1.23a25.18,25.18,0,0,1-25.15,23.95Z" transform="translate(-127.922 -5073.888)" fill="#bf6f42"/>
        </g>
        <path id="Trazado_654488" data-name="Trazado 654488" d="M207.739,5121.631l-3.16-.475a14.737,14.737,0,0,0-2.324-5.607l1.9-2.571a1.13,1.13,0,0,0-.11-1.471l-1.635-1.635a1.131,1.131,0,0,0-1.471-.11l-2.571,1.9a14.728,14.728,0,0,0-5.607-2.324l-.475-3.16a1.13,1.13,0,0,0-1.118-.962h-2.313a1.131,1.131,0,0,0-1.118.962l-.475,3.16a14.728,14.728,0,0,0-5.607,2.324l-2.571-1.9a1.13,1.13,0,0,0-1.471.11l-1.636,1.635a1.13,1.13,0,0,0-.11,1.471l1.9,2.571a14.736,14.736,0,0,0-2.324,5.607l-3.16.475a1.131,1.131,0,0,0-.962,1.119v2.313a1.131,1.131,0,0,0,.962,1.118l3.16.475a14.736,14.736,0,0,0,2.324,5.607l-1.9,2.571a1.129,1.129,0,0,0,.11,1.471l1.636,1.636a1.129,1.129,0,0,0,1.471.109l2.571-1.9a14.735,14.735,0,0,0,5.607,2.323l.475,3.16a1.13,1.13,0,0,0,1.118.962h2.313a1.131,1.131,0,0,0,1.118-.962l.475-3.16a14.732,14.732,0,0,0,5.607-2.323l2.571,1.9a1.129,1.129,0,0,0,1.471-.109l1.636-1.635a1.132,1.132,0,0,0,.11-1.472l-1.9-2.571a14.737,14.737,0,0,0,2.324-5.607l3.16-.475a1.131,1.131,0,0,0,.962-1.118v-2.312a1.131,1.131,0,0,0-.963-1.118Zm-17.728,11.744a9.469,9.469,0,1,1,9.469-9.47A9.47,9.47,0,0,1,190.01,5133.375Z" transform="translate(-140.888 -5074.784)" fill="#4a80aa"/>
        <circle id="Elipse_4717" data-name="Elipse 4717" cx="9.47" cy="9.47" r="9.47" transform="translate(39.652 39.652)" fill="#ffe27a"/>
        <path id="Trazado_654489" data-name="Trazado 654489" d="M196.726,5150.344a9.456,9.456,0,0,0,9.387-10.7,9.467,9.467,0,0,1-18.775,0,9.572,9.572,0,0,0-.082,1.23,9.469,9.469,0,0,0,9.47,9.47Z" transform="translate(-147.604 -5089.292)" fill="#407093"/>
        <path id="Trazado_654490" data-name="Trazado 654490" d="M196.726,5143.63a9.469,9.469,0,0,1-9.388-8.239,9.572,9.572,0,0,0-.082,1.23,9.47,9.47,0,0,0,18.939,0,9.569,9.569,0,0,0-.082-1.23,9.47,9.47,0,0,1-9.388,8.239Z" transform="translate(-147.604 -5087.5)" fill="#f9cf58"/>
      </g>
      <g id="Grupo_979587" data-name="Grupo 979587">
        <path id="Trazado_654491" data-name="Trazado 654491" d="M196.015,5119.4a10.515,10.515,0,1,0,3.855,20.3,1.027,1.027,0,0,0-.753-1.912,8.474,8.474,0,1,1,3.04-2.056,1.027,1.027,0,1,0,1.491,1.414,10.515,10.515,0,0,0-7.633-17.749Z" transform="translate(-145.77 -5079.665)"/>
        <path id="Trazado_654492" data-name="Trazado 654492" d="M185,5097.683l-2.461-.37a15.667,15.667,0,0,0-1.936-4.671l1.48-2a2.147,2.147,0,0,0-.21-2.811l-1.639-1.639a2.192,2.192,0,0,0-.559-.4,31.924,31.924,0,0,0,.2-3.535,31.519,31.519,0,0,0-51.829-24.1,1.028,1.028,0,0,0,1.325,1.571,29.463,29.463,0,0,1,48.449,22.53,29.844,29.844,0,0,1-.222,3.614,2.086,2.086,0,0,0-.174.115l-2,1.48q-.588-.363-1.2-.671a26.454,26.454,0,0,0,.393-4.538,26.139,26.139,0,0,0-4.389-14.538,1.028,1.028,0,0,0-1.71,1.139,24.093,24.093,0,0,1,4.044,13.4,24.475,24.475,0,0,1-.284,3.717c-.5-.172-1.007-.323-1.525-.445l-.37-2.461a2.147,2.147,0,0,0-2.136-1.839h-2.317a2.147,2.147,0,0,0-2.136,1.839l-.37,2.461a15.663,15.663,0,0,0-4.671,1.937l-2-1.48a2.149,2.149,0,0,0-2.811.21l-1.639,1.639a2.148,2.148,0,0,0-.21,2.811l1.48,2a15.681,15.681,0,0,0-1.936,4.671l-2.461.371a2.146,2.146,0,0,0-1.839,2.136v2.317a2.147,2.147,0,0,0,1.839,2.136l2.461.37a15.7,15.7,0,0,0,.445,1.526,24.5,24.5,0,0,1-3.718.284,24.11,24.11,0,0,1-16.363-6.386l14.113-14.113a4.334,4.334,0,1,0,3.278-7.914v-19.968a24.11,24.11,0,0,1,16.686,7.686,1.027,1.027,0,1,0,1.5-1.4,26.253,26.253,0,1,0-14.678,43.757c.206.408.428.808.671,1.2l-1.48,2c-.042.057-.08.115-.116.174a29.831,29.831,0,0,1-3.614.222,29.463,29.463,0,0,1-21.848-49.23,1.027,1.027,0,1,0-1.523-1.379,31.515,31.515,0,0,0,26.907,52.465,2.185,2.185,0,0,0,.4.559l1.639,1.639a2.149,2.149,0,0,0,2.811.21l2-1.48a15.666,15.666,0,0,0,4.671,1.935l.37,2.462a2.147,2.147,0,0,0,2.136,1.839h2.317a2.147,2.147,0,0,0,2.136-1.839l.37-2.462a15.65,15.65,0,0,0,4.671-1.935l2,1.479a2.148,2.148,0,0,0,2.811-.209l1.639-1.639a2.148,2.148,0,0,0,.21-2.811l-1.48-2a15.674,15.674,0,0,0,1.936-4.671l2.461-.37a2.147,2.147,0,0,0,1.839-2.136v-2.317a2.146,2.146,0,0,0-1.838-2.137Zm-34.364-15.433a2.279,2.279,0,1,1-2.28-2.28A2.282,2.282,0,0,1,150.634,5082.25Zm-26.459,1.027H127.9a1.028,1.028,0,1,0,0-2.055h-3.721a24.11,24.11,0,0,1,6.363-15.335l2.623,2.624a1.027,1.027,0,1,0,1.453-1.453l-2.623-2.624a24.108,24.108,0,0,1,15.336-6.362v19.968a4.333,4.333,0,0,0-2.676,6.46l-14.113,14.113a24.11,24.11,0,0,1-6.363-15.335Zm60.607,18.858a.105.105,0,0,1-.09.1l-3.166.476a1.026,1.026,0,0,0-.857.826,13.675,13.675,0,0,1-2.166,5.228,1.026,1.026,0,0,0,.021,1.19l1.9,2.576a.106.106,0,0,1-.01.138l-1.639,1.638a.1.1,0,0,1-.137.01l-2.576-1.9a1.028,1.028,0,0,0-1.19-.021,13.671,13.671,0,0,1-5.228,2.167,1.025,1.025,0,0,0-.826.857l-.476,3.166a.105.105,0,0,1-.1.09h-2.317a.106.106,0,0,1-.1-.09l-.476-3.166a1.026,1.026,0,0,0-.827-.857,13.679,13.679,0,0,1-5.228-2.167,1.028,1.028,0,0,0-1.19.021l-2.576,1.9a.106.106,0,0,1-.137-.01l-1.639-1.638a.105.105,0,0,1-.01-.138l1.9-2.576a1.026,1.026,0,0,0,.022-1.19,13.68,13.68,0,0,1-2.167-5.228,1.026,1.026,0,0,0-.857-.826l-3.166-.476a.106.106,0,0,1-.09-.1v-2.317a.1.1,0,0,1,.09-.1l3.166-.476a1.027,1.027,0,0,0,.857-.827,13.681,13.681,0,0,1,2.167-5.228,1.028,1.028,0,0,0-.022-1.19l-1.9-2.576a.106.106,0,0,1,.01-.137l1.639-1.638a.1.1,0,0,1,.137-.01l2.576,1.9a1.027,1.027,0,0,0,1.19.022,13.68,13.68,0,0,1,5.228-2.167,1.026,1.026,0,0,0,.827-.857l.476-3.166a.105.105,0,0,1,.1-.09h2.317a.1.1,0,0,1,.1.09l.476,3.166a1.025,1.025,0,0,0,.826.857,13.668,13.668,0,0,1,5.228,2.167,1.028,1.028,0,0,0,1.19-.022l2.576-1.9a.1.1,0,0,1,.137.01l1.639,1.639a.106.106,0,0,1,.01.137l-1.9,2.576a1.027,1.027,0,0,0-.021,1.19,13.673,13.673,0,0,1,2.166,5.228,1.028,1.028,0,0,0,.857.827l3.166.476a.105.105,0,0,1,.09.1v2.317Z" transform="translate(-116.837 -5050.733)"/>
        <path id="Trazado_654493" data-name="Trazado 654493" d="M203.135,5132.068,199.3,5136l-1.666-1.62a1.027,1.027,0,0,0-1.433,1.473l2.4,2.334a1.027,1.027,0,0,0,1.452-.019l4.554-4.67a1.027,1.027,0,1,0-1.471-1.434Z" transform="translate(-150.147 -5084.875)"/>
      </g>
    </g>
  </g>
</svg>
