<svg id="Grupo_979796" data-name="Grupo 979796" xmlns="http://www.w3.org/2000/svg" width="92.845" height="106.252" viewBox="0 0 92.845 106.252">
  <path id="Trazado_655312" data-name="Trazado 655312" d="M924.269,326.767a1.66,1.66,0,0,0,0,3.321H933.5a1.66,1.66,0,1,0,0-3.321Z" transform="translate(-905.988 -266.748)" fill="#fff"/>
  <path id="Trazado_655313" data-name="Trazado 655313" d="M938.054,323.2a1.661,1.661,0,0,0-1.66-1.662H914.448a1.661,1.661,0,0,0,0,3.322h21.946A1.661,1.661,0,0,0,938.054,323.2Z" transform="translate(-912.788 -270.366)" fill="#fff"/>
  <path id="Trazado_655314" data-name="Trazado 655314" d="M921,314.412h18.241a1.66,1.66,0,1,0,0-3.321H921a1.66,1.66,0,1,0,0,3.321Z" transform="translate(-908.254 -277.602)" fill="#fff"/>
  <path id="Trazado_655315" data-name="Trazado 655315" d="M998.013,327.636a1.661,1.661,0,0,0,1.66-1.66V315.509a3.256,3.256,0,0,0-3.251-3.255H969.284a3.258,3.258,0,0,0-3.256,3.255v8.5c-2.677-3.006-5.83-6.123-6.985-7.266l-.352-.347a11.961,11.961,0,0,0-2.288-1.7,12.194,12.194,0,0,0,5.216-10.165v-1.97l6.338-1.043a1.66,1.66,0,1,0-.486-3.285l-.051.008-6,.987-.176-1.587a7.132,7.132,0,0,0-7.875-6.293l-7.235.8a7.139,7.139,0,0,0-6.3,7.875l.8,6.441A11.075,11.075,0,0,0,945.9,314.7a8.034,8.034,0,0,0-.905.663,6.583,6.583,0,0,0-2.151,4.9c0,1.532.536,5.827,1.66,13.353h-6.689a1.66,1.66,0,1,0,0,3.321H950.57a1.66,1.66,0,1,0,0-3.321h-2.721c-1.122-7.476-1.7-11.993-1.7-13.353a3.278,3.278,0,0,1,1.107-2.478,5.831,5.831,0,0,1,4.285-1.42,9.544,9.544,0,0,1,4.807,2.381l.367.362c1.185,1.169,4.514,4.46,7.195,7.511l-3.529,3.783-3.59-3.194a1.663,1.663,0,1,0-2.214,2.483l7.3,6.492.43,6.529-9.239.943a1.662,1.662,0,1,0,.166,3.321,1.451,1.451,0,0,0,.171,0l9.122-.931.166,2.51a1.658,1.658,0,0,0,.87,1.352l15.474,8.328a2.406,2.406,0,0,1,1.244,1.728l4.5,25.813-3.637.677a1.661,1.661,0,0,0,.5,3.283c.036-.005.069-.012.1-.019l6.445-1.2a.946.946,0,0,1,.707.122.728.728,0,0,1,.32.477l.222,1.51-9.714,1.772-5.313-28.56a2.912,2.912,0,0,0-2.281-2.308c-5.485-1.107-12.714-2.987-15.025-4.6-5.116-3.571-6.829-7.14-7.035-8.687-.078-.586-1.357-8.755-1.357-8.755a1.66,1.66,0,0,0-3.29.449l.01.061s1.207,7.714,1.3,8.413l-4.265,19.353a.533.533,0,0,1-.188.3l-16.051,12.641-3.722,2.508a1.471,1.471,0,0,0-.222.173,2.9,2.9,0,0,0-.383,3.764l6.954,9.706a1.66,1.66,0,0,0,2.273.411l2.644-1.77a4.119,4.119,0,0,0,1.188-5.419L953,375.679A3.7,3.7,0,0,0,954.2,374l3.827-9.466A1.66,1.66,0,1,0,955,363.184c-.015.034-.029.068-.042.1l-3.864,9.567a.5.5,0,0,1-.161.22l-17.874,14.31-1.929-2.684a1.661,1.661,0,0,0-2.7,1.941L932,391.59a.819.819,0,0,1-.064,1.156l-.037.032-1.269.851-5.737-8.01L928.2,383.4l16.161-12.754a3.848,3.848,0,0,0,1.374-2.193l3.266-14.809a25.118,25.118,0,0,0,6.238,5.986c3.256,2.276,12.067,4.27,16,5.076l5.409,29.064a2.912,2.912,0,0,0,2.749,2.009,2.74,2.74,0,0,0,.5-.046l11.749-2.129a1.662,1.662,0,0,0,1.345-1.88l-.469-3.148a4.065,4.065,0,0,0-1.772-2.711,4.234,4.234,0,0,0-2.681-.663l-4.5-25.815a5.717,5.717,0,0,0-2.945-4.082l-14.663-7.89-.533-8.07.6.5v2.738a3.258,3.258,0,0,0,3.256,3.255h27.138a3.244,3.244,0,0,0,3-1.992,1.675,1.675,0,0,0-.858-2.2,1.612,1.612,0,0,0-2.122.824l-.019.046-27.074.068v-1.728c7.022-.33,17.33-.8,18.75-.841l2.615.476a1.738,1.738,0,0,0,.31.027l7.005-.061a1.661,1.661,0,0,0,1.645-1.662V330.46a1.649,1.649,0,0,0-.5-1.193,1.7,1.7,0,0,0-1.208-.467l-5.993.191a1.7,1.7,0,0,0-.789.222l-2.089,1.229-17.606-.614a1.043,1.043,0,0,1-.548-.206l-1.588-1.813-.064-12.241,7.97-.02v6.162a1.66,1.66,0,0,0,1.66,1.66h7.8a1.66,1.66,0,0,0,1.66-1.66h0V315.53l7.987-.02v10.466a1.66,1.66,0,0,0,1.648,1.66Zm-54.877-27.978a3.815,3.815,0,0,1,3.363-4.206l7.235-.8a4.033,4.033,0,0,1,.43-.024,3.809,3.809,0,0,1,3.776,3.387l.195,1.758-14.717,2.4Zm8.11,13.394a7.839,7.839,0,0,1-7.332-7.007l-.081-.575L958.3,303.1v1.329c-.482,8.225-6.5,8.6-7.054,8.623Zm20.03,20.091,18.18.638a1.787,1.787,0,0,0,.9-.222L992.5,332.3l3.854-.125v4.952l-5.2.044-2.621-.476c-.1-.019-.171-.014-.3-.027-1.037,0-17.427.773-19.26.86a1.764,1.764,0,0,1-1-.372l-5.128-4.556,3.241-3.461,2.435,2.76a4.388,4.388,0,0,0,2.749,1.242Zm13.771-13.093h-4.483v-4.5l4.483-.01Z" transform="translate(-906.828 -291.304)" fill="#fff"/>
</svg>
