<svg id="Grupo_979816" data-name="Grupo 979816" xmlns="http://www.w3.org/2000/svg" width="106.917" height="106.917" viewBox="0 0 106.917 106.917">
  <g id="Call_Center-Logistics-Customer-Online-Service-Support" data-name="Call Center-Logistics-Customer-Online-Service-Support">
    <path id="Trazado_655378" data-name="Trazado 655378" d="M1010.259,662.986,996,658.514a9.289,9.289,0,0,0-3.013-1.23v-4.116a19.649,19.649,0,0,0,10.6-15.662h.089a7.128,7.128,0,0,0,0-14.256v-8.91a12.487,12.487,0,0,0-12.473-12.473H976.955a12.486,12.486,0,0,0-12.473,12.473v8.91a7.128,7.128,0,1,0,0,14.256h.089a19.648,19.648,0,0,0,10.6,15.662V657.3a8.777,8.777,0,0,0-2.975,1.211l-14.292,4.455a15.97,15.97,0,0,0-11.243,15.306v21.6a8.909,8.909,0,0,0,8.91,8.91h57.022a8.91,8.91,0,0,0,8.91-8.91v-21.6A15.933,15.933,0,0,0,1010.259,662.986Zm-6.575-36.173a3.564,3.564,0,1,1,0,7.127Zm-39.2,7.127a3.564,3.564,0,1,1,0-7.127Zm30.506,28.281a5.4,5.4,0,0,1,1.569,3.794v5.346l-3.565-2.672v-7.717A5.539,5.539,0,0,1,994.988,662.222ZM968.045,614.34a8.909,8.909,0,0,1,8.91-8.91h14.256a8.909,8.909,0,0,1,8.91,8.91v1.781H968.045Zm31.773,5.346a5.375,5.375,0,0,1-5.043,3.564H973.391a5.371,5.371,0,0,1-5.043-3.564Zm-31.773,16.037V624.978a8.767,8.767,0,0,0,5.346,1.836h21.383a8.77,8.77,0,0,0,5.346-1.836v10.745a16.038,16.038,0,0,1-32.075,0ZM984.082,667.8a8.777,8.777,0,0,0,5.346-1.836v3.617a1.589,1.589,0,0,0,.125.5,12.786,12.786,0,0,1-10.94,0,1.619,1.619,0,0,0,.125-.5v-3.617A8.773,8.773,0,0,0,984.082,667.8Zm-5.344-8.91v-4.33a19.034,19.034,0,0,0,10.691,0v4.33a5.345,5.345,0,1,1-10.691,0Zm-7.129,7.127a5.335,5.335,0,0,1,1.569-3.777,6.359,6.359,0,0,1,.748-.625,5.573,5.573,0,0,1,1.247-.641v7.717l-3.564,2.672Zm-14.256,39.2h-1.781a5.361,5.361,0,0,1-5.346-5.344v-1.783h7.127Zm0-10.691h-7.127v-8.91h7.127Zm0-17.82v5.346h-7.127v-3.779a12.408,12.408,0,0,1,8.749-11.9l9.5-2.96a9.155,9.155,0,0,0-.428,2.6v5.346H962.7A5.361,5.361,0,0,0,957.353,676.708Zm49.895,28.51h-46.33v-28.51a1.782,1.782,0,0,1,1.781-1.783h42.768a1.782,1.782,0,0,1,1.781,1.783Zm10.692-5.344a5.361,5.361,0,0,1-5.346,5.344h-1.783v-7.127h7.129Zm0-5.346h-7.129v-8.91h7.129Zm0-12.473h-7.129v-5.346a5.361,5.361,0,0,0-5.345-5.346h-5.346v-5.346a9.211,9.211,0,0,0-.428-2.6l9.5,2.977a12.373,12.373,0,0,1,8.749,11.885Z" transform="translate(-946.662 -601.867)" fill="#fff"/>
    <circle id="Elipse_4768" data-name="Elipse 4768" cx="3.564" cy="3.564" r="3.564" transform="translate(26.729 26.729)" fill="#fff"/>
    <circle id="Elipse_4769" data-name="Elipse 4769" cx="3.564" cy="3.564" r="3.564" transform="translate(40.984 26.729)" fill="#fff"/>
    <path id="Trazado_655379" data-name="Trazado 655379" d="M979.462,626.044l-3.088-1.783a5.346,5.346,0,0,1-9.266,0l-3.086,1.783a8.91,8.91,0,0,0,15.435,0Z" transform="translate(-934.323 -585.95)" fill="#fff"/>
    <path id="Trazado_655380" data-name="Trazado 655380" d="M970.755,650.822a5.345,5.345,0,1,0,5.346,5.346A5.346,5.346,0,0,0,970.755,650.822Zm0,7.127a1.782,1.782,0,1,1,1.783-1.781A1.781,1.781,0,0,1,970.755,657.949Z" transform="translate(-933.335 -567.071)" fill="#fff"/>
    <path id="Trazado_655381" data-name="Trazado 655381" d="M1018.619,612.283H993.672a5.346,5.346,0,0,0-5.346,5.344v14.256a5.346,5.346,0,0,0,5.346,5.346h5.344v5.346a1.782,1.782,0,0,0,1.1,1.646,1.733,1.733,0,0,0,.683.135,1.775,1.775,0,0,0,1.259-.522l6.607-6.605h9.953a5.346,5.346,0,0,0,5.346-5.346V617.627A5.346,5.346,0,0,0,1018.619,612.283Zm1.782,19.6a1.784,1.784,0,0,1-1.782,1.783h-10.692a1.783,1.783,0,0,0-1.259.522l-4.085,4.085v-2.826a1.782,1.782,0,0,0-1.783-1.781h-7.127a1.783,1.783,0,0,1-1.783-1.783V617.627a1.781,1.781,0,0,1,1.783-1.781h24.947a1.782,1.782,0,0,1,1.782,1.781Z" transform="translate(-917.048 -594.463)" fill="#fff"/>
    <rect id="Rectángulo_309069" data-name="Rectángulo 309069" width="3.564" height="3.564" transform="translate(87.315 28.51)" fill="#fff"/>
    <rect id="Rectángulo_309070" data-name="Rectángulo 309070" width="3.564" height="3.564" transform="translate(94.443 28.51)" fill="#fff"/>
    <rect id="Rectángulo_309071" data-name="Rectángulo 309071" width="3.564" height="3.564" transform="translate(80.187 28.51)" fill="#fff"/>
  </g>
</svg>
