<svg id="Grupo_979797" data-name="Grupo 979797" xmlns="http://www.w3.org/2000/svg" width="106.25" height="106.252" viewBox="0 0 106.25 106.252">
  <path id="Trazado_655316" data-name="Trazado 655316" d="M1004.24,522.505V492.4a1.77,1.77,0,0,0-2.709-1.5l-11.457,7.159V492.4a1.77,1.77,0,0,0-2.709-1.5l-11.458,7.159V478.234a1.77,1.77,0,0,0-1.771-1.771h-7.082a1.77,1.77,0,0,0-1.771,1.771v44.271a1.769,1.769,0,0,0,1.771,1.771h35.416a1.769,1.769,0,0,0,1.771-1.771Zm-3.542-1.771H968.824V480h3.54v21.25a1.771,1.771,0,0,0,2.71,1.5l11.458-7.16v5.658a1.771,1.771,0,0,0,2.709,1.5l11.457-7.16Z" transform="translate(-965.282 -418.024)" fill="#fff"/>
  <path id="Trazado_655317" data-name="Trazado 655317" d="M970.621,496.754h3.542v3.54h-3.542Z" transform="translate(-961.768 -404.668)" fill="#fff"/>
  <path id="Trazado_655318" data-name="Trazado 655318" d="M975.961,496.754H979.5v3.54h-3.542Z" transform="translate(-958.253 -404.668)" fill="#fff"/>
  <path id="Trazado_655319" data-name="Trazado 655319" d="M981.3,496.754h3.542v3.54H981.3Z" transform="translate(-954.738 -404.668)" fill="#fff"/>
  <path id="Trazado_655320" data-name="Trazado 655320" d="M1003.309,494.618h-7.084a1.77,1.77,0,0,0-1.771,1.771V501.7h-1.771a1.771,1.771,0,0,0-1.771,1.771v7.084a1.77,1.77,0,0,0,1.771,1.771h14.166a1.77,1.77,0,0,0,1.771-1.771v-7.084a1.771,1.771,0,0,0-1.771-1.771h-1.771v-5.311A1.769,1.769,0,0,0,1003.309,494.618ZM998,508.784h-3.542v-3.542H998Zm0-10.624h3.542v3.54H998Zm7.082,10.624h-3.541v-3.542h3.541Z" transform="translate(-948.412 -406.074)" fill="#fff"/>
  <path id="Trazado_655321" data-name="Trazado 655321" d="M1032,461.5l3.111-6.709a9.917,9.917,0,0,0-.7-9.58,8.561,8.561,0,0,0-14.483,0,9.917,9.917,0,0,0-.7,9.58l3.111,6.709c-3.53,1.157-5.794,3.515-5.794,6.295,0,3.963,4.668,7.069,10.626,7.069s10.624-3.106,10.624-7.069C1037.792,465.02,1035.53,462.662,1032,461.5Zm-9.12-14.337a5.024,5.024,0,0,1,8.575,0,6.35,6.35,0,0,1,.443,6.137l-4.729,10.2-4.728-10.2a6.35,6.35,0,0,1,.44-6.137Zm4.288,24.159c-4.056,0-7.084-1.862-7.084-3.527,0-1.224,1.547-2.434,3.749-3.061l1.726,3.726a1.77,1.77,0,0,0,3.212,0l1.728-3.726c2.205.627,3.753,1.837,3.753,3.061C1034.252,469.464,1031.222,471.326,1027.168,471.326Z" transform="translate(-931.542 -441.221)" fill="#fff"/>
  <circle id="Elipse_4767" data-name="Elipse 4767" cx="1.771" cy="1.771" r="1.771" transform="translate(93.855 7.084)" fill="#fff"/>
  <path id="Trazado_655322" data-name="Trazado 655322" d="M1009.3,446.561H986.275a1.771,1.771,0,0,0-1.771,1.771v19.479a1.771,1.771,0,0,0,1.771,1.771h2.1a5.281,5.281,0,0,0,9.973,0h9.508a5.282,5.282,0,0,0,9.974,0h3.865a1.771,1.771,0,0,0,1.771-1.771v-7.084a1.788,1.788,0,0,0-.186-.791l-3.542-7.084a1.773,1.773,0,0,0-1.585-.978h-7.084v-3.542A1.77,1.77,0,0,0,1009.3,446.561Zm-15.937,23.021a1.771,1.771,0,1,1,1.771-1.771A1.773,1.773,0,0,1,993.359,469.582Zm14.168-3.542h-9.181a5.281,5.281,0,0,0-9.973,0h-.327V450.1h19.481Zm5.311,3.542a1.771,1.771,0,1,1,1.771-1.771A1.773,1.773,0,0,1,1012.838,469.582Zm4.219-14.166,2.865,5.729v4.9h-2.1a5.306,5.306,0,0,0-4.988-3.542,5.242,5.242,0,0,0-1.771.327v-7.409Z" transform="translate(-952.63 -437.706)" fill="#fff"/>
  <path id="Trazado_655323" data-name="Trazado 655323" d="M1010.135,458.308h7.082v3.542h-7.082Z" transform="translate(-935.759 -429.974)" fill="#fff"/>
  <path id="Trazado_655324" data-name="Trazado 655324" d="M982.68,461.85h5.313v-3.542H982.68a8.866,8.866,0,0,0-8.855,8.855v5.313a8.865,8.865,0,0,0,8.855,8.853H1048.2a5.319,5.319,0,0,1,5.313,5.313v37.189a5.318,5.318,0,0,1-5.313,5.311h-24.792v3.542H1048.2a8.864,8.864,0,0,0,8.855-8.853V486.642a8.866,8.866,0,0,0-8.855-8.855H982.68a5.318,5.318,0,0,1-5.313-5.311v-5.313A5.319,5.319,0,0,1,982.68,461.85Z" transform="translate(-959.659 -429.974)" fill="#fff"/>
</svg>
