<svg id="Grupo_1009634" data-name="Grupo 1009634" xmlns="http://www.w3.org/2000/svg" width="105.306" height="105.39" viewBox="0 0 105.306 105.39">
  <path id="Trazado_655362" data-name="Trazado 655362" d="M457.611,302.386a42.434,42.434,0,0,0-3.674-8.359,1.575,1.575,0,0,0-1.667-.7,42.36,42.36,0,0,0-8.555,3.192c-6.068,3.03-10.306,7.074-12.259,11.7-1.627,3.847-1.859,8.552-.707,13.749a43.773,43.773,0,0,0-8.232-7.164,63.686,63.686,0,0,0-7.155-10.966,1.544,1.544,0,0,0-2.4,1.947,61.739,61.739,0,0,1,5.7,8.379L404.6,311.413l-13.362-18.226a21.782,21.782,0,0,1,3.9.4,26.659,26.659,0,0,1,12.06,6.217,1.545,1.545,0,0,0,2-2.351,29.7,29.7,0,0,0-13.469-6.9c-7.074-1.384-15.325.432-23.862,5.257a61.635,61.635,0,0,0-10.8,7.713,1.632,1.632,0,0,0-.183,2.118,62.939,62.939,0,0,0,6.925,10.87,48.289,48.289,0,0,0,7.3,7.5q-1.077.9-2.1,1.9a35.694,35.694,0,0,0,11.548,58.584,1.545,1.545,0,0,0,1.161-2.862,32.6,32.6,0,0,1-6.679-3.674,17.394,17.394,0,0,0-2.621-12.177c-.49-.761.973-3.754,1.848-5.543a29.069,29.069,0,0,0,2.267-5.543,4.223,4.223,0,0,0-1.5-4.628,11.364,11.364,0,0,0-3.67-1.627,7.938,7.938,0,0,1-2.016-.791,20.577,20.577,0,0,1-2.615-4.252,26.427,26.427,0,0,0-2.821-4.639,32.829,32.829,0,0,1,9.747-12.84,26.99,26.99,0,0,0,13.008,4.833c-5.455,4.228-7.221,9.627-4.7,14.813,2.946,6.055,9.009,5.088,14.36,4.236.925-.149,1.882-.3,2.8-.416.344-.044.448.052.517.112,1.171,1.043,1.137,6.02,1.111,9.655-.034,5.027-.066,9.774,1.806,12.212a4.713,4.713,0,0,0,3.877,1.879,7.794,7.794,0,0,0,3.048-.689c4.657-2,9.5-8,8.759-12.744-.645-4.152-1.072-6.895-.065-9.106.93-2.045,3.18-3.94,7.611-6.358a32.6,32.6,0,0,1-35.428,39.469,1.545,1.545,0,0,0-.336,3.069,35.889,35.889,0,0,0,28.9-9.962,35.668,35.668,0,0,0-5.493-55.4c2.041-1.455,3.56-2.712,4.4-3.442a40.992,40.992,0,1,1-64.3,26.66,1.545,1.545,0,0,0-3.046-.5,44.068,44.068,0,0,0,36.3,50.659,44.682,44.682,0,0,0,7.276.6,44.1,44.1,0,0,0,40.327-61.665,44.607,44.607,0,0,0,7.118-2.8c6.068-3.03,10.308-7.074,12.259-11.7S459.667,308.849,457.611,302.386ZM368,344.839c1.15,2.178,2.235,4.236,3.365,5.181a8.849,8.849,0,0,0,3.09,1.373c3.017.926,3.368,1.382,3.079,2.576a27.048,27.048,0,0,1-2.041,4.914c-1.594,3.261-3.1,6.342-1.674,8.568a14.675,14.675,0,0,1,2.336,8.191,32.908,32.908,0,0,1-9.516-33.294C367.1,343.125,367.575,344.031,368,344.839ZM442.7,314.5l-4.388-10.633a28.936,28.936,0,0,1,6.721-4.558,41.715,41.715,0,0,1,4.878-2.053Zm10.059-16.046a41.174,41.174,0,0,1,1.931,4.936,29.478,29.478,0,0,1,1.4,7.443l-10.282,4.243ZM434.3,309.411a14.6,14.6,0,0,1,1.724-3l4.995,12.1-4.482,10.717a41,41,0,0,1-2-5.084C433.273,320.159,432.207,314.362,434.3,309.411Zm9.891,18.819a41.06,41.06,0,0,1-4.725,2l4.65-11.119,11.841-4.886a14.905,14.905,0,0,1-1.032,3.9C452.833,323.077,447.933,326.355,444.19,328.231Zm-55.672-.878c-.545-.107-1.083-.238-1.614-.386l17.086-12.526,14.07,2.744C412.935,321.221,400.463,329.692,388.519,327.353ZM372.9,317.692a60.025,60.025,0,0,1-7.871-10.846l17.906,3.491Zm3.163-20.6,7.491,10.217-18.02-3.512A60.764,60.764,0,0,1,376.065,297.094Zm11.957,11.089-9.082-12.389a34.754,34.754,0,0,1,8.629-2.388l12.563,17.136Zm-.96,2.957,12.8,2.5-16.434,12.046a31.958,31.958,0,0,1-8.329-5.776Zm41.894,30.15c-5.567,2.965-8.292,5.294-9.585,8.136-1.389,3.049-.88,6.325-.175,10.858.416,2.673-2.762,7.65-6.924,9.431-1.539.66-2.636.582-3.261-.233-1.226-1.6-1.192-6.427-1.166-10.309.036-5.371.068-10.01-2.147-11.981a3.642,3.642,0,0,0-2.949-.87c-.972.121-1.956.278-2.907.43-5.675.9-9.247,1.266-11.1-2.537-3-6.16,3.07-10.725,5.818-12.4a9.767,9.767,0,0,0,1.562-1.19c6.642-.794,12.917-3.645,18.51-7.213A32.778,32.778,0,0,1,428.956,341.29Z" transform="translate(-353.888 -290.104)" fill="#fff"/>
</svg>
