<svg xmlns="http://www.w3.org/2000/svg" width="100" height="112" viewBox="0 0 100 112">
  <g id="Grupo_1009687" data-name="Grupo 1009687" transform="translate(-515 -8254)">
    <circle id="Elipse_7929" data-name="Elipse 7929" cx="50" cy="50" r="50" transform="translate(515 8254)" fill="#c4bbe5"/>
    <g id="Grupo_1009677" data-name="Grupo 1009677" transform="translate(9139 11517.667)">
      <circle id="Elipse_7921" data-name="Elipse 7921" cx="15" cy="15" r="15" transform="translate(-8588 -3181.667)" fill="#f0bd51"/>
      <path id="Trazado_657571" data-name="Trazado 657571" d="M452.665,1695.311a3.745,3.745,0,0,1,1.7,1.527,3.806,3.806,0,0,1,.594,1.748,4.766,4.766,0,0,1-.2,2.085,5.734,5.734,0,0,1-1.1,2.05q-5,6.059-5.057,6.094h6.909v2.365H445.1v-1.724l6.49-7.831a4.089,4.089,0,0,0,1-2.178,2.094,2.094,0,0,0-.559-1.771,2.4,2.4,0,0,0-1.829-.676,2.293,2.293,0,0,0-2.587,2.249h-2.388a5.313,5.313,0,0,1,.256-1.515,3.978,3.978,0,0,1,1.712-2.144,5.521,5.521,0,0,1,3.065-.8A5.242,5.242,0,0,1,452.665,1695.311Z" transform="translate(-9023.467 -4869.651)"/>
    </g>
    <g id="Grupo_1009685" data-name="Grupo 1009685" transform="translate(533.844 8276.848)">
      <g id="Grupo_985353" data-name="Grupo 985353">
        <rect id="Rectángulo_309932" data-name="Rectángulo 309932" width="62.313" height="44.1" rx="1.3" fill="#3f3f3f"/>
      </g>
      <g id="Grupo_985354" data-name="Grupo 985354" transform="translate(3.181 2.614)">
        <rect id="Rectángulo_309933" data-name="Rectángulo 309933" width="55.95" height="38.871" fill="#fff"/>
      </g>
      <g id="Grupo_985355" data-name="Grupo 985355" transform="translate(22.589 44.1)">
        <rect id="Rectángulo_309934" data-name="Rectángulo 309934" width="16.529" height="7.63" fill="#333"/>
      </g>
      <g id="Grupo_985356" data-name="Grupo 985356" transform="translate(20.071 51.73)">
        <rect id="Rectángulo_309935" data-name="Rectángulo 309935" width="21.564" height="1.897" fill="#3f3f3f"/>
      </g>
      <g id="Grupo_985362" data-name="Grupo 985362" transform="translate(15.942 12.906)">
        <g id="Grupo_985357" data-name="Grupo 985357">
          <rect id="Rectángulo_309936" data-name="Rectángulo 309936" width="30.429" height="18.288" fill="#f0bd51"/>
        </g>
        <g id="Grupo_985361" data-name="Grupo 985361">
          <g id="Grupo_985358" data-name="Grupo 985358">
            <path id="Trazado_658366" data-name="Trazado 658366" d="M298.18,1715.884l12.151-9.439L298.18,1697.6Z" transform="translate(-298.18 -1697.597)" fill="#c09740"/>
          </g>
          <g id="Grupo_985359" data-name="Grupo 985359" transform="translate(12.151 8.848)">
            <path id="Trazado_658367" data-name="Trazado 658367" d="M321.937,1714.9l3.063,2.23,3.063-2.23-3.063,2.23Z" transform="translate(-321.937 -1714.896)" fill="#c09740"/>
          </g>
          <g id="Grupo_985360" data-name="Grupo 985360" transform="translate(18.278)">
            <path id="Trazado_658368" data-name="Trazado 658368" d="M346.065,1697.6l-12.151,8.848,12.151,9.439Z" transform="translate(-333.913 -1697.597)" fill="#c09740"/>
          </g>
        </g>
      </g>
    </g>
  </g>
</svg>
