<svg xmlns="http://www.w3.org/2000/svg" xmlns:xlink="http://www.w3.org/1999/xlink" width="100" height="112" viewBox="0 0 100 112">
  <defs>
    <clipPath id="clip-path">
      <ellipse id="Elipse_4773" data-name="Elipse 4773" cx="32" cy="39.662" rx="32" ry="39.662" fill="none"/>
    </clipPath>
  </defs>
  <g id="Grupo_1009686" data-name="Grupo 1009686" transform="translate(-200 -8254)">
    <circle id="Elipse_7920" data-name="Elipse 7920" cx="50" cy="50" r="50" transform="translate(200 8254)" fill="#c4bbe5"/>
    <g id="Grupo_980076" data-name="Grupo 980076" transform="translate(218 8264)">
      <g id="Grupo_980075" data-name="Grupo 980075" clip-path="url(#clip-path)">
        <g id="Grupo_980074" data-name="Grupo 980074" transform="translate(5.882 5.741)">
          <g id="Grupo_980021" data-name="Grupo 980021" transform="translate(19.024 47.908)">
            <g id="Grupo_980020" data-name="Grupo 980020">
              <g id="Grupo_980019" data-name="Grupo 980019">
                <path id="Trazado_657606" data-name="Trazado 657606" d="M306.038,1557.373a21.251,21.251,0,0,0-13.852,0l-.169,2.153s1.3,3.494,1.431,3.66,3.327,3.26,3.327,3.26,8.75-3.626,8.85-3.726.566-4.158.566-4.158Z" transform="translate(-292.017 -1556.209)" fill="#7f7f7f"/>
              </g>
            </g>
          </g>
          <g id="Grupo_980024" data-name="Grupo 980024" transform="translate(20.076)">
            <g id="Grupo_980023" data-name="Grupo 980023">
              <g id="Grupo_980022" data-name="Grupo 980022">
                <ellipse id="Elipse_4772" data-name="Elipse 4772" cx="6.361" cy="4.598" rx="6.361" ry="4.598" fill="#1e1e1e"/>
              </g>
            </g>
          </g>
          <g id="Grupo_980029" data-name="Grupo 980029" transform="translate(0 43.487)">
            <g id="Grupo_980026" data-name="Grupo 980026">
              <g id="Grupo_980025" data-name="Grupo 980025">
                <path id="Trazado_657607" data-name="Trazado 657607" d="M297.111,1559.78l-12.938-3.737a6.024,6.024,0,0,1-4.339-6.2l.259-3.809H268.648l.258,3.809a6.024,6.024,0,0,1-4.339,6.2l-12.938,3.737a4.675,4.675,0,0,0-3.374,4.683l1.17,28.469h49.889l1.17-28.469A4.675,4.675,0,0,0,297.111,1559.78Z" transform="translate(-248.252 -1546.038)" fill="#f2bf9c"/>
              </g>
            </g>
            <g id="Grupo_980028" data-name="Grupo 980028">
              <g id="Grupo_980027" data-name="Grupo 980027">
                <path id="Trazado_657608" data-name="Trazado 657608" d="M274.37,1546.038h-5.723l.258,3.809a6.024,6.024,0,0,1-4.339,6.2l-12.938,3.737a4.675,4.675,0,0,0-3.374,4.683l1.17,28.469H274.37Z" transform="translate(-248.252 -1546.038)" fill="#e5b593"/>
              </g>
            </g>
          </g>
          <g id="Grupo_980032" data-name="Grupo 980032" transform="translate(20.396 43.487)">
            <g id="Grupo_980031" data-name="Grupo 980031">
              <g id="Grupo_980030" data-name="Grupo 980030">
                <path id="Trazado_657609" data-name="Trazado 657609" d="M306.358,1550.535a6.051,6.051,0,0,1,0-.688l.259-3.809H295.174l.124,1.826c2.215,2.5,4.643,4.142,6.919,4.142A7.433,7.433,0,0,0,306.358,1550.535Z" transform="translate(-295.174 -1546.038)" fill="#dda680"/>
              </g>
            </g>
          </g>
          <g id="Grupo_980037" data-name="Grupo 980037" transform="translate(10.88 9.195)">
            <g id="Grupo_980034" data-name="Grupo 980034">
              <g id="Grupo_980033" data-name="Grupo 980033">
                <path id="Trazado_657610" data-name="Trazado 657610" d="M303.687,1485.155c-.4-.868-.864-.559-1-.508a16.717,16.717,0,0,0,.143-2.113c0-8.5-6.385-15.386-14.262-15.386h-.048c-7.877,0-14.263,6.889-14.263,15.386a16.712,16.712,0,0,0,.143,2.113c-.135-.051-.6-.36-1,.508-.37.8.09,3.365,1.773,5.05.153.153.644.133.717.338,2.322,6.524,6.868,13,11.394,14.069.115.029.229.053.344.074l.038.006c.146.026.291.044.436.057h0c.138.012.276.02.414.02h.048c.137,0,.275-.008.413-.02h0c.145-.013.29-.031.436-.057l.038-.006c.115-.021.229-.045.344-.074,4.526-1.072,9.072-7.546,11.394-14.069.073-.2.564-.185.717-.338C303.6,1488.52,304.057,1485.959,303.687,1485.155Z" transform="translate(-273.281 -1467.148)" fill="#f2bf9c"/>
              </g>
            </g>
            <g id="Grupo_980036" data-name="Grupo 980036">
              <g id="Grupo_980035" data-name="Grupo 980035">
                <path id="Trazado_657611" data-name="Trazado 657611" d="M274.257,1482.534a16.712,16.712,0,0,0,.143,2.113c-.135-.051-.6-.36-1,.508-.37.8.09,3.365,1.773,5.05.153.153.644.133.717.338,2.322,6.524,6.868,13,11.394,14.069.115.029.23.053.344.074l.038.006c.146.026.291.044.436.057h0c.138.012.276.02.414.02v-37.621C280.643,1467.148,274.257,1474.037,274.257,1482.534Z" transform="translate(-273.281 -1467.148)" fill="#e5b593"/>
              </g>
            </g>
          </g>
          <g id="Grupo_980040" data-name="Grupo 980040" transform="translate(10.136 2.753)">
            <g id="Grupo_980039" data-name="Grupo 980039">
              <g id="Grupo_980038" data-name="Grupo 980038">
                <path id="Trazado_657612" data-name="Trazado 657612" d="M301.979,1459.944c-.685,0-1.969-3.989-4.915-5.425a21.639,21.639,0,0,0-18.975,0c-2.946,1.437-4.109,5.56-4.794,5.56-1.779,0-2.629,14.322-.327,16.19a20.863,20.863,0,0,1,1.209,7.51,11.155,11.155,0,0,0,2.924,7.272s-1.846-5.992-1.51-8.282-1.72-11.581-.557-12.928,9.31-4.444,10.926-3.972a6.77,6.77,0,0,0,3.232,0c1.616-.471,9.763,2.626,10.926,3.972s-.894,10.638-.557,12.928-1.51,8.282-1.51,8.282a11.158,11.158,0,0,0,2.924-7.272,20.863,20.863,0,0,1,1.209-7.51C304.487,1474.4,303.758,1459.944,301.979,1459.944Z" transform="translate(-271.571 -1452.328)" fill="#3a3a3a"/>
              </g>
            </g>
          </g>
          <g id="Grupo_980043" data-name="Grupo 980043" transform="translate(24.526 2.424)">
            <g id="Grupo_980042" data-name="Grupo 980042">
              <g id="Grupo_980041" data-name="Grupo 980041">
                <path id="Trazado_657613" data-name="Trazado 657613" d="M306.317,1451.57c.112.786-1.374,12.181-1.609,13.674l-.031.2a6.77,6.77,0,0,0,3.232,0C307.331,1463.982,306.317,1451.57,306.317,1451.57Z" transform="translate(-304.676 -1451.57)" fill="#1e1e1e"/>
              </g>
            </g>
          </g>
          <g id="Grupo_980046" data-name="Grupo 980046" transform="translate(12.486 15.045)">
            <g id="Grupo_980045" data-name="Grupo 980045">
              <g id="Grupo_980044" data-name="Grupo 980044">
                <path id="Trazado_657614" data-name="Trazado 657614" d="M278.091,1485.828c1.163-1.347,9.31-4.444,10.926-3.972a6.774,6.774,0,0,0,3.232,0c1.616-.471,9.763,2.626,10.926,3.972.5.582.4,2.652.156,5,.529-1.74,1.149-5.556.447-6.166-.879-.763-11.356-4.219-11.529-4.048a9.7,9.7,0,0,1-3.232.008c-.846-.179-10.286,2.6-11.633,4.04-.927.989-.067,4.28.558,6.236C277.69,1488.522,277.583,1486.417,278.091,1485.828Z" transform="translate(-276.977 -1480.607)" fill="#1e1e1e"/>
              </g>
            </g>
          </g>
          <g id="Grupo_980049" data-name="Grupo 980049" transform="translate(0 52.116)">
            <g id="Grupo_980048" data-name="Grupo 980048">
              <g id="Grupo_980047" data-name="Grupo 980047">
                <path id="Trazado_657615" data-name="Trazado 657615" d="M300.485,1575.686a4.675,4.675,0,0,0-3.374-4.683l-12.938-3.737a6,6,0,0,1-2.36-1.317c-2.56,1.55-7.443,6.606-7.443,6.606-1.909-1.985-5.4-5.526-7.38-6.665a6,6,0,0,1-2.423,1.376L251.629,1571a4.675,4.675,0,0,0-3.374,4.683l1.17,28.469h49.889Z" transform="translate(-248.252 -1565.889)" fill="#f0bd51"/>
              </g>
            </g>
          </g>
          <g id="Grupo_980051" data-name="Grupo 980051" transform="translate(0 52.116)">
            <g id="Grupo_980050" data-name="Grupo 980050">
              <path id="Trazado_657616" data-name="Trazado 657616" d="M251.629,1571a4.675,4.675,0,0,0-3.374,4.683l1.17,28.469H274.3v-31.678c-1.923-2-5.349-5.464-7.305-6.588a6,6,0,0,1-2.423,1.376Z" transform="translate(-248.252 -1565.889)" fill="#c09740"/>
            </g>
          </g>
          <g id="Grupo_980054" data-name="Grupo 980054" transform="translate(26.119 49.072)">
            <g id="Grupo_980053" data-name="Grupo 980053">
              <g id="Grupo_980052" data-name="Grupo 980052">
                <path id="Trazado_657617" data-name="Trazado 657617" d="M315.265,1558.887h0a10.044,10.044,0,0,1-.146,9.108l-3.665,6.925-3.116-6.349,5.16-5.816a7.011,7.011,0,0,0,1.591-3.1Z" transform="translate(-308.339 -1558.887)" fill="#c09740"/>
              </g>
            </g>
          </g>
          <g id="Grupo_980057" data-name="Grupo 980057" transform="translate(18.172 49.072)">
            <g id="Grupo_980056" data-name="Grupo 980056">
              <g id="Grupo_980055" data-name="Grupo 980055">
                <path id="Trazado_657618" data-name="Trazado 657618" d="M291.077,1558.887h0a10.041,10.041,0,0,0,.146,9.108l3.664,6.925,3.116-6.349-5.16-5.816a7,7,0,0,1-1.591-3.1Z" transform="translate(-290.057 -1558.887)" fill="#f0bd51"/>
              </g>
            </g>
          </g>
          <g id="Grupo_980061" data-name="Grupo 980061" transform="translate(27.004 32.481)">
            <g id="Grupo_980060" data-name="Grupo 980060">
              <g id="Grupo_980059" data-name="Grupo 980059">
                <g id="Grupo_980058" data-name="Grupo 980058">
                  <path id="Trazado_657619" data-name="Trazado 657619" d="M310.376,1532.1v-.745c12,0,13.453-10.2,13.509-10.633l.739.094C324.61,1520.926,323.047,1532.1,310.376,1532.1Z" transform="translate(-310.376 -1520.719)" fill="#b7b7b7"/>
                </g>
              </g>
            </g>
          </g>
          <g id="Grupo_980064" data-name="Grupo 980064" transform="translate(24.351 42.509)">
            <g id="Grupo_980063" data-name="Grupo 980063">
              <g id="Grupo_980062" data-name="Grupo 980062">
                <rect id="Rectángulo_309116" data-name="Rectángulo 309116" width="3.926" height="1.774" rx="0.887" fill="#3a3a3a"/>
              </g>
            </g>
          </g>
          <g id="Grupo_980067" data-name="Grupo 980067" transform="translate(39.908 32.481)">
            <g id="Grupo_980066" data-name="Grupo 980066">
              <g id="Grupo_980065" data-name="Grupo 980065">
                <path id="Trazado_657620" data-name="Trazado 657620" d="M340.062,1523.02l.837-.23a11.8,11.8,0,0,0,.507-1.977l-.739-.094A11.578,11.578,0,0,1,340.062,1523.02Z" transform="translate(-340.062 -1520.719)" fill="#9b9a9a"/>
              </g>
            </g>
          </g>
          <g id="Grupo_980070" data-name="Grupo 980070" transform="translate(39.076 25.574)">
            <g id="Grupo_980069" data-name="Grupo 980069">
              <g id="Grupo_980068" data-name="Grupo 980068">
                <path id="Trazado_657621" data-name="Trazado 657621" d="M339.418,1512.812l-.665-.126a.744.744,0,0,1-.592-.869l1.211-6.383a.743.743,0,0,1,.869-.592l.665.126a1,1,0,0,1,.795,1.167l-1.116,5.883A1,1,0,0,1,339.418,1512.812Z" transform="translate(-338.148 -1504.828)" fill="#b23d3d"/>
              </g>
            </g>
          </g>
          <g id="Grupo_980073" data-name="Grupo 980073" transform="translate(41.507 26.792)">
            <g id="Grupo_980072" data-name="Grupo 980072">
              <g id="Grupo_980071" data-name="Grupo 980071">
                <path id="Trazado_657622" data-name="Trazado 657622" d="M343.741,1513.6h0l1.132-5.97h0a.771.771,0,0,1,.614.9l-.845,4.455A.771.771,0,0,1,343.741,1513.6Z" transform="translate(-343.741 -1507.63)" fill="#3a3a3a"/>
              </g>
            </g>
          </g>
        </g>
      </g>
    </g>
    <g id="Grupo_1009676" data-name="Grupo 1009676" transform="translate(8823 11602.396)">
      <circle id="Elipse_4788" data-name="Elipse 4788" cx="15" cy="15" r="15" transform="translate(-8588 -3266.397)" fill="#f0bd51"/>
      <g id="Grupo_985311" data-name="Grupo 985311" transform="translate(-8577.762 -3258.846)">
        <g id="Grupo_985310" data-name="Grupo 985310">
          <path id="Trazado_658353" data-name="Trazado 658353" d="M453.248,1483.01v16.1h-2.7v-12.537a3.5,3.5,0,0,1-1.468,1.759,5.678,5.678,0,0,1-2.353.513V1486.6a3.765,3.765,0,0,0,2.633-1.084,5.591,5.591,0,0,0,1.678-2.505Z" transform="translate(-446.724 -1483.01)"/>
        </g>
      </g>
    </g>
  </g>
</svg>
