<svg xmlns="http://www.w3.org/2000/svg" width="85" height="85" viewBox="0 0 85 85">
  <g id="Grupo_979841" data-name="Grupo 979841" transform="translate(-285 -5589)">
    <rect id="Rectángulo_306095" data-name="Rectángulo 306095" width="85" height="85" transform="translate(285 5589)" fill="none"/>
    <g id="materias-primas_2_" data-name="materias-primas(2)" transform="translate(294.672 5562.184)">
      <g id="Grupo_979859" data-name="Grupo 979859" transform="translate(0.962 42.244)">
        <g id="Grupo_979849" data-name="Grupo 979849" transform="translate(0 0)">
          <g id="Grupo_979843" data-name="Grupo 979843" transform="translate(34.684 6.701)">
            <path id="Trazado_657524" data-name="Trazado 657524" d="M305.3,126.254H277.976v17.854h3.745a.647.647,0,0,1,.647.647v14.218l1.745-1.74a5.508,5.508,0,0,1,7.779,0l9,8.973H305.3v-39.95Z" transform="translate(-277.976 -123.021)" fill="#0593fc"/>
            <path id="Trazado_657525" data-name="Trazado 657525" d="M277.976,126.254h3.586v17.854h-3.586Z" transform="translate(-277.976 -123.021)" fill="#0182fc"/>
            <path id="Trazado_657526" data-name="Trazado 657526" d="M306.378,101.041h-28.4v3.233h28.4a.647.647,0,0,0,.647-.647v-1.94A.647.647,0,0,0,306.378,101.041Z" transform="translate(-277.976 -101.041)" fill="#0182fc"/>
            <path id="Trazado_657527" data-name="Trazado 657527" d="M281.455,103.627v-1.94a.647.647,0,0,1,.647-.647h-4.126v3.233H282.1A.647.647,0,0,1,281.455,103.627Z" transform="translate(-277.976 -101.04)" fill="#0172fb"/>
            <g id="Grupo_979842" data-name="Grupo 979842" transform="translate(22.94 43.211)">
              <path id="Trazado_657528" data-name="Trazado 657528" d="M462.33,438.005h-5.461l3.242,3.233h2.219a.647.647,0,0,0,.647-.647v-1.94A.647.647,0,0,0,462.33,438.005Z" transform="translate(-456.869 -438.005)" fill="#0182fc"/>
            </g>
          </g>
          <g id="Grupo_979848" data-name="Grupo 979848">
            <path id="Trazado_657529" data-name="Trazado 657529" d="M20.918,72.995V119.93h12V98.325a.647.647,0,0,1,.647-.647H53.882V72.995Z" transform="translate(-19.197 -69.89)" fill="#fed402"/>
            <path id="Trazado_657530" data-name="Trazado 657530" d="M20.918,74h4.624V120.8H20.918Z" transform="translate(-19.197 -70.762)" fill="#fac600"/>
            <g id="Grupo_979844" data-name="Grupo 979844" transform="translate(0 0)">
              <path id="Trazado_657531" data-name="Trazado 657531" d="M43.258,48.782H8.147a.647.647,0,0,0-.647.647v1.94a.647.647,0,0,0,.647.647H43.258a.647.647,0,0,0,.647-.647v-1.94A.647.647,0,0,0,43.258,48.782Z" transform="translate(-7.5 -48.782)" fill="#fac600"/>
            </g>
            <g id="Grupo_979845" data-name="Grupo 979845">
              <path id="Trazado_657532" data-name="Trazado 657532" d="M12.95,51.368v-1.94a.647.647,0,0,1,.647-.647H8.147a.647.647,0,0,0-.647.647v1.94a.647.647,0,0,0,.647.647H13.6A.647.647,0,0,1,12.95,51.368Z" transform="translate(-7.5 -48.781)" fill="#e8b800"/>
            </g>
            <g id="Grupo_979846" data-name="Grupo 979846" transform="translate(0 49.912)">
              <path id="Trazado_657533" data-name="Trazado 657533" d="M8.147,438.005a.647.647,0,0,0-.647.647v1.94a.647.647,0,0,0,.647.647H21.22v-3.233H8.147Z" transform="translate(-7.5 -438.005)" fill="#fac600"/>
            </g>
            <g id="Grupo_979847" data-name="Grupo 979847" transform="translate(0 49.912)">
              <path id="Trazado_657534" data-name="Trazado 657534" d="M12.95,440.591v-1.94A.647.647,0,0,1,13.6,438H8.147a.647.647,0,0,0-.647.647v1.94a.647.647,0,0,0,.647.647H13.6A.647.647,0,0,1,12.95,440.591Z" transform="translate(-7.5 -438.004)" fill="#e8b800"/>
            </g>
          </g>
        </g>
        <g id="Grupo_979858" data-name="Grupo 979858" transform="translate(13.72 27.789)">
          <g id="Grupo_979855" data-name="Grupo 979855">
            <path id="Trazado_657535" data-name="Trazado 657535" d="M139.846,266.128a.647.647,0,0,0-.647-.647H115.136a.647.647,0,0,0-.647.647v24.71h14.835l10.522-10.493V266.128Z" transform="translate(-114.489 -265.481)" fill="#ffbd86"/>
            <g id="Grupo_979850" data-name="Grupo 979850" transform="translate(0)">
              <path id="Trazado_657536" data-name="Trazado 657536" d="M119.468,265.481h-4.331a.647.647,0,0,0-.647.647v24.71h4.331v-24.71A.647.647,0,0,1,119.468,265.481Z" transform="translate(-114.49 -265.481)" fill="#f6a96c"/>
            </g>
            <g id="Grupo_979851" data-name="Grupo 979851" transform="translate(10.505)">
              <path id="Trazado_657537" data-name="Trazado 657537" d="M200.367,271.639H196.8a.388.388,0,0,1-.388-.388v-5.77h4.347v5.77A.388.388,0,0,1,200.367,271.639Z" transform="translate(-196.408 -265.481)" fill="#fe646f"/>
            </g>
            <g id="Grupo_979852" data-name="Grupo 979852" transform="translate(10.505)">
              <path id="Trazado_657538" data-name="Trazado 657538" d="M198.55,271.251v-5.77h-2.141v5.77a.388.388,0,0,0,.388.388h2.141A.388.388,0,0,1,198.55,271.251Z" transform="translate(-196.409 -265.481)" fill="#fd4755"/>
            </g>
            <g id="Grupo_979853" data-name="Grupo 979853" transform="translate(3.274 15.554)">
              <path id="Trazado_657539" data-name="Trazado 657539" d="M146.152,393.3h-5.744a.388.388,0,0,1-.388-.388v-5.744a.388.388,0,0,1,.388-.388h5.744a.388.388,0,0,1,.388.388v5.744A.388.388,0,0,1,146.152,393.3Z" transform="translate(-140.02 -386.777)" fill="#fff"/>
            </g>
            <g id="Grupo_979854" data-name="Grupo 979854" transform="translate(3.274 15.555)">
              <path id="Trazado_657540" data-name="Trazado 657540" d="M143.242,392.91v-5.744a.388.388,0,0,1,.388-.388h-3.223a.388.388,0,0,0-.388.388v5.744a.388.388,0,0,0,.388.388h3.223A.388.388,0,0,1,143.242,392.91Z" transform="translate(-140.019 -386.778)" fill="#f3f0f3"/>
            </g>
          </g>
          <g id="Grupo_979856" data-name="Grupo 979856" transform="translate(14.835 11.516)">
            <path id="Trazado_657541" data-name="Trazado 657541" d="M242.444,356.893l-12.267,12.233h32.312l-12.267-12.233a5.508,5.508,0,0,0-7.779,0Z" transform="translate(-230.177 -355.286)" fill="#7a6d79"/>
          </g>
          <g id="Grupo_979857" data-name="Grupo 979857" transform="translate(14.835 11.517)">
            <path id="Trazado_657542" data-name="Trazado 657542" d="M248.822,355.886a5.51,5.51,0,0,0-6.379,1.013l-12.267,12.233h4.978L247.422,356.9A5.5,5.5,0,0,1,248.822,355.886Z" transform="translate(-230.177 -355.292)" fill="#685e68"/>
          </g>
        </g>
      </g>
      <g id="Grupo_979860" data-name="Grupo 979860" transform="translate(0 41.282)">
        <path id="Trazado_657543" data-name="Trazado 657543" d="M139.614,379.278H133.87a1.351,1.351,0,0,0-1.35,1.35v5.744a1.351,1.351,0,0,0,1.35,1.35h5.744a1.351,1.351,0,0,0,1.35-1.35v-5.744A1.351,1.351,0,0,0,139.614,379.278Zm-.574,6.52h-4.6v-4.6h4.6v4.6Z" transform="translate(-115.526 -335.935)"/>
        <path id="Trazado_657544" data-name="Trazado 657544" d="M62.974,56.7a.962.962,0,0,0,.962-.962v-2.6h.112a1.61,1.61,0,0,0,1.608-1.608v-1.94a1.61,1.61,0,0,0-1.608-1.608H36.608V46.439h.112a1.61,1.61,0,0,0,1.608-1.608V42.89a1.61,1.61,0,0,0-1.608-1.608H1.608A1.61,1.61,0,0,0,0,42.89v1.94a1.61,1.61,0,0,0,1.608,1.608h.112V57.66H1.7a.962.962,0,1,0,0,1.924h.016V74.142H1.7a.962.962,0,1,0,0,1.924h.016V91.194H1.608A1.61,1.61,0,0,0,0,92.8v1.94a1.61,1.61,0,0,0,1.608,1.608H46.934a.962.962,0,1,0,0-1.924H31.843l10.619-10.59a4.554,4.554,0,0,1,6.421,0L59.5,94.427h-8.08a.962.962,0,0,0,0,1.924H64.048a1.61,1.61,0,0,0,1.608-1.608V92.8a1.61,1.61,0,0,0-1.608-1.608h-.112V78.545h.016a.962.962,0,1,0,0-1.924h-.016V64.464h.016a.962.962,0,0,0,0-1.924h-.016V60.225a.962.962,0,1,0-1.924,0v2.316h-25.4V59.583h.016a.962.962,0,1,0,0-1.924h-.016V53.14h25.4v2.6a.962.962,0,0,0,.962.962ZM8.72,46.439a.962.962,0,0,0,0-1.924h-6.8v-1.31H36.405v1.31h-23.2a.962.962,0,0,0,0,1.924H34.685V57.66H3.644V46.439Zm5,47.988H1.924v-1.31h11.8Zm0-3.233H3.644V76.065H13.72Zm0-20.515v3.463H3.644V59.583h31.04V69.07H15.328A1.61,1.61,0,0,0,13.72,70.679Zm12.428.315h2.423v4.235H26.148ZM39.077,84.5l-9.958,9.93H15.643V70.994h8.581V75.8a1.351,1.351,0,0,0,1.35,1.35h3.571A1.351,1.351,0,0,0,30.5,75.8V70.994h8.581V84.5Zm19.908,6.7-8.743-8.719a6.481,6.481,0,0,0-9.137,0l-.1.1V78.545H62.012V91.194H58.984Zm4.749,1.924v1.31H62.226l-1.313-1.31ZM62.012,64.464V76.622H41V70.679a1.61,1.61,0,0,0-1.608-1.608H36.608V64.464Zm-25.4-13.248v-1.31H63.733v1.31Z" transform="translate(0 -41.282)"/>
        <path id="Trazado_657545" data-name="Trazado 657545" d="M365.21,389.783h-.776a.962.962,0,1,0,0,1.924h.776a.962.962,0,0,0,0-1.924Z" transform="translate(-316.862 -345.093)"/>
        <path id="Trazado_657546" data-name="Trazado 657546" d="M339.221,415a.962.962,0,1,0,0,1.924H340A.962.962,0,1,0,340,415Z" transform="translate(-294.882 -367.073)"/>
        <path id="Trazado_657547" data-name="Trazado 657547" d="M394.69,428.015h.776a.962.962,0,1,0,0-1.924h-.776a.962.962,0,1,0,0,1.924Z" transform="translate(-343.238 -376.745)"/>
      </g>
    </g>
  </g>
</svg>
