<svg xmlns="http://www.w3.org/2000/svg" width="190" height="143.533" viewBox="0 0 190 143.533">
  <g id="materias-primas_3_" data-name="materias-primas(3)" transform="translate(0 -62.609)">
    <path id="Trazado_657548" data-name="Trazado 657548" d="M279.435,101.109v52.685a36.266,36.266,0,0,1,6.063-.509,35.382,35.382,0,0,1,25.734,10.963l41.68,43.385V101.109Z" transform="translate(-175.738 -24.213)" fill="#ffe177"/>
    <path id="Trazado_657549" data-name="Trazado 657549" d="M279.435,101.109v52.685a36.283,36.283,0,0,1,15.781.818v-53.5Z" transform="translate(-175.738 -24.213)" fill="#ffd15b"/>
    <path id="Trazado_657550" data-name="Trazado 657550" d="M392.719,299.979h29.026a2.783,2.783,0,0,0,0-5.566H387.371Z" transform="translate(-243.62 -145.783)" fill="#ffc344"/>
    <g id="Grupo_979861" data-name="Grupo 979861" transform="translate(99.961 99.065)">
      <path id="Trazado_657551" data-name="Trazado 657551" d="M347.533,166.414H272.152a2.783,2.783,0,0,1,0-5.566h75.381a2.783,2.783,0,0,1,0,5.566Z" transform="translate(-269.369 -160.848)" fill="#ffc344"/>
    </g>
    <g id="Grupo_979862" data-name="Grupo 979862" transform="translate(99.961 71.701)">
      <path id="Trazado_657552" data-name="Trazado 657552" d="M347.533,92.675H272.152a2.783,2.783,0,0,1,0-5.566h75.381a2.783,2.783,0,0,1,0,5.566Z" transform="translate(-269.369 -87.109)" fill="#ffc344"/>
    </g>
    <g id="Grupo_979863" data-name="Grupo 979863" transform="translate(67.781 128.7)">
      <path id="Trazado_657553" data-name="Trazado 657553" d="M304.335,307.685l-53.7-55.9a36.055,36.055,0,0,0-52,0l-15.977,16.631v13.963h55.511a1.542,1.542,0,0,1,1.54,1.54v16.014h16.788a1.542,1.542,0,0,1,1.54,1.54v9.447h44.923A1.911,1.911,0,0,0,304.335,307.685Z" transform="translate(-182.653 -240.708)" fill="#9b8e99"/>
    </g>
    <g id="Grupo_979864" data-name="Grupo 979864" transform="translate(67.781 128.706)">
      <path id="Trazado_657554" data-name="Trazado 657554" d="M182.652,282.389H194.8l26.386-27.466a35.861,35.861,0,0,1,19.431-10.468,36.065,36.065,0,0,0-41.99,7.34l-15.977,16.631Z" transform="translate(-182.652 -240.724)" fill="#918291"/>
    </g>
    <path id="Trazado_657555" data-name="Trazado 657555" d="M0,245.261v66.612a1.911,1.911,0,0,0,1.912,1.911H33.931v-9.447a1.542,1.542,0,0,1,1.54-1.54H52.26V286.783a1.542,1.542,0,0,1,1.54-1.54H68.152V245.261Z" transform="translate(0 -114.871)" fill="#f6a96c"/>
    <path id="Trazado_657556" data-name="Trazado 657556" d="M213.141,369.925V353.912A1.911,1.911,0,0,0,211.23,352H141.738a1.911,1.911,0,0,0-1.912,1.912v16.014Z" transform="translate(-87.937 -182)" fill="#efedef"/>
    <g id="Grupo_979865" data-name="Grupo 979865" transform="translate(33.56 170)">
      <path id="Trazado_657557" data-name="Trazado 657557" d="M149.678,369.925V353.912A1.911,1.911,0,0,1,151.589,352h-9.852a1.911,1.911,0,0,0-1.912,1.912v16.014Z" transform="translate(-121.497 -352)" fill="#e5e1e5"/>
      <path id="Trazado_657558" data-name="Trazado 657558" d="M238.609,352H248.5v17.925h-9.894Z" transform="translate(-183.623 -352)" fill="#e5e1e5"/>
      <path id="Trazado_657559" data-name="Trazado 657559" d="M198.5,399.3H92.347a1.911,1.911,0,0,0-1.912,1.911v14.764a1.911,1.911,0,0,0,1.912,1.912H198.5a1.911,1.911,0,0,0,1.911-1.912V401.215A1.912,1.912,0,0,0,198.5,399.3Z" transform="translate(-90.435 -381.75)" fill="#d7d0d6"/>
    </g>
    <g id="Grupo_979866" data-name="Grupo 979866" transform="translate(0 130.761)">
      <path id="Trazado_657560" data-name="Trazado 657560" d="M16.144,312.5V246.261H0V312.5a1.911,1.911,0,0,0,1.912,1.911H18.055A1.911,1.911,0,0,1,16.144,312.5Z" transform="translate(0 -246.261)" fill="#ea9b58"/>
    </g>
    <g id="Grupo_979867" data-name="Grupo 979867" transform="translate(27.386 130.761)">
      <path id="Trazado_657561" data-name="Trazado 657561" d="M86.031,266.912H74.944a1.147,1.147,0,0,1-1.147-1.147V246.26h13.38v19.505A1.146,1.146,0,0,1,86.031,266.912Z" transform="translate(-73.797 -246.26)" fill="#fd4755"/>
    </g>
    <g id="Grupo_979868" data-name="Grupo 979868" transform="translate(27.386 130.761)">
      <path id="Trazado_657562" data-name="Trazado 657562" d="M80.245,265.766V246.261H73.8v19.505a1.147,1.147,0,0,0,1.147,1.147h6.447A1.148,1.148,0,0,1,80.245,265.766Z" transform="translate(-73.798 -246.261)" fill="#fb2b3a"/>
    </g>
    <g id="Grupo_979873" data-name="Grupo 979873" transform="translate(0 62.609)">
      <g id="Grupo_979869" data-name="Grupo 979869">
        <path id="Trazado_657563" data-name="Trazado 657563" d="M68.152,130.761H0V64.521a1.911,1.911,0,0,1,1.912-1.912H66.241a1.911,1.911,0,0,1,1.912,1.912Z" transform="translate(0 -62.609)" fill="#ea9b58"/>
      </g>
      <g id="Grupo_979870" data-name="Grupo 979870" transform="translate(0 0)">
        <path id="Trazado_657564" data-name="Trazado 657564" d="M18.055,62.609H1.912A1.911,1.911,0,0,0,0,64.521v66.241H16.144V64.521A1.911,1.911,0,0,1,18.055,62.609Z" transform="translate(0 -62.609)" fill="#d88a55"/>
      </g>
      <g id="Grupo_979871" data-name="Grupo 979871" transform="translate(27.386 0)">
        <path id="Trazado_657565" data-name="Trazado 657565" d="M86.031,83.261H74.944A1.147,1.147,0,0,1,73.8,82.114V62.609h13.38V82.114A1.146,1.146,0,0,1,86.031,83.261Z" transform="translate(-73.797 -62.609)" fill="#fd4755"/>
      </g>
      <g id="Grupo_979872" data-name="Grupo 979872" transform="translate(27.386 0)">
        <path id="Trazado_657566" data-name="Trazado 657566" d="M80.245,82.114V62.609H73.8V82.114a1.147,1.147,0,0,0,1.147,1.147h6.447A1.148,1.148,0,0,1,80.245,82.114Z" transform="translate(-73.798 -62.609)" fill="#fb2b3a"/>
      </g>
    </g>
    <g id="Grupo_979877" data-name="Grupo 979877" transform="translate(33.56 187.554)">
      <g id="Grupo_979874" data-name="Grupo 979874">
        <path id="Trazado_657567" data-name="Trazado 657567" d="M100.266,415.979V401.215a1.911,1.911,0,0,1,1.912-1.911H92.347a1.911,1.911,0,0,0-1.912,1.911v14.764a1.911,1.911,0,0,0,1.912,1.912h9.831A1.911,1.911,0,0,1,100.266,415.979Z" transform="translate(-90.435 -399.304)" fill="#c9bfc8"/>
      </g>
      <g id="Grupo_979875" data-name="Grupo 979875" transform="translate(36.657)">
        <path id="Trazado_657568" data-name="Trazado 657568" d="M189.217,399.3h9.873v18.587h-9.873Z" transform="translate(-189.217 -399.304)" fill="#c9bfc8"/>
      </g>
      <g id="Grupo_979876" data-name="Grupo 979876" transform="translate(73.315)">
        <path id="Trazado_657569" data-name="Trazado 657569" d="M288,399.3h9.576v18.587H288Z" transform="translate(-288 -399.304)" fill="#c9bfc8"/>
      </g>
    </g>
  </g>
</svg>
