<svg xmlns="http://www.w3.org/2000/svg" width="100" height="112" viewBox="0 0 100 112">
  <g id="Grupo_1009702" data-name="Grupo 1009702" transform="translate(-1145 -8254)">
    <circle id="Elipse_7931" data-name="Elipse 7931" cx="50" cy="50" r="50" transform="translate(1145 8254)" fill="#c4bbe5"/>
    <g id="Grupo_1009705" data-name="Grupo 1009705" transform="translate(1174.377 8272.984)">
      <g id="Grupo_981487" data-name="Grupo 981487">
        <g id="Grupo_981415" data-name="Grupo 981415" transform="translate(6.491 4.268)">
          <g id="Grupo_981414" data-name="Grupo 981414">
            <g id="Grupo_981413" data-name="Grupo 981413">
              <rect id="Rectángulo_309142" data-name="Rectángulo 309142" width="34.755" height="49.051" rx="2.885" fill="#f0bd51"/>
            </g>
          </g>
        </g>
        <g id="Grupo_981418" data-name="Grupo 981418" transform="translate(8.95 8.542)">
          <g id="Grupo_981417" data-name="Grupo 981417">
            <g id="Grupo_981416" data-name="Grupo 981416">
              <rect id="Rectángulo_309143" data-name="Rectángulo 309143" width="29.838" height="42.273" fill="#fff"/>
            </g>
          </g>
        </g>
        <g id="Grupo_981421" data-name="Grupo 981421" transform="translate(15.829 1.66)">
          <g id="Grupo_981420" data-name="Grupo 981420">
            <g id="Grupo_981419" data-name="Grupo 981419">
              <path id="Trazado_657938" data-name="Trazado 657938" d="M613.687,1801.1h-3.363v-2.457a2.457,2.457,0,1,0-4.914,0v2.457H602a2.426,2.426,0,0,0-2.162,1.326l.008.64h16l.008-.64A2.425,2.425,0,0,0,613.687,1801.1Zm-5.81-4.4a.624.624,0,1,1-.624.624A.624.624,0,0,1,607.877,1796.7Z" transform="translate(-599.837 -1796.183)" fill="#ddd"/>
            </g>
          </g>
        </g>
        <g id="Grupo_981424" data-name="Grupo 981424" transform="translate(15.837 7.9)">
          <g id="Grupo_981423" data-name="Grupo 981423">
            <g id="Grupo_981422" data-name="Grupo 981422">
              <rect id="Rectángulo_309144" data-name="Rectángulo 309144" width="16.004" height="0.64" fill="#c4c5c6"/>
            </g>
          </g>
        </g>
        <g id="Grupo_981461" data-name="Grupo 981461">
          <g id="Grupo_981427" data-name="Grupo 981427" transform="translate(0.085)">
            <g id="Grupo_981426" data-name="Grupo 981426">
              <g id="Grupo_981425" data-name="Grupo 981425">
                <path id="Trazado_657939" data-name="Trazado 657939" d="M568.223,1793.943v1.147h-3.177v-1.147a1.428,1.428,0,0,1,1.427-1.428h.323A1.428,1.428,0,0,1,568.223,1793.943Z" transform="translate(-565.046 -1792.515)" fill="#e26161"/>
              </g>
            </g>
          </g>
          <g id="Grupo_981430" data-name="Grupo 981430" transform="translate(0.105 6.927)">
            <g id="Grupo_981429" data-name="Grupo 981429">
              <g id="Grupo_981428" data-name="Grupo 981428">
                <rect id="Rectángulo_309145" data-name="Rectángulo 309145" width="1.03" height="45.308" fill="#fcc26d"/>
              </g>
            </g>
          </g>
          <g id="Grupo_981433" data-name="Grupo 981433" transform="translate(1.135 6.927)">
            <g id="Grupo_981432" data-name="Grupo 981432">
              <g id="Grupo_981431" data-name="Grupo 981431">
                <rect id="Rectángulo_309146" data-name="Rectángulo 309146" width="1.03" height="45.308" fill="#edaf4a"/>
              </g>
            </g>
          </g>
          <g id="Grupo_981436" data-name="Grupo 981436" transform="translate(2.165 6.927)">
            <g id="Grupo_981435" data-name="Grupo 981435">
              <g id="Grupo_981434" data-name="Grupo 981434">
                <rect id="Rectángulo_309147" data-name="Rectángulo 309147" width="1.03" height="45.308" fill="#d39235"/>
              </g>
            </g>
          </g>
          <g id="Grupo_981439" data-name="Grupo 981439" transform="translate(0 2.387)">
            <g id="Grupo_981438" data-name="Grupo 981438">
              <g id="Grupo_981437" data-name="Grupo 981437">
                <rect id="Rectángulo_309148" data-name="Rectángulo 309148" width="3.347" height="6.412" rx="0.359" fill="#c4c4c4"/>
              </g>
            </g>
          </g>
          <g id="Grupo_981442" data-name="Grupo 981442" transform="translate(0 7.688)">
            <g id="Grupo_981441" data-name="Grupo 981441">
              <g id="Grupo_981440" data-name="Grupo 981440">
                <rect id="Rectángulo_309149" data-name="Rectángulo 309149" width="3.347" height="0.509" fill="#aaa"/>
              </g>
            </g>
          </g>
          <g id="Grupo_981445" data-name="Grupo 981445" transform="translate(0 6.758)">
            <g id="Grupo_981444" data-name="Grupo 981444">
              <g id="Grupo_981443" data-name="Grupo 981443">
                <rect id="Rectángulo_309150" data-name="Rectángulo 309150" width="3.347" height="0.509" fill="#aaa"/>
              </g>
            </g>
          </g>
          <g id="Grupo_981448" data-name="Grupo 981448" transform="translate(0 5.827)">
            <g id="Grupo_981447" data-name="Grupo 981447">
              <g id="Grupo_981446" data-name="Grupo 981446">
                <rect id="Rectángulo_309151" data-name="Rectángulo 309151" width="3.347" height="0.509" fill="#aaa"/>
              </g>
            </g>
          </g>
          <g id="Grupo_981451" data-name="Grupo 981451" transform="translate(0 4.897)">
            <g id="Grupo_981450" data-name="Grupo 981450">
              <g id="Grupo_981449" data-name="Grupo 981449">
                <rect id="Rectángulo_309152" data-name="Rectángulo 309152" width="3.347" height="0.509" fill="#aaa"/>
              </g>
            </g>
          </g>
          <g id="Grupo_981454" data-name="Grupo 981454" transform="translate(0.105 52.235)">
            <g id="Grupo_981453" data-name="Grupo 981453">
              <g id="Grupo_981452" data-name="Grupo 981452">
                <path id="Trazado_657940" data-name="Trazado 657940" d="M565.092,1907.94l1.545,4.329,1.544-4.329Z" transform="translate(-565.092 -1907.94)" fill="#f9cc8a"/>
              </g>
            </g>
          </g>
          <g id="Grupo_981457" data-name="Grupo 981457" transform="translate(0.999 54.738)">
            <g id="Grupo_981456" data-name="Grupo 981456">
              <g id="Grupo_981455" data-name="Grupo 981455">
                <path id="Trazado_657941" data-name="Trazado 657941" d="M567.066,1913.471l.651,1.825.651-1.825h-1.3Z" transform="translate(-567.066 -1913.471)" fill="#515151"/>
              </g>
            </g>
          </g>
          <g id="Grupo_981460" data-name="Grupo 981460" transform="translate(0 2.387)" opacity="0.33">
            <g id="Grupo_981459" data-name="Grupo 981459">
              <g id="Grupo_981458" data-name="Grupo 981458">
                <path id="Trazado_657942" data-name="Trazado 657942" d="M565.994,1804.2v-6.412h-.982a.154.154,0,0,0-.153.154v6.107a.151.151,0,0,0,.151.151Z" transform="translate(-564.859 -1797.79)" fill="#fff"/>
              </g>
            </g>
          </g>
        </g>
        <g id="Grupo_981486" data-name="Grupo 981486" transform="translate(11.773 15.187)">
          <g id="Grupo_981464" data-name="Grupo 981464" transform="translate(7.537 2.369)">
            <g id="Grupo_981463" data-name="Grupo 981463">
              <g id="Grupo_981462" data-name="Grupo 981462">
                <rect id="Rectángulo_309153" data-name="Rectángulo 309153" width="15.847" height="1.077" fill="#898989"/>
              </g>
            </g>
          </g>
          <g id="Grupo_981467" data-name="Grupo 981467" transform="translate(7.537 10.091)">
            <g id="Grupo_981466" data-name="Grupo 981466">
              <g id="Grupo_981465" data-name="Grupo 981465">
                <rect id="Rectángulo_309154" data-name="Rectángulo 309154" width="15.847" height="1.077" fill="#898989"/>
              </g>
            </g>
          </g>
          <g id="Grupo_981470" data-name="Grupo 981470" transform="translate(7.537 17.814)">
            <g id="Grupo_981469" data-name="Grupo 981469">
              <g id="Grupo_981468" data-name="Grupo 981468">
                <rect id="Rectángulo_309155" data-name="Rectángulo 309155" width="15.847" height="1.077" fill="#898989"/>
              </g>
            </g>
          </g>
          <g id="Grupo_981473" data-name="Grupo 981473" transform="translate(7.537 25.537)">
            <g id="Grupo_981472" data-name="Grupo 981472">
              <g id="Grupo_981471" data-name="Grupo 981471">
                <rect id="Rectángulo_309156" data-name="Rectángulo 309156" width="15.847" height="1.077" fill="#898989"/>
              </g>
            </g>
          </g>
          <g id="Grupo_981476" data-name="Grupo 981476">
            <g id="Grupo_981475" data-name="Grupo 981475">
              <g id="Grupo_981474" data-name="Grupo 981474">
                <path id="Trazado_657943" data-name="Trazado 657943" d="M596.688,1831.888h-5.813v-5.813h5.813Zm-4.777-1.035h3.742v-3.742h-3.742Z" transform="translate(-590.875 -1826.075)" fill="#898989"/>
              </g>
            </g>
          </g>
          <g id="Grupo_981479" data-name="Grupo 981479" transform="translate(0 7.723)">
            <g id="Grupo_981478" data-name="Grupo 981478">
              <g id="Grupo_981477" data-name="Grupo 981477">
                <path id="Trazado_657944" data-name="Trazado 657944" d="M596.688,1848.953h-5.813v-5.813h5.813Zm-4.777-1.036h3.742v-3.742h-3.742Z" transform="translate(-590.875 -1843.14)" fill="#898989"/>
              </g>
            </g>
          </g>
          <g id="Grupo_981482" data-name="Grupo 981482" transform="translate(0 15.445)">
            <g id="Grupo_981481" data-name="Grupo 981481">
              <g id="Grupo_981480" data-name="Grupo 981480">
                <path id="Trazado_657945" data-name="Trazado 657945" d="M596.688,1866.019h-5.813v-5.813h5.813Zm-4.777-1.036h3.742v-3.742h-3.742Z" transform="translate(-590.875 -1860.205)" fill="#898989"/>
              </g>
            </g>
          </g>
          <g id="Grupo_981485" data-name="Grupo 981485" transform="translate(0 23.169)">
            <g id="Grupo_981484" data-name="Grupo 981484">
              <g id="Grupo_981483" data-name="Grupo 981483">
                <path id="Trazado_657946" data-name="Trazado 657946" d="M596.688,1883.084h-5.813v-5.813h5.813Zm-4.777-1.036h3.742v-3.742h-3.742Z" transform="translate(-590.875 -1877.271)" fill="#898989"/>
              </g>
            </g>
          </g>
        </g>
      </g>
      <g id="Grupo_981508" data-name="Grupo 981508" transform="translate(19.36 4.497)">
        <g id="Grupo_981497" data-name="Grupo 981497" transform="translate(6.956)">
          <g id="Grupo_981490" data-name="Grupo 981490">
            <g id="Grupo_981489" data-name="Grupo 981489">
              <g id="Grupo_981488" data-name="Grupo 981488">
                <path id="Trazado_657947" data-name="Trazado 657947" d="M623.82,1802.453h-.809v1.88h.809a.2.2,0,0,0,.2-.2v-1.477A.2.2,0,0,0,623.82,1802.453Z" transform="translate(-623.011 -1802.453)" fill="#ddd"/>
              </g>
            </g>
          </g>
          <g id="Grupo_981493" data-name="Grupo 981493" transform="translate(0 0)">
            <g id="Grupo_981492" data-name="Grupo 981492">
              <g id="Grupo_981491" data-name="Grupo 981491">
                <rect id="Rectángulo_309157" data-name="Rectángulo 309157" width="0.167" height="1.88" fill="#bababa"/>
              </g>
            </g>
          </g>
          <g id="Grupo_981496" data-name="Grupo 981496" transform="translate(1.01 0.213)">
            <g id="Grupo_981495" data-name="Grupo 981495">
              <g id="Grupo_981494" data-name="Grupo 981494">
                <path id="Trazado_657948" data-name="Trazado 657948" d="M625.544,1802.924h-.3v1.454h.3a.727.727,0,1,0,0-1.454Zm.029.992a.265.265,0,1,1,.265-.265A.265.265,0,0,1,625.573,1803.916Z" transform="translate(-625.243 -1802.924)" fill="#ddd"/>
              </g>
            </g>
          </g>
        </g>
        <g id="Grupo_981507" data-name="Grupo 981507">
          <g id="Grupo_981500" data-name="Grupo 981500" transform="translate(1.028)">
            <g id="Grupo_981499" data-name="Grupo 981499">
              <g id="Grupo_981498" data-name="Grupo 981498">
                <path id="Trazado_657949" data-name="Trazado 657949" d="M610.113,1802.453h.809v1.88h-.809a.2.2,0,0,1-.2-.2v-1.477A.2.2,0,0,1,610.113,1802.453Z" transform="translate(-609.912 -1802.453)" fill="#ddd"/>
              </g>
            </g>
          </g>
          <g id="Grupo_981503" data-name="Grupo 981503" transform="translate(1.871 0)">
            <g id="Grupo_981502" data-name="Grupo 981502">
              <g id="Grupo_981501" data-name="Grupo 981501">
                <rect id="Rectángulo_309158" data-name="Rectángulo 309158" width="0.167" height="1.88" fill="#bababa"/>
              </g>
            </g>
          </g>
          <g id="Grupo_981506" data-name="Grupo 981506" transform="translate(0 0.213)">
            <g id="Grupo_981505" data-name="Grupo 981505">
              <g id="Grupo_981504" data-name="Grupo 981504">
                <path id="Trazado_657950" data-name="Trazado 657950" d="M607.64,1803.651a.727.727,0,0,0,.727.727h.3v-1.454h-.3A.727.727,0,0,0,607.64,1803.651Zm.433,0a.265.265,0,1,1,.265.265A.265.265,0,0,1,608.073,1803.651Z" transform="translate(-607.64 -1802.924)" fill="#ddd"/>
              </g>
            </g>
          </g>
        </g>
      </g>
    </g>
    <g id="Grupo_1009706" data-name="Grupo 1009706" transform="translate(9768 11129.87)">
      <circle id="Elipse_7926" data-name="Elipse 7926" cx="15" cy="15" r="15" transform="translate(-8588 -2793.87)" fill="#f0bd51"/>
      <path id="Trazado_678340" data-name="Trazado 678340" d="M742.293,1801.485v1.725a29.081,29.081,0,0,0-6.315,14.378h-2.7a29.474,29.474,0,0,1,2.284-7.911,28.259,28.259,0,0,1,3.845-5.943h-8.342v-2.249Z" transform="translate(-9309.424 -4586.98)"/>
    </g>
  </g>
</svg>
