<svg id="Grupo_979529" data-name="Grupo 979529" xmlns="http://www.w3.org/2000/svg" width="156" height="156" viewBox="0 0 156 156">
  <rect id="Rectángulo_34178" data-name="Rectángulo 34178" width="156" height="156" fill="none"/>
  <g id="tecnologia" transform="translate(21.583 22)">
    <g id="Grupo_979542" data-name="Grupo 979542" transform="translate(1.82 1.82)">
      <g id="Grupo_979531" data-name="Grupo 979531" transform="translate(74.617)">
        <path id="Trazado_653562" data-name="Trazado 653562" d="M60.2,1V15.559H42V1Z" transform="translate(-42 -1)" fill="#f0d0b4"/>
      </g>
      <g id="Grupo_979532" data-name="Grupo 979532" transform="translate(16.379)">
        <path id="Trazado_653563" data-name="Trazado 653563" d="M28.2,1V15.559H10V1Z" transform="translate(-10 -1)" fill="#f0d0b4"/>
      </g>
      <g id="Grupo_979533" data-name="Grupo 979533" transform="translate(45.498)">
        <path id="Trazado_653564" data-name="Trazado 653564" d="M44.2,1V15.559H26V1Z" transform="translate(-26 -1)" fill="#f0d0b4"/>
      </g>
      <g id="Grupo_979534" data-name="Grupo 979534" transform="translate(7.28 25.479)">
        <path id="Trazado_653565" data-name="Trazado 653565" d="M99.636,84.157H5V22.28A7.28,7.28,0,0,1,12.28,15H92.356a7.28,7.28,0,0,1,7.28,7.28Z" transform="translate(-5 -15)" fill="#ccd1d9"/>
      </g>
      <g id="Grupo_979535" data-name="Grupo 979535" transform="translate(14.559 32.759)">
        <path id="Trazado_653566" data-name="Trazado 653566" d="M87.257,73.6H10.82A1.821,1.821,0,0,1,9,71.778V20.82A1.821,1.821,0,0,1,10.82,19H87.257a1.821,1.821,0,0,1,1.82,1.82V71.778A1.821,1.821,0,0,1,87.257,73.6Z" transform="translate(-9 -19)" fill="#69d6f4"/>
      </g>
      <g id="Grupo_979536" data-name="Grupo 979536" transform="translate(0 94.636)">
        <path id="Trazado_653567" data-name="Trazado 653567" d="M106.555,53H4.64a3.558,3.558,0,0,0-2.566,1.074A3.558,3.558,0,0,0,1,56.64a10.928,10.928,0,0,0,10.92,10.92H99.276A10.936,10.936,0,0,0,110.2,56.64a3.651,3.651,0,0,0-3.64-3.64Z" transform="translate(-1 -53)" fill="#969faa"/>
      </g>
      <g id="Grupo_979537" data-name="Grupo 979537" transform="translate(90.996 101.915)">
        <path id="Trazado_653568" data-name="Trazado 653568" d="M51,57h7.28v7.28H51Z" transform="translate(-51 -57)" fill="#ff826e"/>
      </g>
      <g id="Grupo_979538" data-name="Grupo 979538" transform="translate(76.437 101.915)">
        <path id="Trazado_653569" data-name="Trazado 653569" d="M43,57h7.28v7.28H43Z" transform="translate(-43 -57)" fill="#ff826e"/>
      </g>
      <g id="Grupo_979539" data-name="Grupo 979539" transform="translate(41.858 94.636)">
        <path id="Trazado_653570" data-name="Trazado 653570" d="M49.479,53v3.64a3.651,3.651,0,0,1-3.64,3.64H27.64A3.651,3.651,0,0,1,24,56.64V53Z" transform="translate(-24 -53)" fill="#ff826e"/>
      </g>
      <g id="Grupo_979540" data-name="Grupo 979540" transform="translate(25.479 52.778)">
        <path id="Trazado_653571" data-name="Trazado 653571" d="M73.237,53.659v10.92H61.5v-.055A18.2,18.2,0,1,0,25.92,59.119a18.032,18.032,0,0,0,.837,5.46H15V53.659l4.623-1.474a26.441,26.441,0,0,1,2.257-5.5l-2.22-4.3,7.735-7.735,4.3,2.22a26.442,26.442,0,0,1,5.5-2.257L38.659,30h10.92l1.474,4.623a26.442,26.442,0,0,1,5.5,2.257l4.3-2.22,7.735,7.735-2.22,4.3a26.442,26.442,0,0,1,2.257,5.5Z" transform="translate(-15 -30)" fill="#ffc729"/>
      </g>
      <g id="Grupo_979541" data-name="Grupo 979541" transform="translate(36.398 63.697)">
        <path id="Trazado_653572" data-name="Trazado 653572" d="M57.4,54.2a18.243,18.243,0,0,1-.819,5.405v.055H44a7.188,7.188,0,0,0,2.475-5.46,7.28,7.28,0,1,0-14.559,0,7.188,7.188,0,0,0,2.475,5.46H21.837A18.2,18.2,0,1,1,57.4,54.2Z" transform="translate(-21 -36)" fill="#fcd770"/>
      </g>
    </g>
    <g id="Grupo_979543" data-name="Grupo 979543">
      <path id="Trazado_653573" data-name="Trazado 653573" d="M107.375,83.157h-1.82V23.1a9.11,9.11,0,0,0-9.1-9.1H91v3.64h5.46a5.466,5.466,0,0,1,5.46,5.46V83.157h-91V23.1a5.466,5.466,0,0,1,5.46-5.46h5.46V14h-5.46a9.11,9.11,0,0,0-9.1,9.1V83.157H5.46A5.466,5.466,0,0,0,0,88.617a12.756,12.756,0,0,0,12.739,12.739H100.1a12.756,12.756,0,0,0,12.739-12.739A5.466,5.466,0,0,0,107.375,83.157ZM45.5,86.8H67.337v1.82a1.821,1.821,0,0,1-1.82,1.82h-18.2a1.821,1.821,0,0,1-1.82-1.82Zm38.218,10.92h-3.64v-3.64h3.64Zm14.559,0h-3.64v-3.64h3.64Zm3.64-.184v-7.1H91v7.28h-3.64v-7.28H76.437v7.28h-63.7a9.11,9.11,0,0,1-9.1-9.1A1.821,1.821,0,0,1,5.46,86.8h36.4v1.82a5.466,5.466,0,0,0,5.46,5.46h18.2a5.466,5.466,0,0,0,5.46-5.46V86.8h36.4a1.821,1.821,0,0,1,1.82,1.82,9.117,9.117,0,0,1-7.28,8.916Z" transform="translate(0 11.479)"/>
      <path id="Trazado_653574" data-name="Trazado 653574" d="M33.479,21.64V18H11.64A3.644,3.644,0,0,0,8,21.64V72.6a3.644,3.644,0,0,0,3.64,3.64H88.076a3.643,3.643,0,0,0,3.64-3.64V21.64A3.643,3.643,0,0,0,88.076,18H66.237v3.64H88.076V72.6H80.8V62.171l-4.976-1.594a27.409,27.409,0,0,0-1.673-4.057l2.388-4.639-9.6-9.6L62.3,44.671A27.49,27.49,0,0,0,58.243,43l-1.6-4.979H43.07l-1.594,4.976a27.409,27.409,0,0,0-4.057,1.673L32.78,42.28l-9.6,9.6,2.388,4.639A27.489,27.489,0,0,0,23.9,60.573l-4.977,1.6V72.6H11.64V21.64Zm0,47.318A16.38,16.38,0,1,1,65.784,72.6H58.192a9.1,9.1,0,1,0-16.667,0H33.934A16.391,16.391,0,0,1,33.479,68.958Zm10.92,0a5.46,5.46,0,1,1,9.485,3.64H45.831a5.442,5.442,0,0,1-1.432-3.64ZM22.559,64.825l4.288-1.372.266-.941a23.459,23.459,0,0,1,2.1-5.09l.477-.854-2.057-3.993,5.846-5.846,3.993,2.057.854-.477a23.458,23.458,0,0,1,5.09-2.1l.941-.266,1.37-4.286h8.264l1.372,4.288.941.266a23.458,23.458,0,0,1,5.09,2.1l.854.477,3.993-2.057,5.846,5.846L70.028,56.57l.477.854a23.458,23.458,0,0,1,2.1,5.09l.266.941,4.288,1.37V72.6H69.533a20.019,20.019,0,1,0-39.35,0H22.559Z" transform="translate(6.559 14.759)"/>
      <path id="Trazado_653575" data-name="Trazado 653575" d="M13,4h7.28V7.64H13Z" transform="translate(10.659 3.28)"/>
      <path id="Trazado_653576" data-name="Trazado 653576" d="M29,4h7.28V7.64H29Z" transform="translate(23.778 3.28)"/>
      <path id="Trazado_653577" data-name="Trazado 653577" d="M45,4h7.28V7.64H45Z" transform="translate(36.896 3.28)"/>
      <path id="Trazado_653578" data-name="Trazado 653578" d="M34.1,49.138h3.64V18.2h9.1V0H25V18.2h9.1ZM28.64,3.64H43.2v10.92H28.64Z" transform="translate(20.498)"/>
      <path id="Trazado_653579" data-name="Trazado 653579" d="M54.2,25.479H36V49.138h3.64V29.119h18.2V18.2h9.1V0H45.1V18.2h9.1ZM48.739,3.64H63.3v10.92H48.739Z" transform="translate(29.517)"/>
      <path id="Trazado_653580" data-name="Trazado 653580" d="M18.1,29.119H36.3V49.138h3.64V25.479h-18.2V18.2h9.1V0H9V18.2h9.1ZM12.64,3.64H27.2v10.92H12.64Z" transform="translate(7.379)"/>
    </g>
  </g>
</svg>
