<svg xmlns="http://www.w3.org/2000/svg" width="100" height="112" viewBox="0 0 100 112">
  <g id="Grupo_1009703" data-name="Grupo 1009703" transform="translate(6413 3440)">
    <circle id="Elipse_7931" data-name="Elipse 7931" cx="50" cy="50" r="50" transform="translate(-6413 -3440)" fill="#c4bbe5"/>
    <g id="Grupo_1009707" data-name="Grupo 1009707" transform="translate(2210 -641)">
      <circle id="Elipse_7927" data-name="Elipse 7927" cx="15" cy="15" r="15" transform="translate(-8588 -2717)" fill="#f0bd51"/>
      <path id="Trazado_678341" data-name="Trazado 678341" d="M779.97,1580.423a3.867,3.867,0,0,1-.5,1.888,4.664,4.664,0,0,1-1.4,1.515,4.446,4.446,0,0,1,2.458,3.822,4.6,4.6,0,0,1-1.409,3.589,5.621,5.621,0,0,1-4.159,1.5,5.715,5.715,0,0,1-4.148-1.5,4.592,4.592,0,0,1-1.422-3.589,4.439,4.439,0,0,1,2.529-3.822,5.407,5.407,0,0,1-1.432-1.515,3.545,3.545,0,0,1-.56-1.888,4.093,4.093,0,0,1,1.329-3.111,5.248,5.248,0,0,1,3.705-1.259,5.031,5.031,0,0,1,3.682,1.247A4.131,4.131,0,0,1,779.97,1580.423ZM772,1587.671a2.7,2.7,0,0,0,.863,1.934,2.988,2.988,0,0,0,2.1.8,2.9,2.9,0,0,0,2.1-.781,2.68,2.68,0,0,0,0-3.938,3.089,3.089,0,0,0-4.171-.011A2.635,2.635,0,0,0,772,1587.671Zm4.824-8.833a2.621,2.621,0,0,0-1.864-.722,2.5,2.5,0,0,0-1.865.7,2.325,2.325,0,0,0-.769,1.759,2.363,2.363,0,0,0,.769,1.771,2.681,2.681,0,0,0,1.865.734,2.589,2.589,0,0,0,1.853-.734,2.191,2.191,0,0,0,.779-1.771A2.029,2.029,0,0,0,776.825,1578.838Z" transform="translate(-9347.748 -4286.428)"/>
    </g>
    <g id="Grupo_1009708" data-name="Grupo 1009708" transform="translate(-6371.958 -3428.884)">
      <g id="Grupo_985207" data-name="Grupo 985207" transform="translate(3.295 64.567)">
        <g id="Grupo_985206" data-name="Grupo 985206">
          <path id="Trazado_658314" data-name="Trazado 658314" d="M617.124,1710.912h-4.506V1709.8l4.929-.465.173,1.177Z" transform="translate(-612.618 -1709.339)" fill="#cc7b32"/>
        </g>
      </g>
      <g id="Grupo_985209" data-name="Grupo 985209" transform="translate(3.295 66.14)">
        <g id="Grupo_985208" data-name="Grupo 985208">
          <rect id="Rectángulo_309926" data-name="Rectángulo 309926" width="8.833" height="0.277" fill="#565655"/>
        </g>
      </g>
      <g id="Grupo_985211" data-name="Grupo 985211" transform="translate(1.881 4.301)">
        <g id="Grupo_985210" data-name="Grupo 985210">
          <path id="Trazado_658315" data-name="Trazado 658315" d="M613.45,1517.58a6.75,6.75,0,0,0-.368,1.952l-5.069.187a26.8,26.8,0,0,0,.643-4.407c-.169-.54,2.593-2.42,2.632-2.212s1.68,3.355,1.68,3.355Z" transform="translate(-608.013 -1513.083)" fill="#f2bf9c"/>
        </g>
      </g>
      <g id="Grupo_985213" data-name="Grupo 985213" transform="translate(2.346 4.301)">
        <g id="Grupo_985212" data-name="Grupo 985212">
          <path id="Trazado_658316" data-name="Trazado 658316" d="M609.707,1515.312c-.169-.54,2.593-2.42,2.632-2.212s1.68,3.355,1.68,3.355l.481,1.126s-.115.365-.22.788a.8.8,0,0,1-.247.33c-.621.379-1.129.385-3.161-.43a2.559,2.559,0,0,1-1.343-1.027A7.542,7.542,0,0,0,609.707,1515.312Z" transform="translate(-609.53 -1513.083)" fill="#dda680"/>
        </g>
      </g>
      <g id="Grupo_985215" data-name="Grupo 985215" transform="translate(1.727 0.428)">
        <g id="Grupo_985214" data-name="Grupo 985214">
          <path id="Trazado_658317" data-name="Trazado 658317" d="M608.992,1506.609s-.552,1.386,1.479,2.2,2.539.809,3.161.43,1.025-3.856.886-4.3a4.774,4.774,0,0,1-.033-1.393s-.221-4.284-5.62-2.751a4.626,4.626,0,0,0-.555,5.77Z" transform="translate(-607.514 -1500.469)" fill="#f2bf9c"/>
        </g>
      </g>
      <g id="Grupo_985217" data-name="Grupo 985217" transform="translate(2.733)">
        <g id="Grupo_985216" data-name="Grupo 985216">
          <path id="Trazado_658318" data-name="Trazado 658318" d="M612.742,1500.7a3.211,3.211,0,0,0,1.679.181c.777-.187,1.808-.613,2.265,1.269,0,0,.9-1.544.266-2.135s-5.87-1.784-6.163.021A15.357,15.357,0,0,0,612.742,1500.7Z" transform="translate(-610.79 -1499.077)" fill="#6b4426"/>
        </g>
      </g>
      <g id="Grupo_985219" data-name="Grupo 985219" transform="translate(1.467 0.958)">
        <g id="Grupo_985218" data-name="Grupo 985218">
          <path id="Trazado_658319" data-name="Trazado 658319" d="M609.736,1502.851s.52.322.261.776-.576,2.171-.967,2.481-.073,1.189-.073,1.189l-.434.016s-.283-1.628-.7-1.683-1.066-.169-.663.981.666.744.548,1.9l-.092.708a2.793,2.793,0,0,1-.392-.863,27.094,27.094,0,0,0-.455-2.863c-.1-.134-.473-3.3,1.159-3.3A7.3,7.3,0,0,1,609.736,1502.851Z" transform="translate(-606.665 -1502.195)" fill="#6b4426"/>
        </g>
      </g>
      <g id="Grupo_985221" data-name="Grupo 985221" transform="translate(1.435 10.18)">
        <g id="Grupo_985220" data-name="Grupo 985220">
          <path id="Trazado_658320" data-name="Trazado 658320" d="M612.076,1532.8l1.224,1.509s-4.322,1.142-4.612,1.11a18.307,18.307,0,0,1-2.1-.151c-.127-.1.336-1.03.336-1.03a12.281,12.281,0,0,1,.087-1.251C607.07,1532.679,610.909,1531.559,612.076,1532.8Z" transform="translate(-606.562 -1532.228)" fill="#f2bf9c"/>
        </g>
      </g>
      <g id="Grupo_985223" data-name="Grupo 985223" transform="translate(0 10.094)">
        <g id="Grupo_985222" data-name="Grupo 985222">
          <path id="Trazado_658321" data-name="Trazado 658321" d="M610.564,1586.52l-6.081.855c-.057.264.049-11.958,3.04-18.349l-2.155-8.912s-.54-.9-1.149-2.056a11.075,11.075,0,0,1-.766-4.385,20.955,20.955,0,0,1,.664-3.419s-4.307-11.645-.946-16.263c4.853-6.667,11.163,4.995,11.163,6.454s.122,11.816.122,11.816-.122,16.714-.852,18.382S610.564,1586.52,610.564,1586.52Z" transform="translate(-601.889 -1531.947)" fill="#f0bd51"/>
        </g>
      </g>
      <g id="Grupo_985225" data-name="Grupo 985225" transform="translate(0.003 12.781)">
        <g id="Grupo_985224" data-name="Grupo 985224">
          <path id="Trazado_658322" data-name="Trazado 658322" d="M609.432,1542.3l3.279.7a10.641,10.641,0,0,1,1.629,3.515c0,1.46.122,11.816.122,11.816s-.01,1.4-.042,3.424a21.292,21.292,0,0,1-6.068-2.891c-4.638-3.194-6.014-9.667-6.014-9.667s-.019.048-.054.129a17.391,17.391,0,0,1,.038-7.465C604.969,1539.018,609.432,1542.3,609.432,1542.3Z" transform="translate(-601.898 -1540.699)" fill="#f0bd51"/>
        </g>
      </g>
      <g id="Grupo_985272" data-name="Grupo 985272" transform="translate(10.658 9.237)">
        <g id="Grupo_985227" data-name="Grupo 985227" transform="translate(0.024 0.257)">
          <g id="Grupo_985226" data-name="Grupo 985226" transform="translate(0 0)">
            <rect id="Rectángulo_309927" data-name="Rectángulo 309927" width="14.78" height="14.78" transform="translate(0 1.401) rotate(-5.441)" fill="#d3a971"/>
          </g>
        </g>
        <g id="Grupo_985229" data-name="Grupo 985229" transform="translate(0 0)">
          <g id="Grupo_985228" data-name="Grupo 985228">
            <rect id="Rectángulo_309928" data-name="Rectángulo 309928" width="14.78" height="0.258" transform="translate(0 1.401) rotate(-5.441)" fill="#d3a971"/>
          </g>
        </g>
        <g id="Grupo_985231" data-name="Grupo 985231" transform="translate(0.024 0.257)">
          <g id="Grupo_985230" data-name="Grupo 985230" transform="translate(0 0)">
            <rect id="Rectángulo_309929" data-name="Rectángulo 309929" width="14.78" height="0.129" transform="matrix(0.995, -0.095, 0.095, 0.995, 0, 1.401)" fill="#aa7d46"/>
          </g>
        </g>
        <g id="Grupo_985269" data-name="Grupo 985269" transform="translate(8.648 12.266)">
          <g id="Grupo_985234" data-name="Grupo 985234" transform="translate(0 0.413)">
            <g id="Grupo_985233" data-name="Grupo 985233">
              <g id="Grupo_985232" data-name="Grupo 985232">
                <path id="Trazado_658323" data-name="Trazado 658323" d="M664.758,1570.635l1.982-.189.189,1.982-1.982.189Zm1.887-.073-1.771.169.169,1.771,1.771-.169Z" transform="translate(-664.758 -1570.446)" fill="#4c4c4c"/>
              </g>
            </g>
          </g>
          <g id="Grupo_985251" data-name="Grupo 985251" transform="translate(2.233)">
            <g id="Grupo_985236" data-name="Grupo 985236" transform="translate(0.522 0.535)">
              <g id="Grupo_985235" data-name="Grupo 985235">
                <path id="Trazado_658324" data-name="Trazado 658324" d="M673.989,1571.9l-.183-.151-.077-.81.5-.047.5-.047.077.81-.152.183-.24.023.018.184.408-.039.023.246-.5.047-.5.047-.023-.246.408-.039-.018-.184Z" transform="translate(-673.729 -1570.843)" fill="#4c4c4c"/>
              </g>
            </g>
            <g id="Grupo_985239" data-name="Grupo 985239" transform="translate(0 0.201)">
              <g id="Grupo_985238" data-name="Grupo 985238">
                <g id="Grupo_985237" data-name="Grupo 985237">
                  <path id="Trazado_658325" data-name="Trazado 658325" d="M672.03,1569.943l1.983-.189.189,1.982-1.983.189Zm1.887-.073-1.771.169.169,1.771,1.771-.169Z" transform="translate(-672.03 -1569.754)" fill="#4c4c4c"/>
                </g>
              </g>
            </g>
            <g id="Grupo_985250" data-name="Grupo 985250" transform="translate(2.107)">
              <g id="Grupo_985242" data-name="Grupo 985242">
                <g id="Grupo_985241" data-name="Grupo 985241">
                  <g id="Grupo_985240" data-name="Grupo 985240">
                    <path id="Trazado_658326" data-name="Trazado 658326" d="M678.89,1569.289l1.983-.189.188,1.982-1.982.189Zm1.887-.073-1.771.169.169,1.77,1.771-.169Z" transform="translate(-678.89 -1569.1)" fill="#4c4c4c"/>
                  </g>
                </g>
              </g>
              <g id="Grupo_985249" data-name="Grupo 985249" transform="translate(0.313 0.336)">
                <g id="Grupo_985244" data-name="Grupo 985244" transform="translate(0 0.073)">
                  <g id="Grupo_985243" data-name="Grupo 985243">
                    <path id="Trazado_658327" data-name="Trazado 658327" d="M680.233,1570.43l.417.456-.212.02.061.642-.159.015-.159.015-.061-.642-.212.02Z" transform="translate(-679.909 -1570.43)" fill="#4c4c4c"/>
                  </g>
                </g>
                <g id="Grupo_985246" data-name="Grupo 985246" transform="translate(0.762)">
                  <g id="Grupo_985245" data-name="Grupo 985245">
                    <path id="Trazado_658328" data-name="Trazado 658328" d="M682.715,1570.193l.417.456-.212.02.061.642-.159.015-.159.015-.061-.642-.212.02Z" transform="translate(-682.392 -1570.193)" fill="#4c4c4c"/>
                  </g>
                </g>
                <g id="Grupo_985248" data-name="Grupo 985248" transform="translate(0.069 1.178)">
                  <g id="Grupo_985247" data-name="Grupo 985247" transform="translate(0 0)">
                    <rect id="Rectángulo_309930" data-name="Rectángulo 309930" width="1.51" height="0.215" transform="translate(0 0.143) rotate(-5.441)" fill="#4c4c4c"/>
                  </g>
                </g>
              </g>
            </g>
          </g>
          <g id="Grupo_985268" data-name="Grupo 985268" transform="translate(0.445 0.758)">
            <g id="Grupo_985253" data-name="Grupo 985253" transform="translate(0 0.564)">
              <g id="Grupo_985252" data-name="Grupo 985252">
                <path id="Trazado_658329" data-name="Trazado 658329" d="M666.831,1573.41c.652-.062.694.3.694.3a1.016,1.016,0,0,0-.224-.076l-.145.06-.14-.033-.123.058.047.5.135-.013-.008-.082.047,0,.014.145-.182.017-.031,0-.031,0-.006-.064-.047-.5-.132-.033-.131.059-.154-.032a1,1,0,0,0-.206.117S666.179,1573.473,666.831,1573.41Z" transform="translate(-666.206 -1573.403)" fill="#4c4c4c"/>
              </g>
            </g>
            <g id="Grupo_985255" data-name="Grupo 985255" transform="translate(0.964)">
              <g id="Grupo_985254" data-name="Grupo 985254">
                <path id="Trazado_658330" data-name="Trazado 658330" d="M669.351,1571.567a.348.348,0,0,1,.149.076.081.081,0,0,1-.135.09A.346.346,0,0,1,669.351,1571.567Z" transform="translate(-669.347 -1571.567)" fill="#4c4c4c"/>
              </g>
            </g>
            <g id="Grupo_985257" data-name="Grupo 985257" transform="translate(0.648 0.03)">
              <g id="Grupo_985256" data-name="Grupo 985256">
                <path id="Trazado_658331" data-name="Trazado 658331" d="M668.32,1571.666a.345.345,0,0,1,.148.075.081.081,0,0,1-.135.09A.345.345,0,0,1,668.32,1571.666Z" transform="translate(-668.316 -1571.666)" fill="#4c4c4c"/>
              </g>
            </g>
            <g id="Grupo_985259" data-name="Grupo 985259" transform="translate(0.331 0.06)">
              <g id="Grupo_985258" data-name="Grupo 985258">
                <path id="Trazado_658332" data-name="Trazado 658332" d="M667.289,1571.764a.341.341,0,0,1,.148.075.081.081,0,0,1-.135.091A.344.344,0,0,1,667.289,1571.764Z" transform="translate(-667.285 -1571.764)" fill="#4c4c4c"/>
              </g>
            </g>
            <g id="Grupo_985261" data-name="Grupo 985261" transform="translate(0.014 0.091)">
              <g id="Grupo_985260" data-name="Grupo 985260">
                <path id="Trazado_658333" data-name="Trazado 658333" d="M666.258,1571.862a.348.348,0,0,1,.148.076.081.081,0,0,1-.135.091A.346.346,0,0,1,666.258,1571.862Z" transform="translate(-666.254 -1571.862)" fill="#4c4c4c"/>
              </g>
            </g>
            <g id="Grupo_985263" data-name="Grupo 985263" transform="translate(0.886 0.227)">
              <g id="Grupo_985262" data-name="Grupo 985262">
                <path id="Trazado_658334" data-name="Trazado 658334" d="M669.1,1572.307a.344.344,0,0,1,.148.076.081.081,0,0,1-.135.091A.344.344,0,0,1,669.1,1572.307Z" transform="translate(-669.092 -1572.307)" fill="#4c4c4c"/>
              </g>
            </g>
            <g id="Grupo_985265" data-name="Grupo 985265" transform="translate(0.569 0.257)">
              <g id="Grupo_985264" data-name="Grupo 985264">
                <path id="Trazado_658335" data-name="Trazado 658335" d="M668.065,1572.405a.344.344,0,0,1,.148.075.081.081,0,0,1-.135.091A.343.343,0,0,1,668.065,1572.405Z" transform="translate(-668.061 -1572.405)" fill="#4c4c4c"/>
              </g>
            </g>
            <g id="Grupo_985267" data-name="Grupo 985267" transform="translate(0.253 0.287)">
              <g id="Grupo_985266" data-name="Grupo 985266">
                <path id="Trazado_658336" data-name="Trazado 658336" d="M667.034,1572.5a.346.346,0,0,1,.148.075.081.081,0,0,1-.135.091A.345.345,0,0,1,667.034,1572.5Z" transform="translate(-667.03 -1572.503)" fill="#4c4c4c"/>
              </g>
            </g>
          </g>
        </g>
        <g id="Grupo_985271" data-name="Grupo 985271" transform="translate(6.479 0.627)" opacity="0.58">
          <g id="Grupo_985270" data-name="Grupo 985270" transform="translate(0 0)">
            <rect id="Rectángulo_309931" data-name="Rectángulo 309931" width="1.658" height="15.038" transform="translate(0 0.157) rotate(-5.441)" fill="#eaeaea"/>
          </g>
        </g>
      </g>
      <g id="Grupo_985274" data-name="Grupo 985274" transform="translate(0.443 10.638)">
        <g id="Grupo_985273" data-name="Grupo 985273">
          <path id="Trazado_658337" data-name="Trazado 658337" d="M613.328,1538.433a2.12,2.12,0,0,1-1,2.92,10.888,10.888,0,0,1-3.471,1.05c-2.007.091-4.716.372-5.476-1.993a7.583,7.583,0,0,1,1.842-5.652,3.392,3.392,0,0,1,4.031-.645A9.829,9.829,0,0,1,613.328,1538.433Z" transform="translate(-603.331 -1533.72)" fill="#e2e2e2"/>
        </g>
      </g>
      <g id="Grupo_985276" data-name="Grupo 985276" transform="translate(7.8 63.924)">
        <g id="Grupo_985275" data-name="Grupo 985275">
          <path id="Trazado_658338" data-name="Trazado 658338" d="M631.617,1709.461H627.29v-.4a1.813,1.813,0,0,1,1.813-1.813h.7a1.813,1.813,0,0,1,1.813,1.813Z" transform="translate(-627.29 -1707.245)" fill="#cc7b32"/>
        </g>
      </g>
      <g id="Grupo_985278" data-name="Grupo 985278" transform="translate(2.594 38.26)">
        <g id="Grupo_985277" data-name="Grupo 985277">
          <path id="Trazado_658339" data-name="Trazado 658339" d="M615.012,1632.478s-3.323,11.463-3.975,18.126c-.008.08-.018.155-.026.233l-.674.095s.24-12.881,3.04-18.349l-2.155-8.912C611.5,1623.7,614.42,1631.8,615.012,1632.478Z" transform="translate(-610.336 -1623.671)" fill="#c09740"/>
        </g>
      </g>
      <g id="Grupo_985280" data-name="Grupo 985280" transform="translate(0.097 19.214)">
        <g id="Grupo_985279" data-name="Grupo 985279">
          <path id="Trazado_658340" data-name="Trazado 658340" d="M604.437,1578.637a11.073,11.073,0,0,1-.766-4.385,20.955,20.955,0,0,1,.664-3.419,41.832,41.832,0,0,1-2.132-9.185l.346.478s1.632,2.642,1.632,2.8,2.857,5.434,2.857,5.434l5.142,3.695a25.746,25.746,0,0,1,2.47.972c-.018,1.3-.046,3.061-.091,4.947h0c-8.911,2.269-5.672,8.593-5.672,8.593l-1.6-.817-1.706-7.053S605.046,1579.791,604.437,1578.637Z" transform="translate(-602.204 -1561.647)" fill="#c09740"/>
        </g>
      </g>
      <g id="Grupo_985282" data-name="Grupo 985282" transform="translate(4.706 1.288)">
        <g id="Grupo_985281" data-name="Grupo 985281">
          <path id="Trazado_658341" data-name="Trazado 658341" d="M617.213,1503.613c1.568.139,1.439-.23,2.611-.335,1.215-.108,1.442,1.328,1.442,1.328a.994.994,0,0,1-.02.243c-.063.126-.109.206-.109.206-.457-1.882-1.488-1.456-2.265-1.269A3.167,3.167,0,0,1,617.213,1503.613Z" transform="translate(-617.213 -1503.272)" fill="#5b3820"/>
        </g>
      </g>
      <g id="Grupo_985287" data-name="Grupo 985287" transform="translate(3.766 1.558)">
        <g id="Grupo_985284" data-name="Grupo 985284" transform="translate(0.72)">
          <g id="Grupo_985283" data-name="Grupo 985283">
            <path id="Trazado_658342" data-name="Trazado 658342" d="M616.53,1504.18a.173.173,0,0,0-.031-.029A.21.21,0,0,1,616.53,1504.18Z" transform="translate(-616.499 -1504.151)" fill="#5b3820"/>
          </g>
        </g>
        <g id="Grupo_985286" data-name="Grupo 985286" transform="translate(0 0.06)">
          <g id="Grupo_985285" data-name="Grupo 985285">
            <path id="Trazado_658343" data-name="Trazado 658343" d="M614.986,1505a1.6,1.6,0,0,0-.055-.655c.035.022.5.334.255.772-.258.454-.576,2.171-.967,2.482a.435.435,0,0,0-.065.065h0S614.994,1505.144,614.986,1505Z" transform="translate(-614.153 -1504.345)" fill="#5b3820"/>
          </g>
        </g>
      </g>
      <g id="Grupo_985289" data-name="Grupo 985289" transform="translate(0.443 10.67)">
        <g id="Grupo_985288" data-name="Grupo 985288">
          <path id="Trazado_658344" data-name="Trazado 658344" d="M607.2,1533.824c-.044.047-4.258,4.5-1.583,8.455.029.042.051.085.078.128a2.776,2.776,0,0,1-2.318-1.925,7.583,7.583,0,0,1,1.842-5.652A3.348,3.348,0,0,1,607.2,1533.824Z" transform="translate(-603.331 -1533.824)" fill="#c6c6c6"/>
        </g>
      </g>
      <g id="Grupo_985291" data-name="Grupo 985291" transform="translate(1.838 13.096)">
        <g id="Grupo_985290" data-name="Grupo 985290">
          <path id="Trazado_658345" data-name="Trazado 658345" d="M614.209,1546.754c2.862-1.742.75-5.022.747-5.029a12.148,12.148,0,0,1,1.52,2.255,2.12,2.12,0,0,1-1,2.92,10.877,10.877,0,0,1-3.471,1.05,8.76,8.76,0,0,1-4.131-.394C608.37,1547.561,611.675,1548.3,614.209,1546.754Z" transform="translate(-607.873 -1541.725)" fill="#c6c6c6"/>
        </g>
      </g>
      <g id="Grupo_985304" data-name="Grupo 985304" transform="translate(1.994 13.927)">
        <g id="Grupo_985293" data-name="Grupo 985293" transform="translate(0.839 2.908)">
          <g id="Grupo_985292" data-name="Grupo 985292">
            <path id="Trazado_658346" data-name="Trazado 658346" d="M615.972,1554.662l1.082,5.93a11.646,11.646,0,0,0,4.084.056c3.091-.285,4.018-.871,4.018-.871s.462-2.464,1.535-3.411c.821-.725.7.712.7.712s-1.085.87.162,2.133c0,0,1.608-.918,1.77-.616s.76,2.471.007,3.342a4.5,4.5,0,0,1-2.468,1.059,2.7,2.7,0,0,0-2.174.063c-1.289.529-4.951,1.949-7.624,1.692,0,0-1.414.532-1.736.053s-3.9-5.1-4.2-7.906S615.337,1553.044,615.972,1554.662Z" transform="translate(-611.117 -1553.899)" fill="#f2bf9c"/>
          </g>
        </g>
        <g id="Grupo_985295" data-name="Grupo 985295" transform="translate(3.542 2.909)">
          <g id="Grupo_985294" data-name="Grupo 985294">
            <path id="Trazado_658347" data-name="Trazado 658347" d="M619.916,1553.962c.97-.177,1.891.035,2.154.7l1.082,5.93c-.3.312-.828.806-.615.395s-.908-5.2-.908-5.2Z" transform="translate(-619.916 -1553.902)" fill="#d39972"/>
          </g>
        </g>
        <g id="Grupo_985297" data-name="Grupo 985297" transform="translate(17.973 7.544)">
          <g id="Grupo_985296" data-name="Grupo 985296">
            <path id="Trazado_658348" data-name="Trazado 658348" d="M666.991,1572.98c.631-.844.038-3.612.027-3.717.43-.2.888-.36.971-.206.162.3.76,2.471.007,3.342a2.8,2.8,0,0,1-1.082.7A.976.976,0,0,1,666.991,1572.98Z" transform="translate(-666.913 -1568.996)" fill="#d39972"/>
          </g>
        </g>
        <g id="Grupo_985299" data-name="Grupo 985299" transform="translate(9 11.459)">
          <g id="Grupo_985298" data-name="Grupo 985298">
            <path id="Trazado_658349" data-name="Trazado 658349" d="M637.691,1583.955a39.659,39.659,0,0,0,4.655-1.668c.633-.456,2.724-.9,3.448-.086-.3.067-.516.091-.516.091a2.7,2.7,0,0,0-2.174.063A25.027,25.027,0,0,1,637.691,1583.955Z" transform="translate(-637.691 -1581.747)" fill="#e5b391"/>
          </g>
        </g>
        <g id="Grupo_985301" data-name="Grupo 985301" transform="translate(6.106 9.335)">
          <g id="Grupo_985300" data-name="Grupo 985300">
            <path id="Trazado_658350" data-name="Trazado 658350" d="M635.294,1574.83h0a11.043,11.043,0,0,1-7.026.822l.671-.556a11.65,11.65,0,0,0,4.084.056A20.824,20.824,0,0,0,635.294,1574.83Z" transform="translate(-628.268 -1574.83)" fill="#d39972"/>
          </g>
        </g>
        <g id="Grupo_985303" data-name="Grupo 985303">
          <g id="Grupo_985302" data-name="Grupo 985302">
            <path id="Trazado_658351" data-name="Trazado 658351" d="M609.3,1551.963l5.716-1.212-.849-4a2.921,2.921,0,0,0-3.464-2.252h0a2.922,2.922,0,0,0-2.252,3.464Z" transform="translate(-608.383 -1544.43)" fill="#efefef"/>
          </g>
        </g>
      </g>
    </g>
  </g>
</svg>
