<svg xmlns="http://www.w3.org/2000/svg" width="100" height="112" viewBox="0 0 100 112">
  <g id="Grupo_1009699" data-name="Grupo 1009699" transform="translate(6413 3440)">
    <circle id="Elipse_7931" data-name="Elipse 7931" cx="50" cy="50" r="50" transform="translate(-6413 -3440)" fill="#c4bbe5"/>
    <g id="Grupo_1009700" data-name="Grupo 1009700" transform="translate(-6407 -3415)">
      <g id="Grupo_985410" data-name="Grupo 985410" transform="translate(18.065)">
        <g id="Grupo_985365" data-name="Grupo 985365" transform="translate(0 0.596)">
          <g id="Grupo_985364" data-name="Grupo 985364">
            <rect id="Rectángulo_309937" data-name="Rectángulo 309937" width="34.176" height="34.176" fill="#d3a971"/>
          </g>
        </g>
        <g id="Grupo_985367" data-name="Grupo 985367">
          <g id="Grupo_985366" data-name="Grupo 985366">
            <rect id="Rectángulo_309938" data-name="Rectángulo 309938" width="34.176" height="0.596" fill="#d3a971"/>
          </g>
        </g>
        <g id="Grupo_985369" data-name="Grupo 985369" transform="translate(0 0.597)">
          <g id="Grupo_985368" data-name="Grupo 985368">
            <rect id="Rectángulo_309939" data-name="Rectángulo 309939" width="34.176" height="0.298" fill="#aa7d46"/>
          </g>
        </g>
        <g id="Grupo_985407" data-name="Grupo 985407" transform="translate(2.099 28.291)">
          <g id="Grupo_985372" data-name="Grupo 985372" transform="translate(10.081)">
            <g id="Grupo_985371" data-name="Grupo 985371">
              <g id="Grupo_985370" data-name="Grupo 985370">
                <path id="Trazado_658369" data-name="Trazado 658369" d="M600.313,2071.977h-4.605v-4.6h4.605Zm-4.359-.246h4.113v-4.112h-4.113Z" transform="translate(-595.708 -2067.373)" fill="#4c4c4c"/>
              </g>
            </g>
          </g>
          <g id="Grupo_985389" data-name="Grupo 985389">
            <g id="Grupo_985374" data-name="Grupo 985374" transform="translate(6.042 0.668)">
              <g id="Grupo_985373" data-name="Grupo 985373">
                <path id="Trazado_658370" data-name="Trazado 658370" d="M592.159,2070.548l.389-.389v-1.88h-2.309v1.88l.389.389h.558v.428h-.947v.571h2.309v-.571H591.6v-.428Z" transform="translate(-590.239 -2068.278)" fill="#4c4c4c"/>
              </g>
            </g>
            <g id="Grupo_985377" data-name="Grupo 985377" transform="translate(4.894)">
              <g id="Grupo_985376" data-name="Grupo 985376">
                <g id="Grupo_985375" data-name="Grupo 985375">
                  <path id="Trazado_658371" data-name="Trazado 658371" d="M593.289,2071.977h-4.6v-4.6h4.6Zm-4.358-.246h4.113v-4.112h-4.113Z" transform="translate(-588.685 -2067.373)" fill="#4c4c4c"/>
                </g>
              </g>
            </g>
            <g id="Grupo_985388" data-name="Grupo 985388">
              <g id="Grupo_985380" data-name="Grupo 985380">
                <g id="Grupo_985379" data-name="Grupo 985379">
                  <g id="Grupo_985378" data-name="Grupo 985378">
                    <path id="Trazado_658372" data-name="Trazado 658372" d="M586.664,2071.977h-4.605v-4.6h4.605Zm-4.359-.246h4.113v-4.112H582.3Z" transform="translate(-582.059 -2067.373)" fill="#4c4c4c"/>
                  </g>
                </g>
              </g>
              <g id="Grupo_985387" data-name="Grupo 985387" transform="translate(0.557 0.645)">
                <g id="Grupo_985382" data-name="Grupo 985382" transform="translate(1.771)">
                  <g id="Grupo_985381" data-name="Grupo 985381">
                    <path id="Trazado_658373" data-name="Trazado 658373" d="M586.071,2068.246l-.861,1.142h.492v1.491h.738v-1.491h.492Z" transform="translate(-585.21 -2068.246)" fill="#4c4c4c"/>
                  </g>
                </g>
                <g id="Grupo_985384" data-name="Grupo 985384">
                  <g id="Grupo_985383" data-name="Grupo 985383">
                    <path id="Trazado_658374" data-name="Trazado 658374" d="M583.674,2068.246l-.861,1.142h.492v1.491h.738v-1.491h.492Z" transform="translate(-582.813 -2068.246)" fill="#4c4c4c"/>
                  </g>
                </g>
                <g id="Grupo_985386" data-name="Grupo 985386" transform="translate(0 2.817)">
                  <g id="Grupo_985385" data-name="Grupo 985385">
                    <rect id="Rectángulo_309940" data-name="Rectángulo 309940" width="3.492" height="0.498" fill="#4c4c4c"/>
                  </g>
                </g>
              </g>
            </g>
          </g>
          <g id="Grupo_985406" data-name="Grupo 985406" transform="translate(10.852 0.668)">
            <g id="Grupo_985391" data-name="Grupo 985391" transform="translate(0 1.239)">
              <g id="Grupo_985390" data-name="Grupo 985390">
                <path id="Trazado_658375" data-name="Trazado 658375" d="M598.283,2069.954c-1.514,0-1.531.847-1.531.847a2.313,2.313,0,0,1,.5-.224l.348.106.314-.106.3.106v1.153H597.9v-.189h-.109v.338h.568v-1.3l.3-.106.315.106.347-.106a2.314,2.314,0,0,1,.5.224S599.8,2069.954,598.283,2069.954Z" transform="translate(-596.752 -2069.954)" fill="#4c4c4c"/>
              </g>
            </g>
            <g id="Grupo_985393" data-name="Grupo 985393" transform="translate(0.265)">
              <g id="Grupo_985392" data-name="Grupo 985392">
                <path id="Trazado_658376" data-name="Trazado 658376" d="M597.459,2068.277a.809.809,0,0,0-.325.207.188.188,0,0,0,.33.179A.807.807,0,0,0,597.459,2068.277Z" transform="translate(-597.11 -2068.277)" fill="#4c4c4c"/>
              </g>
            </g>
            <g id="Grupo_985395" data-name="Grupo 985395" transform="translate(1)">
              <g id="Grupo_985394" data-name="Grupo 985394">
                <path id="Trazado_658377" data-name="Trazado 658377" d="M598.455,2068.277a.8.8,0,0,0-.325.207.188.188,0,0,0,.33.179A.808.808,0,0,0,598.455,2068.277Z" transform="translate(-598.106 -2068.277)" fill="#4c4c4c"/>
              </g>
            </g>
            <g id="Grupo_985397" data-name="Grupo 985397" transform="translate(1.736)">
              <g id="Grupo_985396" data-name="Grupo 985396">
                <path id="Trazado_658378" data-name="Trazado 658378" d="M599.451,2068.277a.81.81,0,0,0-.326.207.188.188,0,0,0,.331.179A.808.808,0,0,0,599.451,2068.277Z" transform="translate(-599.102 -2068.277)" fill="#4c4c4c"/>
              </g>
            </g>
            <g id="Grupo_985399" data-name="Grupo 985399" transform="translate(2.471)">
              <g id="Grupo_985398" data-name="Grupo 985398">
                <path id="Trazado_658379" data-name="Trazado 658379" d="M600.447,2068.277a.813.813,0,0,0-.325.207.188.188,0,0,0,.331.179A.8.8,0,0,0,600.447,2068.277Z" transform="translate(-600.098 -2068.277)" fill="#4c4c4c"/>
              </g>
            </g>
            <g id="Grupo_985401" data-name="Grupo 985401" transform="translate(0.494 0.506)">
              <g id="Grupo_985400" data-name="Grupo 985400">
                <path id="Trazado_658380" data-name="Trazado 658380" d="M597.771,2068.962a.8.8,0,0,0-.326.206.188.188,0,0,0,.331.179A.8.8,0,0,0,597.771,2068.962Z" transform="translate(-597.422 -2068.962)" fill="#4c4c4c"/>
              </g>
            </g>
            <g id="Grupo_985403" data-name="Grupo 985403" transform="translate(1.23 0.506)">
              <g id="Grupo_985402" data-name="Grupo 985402">
                <path id="Trazado_658381" data-name="Trazado 658381" d="M598.766,2068.962a.8.8,0,0,0-.325.206.188.188,0,0,0,.331.179A.792.792,0,0,0,598.766,2068.962Z" transform="translate(-598.417 -2068.962)" fill="#4c4c4c"/>
              </g>
            </g>
            <g id="Grupo_985405" data-name="Grupo 985405" transform="translate(1.966 0.506)">
              <g id="Grupo_985404" data-name="Grupo 985404">
                <path id="Trazado_658382" data-name="Trazado 658382" d="M599.762,2068.962a.8.8,0,0,0-.325.206.188.188,0,0,0,.331.179A.8.8,0,0,0,599.762,2068.962Z" transform="translate(-599.413 -2068.962)" fill="#4c4c4c"/>
              </g>
            </g>
          </g>
        </g>
        <g id="Grupo_985409" data-name="Grupo 985409" transform="translate(15.294)" opacity="0.58">
          <g id="Grupo_985408" data-name="Grupo 985408">
            <rect id="Rectángulo_309941" data-name="Rectángulo 309941" width="3.834" height="34.772" fill="#eaeaea"/>
          </g>
        </g>
      </g>
      <g id="Grupo_985411" data-name="Grupo 985411" transform="translate(6.538 42.82)">
        <rect id="Rectángulo_309942" data-name="Rectángulo 309942" width="74.562" height="5.456" fill="#f0bd51"/>
      </g>
      <g id="Grupo_985412" data-name="Grupo 985412" transform="translate(0 34.772)">
        <rect id="Rectángulo_309943" data-name="Rectángulo 309943" width="87.639" height="5.456" fill="#f0bd51"/>
      </g>
      <g id="Grupo_985413" data-name="Grupo 985413" transform="translate(9.527 40.228)">
        <rect id="Rectángulo_309944" data-name="Rectángulo 309944" width="68.586" height="2.591" fill="#3f3f3f"/>
      </g>
      <g id="Grupo_985414" data-name="Grupo 985414" transform="translate(9.527 48.276)">
        <rect id="Rectángulo_309945" data-name="Rectángulo 309945" width="4.634" height="1.494" fill="#3f3f3f"/>
      </g>
      <g id="Grupo_985415" data-name="Grupo 985415" transform="translate(73.478 48.276)">
        <rect id="Rectángulo_309946" data-name="Rectángulo 309946" width="4.634" height="1.494" fill="#3f3f3f"/>
      </g>
      <g id="Grupo_985416" data-name="Grupo 985416" transform="translate(76.055 23.462)">
        <rect id="Rectángulo_309947" data-name="Rectángulo 309947" width="4.115" height="11.311" fill="#3f3f3f"/>
      </g>
      <g id="Grupo_985417" data-name="Grupo 985417" transform="translate(62.491 10.356)">
        <rect id="Rectángulo_309948" data-name="Rectángulo 309948" width="25.148" height="13.106" fill="#3f3f3f"/>
      </g>
      <g id="Grupo_985418" data-name="Grupo 985418" transform="translate(64.046 11.91)">
        <rect id="Rectángulo_309949" data-name="Rectángulo 309949" width="22.039" height="9.997" fill="#fff"/>
      </g>
      <g id="Grupo_985419" data-name="Grupo 985419" transform="translate(68.55 14.444)">
        <path id="Trazado_658383" data-name="Trazado 658383" d="M649.658,2048.778a1.031,1.031,0,0,1,.469.422,1.048,1.048,0,0,1,.164.482,1.323,1.323,0,0,1-.054.575,1.6,1.6,0,0,1-.3.567q-1.38,1.67-1.4,1.68h1.907v.653h-2.875v-.475l1.79-2.161a1.127,1.127,0,0,0,.277-.6.578.578,0,0,0-.155-.489.664.664,0,0,0-.5-.185.632.632,0,0,0-.714.62h-.66a1.512,1.512,0,0,1,.072-.418,1.094,1.094,0,0,1,.472-.593,1.53,1.53,0,0,1,.846-.221A1.427,1.427,0,0,1,649.658,2048.778Z" transform="translate(-647.571 -2048.627)" fill="#3f3f3f"/>
        <path id="Trazado_658384" data-name="Trazado 658384" d="M654.869,2049.18a3.415,3.415,0,0,1,0,3.5,1.477,1.477,0,0,1-2.309,0,3.38,3.38,0,0,1,0-3.5,1.478,1.478,0,0,1,2.309,0Zm-1.157.065a.707.707,0,0,0-.623.411,2.553,2.553,0,0,0-.258,1.276,2.579,2.579,0,0,0,.258,1.27.681.681,0,0,0,1.25,0,2.553,2.553,0,0,0,.261-1.27,2.527,2.527,0,0,0-.261-1.276A.7.7,0,0,0,653.712,2049.246Z" transform="translate(-648.748 -2048.625)" fill="#3f3f3f"/>
        <path id="Trazado_658385" data-name="Trazado 658385" d="M657.863,2048.743v2.668l1.1-1.437h.814l-1.106,1.392,1.309,1.82h-.8l-.945-1.318-.363.479v.84h-.742v-4.443Z" transform="translate(-650.068 -2048.656)" fill="#3f3f3f"/>
        <path id="Trazado_658386" data-name="Trazado 658386" d="M663.085,2050.493a1.111,1.111,0,0,1,.318.283l.141-.388h.6v3.192a1.214,1.214,0,0,1-.375.948,1.492,1.492,0,0,1-1.052.338q-1.236,0-1.434-.957h.8a.517.517,0,0,0,.177.249.771.771,0,0,0,.459.117.917.917,0,0,0,.46-.117.562.562,0,0,0,.222-.507v-.361a1.377,1.377,0,0,1-.785.368,1.315,1.315,0,0,1-.629-.094,1.3,1.3,0,0,1-.469-.354,1.94,1.94,0,0,1-.4-1.218,1.792,1.792,0,0,1,.454-1.259,1.135,1.135,0,0,1,.894-.406A1.159,1.159,0,0,1,663.085,2050.493Zm-.974.679a1.244,1.244,0,0,0-.241.833,1.319,1.319,0,0,0,.245.826.649.649,0,0,0,.582.286.871.871,0,0,0,.707-.627v-.969a.989.989,0,0,0-.261-.423.63.63,0,0,0-.446-.2A.694.694,0,0,0,662.11,2051.172Z" transform="translate(-651.112 -2049.07)" fill="#3f3f3f"/>
      </g>
    </g>
    <g id="Grupo_1009701" data-name="Grupo 1009701" transform="translate(2210 -490.931)">
      <circle id="Elipse_7925" data-name="Elipse 7925" cx="15" cy="15" r="15" transform="translate(-8588 -2867.069)" fill="#f0bd51"/>
      <path id="Trazado_658359" data-name="Trazado 658359" d="M745.188,2020.65a4.8,4.8,0,0,1,1.468.675,4.4,4.4,0,0,1,1.41,1.4,6.753,6.753,0,0,1,1,2.19h-2.423a2.95,2.95,0,0,0-2.983-2.143,2.61,2.61,0,0,0-1.865.873,4.773,4.773,0,0,0-1.071,1.876,8.689,8.689,0,0,0-.361,2.132,3.194,3.194,0,0,1,1.364-1.2,4.446,4.446,0,0,1,2.422-.536,5.008,5.008,0,0,1,3.869,1.736,5.419,5.419,0,0,1,1.294,4.254,6.051,6.051,0,0,1-.5,1.934,6.431,6.431,0,0,1-1.166,1.736,5.117,5.117,0,0,1-1.957,1.223,6.716,6.716,0,0,1-2.728.3,5.046,5.046,0,0,1-2.912-1.247,6.074,6.074,0,0,1-1.725-2.633,13.649,13.649,0,0,1-.513-5.2,11.454,11.454,0,0,1,1.3-4.881,4.99,4.99,0,0,1,4.614-2.692A4.835,4.835,0,0,1,745.188,2020.65Zm-3.835,8.272a3.785,3.785,0,0,0-.908,2.517,3.928,3.928,0,0,0,.908,2.552,3.012,3.012,0,0,0,2.238.979,2.868,2.868,0,0,0,2.225-1,3.986,3.986,0,0,0,0-5.068,2.734,2.734,0,0,0-2.225-.991A2.961,2.961,0,0,0,741.353,2028.922Z" transform="translate(-9316.731 -4880.858)"/>
    </g>
  </g>
</svg>
