<svg xmlns="http://www.w3.org/2000/svg" width="295" height="400" viewBox="0 0 295 400">
  <g id="Grupo_1009732" data-name="Grupo 1009732" transform="translate(-180 -14826)">
    <rect id="Rectángulo_311770" data-name="Rectángulo 311770" width="295" height="400" rx="20" transform="translate(180 14826)" fill="#f0bd51"/>
    <g id="Grupo_1009638" data-name="Grupo 1009638" transform="translate(-1.228 -398.748)">
      <circle id="Elipse_7737" data-name="Elipse 7737" cx="114.381" cy="114.381" r="114.381" transform="translate(214.626 15318.943)" fill="#fae8c2" opacity="0.5" style="mix-blend-mode: color-burn;isolation: isolate"/>
      <g id="Grupo_986533" data-name="Grupo 986533" transform="translate(209.227 15313.541)">
        <path id="Trazado_659339" data-name="Trazado 659339" d="M231.577,4071.323a119.782,119.782,0,1,1,119.779-119.782A119.917,119.917,0,0,1,231.577,4071.323Zm0-228.764a108.981,108.981,0,1,0,108.98,108.982A109.1,109.1,0,0,0,231.577,3842.559Z" transform="translate(-111.796 -3831.758)" fill="#ef8b53"/>
      </g>
      <g id="Grupo_986643" data-name="Grupo 986643" transform="translate(217.703 15295.748)">
        <g id="Grupo_986635" data-name="Grupo 986635" transform="translate(0 62.38)">
          <path id="Trazado_659536" data-name="Trazado 659536" d="M345.116,3993.988v-4.866H317.134v-16.461l2.331,2.636,0,0,2.234,2.524a7.768,7.768,0,0,0,10.934.67,7.665,7.665,0,0,0,1.847-2.453,7.775,7.775,0,0,0-1.181-8.481l0,0v0l-2.232-2.522h0l-.228-.257-13.7-15.487v-90.47H146.657v130.3H118.675v4.866h.967v4.861h-.967V4015.6H345.116v-16.752h-.967v-4.861Zm-197.91,16.753v-11.893h-.969v-4.861H218.6v4.861h-.967v11.893Zm170.347-11.893h-.965v11.893H246.16v-11.893h-.967v-4.861h72.361Z" transform="translate(-114.596 -3854.019)" fill="gray" fill-rule="evenodd" opacity="0.5" style="mix-blend-mode: multiply;isolation: isolate"/>
          <g id="Grupo_986634" data-name="Grupo 986634">
            <g id="Grupo_986628" data-name="Grupo 986628" transform="translate(27.982)">
              <rect id="Rectángulo_310924" data-name="Rectángulo 310924" width="133.507" height="130.455" fill="#b75f22"/>
              <rect id="Rectángulo_310925" data-name="Rectángulo 310925" width="132.331" height="130.455" transform="translate(38.145)" fill="#cd8555"/>
              <rect id="Rectángulo_310926" data-name="Rectángulo 310926" width="35.507" height="33.567" transform="translate(86.557)" fill="#f9dbba"/>
              <rect id="Rectángulo_310927" data-name="Rectángulo 310927" width="35.507" height="33.568" transform="translate(86.557 96.888)" fill="#f9dbba"/>
              <g id="Grupo_986627" data-name="Grupo 986627" transform="translate(44.487 103.706)">
                <rect id="Rectángulo_310928" data-name="Rectángulo 310928" width="34.33" height="20.741" fill="#dddfe8"/>
                <g id="Grupo_986626" data-name="Grupo 986626" transform="translate(1.569 2.909)">
                  <rect id="Rectángulo_310929" data-name="Rectángulo 310929" width="3.643" height="14.924" fill="#16131b"/>
                  <rect id="Rectángulo_310930" data-name="Rectángulo 310930" width="1.278" height="14.924" transform="translate(5.855)" fill="#16131b"/>
                  <rect id="Rectángulo_310931" data-name="Rectángulo 310931" width="2.987" height="14.924" transform="translate(12.367)" fill="#16131b"/>
                  <rect id="Rectángulo_310932" data-name="Rectángulo 310932" width="1.822" height="14.924" transform="translate(8.602)" fill="#16131b"/>
                  <rect id="Rectángulo_310933" data-name="Rectángulo 310933" width="1.234" height="14.924" transform="translate(17.589)" fill="#16131b"/>
                  <rect id="Rectángulo_310934" data-name="Rectángulo 310934" width="2.469" height="14.924" transform="translate(23.422)" fill="#16131b"/>
                  <rect id="Rectángulo_310935" data-name="Rectángulo 310935" width="1.226" height="14.924" transform="translate(26.738)" fill="#16131b"/>
                  <rect id="Rectángulo_310936" data-name="Rectángulo 310936" width="1.692" height="14.924" transform="translate(20.624)" fill="#16131b"/>
                  <rect id="Rectángulo_310937" data-name="Rectángulo 310937" width="1.822" height="14.924" transform="translate(29.278)" fill="#16131b"/>
                </g>
              </g>
            </g>
            <g id="Grupo_986632" data-name="Grupo 986632" transform="translate(0 130.305)">
              <rect id="Rectángulo_310938" data-name="Rectángulo 310938" width="226.44" height="4.865" fill="#16131b"/>
              <g id="Grupo_986629" data-name="Grupo 986629" transform="translate(0 4.865)">
                <rect id="Rectángulo_310939" data-name="Rectángulo 310939" width="26.595" height="4.861" transform="translate(0.966)" fill="#16131b"/>
                <rect id="Rectángulo_310940" data-name="Rectángulo 310940" width="28.53" height="11.891" transform="translate(0 4.861)" fill="#324981"/>
              </g>
              <rect id="Rectángulo_310941" data-name="Rectángulo 310941" width="226.44" height="4.861" transform="translate(0 21.617)" fill="#16131b"/>
              <g id="Grupo_986630" data-name="Grupo 986630" transform="translate(197.912 4.865)">
                <rect id="Rectángulo_310942" data-name="Rectángulo 310942" width="26.595" height="4.861" transform="translate(0.966)" fill="#16131b"/>
                <rect id="Rectángulo_310943" data-name="Rectángulo 310943" width="28.528" height="11.891" transform="translate(0 4.861)" fill="#324981"/>
              </g>
              <g id="Grupo_986631" data-name="Grupo 986631" transform="translate(98.956 4.865)">
                <rect id="Rectángulo_310944" data-name="Rectángulo 310944" width="26.595" height="4.861" transform="translate(0.966)" fill="#16131b"/>
                <rect id="Rectángulo_310945" data-name="Rectángulo 310945" width="28.527" height="11.891" transform="translate(0 4.861)" fill="#324981"/>
              </g>
            </g>
            <g id="Grupo_986633" data-name="Grupo 986633" transform="translate(126.23 24.097)">
              <path id="Trazado_659537" data-name="Trazado 659537" d="M196.123,3878.081a21.251,21.251,0,1,0,29.994,1.829A21.25,21.25,0,0,0,196.123,3878.081Z" transform="translate(-182.837 -3866.626)" fill="#ebb998" fill-rule="evenodd"/>
              <path id="Trazado_659538" data-name="Trazado 659538" d="M239.788,3891.3a27.365,27.365,0,1,1-32.277-21.353,27.368,27.368,0,0,1,32.277,21.353Zm-6.9,1.4a20.328,20.328,0,1,0-15.862,23.974A20.345,20.345,0,0,0,232.889,3892.7Z" transform="translate(-185.603 -3869.392)" fill="#16131b" fill-rule="evenodd"/>
              <rect id="Rectángulo_310946" data-name="Rectángulo 310946" width="6.7" height="14.183" transform="matrix(0.749, -0.663, 0.663, 0.749, 39.618, 46.263)" fill="#16131b"/>
              <path id="Trazado_659539" data-name="Trazado 659539" d="M213.487,3898.5h0a7.766,7.766,0,0,0-.67,10.93l28.723,32.455a7.768,7.768,0,0,0,10.932.67h0a7.768,7.768,0,0,0,.664-10.935l-28.716-32.454A7.769,7.769,0,0,0,213.487,3898.5Z" transform="translate(-164.745 -3846.976)" fill="#75cf3f" fill-rule="evenodd"/>
              <path id="Trazado_659540" data-name="Trazado 659540" d="M213.487,3898.495h0a7.766,7.766,0,0,0-.67,10.93l11.6-10.264a7.772,7.772,0,0,0-10.934-.666Zm1.564,13.456,11.6-10.264,24.252,27.406-11.6,10.265-24.254-27.406Zm26.489,29.929a7.768,7.768,0,0,0,10.932.67h0a7.771,7.771,0,0,0,.668-10.935Z" transform="translate(-164.745 -3846.975)" fill="#16131b" fill-rule="evenodd"/>
              <path id="Trazado_659541" data-name="Trazado 659541" d="M215.223,3884.841a2.327,2.327,0,1,0,3.738-2.772,17.942,17.942,0,0,0-1.621-1.9,16.737,16.737,0,0,0-10.259-4.968,15.456,15.456,0,0,0-10.781,2.917,16.269,16.269,0,0,0-1.661,1.424,2.324,2.324,0,0,0,3.254,3.318,10.915,10.915,0,0,1,8.726-3.047,12.093,12.093,0,0,1,7.4,3.61A13.732,13.732,0,0,1,215.223,3884.841Z" transform="translate(-178.721 -3864.662)" fill="#fff" fill-rule="evenodd"/>
            </g>
          </g>
        </g>
        <g id="Grupo_986642" data-name="Grupo 986642" transform="translate(1.105)">
          <path id="Trazado_659542" data-name="Trazado 659542" d="M201.872,3838.208h-16.72v-3.8c0-2.309-3.373-4.181-7.532-4.181h-5.711c-1.137-3.22-4.935-5.591-9.459-5.591s-8.321,2.371-9.459,5.591H147.28c-4.159,0-7.53,1.873-7.53,4.181v3.8H123.03a3.747,3.747,0,0,0-3.749,3.749v104.271a3.747,3.747,0,0,0,3.749,3.749h78.842a3.748,3.748,0,0,0,3.749-3.749V3841.957A3.748,3.748,0,0,0,201.872,3838.208Zm-39.422-9.995a3.419,3.419,0,1,1-3.418,3.42A3.42,3.42,0,0,1,162.45,3828.213Z" transform="translate(-115.201 -3819.84)" fill="gray" opacity="0.5" style="mix-blend-mode: multiply;isolation: isolate"/>
          <g id="Grupo_986641" data-name="Grupo 986641">
            <path id="Trazado_659543" data-name="Trazado 659543" d="M166.133,3827.6h-5.711c-1.139-3.22-4.937-5.589-9.459-5.589s-8.322,2.369-9.459,5.589h-5.711c-4.159,0-7.532,1.873-7.532,4.183v3.8h16.661a12.108,12.108,0,0,0,12.082,0h16.659v-3.8C173.663,3829.47,170.292,3827.6,166.133,3827.6Zm-15.17,4.824a3.418,3.418,0,1,1,3.418-3.418A3.417,3.417,0,0,1,150.962,3832.421Z" transform="translate(-107.792 -3822.008)" fill="#ff2226"/>
            <rect id="Rectángulo_310947" data-name="Rectángulo 310947" width="86.34" height="111.77" rx="2.054" transform="translate(0 13.567)" fill="#16131b"/>
            <rect id="Rectángulo_310948" data-name="Rectángulo 310948" width="76.333" height="97.724" transform="translate(5.003 21.229)" fill="#fbfafb"/>
            <rect id="Rectángulo_310949" data-name="Rectángulo 310949" width="48.396" height="7.8" transform="translate(10.793 31.697)" fill="#8d9bbc"/>
            <rect id="Rectángulo_310950" data-name="Rectángulo 310950" width="48.396" height="7.8" transform="translate(10.793 48.505)" fill="#8d9bbc"/>
            <rect id="Rectángulo_310951" data-name="Rectángulo 310951" width="48.396" height="7.8" transform="translate(10.793 65.313)" fill="#8d9bbc"/>
            <rect id="Rectángulo_310952" data-name="Rectángulo 310952" width="48.396" height="7.8" transform="translate(10.793 82.12)" fill="#8d9bbc"/>
            <rect id="Rectángulo_310953" data-name="Rectángulo 310953" width="48.396" height="7.8" transform="translate(10.793 98.928)" fill="#8d9bbc"/>
            <g id="Grupo_986636" data-name="Grupo 986636" transform="translate(63.348 33.27)">
              <path id="Trazado_659544" data-name="Trazado 659544" d="M161.147,3849.628h-9.392v-9.39h9.392Zm-7.782-1.61h6.172v-6.17h-6.172Z" transform="translate(-151.755 -3840.238)" fill="#8d9bbc"/>
            </g>
            <g id="Grupo_986637" data-name="Grupo 986637" transform="translate(63.348 49.212)">
              <path id="Trazado_659545" data-name="Trazado 659545" d="M161.147,3858.363h-9.392v-9.39h9.392Zm-7.782-1.609h6.172v-6.171h-6.172Z" transform="translate(-151.755 -3848.973)" fill="#8d9bbc"/>
            </g>
            <g id="Grupo_986638" data-name="Grupo 986638" transform="translate(63.348 65.154)">
              <path id="Trazado_659546" data-name="Trazado 659546" d="M161.147,3867.1h-9.392v-9.39h9.392Zm-7.782-1.61h6.172v-6.17h-6.172Z" transform="translate(-151.755 -3857.709)" fill="#8d9bbc"/>
            </g>
            <g id="Grupo_986639" data-name="Grupo 986639" transform="translate(63.348 81.407)">
              <path id="Trazado_659547" data-name="Trazado 659547" d="M161.147,3876h-9.392v-9.39h9.392Zm-7.782-1.61h6.172v-6.17h-6.172Z" transform="translate(-151.755 -3866.613)" fill="#8d9bbc"/>
            </g>
            <g id="Grupo_986640" data-name="Grupo 986640" transform="translate(63.348 97.504)">
              <path id="Trazado_659548" data-name="Trazado 659548" d="M161.147,3884.821h-9.392v-9.388h9.392Zm-7.782-1.607h6.172v-6.171h-6.172Z" transform="translate(-151.755 -3875.433)" fill="#8d9bbc"/>
            </g>
            <path id="Trazado_659549" data-name="Trazado 659549" d="M151.531,3844.888l5.483,4.628,11.419-10.715-3.068-2.817-8.451,9-3.32-2.616Z" transform="translate(-88.591 -3810.478)" fill="#75cf3f"/>
            <path id="Trazado_659550" data-name="Trazado 659550" d="M151.531,3854.169l5.483,4.628,11.419-10.715-3.068-2.817-8.451,9-3.32-2.616Z" transform="translate(-88.591 -3802.82)" fill="#75cf3f"/>
            <path id="Trazado_659551" data-name="Trazado 659551" d="M151.531,3863.452l5.483,4.627,11.419-10.714-3.068-2.817-8.451,9-3.32-2.615Z" transform="translate(-88.591 -3795.161)" fill="#75cf3f"/>
            <path id="Trazado_659552" data-name="Trazado 659552" d="M119.787,3833.641v97.724H196.12Z" transform="translate(-114.784 -3812.412)" fill="#d1cdd1" opacity="0.55" style="mix-blend-mode: multiply;isolation: isolate"/>
          </g>
        </g>
      </g>
    </g>
  </g>
</svg>
