<svg xmlns="http://www.w3.org/2000/svg" width="295" height="400" viewBox="0 0 295 400">
  <g id="Grupo_1009735" data-name="Grupo 1009735" transform="translate(-1125 -14826)">
    <rect id="Rectángulo_311773" data-name="Rectángulo 311773" width="295" height="400" rx="20" transform="translate(1125 14826)" fill="#f0bd51"/>
    <g id="Grupo_1009641" data-name="Grupo 1009641" transform="translate(22 -840.084)">
      <g id="Grupo_986535" data-name="Grupo 986535" transform="translate(1135.5 15746.084)">
        <path id="Trazado_659341" data-name="Trazado 659341" d="M380.168,3706.7a119.781,119.781,0,1,1,119.781-119.781A119.917,119.917,0,0,1,380.168,3706.7Zm0-228.762a108.982,108.982,0,1,0,108.98,108.981A109.1,109.1,0,0,0,380.168,3477.943Z" transform="translate(-260.387 -3467.143)" fill="#ef8b53"/>
      </g>
      <g id="Grupo_986618" data-name="Grupo 986618" transform="translate(1125 15763.313)">
        <g id="Grupo_986607" data-name="Grupo 986607">
          <path id="Trazado_659475" data-name="Trazado 659475" d="M412.466,3466.24H304.578l-64.323,32.268h0l-.015.007V3557h242.3v-57.957Z" transform="translate(-236.968 -3462.392)" fill="gray" opacity="0.5" style="mix-blend-mode: multiply;isolation: isolate"/>
          <g id="Grupo_986606" data-name="Grupo 986606">
            <g id="Grupo_986602" data-name="Grupo 986602">
              <path id="Trazado_659476" data-name="Trazado 659476" d="M446.152,3553.983H311.711V3490.05l64.366-25.6,70.075,32Z" transform="translate(-203.85 -3463.219)" fill="#85da53"/>
              <path id="Trazado_659477" data-name="Trazado 659477" d="M302.343,3463.61,238,3500.5v53.875H398.859l11.372-90.763Z" transform="translate(-238.004 -3463.61)" fill="#85da53"/>
              <path id="Trazado_659478" data-name="Trazado 659478" d="M308.03,3463.61h-5.687L238,3500.5v53.875H340.153l0-61.68Z" transform="translate(-238.004 -3463.61)" fill="#61b131"/>
              <path id="Trazado_659479" data-name="Trazado 659479" d="M448.114,3484.039c-6.183-2.192-12.288-4.546-18.406-6.958-3.1-1.223-6.269-2.237-9.329-3.6-2.71-1.208-5.311-2.693-7.962-4.049-.828-.423-1.66-.844-2.5-1.224l-.142-.064-.212-.083c-.354-.142-.71-.284-1.068-.41a24.185,24.185,0,0,0-4.144-1.108c-.2-.031-1.48-.175-.874-.125-.272-.025-.544-.048-.815-.064-.742-.043-1.482-.072-2.224-.075-1.513,0-3.023.048-4.532.143-3.04.191-6.074.523-9.117.606-3.519.095-7.048.022-10.567.022H354.334c-3.581,0-7.165.037-10.746,0-2.975-.033-5.966-.253-8.937-.005-.653.053-1.305.122-1.955.225-.174.037-.458.095-.555.12-.334.087-.667.173-1,.279a17.745,17.745,0,0,0-1.989.752c-.132.06-.942.491-.575.276-.241.138-.48.276-.716.429-2.813,1.827-5.491,3.9-8.349,5.656a115.715,115.715,0,0,1-18.374,9.11,92.741,92.741,0,0,1-9.742,3.176l-53.4,12.2v10.624H340.155l70.075-24.8,70.077,20.121v-9.61l-21.655-7.925C455.141,3486.453,451.615,3485.281,448.114,3484.039Z" transform="translate(-238.004 -3462.373)" fill="#a9b1be" opacity="0.55" style="mix-blend-mode: multiply;isolation: isolate"/>
              <path id="Trazado_659480" data-name="Trazado 659480" d="M361.283,3490.466c4.217-1.341,8.477-2.514,12.668-3.964q3.765-1.3,7.5-2.7c2.485-.928,5.076-1.721,7.5-2.843.638-.3,1.272-.6,1.9-.925.117-.06.42-.223.536-.283l.29-.156c1.062-.581,2.119-1.177,3.183-1.752,1.411-.763,2.824-1.532,4.27-2.2.369-.171.739-.336,1.1-.521.07-.035.139-.072.208-.107l.035-.019c2.744-1.5,5.688-3.363,8.758-3.961l1-7.418H302.343L238,3495.885v5.951H340.473A68.261,68.261,0,0,1,361.283,3490.466Z" transform="translate(-238.004 -3463.61)" fill="#16131b"/>
              <path id="Trazado_659481" data-name="Trazado 659481" d="M238.02,3485.66l-.016.007v5.951H340.473a74.592,74.592,0,0,1,8.785-5.959Z" transform="translate(-238.004 -3453.393)" fill="#16131b"/>
              <rect id="Rectángulo_310845" data-name="Rectángulo 310845" width="140.154" height="23.045" transform="translate(102.149 67.719)" fill="#fff"/>
              <rect id="Rectángulo_310846" data-name="Rectángulo 310846" width="140.154" height="5.302" transform="translate(102.149 67.719)" fill="#a9b1be" opacity="0.55" style="mix-blend-mode: multiply;isolation: isolate"/>
              <rect id="Rectángulo_310847" data-name="Rectángulo 310847" width="140.154" height="2.558" transform="translate(102.149 67.719)" fill="#16131b"/>
              <path id="Trazado_659482" data-name="Trazado 659482" d="M377.885,3463.61l-70.075,32.806v5.419l70.075-27.361,70.075,27.361v-5.419Z" transform="translate(-205.658 -3463.61)" fill="#302f37"/>
              <rect id="Rectángulo_310848" data-name="Rectángulo 310848" width="33.075" height="46.01" transform="translate(125.515 44.753)" fill="#cdd2db"/>
              <rect id="Rectángulo_310849" data-name="Rectángulo 310849" width="29.54" height="43.795" transform="translate(127.282 46.969)" fill="#16131b"/>
              <rect id="Rectángulo_310850" data-name="Rectángulo 310850" width="26.582" height="41.805" transform="translate(128.761 48.958)" fill="#57555c"/>
              <rect id="Rectángulo_310851" data-name="Rectángulo 310851" width="33.075" height="46.01" transform="translate(185.864 44.753)" fill="#cdd2db"/>
              <rect id="Rectángulo_310852" data-name="Rectángulo 310852" width="29.541" height="43.795" transform="translate(187.631 46.969)" fill="#16131b"/>
              <rect id="Rectángulo_310853" data-name="Rectángulo 310853" width="26.582" height="41.805" transform="translate(189.11 48.958)" fill="#57555c"/>
              <g id="Grupo_986600" data-name="Grupo 986600" transform="translate(130.435 52.07)">
                <rect id="Rectángulo_310854" data-name="Rectángulo 310854" width="23.234" height="2.499" transform="translate(0 4.709)" fill="#16131b"/>
                <rect id="Rectángulo_310855" data-name="Rectángulo 310855" width="23.234" height="2.499" transform="translate(0 9.552)" fill="#16131b"/>
                <rect id="Rectángulo_310856" data-name="Rectángulo 310856" width="23.234" height="2.499" transform="translate(0 14.394)" fill="#16131b"/>
                <rect id="Rectángulo_310857" data-name="Rectángulo 310857" width="23.234" height="2.499" transform="translate(0 19.236)" fill="#16131b"/>
                <rect id="Rectángulo_310858" data-name="Rectángulo 310858" width="23.234" height="2.499" transform="translate(0 24.079)" fill="#16131b"/>
                <rect id="Rectángulo_310859" data-name="Rectángulo 310859" width="23.234" height="2.499" transform="translate(0 28.921)" fill="#16131b"/>
                <rect id="Rectángulo_310860" data-name="Rectángulo 310860" width="23.234" height="2.499" transform="translate(0 33.764)" fill="#16131b"/>
                <rect id="Rectángulo_310861" data-name="Rectángulo 310861" width="23.234" height="2.499" fill="#16131b"/>
              </g>
              <g id="Grupo_986601" data-name="Grupo 986601" transform="translate(190.784 52.07)">
                <rect id="Rectángulo_310862" data-name="Rectángulo 310862" width="23.235" height="2.499" transform="translate(0 4.709)" fill="#16131b"/>
                <rect id="Rectángulo_310863" data-name="Rectángulo 310863" width="23.235" height="2.499" fill="#16131b"/>
                <rect id="Rectángulo_310864" data-name="Rectángulo 310864" width="23.235" height="2.499" transform="translate(0 9.552)" fill="#16131b"/>
                <rect id="Rectángulo_310865" data-name="Rectángulo 310865" width="23.235" height="2.499" transform="translate(0 14.394)" fill="#16131b"/>
                <rect id="Rectángulo_310866" data-name="Rectángulo 310866" width="23.235" height="2.499" transform="translate(0 19.236)" fill="#16131b"/>
                <rect id="Rectángulo_310867" data-name="Rectángulo 310867" width="23.235" height="2.499" transform="translate(0 24.079)" fill="#16131b"/>
                <rect id="Rectángulo_310868" data-name="Rectángulo 310868" width="23.235" height="2.499" transform="translate(0 28.921)" fill="#16131b"/>
                <rect id="Rectángulo_310869" data-name="Rectángulo 310869" width="23.235" height="2.499" transform="translate(0 33.764)" fill="#16131b"/>
              </g>
              <path id="Trazado_659483" data-name="Trazado 659483" d="M361.232,3487.562a4.205,4.205,0,1,1-4.206-4.206A4.2,4.2,0,0,1,361.232,3487.562Z" transform="translate(-184.8 -3454.46)" fill="#16131b"/>
              <path id="Trazado_659484" data-name="Trazado 659484" d="M359.436,3487.13a2.841,2.841,0,1,1-2.842-2.842A2.84,2.84,0,0,1,359.436,3487.13Z" transform="translate(-184.368 -3454.028)" fill="#ffa910"/>
            </g>
            <g id="Grupo_986603" data-name="Grupo 986603" transform="translate(103.336 74.791)">
              <rect id="Rectángulo_310870" data-name="Rectángulo 310870" width="1.527" height="14.611" fill="#a7adbc"/>
              <rect id="Rectángulo_310871" data-name="Rectángulo 310871" width="1.527" height="14.611" transform="translate(3.233)" fill="#a7adbc"/>
              <rect id="Rectángulo_310872" data-name="Rectángulo 310872" width="1.527" height="14.611" transform="translate(6.467)" fill="#a7adbc"/>
              <rect id="Rectángulo_310873" data-name="Rectángulo 310873" width="1.527" height="14.611" transform="translate(9.701)" fill="#a7adbc"/>
              <rect id="Rectángulo_310874" data-name="Rectángulo 310874" width="1.527" height="14.611" transform="translate(12.934)" fill="#a7adbc"/>
              <rect id="Rectángulo_310875" data-name="Rectángulo 310875" width="1.527" height="14.611" transform="translate(16.168)" fill="#a7adbc"/>
              <rect id="Rectángulo_310876" data-name="Rectángulo 310876" width="1.527" height="14.611" transform="translate(19.401)" fill="#a7adbc"/>
            </g>
            <g id="Grupo_986604" data-name="Grupo 986604" transform="translate(220.278 74.791)">
              <rect id="Rectángulo_310877" data-name="Rectángulo 310877" width="1.527" height="14.611" fill="#a7adbc"/>
              <rect id="Rectángulo_310878" data-name="Rectángulo 310878" width="1.527" height="14.611" transform="translate(3.234)" fill="#a7adbc"/>
              <rect id="Rectángulo_310879" data-name="Rectángulo 310879" width="1.527" height="14.611" transform="translate(6.467)" fill="#a7adbc"/>
              <rect id="Rectángulo_310880" data-name="Rectángulo 310880" width="1.527" height="14.611" transform="translate(9.701)" fill="#a7adbc"/>
              <rect id="Rectángulo_310881" data-name="Rectángulo 310881" width="1.527" height="14.611" transform="translate(12.934)" fill="#a7adbc"/>
              <rect id="Rectángulo_310882" data-name="Rectángulo 310882" width="1.527" height="14.611" transform="translate(16.168)" fill="#a7adbc"/>
              <rect id="Rectángulo_310883" data-name="Rectángulo 310883" width="1.527" height="14.611" transform="translate(19.402)" fill="#a7adbc"/>
            </g>
            <g id="Grupo_986605" data-name="Grupo 986605" transform="translate(160.18 74.791)">
              <rect id="Rectángulo_310884" data-name="Rectángulo 310884" width="1.527" height="14.611" fill="#a7adbc"/>
              <rect id="Rectángulo_310885" data-name="Rectángulo 310885" width="1.527" height="14.611" transform="translate(3.234)" fill="#a7adbc"/>
              <rect id="Rectángulo_310886" data-name="Rectángulo 310886" width="1.527" height="14.611" transform="translate(6.467)" fill="#a7adbc"/>
              <rect id="Rectángulo_310887" data-name="Rectángulo 310887" width="1.527" height="14.611" transform="translate(9.701)" fill="#a7adbc"/>
              <rect id="Rectángulo_310888" data-name="Rectángulo 310888" width="1.527" height="14.611" transform="translate(12.934)" fill="#a7adbc"/>
              <rect id="Rectángulo_310889" data-name="Rectángulo 310889" width="1.527" height="14.611" transform="translate(16.168)" fill="#a7adbc"/>
              <rect id="Rectángulo_310890" data-name="Rectángulo 310890" width="1.527" height="14.611" transform="translate(19.402)" fill="#a7adbc"/>
              <rect id="Rectángulo_310891" data-name="Rectángulo 310891" width="1.527" height="14.611" transform="translate(22.608)" fill="#a7adbc"/>
            </g>
          </g>
        </g>
        <g id="Grupo_986617" data-name="Grupo 986617" transform="translate(24.663 104.655)">
          <path id="Trazado_659485" data-name="Trazado 659485" d="M464.319,3586.389v-6.557l2.321-1.813v-6.291l-2.321,1.813v-9.616l-23.474-20.395H409.551v10.308h-4.879v-16.081H257.093v69.571h13.055c.009.682.018,2.931.026,3.134h2.031c0-.215.013-2.387.023-3.134h.082c-.032.359-.056.722-.056,1.09a12.471,12.471,0,0,0,.08,1.37c0,.026.009.052.012.079a12.406,12.406,0,0,0,24.727-1.449c0-.367-.023-.73-.056-1.09h.094c0,.1.007,2.177.01,3.134h2.053c0-.956.007-3.026.012-3.134h5.436c.007.682.018,2.931.026,3.134h2.031c0-.215.012-2.387.023-3.134h.082c-.032.359-.056.722-.056,1.09a12.838,12.838,0,0,0,.079,1.369c0,.029.01.059.013.088a12.406,12.406,0,0,0,24.727-1.456c0-.367-.023-.73-.056-1.09h.094c0,.1.007,2.177.01,3.134h2.053c0-.956.007-3.026.012-3.134h6.19v-11.887h9.494v11.887h19.289c.009.682.018,2.931.028,3.134h2.031c0-.215.012-2.387.022-3.134h.082c-.031.359-.054.722-.054,1.09a12.474,12.474,0,0,0,.079,1.37c0,.026.009.054.012.08a12.406,12.406,0,0,0,24.727-1.45c0-.367-.023-.73-.054-1.09h.092c0,.1.007,2.177.01,3.134h2.053c0-.956.009-3.026.012-3.134H423.94c.007.682.018,2.931.026,3.134H426c0-.215.012-2.387.023-3.134h.082c-.032.359-.056.722-.056,1.09a12.463,12.463,0,0,0,.08,1.37c0,.026.009.052.012.079a12.406,12.406,0,0,0,24.727-1.449c0-.367-.023-.73-.056-1.09h.094c0,.1.007,2.177.01,3.134h2.053c0-.956.007-3.026.012-3.134h13.168v-11.887h-1.828v-9.051Z" transform="translate(-253.822 -3533.908)" fill="gray" opacity="0.5" style="mix-blend-mode: multiply;isolation: isolate"/>
          <g id="Grupo_986616" data-name="Grupo 986616">
            <rect id="Rectángulo_310892" data-name="Rectángulo 310892" width="82.76" height="11.887" transform="translate(0 57.684)" fill="#16131b"/>
            <rect id="Rectángulo_310893" data-name="Rectángulo 310893" width="116.801" height="11.887" transform="translate(92.254 57.684)" fill="#16131b"/>
            <rect id="Rectángulo_310894" data-name="Rectángulo 310894" width="11.16" height="41.602" transform="translate(145.269 16.081)" fill="#16131b"/>
            <path id="Trazado_659486" data-name="Trazado 659486" d="M411.287,3566v.942h-1.877l-7.03,11.692V3558.24H254.858v25.918h82.76v-7.732h9.493v7.732h51.945l-.023.038H460l2.085-2.1V3566Z" transform="translate(-254.858 -3524.415)" fill="#838da0" style="mix-blend-mode: multiply;isolation: isolate"/>
            <path id="Trazado_659487" data-name="Trazado 659487" d="M359.039,3539.071v51.912h54.769v-31.516l-23.474-20.4Z" transform="translate(-206.582 -3533.298)" fill="#fff"/>
            <rect id="Rectángulo_310895" data-name="Rectángulo 310895" width="54.769" height="26.221" transform="translate(152.457 31.463)" fill="#a9b1be" opacity="0.32" style="mix-blend-mode: multiply;isolation: isolate"/>
            <path id="Trazado_659488" data-name="Trazado 659488" d="M366.323,3543.468v15.373h30.786l-13.854-15.373Z" transform="translate(-203.207 -3531.261)" fill="#16131b"/>
            <path id="Trazado_659489" data-name="Trazado 659489" d="M371.629,3560.443h-1.907c-.536,0-.972-.309-.972-.692v-.013c0-.382.436-.692.972-.692h1.907c.536,0,.97.31.97.692v.013C372.6,3560.134,372.165,3560.443,371.629,3560.443Z" transform="translate(-202.082 -3524.043)" fill="#16131b"/>
            <path id="Trazado_659490" data-name="Trazado 659490" d="M400.31,3564.632l-7.131,5.571v-6.292l7.131-5.571Z" transform="translate(-190.763 -3524.369)" fill="#ffa910"/>
            <rect id="Rectángulo_310896" data-name="Rectángulo 310896" width="4.81" height="4.762" transform="translate(202.416 48.632)" fill="#ff2226"/>
            <rect id="Rectángulo_310897" data-name="Rectángulo 310897" width="147.578" height="57.684" fill="#ffa910"/>
            <rect id="Rectángulo_310898" data-name="Rectángulo 310898" width="134.745" height="4.3" transform="translate(6.416 5.772)" fill="#fff"/>
            <rect id="Rectángulo_310899" data-name="Rectángulo 310899" width="147.578" height="26.221" transform="translate(0 31.463)" fill="#f67807"/>
            <rect id="Rectángulo_310900" data-name="Rectángulo 310900" width="7.504" height="7.971" transform="translate(0 47.497)" fill="#fff"/>
            <rect id="Rectángulo_310901" data-name="Rectángulo 310901" width="7.504" height="7.701" transform="translate(0 57.684)" fill="#ff2226"/>
            <rect id="Rectángulo_310902" data-name="Rectángulo 310902" width="7.504" height="4.04" transform="translate(0 51.427)" fill="#dddfe8"/>
            <rect id="Rectángulo_310903" data-name="Rectángulo 310903" width="7.504" height="3.791" transform="translate(0 61.594)" fill="#d13722" opacity="0.55" style="mix-blend-mode: multiply;isolation: isolate"/>
            <g id="Grupo_986609" data-name="Grupo 986609" transform="translate(111.519 54.269)">
              <path id="Trazado_659491" data-name="Trazado 659491" d="M331.115,3590.646h2.031c.006-.252.015-3.221.029-3.389a12.146,12.146,0,0,1,12.43-10.69c6.629,0,12.121,5.5,12.447,10.938,0,.07.007,2.177.01,3.141h2.053c0-.964.009-3.073.012-3.143a14.542,14.542,0,1,0-29.064-.752c0,.192.009.38.021.569C331.093,3587.47,331.105,3590.412,331.115,3590.646Z" transform="translate(-331.064 -3572.211)" fill="#fff"/>
              <g id="Grupo_986608" data-name="Grupo 986608" transform="translate(2.132 3.982)">
                <path id="Trazado_659492" data-name="Trazado 659492" d="M357.34,3587.342a12.409,12.409,0,1,1-12.409-12.409A12.41,12.41,0,0,1,357.34,3587.342Z" transform="translate(-332.521 -3574.932)" fill="#16131b"/>
                <path id="Trazado_659493" data-name="Trazado 659493" d="M349.139,3580.309a7.95,7.95,0,1,1-11.242,0A7.949,7.949,0,0,1,349.139,3580.309Z" transform="translate(-331.109 -3573.52)" fill="#d0d5dd"/>
                <path id="Trazado_659494" data-name="Trazado 659494" d="M343.672,3582.393a2.61,2.61,0,1,1-3.691,0A2.612,2.612,0,0,1,343.672,3582.393Z" transform="translate(-329.418 -3571.828)" fill="#16131b"/>
              </g>
              <path id="Trazado_659495" data-name="Trazado 659495" d="M334.172,3590.061a10.841,10.841,0,0,1,21.643,0H357a12.246,12.246,0,0,0,.335-2.719,12.409,12.409,0,1,0-24.51,2.719Z" transform="translate(-330.389 -3570.95)" fill="#28272e" opacity="0.28" style="mix-blend-mode: multiply;isolation: isolate"/>
            </g>
            <g id="Grupo_986611" data-name="Grupo 986611" transform="translate(47.506 54.269)">
              <path id="Trazado_659496" data-name="Trazado 659496" d="M287.372,3590.646H289.4c0-.252.015-3.221.028-3.389a12.147,12.147,0,0,1,12.431-10.69c6.628,0,12.12,5.5,12.446,10.938,0,.07.007,2.177.01,3.141h2.053c0-.964.009-3.073.012-3.143a14.541,14.541,0,1,0-29.063-.752c0,.192.009.38.02.569C287.35,3587.47,287.362,3590.412,287.372,3590.646Z" transform="translate(-287.321 -3572.211)" fill="#fff"/>
              <g id="Grupo_986610" data-name="Grupo 986610" transform="translate(2.132 3.982)">
                <path id="Trazado_659497" data-name="Trazado 659497" d="M313.6,3587.342a12.409,12.409,0,1,1-12.409-12.409A12.41,12.41,0,0,1,313.6,3587.342Z" transform="translate(-288.778 -3574.932)" fill="#16131b"/>
                <path id="Trazado_659498" data-name="Trazado 659498" d="M305.4,3580.309a7.95,7.95,0,1,1-11.243,0A7.951,7.951,0,0,1,305.4,3580.309Z" transform="translate(-287.366 -3573.52)" fill="#d0d5dd"/>
                <circle id="Elipse_7743" data-name="Elipse 7743" cx="2.609" cy="2.609" r="2.609" transform="translate(9.799 9.8)" fill="#16131b"/>
              </g>
              <path id="Trazado_659499" data-name="Trazado 659499" d="M290.427,3590.061a10.842,10.842,0,0,1,21.645,0h1.19a12.4,12.4,0,1,0-24.175,0Z" transform="translate(-286.646 -3570.95)" fill="#28272e" opacity="0.28" style="mix-blend-mode: multiply;isolation: isolate"/>
            </g>
            <g id="Grupo_986613" data-name="Grupo 986613" transform="translate(13.03 54.269)">
              <path id="Trazado_659500" data-name="Trazado 659500" d="M263.813,3590.646h2.031c.006-.252.015-3.221.028-3.389a12.147,12.147,0,0,1,12.431-10.69c6.628,0,12.121,5.5,12.447,10.938,0,.07.007,2.177.009,3.141h2.053c0-.964.009-3.073.013-3.143a14.542,14.542,0,1,0-29.064-.752c0,.192.009.38.02.569C263.791,3587.47,263.8,3590.412,263.813,3590.646Z" transform="translate(-263.762 -3572.211)" fill="#fff"/>
              <g id="Grupo_986612" data-name="Grupo 986612" transform="translate(2.132 3.982)">
                <path id="Trazado_659501" data-name="Trazado 659501" d="M290.038,3587.342a12.409,12.409,0,1,1-12.409-12.409A12.41,12.41,0,0,1,290.038,3587.342Z" transform="translate(-265.219 -3574.932)" fill="#16131b"/>
                <path id="Trazado_659502" data-name="Trazado 659502" d="M281.837,3580.309a7.95,7.95,0,1,1-11.242,0A7.949,7.949,0,0,1,281.837,3580.309Z" transform="translate(-263.807 -3573.52)" fill="#d0d5dd"/>
                <circle id="Elipse_7744" data-name="Elipse 7744" cx="2.609" cy="2.609" r="2.609" transform="translate(9.8 9.8)" fill="#16131b"/>
              </g>
              <path id="Trazado_659503" data-name="Trazado 659503" d="M266.87,3590.061a10.841,10.841,0,0,1,21.643,0h1.19a12.4,12.4,0,1,0-24.175,0Z" transform="translate(-263.087 -3570.95)" fill="#28272e" opacity="0.28" style="mix-blend-mode: multiply;isolation: isolate"/>
            </g>
            <g id="Grupo_986615" data-name="Grupo 986615" transform="translate(166.823 54.269)">
              <path id="Trazado_659504" data-name="Trazado 659504" d="M368.907,3590.646h2.031c0-.252.015-3.221.028-3.389a12.147,12.147,0,0,1,12.431-10.69c6.628,0,12.12,5.5,12.446,10.938,0,.07.009,2.177.01,3.141h2.053c0-.964.009-3.073.013-3.143a14.542,14.542,0,1,0-29.064-.752c0,.192.009.38.021.569C368.885,3587.47,368.9,3590.412,368.907,3590.646Z" transform="translate(-368.856 -3572.211)" fill="#fff"/>
              <g id="Grupo_986614" data-name="Grupo 986614" transform="translate(2.132 3.982)">
                <path id="Trazado_659505" data-name="Trazado 659505" d="M395.13,3587.342a12.409,12.409,0,1,1-12.408-12.409A12.408,12.408,0,0,1,395.13,3587.342Z" transform="translate(-370.313 -3574.932)" fill="#16131b"/>
                <path id="Trazado_659506" data-name="Trazado 659506" d="M386.931,3580.309a7.95,7.95,0,1,1-11.243,0A7.951,7.951,0,0,1,386.931,3580.309Z" transform="translate(-368.901 -3573.52)" fill="#d0d5dd"/>
                <circle id="Elipse_7745" data-name="Elipse 7745" cx="2.61" cy="2.61" r="2.61" transform="translate(9.8 9.8)" fill="#16131b"/>
              </g>
              <path id="Trazado_659507" data-name="Trazado 659507" d="M371.964,3590.061a10.841,10.841,0,0,1,21.643,0h1.19a12.4,12.4,0,1,0-24.175,0Z" transform="translate(-368.181 -3570.95)" fill="#28272e" opacity="0.28" style="mix-blend-mode: multiply;isolation: isolate"/>
            </g>
          </g>
        </g>
      </g>
    </g>
  </g>
</svg>
