<svg xmlns="http://www.w3.org/2000/svg" width="135.354" height="134.664" viewBox="0 0 135.354 134.664">
  <g id="Grupo_986519" data-name="Grupo 986519" transform="translate(-985 -14249.234)">
    <path id="Trazado_626454" data-name="Trazado 626454" d="M0,0H135.354V134.664H0Z" transform="translate(985 14249.234)" fill="#f0bd51"/>
    <g id="cupon" transform="translate(1011.173 14274.408)">
      <path id="XMLID_2545_" d="M75.3,10,87.646,22.348a10.508,10.508,0,0,1,0,14.861L75.3,49.556h-61a4.3,4.3,0,0,1-4.3-4.3V14.3A4.3,4.3,0,0,1,14.3,10Z" transform="translate(-8.348 -8.348)" fill="#f5737f"/>
      <path id="XMLID_2483_" d="M108.394,64.006H131.8l4.563,4.563V91.977L93.231,135.11a4.3,4.3,0,0,1-6.078,0L65.261,113.217a4.3,4.3,0,0,1,0-6.078Z" transform="translate(-53.427 -53.431)" fill="#91def5"/>
      <circle id="XMLID_2590_" cx="3.577" cy="3.577" r="3.577" transform="translate(68.527 17.249)" fill="#f5737f"/>
      <circle id="XMLID_2480_" cx="3.305" cy="3.305" r="3.305" transform="translate(26.365 24.687)" fill="#fff"/>
      <circle id="XMLID_2476_" cx="3.305" cy="3.305" r="3.305" transform="translate(12.42 11.564)" fill="#fff"/>
      <path id="XMLID_1468_" d="M82.993,12.856l1.114-1.114A1.652,1.652,0,0,0,81.77,9.406l-1.114,1.114L79.543,9.406a1.652,1.652,0,0,0-1.168-.484H76.558L68.119.484A1.653,1.653,0,0,0,66.951,0h-61A5.957,5.957,0,0,0,0,5.95V36.911a5.957,5.957,0,0,0,5.95,5.95H20.344L10.665,52.54a5.95,5.95,0,0,0,0,8.415L32.558,82.847a5.95,5.95,0,0,0,8.415,0l16.4-16.4a1.652,1.652,0,0,0-2.336-2.337l-16.4,16.4a2.646,2.646,0,0,1-3.741,0L13,58.618a2.646,2.646,0,0,1,0-3.741L55.651,12.227H77.691l.629.629-3.82,3.82a4.959,4.959,0,1,0,2.336,2.337l3.82-3.82.629.629V37.861L65.546,53.6a1.652,1.652,0,0,0,2.337,2.337L84.106,39.714a1.653,1.653,0,0,0,.484-1.168V15.137a1.653,1.653,0,0,0-.484-1.168ZM29.67,29.645a1.653,1.653,0,1,1,1.653-1.653A1.654,1.654,0,0,1,29.67,29.645Zm25.3-20.722a1.652,1.652,0,0,0-1.168.484L34.585,28.619A4.967,4.967,0,1,0,30.3,32.908l-6.649,6.649H5.951a2.649,2.649,0,0,1-2.646-2.646V5.95A2.649,2.649,0,0,1,5.951,3.3H66.266l5.618,5.618ZM72.364,22.8a1.652,1.652,0,1,1,1-2.962,1.488,1.488,0,0,0,.308.308,1.649,1.649,0,0,1-1.31,2.655Z" transform="translate(0 0)"/>
      <path id="XMLID_1527_" d="M277.028,231.917a1.652,1.652,0,0,0,1.168-.484l3.738-3.738a1.652,1.652,0,0,0-2.336-2.337l-2.57,2.57-8.178-8.178a1.652,1.652,0,0,0-2.336,2.337l9.346,9.346A1.653,1.653,0,0,0,277.028,231.917Z" transform="translate(-222.078 -183.041)"/>
      <path id="XMLID_1528_" d="M332.378,158.386a1.653,1.653,0,0,0-2.337,0l-2.1,2.1-2.336-2.336,2.1-2.1a1.652,1.652,0,0,0-2.337-2.337l-2.1,2.1-2.336-2.336,2.1-2.1a1.652,1.652,0,1,0-2.336-2.337l-3.271,3.271a1.652,1.652,0,0,0,0,2.336l9.346,9.346a1.652,1.652,0,0,0,2.336,0l3.271-3.271A1.652,1.652,0,0,0,332.378,158.386Z" transform="translate(-264.578 -124.013)"/>
      <path id="XMLID_1531_" d="M232.647,275.367a1.652,1.652,0,1,0,1.5-2.944l-12.383-6.308a1.652,1.652,0,0,0-2.222,2.222l6.308,12.383a1.652,1.652,0,0,0,2.944-1.5l-.507-.995,3.365-3.365Zm-5.936-.237-1.917-3.763,3.764,1.917Z" transform="translate(-183.12 -221.999)"/>
      <path id="XMLID_1532_" d="M161.165,327.107a1.652,1.652,0,1,0,2.336,2.337l2.337-2.336a4.956,4.956,0,0,0-6.713-7.281,1.647,1.647,0,0,0-.174.149l-.122.122a1.652,1.652,0,1,1-2.336-2.337l2.336-2.336a1.652,1.652,0,0,0-2.336-2.337l-2.337,2.336a4.956,4.956,0,0,0,7.006,7.013l0,0a1.652,1.652,0,1,1,2.336,2.336Z" transform="translate(-127.477 -260.958)"/>
      <path id="XMLID_1533_" d="M105.042,63.477a1.652,1.652,0,0,0-2.251.626L92.135,82.98A1.652,1.652,0,1,0,95.012,84.6l10.656-18.876A1.652,1.652,0,0,0,105.042,63.477Z" transform="translate(-76.734 -52.812)"/>
      <path id="XMLID_1536_" d="M75.083,64.951a4.957,4.957,0,1,0-4.957,4.957A4.962,4.962,0,0,0,75.083,64.951Zm-6.61,0A1.653,1.653,0,1,1,70.126,66.6,1.654,1.654,0,0,1,68.473,64.951Z" transform="translate(-54.401 -50.082)"/>
      <path id="XMLID_1537_" d="M363.643,353.319a1.653,1.653,0,1,0,1.168.484A1.661,1.661,0,0,0,363.643,353.319Z" transform="translate(-302.185 -294.947)"/>
    </g>
  </g>
</svg>
