<svg xmlns="http://www.w3.org/2000/svg" width="135.354" height="134.664" viewBox="0 0 135.354 134.664">
  <g id="Grupo_986496" data-name="Grupo 986496" transform="translate(-985 -14249.234)">
    <path id="Trazado_626454" data-name="Trazado 626454" d="M0,0H135.354V134.664H0Z" transform="translate(985 14249.234)" fill="#f0bd51"/>
    <g id="objetivo_1_" data-name="objetivo(1)" transform="translate(1010.999 14274.734)">
      <path id="Trazado_658882" data-name="Trazado 658882" d="M147.708,246.688l10.967-10.852c4.1-4.1,11.974,1.072,7.718,6.079l-13.28,15.624a9.316,9.316,0,0,1-1.776,1.612,13.247,13.247,0,0,1-7.2,1.824H124.427a36.978,36.978,0,0,0-4.266.247l-5.668.637L102.738,250.45s6.669-12.594,19.751-8.974a28.171,28.171,0,0,0,7.517,1h12.952c6.1,0,6.145,9.688-.051,9.688H131.632" transform="translate(-86.04 -195.848)" fill="#ffcdac"/>
      <path id="Trazado_658883" data-name="Trazado 658883" d="M29.165,340.837l11.184-11.474a.008.008,0,0,0,0-.011L21.371,310.935a.009.009,0,0,0-.011,0L10.07,322.656Zm0,0" transform="translate(-8.433 -259.981)" fill="#6bd5e1"/>
      <path id="Trazado_658884" data-name="Trazado 658884" d="M60.084,100.317a6.986,6.986,0,0,0-6.319,6.954v7.438a2.326,2.326,0,0,0,2.326,2.326h15.95a2.326,2.326,0,0,0,2.326-2.326v-7.438a6.986,6.986,0,0,0-6.327-6.955" transform="translate(-45.027 -83.594)" fill="#ffb677"/>
      <path id="Trazado_658885" data-name="Trazado 658885" d="M84.735,18.638a7.8,7.8,0,1,1-7.8-7.805,7.8,7.8,0,0,1,7.8,7.805Zm0,0" transform="translate(-57.89 -8.653)" fill="#ffcdac"/>
      <path id="Trazado_658886" data-name="Trazado 658886" d="M186.85,100.317a6.987,6.987,0,0,0-6.319,6.954v7.438a2.327,2.327,0,0,0,2.327,2.326h15.95a2.326,2.326,0,0,0,2.326-2.326v-7.438a6.986,6.986,0,0,0-6.327-6.955" transform="translate(-151.19 -83.594)" fill="#ff8364"/>
      <path id="Trazado_658887" data-name="Trazado 658887" d="M211.5,18.638a7.805,7.805,0,1,1-7.8-7.805,7.8,7.8,0,0,1,7.8,7.805Zm0,0" transform="translate(-164.053 -8.653)" fill="#ffcdac"/>
      <path id="Trazado_658888" data-name="Trazado 658888" d="M313.62,100.317a6.986,6.986,0,0,0-6.319,6.954v7.438a2.327,2.327,0,0,0,2.326,2.326h15.95a2.327,2.327,0,0,0,2.327-2.326v-7.438a6.986,6.986,0,0,0-6.328-6.955" transform="translate(-257.357 -83.594)" fill="#ffd98e"/>
      <path id="Trazado_658889" data-name="Trazado 658889" d="M338.27,18.638a7.805,7.805,0,1,1-7.805-7.805,7.805,7.805,0,0,1,7.805,7.805Zm0,0" transform="translate(-270.22 -8.653)" fill="#ffcdac"/>
      <path id="Trazado_658890" data-name="Trazado 658890" d="M81.245,225.98a7.537,7.537,0,0,0-4.649-1.948,6.655,6.655,0,0,0-5.113,1.946l-9.252,9.155a6.141,6.141,0,0,0-.626-.893,6,6,0,0,0-4.686-2.1H43.967a26.565,26.565,0,0,1-7.081-.941,17.423,17.423,0,0,0-16.253,3.439,23.639,23.639,0,0,0-4.233,4.543l-2.322-2.254a1.651,1.651,0,0,0-1.145-.465h-.011a1.654,1.654,0,0,0-1.174.5L.459,248.692a1.638,1.638,0,0,0,.05,2.321L19.6,269.194a1.636,1.636,0,0,0,2.3-.043l11.184-11.474a1.646,1.646,0,0,0-.032-2.329l-.974-.945,2.229-.251a35.427,35.427,0,0,1,4.077-.236H58.094a14.794,14.794,0,0,0,8.084-2.082l.053-.036a10.91,10.91,0,0,0,2.088-1.9L81.6,234.281a5.718,5.718,0,0,0-.354-8.3ZM20.689,265.708,3.959,249.777l9.013-9.357L29.6,256.561ZM79.106,232.16l-13.28,15.624a7.651,7.651,0,0,1-1.437,1.31,11.641,11.641,0,0,1-6.294,1.55H38.388a38.657,38.657,0,0,0-4.448.258l-4.9.55L18.78,241.5a20.416,20.416,0,0,1,3.923-4.316,14.09,14.09,0,0,1,13.31-2.82,29.834,29.834,0,0,0,7.954,1.06H56.919a2.957,2.957,0,0,1,2.947,3.205A3.545,3.545,0,0,1,59.1,240.9a2.782,2.782,0,0,1-2.232.936H45.593a1.637,1.637,0,0,0,0,3.274H56.867a6.07,6.07,0,0,0,4.727-2.091,6.723,6.723,0,0,0,1.542-4.171L73.792,228.3a3.832,3.832,0,0,1,5.234.087c.688.635,1.614,1.969.079,3.774Zm0,0" transform="translate(0 -187.196)"/>
      <path id="Trazado_658891" data-name="Trazado 658891" d="M232.469,334.485a1.637,1.637,0,1,0-3.187.747l.015.067a1.638,1.638,0,0,0,1.592,1.263,1.654,1.654,0,0,0,.375-.043,1.637,1.637,0,0,0,1.22-1.967Zm0,0" transform="translate(-191.981 -278.647)"/>
      <path id="Trazado_658892" data-name="Trazado 658892" d="M47.654,35.036H63.6a3.939,3.939,0,0,0,2.326-.758,3.939,3.939,0,0,0,2.326.758H84.207a3.939,3.939,0,0,0,2.326-.758,3.939,3.939,0,0,0,2.326.758h15.95a3.968,3.968,0,0,0,3.963-3.963V23.634A8.583,8.583,0,0,0,104.1,15.96a9.442,9.442,0,1,0-14.539,0,8.574,8.574,0,0,0-3.031,2.6,8.558,8.558,0,0,0-3.032-2.6,9.442,9.442,0,1,0-14.539,0,8.558,8.558,0,0,0-3.032,2.6,8.566,8.566,0,0,0-3.032-2.6,9.442,9.442,0,1,0-14.539,0,8.584,8.584,0,0,0-4.669,7.674v7.437a3.968,3.968,0,0,0,3.963,3.963ZM96.835,3.774a6.168,6.168,0,1,1-6.168,6.168A6.175,6.175,0,0,1,96.835,3.774ZM92.582,18.368a9.408,9.408,0,0,0,8.5,0,5.319,5.319,0,0,1,4.412,5.266v7.438a.69.69,0,0,1-.689.689H88.859a.69.69,0,0,1-.689-.689V23.634A5.318,5.318,0,0,1,92.582,18.368ZM76.232,3.774a6.168,6.168,0,1,1-6.168,6.168A6.175,6.175,0,0,1,76.232,3.774ZM71.98,18.368a9.408,9.408,0,0,0,8.5,0A5.319,5.319,0,0,1,84.9,23.634v7.438a.69.69,0,0,1-.689.689H68.257a.69.69,0,0,1-.689-.689V23.634a5.32,5.32,0,0,1,4.412-5.266ZM55.629,3.774a6.168,6.168,0,1,1-6.168,6.168A6.175,6.175,0,0,1,55.629,3.774ZM46.965,23.634a5.32,5.32,0,0,1,4.412-5.266,9.408,9.408,0,0,0,8.5,0,5.319,5.319,0,0,1,4.412,5.266v7.438a.69.69,0,0,1-.689.689H47.654a.69.69,0,0,1-.689-.689Zm0,0" transform="translate(-36.589)"/>
    </g>
  </g>
</svg>
