<svg xmlns="http://www.w3.org/2000/svg" width="295" height="400" viewBox="0 0 295 400">
  <g id="Grupo_1009733" data-name="Grupo 1009733" transform="translate(-495 -14826)">
    <rect id="Rectángulo_311771" data-name="Rectángulo 311771" width="295" height="400" rx="20" transform="translate(495 14826)" fill="#f0bd51"/>
    <g id="Grupo_1009639" data-name="Grupo 1009639" transform="translate(230 -1512.682)">
      <circle id="Elipse_7738" data-name="Elipse 7738" cx="114.381" cy="114.381" r="114.381" transform="translate(305.199 16424.084)" fill="#fae8c2" opacity="0.5" style="mix-blend-mode: color-burn;isolation: isolate"/>
      <g id="Grupo_986534" data-name="Grupo 986534" transform="translate(299.8 16418.682)">
        <path id="Trazado_659340" data-name="Trazado 659340" d="M171.89,3921.816a119.781,119.781,0,1,1,119.779-119.781A119.916,119.916,0,0,1,171.89,3921.816Zm0-228.764a108.982,108.982,0,1,0,108.98,108.982A109.105,109.105,0,0,0,171.89,3693.052Z" transform="translate(-52.109 -3682.254)" fill="#ef8b53"/>
      </g>
      <g id="Grupo_986580" data-name="Grupo 986580" transform="translate(285 16468.115)">
        <path id="Trazado_659420" data-name="Trazado 659420" d="M270.744,3711.969H111.752V3735.4h2.064v73.374c-3.608-3.143-7.041-3.385-10.71-3.038a4.415,4.415,0,0,1-4.9-2.487l3.933-3.933-4.534-4.532,1.1-1.1-28.021-28.019-19.229,19.229h0l-5.222,5.222,28.021,28.019,5.145-5.145-3.906,3.909,4.53,4.532,3.984-3.98h0l.754-.754,2.32,2.312c10.188,10.17,5.661,25.385,32.605,36.661,12.224,3.362,26.1,2.369,33.633.718a3.492,3.492,0,0,0,.044-3.722H270.744V3735.4h2.064v-23.429ZM79.475,3812.913l15.537-15.537-15.535,15.537Z" transform="translate(-42.156 -3707.169)" fill="gray" fill-rule="evenodd" opacity="0.5" style="mix-blend-mode: multiply;isolation: isolate"/>
        <g id="Grupo_986579" data-name="Grupo 986579">
          <g id="Grupo_986578" data-name="Grupo 986578" transform="translate(65.517)">
            <rect id="Rectángulo_310743" data-name="Rectángulo 310743" width="156.928" height="140.693" transform="translate(2.064)" fill="#cd8555"/>
            <rect id="Rectángulo_310744" data-name="Rectángulo 310744" width="161.056" height="23.429" fill="#cd8555"/>
            <path id="Trazado_659421" data-name="Trazado 659421" d="M237.957,3839.439H179.033l-98-117.264H237.957Z" transform="translate(-78.965 -3698.746)" fill="#b75f22" fill-rule="evenodd"/>
            <path id="Trazado_659422" data-name="Trazado 659422" d="M167.426,3709.338H150.175v32.381l3.725-1.739,3.361,1.609,4.662-2.746,5.5,2.875Z" transform="translate(-21.912 -3709.338)" fill="#802e00" fill-rule="evenodd"/>
            <path id="Trazado_659423" data-name="Trazado 659423" d="M105.664,3709.338H88.413v32.381l3.728-1.739,3.362,1.609,4.659-2.746,5.5,2.875Z" transform="translate(-72.872 -3709.338)" fill="#802e00" fill-rule="evenodd"/>
          </g>
          <rect id="Rectángulo_310745" data-name="Rectángulo 310745" width="62.701" height="29.025" transform="translate(74.336 64.171)" fill="#f4f9ff"/>
          <rect id="Rectángulo_310746" data-name="Rectángulo 310746" width="1.95" height="21.093" transform="translate(77.895 66.28)" fill="#16131b"/>
          <rect id="Rectángulo_310747" data-name="Rectángulo 310747" width="1.947" height="21.093" transform="translate(81.792 66.28)" fill="#16131b"/>
          <rect id="Rectángulo_310748" data-name="Rectángulo 310748" width="1.947" height="21.093" transform="translate(93.481 66.28)" fill="#16131b"/>
          <rect id="Rectángulo_310749" data-name="Rectángulo 310749" width="1.947" height="21.093" transform="translate(105.168 66.28)" fill="#16131b"/>
          <rect id="Rectángulo_310750" data-name="Rectángulo 310750" width="1.947" height="21.093" transform="translate(115.356 66.28)" fill="#16131b"/>
          <rect id="Rectángulo_310751" data-name="Rectángulo 310751" width="0.973" height="21.093" transform="translate(84.657 66.28)" fill="#16131b"/>
          <rect id="Rectángulo_310752" data-name="Rectángulo 310752" width="0.974" height="21.093" transform="translate(96.343 66.28)" fill="#16131b"/>
          <rect id="Rectángulo_310753" data-name="Rectángulo 310753" width="0.977" height="21.093" transform="translate(108.03 66.28)" fill="#16131b"/>
          <rect id="Rectángulo_310754" data-name="Rectángulo 310754" width="0.973" height="21.093" transform="translate(118.218 66.28)" fill="#16131b"/>
          <rect id="Rectángulo_310755" data-name="Rectángulo 310755" width="1.947" height="21.093" transform="translate(87.914 66.28)" fill="#16131b"/>
          <rect id="Rectángulo_310756" data-name="Rectángulo 310756" width="1.95" height="21.093" transform="translate(99.601 66.28)" fill="#16131b"/>
          <rect id="Rectángulo_310757" data-name="Rectángulo 310757" width="1.947" height="21.093" transform="translate(111.291 66.28)" fill="#16131b"/>
          <rect id="Rectángulo_310758" data-name="Rectángulo 310758" width="1.95" height="21.093" transform="translate(121.475 66.28)" fill="#16131b"/>
          <rect id="Rectángulo_310759" data-name="Rectángulo 310759" width="0.973" height="24.811" transform="translate(86.305 66.28)" fill="#16131b"/>
          <rect id="Rectángulo_310760" data-name="Rectángulo 310760" width="0.974" height="21.093" transform="translate(97.991 66.28)" fill="#16131b"/>
          <rect id="Rectángulo_310761" data-name="Rectángulo 310761" width="0.977" height="21.093" transform="translate(109.678 66.28)" fill="#16131b"/>
          <rect id="Rectángulo_310762" data-name="Rectángulo 310762" width="0.973" height="21.093" transform="translate(119.866 66.28)" fill="#16131b"/>
          <rect id="Rectángulo_310763" data-name="Rectángulo 310763" width="0.977" height="21.093" transform="translate(80.38 66.28)" fill="#16131b"/>
          <rect id="Rectángulo_310764" data-name="Rectángulo 310764" width="0.974" height="21.093" transform="translate(92.07 66.28)" fill="#16131b"/>
          <rect id="Rectángulo_310765" data-name="Rectángulo 310765" width="0.977" height="21.093" transform="translate(103.757 66.28)" fill="#16131b"/>
          <rect id="Rectángulo_310766" data-name="Rectángulo 310766" width="0.973" height="21.093" transform="translate(113.945 66.28)" fill="#16131b"/>
          <rect id="Rectángulo_310767" data-name="Rectángulo 310767" width="1.947" height="21.093" transform="translate(125.404 66.28)" fill="#16131b"/>
          <rect id="Rectángulo_310768" data-name="Rectángulo 310768" width="0.973" height="21.093" transform="translate(128.269 66.28)" fill="#16131b"/>
          <rect id="Rectángulo_310769" data-name="Rectángulo 310769" width="1.947" height="21.093" transform="translate(131.527 66.28)" fill="#16131b"/>
          <rect id="Rectángulo_310770" data-name="Rectángulo 310770" width="0.973" height="21.093" transform="translate(129.918 66.28)" fill="#16131b"/>
          <rect id="Rectángulo_310771" data-name="Rectángulo 310771" width="0.973" height="21.093" transform="translate(123.996 66.28)" fill="#16131b"/>
          <path id="Trazado_659424" data-name="Trazado 659424" d="M124.784,3735.811a8.125,8.125,0,0,0-7.859-6.161h0a8.12,8.12,0,0,0-7.855,6.161Z" transform="translate(9.689 -3692.58)" fill="#f4f9ff" fill-rule="evenodd"/>
          <path id="Trazado_659425" data-name="Trazado 659425" d="M116.578,3743.647a3.083,3.083,0,0,1-6.162,0h1.511a1.575,1.575,0,0,0,3.139,0h0v-10.938h1.511Z" transform="translate(10.8 -3690.056)" fill="#f4f9ff" fill-rule="evenodd"/>
          <rect id="Rectángulo_310772" data-name="Rectángulo 310772" width="1.45" height="10.407" transform="translate(107.757 44.992)" fill="#f4f9ff"/>
          <path id="Trazado_659426" data-name="Trazado 659426" d="M111.739,3729.642v6.778a5.735,5.735,0,0,1-5.716,5.718h0a5.73,5.73,0,0,1-5.714-5.718v-6.778Z" transform="translate(2.459 -3692.587)" fill="#f4f9ff" fill-rule="evenodd"/>
          <path id="Trazado_659427" data-name="Trazado 659427" d="M102.382,3739.694h6.532c.889,0,1.619.509,1.619,1.135h-9.77C100.763,3740.2,101.489,3739.694,102.382,3739.694Z" transform="translate(2.835 -3684.293)" fill="#f4f9ff" fill-rule="evenodd"/>
          <path id="Trazado_659428" data-name="Trazado 659428" d="M94.327,3737.651v10.068h-3.66v-10.068h-2.54l2.187-4,2.181-4,2.183,4,2.187,4Z" transform="translate(-7.591 -3692.585)" fill="#f4f9ff" fill-rule="evenodd"/>
          <path id="Trazado_659429" data-name="Trazado 659429" d="M99.749,3737.651v10.068H96.09v-10.068H93.553l2.183-4,2.184-4,2.184,4,2.183,4Z" transform="translate(-3.114 -3692.585)" fill="#f4f9ff" fill-rule="evenodd"/>
          <rect id="Rectángulo_310773" data-name="Rectángulo 310773" width="16.507" height="1.405" transform="translate(81.603 55.135)" fill="#f4f9ff"/>
          <path id="Trazado_659430" data-name="Trazado 659430" d="M65.109,3772.8l2.32,2.313c10.188,10.169,5.661,25.384,32.6,36.66,12.226,3.362,26.1,2.37,33.633.718,1.823-2.782-.927-6.3-4.636-6.712a66.531,66.531,0,0,1-23.536-.146c-.823-.065-.73-.954,0-.9a62.706,62.706,0,0,0,23.264.331c.914-3.387-1.124-6.68-6.057-7.031-8.68-.366-16.678.259-22.076-3.387-7.109-6.406.372-11.483,4.851-6.96l3.96,3.485c4.535,4.487,9.115,3.38,11.476-.7-3.6-1.8-9.246-6.59-12.449-10.773A81.829,81.829,0,0,0,94.4,3765.068c-3.7-3.343-7.2-3.584-10.947-3.229a4.415,4.415,0,0,1-4.9-2.486Z" transform="translate(-26.583 -3668.073)" fill="#fed7a6" fill-rule="evenodd"/>
          <rect id="Rectángulo_310774" data-name="Rectángulo 310774" width="34.579" height="39.626" transform="translate(0 78.145) rotate(-45)" fill="#ffa910"/>
          <rect id="Rectángulo_310775" data-name="Rectángulo 310775" width="31.274" height="6.409" transform="matrix(0.707, -0.707, 0.707, 0.707, 29.257, 104.928)" fill="#fff"/>
          <rect id="Rectángulo_310776" data-name="Rectángulo 310776" width="7.383" height="39.626" transform="translate(0 78.145) rotate(-45)" fill="#f67807"/>
          <rect id="Rectángulo_310777" data-name="Rectángulo 310777" width="5.632" height="6.41" transform="translate(29.258 104.927) rotate(-44.977)" fill="#d1d3dc"/>
        </g>
      </g>
    </g>
  </g>
</svg>
