<svg xmlns="http://www.w3.org/2000/svg" xmlns:xlink="http://www.w3.org/1999/xlink" width="610" height="390.271" viewBox="0 0 610 390.271">
  <defs>
    <clipPath id="clip-path">
      <rect id="Rectángulo_310589" data-name="Rectángulo 310589" width="610" height="390.271" fill="none"/>
    </clipPath>
  </defs>
  <g id="Grupo_986527" data-name="Grupo 986527" transform="translate(-646.816 -2965.817)">
    <path id="Trazado_658908" data-name="Trazado 658908" d="M677.045,3335.45h27.727V3218.2H677.045V3335.45Z" transform="translate(2.403 20.064)" fill="#ececec"/>
    <path id="Trazado_658909" data-name="Trazado 658909" d="M690.137,3242.051h8.427v-16.24h-8.427v16.24Z" transform="translate(3.444 20.669)" fill="#fff"/>
    <path id="Trazado_658910" data-name="Trazado 658910" d="M693.828,3242.051c.063,0,.112-3.636.112-8.119s-.05-8.121-.112-8.121-.112,3.636-.112,8.121.05,8.119.112,8.119Z" transform="translate(3.728 20.669)" fill="#e1e0e0"/>
    <path id="Trazado_658911" data-name="Trazado 658911" d="M690.137,3231.046a79.089,79.089,0,0,0,8.427,0,78.408,78.408,0,0,0-8.427,0Z" transform="translate(3.444 21.076)" fill="#e1e0e0"/>
    <path id="Trazado_658912" data-name="Trazado 658912" d="M690.095,3236.426a80.412,80.412,0,0,0,8.5,0,80.412,80.412,0,0,0-8.5,0Z" transform="translate(3.441 21.504)" fill="#e1e0e0"/>
    <path id="Trazado_658913" data-name="Trazado 658913" d="M690.137,3261.7h8.427v-16.239h-8.427V3261.7Z" transform="translate(3.444 22.231)" fill="#fff"/>
    <path id="Trazado_658914" data-name="Trazado 658914" d="M693.828,3261.7c.063,0,.112-3.636.112-8.119s-.05-8.12-.112-8.12-.112,3.635-.112,8.12.05,8.119.112,8.119Z" transform="translate(3.728 22.231)" fill="#e1e0e0"/>
    <path id="Trazado_658915" data-name="Trazado 658915" d="M690.137,3250.7a78.408,78.408,0,0,0,8.427,0,78.24,78.24,0,0,0-8.427,0Z" transform="translate(3.444 22.639)" fill="#e1e0e0"/>
    <path id="Trazado_658916" data-name="Trazado 658916" d="M690.095,3256.076a79.72,79.72,0,0,0,8.5,0,79.378,79.378,0,0,0-8.5,0Z" transform="translate(3.441 23.067)" fill="#e1e0e0"/>
    <path id="Trazado_658917" data-name="Trazado 658917" d="M690.137,3281.351h8.427v-16.239h-8.427v16.239Z" transform="translate(3.444 23.794)" fill="#fff"/>
    <path id="Trazado_658918" data-name="Trazado 658918" d="M693.828,3281.351c.063,0,.112-3.636.112-8.119s-.05-8.12-.112-8.12-.112,3.635-.112,8.12.05,8.119.112,8.119Z" transform="translate(3.728 23.794)" fill="#e1e0e0"/>
    <path id="Trazado_658919" data-name="Trazado 658919" d="M690.137,3270.346a78.24,78.24,0,0,0,8.427,0,78.408,78.408,0,0,0-8.427,0Z" transform="translate(3.444 24.201)" fill="#e1e0e0"/>
    <path id="Trazado_658920" data-name="Trazado 658920" d="M690.095,3275.726a79.72,79.72,0,0,0,8.5,0,79.72,79.72,0,0,0-8.5,0Z" transform="translate(3.441 24.629)" fill="#e1e0e0"/>
    <path id="Trazado_658921" data-name="Trazado 658921" d="M690.137,3301h8.427v-16.24h-8.427V3301Z" transform="translate(3.444 25.356)" fill="#fff"/>
    <path id="Trazado_658922" data-name="Trazado 658922" d="M693.828,3301c.063,0,.112-3.637.112-8.12s-.05-8.12-.112-8.12-.112,3.634-.112,8.12.05,8.12.112,8.12Z" transform="translate(3.728 25.356)" fill="#e1e0e0"/>
    <path id="Trazado_658923" data-name="Trazado 658923" d="M690.137,3290a78.408,78.408,0,0,0,8.427,0,79.089,79.089,0,0,0-8.427,0Z" transform="translate(3.444 25.763)" fill="#e1e0e0"/>
    <path id="Trazado_658924" data-name="Trazado 658924" d="M690.095,3295.376a79.72,79.72,0,0,0,8.5,0,80.412,80.412,0,0,0-8.5,0Z" transform="translate(3.441 26.191)" fill="#e1e0e0"/>
    <path id="Trazado_658925" data-name="Trazado 658925" d="M666.122,3335.45h20.2V3218.2h-20.2V3335.45Z" transform="translate(1.535 20.064)" fill="#e1e0e0"/>
    <path id="Trazado_658926" data-name="Trazado 658926" d="M671.219,3242.051h8.427v-16.24h-8.427v16.24Z" transform="translate(1.94 20.669)" fill="#fff"/>
    <path id="Trazado_658927" data-name="Trazado 658927" d="M674.91,3242.051c.063,0,.112-3.636.112-8.119s-.05-8.121-.112-8.121-.112,3.636-.112,8.121.05,8.119.112,8.119Z" transform="translate(2.225 20.669)" fill="#e1e0e0"/>
    <path id="Trazado_658928" data-name="Trazado 658928" d="M671.219,3231.046a79.089,79.089,0,0,0,8.427,0,78.408,78.408,0,0,0-8.427,0Z" transform="translate(1.94 21.076)" fill="#e1e0e0"/>
    <path id="Trazado_658929" data-name="Trazado 658929" d="M671.178,3236.426a80.39,80.39,0,0,0,8.5,0,80.39,80.39,0,0,0-8.5,0Z" transform="translate(1.937 21.504)" fill="#e1e0e0"/>
    <path id="Trazado_658930" data-name="Trazado 658930" d="M671.219,3261.862h8.427v-16.24h-8.427v16.24Z" transform="translate(1.94 22.244)" fill="#fff"/>
    <path id="Trazado_658931" data-name="Trazado 658931" d="M674.91,3261.863c.063,0,.112-3.637.112-8.12s-.05-8.12-.112-8.12-.112,3.635-.112,8.12.05,8.12.112,8.12Z" transform="translate(2.225 22.245)" fill="#e1e0e0"/>
    <path id="Trazado_658932" data-name="Trazado 658932" d="M671.219,3250.857a79.261,79.261,0,0,0,8.427,0,79.089,79.089,0,0,0-8.427,0Z" transform="translate(1.94 22.652)" fill="#e1e0e0"/>
    <path id="Trazado_658933" data-name="Trazado 658933" d="M671.178,3256.237a79.7,79.7,0,0,0,8.5,0,80.39,80.39,0,0,0-8.5,0Z" transform="translate(1.937 23.079)" fill="#e1e0e0"/>
    <path id="Trazado_658934" data-name="Trazado 658934" d="M671.219,3281.674h8.427v-16.24h-8.427v16.24Z" transform="translate(1.94 23.819)" fill="#fff"/>
    <path id="Trazado_658935" data-name="Trazado 658935" d="M674.91,3281.674c.063,0,.112-3.636.112-8.12s-.05-8.12-.112-8.12-.112,3.635-.112,8.12.05,8.12.112,8.12Z" transform="translate(2.225 23.819)" fill="#e1e0e0"/>
    <path id="Trazado_658936" data-name="Trazado 658936" d="M671.219,3270.668a78.408,78.408,0,0,0,8.427,0,79.782,79.782,0,0,0-8.427,0Z" transform="translate(1.94 24.227)" fill="#e1e0e0"/>
    <path id="Trazado_658937" data-name="Trazado 658937" d="M671.178,3276.048a79.7,79.7,0,0,0,8.5,0,80.39,80.39,0,0,0-8.5,0Z" transform="translate(1.937 24.654)" fill="#e1e0e0"/>
    <path id="Trazado_658938" data-name="Trazado 658938" d="M671.219,3301.485h8.427v-16.24h-8.427v16.24Z" transform="translate(1.94 25.394)" fill="#fff"/>
    <path id="Trazado_658939" data-name="Trazado 658939" d="M674.91,3301.485c.063,0,.112-3.636.112-8.119s-.05-8.121-.112-8.121-.112,3.635-.112,8.121.05,8.119.112,8.119Z" transform="translate(2.225 25.394)" fill="#e1e0e0"/>
    <path id="Trazado_658940" data-name="Trazado 658940" d="M671.219,3290.48a78.24,78.24,0,0,0,8.427,0,78.408,78.408,0,0,0-8.427,0Z" transform="translate(1.94 25.802)" fill="#e1e0e0"/>
    <path id="Trazado_658941" data-name="Trazado 658941" d="M671.178,3295.86a79.7,79.7,0,0,0,8.5,0,79.7,79.7,0,0,0-8.5,0Z" transform="translate(1.937 26.229)" fill="#e1e0e0"/>
    <path id="Trazado_658942" data-name="Trazado 658942" d="M690.137,3320.651h8.427v-16.24h-8.427v16.24Z" transform="translate(3.444 26.918)" fill="#fff"/>
    <path id="Trazado_658943" data-name="Trazado 658943" d="M693.828,3320.652c.063,0,.112-3.637.112-8.12s-.05-8.12-.112-8.12-.112,3.635-.112,8.12.05,8.12.112,8.12Z" transform="translate(3.728 26.918)" fill="#e1e0e0"/>
    <path id="Trazado_658944" data-name="Trazado 658944" d="M690.137,3309.646a79.089,79.089,0,0,0,8.427,0,79.089,79.089,0,0,0-8.427,0Z" transform="translate(3.444 27.325)" fill="#e1e0e0"/>
    <path id="Trazado_658945" data-name="Trazado 658945" d="M690.095,3315.026a79.72,79.72,0,0,0,8.5,0,80.412,80.412,0,0,0-8.5,0Z" transform="translate(3.441 27.753)" fill="#e1e0e0"/>
    <path id="Trazado_658946" data-name="Trazado 658946" d="M671.219,3321.3h8.427v-16.24h-8.427v16.24Z" transform="translate(1.94 26.969)" fill="#fff"/>
    <path id="Trazado_658947" data-name="Trazado 658947" d="M674.91,3321.3c.063,0,.112-3.636.112-8.12s-.05-8.12-.112-8.12-.112,3.636-.112,8.12.05,8.12.112,8.12Z" transform="translate(2.225 26.969)" fill="#e1e0e0"/>
    <path id="Trazado_658948" data-name="Trazado 658948" d="M671.219,3310.291a79.089,79.089,0,0,0,8.427,0,79.089,79.089,0,0,0-8.427,0Z" transform="translate(1.94 27.377)" fill="#e1e0e0"/>
    <path id="Trazado_658949" data-name="Trazado 658949" d="M671.178,3315.672a81.273,81.273,0,0,0,8.5,0,79.527,79.527,0,0,0-8.5,0Z" transform="translate(1.937 27.804)" fill="#e1e0e0"/>
    <path id="Trazado_658950" data-name="Trazado 658950" d="M951.032,3260.49h32.621V3122.539H951.032V3260.49Z" transform="translate(24.185 12.459)" fill="#ececec"/>
    <path id="Trazado_658951" data-name="Trazado 658951" d="M966.434,3150.6h9.915V3131.5h-9.915V3150.6Z" transform="translate(25.409 13.171)" fill="#fff"/>
    <path id="Trazado_658952" data-name="Trazado 658952" d="M970.778,3150.6c.073,0,.132-4.277.132-9.552s-.058-9.554-.132-9.554-.133,4.277-.133,9.554.059,9.552.133,9.552Z" transform="translate(25.744 13.171)" fill="#e1e0e0"/>
    <path id="Trazado_658953" data-name="Trazado 658953" d="M966.434,3137.655a91.921,91.921,0,0,0,9.915,0,93.281,93.281,0,0,0-9.915,0Z" transform="translate(25.409 13.651)" fill="#e1e0e0"/>
    <path id="Trazado_658954" data-name="Trazado 658954" d="M966.385,3143.986a95,95,0,0,0,10,0,93.445,93.445,0,0,0-10,0Z" transform="translate(25.405 14.154)" fill="#e1e0e0"/>
    <path id="Trazado_658955" data-name="Trazado 658955" d="M966.434,3173.721h9.915v-19.106h-9.915v19.106Z" transform="translate(25.409 15.009)" fill="#fff"/>
    <path id="Trazado_658956" data-name="Trazado 658956" d="M970.778,3173.722c.073,0,.132-4.278.132-9.552s-.058-9.555-.132-9.555-.133,4.277-.133,9.555.059,9.552.133,9.552Z" transform="translate(25.744 15.009)" fill="#e1e0e0"/>
    <path id="Trazado_658957" data-name="Trazado 658957" d="M966.434,3160.773a92.6,92.6,0,0,0,9.915,0,93.454,93.454,0,0,0-9.915,0Z" transform="translate(25.409 15.489)" fill="#e1e0e0"/>
    <path id="Trazado_658958" data-name="Trazado 658958" d="M966.385,3167.1a94.131,94.131,0,0,0,10,0,94.827,94.827,0,0,0-10,0Z" transform="translate(25.405 15.992)" fill="#e1e0e0"/>
    <path id="Trazado_658959" data-name="Trazado 658959" d="M966.434,3196.84h9.915v-19.106h-9.915v19.106Z" transform="translate(25.409 16.847)" fill="#fff"/>
    <path id="Trazado_658960" data-name="Trazado 658960" d="M970.778,3196.84c.073,0,.132-4.277.132-9.552s-.058-9.552-.132-9.552-.133,4.276-.133,9.552.059,9.552.133,9.552Z" transform="translate(25.744 16.847)" fill="#e1e0e0"/>
    <path id="Trazado_658961" data-name="Trazado 658961" d="M966.434,3183.894a93.281,93.281,0,0,0,9.915,0,91.921,91.921,0,0,0-9.915,0Z" transform="translate(25.409 17.326)" fill="#e1e0e0"/>
    <path id="Trazado_658962" data-name="Trazado 658962" d="M966.385,3190.222a94.131,94.131,0,0,0,10,0,95.18,95.18,0,0,0-10,0Z" transform="translate(25.405 17.83)" fill="#e1e0e0"/>
    <path id="Trazado_658963" data-name="Trazado 658963" d="M966.434,3219.959h9.915v-19.106h-9.915v19.106Z" transform="translate(25.409 18.685)" fill="#fff"/>
    <path id="Trazado_658964" data-name="Trazado 658964" d="M970.778,3219.959c.073,0,.132-4.277.132-9.552s-.058-9.553-.132-9.553-.133,4.277-.133,9.553.059,9.552.133,9.552Z" transform="translate(25.744 18.685)" fill="#e1e0e0"/>
    <path id="Trazado_658965" data-name="Trazado 658965" d="M966.434,3207.011a92.6,92.6,0,0,0,9.915,0,93.454,93.454,0,0,0-9.915,0Z" transform="translate(25.409 19.164)" fill="#e1e0e0"/>
    <path id="Trazado_658966" data-name="Trazado 658966" d="M966.385,3213.342a94.131,94.131,0,0,0,10,0,93.959,93.959,0,0,0-10,0Z" transform="translate(25.405 19.668)" fill="#e1e0e0"/>
    <path id="Trazado_658967" data-name="Trazado 658967" d="M938.181,3260.49h23.769V3122.539H938.181V3260.49Z" transform="translate(23.163 12.459)" fill="#e1e0e0"/>
    <path id="Trazado_658968" data-name="Trazado 658968" d="M944.177,3150.6h9.915V3131.5h-9.915V3150.6Z" transform="translate(23.64 13.171)" fill="#fff"/>
    <path id="Trazado_658969" data-name="Trazado 658969" d="M948.521,3150.6c.072,0,.132-4.277.132-9.552s-.059-9.554-.132-9.554-.134,4.277-.134,9.554.059,9.552.134,9.552Z" transform="translate(23.975 13.171)" fill="#e1e0e0"/>
    <path id="Trazado_658970" data-name="Trazado 658970" d="M944.177,3137.655a91.919,91.919,0,0,0,9.915,0,93.279,93.279,0,0,0-9.915,0Z" transform="translate(23.64 13.651)" fill="#e1e0e0"/>
    <path id="Trazado_658971" data-name="Trazado 658971" d="M944.128,3143.986a95,95,0,0,0,10,0,93.446,93.446,0,0,0-10,0Z" transform="translate(23.636 14.154)" fill="#e1e0e0"/>
    <path id="Trazado_658972" data-name="Trazado 658972" d="M944.177,3173.911h9.915V3154.8h-9.915v19.107Z" transform="translate(23.64 15.025)" fill="#fff"/>
    <path id="Trazado_658973" data-name="Trazado 658973" d="M948.521,3173.911c.072,0,.132-4.277.132-9.552s-.059-9.553-.132-9.553-.134,4.277-.134,9.553.059,9.552.134,9.552Z" transform="translate(23.975 15.024)" fill="#e1e0e0"/>
    <path id="Trazado_658974" data-name="Trazado 658974" d="M944.177,3160.964a92.764,92.764,0,0,0,9.915,0,92.594,92.594,0,0,0-9.915,0Z" transform="translate(23.64 15.503)" fill="#e1e0e0"/>
    <path id="Trazado_658975" data-name="Trazado 658975" d="M944.128,3167.293a94.829,94.829,0,0,0,10,0,95,95,0,0,0-10,0Z" transform="translate(23.636 16.007)" fill="#e1e0e0"/>
    <path id="Trazado_658976" data-name="Trazado 658976" d="M944.177,3197.22h9.915v-19.107h-9.915v19.107Z" transform="translate(23.64 16.878)" fill="#fff"/>
    <path id="Trazado_658977" data-name="Trazado 658977" d="M948.521,3197.22c.072,0,.132-4.278.132-9.552s-.059-9.555-.132-9.555-.134,4.277-.134,9.555.059,9.552.134,9.552Z" transform="translate(23.975 16.878)" fill="#e1e0e0"/>
    <path id="Trazado_658978" data-name="Trazado 658978" d="M944.177,3184.273a92.594,92.594,0,0,0,9.915,0,92.594,92.594,0,0,0-9.915,0Z" transform="translate(23.64 17.356)" fill="#e1e0e0"/>
    <path id="Trazado_658979" data-name="Trazado 658979" d="M944.128,3190.6a94.132,94.132,0,0,0,10,0,94.829,94.829,0,0,0-10,0Z" transform="translate(23.636 17.86)" fill="#e1e0e0"/>
    <path id="Trazado_658980" data-name="Trazado 658980" d="M944.177,3220.529h9.915v-19.107h-9.915v19.107Z" transform="translate(23.64 18.731)" fill="#fff"/>
    <path id="Trazado_658981" data-name="Trazado 658981" d="M948.521,3220.529c.072,0,.132-4.278.132-9.554s-.059-9.553-.132-9.553-.134,4.277-.134,9.553.059,9.554.134,9.554Z" transform="translate(23.975 18.731)" fill="#e1e0e0"/>
    <path id="Trazado_658982" data-name="Trazado 658982" d="M944.177,3207.581a92.594,92.594,0,0,0,9.915,0,92.594,92.594,0,0,0-9.915,0Z" transform="translate(23.64 19.209)" fill="#e1e0e0"/>
    <path id="Trazado_658983" data-name="Trazado 658983" d="M944.128,3213.911a94.132,94.132,0,0,0,10,0,94.305,94.305,0,0,0-10,0Z" transform="translate(23.636 19.713)" fill="#e1e0e0"/>
    <path id="Trazado_658984" data-name="Trazado 658984" d="M966.434,3243.079h9.915v-19.107h-9.915v19.107Z" transform="translate(25.409 20.523)" fill="#fff"/>
    <path id="Trazado_658985" data-name="Trazado 658985" d="M970.778,3243.079c.073,0,.132-4.278.132-9.554s-.058-9.554-.132-9.554-.133,4.276-.133,9.554.059,9.554.133,9.554Z" transform="translate(25.744 20.523)" fill="#e1e0e0"/>
    <path id="Trazado_658986" data-name="Trazado 658986" d="M966.434,3230.131a92.766,92.766,0,0,0,9.915,0,93.454,93.454,0,0,0-9.915,0Z" transform="translate(25.409 21.002)" fill="#e1e0e0"/>
    <path id="Trazado_658987" data-name="Trazado 658987" d="M966.385,3236.461a94.131,94.131,0,0,0,10,0,94.131,94.131,0,0,0-10,0Z" transform="translate(25.405 21.505)" fill="#e1e0e0"/>
    <path id="Trazado_658988" data-name="Trazado 658988" d="M944.177,3243.837h9.915V3224.73h-9.915v19.107Z" transform="translate(23.64 20.584)" fill="#fff"/>
    <path id="Trazado_658989" data-name="Trazado 658989" d="M948.521,3243.837c.072,0,.132-4.278.132-9.552s-.059-9.554-.132-9.554-.134,4.276-.134,9.554.059,9.552.134,9.552Z" transform="translate(23.975 20.584)" fill="#e1e0e0"/>
    <path id="Trazado_658990" data-name="Trazado 658990" d="M944.177,3230.89a92.594,92.594,0,0,0,9.915,0,92.764,92.764,0,0,0-9.915,0Z" transform="translate(23.64 21.062)" fill="#e1e0e0"/>
    <path id="Trazado_658991" data-name="Trazado 658991" d="M944.128,3237.22a94.132,94.132,0,0,0,10,0,94.132,94.132,0,0,0-10,0Z" transform="translate(23.636 21.566)" fill="#e1e0e0"/>
    <path id="Trazado_658992" data-name="Trazado 658992" d="M951.515,3336.974h32.621V3199.023H951.515v137.951" transform="translate(24.223 18.54)" fill="#ececec"/>
    <path id="Trazado_658993" data-name="Trazado 658993" d="M966.917,3227.087h9.915v-19.106h-9.915v19.106Z" transform="translate(25.448 19.252)" fill="#fff"/>
    <path id="Trazado_658994" data-name="Trazado 658994" d="M971.261,3227.087c.072,0,.132-4.277.132-9.552s-.059-9.554-.132-9.554-.134,4.277-.134,9.554.06,9.552.134,9.552Z" transform="translate(25.782 19.252)" fill="#e1e0e0"/>
    <path id="Trazado_658995" data-name="Trazado 658995" d="M966.917,3214.141a93.627,93.627,0,0,0,9.915,0,91.754,91.754,0,0,0-9.915,0Z" transform="translate(25.448 19.731)" fill="#e1e0e0"/>
    <path id="Trazado_658996" data-name="Trazado 658996" d="M966.868,3220.47a94.134,94.134,0,0,0,10,0,93.961,93.961,0,0,0-10,0Z" transform="translate(25.444 20.234)" fill="#e1e0e0"/>
    <path id="Trazado_658997" data-name="Trazado 658997" d="M966.917,3250.207h9.915V3231.1h-9.915v19.107Z" transform="translate(25.448 21.09)" fill="#fff"/>
    <path id="Trazado_658998" data-name="Trazado 658998" d="M971.261,3250.207c.072,0,.132-4.278.132-9.554s-.059-9.553-.132-9.553-.134,4.276-.134,9.553.06,9.554.134,9.554Z" transform="translate(25.782 21.09)" fill="#e1e0e0"/>
    <path id="Trazado_658999" data-name="Trazado 658999" d="M966.917,3237.259a92.6,92.6,0,0,0,9.915,0,92.426,92.426,0,0,0-9.915,0Z" transform="translate(25.448 21.569)" fill="#e1e0e0"/>
    <path id="Trazado_659000" data-name="Trazado 659000" d="M966.868,3243.589a94.307,94.307,0,0,0,10,0,94.134,94.134,0,0,0-10,0Z" transform="translate(25.444 22.072)" fill="#e1e0e0"/>
    <path id="Trazado_659001" data-name="Trazado 659001" d="M966.917,3273.325h9.915v-19.107h-9.915v19.107Z" transform="translate(25.448 22.928)" fill="#fff"/>
    <path id="Trazado_659002" data-name="Trazado 659002" d="M971.261,3273.325c.072,0,.132-4.278.132-9.552s-.059-9.554-.132-9.554-.134,4.277-.134,9.554.06,9.552.134,9.552Z" transform="translate(25.782 22.928)" fill="#e1e0e0"/>
    <path id="Trazado_659003" data-name="Trazado 659003" d="M966.917,3260.378a92.6,92.6,0,0,0,9.915,0,92.766,92.766,0,0,0-9.915,0Z" transform="translate(25.448 23.407)" fill="#e1e0e0"/>
    <path id="Trazado_659004" data-name="Trazado 659004" d="M966.868,3266.708a94.134,94.134,0,0,0,10,0,94.134,94.134,0,0,0-10,0Z" transform="translate(25.444 23.91)" fill="#e1e0e0"/>
    <path id="Trazado_659005" data-name="Trazado 659005" d="M966.917,3296.444h9.915v-19.107h-9.915v19.107" transform="translate(25.448 24.766)" fill="#fff"/>
    <path id="Trazado_659006" data-name="Trazado 659006" d="M971.261,3296.444c.072,0,.132-4.277.132-9.553s-.059-9.553-.132-9.553-.134,4.277-.134,9.553.06,9.553.134,9.553" transform="translate(25.782 24.766)" fill="#e1e0e0"/>
    <path id="Trazado_659007" data-name="Trazado 659007" d="M966.917,3283.5a92.6,92.6,0,0,0,9.915,0,92.6,92.6,0,0,0-9.915,0Z" transform="translate(25.448 25.245)" fill="#e1e0e0"/>
    <path id="Trazado_659008" data-name="Trazado 659008" d="M966.868,3289.826a94.83,94.83,0,0,0,10,0,94.307,94.307,0,0,0-10,0Z" transform="translate(25.444 25.748)" fill="#e1e0e0"/>
    <path id="Trazado_659009" data-name="Trazado 659009" d="M938.664,3336.974h23.768V3199.023H938.664v137.951" transform="translate(23.202 18.54)" fill="#e1e0e0"/>
    <path id="Trazado_659010" data-name="Trazado 659010" d="M944.66,3227.087h9.914v-19.106H944.66v19.106Z" transform="translate(23.678 19.252)" fill="#fff"/>
    <path id="Trazado_659011" data-name="Trazado 659011" d="M949,3227.087c.073,0,.133-4.277.133-9.552s-.059-9.554-.133-9.554-.133,4.277-.133,9.554.061,9.552.133,9.552Z" transform="translate(24.013 19.252)" fill="#e1e0e0"/>
    <path id="Trazado_659012" data-name="Trazado 659012" d="M944.66,3214.141a93.607,93.607,0,0,0,9.914,0,91.734,91.734,0,0,0-9.914,0Z" transform="translate(23.678 19.731)" fill="#e1e0e0"/>
    <path id="Trazado_659013" data-name="Trazado 659013" d="M944.611,3220.47a94.111,94.111,0,0,0,10,0,93.938,93.938,0,0,0-10,0Z" transform="translate(23.674 20.234)" fill="#e1e0e0"/>
    <path id="Trazado_659014" data-name="Trazado 659014" d="M944.66,3250.4h9.914V3231.29H944.66V3250.4Z" transform="translate(23.678 21.105)" fill="#fff"/>
    <path id="Trazado_659015" data-name="Trazado 659015" d="M949,3250.4c.073,0,.133-4.278.133-9.552s-.059-9.553-.133-9.553-.133,4.276-.133,9.553.061,9.552.133,9.552Z" transform="translate(24.013 21.105)" fill="#e1e0e0"/>
    <path id="Trazado_659016" data-name="Trazado 659016" d="M944.66,3237.448a93.26,93.26,0,0,0,9.914,0,92.576,92.576,0,0,0-9.914,0Z" transform="translate(23.678 21.584)" fill="#e1e0e0"/>
    <path id="Trazado_659017" data-name="Trazado 659017" d="M944.611,3243.778a93.255,93.255,0,0,0,10,0,94.982,94.982,0,0,0-10,0Z" transform="translate(23.674 22.087)" fill="#e1e0e0"/>
    <path id="Trazado_659018" data-name="Trazado 659018" d="M944.66,3273.7h9.914V3254.6H944.66V3273.7Z" transform="translate(23.678 22.958)" fill="#fff"/>
    <path id="Trazado_659019" data-name="Trazado 659019" d="M949,3273.705c.073,0,.133-4.277.133-9.553s-.059-9.554-.133-9.554-.133,4.277-.133,9.554.061,9.553.133,9.553Z" transform="translate(24.013 22.958)" fill="#e1e0e0"/>
    <path id="Trazado_659020" data-name="Trazado 659020" d="M944.66,3260.757a91.734,91.734,0,0,0,9.914,0,93.26,93.26,0,0,0-9.914,0Z" transform="translate(23.678 23.437)" fill="#e1e0e0"/>
    <path id="Trazado_659021" data-name="Trazado 659021" d="M944.611,3267.088a94.982,94.982,0,0,0,10,0,93.425,93.425,0,0,0-10,0Z" transform="translate(23.674 23.94)" fill="#e1e0e0"/>
    <path id="Trazado_659022" data-name="Trazado 659022" d="M944.66,3297.013h9.914v-19.106H944.66v19.106Z" transform="translate(23.678 24.811)" fill="#fff"/>
    <path id="Trazado_659023" data-name="Trazado 659023" d="M949,3297.013c.073,0,.133-4.277.133-9.552s-.059-9.554-.133-9.554-.133,4.277-.133,9.554.061,9.552.133,9.552Z" transform="translate(24.013 24.811)" fill="#e1e0e0"/>
    <path id="Trazado_659024" data-name="Trazado 659024" d="M944.66,3284.065a92.576,92.576,0,0,0,9.914,0,92.746,92.746,0,0,0-9.914,0Z" transform="translate(23.678 25.29)" fill="#e1e0e0"/>
    <path id="Trazado_659025" data-name="Trazado 659025" d="M944.611,3290.4a94.807,94.807,0,0,0,10,0,94.982,94.982,0,0,0-10,0Z" transform="translate(23.674 25.793)" fill="#e1e0e0"/>
    <path id="Trazado_659026" data-name="Trazado 659026" d="M966.917,3319.563h9.915v-19.106h-9.915v19.106Z" transform="translate(25.448 26.603)" fill="#fff"/>
    <path id="Trazado_659027" data-name="Trazado 659027" d="M971.261,3319.563c.072,0,.132-4.277.132-9.552s-.059-9.555-.132-9.555-.134,4.277-.134,9.555.06,9.552.134,9.552Z" transform="translate(25.782 26.604)" fill="#e1e0e0"/>
    <path id="Trazado_659028" data-name="Trazado 659028" d="M966.917,3306.615a92.6,92.6,0,0,0,9.915,0,92.6,92.6,0,0,0-9.915,0Z" transform="translate(25.448 27.083)" fill="#e1e0e0"/>
    <path id="Trazado_659029" data-name="Trazado 659029" d="M966.868,3312.946a94.134,94.134,0,0,0,10,0,94.134,94.134,0,0,0-10,0Z" transform="translate(25.444 27.586)" fill="#e1e0e0"/>
    <path id="Trazado_659030" data-name="Trazado 659030" d="M944.66,3320.322h9.914v-19.106H944.66v19.106Z" transform="translate(23.678 26.664)" fill="#fff"/>
    <path id="Trazado_659031" data-name="Trazado 659031" d="M949,3320.322c.073,0,.133-4.278.133-9.552s-.059-9.554-.133-9.554-.133,4.277-.133,9.554.061,9.552.133,9.552Z" transform="translate(24.013 26.664)" fill="#e1e0e0"/>
    <path id="Trazado_659032" data-name="Trazado 659032" d="M944.66,3307.375a93.26,93.26,0,0,0,9.914,0,92.576,92.576,0,0,0-9.914,0Z" transform="translate(23.678 27.143)" fill="#e1e0e0"/>
    <path id="Trazado_659033" data-name="Trazado 659033" d="M944.611,3313.7a94.284,94.284,0,0,0,10,0,94.807,94.807,0,0,0-10,0Z" transform="translate(23.674 27.646)" fill="#e1e0e0"/>
    <path id="Trazado_659034" data-name="Trazado 659034" d="M714.251,3342.7h48.723V3124.5H714.251v218.2Z" transform="translate(5.361 12.615)" fill="#ececec"/>
    <path id="Trazado_659035" data-name="Trazado 659035" d="M737.255,3166.418h14.808v-28.537H737.255v28.537Z" transform="translate(7.19 13.679)" fill="#fff"/>
    <path id="Trazado_659036" data-name="Trazado 659036" d="M743.743,3166.418c.109,0,.2-6.388.2-14.268s-.09-14.269-.2-14.269-.2,6.387-.2,14.269.09,14.268.2,14.268Z" transform="translate(7.69 13.679)" fill="#e1e0e0"/>
    <path id="Trazado_659037" data-name="Trazado 659037" d="M737.256,3147.08a138.013,138.013,0,0,0,14.807,0,139.037,139.037,0,0,0-14.807,0Z" transform="translate(7.19 14.395)" fill="#e1e0e0"/>
    <path id="Trazado_659038" data-name="Trazado 659038" d="M737.183,3156.534a140.315,140.315,0,0,0,14.931,0,141.007,141.007,0,0,0-14.931,0Z" transform="translate(7.184 15.146)" fill="#e1e0e0"/>
    <path id="Trazado_659039" data-name="Trazado 659039" d="M737.255,3200.949h14.808v-28.537H737.255v28.537Z" transform="translate(7.19 16.424)" fill="#fff"/>
    <path id="Trazado_659040" data-name="Trazado 659040" d="M743.743,3200.949c.109,0,.2-6.389.2-14.269s-.09-14.269-.2-14.269-.2,6.387-.2,14.269.09,14.269.2,14.269Z" transform="translate(7.69 16.424)" fill="#e1e0e0"/>
    <path id="Trazado_659041" data-name="Trazado 659041" d="M737.256,3181.61a138.013,138.013,0,0,0,14.807,0,139.037,139.037,0,0,0-14.807,0Z" transform="translate(7.19 17.14)" fill="#e1e0e0"/>
    <path id="Trazado_659042" data-name="Trazado 659042" d="M737.183,3191.064a140.487,140.487,0,0,0,14.931,0,141.007,141.007,0,0,0-14.931,0Z" transform="translate(7.184 17.891)" fill="#e1e0e0"/>
    <path id="Trazado_659043" data-name="Trazado 659043" d="M737.255,3235.479h14.808v-28.537H737.255v28.537Z" transform="translate(7.19 19.169)" fill="#fff"/>
    <path id="Trazado_659044" data-name="Trazado 659044" d="M743.743,3235.479c.109,0,.2-6.388.2-14.268s-.09-14.269-.2-14.269-.2,6.387-.2,14.269.09,14.268.2,14.268Z" transform="translate(7.69 19.169)" fill="#e1e0e0"/>
    <path id="Trazado_659045" data-name="Trazado 659045" d="M737.256,3216.14a138.013,138.013,0,0,0,14.807,0,139.037,139.037,0,0,0-14.807,0Z" transform="translate(7.19 19.885)" fill="#e1e0e0"/>
    <path id="Trazado_659046" data-name="Trazado 659046" d="M737.183,3225.6a142.058,142.058,0,0,0,14.931,0,140.315,140.315,0,0,0-14.931,0Z" transform="translate(7.184 20.637)" fill="#e1e0e0"/>
    <path id="Trazado_659047" data-name="Trazado 659047" d="M737.255,3270.009h14.808v-28.538H737.255v28.538Z" transform="translate(7.19 21.914)" fill="#fff"/>
    <path id="Trazado_659048" data-name="Trazado 659048" d="M743.743,3270.01c.109,0,.2-6.389.2-14.269s-.09-14.269-.2-14.269-.2,6.387-.2,14.269.09,14.269.2,14.269Z" transform="translate(7.69 21.914)" fill="#e1e0e0"/>
    <path id="Trazado_659049" data-name="Trazado 659049" d="M737.256,3250.672a139.554,139.554,0,0,0,14.807,0,138.013,138.013,0,0,0-14.807,0Z" transform="translate(7.19 22.63)" fill="#e1e0e0"/>
    <path id="Trazado_659050" data-name="Trazado 659050" d="M737.183,3260.125a140.487,140.487,0,0,0,14.931,0,141.007,141.007,0,0,0-14.931,0Z" transform="translate(7.184 23.382)" fill="#e1e0e0"/>
    <path id="Trazado_659051" data-name="Trazado 659051" d="M695.057,3342.7h35.5V3124.5h-35.5v218.2Z" transform="translate(3.835 12.615)" fill="#e1e0e0"/>
    <path id="Trazado_659052" data-name="Trazado 659052" d="M704.012,3166.418h14.809v-28.537H704.012v28.537Z" transform="translate(4.547 13.679)" fill="#fff"/>
    <path id="Trazado_659053" data-name="Trazado 659053" d="M710.5,3166.418c.109,0,.2-6.388.2-14.268s-.089-14.269-.2-14.269-.2,6.387-.2,14.269.088,14.268.2,14.268Z" transform="translate(5.047 13.679)" fill="#e1e0e0"/>
    <path id="Trazado_659054" data-name="Trazado 659054" d="M704.012,3147.08a138.033,138.033,0,0,0,14.809,0,139.056,139.056,0,0,0-14.809,0Z" transform="translate(4.547 14.395)" fill="#e1e0e0"/>
    <path id="Trazado_659055" data-name="Trazado 659055" d="M703.94,3156.534a140.315,140.315,0,0,0,14.931,0,141.007,141.007,0,0,0-14.931,0Z" transform="translate(4.541 15.146)" fill="#e1e0e0"/>
    <path id="Trazado_659056" data-name="Trazado 659056" d="M704.012,3201.232h14.809V3172.7H704.012v28.537Z" transform="translate(4.547 16.447)" fill="#fff"/>
    <path id="Trazado_659057" data-name="Trazado 659057" d="M710.5,3201.232c.109,0,.2-6.39.2-14.269s-.089-14.268-.2-14.268-.2,6.386-.2,14.268.088,14.269.2,14.269Z" transform="translate(5.047 16.447)" fill="#e1e0e0"/>
    <path id="Trazado_659058" data-name="Trazado 659058" d="M704.012,3181.894a138.885,138.885,0,0,0,14.809,0,138.2,138.2,0,0,0-14.809,0Z" transform="translate(4.547 17.162)" fill="#e1e0e0"/>
    <path id="Trazado_659059" data-name="Trazado 659059" d="M703.94,3191.347a140.315,140.315,0,0,0,14.931,0,141.007,141.007,0,0,0-14.931,0Z" transform="translate(4.541 17.914)" fill="#e1e0e0"/>
    <path id="Trazado_659060" data-name="Trazado 659060" d="M704.012,3236.045h14.809v-28.537H704.012v28.537Z" transform="translate(4.547 19.214)" fill="#fff"/>
    <path id="Trazado_659061" data-name="Trazado 659061" d="M710.5,3236.045c.109,0,.2-6.389.2-14.268s-.089-14.269-.2-14.269-.2,6.386-.2,14.269.088,14.268.2,14.268Z" transform="translate(5.047 19.214)" fill="#e1e0e0"/>
    <path id="Trazado_659062" data-name="Trazado 659062" d="M704.012,3216.708a138.885,138.885,0,0,0,14.809,0,138.713,138.713,0,0,0-14.809,0Z" transform="translate(4.547 19.93)" fill="#e1e0e0"/>
    <path id="Trazado_659063" data-name="Trazado 659063" d="M703.94,3226.161a140.315,140.315,0,0,0,14.931,0,140.315,140.315,0,0,0-14.931,0Z" transform="translate(4.541 20.682)" fill="#e1e0e0"/>
    <path id="Trazado_659064" data-name="Trazado 659064" d="M704.012,3270.859h14.809v-28.537H704.012v28.537Z" transform="translate(4.547 21.982)" fill="#fff"/>
    <path id="Trazado_659065" data-name="Trazado 659065" d="M710.5,3270.86c.109,0,.2-6.39.2-14.269s-.089-14.269-.2-14.269-.2,6.387-.2,14.269.088,14.269.2,14.269Z" transform="translate(5.047 21.982)" fill="#e1e0e0"/>
    <path id="Trazado_659066" data-name="Trazado 659066" d="M704.012,3251.521a138.885,138.885,0,0,0,14.809,0,138.713,138.713,0,0,0-14.809,0Z" transform="translate(4.547 22.698)" fill="#e1e0e0"/>
    <path id="Trazado_659067" data-name="Trazado 659067" d="M703.94,3260.974a140.315,140.315,0,0,0,14.931,0,141.356,141.356,0,0,0-14.931,0Z" transform="translate(4.541 23.449)" fill="#e1e0e0"/>
    <path id="Trazado_659068" data-name="Trazado 659068" d="M737.255,3304.539h14.808V3276H737.255v28.537Z" transform="translate(7.19 24.659)" fill="#fff"/>
    <path id="Trazado_659069" data-name="Trazado 659069" d="M743.743,3304.539c.109,0,.2-6.389.2-14.267s-.09-14.27-.2-14.27-.2,6.387-.2,14.27.09,14.267.2,14.267Z" transform="translate(7.69 24.659)" fill="#e1e0e0"/>
    <path id="Trazado_659070" data-name="Trazado 659070" d="M737.256,3285.2a138.013,138.013,0,0,0,14.807,0,138.013,138.013,0,0,0-14.807,0Z" transform="translate(7.19 25.375)" fill="#e1e0e0"/>
    <path id="Trazado_659071" data-name="Trazado 659071" d="M737.183,3294.656a141.356,141.356,0,0,0,14.931,0,140.315,140.315,0,0,0-14.931,0Z" transform="translate(7.184 26.127)" fill="#e1e0e0"/>
    <path id="Trazado_659072" data-name="Trazado 659072" d="M704.012,3305.672h14.809v-28.537H704.012v28.537Z" transform="translate(4.547 24.749)" fill="#fff"/>
    <path id="Trazado_659073" data-name="Trazado 659073" d="M710.5,3305.671c.109,0,.2-6.387.2-14.267s-.089-14.27-.2-14.27-.2,6.387-.2,14.27.088,14.267.2,14.267Z" transform="translate(5.047 24.75)" fill="#e1e0e0"/>
    <path id="Trazado_659074" data-name="Trazado 659074" d="M704.012,3286.333a138.2,138.2,0,0,0,14.809,0,138.713,138.713,0,0,0-14.809,0Z" transform="translate(4.547 25.465)" fill="#e1e0e0"/>
    <path id="Trazado_659075" data-name="Trazado 659075" d="M703.94,3295.788a141.181,141.181,0,0,0,14.931,0,140.487,140.487,0,0,0-14.931,0Z" transform="translate(4.541 26.217)" fill="#e1e0e0"/>
    <path id="Trazado_659076" data-name="Trazado 659076" d="M1138.737,3341.331h46.32V3145.449h-46.32v195.881" transform="translate(39.107 14.281)" fill="#ececec"/>
    <path id="Trazado_659077" data-name="Trazado 659077" d="M1160.607,3185.3h14.078v-27.129h-14.078V3185.3Z" transform="translate(40.846 15.292)" fill="#fff"/>
    <path id="Trazado_659078" data-name="Trazado 659078" d="M1166.775,3185.3c.1,0,.188-6.073.188-13.564s-.084-13.565-.188-13.565-.188,6.072-.188,13.565.084,13.564.188,13.564Z" transform="translate(41.321 15.292)" fill="#e1e0e0"/>
    <path id="Trazado_659079" data-name="Trazado 659079" d="M1160.608,3166.914a131.192,131.192,0,0,0,14.078,0,131.362,131.362,0,0,0-14.078,0Z" transform="translate(40.846 15.972)" fill="#e1e0e0"/>
    <path id="Trazado_659080" data-name="Trazado 659080" d="M1160.539,3175.9a134.218,134.218,0,0,0,14.193,0,134.218,134.218,0,0,0-14.193,0Z" transform="translate(40.84 16.687)" fill="#e1e0e0"/>
    <path id="Trazado_659081" data-name="Trazado 659081" d="M1160.607,3218.125h14.078V3191h-14.078v27.13Z" transform="translate(40.846 17.902)" fill="#fff"/>
    <path id="Trazado_659082" data-name="Trazado 659082" d="M1166.775,3218.126c.1,0,.188-6.073.188-13.564s-.084-13.566-.188-13.566-.188,6.073-.188,13.566.084,13.564.188,13.564Z" transform="translate(41.321 17.902)" fill="#e1e0e0"/>
    <path id="Trazado_659083" data-name="Trazado 659083" d="M1160.608,3199.741a131.192,131.192,0,0,0,14.078,0,132.044,132.044,0,0,0-14.078,0Z" transform="translate(40.846 18.582)" fill="#e1e0e0"/>
    <path id="Trazado_659084" data-name="Trazado 659084" d="M1160.539,3208.73a134.218,134.218,0,0,0,14.193,0,133.352,133.352,0,0,0-14.193,0Z" transform="translate(40.84 19.297)" fill="#e1e0e0"/>
    <path id="Trazado_659085" data-name="Trazado 659085" d="M1160.607,3250.953h14.078v-27.13h-14.078v27.13Z" transform="translate(40.846 20.511)" fill="#fff"/>
    <path id="Trazado_659086" data-name="Trazado 659086" d="M1166.775,3250.953c.1,0,.188-6.073.188-13.564s-.084-13.566-.188-13.566-.188,6.072-.188,13.566.084,13.564.188,13.564Z" transform="translate(41.321 20.511)" fill="#e1e0e0"/>
    <path id="Trazado_659087" data-name="Trazado 659087" d="M1160.608,3232.569a131.873,131.873,0,0,0,14.078,0,131.192,131.192,0,0,0-14.078,0Z" transform="translate(40.846 21.192)" fill="#e1e0e0"/>
    <path id="Trazado_659088" data-name="Trazado 659088" d="M1160.539,3241.556a133.352,133.352,0,0,0,14.193,0,134.218,134.218,0,0,0-14.193,0Z" transform="translate(40.84 21.906)" fill="#e1e0e0"/>
    <path id="Trazado_659089" data-name="Trazado 659089" d="M1160.607,3283.78h14.078v-27.129h-14.078v27.129Z" transform="translate(40.846 23.121)" fill="#fff"/>
    <path id="Trazado_659090" data-name="Trazado 659090" d="M1166.775,3283.78c.1,0,.188-6.073.188-13.564s-.084-13.565-.188-13.565-.188,6.072-.188,13.565.084,13.564.188,13.564Z" transform="translate(41.321 23.121)" fill="#e1e0e0"/>
    <path id="Trazado_659091" data-name="Trazado 659091" d="M1160.608,3265.4a131.362,131.362,0,0,0,14.078,0,132.044,132.044,0,0,0-14.078,0Z" transform="translate(40.846 23.801)" fill="#e1e0e0"/>
    <path id="Trazado_659092" data-name="Trazado 659092" d="M1160.539,3274.384a134.218,134.218,0,0,0,14.193,0,133.352,133.352,0,0,0-14.193,0Z" transform="translate(40.84 24.516)" fill="#e1e0e0"/>
    <path id="Trazado_659093" data-name="Trazado 659093" d="M1120.489,3341.331h33.75V3145.449h-33.75v195.881" transform="translate(37.657 14.281)" fill="#e1e0e0"/>
    <path id="Trazado_659094" data-name="Trazado 659094" d="M1129,3185.3h14.078v-27.129H1129V3185.3Z" transform="translate(38.333 15.292)" fill="#fff"/>
    <path id="Trazado_659095" data-name="Trazado 659095" d="M1135.171,3185.3c.1,0,.188-6.073.188-13.564s-.084-13.565-.188-13.565-.188,6.072-.188,13.565.083,13.564.188,13.564Z" transform="translate(38.809 15.292)" fill="#e1e0e0"/>
    <path id="Trazado_659096" data-name="Trazado 659096" d="M1129,3166.914a131.211,131.211,0,0,0,14.079,0,131.38,131.38,0,0,0-14.079,0Z" transform="translate(38.333 15.972)" fill="#e1e0e0"/>
    <path id="Trazado_659097" data-name="Trazado 659097" d="M1128.935,3175.9a134.239,134.239,0,0,0,14.194,0,134.239,134.239,0,0,0-14.194,0Z" transform="translate(38.328 16.687)" fill="#e1e0e0"/>
    <path id="Trazado_659098" data-name="Trazado 659098" d="M1129,3218.4h14.078v-27.13H1129v27.13Z" transform="translate(38.333 17.923)" fill="#fff"/>
    <path id="Trazado_659099" data-name="Trazado 659099" d="M1135.171,3218.4c.1,0,.188-6.073.188-13.565s-.084-13.565-.188-13.565-.188,6.072-.188,13.565.083,13.565.188,13.565Z" transform="translate(38.809 17.923)" fill="#e1e0e0"/>
    <path id="Trazado_659100" data-name="Trazado 659100" d="M1129,3200.011a132.063,132.063,0,0,0,14.079,0,131.211,131.211,0,0,0-14.079,0Z" transform="translate(38.333 18.603)" fill="#e1e0e0"/>
    <path id="Trazado_659101" data-name="Trazado 659101" d="M1128.935,3209a133.373,133.373,0,0,0,14.194,0,134.239,134.239,0,0,0-14.194,0Z" transform="translate(38.328 19.318)" fill="#e1e0e0"/>
    <path id="Trazado_659102" data-name="Trazado 659102" d="M1129,3251.491h14.078v-27.13H1129v27.13Z" transform="translate(38.333 20.554)" fill="#fff"/>
    <path id="Trazado_659103" data-name="Trazado 659103" d="M1135.171,3251.492c.1,0,.188-6.074.188-13.564s-.084-13.566-.188-13.566-.188,6.073-.188,13.566.083,13.564.188,13.564Z" transform="translate(38.809 20.554)" fill="#e1e0e0"/>
    <path id="Trazado_659104" data-name="Trazado 659104" d="M1129,3233.107a131.211,131.211,0,0,0,14.079,0,132.063,132.063,0,0,0-14.079,0Z" transform="translate(38.333 21.234)" fill="#e1e0e0"/>
    <path id="Trazado_659105" data-name="Trazado 659105" d="M1128.935,3242.1a134.065,134.065,0,0,0,14.194,0,133.373,133.373,0,0,0-14.194,0Z" transform="translate(38.328 21.949)" fill="#e1e0e0"/>
    <path id="Trazado_659106" data-name="Trazado 659106" d="M1129,3284.588h14.078v-27.129H1129v27.129" transform="translate(38.333 23.185)" fill="#fff"/>
    <path id="Trazado_659107" data-name="Trazado 659107" d="M1135.171,3284.588c.1,0,.188-6.073.188-13.564s-.084-13.565-.188-13.565-.188,6.072-.188,13.565.083,13.564.188,13.564Z" transform="translate(38.809 23.185)" fill="#e1e0e0"/>
    <path id="Trazado_659108" data-name="Trazado 659108" d="M1129,3266.2a131.891,131.891,0,0,0,14.079,0,131.211,131.211,0,0,0-14.079,0Z" transform="translate(38.333 23.866)" fill="#e1e0e0"/>
    <path id="Trazado_659109" data-name="Trazado 659109" d="M1128.935,3275.192a134.065,134.065,0,0,0,14.194,0,134.239,134.239,0,0,0-14.194,0Z" transform="translate(38.328 24.58)" fill="#e1e0e0"/>
    <path id="Trazado_659110" data-name="Trazado 659110" d="M1160.607,3316.607h14.078v-27.13h-14.078v27.13Z" transform="translate(40.846 25.731)" fill="#fff"/>
    <path id="Trazado_659111" data-name="Trazado 659111" d="M1166.775,3316.608c.1,0,.188-6.073.188-13.565s-.084-13.565-.188-13.565-.188,6.072-.188,13.565.084,13.565.188,13.565Z" transform="translate(41.321 25.731)" fill="#e1e0e0"/>
    <path id="Trazado_659112" data-name="Trazado 659112" d="M1160.608,3298.223a132.044,132.044,0,0,0,14.078,0,131.873,131.873,0,0,0-14.078,0Z" transform="translate(40.846 26.411)" fill="#e1e0e0"/>
    <path id="Trazado_659113" data-name="Trazado 659113" d="M1160.539,3307.21a133.352,133.352,0,0,0,14.193,0,134.392,134.392,0,0,0-14.193,0Z" transform="translate(40.84 27.125)" fill="#e1e0e0"/>
    <path id="Trazado_659114" data-name="Trazado 659114" d="M1129,3317.685h14.078v-27.13H1129v27.13" transform="translate(38.333 25.817)" fill="#fff"/>
    <path id="Trazado_659115" data-name="Trazado 659115" d="M1135.171,3317.685c.1,0,.188-6.073.188-13.565s-.084-13.565-.188-13.565-.189,6.072-.189,13.565.084,13.565.189,13.565" transform="translate(38.809 25.817)" fill="#e1e0e0"/>
    <path id="Trazado_659116" data-name="Trazado 659116" d="M1129,3299.3a132.234,132.234,0,0,0,14.079,0,131.211,131.211,0,0,0-14.079,0" transform="translate(38.333 26.497)" fill="#e1e0e0"/>
    <g id="Grupo_986522" data-name="Grupo 986522" transform="translate(646.816 2965.817)">
      <g id="Grupo_986521" data-name="Grupo 986521" clip-path="url(#clip-path)">
        <path id="Trazado_659117" data-name="Trazado 659117" d="M1128.935,3308.288a133.373,133.373,0,0,0,14.194,0,134.413,134.413,0,0,0-14.194,0" transform="translate(-608.488 -2938.606)" fill="#e1e0e0"/>
        <path id="Trazado_659118" data-name="Trazado 659118" d="M1186.243,3335.45h27.727V3218.2h-27.727V3335.45Z" transform="translate(-603.932 -2945.753)" fill="#ececec"/>
      </g>
    </g>
    <path id="Trazado_659119" data-name="Trazado 659119" d="M1199.334,3242.051h8.428v-16.24h-8.428v16.24Z" transform="translate(43.925 20.669)" fill="#fff"/>
    <path id="Trazado_659120" data-name="Trazado 659120" d="M1203.026,3242.051c.062,0,.112-3.636.112-8.119s-.051-8.121-.112-8.121-.112,3.636-.112,8.121.05,8.119.112,8.119Z" transform="translate(44.209 20.669)" fill="#e1e0e0"/>
    <path id="Trazado_659121" data-name="Trazado 659121" d="M1199.334,3231.046a79.11,79.11,0,0,0,8.428,0,78.429,78.429,0,0,0-8.428,0Z" transform="translate(43.925 21.076)" fill="#e1e0e0"/>
    <path id="Trazado_659122" data-name="Trazado 659122" d="M1199.293,3236.426a80.411,80.411,0,0,0,8.5,0,80.411,80.411,0,0,0-8.5,0Z" transform="translate(43.921 21.504)" fill="#e1e0e0"/>
    <path id="Trazado_659123" data-name="Trazado 659123" d="M1199.334,3261.7h8.428v-16.239h-8.428V3261.7Z" transform="translate(43.925 22.231)" fill="#fff"/>
    <path id="Trazado_659124" data-name="Trazado 659124" d="M1203.026,3261.7c.062,0,.112-3.636.112-8.119s-.051-8.12-.112-8.12-.112,3.635-.112,8.12.05,8.119.112,8.119Z" transform="translate(44.209 22.231)" fill="#e1e0e0"/>
    <path id="Trazado_659125" data-name="Trazado 659125" d="M1199.334,3250.7a78.429,78.429,0,0,0,8.428,0,78.26,78.26,0,0,0-8.428,0Z" transform="translate(43.925 22.639)" fill="#e1e0e0"/>
    <path id="Trazado_659126" data-name="Trazado 659126" d="M1199.293,3256.076a79.719,79.719,0,0,0,8.5,0,79.377,79.377,0,0,0-8.5,0Z" transform="translate(43.921 23.067)" fill="#e1e0e0"/>
    <path id="Trazado_659127" data-name="Trazado 659127" d="M1199.334,3281.351h8.428v-16.239h-8.428v16.239Z" transform="translate(43.925 23.794)" fill="#fff"/>
    <path id="Trazado_659128" data-name="Trazado 659128" d="M1203.026,3281.351c.062,0,.112-3.636.112-8.119s-.051-8.12-.112-8.12-.112,3.635-.112,8.12.05,8.119.112,8.119Z" transform="translate(44.209 23.794)" fill="#e1e0e0"/>
    <path id="Trazado_659129" data-name="Trazado 659129" d="M1199.334,3270.346a78.26,78.26,0,0,0,8.428,0,78.429,78.429,0,0,0-8.428,0Z" transform="translate(43.925 24.201)" fill="#e1e0e0"/>
    <path id="Trazado_659130" data-name="Trazado 659130" d="M1199.293,3275.726a79.719,79.719,0,0,0,8.5,0,79.719,79.719,0,0,0-8.5,0Z" transform="translate(43.921 24.629)" fill="#e1e0e0"/>
    <path id="Trazado_659131" data-name="Trazado 659131" d="M1199.334,3301h8.428v-16.24h-8.428V3301Z" transform="translate(43.925 25.356)" fill="#fff"/>
    <path id="Trazado_659132" data-name="Trazado 659132" d="M1203.026,3301c.062,0,.112-3.637.112-8.12s-.051-8.12-.112-8.12-.112,3.634-.112,8.12.05,8.12.112,8.12Z" transform="translate(44.209 25.356)" fill="#e1e0e0"/>
    <path id="Trazado_659133" data-name="Trazado 659133" d="M1199.334,3290a78.429,78.429,0,0,0,8.428,0,79.11,79.11,0,0,0-8.428,0Z" transform="translate(43.925 25.763)" fill="#e1e0e0"/>
    <path id="Trazado_659134" data-name="Trazado 659134" d="M1199.293,3295.376a79.719,79.719,0,0,0,8.5,0,80.411,80.411,0,0,0-8.5,0Z" transform="translate(43.921 26.191)" fill="#e1e0e0"/>
    <path id="Trazado_659135" data-name="Trazado 659135" d="M1175.32,3335.45h20.2V3218.2h-20.2V3335.45Z" transform="translate(42.016 20.064)" fill="#e1e0e0"/>
    <path id="Trazado_659136" data-name="Trazado 659136" d="M1180.417,3242.051h8.427v-16.24h-8.427v16.24Z" transform="translate(42.421 20.669)" fill="#fff"/>
    <path id="Trazado_659137" data-name="Trazado 659137" d="M1184.108,3242.051c.063,0,.112-3.636.112-8.119s-.05-8.121-.112-8.121-.112,3.636-.112,8.121.051,8.119.112,8.119Z" transform="translate(42.705 20.669)" fill="#e1e0e0"/>
    <path id="Trazado_659138" data-name="Trazado 659138" d="M1180.417,3231.046a79.091,79.091,0,0,0,8.427,0,78.411,78.411,0,0,0-8.427,0Z" transform="translate(42.421 21.076)" fill="#e1e0e0"/>
    <path id="Trazado_659139" data-name="Trazado 659139" d="M1180.376,3236.426a80.393,80.393,0,0,0,8.5,0,80.393,80.393,0,0,0-8.5,0Z" transform="translate(42.417 21.504)" fill="#e1e0e0"/>
    <path id="Trazado_659140" data-name="Trazado 659140" d="M1180.417,3261.862h8.427v-16.24h-8.427v16.24Z" transform="translate(42.421 22.244)" fill="#fff"/>
    <path id="Trazado_659141" data-name="Trazado 659141" d="M1184.108,3261.863c.063,0,.112-3.637.112-8.12s-.05-8.12-.112-8.12-.112,3.635-.112,8.12.051,8.12.112,8.12Z" transform="translate(42.705 22.245)" fill="#e1e0e0"/>
    <path id="Trazado_659142" data-name="Trazado 659142" d="M1180.417,3250.857a79.263,79.263,0,0,0,8.427,0,79.091,79.091,0,0,0-8.427,0Z" transform="translate(42.421 22.652)" fill="#e1e0e0"/>
    <path id="Trazado_659143" data-name="Trazado 659143" d="M1180.376,3256.237a79.7,79.7,0,0,0,8.5,0,80.393,80.393,0,0,0-8.5,0Z" transform="translate(42.417 23.079)" fill="#e1e0e0"/>
    <path id="Trazado_659144" data-name="Trazado 659144" d="M1180.417,3281.674h8.427v-16.24h-8.427v16.24Z" transform="translate(42.421 23.819)" fill="#fff"/>
    <path id="Trazado_659145" data-name="Trazado 659145" d="M1184.108,3281.674c.063,0,.112-3.636.112-8.12s-.05-8.12-.112-8.12-.112,3.635-.112,8.12.051,8.12.112,8.12Z" transform="translate(42.705 23.819)" fill="#e1e0e0"/>
    <path id="Trazado_659146" data-name="Trazado 659146" d="M1180.417,3270.668a78.411,78.411,0,0,0,8.427,0,79.784,79.784,0,0,0-8.427,0Z" transform="translate(42.421 24.227)" fill="#e1e0e0"/>
    <path id="Trazado_659147" data-name="Trazado 659147" d="M1180.376,3276.048a79.7,79.7,0,0,0,8.5,0,80.393,80.393,0,0,0-8.5,0Z" transform="translate(42.417 24.654)" fill="#e1e0e0"/>
    <path id="Trazado_659148" data-name="Trazado 659148" d="M1180.417,3301.485h8.427v-16.24h-8.427v16.24Z" transform="translate(42.421 25.394)" fill="#fff"/>
    <path id="Trazado_659149" data-name="Trazado 659149" d="M1184.108,3301.485c.063,0,.112-3.636.112-8.119s-.05-8.121-.112-8.121-.112,3.635-.112,8.121.051,8.119.112,8.119Z" transform="translate(42.705 25.394)" fill="#e1e0e0"/>
    <path id="Trazado_659150" data-name="Trazado 659150" d="M1180.417,3290.48a78.242,78.242,0,0,0,8.427,0,78.411,78.411,0,0,0-8.427,0Z" transform="translate(42.421 25.802)" fill="#e1e0e0"/>
    <path id="Trazado_659151" data-name="Trazado 659151" d="M1180.376,3295.86a79.7,79.7,0,0,0,8.5,0,79.7,79.7,0,0,0-8.5,0Z" transform="translate(42.417 26.229)" fill="#e1e0e0"/>
    <path id="Trazado_659152" data-name="Trazado 659152" d="M1199.334,3320.651h8.428v-16.24h-8.428v16.24Z" transform="translate(43.925 26.918)" fill="#fff"/>
    <path id="Trazado_659153" data-name="Trazado 659153" d="M1203.026,3320.652c.062,0,.112-3.637.112-8.12s-.051-8.12-.112-8.12-.112,3.635-.112,8.12.05,8.12.112,8.12Z" transform="translate(44.209 26.918)" fill="#e1e0e0"/>
    <path id="Trazado_659154" data-name="Trazado 659154" d="M1199.334,3309.646a79.11,79.11,0,0,0,8.428,0,79.11,79.11,0,0,0-8.428,0Z" transform="translate(43.925 27.325)" fill="#e1e0e0"/>
    <path id="Trazado_659155" data-name="Trazado 659155" d="M1199.293,3315.026a79.719,79.719,0,0,0,8.5,0,80.411,80.411,0,0,0-8.5,0Z" transform="translate(43.921 27.753)" fill="#e1e0e0"/>
    <path id="Trazado_659156" data-name="Trazado 659156" d="M1180.417,3321.3h8.427v-16.24h-8.427v16.24Z" transform="translate(42.421 26.969)" fill="#fff"/>
    <path id="Trazado_659157" data-name="Trazado 659157" d="M1184.108,3321.3c.063,0,.112-3.636.112-8.12s-.05-8.12-.112-8.12-.112,3.636-.112,8.12.051,8.12.112,8.12Z" transform="translate(42.705 26.969)" fill="#e1e0e0"/>
    <path id="Trazado_659158" data-name="Trazado 659158" d="M1180.417,3310.291a79.091,79.091,0,0,0,8.427,0,79.091,79.091,0,0,0-8.427,0Z" transform="translate(42.421 27.377)" fill="#e1e0e0"/>
    <path id="Trazado_659159" data-name="Trazado 659159" d="M1180.376,3315.672a81.275,81.275,0,0,0,8.5,0,79.529,79.529,0,0,0-8.5,0Z" transform="translate(42.417 27.804)" fill="#e1e0e0"/>
    <g id="Grupo_986524" data-name="Grupo 986524" transform="translate(646.816 2965.817)">
      <g id="Grupo_986523" data-name="Grupo 986523" clip-path="url(#clip-path)">
        <path id="Trazado_659160" data-name="Trazado 659160" d="M997.53,3018.256c.436-3.168-4.035-5.775-7.4-6.046-1.6-.128-3.268.117-4.785-.413-3.289-1.146-4.6-5.4-7.812-6.749-2.4-1.011-5.162-.111-7.489,1.06s-4.625,2.644-7.223,2.81c-2.262.145-4.715-.693-6.693.41-1.475.823-2.246,2.522-3.6,3.523a8.6,8.6,0,0,1-4.712,1.277,13.254,13.254,0,0,0-4.857.795c-1.5.687-2.744,2.274-2.433,3.9l57-.562Z" transform="translate(-623.47 -2962.733)" fill="#ececec"/>
        <path id="Trazado_659161" data-name="Trazado 659161" d="M1116.207,2979.465c.436-3.169-4.035-5.775-7.4-6.046-1.6-.129-3.267.116-4.785-.413-3.289-1.146-4.6-5.4-7.812-6.75-2.4-1.011-5.161-.11-7.488,1.061s-4.624,2.644-7.223,2.811c-2.261.143-4.715-.694-6.693.41-1.474.822-2.245,2.521-3.6,3.522a8.593,8.593,0,0,1-4.712,1.278,13.266,13.266,0,0,0-4.856.793c-1.5.688-2.744,2.275-2.433,3.9l57-.562Z" transform="translate(-614.036 -2965.817)" fill="#ececec"/>
        <path id="Trazado_659162" data-name="Trazado 659162" d="M703.867,3099.72c.436-3.168-4.035-5.775-7.4-6.046-1.6-.13-3.268.115-4.785-.413-3.289-1.146-4.6-5.4-7.812-6.749-2.4-1.013-5.162-.111-7.489,1.059s-4.625,2.645-7.223,2.811c-2.26.144-4.716-.694-6.694.41-1.474.823-2.245,2.522-3.6,3.523a8.6,8.6,0,0,1-4.712,1.277,13.308,13.308,0,0,0-4.857.793c-1.5.688-2.744,2.276-2.432,3.9l57-.562Z" transform="translate(-646.816 -2956.257)" fill="#ececec"/>
      </g>
    </g>
    <path id="Trazado_659163" data-name="Trazado 659163" d="M876.032,2986.15c.53-3.844-4.894-7-8.971-7.334-1.943-.157-3.962.141-5.8-.5-3.99-1.391-5.582-6.544-9.476-8.186-2.91-1.228-6.26-.135-9.082,1.285s-5.609,3.207-8.761,3.409c-2.742.175-5.719-.841-8.117.5-1.789,1-2.725,3.058-4.372,4.274a10.432,10.432,0,0,1-5.715,1.549,16.069,16.069,0,0,0-5.891.963c-1.821.833-3.328,2.759-2.949,4.726l69.136-.682Z" transform="translate(12.721 0.301)" fill="#e1e0e0"/>
    <path id="Trazado_659164" data-name="Trazado 659164" d="M1215.654,3116.52c.529-3.843-4.9-7-8.971-7.333-1.943-.158-3.963.14-5.8-.5-3.99-1.391-5.583-6.544-9.476-8.186-2.91-1.227-6.26-.135-9.082,1.286s-5.61,3.206-8.762,3.408c-2.741.176-5.718-.841-8.117.5-1.788,1-2.724,3.058-4.372,4.274a10.431,10.431,0,0,1-5.714,1.549,16.085,16.085,0,0,0-5.892.963c-1.821.833-3.327,2.76-2.949,4.726l69.138-.682Z" transform="translate(39.721 10.665)" fill="#e1e0e0"/>
    <path id="Trazado_659165" data-name="Trazado 659165" d="M1254.228,3326.833s-.525.016-1.546.025l-4.536.024-17.44.044-64.144.077c-54.168.018-128.986.043-211.621.069-82.665-.026-157.489-.051-211.656-.069l-64.141-.077-17.438-.044-4.535-.024c-1.022-.008-1.545-.025-1.545-.025s.522-.016,1.545-.024l4.535-.024,17.438-.045,64.141-.076,211.656-.07,211.621.07,64.144.076,17.44.045,4.536.024c1.021.008,1.546.024,1.546.024" transform="translate(0.7 28.681)" fill="#192e35"/>
    <path id="Trazado_659166" data-name="Trazado 659166" d="M887.56,3051.548H836.438v-30.006H887.56v30.006Z" transform="translate(15.075 4.43)" fill="#e1e0e0"/>
    <path id="Trazado_659167" data-name="Trazado 659167" d="M865.124,3050.621H814v-30.006h51.123v30.006Z" transform="translate(13.291 4.357)" fill="#ececec"/>
    <path id="Trazado_659168" data-name="Trazado 659168" d="M969.9,3059.283H748.022v-12.09H969.9v12.09Z" transform="translate(8.046 6.47)" fill="#e1e0e0"/>
    <path id="Trazado_659169" data-name="Trazado 659169" d="M892.982,3022.666H809.13v-6.507h83.852v6.507Z" transform="translate(12.904 4.002)" fill="#e1e0e0"/>
    <path id="Trazado_659170" data-name="Trazado 659170" d="M914.942,3348.154l-156.021-.2-.265-289.565H914.942v289.761" transform="translate(8.891 7.36)" fill="#ececec"/>
    <path id="Trazado_659171" data-name="Trazado 659171" d="M791.746,3107.671H773.787v-32.3h17.959v32.3Z" transform="translate(10.094 8.71)" fill="#385a65"/>
    <path id="Trazado_659172" data-name="Trazado 659172" d="M791.746,3150.942H773.787v-32.295h17.959v32.295Z" transform="translate(10.094 12.15)" fill="#385a65"/>
    <path id="Trazado_659173" data-name="Trazado 659173" d="M791.746,3194.213H773.787v-32.295h17.959v32.295Z" transform="translate(10.094 15.59)" fill="#385a65"/>
    <path id="Trazado_659174" data-name="Trazado 659174" d="M791.746,3237.485H773.787v-32.3h17.959v32.3Z" transform="translate(10.094 19.03)" fill="#385a65"/>
    <path id="Trazado_659175" data-name="Trazado 659175" d="M791.746,3277.714H773.787v-32.3h17.959v32.3Z" transform="translate(10.094 22.228)" fill="#385a65"/>
    <path id="Trazado_659176" data-name="Trazado 659176" d="M887.456,3107.671H869.5v-32.3h17.959v32.3Z" transform="translate(17.703 8.71)" fill="#385a65"/>
    <path id="Trazado_659177" data-name="Trazado 659177" d="M840.1,3050.18H823.781v-21.087H840.1v21.087Z" transform="translate(14.069 5.031)" fill="#385a65"/>
    <path id="Trazado_659178" data-name="Trazado 659178" d="M887.456,3150.942H869.5v-32.295h17.959v32.295Z" transform="translate(17.703 12.15)" fill="#385a65"/>
    <path id="Trazado_659179" data-name="Trazado 659179" d="M887.456,3194.213H869.5v-32.295h17.959v32.295Z" transform="translate(17.703 15.59)" fill="#385a65"/>
    <path id="Trazado_659180" data-name="Trazado 659180" d="M887.456,3237.485H869.5v-32.3h17.959v32.3Z" transform="translate(17.703 19.03)" fill="#385a65"/>
    <path id="Trazado_659181" data-name="Trazado 659181" d="M887.456,3277.714H869.5v-32.3h17.959v32.3Z" transform="translate(17.703 22.228)" fill="#385a65"/>
    <path id="Trazado_659182" data-name="Trazado 659182" d="M857.746,3348.154H804.795V3058.393h52.951v289.761" transform="translate(12.559 7.36)" fill="#385a65"/>
    <path id="Trazado_659183" data-name="Trazado 659183" d="M804.795,3201.756v-16.121l52.951-44.121v15.4l-52.951,44.845" transform="translate(12.559 13.968)" fill="#778d94"/>
    <path id="Trazado_659184" data-name="Trazado 659184" d="M804.795,3123.654v-16.12l52.951-44.121v15.4l-52.951,44.845" transform="translate(12.559 7.759)" fill="#778d94"/>
    <path id="Trazado_659185" data-name="Trazado 659185" d="M804.795,3251.059V3218.6l52.951-44.12v31.908l-52.951,44.672" transform="translate(12.559 16.589)" fill="#778d94"/>
    <path id="Trazado_659186" data-name="Trazado 659186" d="M947.131,3348.1h-43.7v-292.2h43.7v292.2Z" transform="translate(20.401 7.162)" fill="#e1e0e0"/>
    <path id="Trazado_659187" data-name="Trazado 659187" d="M944.646,3345.969c-.133,0-.383-58.927-.559-131.6-.177-72.7-.214-131.617-.081-131.617s.382,58.915.559,131.615c.176,72.676.213,131.6.081,131.6Z" transform="translate(23.62 9.296)" fill="#192e35"/>
    <path id="Trazado_659188" data-name="Trazado 659188" d="M935,3107.671h-17.96v-32.3H935v32.3Z" transform="translate(21.482 8.71)" fill="#192e35"/>
    <path id="Trazado_659189" data-name="Trazado 659189" d="M935,3150.942h-17.96v-32.295H935v32.295Z" transform="translate(21.482 12.15)" fill="#192e35"/>
    <path id="Trazado_659190" data-name="Trazado 659190" d="M935,3194.213h-17.96v-32.295H935v32.295Z" transform="translate(21.482 15.59)" fill="#192e35"/>
    <path id="Trazado_659191" data-name="Trazado 659191" d="M935,3237.485h-17.96v-32.3H935v32.3Z" transform="translate(21.482 19.03)" fill="#192e35"/>
    <path id="Trazado_659192" data-name="Trazado 659192" d="M935,3277.714h-17.96v-32.3H935v32.3Z" transform="translate(21.482 22.228)" fill="#192e35"/>
    <path id="Trazado_659193" data-name="Trazado 659193" d="M935,3319.848h-17.96v-32.3H935v32.3Z" transform="translate(21.482 25.578)" fill="#192e35"/>
    <path id="Trazado_659194" data-name="Trazado 659194" d="M861.592,3282.049H800.759v-6.077h60.833v6.077" transform="translate(12.238 24.657)" fill="#ececec"/>
    <path id="Trazado_659195" data-name="Trazado 659195" d="M857.746,3110.642H804.795v-3.531h52.951v3.531Z" transform="translate(12.559 11.233)" fill="#192e35"/>
    <path id="Trazado_659196" data-name="Trazado 659196" d="M857.746,3157.969H804.795v-3.531h52.951v3.531Z" transform="translate(12.559 14.995)" fill="#192e35"/>
    <path id="Trazado_659197" data-name="Trazado 659197" d="M857.36,3244.361H804.41v-3.532H857.36v3.532Z" transform="translate(12.528 21.863)" fill="#192e35"/>
    <path id="Trazado_659198" data-name="Trazado 659198" d="M859.606,3203.113H806.655v-3.532h52.951v3.532Z" transform="translate(12.707 18.584)" fill="#192e35"/>
    <path id="Trazado_659199" data-name="Trazado 659199" d="M846.736,3211.674c.086.1-7.818,7.006-17.65,15.424s-17.877,15.162-17.963,15.06,7.816-7,17.652-15.424,17.875-15.16,17.961-15.06Z" transform="translate(13.062 19.546)" fill="#192e35"/>
    <path id="Trazado_659200" data-name="Trazado 659200" d="M847.157,3240.732c.086.1-7.818,7.007-17.651,15.424s-17.877,15.162-17.963,15.062,7.816-7.006,17.652-15.426,17.876-15.16,17.962-15.06Z" transform="translate(13.096 21.855)" fill="#192e35"/>
    <path id="Trazado_659201" data-name="Trazado 659201" d="M845.868,3168.784c.085.1-5.714,5.17-12.952,11.32s-13.177,11.058-13.263,10.957,5.713-5.168,12.953-11.321,13.175-11.057,13.262-10.956Z" transform="translate(13.74 16.136)" fill="#192e35"/>
    <path id="Trazado_659202" data-name="Trazado 659202" d="M831.281,3174.117a103.436,103.436,0,0,1-10.362,9.5,103.757,103.757,0,0,1,10.362-9.5Z" transform="translate(13.841 16.56)" fill="#192e35"/>
    <path id="Trazado_659203" data-name="Trazado 659203" d="M813.48,3141.108c-.08-.106,7.881-6.182,17.779-13.571s17.988-13.294,18.068-13.188-7.88,6.18-17.781,13.572-17.987,13.294-18.065,13.187Z" transform="translate(13.25 11.809)" fill="#192e35"/>
    <path id="Trazado_659204" data-name="Trazado 659204" d="M823.643,3135.518a11.476,11.476,0,0,1,1.832-1.333l4.522-3.047,4.485-3.1a11.426,11.426,0,0,1,1.91-1.222,10.046,10.046,0,0,1-1.709,1.494c-1.1.867-2.652,2.019-4.416,3.224s-3.4,2.231-4.611,2.938a10.069,10.069,0,0,1-2.013,1.047Z" transform="translate(14.058 12.799)" fill="#192e35"/>
    <path id="Trazado_659205" data-name="Trazado 659205" d="M848.291,3068.321a1.922,1.922,0,0,1-.353.345l-1.075.921-4,3.322-13.211,10.932c-5.115,4.275-9.742,8.145-13.158,11l-3.994,3.326-1.1.887a2,2,0,0,1-.4.286,1.892,1.892,0,0,1,.341-.358l1.043-.957,3.9-3.441c3.309-2.885,7.92-6.827,13.072-11.111s9.865-8.1,13.3-10.827l4.093-3.2,1.131-.849a1.9,1.9,0,0,1,.413-.271Z" transform="translate(13.052 8.149)" fill="#192e35"/>
    <path id="Trazado_659206" data-name="Trazado 659206" d="M831.54,3074.457a50.759,50.759,0,0,1-7.754,6.071,50.914,50.914,0,0,1,7.754-6.071Z" transform="translate(14.069 8.636)" fill="#192e35"/>
    <path id="Trazado_659207" data-name="Trazado 659207" d="M786.114,3131.034a58.883,58.883,0,0,1-7.755,7.228,29.49,29.49,0,0,1,3.715-3.789,29.812,29.812,0,0,1,4.041-3.439Z" transform="translate(10.457 13.134)" fill="#192e35"/>
    <path id="Trazado_659208" data-name="Trazado 659208" d="M882.878,3173.834a71.316,71.316,0,0,1-7.893,8.559,70.867,70.867,0,0,1,7.893-8.559Z" transform="translate(18.139 16.537)" fill="#192e35"/>
    <path id="Trazado_659209" data-name="Trazado 659209" d="M787.562,3214.87a79.552,79.552,0,0,1-8.628,8.809,79.529,79.529,0,0,1,8.628-8.809Z" transform="translate(10.503 19.799)" fill="#192e35"/>
    <path id="Trazado_659210" data-name="Trazado 659210" d="M879.9,3252.883a61.561,61.561,0,0,1-7.519,7.8,61.344,61.344,0,0,1,7.519-7.8Z" transform="translate(17.932 22.821)" fill="#192e35"/>
    <path id="Trazado_659211" data-name="Trazado 659211" d="M879.438,3257.779a28.572,28.572,0,0,1-5.1,5.338,28.546,28.546,0,0,1,5.1-5.338Z" transform="translate(18.088 23.211)" fill="#192e35"/>
    <path id="Trazado_659212" data-name="Trazado 659212" d="M887.456,3321.1H869.5v-32.3h17.959v32.3Z" transform="translate(17.703 25.678)" fill="#385a65"/>
    <path id="Trazado_659213" data-name="Trazado 659213" d="M791.625,3320.6H773.666v-32.3h17.959v32.3Z" transform="translate(10.084 25.638)" fill="#385a65"/>
    <path id="Trazado_659214" data-name="Trazado 659214" d="M853.846,3291.118V3281.6h0l.011,9.505-.013.011" transform="translate(16.459 25.105)" fill="#f1f1f1"/>
    <path id="Trazado_659215" data-name="Trazado 659215" d="M809.965,3330.232l-5.032-.017-.1-8.67,45.379-39.943h7.53v9.517l-47.777,39.114" transform="translate(12.562 25.105)" fill="#778d94"/>
    <path id="Trazado_659216" data-name="Trazado 659216" d="M854.4,3281.63H846.87l.2-.173,7.335-.208v.38" transform="translate(15.904 25.077)" fill="#f1f1f1"/>
    <path id="Trazado_659217" data-name="Trazado 659217" d="M853.846,3300.79v-1.465l.027,1.441-.027.024m0-3.954v-.365h0l0,.366" transform="translate(16.459 26.287)" fill="#f1f1f1"/>
    <path id="Trazado_659218" data-name="Trazado 659218" d="M824.025,3329.131l-4.4-.067,36.947-32.592v.364l-.011,1.883.011.607v1.464l-32.542,28.341" transform="translate(13.738 26.287)" fill="#778d94"/>
    <path id="Trazado_659219" data-name="Trazado 659219" d="M828.953,3330.055c-.132,0-.239-10.119-.239-22.6s.107-22.6.239-22.6.239,10.117.239,22.6-.106,22.6-.239,22.6Z" transform="translate(14.461 25.363)" fill="#192e35"/>
    <path id="Trazado_659220" data-name="Trazado 659220" d="M826.747,3314.231h-3.181v-10.964h3.181v10.964Z" transform="translate(14.051 26.827)" fill="#ececec"/>
    <path id="Trazado_659221" data-name="Trazado 659221" d="M834.224,3314.231h-3.18v-10.964h3.18v10.964Z" transform="translate(14.646 26.827)" fill="#ececec"/>
    <path id="Trazado_659222" data-name="Trazado 659222" d="M970.182,3058.41c0,.133-49.736.24-111.075.24-61.359,0-111.085-.107-111.085-.24s49.726-.239,111.085-.239c61.339,0,111.075.107,111.075.239Z" transform="translate(8.046 7.342)" fill="#192e35"/>
    <path id="Trazado_659223" data-name="Trazado 659223" d="M970.182,3047.427c0,.132-49.736.239-111.075.239-61.359,0-111.085-.107-111.085-.239s49.726-.24,111.085-.24c61.339,0,111.075.107,111.075.24Z" transform="translate(8.046 6.469)" fill="#192e35"/>
    <path id="Trazado_659224" data-name="Trazado 659224" d="M893.6,3022.2c0,.132-18.852.238-42.1.238s-42.107-.107-42.107-.238,18.848-.24,42.107-.24,42.1.108,42.1.24Z" transform="translate(12.924 4.464)" fill="#192e35"/>
    <path id="Trazado_659225" data-name="Trazado 659225" d="M758.95,3347.851c-.132,0-.369-64.5-.53-144.042-.161-79.572-.183-144.057-.051-144.057s.369,64.484.529,144.056c.16,79.543.183,144.042.052,144.043Z" transform="translate(8.861 7.468)" fill="#192e35"/>
    <path id="Trazado_659226" data-name="Trazado 659226" d="M772.129,3004.439,735.8,2992.255l-35.971,12.02c-4.592,2.026-8.62,3.239-8.62,7.235v19.9a71.508,71.508,0,0,0,11.85,39.6,72.281,72.281,0,0,0,33.1,27.3c14.7-4.461,25.678-16.354,32.388-26.527a71.5,71.5,0,0,0,11.849-39.6v-17.891c0-5.7-3.232-8.482-8.267-9.852Z" transform="translate(3.53 2.102)" fill="#ef8b53"/>
    <path id="Trazado_659227" data-name="Trazado 659227" d="M735.388,2998.546,704.5,3008.868c-.409.182-.851.371-1.281.556-3.264,1.394-5.843,2.5-5.843,5.252v17.165a62.01,62.01,0,0,0,38.343,57.23c13.751-4.24,23.15-16,27.537-22.651a61.4,61.4,0,0,0,10.147-33.91v-15.436c0-4.235-2.159-6.8-6.794-8.056l-.025-.009-31.194-10.464Zm.281,91.5-.152-.064a62.93,62.93,0,0,1-39.06-58.142v-17.165c0-3.363,2.965-4.63,6.4-6.1.429-.182.867-.369,1.312-.566l31.221-10.436,31.473,10.558c5.019,1.37,7.457,4.294,7.457,8.939v15.436a62.306,62.306,0,0,1-10.3,34.416c-4.472,6.779-14.081,18.79-28.194,23.073l-.158.047Z" transform="translate(3.946 2.525)" fill="#fff"/>
    <path id="Trazado_659228" data-name="Trazado 659228" d="M777.33,2999.925a15.918,15.918,0,0,1,2.43.78,13.169,13.169,0,0,1,2.749,1.459,9.429,9.429,0,0,1,2.892,3.121,11.174,11.174,0,0,1,1.354,5.175c.05,1.971.024,4.106.039,6.412,0,4.612.046,9.882.01,15.752a81.918,81.918,0,0,1-2.527,19.134,80.955,80.955,0,0,1-8.545,20.731,89.516,89.516,0,0,1-15.626,19.69,60.554,60.554,0,0,1-23.386,14.117l-.081.025-.076-.032a95.878,95.878,0,0,1-9.437-4.609,86.519,86.519,0,0,1-9.028-5.938,81.172,81.172,0,0,1-15.769-15.756,82.093,82.093,0,0,1-11.623-21.027,81,81,0,0,1-4.889-22.494c-.286-3.745-.205-7.447-.217-11.074s0-7.209.005-10.724q0-2.636,0-5.225a16.494,16.494,0,0,1,.107-2.608,5.068,5.068,0,0,1,1.091-2.391,11.887,11.887,0,0,1,4.165-2.912c1.511-.711,3.036-1.325,4.519-1.978l.009,0,.01,0L736.2,2986l.051-.016.05.016,30.188,10.2,8.062,2.747,2.077.72c.466.164.7.258.7.258s-.243-.066-.714-.216l-2.09-.678-8.086-2.67L736.2,2986.294h.1l-40.663,13.641.017-.007c-1.489.659-3.013,1.274-4.5,1.98a11.515,11.515,0,0,0-4.014,2.8,4.643,4.643,0,0,0-1,2.2,16.239,16.239,0,0,0-.1,2.531q0,2.589,0,5.225,0,5.273.005,10.724c.015,3.635-.063,7.321.226,11.041a80.643,80.643,0,0,0,4.873,22.362,81.74,81.74,0,0,0,11.56,20.9,80.72,80.72,0,0,0,15.674,15.667,86.085,86.085,0,0,0,8.973,5.909,96.134,96.134,0,0,0,9.384,4.59l-.157-.009a60.189,60.189,0,0,0,23.223-13.991,89.32,89.32,0,0,0,15.578-19.573,80.755,80.755,0,0,0,8.55-20.616,81.958,81.958,0,0,0,2.574-19.051c.019-5.864.038-11.136.055-15.748,0-2.3.032-4.448-.005-6.4a10.993,10.993,0,0,0-1.3-5.1,9.359,9.359,0,0,0-2.822-3.1,13.429,13.429,0,0,0-2.711-1.482c-.772-.323-1.376-.526-1.786-.651s-.613-.2-.613-.2Z" transform="translate(3.083 1.603)" fill="#ed6d64"/>
    <path id="Trazado_659229" data-name="Trazado 659229" d="M732.929,3058.211l-20.512-17.158,5.988-7.158,13.755,11.506,21.063-22.421,6.8,6.389-27.094,28.843Z" transform="translate(5.215 4.544)" fill="#fff"/>
    <path id="Trazado_659230" data-name="Trazado 659230" d="M1117.391,3062.7l6.45-10.984a40.556,40.556,0,1,1,7.06,12.695l.009.022-13.519-1.733Z" transform="translate(37.41 2.579)" fill="#fff"/>
    <path id="Trazado_659231" data-name="Trazado 659231" d="M1117.391,3062.719s.311.029.9.1l2.6.31,10.035,1.222-.108.146-.01-.021-.336-.726.512.615a40.483,40.483,0,0,0,16.033,11.748,39.286,39.286,0,0,0,5.958,1.879,44.926,44.926,0,0,0,6.622.933,40.179,40.179,0,0,0,42.783-40.816,39.557,39.557,0,0,0-4.831-18.458l-1.219-2.164c-.449-.692-.936-1.358-1.4-2.036a39.658,39.658,0,0,0-3.06-3.831c-.515-.632-1.147-1.151-1.713-1.729-.595-.549-1.129-1.164-1.769-1.654l-1.884-1.5c-.318-.243-.614-.515-.949-.733l-1-.652a40.921,40.921,0,0,0-17.285-6.509,40.065,40.065,0,0,0-17.322,1.606,40.359,40.359,0,0,0-23.235,19.275l-.793,1.531-.392.757-.315.784q-.619,1.566-1.214,3.079a54.92,54.92,0,0,0-1.545,6.078,40.337,40.337,0,0,0,1.491,19.755l.015.044-.024.04c-2.109,3.538-3.732,6.258-4.835,8.109q-.827,1.376-1.261,2.1c-.285.474-.442.722-.442.722s.124-.232.393-.7l1.206-2.1c1.088-1.879,2.686-4.642,4.765-8.234l-.009.084a40.322,40.322,0,0,1-1.609-19.875,55.129,55.129,0,0,1,1.534-6.132l1.213-3.11.316-.791.392-.764q.4-.767.8-1.548a40.748,40.748,0,0,1,40.932-21.165,41.342,41.342,0,0,1,17.491,6.571l1.016.658c.338.221.638.5.96.741l1.906,1.522c.648.5,1.19,1.116,1.791,1.671.573.585,1.212,1.111,1.735,1.75a40.176,40.176,0,0,1,3.1,3.877c.469.685.963,1.359,1.417,2.06l1.234,2.189a40.75,40.75,0,0,1,1,36.722,40.86,40.86,0,0,1-24.831,21.46,40.394,40.394,0,0,1-14.567,1.682,45.353,45.353,0,0,1-6.676-.962,39.707,39.707,0,0,1-6-1.919,40.5,40.5,0,0,1-16.075-11.909l.175-.11.01.022.078.172-.186-.026L1120.8,3063.2l-2.565-.353c-.571-.079-.849-.124-.849-.124Z" transform="translate(37.41 2.563)" fill="#192e35"/>
    <path id="Trazado_659232" data-name="Trazado 659232" d="M1172.177,3053.605h-29.414v-29.414h29.414v29.414Z" transform="translate(39.427 4.641)" fill="#e1e0e0"/>
    <path id="Trazado_659233" data-name="Trazado 659233" d="M1172.2,3053.623a.947.947,0,0,1-.012-.148c0-.113-.006-.247-.011-.415-.006-.39-.014-.92-.024-1.594-.013-1.416-.031-3.439-.055-6-.025-5.163-.062-12.484-.1-21.258l.206.208-29.411.031c-.056.052.45-.45.236-.233v4q0,1.987,0,3.933c0,2.6,0,5.134-.006,7.6-.009,4.937-.016,9.6-.024,13.874l-.206-.206,21.257.105,6,.054,1.594.024.415.012a1.059,1.059,0,0,1,.148.011,3.8,3.8,0,0,1-.517.025l-1.554.024-5.953.054-21.389.1h-.207v-.208c-.008-4.276-.015-8.937-.024-13.874,0-2.47,0-5.009-.007-7.6q0-1.946,0-3.933v-4c-.214.211.29-.3.242-.244l29.411.031h.207v.206c-.042,8.827-.08,16.2-.1,21.389-.025,2.54-.042,4.547-.055,5.952-.01.658-.018,1.174-.025,1.555a3.644,3.644,0,0,1-.023.516Z" transform="translate(39.406 4.623)" fill="#192e35"/>
    <path id="Trazado_659234" data-name="Trazado 659234" d="M1162.029,3050.012l-17.68-14.789,5.161-6.169,11.855,9.917,18.154-19.325,5.862,5.507-23.353,24.86Z" transform="translate(39.553 4.28)" fill="#385a65"/>
    <path id="Trazado_659235" data-name="Trazado 659235" d="M1046.429,3153l-21.744-14.538c-7.24-1.706-15.367,3.48-16.871,10.765-7.193-1.5-14.818,3.529-17.3,10.448s-.3,14.977,4.469,20.565,11.8,8.9,19.01,10.332c10.371,2.057,22.5-.21,28.707-8.765,5.831-8.033,4.906-18.952,3.725-28.807Z" transform="translate(27.242 13.699)" fill="#192e35"/>
    <path id="Trazado_659236" data-name="Trazado 659236" d="M1133.923,3141.525a19.893,19.893,0,0,0-11.352-17.51c2.483-8.683,5.226-17.806,3.3-26.63-4.345-19.94-22.314-22.68-31.344-22.547l-29.7,18.953c-7.945,9.016,2.036,58.465,5.617,69.937a35.863,35.863,0,0,0,25.1,23.656c8.3,2.061,17.794.748,24.13-5s8.352-16.327,3.2-23.158a19.893,19.893,0,0,0,11.045-17.7Z" transform="translate(32.993 8.667)" fill="#192e35"/>
    <path id="Trazado_659237" data-name="Trazado 659237" d="M987.339,3218.314l2.751,121.75,162.28.64s-12.039-170.905-15.544-172.575c-2.617-1.246-34.676-11.761-34.676-11.761l-14.26-4.15-58.936,11.306-21.375,4.681-20.24,50.109" transform="translate(27.071 14.819)" fill="#385a65"/>
    <path id="Trazado_659238" data-name="Trazado 659238" d="M999.036,3196.875c0-.317,15.5-30.795,15.5-30.795-15.189,1.6-28.752,6.961-37.57,18.525-4.1,5.377-5.942,13.533-7.983,19.344-1.384,3.938-10.471,56.928-10.471,56.928l36,14.75,4.518-78.753Z" transform="translate(24.78 15.921)" fill="#385a65"/>
    <path id="Trazado_659239" data-name="Trazado 659239" d="M1054.127,3241.673l-33.962-78.349c-12.375,2.777-26.286,5.9-35.153,11.607l4.686,57.592-.682,107.295,65.009.34,4-76.356-3.9-22.129" transform="translate(26.886 15.702)" fill="#ef8b53"/>
    <path id="Trazado_659240" data-name="Trazado 659240" d="M1135.631,3262.459l-7-96.775-39.422-12.628-40.266,88.776v99.142l99.506-.332-12.817-78.182" transform="translate(31.969 14.886)" fill="#ef8b53"/>
    <path id="Trazado_659241" data-name="Trazado 659241" d="M1135.649,3262.479s.094.464.252,1.375.386,2.27.688,4.042c.594,3.563,1.469,8.8,2.594,15.549,2.234,13.511,5.464,33.049,9.453,57.188l.033.2h-.2l-99.505.387h-.229v-.229c0-24.282-.007-50.712-.012-78.145,0-7.081,0-14.094,0-21v-.052l.022-.048,40.29-88.764.078-.173.18.058q21.186,6.8,39.415,12.652l.12.039.01.125c2.11,29.644,3.832,53.836,5.027,70.625.585,8.389,1.041,14.925,1.35,19.374.149,2.216.262,3.911.339,5.06s.1,1.73.1,1.73-.06-.584-.152-1.724-.22-2.84-.393-5.053c-.334-4.446-.823-10.981-1.451-19.364-1.234-16.79-3.012-40.979-5.19-70.621l.13.164-39.431-12.6.258-.114-40.243,88.787.021-.1c0,6.9,0,13.916,0,21,0,27.433-.007,53.863-.011,78.145l-.229-.228,99.506-.276-.169.2c-3.925-24.153-7.1-43.7-9.3-57.219-1.086-6.752-1.93-12-2.5-15.562-.281-1.773-.494-3.128-.639-4.048s-.2-1.381-.2-1.381" transform="translate(31.951 14.866)" fill="#192e35"/>
    <path id="Trazado_659242" data-name="Trazado 659242" d="M1129.6,3270.309H989.887v-18.268H1129.6v18.268" transform="translate(27.274 22.755)" fill="#fff"/>
    <path id="Trazado_659243" data-name="Trazado 659243" d="M1123.392,3166.034s9.088-.1,22.245,23.539c14.771,26.544,24.213,60.238,24.213,60.238l-36.374,19.852-10.085-103.629Z" transform="translate(37.887 15.917)" fill="#385a65"/>
    <path id="Trazado_659244" data-name="Trazado 659244" d="M997.327,3168.846l3.954,170.859,15.562.084-5.39-174.957s-11.682,2.74-14.126,4.014" transform="translate(27.865 15.822)" fill="#fff"/>
    <path id="Trazado_659245" data-name="Trazado 659245" d="M1099.791,3157.284l-4.76,183.106h20.34l.948-177.592-16.528-5.514" transform="translate(35.633 15.221)" fill="#fff"/>
    <path id="Trazado_659246" data-name="Trazado 659246" d="M1142.045,3313.893v-5.48c.027-.008.042-.014.042-.022s-.015-.013-.042-.019V3306.8l2.126,3.966a9.912,9.912,0,0,1-2.126,3.129" transform="translate(39.37 27.108)" fill="#9e9d9d"/>
    <path id="Trazado_659247" data-name="Trazado 659247" d="M1139.482,3316.545c-.162-2.229-.342-4.722-.541-7.429,1.857-.029,3.161-.081,3.406-.14v5.48a11.666,11.666,0,0,1-2.865,2.09m2.865-7.61c-.245-.062-1.56-.112-3.43-.141-.205-2.807-.429-5.846-.668-9.079l4.1,7.646v1.574" transform="translate(39.068 26.545)" fill="#b4b4b4"/>
    <path id="Trazado_659248" data-name="Trazado 659248" d="M1138.892,3308.448c-.008-.108-.016-.214-.024-.323,1.87.029,3.184.08,3.43.141.027.006.042.013.042.019s-.015.014-.042.022c-.245.06-1.549.111-3.406.14" transform="translate(39.118 27.213)" fill="#9e9d9d"/>
    <path id="Trazado_659249" data-name="Trazado 659249" d="M1139.635,3316.864c-1.255-7.593-2.419-14.631-3.481-21.059l2.261,4.221c.24,3.233.463,6.271.668,9.079.008.109.016.214.024.323.2,2.707.379,5.2.541,7.429l-.013.008" transform="translate(38.902 26.234)" fill="#243d44"/>
    <path id="Trazado_659250" data-name="Trazado 659250" d="M1135.041,3320.9a13.17,13.17,0,0,1-2.494-.234c-5.42-1.047-9.926-4.976-12.97-9.582a56.848,56.848,0,0,1-5.543-11.784l.16-29.976h5.542v-4.942l17.806,33.227,3.559,21.9a13.861,13.861,0,0,1-6.06,1.393" transform="translate(37.143 23.736)" fill="#bf6f42"/>
    <path id="Trazado_659251" data-name="Trazado 659251" d="M1139.37,3317.063l-3.559-21.9.37.691c1.062,6.427,2.226,13.466,3.481,21.059-.1.051-.194.1-.292.148" transform="translate(38.875 26.183)" fill="#101e23"/>
    <path id="Trazado_659252" data-name="Trazado 659252" d="M1119.724,3270.078h-5.542l.081-15.132,5.461,10.189v4.943" transform="translate(37.155 22.985)" fill="#b4b4b4"/>
    <path id="Trazado_659253" data-name="Trazado 659253" d="M1061.717,3207.257a22.321,22.321,0,0,1-.925-4.521l3.957-2.159q-1.508,3.32-3.032,6.68" transform="translate(32.911 18.663)" fill="#243d44"/>
    <path id="Trazado_659254" data-name="Trazado 659254" d="M1099.77,3256.825h-2.277c-3.63-7.515-7.358-14.987-11.082-22.453-1.481-2.969-3.025-6.02-5.527-8.2-2.6-2.26-5.98-3.366-8.946-5.117a23.5,23.5,0,0,1-10.092-12.463l3.482-7.685,16.6-9.053,18.629,34.762-.785,30.208" transform="translate(32.994 17.97)" fill="#bf6f42"/>
    <path id="Trazado_659255" data-name="Trazado 659255" d="M1061.862,3207.927q-.112-.32-.213-.644l3.032-6.68.662-.362-3.481,7.685" transform="translate(32.979 18.637)" fill="#101e23"/>
    <path id="Trazado_659256" data-name="Trazado 659256" d="M1097.028,3256.542q-1.074-2.254-2.16-4.5h2.277l-.117,4.5" transform="translate(35.62 22.755)" fill="#b4b4b4"/>
    <path id="Trazado_659257" data-name="Trazado 659257" d="M1115.4,3302.508c-.407-1.1-.8-2.2-1.207-3.3-5.056-13.778-11.01-27.19-17.323-40.446l.117-4.5.785-30.208,17.869,33.343-.081,15.132-.16,29.976" transform="translate(35.779 20.53)" fill="#b4b4b4"/>
    <path id="Trazado_659258" data-name="Trazado 659258" d="M1054.041,3241.054s.019.608.029,1.8.017,2.962.029,5.26c.013,4.623.031,11.4.055,20.044.021,17.3.05,42.085.084,72.042v.2h-.2l-65.115-.35h-.23v-.231c.12-19.277.249-40.066.382-61.555.1-15.911.2-31.435.3-46.355v.02c-1.618-20.2-3.149-39.316-4.562-56.939l-.01-.13.109-.067a75.874,75.874,0,0,1,17.911-7.511c5.984-1.783,11.829-3.136,17.427-4.392l.151-.033.062.141c10.308,23.913,18.721,43.423,24.558,56.964,2.9,6.762,5.164,12.031,6.7,15.62.76,1.787,1.342,3.152,1.737,4.081s.574,1.4.574,1.4-.223-.468-.629-1.385l-1.789-4.068c-1.562-3.583-3.857-8.842-6.8-15.591l-24.7-56.87.213.108c-5.594,1.265-11.43,2.625-17.394,4.413a75.526,75.526,0,0,0-17.8,7.487l.1-.2c1.425,17.621,2.971,36.74,4.6,56.935v.021c-.094,14.919-.19,30.445-.29,46.355-.139,21.49-.275,42.279-.4,61.555l-.229-.232,65.115.413-.2.2c.037-29.956.065-54.738.085-72.042.024-8.638.042-15.408.055-20.028.012-2.3.022-4.065.028-5.265s.03-1.807.03-1.807" transform="translate(26.87 15.664)" fill="#192e35"/>
    <path id="Trazado_659259" data-name="Trazado 659259" d="M997.751,3072.781a11.615,11.615,0,0,1,9.1-17.8l18.36,2.687q-2.673,15.511-5.345,31.022c-.512,2.969-1.111,6.121-3.176,8.313a10.536,10.536,0,0,1-7.794,2.9,15.9,15.9,0,0,1-11.144-27.12Z" transform="translate(27.535 7.088)" fill="#192e35"/>
    <path id="Trazado_659260" data-name="Trazado 659260" d="M1052.517,3193.871c15.338-.033,31.921-16.191,32.22-31.527l1.639-84.031c1.273-24.776-12.084-46.168-36.886-46.754l-2.3.08a44.347,44.347,0,0,0-42.772,42.285c-.984,21.481-.14,40.877.4,52.363,1.119,23.78,23.337,27.579,23.337,27.579.053,0-1.913,20.93,1.356,27.105,7.32,13.826,13.148,12.64,23,12.9" transform="translate(28.393 5.227)" fill="#f8baa0"/>
    <path id="Trazado_659261" data-name="Trazado 659261" d="M1026.227,3145.639s15.026.359,30.657-10.233c0,0-7.1,18.012-30.909,16.694l.253-6.461Z" transform="translate(30.143 13.482)" fill="#f39470"/>
    <path id="Trazado_659262" data-name="Trazado 659262" d="M1014.495,3088.7a3.4,3.4,0,0,0,3.4,3.314,3.252,3.252,0,0,0,3.4-3.185,3.4,3.4,0,0,0-3.391-3.316,3.253,3.253,0,0,0-3.4,3.187Z" transform="translate(29.23 9.516)" fill="#192e35"/>
    <path id="Trazado_659263" data-name="Trazado 659263" d="M1009.849,3079.621c.436.429,2.944-1.565,6.6-1.683,3.65-.169,6.4,1.618,6.779,1.157.187-.206-.27-.991-1.467-1.8a9.325,9.325,0,0,0-5.447-1.476,8.962,8.962,0,0,0-5.234,1.893c-1.094.9-1.447,1.715-1.232,1.907Z" transform="translate(28.856 8.745)" fill="#192e35"/>
    <path id="Trazado_659264" data-name="Trazado 659264" d="M1045.324,3088.7a3.4,3.4,0,0,0,3.4,3.313,3.251,3.251,0,0,0,3.4-3.185,3.4,3.4,0,0,0-3.392-3.316,3.254,3.254,0,0,0-3.4,3.188Z" transform="translate(31.681 9.516)" fill="#192e35"/>
    <path id="Trazado_659265" data-name="Trazado 659265" d="M1043.07,3079.841c.436.427,2.948-1.566,6.6-1.684,3.65-.168,6.4,1.619,6.78,1.157.187-.2-.265-.99-1.467-1.8a9.319,9.319,0,0,0-5.446-1.476,8.978,8.978,0,0,0-5.235,1.892c-1.091.9-1.447,1.718-1.233,1.909Z" transform="translate(31.497 8.762)" fill="#192e35"/>
    <path id="Trazado_659266" data-name="Trazado 659266" d="M1032.513,3108.252c.01-.208-2.277-.522-5.975-.866-.936-.063-1.827-.218-2.006-.851a4.744,4.744,0,0,1,.527-2.788q1.2-3.433,2.514-7.2c3.482-10.254,5.968-18.672,5.555-18.809s-3.574,8.064-7.056,18.318c-.837,2.529-1.638,4.938-2.4,7.244-.317,1.073-.883,2.3-.357,3.681a2.344,2.344,0,0,0,1.583,1.312,6.39,6.39,0,0,0,1.592.165c3.712.071,6.012.008,6.019-.2Z" transform="translate(29.915 8.897)" fill="#192e35"/>
    <path id="Trazado_659267" data-name="Trazado 659267" d="M1035.066,3119.112a4.511,4.511,0,0,0,3.178,1.292,4.835,4.835,0,0,0,3.326-1.442c1.584-1.455,1.884-3.807,1.584-5.817a2.493,2.493,0,0,0-.368-.964,1.9,1.9,0,0,0-.118-.541,4.245,4.245,0,0,0-2.365-2.4,5.484,5.484,0,0,0-3.457-.163,5.281,5.281,0,0,0-3.557,4.33,6.664,6.664,0,0,0,1.777,5.705Z" transform="translate(30.718 11.373)" fill="#f39470"/>
    <path id="Trazado_659268" data-name="Trazado 659268" d="M1043.979,3109.023c-.572-.169-1.491,3.692-5.447,5.654s-7.968.565-8.126,1.1c-.11.23.74.967,2.468,1.426a9.9,9.9,0,0,0,6.733-.7,8.606,8.606,0,0,0,4.318-4.8c.53-1.582.325-2.639.055-2.68Z" transform="translate(30.494 11.385)" fill="#192e35"/>
    <path id="Trazado_659269" data-name="Trazado 659269" d="M1042.2,3068.084c.4.981,4.03.383,8.336.752,4.315.281,7.817,1.416,8.356.505.239-.436-.4-1.349-1.83-2.264a14.551,14.551,0,0,0-12.715-.958c-1.552.688-2.319,1.5-2.147,1.965Z" transform="translate(31.43 7.892)" fill="#192e35"/>
    <path id="Trazado_659270" data-name="Trazado 659270" d="M1010.751,3067.126c.673.807,3.161-.142,6.188-.288,3.022-.251,5.612.365,6.173-.525.243-.429-.189-1.248-1.338-2a8.964,8.964,0,0,0-9.958.655c-1.041.89-1.362,1.757-1.064,2.154Z" transform="translate(28.924 7.735)" fill="#192e35"/>
    <path id="Trazado_659271" data-name="Trazado 659271" d="M1079.511,3090.873c.4-.189,16.178-5.4,16.223,10.88s-16.311,12.969-16.34,12.5.118-23.383.118-23.383Z" transform="translate(34.389 9.867)" fill="#f8baa0"/>
    <path id="Trazado_659272" data-name="Trazado 659272" d="M1083.986,3107.687c.071-.053.284.2.764.416a2.834,2.834,0,0,0,2.119.038c1.72-.635,3.16-3.371,3.232-6.306a9.4,9.4,0,0,0-.805-4.059,3.289,3.289,0,0,0-2.14-2.172,1.447,1.447,0,0,0-1.673.784c-.217.455-.112.779-.2.809-.044.041-.351-.272-.221-.946a1.814,1.814,0,0,1,.638-1.021,2.138,2.138,0,0,1,1.568-.419,3.989,3.989,0,0,1,2.971,2.516,9.627,9.627,0,0,1,1,4.535c-.095,3.282-1.765,6.357-4.118,7.043a3.036,3.036,0,0,1-2.6-.423c-.505-.4-.591-.764-.535-.793Z" transform="translate(34.753 10.254)" fill="#f39470"/>
    <path id="Trazado_659273" data-name="Trazado 659273" d="M1060.9,3055.137c1.924-1.912,4.731-2.609,7.423-2.936a37.932,37.932,0,0,1,20.643,3.338c3.355,1.585,6.587,3.79,8.4,7.029s1.836,7.679-.716,10.371a11.414,11.414,0,0,1-9.13,20.706,7.4,7.4,0,0,1-11.206,5.607,11.659,11.659,0,0,1-2.93-2.638c-3.12-4-3.433-11.577-2.57-16.572a10.823,10.823,0,0,1-8.344-4.419,20.987,20.987,0,0,1-3.69-8.964c-.786-4-.766-8.65,2.122-11.521Z" transform="translate(32.716 6.846)" fill="#192e35"/>
    <path id="Trazado_659274" data-name="Trazado 659274" d="M1073,3015.025c1.111.23,27.817,8.157,33.254,28.8s3.038,26.717,3.038,26.717a13.282,13.282,0,0,1,2.669,2.622c1.04,1.4-1.031,7.654-4.522,6.7-25.7-13.481-56.97-16.747-91.965-17.986l-26.716-2.111c-7.545.372-10.04-1.791-6.758-3.459,2.516-1.28,24.331-8.4,24.331-8.4l4.377-2.767,12.061-14.576s-1.223-2.221,1.6-3.815,26.723-16.283,48.636-11.733" transform="translate(26.535 3.843)" fill="#ef8b53"/>
    <path id="Trazado_659275" data-name="Trazado 659275" d="M1088.653,3027.73l-.071-.016c-1.074-1.036-2.19-2.006-3.329-2.912a18.387,18.387,0,0,1,3.4,2.927" transform="translate(34.855 4.69)" fill="#b4b4b4"/>
    <path id="Trazado_659276" data-name="Trazado 659276" d="M1035.062,3031.767a4.483,4.483,0,0,1-2.394-.625s7-5.494,19.495-8.814a67.314,67.314,0,0,1,16.815-2.165c7.531,0,15.067,1.379,20.455,5.01,1.139.906,2.255,1.875,3.329,2.912-1.109-.251-15.075-3.353-27.834-3.353-5.408,0-10.6.557-14.5,2.125l1.569-.663-12.723,4.615a12.88,12.88,0,0,1-4.211.96" transform="translate(30.675 4.321)" fill="#bf6f42"/>
    <path id="Trazado_659277" data-name="Trazado 659277" d="M1094.283,3028.309a20.851,20.851,0,0,0-2.5-1.889,36.534,36.534,0,0,0-7.625-3.872,43.4,43.4,0,0,0-12.4-2.624,36.427,36.427,0,0,0-15.359,1.959,65.492,65.492,0,0,0-7.328,3.344c-2.294,1.22-4.557,2.278-6.625,3.505a39.452,39.452,0,0,1-5.909,3.218,12.646,12.646,0,0,1-5.721.763c-7.187-.378-11.5-2.156-11.144-2.59a1.145,1.145,0,0,0,.536.605,9.234,9.234,0,0,0,2.157.888,39.082,39.082,0,0,0,8.435,1.413,12.9,12.9,0,0,0,5.871-.732,38.934,38.934,0,0,0,5.987-3.21c2.039-1.2,4.323-2.257,6.614-3.469a66.448,66.448,0,0,1,7.282-3.314,36.408,36.408,0,0,1,15.178-1.969,43.968,43.968,0,0,1,12.318,2.51,38.552,38.552,0,0,1,7.638,3.721c.852.536,1.5.978,1.922,1.294s.677.447.677.447Z" transform="translate(29.64 4.293)" fill="#192e35"/>
    <path id="Trazado_659278" data-name="Trazado 659278" d="M1099.691,3054.333c-.191-1.271-.426-2.651-.715-4.144a29.213,29.213,0,0,1,.715,4.144" transform="translate(35.946 6.707)" fill="#b4b4b4"/>
    <path id="Trazado_659279" data-name="Trazado 659279" d="M1102.806,3055.422c-12.537-1.709-20.8-4.485-32.715-8.6-2.091-.721-7.132-2.882-8.624-4.515a6.078,6.078,0,0,1-1.475-5.79c2.511,3.183,7.361,4.511,11.444,5.906,5.379,1.839,10.8,3.162,16.266,4.74,5.125,1.481,9.008,3.1,14.244,3.487,0,0,.059.243.146.623.288,1.493.524,2.874.715,4.144v0" transform="translate(32.831 5.621)" fill="#bf6f42"/>
    <path id="Trazado_659280" data-name="Trazado 659280" d="M1099.263,3040.023c3.222,1.659,5.194,2.764,5.1,5.6-.074,2.358-.743,5.2-3.087,5.462a5.772,5.772,0,0,1-2.125-.3l-35.677-9.68a5.382,5.382,0,0,1-3.22-1.757c-1.086-1.587-.077-3.916,1.581-4.889s3.7-.954,5.618-.863c10.916.521,21.422,3.03,31.807,6.428" transform="translate(32.832 5.385)" fill="#ef8b53"/>
    <path id="Trazado_659281" data-name="Trazado 659281" d="M1060.791,3040.017a3.474,3.474,0,0,1-.868-1.641,4.542,4.542,0,0,1,1.787-4.465c1.794-1.2,4.534-1.466,7.379-1.127,2.891.336,6.069.75,9.383,1.3a96.085,96.085,0,0,1,16.676,4.113c2.078.724,3.72,1.419,4.854,1.9l1.3.571a2.113,2.113,0,0,0,.466.173,2.069,2.069,0,0,0-.427-.254l-1.265-.65c-1.114-.533-2.743-1.276-4.817-2.042a88.089,88.089,0,0,0-16.712-4.257c-3.325-.549-6.509-.951-9.412-1.266s-5.713-.04-7.611,1.282a4.7,4.7,0,0,0-1.769,4.761,3.083,3.083,0,0,0,.655,1.278,1.6,1.6,0,0,0,.383.323Z" transform="translate(32.819 5.282)" fill="#192e35"/>
    <path id="Trazado_659282" data-name="Trazado 659282" d="M1016.474,3033.6l22.781,1.029-2.345,6.284-24.7-2.157,4.266-5.155Z" transform="translate(29.048 5.389)" fill="#fff"/>
    <path id="Trazado_659283" data-name="Trazado 659283" d="M1050.11,3055.073c.025-.122-10.022-2.24-22.436-4.73s-22.5-4.411-22.528-4.289,10.021,2.24,22.44,4.73,22.5,4.411,22.525,4.289Z" transform="translate(28.487 6.379)" fill="#192e35"/>
    <path id="Trazado_659284" data-name="Trazado 659284" d="M1020.044,3164.984l6.426-11.608,24.769,31.678,34.518-42.606,5.049,12.992-26.776,46.842-11.36-15.4-2.7.393-9.37,16.28-20.561-38.574Z" transform="translate(29.671 14.042)" fill="#e1e0e0"/>
    <path id="Trazado_659285" data-name="Trazado 659285" d="M1071.2,3184.937a8.362,8.362,0,0,1-.736,1.173c-.5.743-1.21,1.819-2.065,3.175a92.481,92.481,0,0,0-6,11.1l-.182.4-.239-.374c-.227-.355-.469-.734-.714-1.117-2.91-4.4-5.892-8.163-7.9-11-1.013-1.41-1.807-2.569-2.334-3.385a8.707,8.707,0,0,1-.768-1.3,9.567,9.567,0,0,1,.921,1.194c.629.843,1.455,1.952,2.451,3.291,2.072,2.779,5.093,6.5,8.025,10.936l.719,1.126-.42.028a79.452,79.452,0,0,1,6.157-11.08c.9-1.337,1.654-2.388,2.195-3.1a7.414,7.414,0,0,1,.882-1.071Z" transform="translate(32.074 17.315)" fill="#192e35"/>
    <path id="Trazado_659286" data-name="Trazado 659286" d="M1095.964,3074a3.09,3.09,0,0,1,.651.7,11.312,11.312,0,0,1,1.347,2.238,12.668,12.668,0,0,1-3.929,15.563,11.267,11.267,0,0,1-2.249,1.329,3.123,3.123,0,0,1-.906.309,25.062,25.062,0,0,0,2.946-1.9,12.844,12.844,0,0,0,3.829-15.163,24.759,24.759,0,0,0-1.689-3.073Z" transform="translate(35.303 8.6)" fill="#385a65"/>
    <path id="Trazado_659287" data-name="Trazado 659287" d="M1049.956,3185.552a1.281,1.281,0,0,1-.122.336c-.111.251-.249.561-.418.942-.376.817-.947,2-1.709,3.479a114.018,114.018,0,0,1-6.94,11.648l-.2.3-.173-.319c-1.756-3.248-3.68-6.81-5.7-10.55-4-7.481-7.616-14.25-10.265-19.21-1.274-2.43-2.313-4.415-3.062-5.845-.336-.661-.6-1.193-.812-1.6a.315.315,0,1,1,.084-.045l.891,1.558,3.2,5.775c2.683,4.942,6.342,11.688,10.388,19.143l5.671,10.568-.376-.021a130.969,130.969,0,0,0,7.068-11.522c.758-1.427,1.369-2.576,1.817-3.419l.48-.91a1.294,1.294,0,0,1,.187-.3Z" transform="translate(29.691 15.768)" fill="#192e35"/>
    <path id="Trazado_659288" data-name="Trazado 659288" d="M963.624,3233.907l-13.216,37.865-19.8-23.021L904.279,3265.1l33.5,44.815c9.072,12.929,24.044,16.986,32.225,15.034,16.676-3.98,25.547-25.562,25.547-25.562l-.094-20.686-3.56-30.667-28.269-14.131" transform="translate(20.468 21.313)" fill="#385a65"/>
    <path id="Trazado_659289" data-name="Trazado 659289" d="M959.716,3197.876s50.879,55.275,61.312,65.4c4.981,4.836,15.5,11.313,15.5,11.313l-15.776,1.835-61.037-78.551Z" transform="translate(24.875 18.448)" fill="#e1e0e0"/>
    <path id="Trazado_659290" data-name="Trazado 659290" d="M1015.939,3280.6l-.194-6.316,5.493-.008,7.33,6.288s-5.282.034-12.628.036m-15.174-.051c-3.961-.03-7.939-.075-11.625-.144q.021-3.031.04-6.085l11.44-.016.145,6.245" transform="translate(27.214 24.522)" fill="#cd4f40"/>
    <path id="Trazado_659291" data-name="Trazado 659291" d="M988.737,3275.391l-.124-1.077h.11l.016.751c0,.109,0,.219,0,.327" transform="translate(27.172 24.525)" fill="#b4b4b4"/>
    <path id="Trazado_659292" data-name="Trazado 659292" d="M988.731,3275.064l-.016-.751h.021c0,.25,0,.5,0,.751" transform="translate(27.181 24.525)" fill="#243d44"/>
    <path id="Trazado_659293" data-name="Trazado 659293" d="M1014.6,3280.595c-4.415,0-9.533-.012-14.679-.051l-.145-6.245,15.125-.021.194,6.316h-.5" transform="translate(28.06 24.522)" fill="#b4b4b4"/>
    <path id="Trazado_659294" data-name="Trazado 659294" d="M989.172,3280.4l-.409-.007-.023-4.9-.012-.1c0-.108,0-.218,0-.327,0-.249,0-.5,0-.751h.477q-.02,3.052-.04,6.085" transform="translate(27.182 24.525)" fill="#101e23"/>
    <path id="Trazado_659295" data-name="Trazado 659295" d="M992.2,3280.391c-4.523-.086-8.587-.207-11.613-.374-14.235-.786-35.1-5.64-35.1-5.64l46.553-.062.124,1.077.012.1.023,4.9" transform="translate(23.744 24.525)" fill="#243d44"/>
    <path id="Trazado_659296" data-name="Trazado 659296" d="M963.2,3191.441l-91.215-2.235,79.349,91.937,84.2,2.295-72.333-92Z" transform="translate(17.901 17.759)" fill="#192e35"/>
    <path id="Trazado_659297" data-name="Trazado 659297" d="M922.436,3223.228a4.221,4.221,0,0,0-4.586-4.246c-1.343.1-3.1.265-5.253.554-5.567.75-21.867,9.437-22.2,12.74-.49,4.845,2.015,6.627,2.015,6.627s-3.089,4.391-1.781,7.9c1.123,3,6.019,3.888,6.019,3.888s-3.465,4.317.358,7.178c1.327.993,3.989,2.9,4.612,3.546a11.636,11.636,0,0,0,1.1,2.551,9.843,9.843,0,0,0,7.246,3.849l.934.054a7.164,7.164,0,0,0,4.962-1.61c6.307-5.165,24.138-20.106,24.371-24.092,0,0,3.4-2.833,1.928-5.638s-6.629-1.389-6.629-1.389a4.272,4.272,0,0,0,1.15-4.947c-1.3-2.946-10.534-2.378-14.713-1.692-3.327.546-12.6,2.371-12.6,2.371s12.266-4.663,12.932-6.8a3.275,3.275,0,0,0,.138-.837Z" transform="translate(19.357 20.126)" fill="#f8baa0"/>
    <path id="Trazado_659298" data-name="Trazado 659298" d="M939.059,3240.456a8.6,8.6,0,0,1-1.225.8c-.8.491-1.985,1.165-3.469,1.958-2.963,1.6-7.155,3.618-11.88,5.621s-9.082,3.636-12.249,4.76c-1.585.563-2.873,1-3.767,1.292a9.01,9.01,0,0,1-1.4.405,8.739,8.739,0,0,1,1.344-.574l3.715-1.428c3.137-1.2,7.464-2.881,12.182-4.877s8.917-3.968,11.91-5.487c1.5-.753,2.7-1.383,3.532-1.825a9.015,9.015,0,0,1,1.313-.642Z" transform="translate(20.53 21.834)" fill="#f39470"/>
    <path id="Trazado_659299" data-name="Trazado 659299" d="M935.164,3233.828a8,8,0,0,1-1.348.336c-.868.2-2.13.476-3.671.881-3.091.782-7.292,2.1-11.886,3.715-2.3.813-4.507,1.532-6.464,2.3s-3.7,1.533-5.141,2.207-2.592,1.264-3.384,1.673a9.271,9.271,0,0,1-1.245.615c-.008-.014.091-.09.286-.221s.488-.318.871-.55c.768-.458,1.9-1.094,3.33-1.809s3.161-1.518,5.127-2.308,4.171-1.523,6.468-2.337a115.8,115.8,0,0,1,11.96-3.6c1.559-.366,2.834-.592,3.716-.741a8.161,8.161,0,0,1,1.382-.16Z" transform="translate(20.289 21.306)" fill="#f39470"/>
    <path id="Trazado_659300" data-name="Trazado 659300" d="M908.98,3229.992a9.853,9.853,0,0,1-1.96,1.129c-1.245.634-3,1.432-4.93,2.31s-3.658,1.714-4.9,2.347a13.32,13.32,0,0,1-2.034.98,9.509,9.509,0,0,1,1.877-1.265,53.622,53.622,0,0,1,4.86-2.48c1.939-.88,3.709-1.63,4.984-2.186a12.5,12.5,0,0,1,2.1-.834Z" transform="translate(19.743 21.001)" fill="#f39470"/>
    <path id="Trazado_659301" data-name="Trazado 659301" d="M933.318,3247.36a6.749,6.749,0,0,1-.826,1c-.562.616-1.4,1.492-2.465,2.533-2.123,2.1-5.244,4.794-8.6,7.847-.833.762-1.622,1.551-2.449,2.249a27.537,27.537,0,0,1-2.483,1.881,17.051,17.051,0,0,1-4.756,2.266,10.6,10.6,0,0,1-3.526.435,6.121,6.121,0,0,1-.96-.1.96.96,0,0,1-.328-.077c.005-.046.465.014,1.291,0a11.541,11.541,0,0,0,3.43-.568,17.615,17.615,0,0,0,4.613-2.306,28.587,28.587,0,0,0,2.426-1.87c.808-.69,1.588-1.474,2.432-2.245,3.368-3.067,6.513-5.714,8.687-7.745,1.094-1.008,1.959-1.845,2.559-2.421a7.322,7.322,0,0,1,.954-.876Z" transform="translate(20.678 22.383)" fill="#f39470"/>
    <path id="Trazado_659302" data-name="Trazado 659302" d="M935.28,3188.368l-40.038-.5a.962.962,0,0,0-.744,1.587l8.723,10.208,39.517,1.2a.963.963,0,0,0,.788-1.519l-7.472-10.566a.965.965,0,0,0-.775-.406Z" transform="translate(19.672 17.653)" fill="#e1e0e0"/>
    <path id="Trazado_659303" data-name="Trazado 659303" d="M935.349,3188.845l-.041,0-40.037-.5a.521.521,0,0,0-.4.86l8.6,10.059,39.323,1.192a.508.508,0,0,0,.45-.282.513.513,0,0,0-.037-.541l-7.473-10.564a.52.52,0,0,0-.378-.217Zm-32.3,11.283-8.85-10.357a1.4,1.4,0,0,1,1.085-2.317l40.039.5a1.4,1.4,0,0,1,1.129.594l7.472,10.564a1.405,1.405,0,0,1-1.149,2.216l-39.727-1.2Z" transform="translate(19.64 17.62)" fill="#192e35"/>
    <g id="Grupo_986526" data-name="Grupo 986526" transform="translate(646.816 2965.817)">
      <g id="Grupo_986525" data-name="Grupo 986525" clip-path="url(#clip-path)">
        <path id="Trazado_659304" data-name="Trazado 659304" d="M964.925,3294.946a39.741,39.741,0,0,0,.064-5.193,23.4,23.4,0,0,0-13.552-19.582,39.421,39.421,0,0,0-4.883-1.769,1.081,1.081,0,0,1,.364.033c.234.044.585.087,1.023.2a20.711,20.711,0,0,1,3.636,1.225,22.914,22.914,0,0,1,13.75,19.867,20.949,20.949,0,0,1-.133,3.835c-.049.45-.131.795-.172,1.029a1.07,1.07,0,0,1-.1.351Z" transform="translate(-622.987 -2941.762)" fill="#192e35"/>
        <path id="Trazado_659305" data-name="Trazado 659305" d="M1089.326,3226.5s19.987,49.484,29.048,67.34c9.387,18.5,23.344,49.5,51.306,33.3,22.879-13.26,2.153-82.889,2.153-82.889l-20.586,9.3-30.455-48.718-31.466,21.674Z" transform="translate(-611.637 -2946.816)" fill="#385a65"/>
      </g>
    </g>
    <path id="Trazado_659306" data-name="Trazado 659306" d="M1103.426,3151.241a2.6,2.6,0,0,0-3.591-1.542c-2.121,1.005-5.245,3.394-5.985,8.869-1.144,8.477.435,14.46-1.551,16.678s-26.9,3.981-28.83,7.619c-1.859,3.51-.761,6.673-.844,8.467a2.6,2.6,0,0,1-.75,1.7c-1.131,1.158-3.044,3.772-1.212,6.915a2.7,2.7,0,0,1,.095,2.573,5.46,5.46,0,0,0,1.262,6.645,2.759,2.759,0,0,1,.581.836c.748,1.745,3.657,7.944,7.811,9.214a31.243,31.243,0,0,0,9.57,1.041,2.565,2.565,0,0,1,1.782.631c2.1,1.828,9.08,6.289,11.147,8.992,0,0,25.723-17.979,27.334-18.83,0,0-11.592-17.684-12.174-25.793-.621-8.643-6.062-18.723-4.6-26.826.641-3.542.413-5.787-.047-7.192Z" transform="translate(32.84 14.599)" fill="#f8baa0"/>
    <path id="Trazado_659307" data-name="Trazado 659307" d="M1089.326,3226.524a.69.69,0,0,1,.141-.119l.435-.323,1.713-1.224c1.532-1.073,3.722-2.608,6.471-4.536l22.579-15.657.19-.132.126.194c3.313,5.1,6.907,10.7,10.609,16.569l21.669,34.729c2.779,4.412,5.032,7.991,6.61,10.5l1.792,2.856.457.75a1.371,1.371,0,0,1,.141.263,1.265,1.265,0,0,1-.182-.237l-.5-.724c-.444-.668-1.07-1.608-1.867-2.808-1.61-2.448-3.92-6-6.738-10.417-5.656-8.817-13.27-21.127-21.788-34.654-3.7-5.869-7.285-11.477-10.581-16.579l.315.063-22.676,15.516-6.545,4.429-1.753,1.165-.458.293a.636.636,0,0,1-.162.087Z" transform="translate(35.179 18.978)" fill="#192e35"/>
    <path id="Trazado_659308" data-name="Trazado 659308" d="M1169.833,3275.227a3.681,3.681,0,0,1-.5-.823q-.505-.959-1.214-2.309a40.647,40.647,0,0,0-4.613-7.194,18.373,18.373,0,0,0-6.7-5.131,24.584,24.584,0,0,0-3.383-1.033,3.1,3.1,0,0,1,.963.05,11.4,11.4,0,0,1,2.547.67,17.447,17.447,0,0,1,6.935,5.135,35.047,35.047,0,0,1,4.549,7.35c.476,1,.839,1.813,1.081,2.382a3.8,3.8,0,0,1,.329.9Z" transform="translate(40.275 23.285)" fill="#192e35"/>
  </g>
</svg>
