<svg xmlns="http://www.w3.org/2000/svg" width="400" height="330" viewBox="0 0 400 330">
  <g id="Grupo_952203" data-name="Grupo 952203" transform="translate(-810 -7937.505)">
    <rect id="Rectángulo_306538" data-name="Rectángulo 306538" width="400" height="330" transform="translate(810 7937.505)" fill="none"/>
    <g id="Grupo_986693" data-name="Grupo 986693" transform="translate(180.713 4448.1)">
      <rect id="Rectángulo_310961" data-name="Rectángulo 310961" width="350.685" height="6.64" rx="3.32" transform="translate(651.433 3778.643)" fill="#ccdef2"/>
      <path id="Trazado_659655" data-name="Trazado 659655" d="M747.827,3632.779l7.329,36.236,18.412-2.85" transform="translate(-33.831 -38.694)" fill="none" stroke="#e5785c" stroke-linecap="round" stroke-linejoin="round" stroke-width="16.676"/>
      <rect id="Rectángulo_310962" data-name="Rectángulo 310962" width="100.671" height="6.068" transform="translate(902.373 3766.593)" fill="#72504c"/>
      <line id="Línea_765" data-name="Línea 765" x2="5.429" y2="15.743" transform="translate(761.361 3704.013)" fill="none" stroke="#354242" stroke-linecap="round" stroke-linejoin="round" stroke-width="34.47"/>
      <line id="Línea_766" data-name="Línea 766" x2="25.153" y2="76.001" transform="translate(736.299 3628.918)" fill="none" stroke="#354242" stroke-linecap="round" stroke-linejoin="round" stroke-width="12.926"/>
      <path id="Trazado_659656" data-name="Trazado 659656" d="M827.792,3855.735H804.263v-36.02h23.529Z" transform="translate(-53.638 -104.302)" fill="#354242"/>
      <g id="Grupo_986695" data-name="Grupo 986695" transform="translate(788.806 3759.032)">
        <g id="Grupo_986693-2" data-name="Grupo 986693" transform="translate(144.386 7.335)">
          <path id="Trazado_659657" data-name="Trazado 659657" d="M1102.784,3898.222c3.323,0,6.016,3.762,6.016,8.4s-2.693,8.4-6.016,8.4h-8.5v-16.808Z" transform="translate(-1088.616 -3898.222)" fill="#1d2021"/>
          <ellipse id="Elipse_7747" data-name="Elipse 7747" cx="6.016" cy="8.404" rx="6.016" ry="8.404" transform="translate(0 0)" fill="#2d3133"/>
          <path id="Trazado_659658" data-name="Trazado 659658" d="M1091.158,3909.375c0,1.833,1.064,3.32,2.377,3.32s2.376-1.487,2.376-3.32-1.064-3.32-2.376-3.32S1091.158,3907.542,1091.158,3909.375Z" transform="translate(-1087.519 -3900.971)" fill="#9099a3"/>
        </g>
        <g id="Grupo_986694" data-name="Grupo 986694" transform="translate(157.909 7.335)">
          <path id="Trazado_659659" data-name="Trazado 659659" d="M1123.62,3898.222c3.322,0,6.016,3.762,6.016,8.4s-2.693,8.4-6.016,8.4h-8.5v-16.808Z" transform="translate(-1109.452 -3898.222)" fill="#3b3f42"/>
          <ellipse id="Elipse_7748" data-name="Elipse 7748" cx="6.016" cy="8.404" rx="6.016" ry="8.404" transform="translate(0 0)" fill="#2d3133"/>
          <path id="Trazado_659660" data-name="Trazado 659660" d="M1111.995,3909.375c0,1.833,1.064,3.32,2.376,3.32s2.377-1.487,2.377-3.32-1.064-3.32-2.377-3.32S1111.995,3907.542,1111.995,3909.375Z" transform="translate(-1108.355 -3900.971)" fill="#9099a3"/>
        </g>
        <rect id="Rectángulo_310963" data-name="Rectángulo 310963" width="161.769" height="7.961" transform="translate(43.429)" fill="#ff881d"/>
        <rect id="Rectángulo_310964" data-name="Rectángulo 310964" width="172.627" height="7.961" fill="#e2620c"/>
        <rect id="Rectángulo_310965" data-name="Rectángulo 310965" width="5.19" height="7.961" transform="translate(200.007)" fill="#ff881d"/>
        <rect id="Rectángulo_310966" data-name="Rectángulo 310966" width="95.936" height="6.068" transform="translate(66.035 7.56)" fill="#72504c"/>
      </g>
      <g id="Grupo_986699" data-name="Grupo 986699" transform="translate(766.344 3757.114)">
        <path id="Trazado_659661" data-name="Trazado 659661" d="M847.943,3883.965c.073,0,.151,0,.225,0,4.9.169,8.841,5.928,8.841,13.017,0,7.194-4.06,13.029-9.066,13.029h-6.37l-.776-26.051" transform="translate(-832.804 -3883.965)" fill="#3c4949"/>
        <g id="Grupo_986698" data-name="Grupo 986698">
          <g id="Grupo_986697" data-name="Grupo 986697">
            <path id="Trazado_659662" data-name="Trazado 659662" d="M839.123,3908.676c-3.158,0-5.907-4.227-6.128-9.424-.009-.223-.016-.454-.016-.685,0-5.382,2.871-10.1,6.144-10.1h.064l.06,0c2.908.1,6.023,4.183,6.023,10.1,0,5.386-2.873,10.11-6.147,10.11Z" transform="translate(-830.06 -3885.544)" fill="#9099a3"/>
            <g id="Grupo_986696" data-name="Grupo 986696">
              <path id="Trazado_659663" data-name="Trazado 659663" d="M837.527,3889.8h.041c.93.032,3.206,2.589,3.206,7.184,0,4.475-2.243,7.192-3.23,7.192-.85,0-3.028-2.324-3.211-6.621-.008-.189-.014-.379-.014-.57,0-4.444,2.214-7.154,3.208-7.186m.017-5.837c-5.006,0-9.062,5.83-9.062,13.023,0,.27.008.54.019.81.291,6.818,4.225,12.219,9.044,12.218,5.006,0,9.066-5.835,9.066-13.029,0-7.088-3.938-12.848-8.841-13.017-.074,0-.151,0-.225,0Z" transform="translate(-828.482 -3883.965)" fill="#333332"/>
            </g>
          </g>
        </g>
      </g>
      <g id="Grupo_986703" data-name="Grupo 986703" transform="translate(752.049 3757.114)">
        <path id="Trazado_659664" data-name="Trazado 659664" d="M826.484,3883.965c.073,0,.151,0,.224,0,4.9.169,8.842,5.928,8.842,13.017,0,7.194-4.06,13.029-9.066,13.029h-6.1l1.125-26.051" transform="translate(-811.345 -3883.965)" fill="#3c4949"/>
        <g id="Grupo_986702" data-name="Grupo 986702" transform="translate(0)">
          <g id="Grupo_986701" data-name="Grupo 986701">
            <path id="Trazado_659665" data-name="Trazado 659665" d="M817.1,3908.676c-3.158,0-5.907-4.227-6.128-9.424-.01-.223-.016-.454-.016-.685,0-5.382,2.871-10.1,6.144-10.1h.064l.06,0c2.908.1,6.023,4.183,6.023,10.1,0,5.386-2.873,10.11-6.147,10.11Z" transform="translate(-808.035 -3885.544)" fill="#9099a3"/>
            <g id="Grupo_986700" data-name="Grupo 986700">
              <path id="Trazado_659666" data-name="Trazado 659666" d="M815.5,3889.8h.041c.93.032,3.206,2.589,3.206,7.184,0,4.475-2.243,7.192-3.23,7.192-.85,0-3.028-2.324-3.211-6.621-.008-.189-.014-.379-.014-.57,0-4.444,2.213-7.154,3.208-7.186m.018-5.837c-5.006,0-9.062,5.83-9.062,13.023,0,.27.007.54.018.81.291,6.818,4.226,12.219,9.044,12.218,5.006,0,9.066-5.835,9.066-13.029,0-7.088-3.938-12.848-8.842-13.017-.073,0-.151,0-.224,0Z" transform="translate(-806.457 -3883.965)" fill="#333332"/>
            </g>
          </g>
        </g>
      </g>
      <rect id="Rectángulo_310967" data-name="Rectángulo 310967" width="31.129" height="13.822" rx="6.463" transform="translate(741.578 3743.399)" fill="#354242"/>
      <g id="Grupo_986704" data-name="Grupo 986704" transform="translate(755.718 3709.263)">
        <path id="Trazado_659667" data-name="Trazado 659667" d="M858.38,3866.163H812.109l7.3-55.923h33.373Z" transform="translate(-812.109 -3810.24)" fill="#ea6a13"/>
        <path id="Trazado_659668" data-name="Trazado 659668" d="M872.492,3866.161H834.764a6.127,6.127,0,0,1-6.231-7.1l5.45-41.713a8.4,8.4,0,0,1,8.088-7.1H854a9.01,9.01,0,0,1,2.9.51,10.655,10.655,0,0,1,6.514,6.287l13.995,42.321C878.649,3863.111,876.434,3866.161,872.492,3866.161Z" transform="translate(-817.852 -3810.243)" fill="#b74d2c"/>
        <path id="Trazado_659669" data-name="Trazado 659669" d="M884.338,3883H837.284l2.241-7.957,2.017-7.122c1.061-4.464,3.67-7.09,7.611-7.09H867.61a9.461,9.461,0,0,1,8.75,7.09l3.172,7.122Z" transform="translate(-820.945 -3827.997)" fill="#ea6a13"/>
      </g>
      <g id="Grupo_986705" data-name="Grupo 986705" transform="translate(736.693 3755.225)">
        <path id="Trazado_659670" data-name="Trazado 659670" d="M863.321,3891.376H782.978l-.181-10.32h80.524Z" transform="translate(-782.797 -3881.056)" fill="#ea6a13"/>
        <rect id="Rectángulo_310968" data-name="Rectángulo 310968" width="69.486" height="10.313" rx="5.157" transform="translate(26.24 0.002)" fill="#b74d2c"/>
      </g>
      <g id="Grupo_986718" data-name="Grupo 986718" transform="translate(666.035 3522.528)">
        <g id="Grupo_986717" data-name="Grupo 986717">
          <g id="Grupo_986715" data-name="Grupo 986715" transform="translate(0 1.816)">
            <g id="Grupo_986714" data-name="Grupo 986714">
              <path id="Trazado_659671" data-name="Trazado 659671" d="M741.921,3896.83a2.1,2.1,0,0,0,.389,1.793c1.085,4.143,12.463,2.73,12.922,2.3s1.705-11.811,1.518-12.347-7.718-.7-8.8-.755-3.9-1.5-3.379-1.143C744.789,3886.824,742.2,3895.756,741.921,3896.83Z" transform="translate(-697.767 -3652.128)" fill="#332316"/>
              <path id="Trazado_659672" data-name="Trazado 659672" d="M704.4,3914.158c.844.818.332,5.4-.97,5.6-.69.108-4.881.378-7.164.471a43.5,43.5,0,0,1-12.554-2.184c-1.7-.64-4.809-1.862-4.809-1.862s-4.522-1.2-4.765-1.315-.2-2.03-.2-2.03,10.539-1.482,10.941-1.308,8.844,4.852,8.844,4.852l9.766-2Z" transform="translate(-673.931 -3660.863)" fill="#332316"/>
              <path id="Trazado_659673" data-name="Trazado 659673" d="M690.285,3725.187l.252,18.186,37.916-4.449-.039-31.072" transform="translate(-679.671 -3589.385)" fill="#602c34"/>
              <g id="Grupo_986706" data-name="Grupo 986706" transform="translate(43.406 242.627)">
                <path id="Trazado_659674" data-name="Trazado 659674" d="M741.464,3902.97s-.319,2.361,3.871,2.023c4-.322,5.948-5.119,5.948-5.119l6.464-.722a14.753,14.753,0,0,0,1.154,3.6c1.5,1.854,5.318,5.4,5.318,5.4l7.467-.255s.9,5.951-1.391,6.135-6.809.511-8.714.665-12.094-1.638-12.094-1.638-8.562.8-8.568.686C740.484,3905.646,741.464,3902.97,741.464,3902.97Z" transform="translate(-740.808 -3899.153)" fill="#332316"/>
              </g>
              <path id="Trazado_659675" data-name="Trazado 659675" d="M740.708,3922.146l13.011-.661-.04-1.974-5.842-.975-7.45.458Z" transform="translate(-697.255 -3663.328)" fill="#332316"/>
              <path id="Trazado_659676" data-name="Trazado 659676" d="M674.258,3917.751l7.412,2.275.858-1.107.232-1.565-1.3-1.152-7.454-.524Z" transform="translate(-673.957 -3662.325)" fill="#332316"/>
              <path id="Trazado_659677" data-name="Trazado 659677" d="M772.413,3908.186v.016a6.918,6.918,0,0,1-.067,1c-.033.167-.067.316-.1.466,0,.017-.017.05-.017.067l-.05.15a.754.754,0,0,1-.016.083.591.591,0,0,0-.067.15c0,.033-.017.05-.017.067a1.661,1.661,0,0,1-.116.25l-.05.1-.05.1a.736.736,0,0,1-.083.117c-.017.032-.034.049-.05.082a1.143,1.143,0,0,1-.134.167l-.049.05a.71.71,0,0,1-.1.117c-.017.017-.05.033-.067.05a.87.87,0,0,1-.133.1c-.017,0-.017.017-.034.017a.39.39,0,0,1-.182.1c-.017.017-.034.017-.05.034l-.15.05c-.017,0-.034.016-.067.016a.794.794,0,0,1-.2.034l-3.912.317c-1.432.116-2.9.232-3.945.316-.25.016-.483.033-.666.05a.816.816,0,0,1-.2.017h-.234a.461.461,0,0,1-.149-.017h-.316a.287.287,0,0,0-.117-.017c-.083,0-.15-.017-.233-.017h-.116c-.084-.016-.167-.016-.267-.033h-.084a1.788,1.788,0,0,0-.316-.034.125.125,0,0,1-.066-.017,3.109,3.109,0,0,1-.367-.033c-1.914-.2-4.478-.566-6.558-.882s-3.7-.583-3.7-.583-8.906.782-8.922.682c-.066-1.131-.084-2.164-.084-3.1v-.367c.051-5.425.983-7.307.983-7.307s.566,3.063,5.111,2.23c3.179-.583,4.162-3.745,4.411-4.994a3.27,3.27,0,0,0,.1-.516l1.549-.133,3.729-.3,1.382-.116s.083.416.216.965v.016c.017.083.051.15.067.233a.128.128,0,0,0,.017.067,1.342,1.342,0,0,0,.066.249.059.059,0,0,0,.017.05,1.356,1.356,0,0,0,.066.25v.034a1.788,1.788,0,0,1,.084.283.062.062,0,0,1,.016.05,2.228,2.228,0,0,1,.083.267.016.016,0,0,1,.017.016,3.848,3.848,0,0,0,.966,1.8c1.7,1.914,4.861,4.727,4.861,4.727a27.09,27.09,0,0,0,4.212.049c2.014-.149,4,.483,4.128,2.215A.775.775,0,0,0,772.413,3908.186Z" transform="translate(-697.23 -3655.671)" fill="#4f342f"/>
              <path id="Trazado_659678" data-name="Trazado 659678" d="M758.28,3899.626l-17.962,8.29c.051-5.426.983-7.308.983-7.308s.566,3.063,5.111,2.231c3.179-.583,4.162-3.746,4.411-4.994l5.377-.949Z" transform="translate(-697.23 -3655.734)" fill="#332316"/>
              <g id="Grupo_986707" data-name="Grupo 986707" transform="translate(0.006 231.986)">
                <path id="Trazado_659679" data-name="Trazado 659679" d="M683.926,3899.073c-1.728-.416-6.325-1.862-6.907-.219a19.434,19.434,0,0,0-.747,4.569c.005.2,1.856,2.961,2.231,2.729s5.132-.507,5.006-.924S683.926,3899.073,683.926,3899.073Z" transform="translate(-674.759 -3888.138)" fill="#4f342f"/>
                <path id="Trazado_659680" data-name="Trazado 659680" d="M678.195,3893.063a2.918,2.918,0,0,0-.1,1.7c1.085,4.143,12.463,2.73,12.922,2.3s1.705-11.81,1.518-12.347-7.717-.7-8.8-.755-3.9-1.5-3.378-1.143C680.576,3882.959,678.475,3891.99,678.195,3893.063Z" transform="translate(-675.372 -3882.758)" fill="#332316"/>
                <path id="Trazado_659681" data-name="Trazado 659681" d="M703.738,3912.711c-2.23.316-6.792.4-6.792.4-.366,0-1.6.034-2.264-.016-.134-.017-.267-.017-.417-.034a.765.765,0,0,1-.182-.016c-2.814-.25-9.822-1.4-12.319-2.664a36.766,36.766,0,0,0-4.794-1.648c-1.615-.483-3.03-.849-3.03-.9a32.63,32.63,0,0,1,.6-4.378,19.558,19.558,0,0,1,.915-3.347,7.34,7.34,0,0,1,.849-1.7c-.1.267-1.149,3.18,3.646,2.947,3.779-.183,4.1-4.079,4.1-4.079l9.7.45s-.516,3.279-.516,3.413a6.036,6.036,0,0,0,.766,1.2,28.777,28.777,0,0,0,3.113,3.2h-.033a.444.444,0,0,1,.1.066s3.646,1.948,5.943,2a1.853,1.853,0,0,1,1.815,2.047C705.1,3911.047,704.6,3912.579,703.738,3912.711Z" transform="translate(-673.941 -3887.854)" fill="#4f342f"/>
                <path id="Trazado_659682" data-name="Trazado 659682" d="M694.819,3902.341c-.365-.5-1.316-.517-3.448-.158-3.181.533-12.971,1.387-15.1-2.056v-.017a19.545,19.545,0,0,1,.755-1.829c-.1.267.6-1.4,4.031-.754,3.717.7,3.8-.247,3.8-.247l9.7.45s-.516,3.279-.516,3.413A6.039,6.039,0,0,0,694.819,3902.341Z" transform="translate(-674.76 -3887.854)" fill="#332316"/>
              </g>
              <g id="Grupo_986708" data-name="Grupo 986708" transform="translate(1.9 114.493)">
                <path id="Trazado_659683" data-name="Trazado 659683" d="M683.275,3830.922c7.674,1.913,14.009,1.85,14.723.112.23-.574,1.057-5.891,2.059-12.76.141-.979.288-1.98.434-3.01.1-.692.2-1.389.3-2.093q.211-1.493.434-3.021c1.784-12.636,4.754-32.513,4.754-32.513,1.594-6.509.279-6.806,2.4-74.106l-21.424-1.8-1.514,7.5c-.551-.5-1.834,14.374-1.834,16.36,0,28.231.451,53.121.3,53.678l-4.028,27.359-.433,2.954-.3,2.037-.433,2.953-1.761,11.961S675.59,3829.014,683.275,3830.922Z" transform="translate(-676.858 -3701.731)" fill="#ef8b53"/>
              </g>
              <path id="Trazado_659684" data-name="Trazado 659684" d="M746.584,3829.787s-4.842.618-8.99.771v.043c-4.06.032-11.606,1.052-11.606,1.052l-.6-11.356-.141-2.627-.043-.652v-.043l-.108-2.172-.021-.4-.032-.629-.1-1.791-.022-.391-.01-.1-.152-2.758-.022-.4-1.509-28.3a40.959,40.959,0,0,0-.565-4.245c-2.464-9.37-4.06-31.117-3.919-37.686l-11.661-34.786,22.355-5.493s1.878,14.19,4.854,27.273c4.028,17.7,9.978,47.153,10.141,51.593l1.151,28.575.076,1.781.065,1.51.055,1.411.011.325.076,1.618.054,1.368.065,1.9v.022l.01.26.141,3.312Z" transform="translate(-685.567 -3585.865)" fill="#ef8b53"/>
              <g id="Grupo_986709" data-name="Grupo 986709" transform="translate(36.175 52.249)">
                <path id="Trazado_659685" data-name="Trazado 659685" d="M737.955,3640.912l-1.233-6.6c-1.2-6.4-2.823-13.451-3.854-17.545l-1.639-6.512s-4.467-4.426,1.712-4.426c7.314,0,11.7,5.759,12.992,12.471,1.357,7.057,4.207,20.221,4.207,20.221Z" transform="translate(-729.668 -3605.828)" fill="#ffe14e"/>
                <path id="Trazado_659686" data-name="Trazado 659686" d="M746.724,3646.28l-4.359-21.237-8.427,23.521Z" transform="translate(-731.166 -3612.572)" fill="#d64404" opacity="0.5"/>
              </g>
              <path id="Trazado_659687" data-name="Trazado 659687" d="M687.717,3723.19l.474,15.319c.193,4.465,3.566,1.538,7.986.876l23.349-3.5a9.739,9.739,0,0,0,8.023-9.331l-.037-25.09" transform="translate(-678.769 -3587.144)" fill="#ef8b53"/>
              <path id="Trazado_659688" data-name="Trazado 659688" d="M699.02,3605.772h18.4c5.958.049,10.643,5.464,10.643,11.82,0,0-1.121,53.648-1.266,57.718-.015.419-1.053,1.248-1.053,1.248s2.778-1.937-12.818-1.814c-18.34.144-25.669,17.167-25.669,17.167v-74.653C687.255,3610.9,693.062,3605.724,699.02,3605.772Z" transform="translate(-678.607 -3553.56)" fill="#ffe14e"/>
              <path id="Trazado_659689" data-name="Trazado 659689" d="M698.765,3629.864l-1.694-.416h-.454l-5.306,3.537-1.769,22.057,2.727,6.347,12.776-4.89.624-17.063Z" transform="translate(-679.41 -3561.869)" fill="#d64404" opacity="0.5"/>
              <path id="Trazado_659690" data-name="Trazado 659690" d="M727.714,3655.584s-.25,12.468-.483,30.78c0,0-40.1,31.94-40.1,16.075,0-.484-.049-1.032-.082-1.665-.018-.3-.018-.6-.018-.881-.4-12.7.267-51.267.267-51.267l3.729,1.631v6.526a32.8,32.8,0,0,1,5.127-.35,4.579,4.579,0,0,0,1.465-.233c6.292-2.2,4.411-18.91,4.411-23.738h22.639C724.667,3655.584,725.117,3655.584,727.714,3655.584Z" transform="translate(-678.483 -3562.927)" fill="#ef8b53"/>
              <path id="Trazado_659691" data-name="Trazado 659691" d="M702.877,3684.338c-8.091,0-15.779,7.738-15.779,23.054v-53.562l4,3.927v6.526a32.805,32.805,0,0,1,5.127-.35,4.579,4.579,0,0,0,1.465-.233c.666,1.248,1.082,2.081,1.082,2.081.405,14.808,27.068,4.931,27.068,9.4C725.836,3684.952,717.965,3684.338,702.877,3684.338Z" transform="translate(-678.552 -3570.426)" fill="#bf6f42"/>
              <g id="Grupo_986711" data-name="Grupo 986711" transform="translate(12.906)">
                <path id="Trazado_659692" data-name="Trazado 659692" d="M694.814,3562.181c.649,9.029,2.88,11.468,6.409,11.468,2.895,0,5.293-4,5.189-4.93s-1.142-6.435-1.972-6.746S694.814,3562.181,694.814,3562.181Z" transform="translate(-694.167 -3538.153)" fill="#8e3925"/>
                <path id="Trazado_659693" data-name="Trazado 659693" d="M702.726,3558.9c-.574-1.152-.926,2.507-.935,2.07-.147-7.687-6.73-1.963-7.249-10.474-.443-7.256-.5-7.32-.7-10.845-.389-7.006,3.68-14.438,18.653-14.323,8.336.063,10.474,3.3,12.353,7.546,3.5,7.907.675,18.064.675,18.064Z" transform="translate(-693.816 -3525.326)" fill="#8e3925"/>
                <path id="Trazado_659694" data-name="Trazado 659694" d="M721.534,3598.286s.114,2.957-4.7,2.957a11.872,11.872,0,0,1-7.819-2.957v-14.675l12.523-.694Z" transform="translate(-699.149 -3545.539)" fill="#ffb287"/>
                <path id="Trazado_659695" data-name="Trazado 659695" d="M721.534,3593.837c-3.281.4-12.435-.774-12.435-2.93s-.088-11.72-.088-11.72l12.523.085Z" transform="translate(-699.149 -3544.229)" fill="#e5785c"/>
                <path id="Trazado_659696" data-name="Trazado 659696" d="M729.648,3559.018c0,2.884-2.513,9.531-4.073,11.52-.665.848-1.584,2.775-3.7,3.415-1.921.583-3.058.993-3.058,2.031,0,1.127-2.365-1.057-3.173-1.057-9.6,0-14.344-10.339-14.344-17.384l2.958-9.24c0-7.711,5.118-13.254,12.567-13.2s13.447,5.136,13.447,12.848Z" transform="translate(-696.445 -3528.758)" fill="#e5785c"/>
                <path id="Trazado_659697" data-name="Trazado 659697" d="M733.01,3546.861l-.1,3.063-.266,8.306c-.283,8.091-2.1,15.565-11.919,15.481-9.8-.066-12.435-11.935-12.169-19.626l.466-6.692c0-.282,0-.566.017-.832.2-10.038,4.278-13.717,11.486-13.717C730.363,3532.844,733.277,3539.153,733.01,3546.861Z" transform="translate(-698.983 -3527.964)" fill="#ffb287"/>
                <g id="Grupo_986710" data-name="Grupo 986710" transform="translate(22.583 30.027)">
                  <path id="Trazado_659698" data-name="Trazado 659698" d="M731.318,3573.688c1.4,0,2.587-.789,2.525-1.594-.022-.293-.315-.646-.863-.389a4.669,4.669,0,0,1-1.653.252,4.594,4.594,0,0,1-1.522-.272c-.889-.268-1.17.083-1.192.375C728.551,3572.866,729.92,3573.672,731.318,3573.688Z" transform="translate(-728.611 -3571.59)" fill="#e5785c"/>
                </g>
                <path id="Trazado_659699" data-name="Trazado 659699" d="M704.849,3561.845c.2,2.875-1.257,5.343-3.263,5.514s-3.8-2.02-4-4.894.915-5.111,2.9-5.466S704.646,3558.971,704.849,3561.845Z" transform="translate(-695.13 -3536.429)" fill="#e5785c"/>
                <path id="Trazado_659700" data-name="Trazado 659700" d="M721.875,3562.843a1.253,1.253,0,0,0,1.247,1.246,1.23,1.23,0,0,0,1.246-1.227,1.253,1.253,0,0,0-1.246-1.246A1.23,1.23,0,0,0,721.875,3562.843Z" transform="translate(-703.664 -3538.063)" fill="#422b27"/>
                <path id="Trazado_659701" data-name="Trazado 659701" d="M738.833,3563.138a1.254,1.254,0,0,0,1.247,1.246,1.23,1.23,0,0,0,1.246-1.227,1.253,1.253,0,0,0-1.246-1.246A1.23,1.23,0,0,0,738.833,3563.138Z" transform="translate(-709.616 -3538.166)" fill="#422b27"/>
                <path id="Trazado_659702" data-name="Trazado 659702" d="M706.983,3555.929" transform="translate(-698.437 -3536.066)" fill="#8e3925"/>
                <path id="Trazado_659703" data-name="Trazado 659703" d="M714.184,3554.544" transform="translate(-700.965 -3535.58)" fill="#8e3925"/>
                <line id="Línea_767" data-name="Línea 767" y1="0.113" x2="5.608" transform="translate(16.046 19.593)" fill="none" stroke="#8e3925" stroke-linecap="round" stroke-miterlimit="10" stroke-width="3.091"/>
                <line id="Línea_768" data-name="Línea 768" x2="4.829" y2="0.349" transform="translate(28.616 19.802)" fill="none" stroke="#8e3925" stroke-linecap="round" stroke-miterlimit="10" stroke-width="3.091"/>
                <path id="Trazado_659704" data-name="Trazado 659704" d="M703.686,3543.707a14.079,14.079,0,0,1,5-10.821c-1.47-1.827-2-4.556-1.689-4.807a13.78,13.78,0,0,1,15.186-.823c5.437,3.144,7.925,5.256,6.994,7.488.012.026.025.05.036.076l-.047-.049a5.145,5.145,0,0,1-4.37,3.271c-6.954,0-6.806-4.083-11.987-3.684-2.024.155-5.1,1.439-5.1,6.5a74.892,74.892,0,0,1-.933,11.213c-1.627.105-1.648-.951-1.648-.951,0-2.907-.435-4.532-2.283-5.4Z" transform="translate(-696.987 -3525.327)" fill="#8e3925"/>
              </g>
              <path id="Trazado_659705" data-name="Trazado 659705" d="M732.127,3582.186a5.614,5.614,0,0,1-3.115.663,7.486,7.486,0,0,1-3.612-.666" transform="translate(-691.995 -3545.281)" fill="none" stroke="#e5785c" stroke-linecap="round" stroke-miterlimit="10" stroke-width="3.375"/>
              <g id="Grupo_986712" data-name="Grupo 986712" transform="translate(32.031 145.112)">
                <path id="Trazado_659706" data-name="Trazado 659706" d="M735.437,3752.817c0-.021,0-.042,0-.063C735.435,3752.774,735.435,3752.8,735.437,3752.817Z" transform="translate(-727.547 -3750.257)" fill="#bf6f42"/>
                <path id="Trazado_659707" data-name="Trazado 659707" d="M735.414,3751.877v0Z" transform="translate(-727.54 -3749.949)" fill="#bf6f42"/>
                <path id="Trazado_659708" data-name="Trazado 659708" d="M732.9,3755.4c-.539-3.3-1.289-6.493-1.289-6.493-1.218,4.067-5.832,4.881-8.328,4.793l.144,9.135,5.018,30.875c.064.231.131.514.2.823C727.414,3783.715,734.187,3763.295,732.9,3755.4Z" transform="translate(-723.282 -3748.907)" fill="#bf6f42"/>
                <path id="Trazado_659709" data-name="Trazado 659709" d="M735.427,3750.958v0Z" transform="translate(-727.544 -3749.627)" fill="#bf6f42"/>
                <path id="Trazado_659710" data-name="Trazado 659710" d="M735.771,3755.806q-.013-.064-.023-.129Q735.759,3755.742,735.771,3755.806Z" transform="translate(-727.657 -3751.283)" fill="#bf6f42"/>
                <path id="Trazado_659711" data-name="Trazado 659711" d="M735.605,3754.754c0-.019,0-.039-.007-.058C735.6,3754.716,735.6,3754.735,735.605,3754.754Z" transform="translate(-727.604 -3750.939)" fill="#bf6f42"/>
                <path id="Trazado_659712" data-name="Trazado 659712" d="M735.5,3753.816c0-.031-.006-.063-.008-.094C735.5,3753.753,735.5,3753.785,735.5,3753.816Z" transform="translate(-727.568 -3750.597)" fill="#bf6f42"/>
              </g>
              <g id="Grupo_986713" data-name="Grupo 986713" transform="translate(8.519 67.803)">
                <path id="Trazado_659713" data-name="Trazado 659713" d="M741.411,3665.3a4.215,4.215,0,0,1-3.832,4.549l-28.12,2.421c-.217.022-.872-.052-1.1-.052a9.205,9.205,0,0,1-8.23-5.407l-5.32-11.535-2.1-7.022-5.32-12.637a4.2,4.2,0,0,1,7.741-3.258l6.123,14.538,2.4,2.34,5.982,14.2a1.155,1.155,0,0,0,.5.271l26.727-2.243A4.215,4.215,0,0,1,741.411,3665.3Z" transform="translate(-687.057 -3629.792)" fill="#ffb287"/>
              </g>
              <path id="Trazado_659714" data-name="Trazado 659714" d="M696.92,3605.772c-13.673,0-16.637,8.134-16.51,14.969.125,6.729,8.334,29.25,8.334,29.25l14.42-4.918-7.605-24.038Z" transform="translate(-676.203 -3553.56)" fill="#ffe14e"/>
            </g>
            <path id="Trazado_659715" data-name="Trazado 659715" d="M702.318,3605.773c6.528,0,8.051,10.449,7.964,17.318l-2.251,4.994-2.576-4.994c.087-6.869-1.534-17.1-8.8-16.686,0,0,1.625-.306,2.768-.468A26.352,26.352,0,0,1,702.318,3605.773Z" transform="translate(-681.905 -3553.56)" fill="#ef8b53"/>
            <path id="Trazado_659716" data-name="Trazado 659716" d="M731.3,3605.729a15.456,15.456,0,0,0-2.9-.008c-.04.006-.083.013-.123.017v.526a1.922,1.922,0,0,1-.06.469c5.077,1.868,6.3,10.352,6.219,16.315l2.8,3.33,1.937-3.33C739.255,3616.178,737.824,3605.729,731.3,3605.729Z" transform="translate(-692.982 -3553.517)" fill="#ef8b53"/>
          </g>
          <path id="Trazado_659717" data-name="Trazado 659717" d="M733.466,3546.861l-.1,3.063c-.432-2.148-7.111-2.593-14.469-2.31-4.4.183-8.909.5-9.059,2.31.2-10.038,3.936-17.08,11.143-17.08C730.819,3532.844,733.733,3539.153,733.466,3546.861Z" transform="translate(-686.533 -3526.148)" fill="#c67560" opacity="0.6" style="mix-blend-mode: multiply;isolation: isolate"/>
          <g id="Grupo_986716" data-name="Grupo 986716" transform="translate(12.093)">
            <path id="Trazado_659718" data-name="Trazado 659718" d="M726.657,3538.642c-1.086-.833-2.217-.416-7.241-.416a57.821,57.821,0,0,0-16.181,2.25c-4.731,1.429-8.292,3.46-9.339,5.8-.489.36-1.249-4.265-1.322-7.59-.011-.186-.011-.36-.011-.534a15.359,15.359,0,0,1,.489-3.866c1.434-5.428,6.026-10.059,14.392-11.387a.752.752,0,0,0,.084-.017c.934-.146,1.913-.248,2.949-.315.365-.023.72-.034,1.074-.034a17.1,17.1,0,0,1,5.772.866,3.669,3.669,0,0,1,.349.13,14.33,14.33,0,0,1,8.22,7.792C727.557,3535.064,727.422,3538.581,726.657,3538.642Z" transform="translate(-692.563 -3522.528)" fill="#fca903"/>
            <path id="Trazado_659719" data-name="Trazado 659719" d="M750.748,3544.446c-1.727.083-3.651-.092-5.656-.03a19.545,19.545,0,0,1,.748,6.5h0C758.617,3551.557,761.291,3543.938,750.748,3544.446Z" transform="translate(-710.999 -3530.205)" fill="#d86619"/>
            <path id="Trazado_659720" data-name="Trazado 659720" d="M694.616,3546.813c1.046-2.335,4.608-4.366,9.339-5.795a57.792,57.792,0,0,1,16.18-2.25c5.024,0,6.155-.416,7.241.416.765-.062.9-3.578-.765-7.325a14.332,14.332,0,0,0-8.219-7.792c3.635,2.244,3.989,8.135,4.236,9.992.282,2.109-5.626,2.531-14.768,4.782S694.734,3544.517,694.616,3546.813Z" transform="translate(-693.284 -3523.067)" fill="#fca903"/>
          </g>
        </g>
      </g>
      <path id="Trazado_659721" data-name="Trazado 659721" d="M682.941,3851.667c6.746,2.976,14.527,5.131,21.34,3.589q.211-1.493.433-3.021c-4.287,1.227-9.255.388-13.412-.731a57.8,57.8,0,0,1-7.927-2.791Z" transform="translate(-11.058 -114.479)" fill="#ede9e6" stroke="#ede9e6" stroke-linejoin="round" stroke-width="0.558"/>
      <path id="Trazado_659722" data-name="Trazado 659722" d="M681.806,3859.355c6.729,2.988,14.515,5.182,21.345,3.7q.211-1.468.434-3.01c-4.253,1.154-9.142.326-13.244-.782a57.94,57.94,0,0,1-8.1-2.863Z" transform="translate(-10.66 -117.178)" fill="#ede9e6" stroke="#ede9e6" stroke-linejoin="round" stroke-width="0.558"/>
      <rect id="Rectángulo_310969" data-name="Rectángulo 310969" width="12.472" height="8.832" rx="1.068" transform="translate(687.124 3595.02)" fill="#631729" opacity="0.7"/>
      <rect id="Rectángulo_310970" data-name="Rectángulo 310970" width="12.472" height="8.208" rx="1.068" transform="translate(688.531 3593.614)" fill="#fff"/>
      <rect id="Rectángulo_310971" data-name="Rectángulo 310971" width="2.736" height="3.764" rx="1.068" transform="translate(693.399 3590.429)" fill="#b6b8bf"/>
      <rect id="Rectángulo_310972" data-name="Rectángulo 310972" width="2.929" height="2.877" rx="1.068" transform="translate(696.531 3595.338)" fill="#4c888e" opacity="0.6"/>
      <g id="Grupo_986721" data-name="Grupo 986721" transform="translate(736.693 3757.62)">
        <g id="Grupo_986719" data-name="Grupo 986719" transform="translate(150.898 8.747)">
          <path id="Trazado_659723" data-name="Trazado 659723" d="M1032.526,3898.222c3.322,0,6.016,3.762,6.016,8.4s-2.694,8.4-6.016,8.4h-8.5v-16.808Z" transform="translate(-1018.358 -3898.222)" fill="#1d2021"/>
          <ellipse id="Elipse_7749" data-name="Elipse 7749" cx="6.016" cy="8.404" rx="6.016" ry="8.404" transform="translate(0 0)" fill="#2d3133"/>
          <path id="Trazado_659724" data-name="Trazado 659724" d="M1020.9,3909.375c0,1.833,1.064,3.32,2.376,3.32s2.377-1.487,2.377-3.32-1.064-3.32-2.377-3.32S1020.9,3907.542,1020.9,3909.375Z" transform="translate(-1017.261 -3900.971)" fill="#9099a3"/>
        </g>
        <g id="Grupo_986720" data-name="Grupo 986720" transform="translate(164.421 8.747)">
          <path id="Trazado_659725" data-name="Trazado 659725" d="M1053.363,3898.222c3.322,0,6.016,3.762,6.016,8.4s-2.693,8.4-6.016,8.4h-8.5v-16.808Z" transform="translate(-1039.194 -3898.222)" fill="#3b3f42"/>
          <ellipse id="Elipse_7750" data-name="Elipse 7750" cx="6.016" cy="8.404" rx="6.016" ry="8.404" transform="translate(0 0)" fill="#2d3133"/>
          <path id="Trazado_659726" data-name="Trazado 659726" d="M1041.737,3909.375c0,1.833,1.064,3.32,2.376,3.32s2.377-1.487,2.377-3.32-1.064-3.32-2.377-3.32S1041.737,3907.542,1041.737,3909.375Z" transform="translate(-1038.097 -3900.971)" fill="#9099a3"/>
        </g>
        <rect id="Rectángulo_310973" data-name="Rectángulo 310973" width="161.769" height="7.961" transform="translate(43.429 1.412)" fill="#ff881d"/>
        <rect id="Rectángulo_310974" data-name="Rectángulo 310974" width="172.627" height="7.961" transform="translate(0 1.412)" fill="#ea6a13"/>
        <rect id="Rectángulo_310975" data-name="Rectángulo 310975" width="93.158" height="9.373" transform="translate(50.667)" fill="#c44e1a"/>
        <rect id="Rectángulo_310976" data-name="Rectángulo 310976" width="5.19" height="7.961" transform="translate(200.007 1.412)" fill="#ff881d"/>
      </g>
      <path id="Trazado_659727" data-name="Trazado 659727" d="M894.135,3875l-16.85,1.868-3.474.391-6.547-.75L854.126,3875l2.009-7.123c1.2-4.6,3.365-7.176,7.307-7.176l18.761.086a1.2,1.2,0,0,1,.2.011,9.472,9.472,0,0,1,8.556,7.079Z" transform="translate(-71.138 -118.686)" fill="#b74d2c"/>
      <path id="Trazado_659728" data-name="Trazado 659728" d="M793.925,3712.619l-21.086.128-11.862-27,24.8-.264Z" transform="translate(-38.446 -57.192)" fill="none" stroke="#354242" stroke-linecap="round" stroke-linejoin="round" stroke-width="10.772"/>
      <g id="Grupo_986757" data-name="Grupo 986757" transform="translate(794.873 3571.615)">
        <g id="Grupo_986750" data-name="Grupo 986750">
          <g id="Grupo_986749" data-name="Grupo 986749">
            <g id="Grupo_986740" data-name="Grupo 986740" transform="translate(13.904)">
              <g id="Grupo_986730" data-name="Grupo 986730" transform="translate(0.135)">
                <g id="Grupo_986724" data-name="Grupo 986724" transform="translate(83.992)">
                  <g id="Grupo_986723" data-name="Grupo 986723">
                    <rect id="Rectángulo_310977" data-name="Rectángulo 310977" width="55.674" height="70.66" transform="translate(45.738 0.002)" fill="#ffd18d"/>
                    <rect id="Rectángulo_310978" data-name="Rectángulo 310978" width="49.146" height="70.66" transform="translate(0.992)" fill="#d88850"/>
                    <g id="Grupo_986722" data-name="Grupo 986722" transform="translate(0 35.203)">
                      <line id="Línea_769" data-name="Línea 769" x1="101.424" fill="none" stroke="#c9804f" stroke-miterlimit="10" stroke-width="4.309" opacity="0.5" style="mix-blend-mode: multiply;isolation: isolate"/>
                    </g>
                    <rect id="Rectángulo_310979" data-name="Rectángulo 310979" width="6.101" height="7.21" transform="translate(71.916)" fill="#ce683c"/>
                    <rect id="Rectángulo_310980" data-name="Rectángulo 310980" width="5.702" height="5.188" transform="translate(2.465 27.266)" fill="#c2d8ef" opacity="0.8"/>
                    <rect id="Rectángulo_310981" data-name="Rectángulo 310981" width="9.515" height="5.188" transform="translate(27.65 27.266)" fill="#333332" opacity="0.2"/>
                    <rect id="Rectángulo_310982" data-name="Rectángulo 310982" width="4.899" height="5.188" transform="translate(38.507 27.266)" fill="#333332" opacity="0.2"/>
                    <rect id="Rectángulo_310983" data-name="Rectángulo 310983" width="9.515" height="5.188" transform="translate(27.65 63.066)" fill="#333332" opacity="0.2"/>
                    <rect id="Rectángulo_310984" data-name="Rectángulo 310984" width="4.899" height="5.188" transform="translate(38.507 63.066)" fill="#333332" opacity="0.2"/>
                    <rect id="Rectángulo_310985" data-name="Rectángulo 310985" width="5.702" height="5.188" transform="translate(2.465 63.359)" fill="#c2d8ef" opacity="0.8"/>
                    <rect id="Rectángulo_310986" data-name="Rectángulo 310986" width="6.101" height="7.21" transform="translate(72.462 34.549)" fill="#ce683c"/>
                  </g>
                </g>
                <g id="Grupo_986729" data-name="Grupo 986729">
                  <g id="Grupo_986726" data-name="Grupo 986726">
                    <rect id="Rectángulo_310987" data-name="Rectángulo 310987" width="57.723" height="70.66" transform="translate(31.981)" fill="#ba6145"/>
                    <rect id="Rectángulo_310988" data-name="Rectángulo 310988" width="38.431" height="70.66" fill="#d88850"/>
                    <g id="Grupo_986725" data-name="Grupo 986725" transform="translate(0.094 35.203)">
                      <line id="Línea_770" data-name="Línea 770" x1="89.623" fill="none" stroke="#c9804f" stroke-miterlimit="10" stroke-width="4.309" opacity="0.5" style="mix-blend-mode: multiply;isolation: isolate"/>
                    </g>
                    <rect id="Rectángulo_310989" data-name="Rectángulo 310989" width="6.101" height="6.655" transform="translate(64.611)" fill="#a86951"/>
                    <rect id="Rectángulo_310990" data-name="Rectángulo 310990" width="4.899" height="5.188" transform="translate(18.511 27.266)" fill="#333332" opacity="0.3"/>
                    <rect id="Rectángulo_310991" data-name="Rectángulo 310991" width="4.899" height="5.188" transform="translate(24.752 27.266)" fill="#333332" opacity="0.3"/>
                    <rect id="Rectángulo_310992" data-name="Rectángulo 310992" width="4.899" height="5.188" transform="translate(30.797 27.266)" fill="#333332" opacity="0.3"/>
                    <rect id="Rectángulo_310993" data-name="Rectángulo 310993" width="4.899" height="5.188" transform="translate(18.511 63.066)" fill="#333332" opacity="0.3"/>
                    <rect id="Rectángulo_310994" data-name="Rectángulo 310994" width="4.899" height="5.188" transform="translate(24.752 63.066)" fill="#333332" opacity="0.3"/>
                    <rect id="Rectángulo_310995" data-name="Rectángulo 310995" width="4.899" height="5.188" transform="translate(30.797 63.066)" fill="#333332" opacity="0.3"/>
                    <rect id="Rectángulo_310996" data-name="Rectángulo 310996" width="6.101" height="8.325" transform="translate(65.158 34.552)" fill="#a86951"/>
                  </g>
                  <g id="Grupo_986728" data-name="Grupo 986728" transform="translate(41.737)">
                    <rect id="Rectángulo_310997" data-name="Rectángulo 310997" width="57.723" height="70.661" transform="translate(31.981)" fill="#ffd18d"/>
                    <rect id="Rectángulo_310998" data-name="Rectángulo 310998" width="38.431" height="70.661" fill="#d88850"/>
                    <g id="Grupo_986727" data-name="Grupo 986727" transform="translate(0.094 35.203)">
                      <line id="Línea_771" data-name="Línea 771" x1="89.623" fill="none" stroke="#c9804f" stroke-miterlimit="10" stroke-width="4.309" opacity="0.5" style="mix-blend-mode: multiply;isolation: isolate"/>
                    </g>
                    <rect id="Rectángulo_310999" data-name="Rectángulo 310999" width="6.101" height="7.21" transform="translate(60.056)" fill="#ce683c"/>
                    <rect id="Rectángulo_311000" data-name="Rectángulo 311000" width="4.899" height="5.188" transform="translate(18.511 27.266)" fill="#333332" opacity="0.3"/>
                    <rect id="Rectángulo_311001" data-name="Rectángulo 311001" width="4.899" height="5.188" transform="translate(24.752 27.266)" fill="#333332" opacity="0.3"/>
                    <rect id="Rectángulo_311002" data-name="Rectángulo 311002" width="4.899" height="5.188" transform="translate(30.797 27.266)" fill="#333332" opacity="0.3"/>
                    <rect id="Rectángulo_311003" data-name="Rectángulo 311003" width="4.899" height="5.188" transform="translate(18.511 63.066)" fill="#333332" opacity="0.3"/>
                    <rect id="Rectángulo_311004" data-name="Rectángulo 311004" width="4.899" height="5.188" transform="translate(24.752 63.066)" fill="#333332" opacity="0.3"/>
                    <rect id="Rectángulo_311005" data-name="Rectángulo 311005" width="4.899" height="5.188" transform="translate(30.797 63.066)" fill="#333332" opacity="0.3"/>
                    <rect id="Rectángulo_311006" data-name="Rectángulo 311006" width="6.101" height="7.21" transform="translate(60.056 34.549)" fill="#ce683c"/>
                  </g>
                </g>
              </g>
              <g id="Grupo_986739" data-name="Grupo 986739" transform="translate(0.135 70.141)">
                <g id="Grupo_986733" data-name="Grupo 986733" transform="translate(82.364)">
                  <g id="Grupo_986732" data-name="Grupo 986732">
                    <rect id="Rectángulo_311007" data-name="Rectángulo 311007" width="55.674" height="106.407" transform="translate(47.366)" fill="#ffd18d"/>
                    <rect id="Rectángulo_311008" data-name="Rectángulo 311008" width="49.146" height="106.406" transform="translate(2.621 0)" fill="#d88850"/>
                    <g id="Grupo_986731" data-name="Grupo 986731" transform="translate(0 35.474)">
                      <line id="Línea_772" data-name="Línea 772" x1="102.518" fill="none" stroke="#c9804f" stroke-miterlimit="10" stroke-width="4.309" opacity="0.5" style="mix-blend-mode: multiply;isolation: isolate"/>
                      <line id="Línea_773" data-name="Línea 773" x1="102.88" transform="translate(0 35.474)" fill="none" stroke="#c9804f" stroke-miterlimit="10" stroke-width="4.309" opacity="0.5" style="mix-blend-mode: multiply;isolation: isolate"/>
                    </g>
                    <rect id="Rectángulo_311009" data-name="Rectángulo 311009" width="6.101" height="7.21" transform="translate(73.545 34.814)" fill="#ce683c"/>
                    <rect id="Rectángulo_311010" data-name="Rectángulo 311010" width="5.702" height="5.188" transform="translate(4.094 63.011)" fill="#c2d8ef" opacity="0.8"/>
                    <rect id="Rectángulo_311011" data-name="Rectángulo 311011" width="9.515" height="5.188" transform="translate(29.279 63.011)" fill="#333332" opacity="0.2"/>
                    <rect id="Rectángulo_311012" data-name="Rectángulo 311012" width="4.899" height="5.188" transform="translate(40.136 63.011)" fill="#333332" opacity="0.2"/>
                    <rect id="Rectángulo_311013" data-name="Rectángulo 311013" width="9.515" height="5.188" transform="translate(29.279 27.113)" fill="#333332" opacity="0.2"/>
                    <rect id="Rectángulo_311014" data-name="Rectángulo 311014" width="4.899" height="5.188" transform="translate(40.136 27.113)" fill="#333332" opacity="0.2"/>
                    <rect id="Rectángulo_311015" data-name="Rectángulo 311015" width="9.515" height="5.188" transform="translate(29.279 98.811)" fill="#333332" opacity="0.2"/>
                    <rect id="Rectángulo_311016" data-name="Rectángulo 311016" width="4.899" height="5.188" transform="translate(40.136 98.811)" fill="#333332" opacity="0.2"/>
                    <rect id="Rectángulo_311017" data-name="Rectángulo 311017" width="5.702" height="5.188" transform="translate(4.094 99.104)" fill="#c2d8ef" opacity="0.8"/>
                    <rect id="Rectángulo_311018" data-name="Rectángulo 311018" width="5.702" height="5.188" transform="translate(4.094 27.503)" fill="#c2d8ef" opacity="0.8"/>
                    <rect id="Rectángulo_311019" data-name="Rectángulo 311019" width="6.101" height="7.21" transform="translate(74.091 70.294)" fill="#ce683c"/>
                  </g>
                </g>
                <g id="Grupo_986738" data-name="Grupo 986738" transform="translate(0 0)">
                  <g id="Grupo_986735" data-name="Grupo 986735">
                    <rect id="Rectángulo_311020" data-name="Rectángulo 311020" width="57.723" height="106.406" transform="translate(31.981)" fill="#ba6145"/>
                    <rect id="Rectángulo_311021" data-name="Rectángulo 311021" width="38.431" height="106.406" fill="#d88850"/>
                    <g id="Grupo_986734" data-name="Grupo 986734" transform="translate(0.025 35.474)">
                      <line id="Línea_774" data-name="Línea 774" x1="88.051" fill="none" stroke="#c9804f" stroke-miterlimit="10" stroke-width="4.309" opacity="0.5" style="mix-blend-mode: multiply;isolation: isolate"/>
                      <line id="Línea_775" data-name="Línea 775" x1="87.475" transform="translate(0.589 35.474)" fill="none" stroke="#c9804f" stroke-miterlimit="10" stroke-width="4.309" opacity="0.5" style="mix-blend-mode: multiply;isolation: isolate"/>
                    </g>
                    <rect id="Rectángulo_311022" data-name="Rectángulo 311022" width="6.101" height="6.655" transform="translate(64.611 34.851)" fill="#a86951"/>
                    <rect id="Rectángulo_311023" data-name="Rectángulo 311023" width="4.899" height="5.188" transform="translate(18.511 63.011)" fill="#333332" opacity="0.3"/>
                    <rect id="Rectángulo_311024" data-name="Rectángulo 311024" width="4.899" height="5.188" transform="translate(24.752 63.011)" fill="#333332" opacity="0.3"/>
                    <rect id="Rectángulo_311025" data-name="Rectángulo 311025" width="4.899" height="5.188" transform="translate(30.797 63.011)" fill="#333332" opacity="0.3"/>
                    <rect id="Rectángulo_311026" data-name="Rectángulo 311026" width="4.899" height="5.188" transform="translate(18.511 27.113)" fill="#333332" opacity="0.3"/>
                    <rect id="Rectángulo_311027" data-name="Rectángulo 311027" width="4.899" height="5.188" transform="translate(24.752 27.113)" fill="#333332" opacity="0.3"/>
                    <rect id="Rectángulo_311028" data-name="Rectángulo 311028" width="4.899" height="5.188" transform="translate(30.797 27.113)" fill="#333332" opacity="0.3"/>
                    <rect id="Rectángulo_311029" data-name="Rectángulo 311029" width="4.899" height="5.188" transform="translate(18.511 98.811)" fill="#333332" opacity="0.3"/>
                    <rect id="Rectángulo_311030" data-name="Rectángulo 311030" width="4.899" height="5.188" transform="translate(24.752 98.811)" fill="#333332" opacity="0.3"/>
                    <rect id="Rectángulo_311031" data-name="Rectángulo 311031" width="4.899" height="5.188" transform="translate(30.797 98.811)" fill="#333332" opacity="0.3"/>
                    <rect id="Rectángulo_311032" data-name="Rectángulo 311032" width="6.101" height="5.639" transform="translate(65.158)" fill="#a86951"/>
                    <rect id="Rectángulo_311033" data-name="Rectángulo 311033" width="6.101" height="8.325" transform="translate(65.158 70.297)" fill="#a86951"/>
                  </g>
                  <g id="Grupo_986737" data-name="Grupo 986737" transform="translate(40.202)">
                    <rect id="Rectángulo_311034" data-name="Rectángulo 311034" width="57.723" height="106.406" transform="translate(33.516)" fill="#ffd18d"/>
                    <rect id="Rectángulo_311035" data-name="Rectángulo 311035" width="38.431" height="106.406" transform="translate(1.535)" fill="#d88850"/>
                    <g id="Grupo_986736" data-name="Grupo 986736" transform="translate(0 35.474)">
                      <line id="Línea_776" data-name="Línea 776" x1="91.105" transform="translate(0)" fill="none" stroke="#c9804f" stroke-miterlimit="10" stroke-width="4.309" opacity="0.5" style="mix-blend-mode: multiply;isolation: isolate"/>
                      <line id="Línea_777" data-name="Línea 777" x1="91.117" transform="translate(0 35.474)" fill="none" stroke="#c9804f" stroke-miterlimit="10" stroke-width="4.309" opacity="0.5" style="mix-blend-mode: multiply;isolation: isolate"/>
                    </g>
                    <rect id="Rectángulo_311036" data-name="Rectángulo 311036" width="6.101" height="7.21" transform="translate(61.591 34.814)" fill="#ce683c"/>
                    <rect id="Rectángulo_311037" data-name="Rectángulo 311037" width="4.899" height="5.188" transform="translate(20.046 63.011)" fill="#333332" opacity="0.3"/>
                    <rect id="Rectángulo_311038" data-name="Rectángulo 311038" width="4.899" height="5.188" transform="translate(26.286 63.011)" fill="#333332" opacity="0.3"/>
                    <rect id="Rectángulo_311039" data-name="Rectángulo 311039" width="4.899" height="5.188" transform="translate(32.332 63.011)" fill="#333332" opacity="0.3"/>
                    <rect id="Rectángulo_311040" data-name="Rectángulo 311040" width="4.899" height="5.188" transform="translate(20.046 27.113)" fill="#333332" opacity="0.3"/>
                    <rect id="Rectángulo_311041" data-name="Rectángulo 311041" width="4.899" height="5.188" transform="translate(26.286 27.113)" fill="#333332" opacity="0.3"/>
                    <rect id="Rectángulo_311042" data-name="Rectángulo 311042" width="4.899" height="5.188" transform="translate(32.332 27.113)" fill="#333332" opacity="0.3"/>
                    <rect id="Rectángulo_311043" data-name="Rectángulo 311043" width="4.899" height="5.188" transform="translate(20.046 98.811)" fill="#333332" opacity="0.3"/>
                    <rect id="Rectángulo_311044" data-name="Rectángulo 311044" width="4.899" height="5.188" transform="translate(26.286 98.811)" fill="#333332" opacity="0.3"/>
                    <rect id="Rectángulo_311045" data-name="Rectángulo 311045" width="4.899" height="5.188" transform="translate(32.332 98.811)" fill="#333332" opacity="0.3"/>
                    <rect id="Rectángulo_311046" data-name="Rectángulo 311046" width="6.101" height="7.21" transform="translate(62.552 70.294)" fill="#ce683c"/>
                  </g>
                </g>
              </g>
              <line id="Línea_778" data-name="Línea 778" x2="185.741" transform="translate(0 70.292)" fill="none" stroke="#c9804f" stroke-miterlimit="10" stroke-width="4.309" opacity="0.5" style="mix-blend-mode: multiply;isolation: isolate"/>
              <rect id="Rectángulo_311047" data-name="Rectángulo 311047" width="6.101" height="7.21" transform="translate(156.59 70.157)" fill="#ce683c"/>
              <rect id="Rectángulo_311048" data-name="Rectángulo 311048" width="6.101" height="7.21" transform="translate(101.929 70.157)" fill="#ce683c"/>
            </g>
            <g id="Grupo_986748" data-name="Grupo 986748" transform="translate(0 176.432)">
              <g id="Grupo_986746" data-name="Grupo 986746">
                <g id="Grupo_986741" data-name="Grupo 986741" transform="translate(82.977)">
                  <rect id="Rectángulo_311049" data-name="Rectángulo 311049" width="18.434" height="5.704" transform="translate(110.856)" fill="#ffdb80"/>
                  <rect id="Rectángulo_311050" data-name="Rectángulo 311050" width="111.128" height="5.878" fill="#e29a4b"/>
                  <path id="Trazado_659729" data-name="Trazado 659729" d="M1136.25,3875.7H1150.2l4.482-5.7h-4.472Z" transform="translate(-1048.004 -3869.996)" fill="#b87a53"/>
                  <path id="Trazado_659730" data-name="Trazado 659730" d="M1095.672,3875.7h13.952l4.482-5.7h-4.568Z" transform="translate(-1033.762 -3869.996)" fill="#b87a53"/>
                  <path id="Trazado_659731" data-name="Trazado 659731" d="M1053.318,3875.7h13.952l4.482-5.7h-4.122Z" transform="translate(-1018.898 -3869.996)" fill="#b87a53"/>
                  <path id="Trazado_659732" data-name="Trazado 659732" d="M1011.936,3875.7h13.952l4.482-5.7h-4.122Z" transform="translate(-1004.374 -3869.996)" fill="#b87a53"/>
                </g>
                <g id="Grupo_986742" data-name="Grupo 986742" transform="translate(140.063)">
                  <rect id="Rectángulo_311051" data-name="Rectángulo 311051" width="18.434" height="5.704" fill="#ffdb80"/>
                </g>
                <g id="Grupo_986743" data-name="Grupo 986743" transform="translate(166.948)">
                  <rect id="Rectángulo_311052" data-name="Rectángulo 311052" width="18.434" height="5.704" fill="#ffdb80"/>
                </g>
                <g id="Grupo_986744" data-name="Grupo 986744" transform="translate(113.179)">
                  <rect id="Rectángulo_311053" data-name="Rectángulo 311053" width="18.434" height="5.704" fill="#ffdb80"/>
                </g>
                <g id="Grupo_986745" data-name="Grupo 986745">
                  <rect id="Rectángulo_311054" data-name="Rectángulo 311054" width="92.71" height="5.935" fill="#e29a4b"/>
                </g>
              </g>
              <g id="Grupo_986747" data-name="Grupo 986747" transform="translate(0.079 5.622)">
                <rect id="Rectángulo_311055" data-name="Rectángulo 311055" width="12.46" height="12.924" transform="translate(48.752 4.519)" fill="#72504c"/>
                <rect id="Rectángulo_311056" data-name="Rectángulo 311056" width="12.46" height="12.924" transform="translate(11.353 4.519)" fill="#72504c"/>
                <rect id="Rectángulo_311057" data-name="Rectángulo 311057" width="12.136" height="11.838" transform="translate(182.926 7.154)" fill="#b87a53"/>
                <path id="Trazado_659733" data-name="Trazado 659733" d="M1153.352,3901l10.076-12.791H1151.41l1.942,9.065-1.906,2.692Z" transform="translate(-970.426 -3882.01)" fill="#72504c"/>
                <rect id="Rectángulo_311058" data-name="Rectángulo 311058" width="12.136" height="12.924" transform="translate(141.025 6.068)" fill="#b87a53"/>
                <rect id="Rectángulo_311059" data-name="Rectángulo 311059" width="12.136" height="12.924" transform="translate(130.659 6.068)" fill="#b87a53"/>
                <rect id="Rectángulo_311060" data-name="Rectángulo 311060" width="12.136" height="12.924" transform="translate(84.024 6.068)" fill="#b87a53"/>
                <path id="Trazado_659734" data-name="Trazado 659734" d="M1172.97,3899.366h17.192V3883.55l-17.192,2.893Z" transform="translate(-977.993 -3880.375)" fill="#efbb67"/>
                <path id="Trazado_659735" data-name="Trazado 659735" d="M1089.094,3899.537h17.193v-15.5l-17.193,2.578Z" transform="translate(-948.555 -3880.545)" fill="#efbb67"/>
                <path id="Trazado_659736" data-name="Trazado 659736" d="M1005.394,3899.452h17.192v-15.659l-17.192,2.735Z" transform="translate(-919.18 -3880.46)" fill="#efbb67"/>
                <path id="Trazado_659737" data-name="Trazado 659737" d="M987.087,3899.622h12.135V3886.7l-12.135-2.42Z" transform="translate(-912.755 -3880.63)" fill="#c48e47"/>
                <path id="Trazado_659738" data-name="Trazado 659738" d="M872.56,3899.366H884.7v-12.924l-12.135-2.893Z" transform="translate(-872.56 -3880.375)" fill="#c48e47"/>
                <path id="Trazado_659739" data-name="Trazado 659739" d="M929.823,3899.025h12.136V3886.1l-12.136-3.524Z" transform="translate(-892.657 -3880.033)" fill="#c48e47"/>
                <rect id="Rectángulo_311061" data-name="Rectángulo 311061" width="125.955" height="6.068" transform="translate(86.215)" fill="#efbb67"/>
                <rect id="Rectángulo_311062" data-name="Rectángulo 311062" width="86.468" height="6.068" fill="#c48e47"/>
                <rect id="Rectángulo_311063" data-name="Rectángulo 311063" width="86.468" height="3.897" transform="translate(0 15.095)" fill="#c48e47"/>
                <path id="Trazado_659740" data-name="Trazado 659740" d="M1072.437,3900.878l12.018-13.02h-12.018v9.153l-2.414,3.118Z" transform="translate(-941.862 -3881.887)" fill="#72504c"/>
              </g>
              <rect id="Rectángulo_311064" data-name="Rectángulo 311064" width="18.434" height="5.76" transform="translate(86.538)" fill="#ffdb80"/>
            </g>
          </g>
        </g>
        <g id="Grupo_986753" data-name="Grupo 986753" transform="translate(103.614 187.979)">
          <g id="Grupo_986752" data-name="Grupo 986752">
            <g id="Grupo_986751" data-name="Grupo 986751">
              <rect id="Rectángulo_311065" data-name="Rectángulo 311065" width="27.953" height="7.54" fill="#e2620c"/>
            </g>
          </g>
        </g>
        <g id="Grupo_986756" data-name="Grupo 986756" transform="translate(157.844 188.206)">
          <g id="Grupo_986755" data-name="Grupo 986755">
            <g id="Grupo_986754" data-name="Grupo 986754">
              <rect id="Rectángulo_311066" data-name="Rectángulo 311066" width="27.866" height="7.54" fill="#e2620c"/>
            </g>
          </g>
        </g>
      </g>
      <g id="Grupo_986759" data-name="Grupo 986759" transform="translate(898.487 3759.594)">
        <g id="Grupo_986758" data-name="Grupo 986758">
          <path id="Trazado_659741" data-name="Trazado 659741" d="M1032.08,3887.787v7.541l6.731-7.541Z" transform="translate(-1032.08 -3887.787)" fill="#c44e1a"/>
        </g>
      </g>
      <g id="Grupo_986761" data-name="Grupo 986761" transform="translate(952.812 3759.775)">
        <g id="Grupo_986760" data-name="Grupo 986760">
          <path id="Trazado_659742" data-name="Trazado 659742" d="M1115.781,3888.066v7.54l6.73-7.54Z" transform="translate(-1115.781 -3888.066)" fill="#c44e1a"/>
        </g>
      </g>
      <path id="Trazado_659743" data-name="Trazado 659743" d="M765.989,3688.358a12.784,12.784,0,0,1-1.531-.055c-1.519-3.742-3.894-5.981-5-3.968-.239-1.607-.318-3.773-2.576-3.936,0,0-2.564-1.323-.342-1.832a43.1,43.1,0,0,1,8.618-1.357c3.664.136,4.134,1.767,4.579,5.057C770.115,3685.047,768.526,3688.358,765.989,3688.358Z" transform="translate(-36.57 -54.286)" fill="#ffb287"/>
      <path id="Trazado_659744" data-name="Trazado 659744" d="M783.737,3679.778c2.861.208,3.3,3.587,3.334,5.053.06,2.254,3.005,3.208,5.035,3.208,2.941,0,4.5-3.642,4.162-6.2-.436-3.284-1.854-5.247-5.881-5.021a46.835,46.835,0,0,0-5.429.723A1.438,1.438,0,0,0,783.737,3679.778Z" transform="translate(-46.352 -54.145)" fill="#ffb287"/>
      <g id="Grupo_986763" data-name="Grupo 986763" transform="translate(922.792 3759.594)">
        <g id="Grupo_986762" data-name="Grupo 986762">
          <rect id="Rectángulo_311067" data-name="Rectángulo 311067" width="14.923" height="7.54" fill="#ff881d"/>
        </g>
      </g>
      <g id="Grupo_986765" data-name="Grupo 986765" transform="translate(979.107 3759.821)">
        <g id="Grupo_986764" data-name="Grupo 986764">
          <rect id="Rectángulo_311068" data-name="Rectángulo 311068" width="14.923" height="7.54" fill="#ff881d"/>
        </g>
      </g>
      <path id="Trazado_659745" data-name="Trazado 659745" d="M772.432,3679.2c4.23.4,6.05,3.607,5.609,6.7" transform="translate(-42.466 -54.986)" fill="none" stroke="#ffb287" stroke-linecap="round" stroke-linejoin="round" stroke-width="4.309"/>
      <path id="Trazado_659746" data-name="Trazado 659746" d="M734.29,3864.282v-.044l-.108-2.171-.022-.4-.032-.629a148.958,148.958,0,0,0,20.824-1.868l.054,1.368.066,1.9A153.56,153.56,0,0,1,734.29,3864.282Z" transform="translate(-29.022 -118.148)" fill="#ede9e6"/>
      <path id="Trazado_659747" data-name="Trazado 659747" d="M754.722,3854.92a175.989,175.989,0,0,1-20.845,1.695l-.022-.391-.011-.1-.152-2.758a174.774,174.774,0,0,0,20.9-1.693l.065,1.509.055,1.411Z" transform="translate(-28.87 -115.519)" fill="#ede9e6"/>
      <path id="Trazado_659748" data-name="Trazado 659748" d="M708.3,3540.913c-1.541-7.013-4.682-17.323,11.306-17.147,16.467.181,12.3,15.924,12.3,15.924Z" transform="translate(-19.494 -0.434)" fill="#ffe14e"/>
      <path id="Trazado_659749" data-name="Trazado 659749" d="M741.033,3544.448c-4.165-.1-5.578,1.885-14.334,4.735-6.642,2.165-13.111-.111-17.688-1.123,1.565-1.425,17.506-3.87,26.3-3.932A57.263,57.263,0,0,1,741.033,3544.448Z" transform="translate(-20.208 -7.58)" fill="#ffc229"/>
    </g>
  </g>
</svg>
