<svg xmlns="http://www.w3.org/2000/svg" width="295" height="400" viewBox="0 0 295 400">
  <g id="Grupo_1009737" data-name="Grupo 1009737" transform="translate(-653 -15246)">
    <rect id="Rectángulo_311775" data-name="Rectángulo 311775" width="295" height="400" rx="20" transform="translate(653 15246)" fill="#f0bd51"/>
    <g id="Grupo_1009643" data-name="Grupo 1009643" transform="translate(10.829 -440.221)">
      <g id="Grupo_986536" data-name="Grupo 986536" transform="translate(668.883 15766.221)">
        <path id="Trazado_659342" data-name="Trazado 659342" d="M588.446,3921.816a119.781,119.781,0,1,1,119.781-119.781A119.917,119.917,0,0,1,588.446,3921.816Zm0-228.764a108.982,108.982,0,1,0,108.982,108.982A109.105,109.105,0,0,0,588.446,3693.052Z" transform="translate(-468.665 -3682.254)" fill="#ef8b53"/>
      </g>
      <g id="Grupo_986577" data-name="Grupo 986577" transform="translate(656.171 15779.793)">
        <path id="Trazado_659399" data-name="Trazado 659399" d="M722.5,3692.32l-36.748,20.461v0H505.692v0l-36.746-20.461h-5.01v164.335h5.01v0h36.746v0h7.134v2.271h-.834a2.787,2.787,0,0,0-2.78,2.779v8.86a2.787,2.787,0,0,0,2.78,2.781h2.557v24.1a2.35,2.35,0,0,0,2.347,2.345h8.156a2.353,2.353,0,0,0,2.347-2.345v-24.1H657.566v24.1a2.354,2.354,0,0,0,2.349,2.345h8.155a2.353,2.353,0,0,0,2.349-2.345v-24.1h9.036a2.789,2.789,0,0,0,2.781-2.781v-8.86a2.789,2.789,0,0,0-2.781-2.779h-.832v-2.271h7.132v0H722.5v0h5.01V3692.32Z" transform="translate(-459.856 -3687.52)" fill="gray" fill-rule="evenodd" opacity="0.5" style="mix-blend-mode: multiply;isolation: isolate"/>
        <g id="Grupo_986576" data-name="Grupo 986576">
          <g id="Grupo_986566" data-name="Grupo 986566" transform="translate(193.631 179.498)">
            <path id="Trazado_659400" data-name="Trazado 659400" d="M580.646,3788.04v25.63a2.355,2.355,0,0,1-2.349,2.346h-8.155a2.353,2.353,0,0,1-2.349-2.346v-25.63Z" transform="translate(-567.794 -3788.04)" fill="#16131b" fill-rule="evenodd"/>
            <path id="Trazado_659401" data-name="Trazado 659401" d="M574.22,3816.015h-4.077a2.353,2.353,0,0,1-2.349-2.346v-25.63h6.426Z" transform="translate(-567.794 -3788.04)" fill="#16131b" fill-rule="evenodd"/>
          </g>
          <rect id="Rectángulo_310687" data-name="Rectángulo 310687" width="180.062" height="143.876" transform="translate(41.757 20.459)" fill="#eef0f9"/>
          <rect id="Rectángulo_310688" data-name="Rectángulo 310688" width="165.795" height="129.605" transform="translate(48.891 27.596)" fill="#16131b"/>
          <path id="Trazado_659402" data-name="Trazado 659402" d="M501.193,3854.021H464.445V3689.69l36.747,20.462Z" transform="translate(-459.435 -3689.69)" fill="#75cf3f" fill-rule="evenodd"/>
          <path id="Trazado_659403" data-name="Trazado 659403" d="M501.193,3854.021H464.445V3689.69l36.747,20.462Z" transform="translate(-459.435 -3689.69)" fill="gray" fill-rule="evenodd" opacity="0.35" style="mix-blend-mode: multiply;isolation: isolate"/>
          <rect id="Rectángulo_310689" data-name="Rectángulo 310689" width="5.01" height="164.335" fill="#75cf3f"/>
          <path id="Trazado_659404" data-name="Trazado 659404" d="M583.239,3854.021h36.747V3689.69l-36.747,20.462Z" transform="translate(-361.419 -3689.69)" fill="#75cf3f" fill-rule="evenodd"/>
          <path id="Trazado_659405" data-name="Trazado 659405" d="M583.239,3854.021h36.747V3689.69l-36.747,20.462Z" transform="translate(-361.419 -3689.69)" fill="gray" fill-rule="evenodd" opacity="0.35" style="mix-blend-mode: multiply;isolation: isolate"/>
          <rect id="Rectángulo_310690" data-name="Rectángulo 310690" width="5.01" height="164.335" transform="translate(258.567)" fill="#75cf3f"/>
          <rect id="Rectángulo_310691" data-name="Rectángulo 310691" width="165.795" height="3.178" transform="translate(48.891 164.334)" fill="#16131b"/>
          <g id="Grupo_986567" data-name="Grupo 986567" transform="translate(50.615 179.498)">
            <path id="Trazado_659406" data-name="Trazado 659406" d="M502.284,3788.04v25.63a2.353,2.353,0,0,1-2.349,2.346H491.78a2.351,2.351,0,0,1-2.347-2.346v-25.63Z" transform="translate(-489.433 -3788.04)" fill="#16131b" fill-rule="evenodd"/>
            <path id="Trazado_659407" data-name="Trazado 659407" d="M495.857,3816.015H491.78a2.351,2.351,0,0,1-2.347-2.346v-25.63h6.424Z" transform="translate(-489.433 -3788.04)" fill="#16131b" fill-rule="evenodd"/>
          </g>
          <g id="Grupo_986568" data-name="Grupo 986568" transform="translate(45.276 166.605)">
            <path id="Rectángulo_310692" data-name="Rectángulo 310692" d="M1.523,0H171.5a1.523,1.523,0,0,1,1.523,1.523V12.9a1.524,1.524,0,0,1-1.524,1.524H1.524A1.524,1.524,0,0,1,0,12.9V1.523A1.523,1.523,0,0,1,1.523,0Z" transform="translate(0.001)" fill="#7b8495"/>
            <path id="Trazado_659408" data-name="Trazado 659408" d="M489.29,3792.137H656.751a2.788,2.788,0,0,0,2.78-2.78v-4.43H486.508v4.43A2.789,2.789,0,0,0,489.29,3792.137Z" transform="translate(-486.508 -3777.716)" fill="#16131b" fill-rule="evenodd"/>
          </g>
          <path id="Trazado_659409" data-name="Trazado 659409" d="M488.488,3704.81l52.046,28.723v100.879H488.488Z" transform="translate(-439.598 -3677.215)" fill="#312e36" fill-rule="evenodd"/>
          <path id="Trazado_659410" data-name="Trazado 659410" d="M602.859,3704.81l-52.046,28.723v100.879h52.046Z" transform="translate(-388.173 -3677.215)" fill="#312e36" fill-rule="evenodd"/>
          <g id="Grupo_986575" data-name="Grupo 986575" transform="translate(57.145 69.487)">
            <g id="Grupo_986571" data-name="Grupo 986571" transform="translate(26.834)">
              <g id="Grupo_986569" data-name="Grupo 986569" transform="translate(39.685)">
                <rect id="Rectángulo_310693" data-name="Rectángulo 310693" width="38.186" height="34.233" transform="translate(0.499)" fill="#cd8555"/>
                <rect id="Rectángulo_310694" data-name="Rectángulo 310694" width="39.185" height="5.698" fill="#cd8555"/>
                <path id="Trazado_659411" data-name="Trazado 659411" d="M567.912,3759.42H553.578l-23.845-28.535h38.179Z" transform="translate(-529.23 -3725.187)" fill="#b75f22" fill-rule="evenodd"/>
                <path id="Trazado_659412" data-name="Trazado 659412" d="M550.755,3727.763h-4.2v7.877l.91-.423.817.391,1.134-.666,1.339.7Z" transform="translate(-515.35 -3727.763)" fill="#802e00" fill-rule="evenodd"/>
                <path id="Trazado_659413" data-name="Trazado 659413" d="M535.726,3727.763h-4.2v7.877l.907-.423.817.391,1.134-.666,1.339.7Z" transform="translate(-527.747 -3727.763)" fill="#802e00" fill-rule="evenodd"/>
              </g>
              <g id="Grupo_986570" data-name="Grupo 986570">
                <rect id="Rectángulo_310695" data-name="Rectángulo 310695" width="38.182" height="34.233" transform="translate(0.5)" fill="#cd8555"/>
                <rect id="Rectángulo_310696" data-name="Rectángulo 310696" width="39.185" height="5.698" fill="#cd8555"/>
                <path id="Trazado_659414" data-name="Trazado 659414" d="M546.17,3759.42H531.832l-23.844-28.535H546.17Z" transform="translate(-507.488 -3725.187)" fill="#b75f22" fill-rule="evenodd"/>
                <path id="Trazado_659415" data-name="Trazado 659415" d="M529.008,3727.763h-4.2v7.877l.907-.423.817.391,1.134-.666,1.339.7Z" transform="translate(-493.606 -3727.763)" fill="#802e00" fill-rule="evenodd"/>
                <path id="Trazado_659416" data-name="Trazado 659416" d="M513.981,3727.763h-4.2v7.877l.907-.423.82.391,1.13-.666,1.339.7Z" transform="translate(-506.005 -3727.763)" fill="#802e00" fill-rule="evenodd"/>
              </g>
            </g>
            <g id="Grupo_986572" data-name="Grupo 986572" transform="translate(0 35.553)">
              <rect id="Rectángulo_310697" data-name="Rectángulo 310697" width="54.038" height="52.158" fill="#cd8555"/>
              <rect id="Rectángulo_310698" data-name="Rectángulo 310698" width="6.785" height="42.891" transform="translate(4.606 4.421)" fill="#802e00"/>
              <rect id="Rectángulo_310699" data-name="Rectángulo 310699" width="6.781" height="42.891" transform="translate(11.391 4.421)" fill="#802e00"/>
              <rect id="Rectángulo_310700" data-name="Rectángulo 310700" width="6.785" height="42.891" transform="translate(18.172 4.421)" fill="#802e00"/>
              <rect id="Rectángulo_310701" data-name="Rectángulo 310701" width="6.784" height="42.891" transform="translate(24.956 4.421)" fill="#802e00"/>
              <rect id="Rectángulo_310702" data-name="Rectángulo 310702" width="6.784" height="42.891" transform="translate(31.741 4.421)" fill="#802e00"/>
              <rect id="Rectángulo_310703" data-name="Rectángulo 310703" width="6.784" height="42.891" transform="translate(38.525 4.421)" fill="#802e00"/>
              <rect id="Rectángulo_310704" data-name="Rectángulo 310704" width="3.921" height="42.891" transform="translate(45.31 4.421)" fill="#802e00"/>
              <rect id="Rectángulo_310705" data-name="Rectángulo 310705" width="2.7" height="38.686" transform="translate(5.827 7.787)" fill="#b75f22"/>
              <rect id="Rectángulo_310706" data-name="Rectángulo 310706" width="2.701" height="38.686" transform="translate(12.611 7.787)" fill="#b75f22"/>
              <rect id="Rectángulo_310707" data-name="Rectángulo 310707" width="2.7" height="38.686" transform="translate(19.396 7.787)" fill="#b75f22"/>
              <rect id="Rectángulo_310708" data-name="Rectángulo 310708" width="2.697" height="38.686" transform="translate(26.18 7.787)" fill="#b75f22"/>
              <rect id="Rectángulo_310709" data-name="Rectángulo 310709" width="2.703" height="38.686" transform="translate(32.961 7.787)" fill="#b75f22"/>
              <rect id="Rectángulo_310710" data-name="Rectángulo 310710" width="2.697" height="38.686" transform="translate(39.749 7.787)" fill="#b75f22"/>
              <rect id="Rectángulo_310711" data-name="Rectángulo 310711" width="2.7" height="38.686" transform="translate(46.53 7.787)" fill="#b75f22"/>
              <rect id="Rectángulo_310712" data-name="Rectángulo 310712" width="2.864" height="42.891" transform="translate(8.527 4.421)" fill="#cd8555"/>
              <rect id="Rectángulo_310713" data-name="Rectángulo 310713" width="2.86" height="42.891" transform="translate(15.312 4.421)" fill="#cd8555"/>
              <rect id="Rectángulo_310714" data-name="Rectángulo 310714" width="2.864" height="42.891" transform="translate(22.092 4.421)" fill="#cd8555"/>
              <rect id="Rectángulo_310715" data-name="Rectángulo 310715" width="2.864" height="42.891" transform="translate(28.877 4.421)" fill="#cd8555"/>
              <rect id="Rectángulo_310716" data-name="Rectángulo 310716" width="2.861" height="42.891" transform="translate(35.665 4.421)" fill="#cd8555"/>
              <rect id="Rectángulo_310717" data-name="Rectángulo 310717" width="2.864" height="42.891" transform="translate(42.446 4.421)" fill="#cd8555"/>
            </g>
            <g id="Grupo_986573" data-name="Grupo 986573" transform="translate(55.361 35.553)">
              <rect id="Rectángulo_310718" data-name="Rectángulo 310718" width="54.038" height="52.158" fill="#cd8555"/>
              <rect id="Rectángulo_310719" data-name="Rectángulo 310719" width="6.784" height="42.891" transform="translate(4.606 4.421)" fill="#802e00"/>
              <rect id="Rectángulo_310720" data-name="Rectángulo 310720" width="6.785" height="42.891" transform="translate(11.387 4.421)" fill="#802e00"/>
              <rect id="Rectángulo_310721" data-name="Rectángulo 310721" width="6.784" height="42.891" transform="translate(18.172 4.421)" fill="#802e00"/>
              <rect id="Rectángulo_310722" data-name="Rectángulo 310722" width="6.785" height="42.891" transform="translate(24.956 4.421)" fill="#802e00"/>
              <rect id="Rectángulo_310723" data-name="Rectángulo 310723" width="6.784" height="42.891" transform="translate(31.741 4.421)" fill="#802e00"/>
              <rect id="Rectángulo_310724" data-name="Rectángulo 310724" width="6.785" height="42.891" transform="translate(38.525 4.421)" fill="#802e00"/>
              <rect id="Rectángulo_310725" data-name="Rectángulo 310725" width="3.921" height="42.891" transform="translate(45.31 4.421)" fill="#802e00"/>
              <rect id="Rectángulo_310726" data-name="Rectángulo 310726" width="2.7" height="38.686" transform="translate(5.827 7.787)" fill="#b75f22"/>
              <rect id="Rectángulo_310727" data-name="Rectángulo 310727" width="2.7" height="38.686" transform="translate(12.611 7.787)" fill="#b75f22"/>
              <rect id="Rectángulo_310728" data-name="Rectángulo 310728" width="2.701" height="38.686" transform="translate(19.395 7.787)" fill="#b75f22"/>
              <rect id="Rectángulo_310729" data-name="Rectángulo 310729" width="2.697" height="38.686" transform="translate(26.18 7.787)" fill="#b75f22"/>
              <rect id="Rectángulo_310730" data-name="Rectángulo 310730" width="2.7" height="38.686" transform="translate(32.961 7.787)" fill="#b75f22"/>
              <rect id="Rectángulo_310731" data-name="Rectángulo 310731" width="2.7" height="38.686" transform="translate(39.746 7.787)" fill="#b75f22"/>
              <rect id="Rectángulo_310732" data-name="Rectángulo 310732" width="2.7" height="38.686" transform="translate(46.53 7.787)" fill="#b75f22"/>
              <rect id="Rectángulo_310733" data-name="Rectángulo 310733" width="2.864" height="42.891" transform="translate(8.527 4.421)" fill="#cd8555"/>
              <rect id="Rectángulo_310734" data-name="Rectángulo 310734" width="2.861" height="42.891" transform="translate(15.311 4.421)" fill="#cd8555"/>
              <rect id="Rectángulo_310735" data-name="Rectángulo 310735" width="2.86" height="42.891" transform="translate(22.096 4.421)" fill="#cd8555"/>
              <rect id="Rectángulo_310736" data-name="Rectángulo 310736" width="2.864" height="42.891" transform="translate(28.877 4.421)" fill="#cd8555"/>
              <rect id="Rectángulo_310737" data-name="Rectángulo 310737" width="2.864" height="42.891" transform="translate(35.662 4.421)" fill="#cd8555"/>
              <rect id="Rectángulo_310738" data-name="Rectángulo 310738" width="2.864" height="42.891" transform="translate(42.446 4.421)" fill="#cd8555"/>
            </g>
            <rect id="Rectángulo_310739" data-name="Rectángulo 310739" width="77.803" height="1.32" transform="translate(27.333 34.233)" fill="#802e00"/>
            <rect id="Rectángulo_310740" data-name="Rectángulo 310740" width="1.323" height="52.158" transform="translate(54.038 35.553)" fill="#802e00"/>
            <g id="Grupo_986574" data-name="Grupo 986574" transform="translate(110.101 53.478)">
              <rect id="Rectángulo_310741" data-name="Rectángulo 310741" width="38.183" height="34.233" transform="translate(0.499)" fill="#cd8555"/>
              <rect id="Rectángulo_310742" data-name="Rectángulo 310742" width="39.185" height="5.702" fill="#cd8555"/>
              <path id="Trazado_659417" data-name="Trazado 659417" d="M591.794,3788.719H577.459l-23.848-28.532h38.183Z" transform="translate(-553.112 -3754.486)" fill="#b75f22" fill-rule="evenodd"/>
              <path id="Trazado_659418" data-name="Trazado 659418" d="M574.635,3757.064h-4.2v7.88l.906-.422.82.394,1.131-.669,1.342.7Z" transform="translate(-539.23 -3757.064)" fill="#802e00" fill-rule="evenodd"/>
              <path id="Trazado_659419" data-name="Trazado 659419" d="M559.608,3757.064h-4.2v7.88l.907-.422.817.394,1.137-.669,1.339.7Z" transform="translate(-551.629 -3757.064)" fill="#802e00" fill-rule="evenodd"/>
            </g>
          </g>
        </g>
      </g>
    </g>
  </g>
</svg>
