<svg xmlns="http://www.w3.org/2000/svg" width="105" height="104.465" viewBox="0 0 105 104.465">
  <g id="Grupo_1009741" data-name="Grupo 1009741" transform="translate(-1020 -16463.234)">
    <path id="Trazado_626454" data-name="Trazado 626454" d="M0,0H105V104.465H0Z" transform="translate(1020 16463.234)" fill="#f0bd51"/>
    <g id="Giftbox-Hands-Purchase-Buy-Commerce" transform="translate(1045 16482)">
      <path id="Trazado_659599" data-name="Trazado 659599" d="M18,9H46v6H18Z" fill="#ee8700"/>
      <path id="Trazado_659600" data-name="Trazado 659600" d="M46,15V29a2.006,2.006,0,0,1-2,2H20a2.006,2.006,0,0,1-2-2V15Z" fill="#ff9811"/>
      <path id="Trazado_659601" data-name="Trazado 659601" d="M53,31.4V22a3,3,0,0,1,6,0V46l-4,5v2H43V45l7-12.12a2.982,2.982,0,0,1,2.6-1.5c.13,0,.27.01.4.02Z" fill="#ffc477"/>
      <path id="Trazado_659602" data-name="Trazado 659602" d="M57,53v8H41V53H57Z" fill="#3d9ae2"/>
      <path id="Trazado_659603" data-name="Trazado 659603" d="M42,3l4,6H18l4-6Z" fill="#ff9811"/>
      <path id="Trazado_659604" data-name="Trazado 659604" d="M38,43H35v8H29V43H26l6-6Z" fill="#ff5023"/>
      <path id="Trazado_659605" data-name="Trazado 659605" d="M35,15v4l-3-2-3,2V9h6Z" fill="#e6e7e8"/>
      <path id="Trazado_659606" data-name="Trazado 659606" d="M24,53v8H8V53H24Z" fill="#3d9ae2"/>
      <path id="Trazado_659607" data-name="Trazado 659607" d="M12,31.4c.13-.01.27-.02.4-.02a2.982,2.982,0,0,1,2.6,1.5L22,45v8H10V51L6,46V22a3,3,0,0,1,6,0Z" fill="#ffc477"/>
      <path id="Trazado_659608" data-name="Trazado 659608" d="M46.83,8.45l-4-6A1,1,0,0,0,42,2H22a1,1,0,0,0-.83.45l-4,6A.967.967,0,0,0,17,9V29a3.009,3.009,0,0,0,3,3H44a3.009,3.009,0,0,0,3-3V9a.967.967,0,0,0-.17-.55ZM22.54,4H41.46l2.67,4H19.87ZM34,10v7.13l-1.45-.96a.963.963,0,0,0-1.1,0L30,17.13V10ZM19,10h9v4H19ZM45,29a1,1,0,0,1-1,1H20a1,1,0,0,1-1-1V16h9v3a.984.984,0,0,0,.53.88.963.963,0,0,0,1.02-.05L32,18.2l2.45,1.63A1,1,0,0,0,36,19V16h9Zm0-15H36V10h9Z"/>
      <path id="Trazado_659609" data-name="Trazado 659609" d="M32.707,36.293a1,1,0,0,0-1.414,0l-6,6A1,1,0,0,0,26,44h2v7h2V43a1,1,0,0,0-1-1h-.586L32,38.414,35.586,42H35a1,1,0,0,0-1,1V55h2V44h2a1,1,0,0,0,.707-1.707Z"/>
      <path id="Trazado_659610" data-name="Trazado 659610" d="M51,4h2v6H51Z"/>
      <path id="Trazado_659611" data-name="Trazado 659611" d="M51,12h2v2H51Z"/>
      <path id="Trazado_659612" data-name="Trazado 659612" d="M57,7h2v4H57Z"/>
      <path id="Trazado_659613" data-name="Trazado 659613" d="M57,13h2v2H57Z"/>
      <path id="Trazado_659614" data-name="Trazado 659614" d="M11,4h2v6H11Z"/>
      <path id="Trazado_659615" data-name="Trazado 659615" d="M11,12h2v2H11Z"/>
      <path id="Trazado_659616" data-name="Trazado 659616" d="M5,7H7v4H5Z"/>
      <path id="Trazado_659617" data-name="Trazado 659617" d="M5,13H7v2H5Z"/>
      <path id="Trazado_659618" data-name="Trazado 659618" d="M44,56h2v2H44Z"/>
      <path id="Trazado_659619" data-name="Trazado 659619" d="M56,18a4,4,0,0,0-4,4v8.44a3.354,3.354,0,0,0-.44.07,4,4,0,0,0-2.43,1.87l-7,12.12A1.063,1.063,0,0,0,42,45v7H41a1,1,0,0,0-1,1v8a1,1,0,0,0,1,1H57a1,1,0,0,0,1-1V53a1,1,0,0,0-1-1H56v-.65l3.78-4.73A.977.977,0,0,0,60,46V22a4,4,0,0,0-4-4Zm0,42H42V54H56Zm2-14.35-3.78,4.73A.977.977,0,0,0,54,51v1H44V45.27l6.87-11.89a2,2,0,1,1,3.46,2l-5,8.66,1.73,1,5-8.66a4.008,4.008,0,0,0-1.46-5.47,4.592,4.592,0,0,0-.6-.27V22a2,2,0,0,1,4,0Z"/>
      <path id="Trazado_659620" data-name="Trazado 659620" d="M24,52H23V45a1.063,1.063,0,0,0-.13-.5l-7-12.12A3.994,3.994,0,0,0,13,30.44V22a4,4,0,0,0-8,0V46a.977.977,0,0,0,.22.62L9,51.35V52H8a1,1,0,0,0-1,1v8a1,1,0,0,0,1,1H24a1,1,0,0,0,1-1V53A1,1,0,0,0,24,52ZM7,45.65V22a2,2,0,0,1,4,0v8.64a5.279,5.279,0,0,0-.6.27,4,4,0,0,0-1.46,5.47l5,8.66,1.73-1-5-8.66a2,2,0,1,1,3.46-2L21,45.27V52H11V51a.977.977,0,0,0-.22-.62ZM23,60H9V54H23Z"/>
      <path id="Trazado_659621" data-name="Trazado 659621" d="M19,56h2v2H19Z"/>
      <path id="Trazado_659622" data-name="Trazado 659622" d="M34,57h2v2H34Z"/>
      <path id="Trazado_659623" data-name="Trazado 659623" d="M28,53h2v2H28Z"/>
    </g>
  </g>
</svg>
