<svg xmlns="http://www.w3.org/2000/svg" width="295" height="400" viewBox="0 0 295 400">
  <g id="Grupo_1009736" data-name="Grupo 1009736" transform="translate(-968 -15246)">
    <rect id="Rectángulo_311774" data-name="Rectángulo 311774" width="295" height="400" rx="20" transform="translate(968 15246)" fill="#f0bd51"/>
    <g id="Grupo_1009644" data-name="Grupo 1009644" transform="translate(54.059 -445.219)">
      <g id="Grupo_986530" data-name="Grupo 986530" transform="translate(934.941 15776.143)">
        <path id="Trazado_659336" data-name="Trazado 659336" d="M528.759,4071.323A119.782,119.782,0,1,1,648.54,3951.541,119.919,119.919,0,0,1,528.759,4071.323Zm0-228.764a108.981,108.981,0,1,0,108.98,108.982A109.106,109.106,0,0,0,528.759,3842.559Z" transform="translate(-408.978 -3831.758)" fill="#ef8b53"/>
      </g>
      <g id="Grupo_986599" data-name="Grupo 986599" transform="translate(939.691 15766.219)">
        <g id="Grupo_986585" data-name="Grupo 986585" transform="translate(61.996)">
          <path id="Trazado_659431" data-name="Trazado 659431" d="M496.239,3848.669a.964.964,0,0,0,.964-.963v-5.517a.963.963,0,0,0-.964-.964h-1.374v-8.6a3.677,3.677,0,0,0-3.676-3.676H453.8a3.675,3.675,0,0,0-3.676,3.676v8.6h-1.376a.963.963,0,0,0-.962.964v5.517a.963.963,0,0,0,.962.963h1.376v7.764h-1.376a.964.964,0,0,0-.962.964v5.517a.962.962,0,0,0,.962.963h1.376V3879.9a3.666,3.666,0,0,0,.865,2.369l5.853,6.946v43.35a4.061,4.061,0,0,0,4.061,4.061h23.182a4.06,4.06,0,0,0,4.061-4.061v-43.35l5.855-6.946a3.676,3.676,0,0,0,.865-2.369v-3.868h1.374a.963.963,0,0,0,.964-.964v-2.984a.963.963,0,0,0-.964-.963h-1.374v-7.248h1.374a.963.963,0,0,0,.964-.963V3857.4a.964.964,0,0,0-.964-.964h-1.374v-7.764Z" transform="translate(-443.704 -3824.15)" fill="gray" opacity="0.5" style="mix-blend-mode: multiply;isolation: isolate"/>
          <g id="Grupo_986584" data-name="Grupo 986584">
            <g id="Grupo_986581" data-name="Grupo 986581" transform="translate(0 12.275)">
              <path id="Trazado_659432" data-name="Trazado 659432" d="M446.513,3840.49h5.333v-7.444h-5.333a.962.962,0,0,0-.964.963v5.518A.963.963,0,0,0,446.513,3840.49Z" transform="translate(-445.549 -3833.046)" fill="#324981"/>
              <path id="Trazado_659433" data-name="Trazado 659433" d="M446.513,3848.823h5.333v-7.442h-5.333a.961.961,0,0,0-.964.961v5.518A.963.963,0,0,0,446.513,3848.823Z" transform="translate(-445.549 -3826.17)" fill="#324981"/>
              <path id="Trazado_659434" data-name="Trazado 659434" d="M469.176,3833.046v7.444h5.335a.964.964,0,0,0,.964-.963v-5.518a.963.963,0,0,0-.964-.963Z" transform="translate(-426.054 -3833.046)" fill="#324981"/>
              <path id="Trazado_659435" data-name="Trazado 659435" d="M469.176,3848.823h5.335a.964.964,0,0,0,.964-.963v-5.518a.963.963,0,0,0-.964-.961h-5.335Z" transform="translate(-426.054 -3826.17)" fill="#324981"/>
              <path id="Trazado_659436" data-name="Trazado 659436" d="M469.176,3854.341h5.335a.964.964,0,0,0,.964-.965v-2.984a.964.964,0,0,0-.964-.964h-5.335Z" transform="translate(-426.054 -3819.528)" fill="#324981"/>
            </g>
            <path id="Trazado_659437" data-name="Trazado 659437" d="M487.9,3826.32H450.506A3.676,3.676,0,0,0,446.83,3830v47.278a3.678,3.678,0,0,0,.865,2.37l5.855,6.946v43.349a4.06,4.06,0,0,0,4.061,4.061h23.182a4.061,4.061,0,0,0,4.061-4.061V3886.59l5.853-6.946a3.668,3.668,0,0,0,.865-2.37V3830A3.675,3.675,0,0,0,487.9,3826.32Z" transform="translate(-444.492 -3826.32)" fill="#16131b"/>
            <rect id="Rectángulo_310778" data-name="Rectángulo 310778" width="34.791" height="45.773" transform="translate(7.314 5.445)" fill="#2a2a2a"/>
            <rect id="Rectángulo_310779" data-name="Rectángulo 310779" width="31.902" height="41.972" transform="translate(8.759 7.345)" fill="#dddfe8"/>
            <g id="Grupo_986582" data-name="Grupo 986582" transform="translate(8.759 7.345)">
              <path id="Trazado_659438" data-name="Trazado 659438" d="M462.712,3868.889l16.841-22.33V3834.5l-25.936,34.39Z" transform="translate(-447.651 -3826.917)" fill="#f4f9ff"/>
              <path id="Trazado_659439" data-name="Trazado 659439" d="M450.348,3854.768l18.42-24.423h-9.1l-9.324,12.363Z" transform="translate(-450.348 -3830.345)" fill="#f4f9ff"/>
            </g>
            <rect id="Rectángulo_310780" data-name="Rectángulo 310780" width="12.212" height="4.985" transform="translate(18.604 53.84)" fill="#ffa910"/>
            <g id="Grupo_986583" data-name="Grupo 986583" transform="translate(12.531 65.612)">
              <rect id="Rectángulo_310781" data-name="Rectángulo 310781" width="5.438" height="3.836" fill="#9995a1"/>
              <rect id="Rectángulo_310782" data-name="Rectángulo 310782" width="5.437" height="3.836" transform="translate(9.46)" fill="#9995a1"/>
              <rect id="Rectángulo_310783" data-name="Rectángulo 310783" width="5.437" height="3.836" transform="translate(18.92)" fill="#9995a1"/>
              <rect id="Rectángulo_310784" data-name="Rectángulo 310784" width="5.438" height="3.836" transform="translate(0 8.263)" fill="#9995a1"/>
              <rect id="Rectángulo_310785" data-name="Rectángulo 310785" width="5.437" height="3.836" transform="translate(9.46 8.263)" fill="#9995a1"/>
              <rect id="Rectángulo_310786" data-name="Rectángulo 310786" width="5.437" height="3.836" transform="translate(18.92 8.263)" fill="#9995a1"/>
              <rect id="Rectángulo_310787" data-name="Rectángulo 310787" width="5.438" height="3.836" transform="translate(0 16.527)" fill="#9995a1"/>
              <rect id="Rectángulo_310788" data-name="Rectángulo 310788" width="5.437" height="3.836" transform="translate(9.46 16.527)" fill="#9995a1"/>
              <rect id="Rectángulo_310789" data-name="Rectángulo 310789" width="5.437" height="3.836" transform="translate(18.92 16.527)" fill="#9995a1"/>
              <rect id="Rectángulo_310790" data-name="Rectángulo 310790" width="5.438" height="2.874" transform="translate(0 29.482)" fill="#9995a1"/>
              <rect id="Rectángulo_310791" data-name="Rectángulo 310791" width="5.437" height="2.874" transform="translate(9.46 29.482)" fill="#9995a1"/>
              <rect id="Rectángulo_310792" data-name="Rectángulo 310792" width="5.438" height="2.875" transform="translate(0 34.015)" fill="#9995a1"/>
              <rect id="Rectángulo_310793" data-name="Rectángulo 310793" width="5.437" height="2.875" transform="translate(9.46 34.015)" fill="#9995a1"/>
              <rect id="Rectángulo_310794" data-name="Rectángulo 310794" width="5.438" height="2.874" transform="translate(0 24.949)" fill="#9995a1"/>
              <rect id="Rectángulo_310795" data-name="Rectángulo 310795" width="5.437" height="2.874" transform="translate(9.46 24.949)" fill="#9995a1"/>
              <rect id="Rectángulo_310796" data-name="Rectángulo 310796" width="5.437" height="12.1" transform="translate(18.92 24.79)" fill="#ff2226"/>
            </g>
            <path id="Trazado_659440" data-name="Trazado 659440" d="M467.759,3858.03a1.87,1.87,0,1,1-1.869-1.869A1.87,1.87,0,0,1,467.759,3858.03Z" transform="translate(-430.309 -3801.698)" fill="#9d9ca0"/>
            <path id="Trazado_659441" data-name="Trazado 659441" d="M455.846,3858.03a1.869,1.869,0,1,1-1.869-1.869A1.869,1.869,0,0,1,455.846,3858.03Z" transform="translate(-440.137 -3801.698)" fill="#75cf3f"/>
          </g>
        </g>
        <g id="Grupo_986598" data-name="Grupo 986598" transform="translate(0 10.883)">
          <path id="Trazado_659442" data-name="Trazado 659442" d="M654.926,3834.913H564.091a3.238,3.238,0,0,0-3.176,3.3v47.25a3.239,3.239,0,0,0,3.176,3.3h39.935v120.667H592.159V3938H523.165v-19.852H463.17v45.37H447.936v45.91h-34.12v16.827h28.922l.646,4.188H425.8v6.731h18.623l.325,2.1a7.247,7.247,0,0,0-3.681,9.3h13.548a7.248,7.248,0,0,0-3.681-9.3l.325-2.1H608.9l.325,2.1a7.242,7.242,0,0,0-3.679,9.3H619.1a7.241,7.241,0,0,0-3.681-9.3l.325-2.1h17.738v-6.731h-16.7l.646-4.187h28.037v-16.827h-30.47V3888.761h39.933a3.239,3.239,0,0,0,3.177-3.3v-47.25A3.239,3.239,0,0,0,654.926,3834.913Zm-47.06,195.53H452.3l.646-4.187H607.219Z" transform="translate(-409.736 -3830.113)" fill="gray" opacity="0.5" style="mix-blend-mode: multiply;isolation: isolate"/>
          <g id="Grupo_986597" data-name="Grupo 986597">
            <path id="Trazado_659443" data-name="Trazado 659443" d="M520.647,3957.186h4.63l3.472-22.492H517.175Z" transform="translate(-324.455 -3747.784)" fill="#16131b"/>
            <path id="Trazado_659444" data-name="Trazado 659444" d="M430.525,3957.186h4.629l3.473-22.492H427.052Z" transform="translate(-398.815 -3747.784)" fill="#16131b"/>
            <rect id="Rectángulo_310797" data-name="Rectángulo 310797" width="207.678" height="6.731" transform="translate(11.984 195.529)" fill="#16131b"/>
            <path id="Trazado_659445" data-name="Trazado 659445" d="M516.874,3953.884a7.305,7.305,0,1,1,13.548,0Z" transform="translate(-325.141 -3740.214)" fill="#16131b"/>
            <path id="Trazado_659446" data-name="Trazado 659446" d="M426.753,3953.884a7.306,7.306,0,1,1,13.546,0Z" transform="translate(-399.501 -3740.214)" fill="#16131b"/>
            <g id="Grupo_986587" data-name="Grupo 986587" transform="translate(147.098)">
              <rect id="Rectángulo_310798" data-name="Rectángulo 310798" width="10.967" height="133.808" transform="translate(43.111 51.87)" fill="#f4f9ff"/>
              <path id="Trazado_659447" data-name="Trazado 659447" d="M522.123,3879.383a57.318,57.318,0,0,1-6.324-3.272V3860.7h10.967v20.682Q524.45,3880.38,522.123,3879.383Z" transform="translate(-472.688 -3808.832)" fill="#a9b1be" opacity="0.75" style="mix-blend-mode: multiply;isolation: isolate"/>
              <path id="Trazado_659448" data-name="Trazado 659448" d="M495.355,3886.133h90.835a3.242,3.242,0,0,0,3.178-3.3v-47.25a3.24,3.24,0,0,0-3.178-3.3H495.355a3.239,3.239,0,0,0-3.178,3.3v47.25A3.241,3.241,0,0,0,495.355,3886.133Z" transform="translate(-492.178 -3832.283)" fill="#324981"/>
              <rect id="Rectángulo_310799" data-name="Rectángulo 310799" width="80.926" height="29.153" transform="translate(8.132 17.567)" fill="#dddfe8"/>
              <rect id="Rectángulo_310800" data-name="Rectángulo 310800" width="71.907" height="20.452" transform="translate(12.641 21.917)" fill="#16131b"/>
              <rect id="Rectángulo_310801" data-name="Rectángulo 310801" width="80.926" height="5.582" transform="translate(8.132 6.567)" fill="#fff"/>
              <g id="Grupo_986586" data-name="Grupo 986586" transform="translate(41.681 24.803)">
                <path id="Trazado_659449" data-name="Trazado 659449" d="M522.154,3847.817h-3.245a.431.431,0,0,1-.411-.294l-.345-1.036a.433.433,0,0,1,.411-.571H522.5a.433.433,0,0,1,.411.571l-.347,1.036A.429.429,0,0,1,522.154,3847.817Z" transform="translate(-512.446 -3845.838)" fill="#75cf3f"/>
                <path id="Trazado_659450" data-name="Trazado 659450" d="M520.373,3847.547l.007,3.245a.438.438,0,0,0,.3.413l1.039.341a.43.43,0,0,0,.568-.409l-.007-3.939a.431.431,0,0,0-.571-.408l-1.037.347A.435.435,0,0,0,520.373,3847.547Z" transform="translate(-510.596 -3845.136)" fill="#75cf3f"/>
                <path id="Trazado_659451" data-name="Trazado 659451" d="M519.345,3851.075l-.005,3.246a.433.433,0,0,1-.3.411l-1.037.344a.434.434,0,0,1-.571-.413l.009-3.937a.431.431,0,0,1,.569-.409l1.039.348A.429.429,0,0,1,519.345,3851.075Z" transform="translate(-513.021 -3842.225)" fill="#75cf3f"/>
                <path id="Trazado_659452" data-name="Trazado 659452" d="M518.909,3852.866h3.245a.432.432,0,0,1,.41.3l.347,1.041a.431.431,0,0,1-.411.567h-3.937a.431.431,0,0,1-.411-.567l.345-1.041A.434.434,0,0,1,518.909,3852.866Z" transform="translate(-512.446 -3840.104)" fill="#75cf3f"/>
                <path id="Trazado_659453" data-name="Trazado 659453" d="M521.754,3849.4h-2.732a.387.387,0,0,0-.334.184l-.325.567a.312.312,0,0,0,0,.314l.325.567a.382.382,0,0,0,.334.184h2.732a.38.38,0,0,0,.334-.184l.327-.567a.313.313,0,0,0,0-.314l-.327-.567A.385.385,0,0,0,521.754,3849.4Z" transform="translate(-512.289 -3842.966)" fill="#75cf3f"/>
                <path id="Trazado_659454" data-name="Trazado 659454" d="M515.069,3847l-.02,4.519a.6.6,0,0,0,.328.571l1.154.486c.31.13.633-.161.635-.569l.024-5.485c0-.411-.321-.7-.633-.573l-1.155.479A.613.613,0,0,0,515.069,3847Z" transform="translate(-514.989 -3845.833)" fill="#75cf3f"/>
                <path id="Trazado_659455" data-name="Trazado 659455" d="M515.036,3851.227l-.02,4.57a.618.618,0,0,0,.325.582l1.154.489c.312.13.635-.162.635-.576l.024-5.549c0-.414-.318-.71-.63-.579l-1.155.486A.612.612,0,0,0,515.036,3851.227Z" transform="translate(-515.016 -3842.358)" fill="#75cf3f"/>
                <path id="Trazado_659456" data-name="Trazado 659456" d="M527.008,3847.8l-3.261-.019a.437.437,0,0,1-.412-.3l-.341-1.046a.435.435,0,0,1,.416-.569l3.957.021a.435.435,0,0,1,.409.575l-.354,1.04A.433.433,0,0,1,527.008,3847.8Z" transform="translate(-508.452 -3845.873)" fill="#75cf3f"/>
                <path id="Trazado_659457" data-name="Trazado 659457" d="M524.205,3847.58l-.027,3.521a.469.469,0,0,1-.3.441l-1.046.367a.44.44,0,0,1-.568-.447l.033-4.271a.442.442,0,0,1,.577-.441l1.037.385A.462.462,0,0,1,524.205,3847.58Z" transform="translate(-509.037 -3845.17)" fill="#75cf3f"/>
                <path id="Trazado_659458" data-name="Trazado 659458" d="M525.226,3847.585l-.015,3.518a.466.466,0,0,0,.3.445l1.04.379a.442.442,0,0,0,.573-.443l.016-4.269a.44.44,0,0,0-.569-.449l-1.044.374A.473.473,0,0,0,525.226,3847.585Z" transform="translate(-506.604 -3845.155)" fill="#75cf3f"/>
                <path id="Trazado_659459" data-name="Trazado 659459" d="M524.177,3850.928l-.026,3.5a.461.461,0,0,1-.3.438l-1.044.365a.443.443,0,0,1-.571-.447l.033-4.239a.442.442,0,0,1,.577-.439l1.04.383A.457.457,0,0,1,524.177,3850.928Z" transform="translate(-509.06 -3842.405)" fill="#75cf3f"/>
                <path id="Trazado_659460" data-name="Trazado 659460" d="M525.2,3850.933l-.013,3.493a.461.461,0,0,0,.3.443l1.042.376a.44.44,0,0,0,.573-.441l.016-4.238a.44.44,0,0,0-.573-.443l-1.042.369A.461.461,0,0,0,525.2,3850.933Z" transform="translate(-506.625 -3842.387)" fill="#75cf3f"/>
                <path id="Trazado_659461" data-name="Trazado 659461" d="M523.72,3852.858l3.26.019a.437.437,0,0,1,.411.3l.343,1.044a.436.436,0,0,1-.418.57l-3.955-.022a.433.433,0,0,1-.407-.575l.351-1.039A.439.439,0,0,1,523.72,3852.858Z" transform="translate(-508.486 -3840.11)" fill="#75cf3f"/>
                <path id="Trazado_659462" data-name="Trazado 659462" d="M532.808,3847.8l-3.26-.019a.441.441,0,0,1-.414-.3l-.34-1.046a.433.433,0,0,1,.414-.569l3.957.021a.434.434,0,0,1,.409.575l-.354,1.04A.433.433,0,0,1,532.808,3847.8Z" transform="translate(-503.665 -3845.873)" fill="#75cf3f"/>
                <path id="Trazado_659463" data-name="Trazado 659463" d="M530.006,3847.58l-.026,3.521a.471.471,0,0,1-.3.441l-1.048.367a.44.44,0,0,1-.568-.447l.033-4.271a.443.443,0,0,1,.577-.441l1.038.385A.463.463,0,0,1,530.006,3847.58Z" transform="translate(-504.25 -3845.17)" fill="#75cf3f"/>
                <path id="Trazado_659464" data-name="Trazado 659464" d="M531.026,3847.585l-.013,3.518a.466.466,0,0,0,.3.445l1.039.379a.442.442,0,0,0,.575-.443l.015-4.269a.44.44,0,0,0-.569-.449l-1.044.374A.472.472,0,0,0,531.026,3847.585Z" transform="translate(-501.817 -3845.155)" fill="#75cf3f"/>
                <path id="Trazado_659465" data-name="Trazado 659465" d="M529.979,3850.928l-.027,3.5a.46.46,0,0,1-.3.438l-1.044.365a.442.442,0,0,1-.569-.447l.033-4.239a.441.441,0,0,1,.577-.439l1.039.383A.459.459,0,0,1,529.979,3850.928Z" transform="translate(-504.272 -3842.405)" fill="#75cf3f"/>
                <path id="Trazado_659466" data-name="Trazado 659466" d="M531,3850.933l-.013,3.493a.457.457,0,0,0,.294.443l1.042.376a.442.442,0,0,0,.575-.441l.015-4.238a.44.44,0,0,0-.573-.443l-1.04.369A.461.461,0,0,0,531,3850.933Z" transform="translate(-501.839 -3842.387)" fill="#75cf3f"/>
                <path id="Trazado_659467" data-name="Trazado 659467" d="M529.521,3852.858l3.261.019a.438.438,0,0,1,.411.3l.341,1.044a.434.434,0,0,1-.416.57l-3.955-.022a.433.433,0,0,1-.409-.575l.352-1.039A.435.435,0,0,1,529.521,3852.858Z" transform="translate(-503.7 -3840.11)" fill="#75cf3f"/>
                <path id="Trazado_659468" data-name="Trazado 659468" d="M537.659,3847.8l-3.261-.019a.436.436,0,0,1-.413-.3l-.341-1.046a.435.435,0,0,1,.416-.569l3.957.021a.435.435,0,0,1,.409.575l-.354,1.04A.433.433,0,0,1,537.659,3847.8Z" transform="translate(-499.664 -3845.873)" fill="#75cf3f"/>
                <path id="Trazado_659469" data-name="Trazado 659469" d="M534.856,3847.58l-.027,3.521a.469.469,0,0,1-.3.441l-1.046.367a.439.439,0,0,1-.567-.447l.033-4.271a.442.442,0,0,1,.577-.441l1.037.385A.465.465,0,0,1,534.856,3847.58Z" transform="translate(-500.248 -3845.17)" fill="#75cf3f"/>
                <path id="Trazado_659470" data-name="Trazado 659470" d="M535.877,3847.585l-.015,3.518a.466.466,0,0,0,.3.445l1.04.379a.443.443,0,0,0,.575-.443l.015-4.269a.44.44,0,0,0-.569-.449l-1.044.374A.472.472,0,0,0,535.877,3847.585Z" transform="translate(-497.816 -3845.155)" fill="#75cf3f"/>
                <path id="Trazado_659471" data-name="Trazado 659471" d="M534.828,3850.928l-.026,3.5a.461.461,0,0,1-.3.438l-1.044.365a.443.443,0,0,1-.571-.447l.033-4.239a.442.442,0,0,1,.577-.439l1.04.383A.457.457,0,0,1,534.828,3850.928Z" transform="translate(-500.272 -3842.405)" fill="#75cf3f"/>
                <path id="Trazado_659472" data-name="Trazado 659472" d="M535.849,3850.933l-.013,3.493a.461.461,0,0,0,.3.443l1.04.376a.441.441,0,0,0,.575-.441l.016-4.238a.44.44,0,0,0-.573-.443l-1.042.369A.461.461,0,0,0,535.849,3850.933Z" transform="translate(-497.837 -3842.387)" fill="#75cf3f"/>
                <path id="Trazado_659473" data-name="Trazado 659473" d="M534.371,3852.858l3.26.019a.437.437,0,0,1,.411.3l.343,1.044a.436.436,0,0,1-.416.57l-3.957-.022a.433.433,0,0,1-.407-.575l.35-1.039A.439.439,0,0,1,534.371,3852.858Z" transform="translate(-499.698 -3840.11)" fill="#75cf3f"/>
                <path id="Trazado_659474" data-name="Trazado 659474" d="M527.243,3852.858l.683.019a.436.436,0,0,1,.411.3l.343,1.044a.436.436,0,0,1-.418.57l-1.378-.022a.433.433,0,0,1-.407-.575l.35-1.039A.439.439,0,0,1,527.243,3852.858Z" transform="translate(-505.579 -3840.11)" fill="#75cf3f"/>
              </g>
            </g>
            <rect id="Rectángulo_310802" data-name="Rectángulo 310802" width="231.647" height="16.828" transform="translate(0 174.515)" fill="#546796"/>
            <g id="Grupo_986590" data-name="Grupo 986590" transform="translate(49.355 83.236)">
              <rect id="Rectángulo_310803" data-name="Rectángulo 310803" width="46.984" height="45.91" transform="translate(13.01)" fill="#c97e43"/>
              <rect id="Rectángulo_310804" data-name="Rectángulo 310804" width="46.57" height="45.91" fill="#f3c37c"/>
              <rect id="Rectángulo_310805" data-name="Rectángulo 310805" width="7.417" height="11.813" transform="translate(19.577)" fill="#fff" opacity="0.9"/>
              <rect id="Rectángulo_310806" data-name="Rectángulo 310806" width="7.417" height="11.813" transform="translate(19.577 34.097)" fill="#fff" opacity="0.9"/>
              <g id="Grupo_986589" data-name="Grupo 986589" transform="translate(3.294 36.496)">
                <rect id="Rectángulo_310807" data-name="Rectángulo 310807" width="12.081" height="7.299" fill="#fffff3"/>
                <g id="Grupo_986588" data-name="Grupo 986588" transform="translate(0.585 1.023)">
                  <rect id="Rectángulo_310808" data-name="Rectángulo 310808" width="1.282" height="5.252" transform="translate(9.663)" fill="#16131b"/>
                  <rect id="Rectángulo_310809" data-name="Rectángulo 310809" width="0.449" height="5.252" transform="translate(8.434)" fill="#16131b"/>
                  <rect id="Rectángulo_310810" data-name="Rectángulo 310810" width="1.051" height="5.252" transform="translate(5.541)" fill="#16131b"/>
                  <rect id="Rectángulo_310811" data-name="Rectángulo 310811" width="0.641" height="5.252" transform="translate(7.276)" fill="#16131b"/>
                  <rect id="Rectángulo_310812" data-name="Rectángulo 310812" width="0.434" height="5.252" transform="translate(4.32)" fill="#16131b"/>
                  <rect id="Rectángulo_310813" data-name="Rectángulo 310813" width="0.869" height="5.252" transform="translate(1.833)" fill="#16131b"/>
                  <rect id="Rectángulo_310814" data-name="Rectángulo 310814" width="0.431" height="5.252" transform="translate(1.103)" fill="#16131b"/>
                  <rect id="Rectángulo_310815" data-name="Rectángulo 310815" width="0.595" height="5.252" transform="translate(3.091)" fill="#16131b"/>
                  <rect id="Rectángulo_310816" data-name="Rectángulo 310816" width="0.641" height="5.252" fill="#16131b"/>
                </g>
              </g>
            </g>
            <g id="Grupo_986593" data-name="Grupo 986593" transform="translate(34.121 128.606)">
              <rect id="Rectángulo_310817" data-name="Rectángulo 310817" width="46.984" height="45.91" transform="translate(13.01)" fill="#c97e43"/>
              <rect id="Rectángulo_310818" data-name="Rectángulo 310818" width="46.57" height="45.91" fill="#f3c37c"/>
              <rect id="Rectángulo_310819" data-name="Rectángulo 310819" width="12.495" height="11.813" transform="translate(17.037)" fill="#fff" opacity="0.9"/>
              <rect id="Rectángulo_310820" data-name="Rectángulo 310820" width="12.495" height="11.813" transform="translate(17.037 34.097)" fill="#fff" opacity="0.9"/>
              <g id="Grupo_986592" data-name="Grupo 986592" transform="translate(32.257 36.497)">
                <rect id="Rectángulo_310821" data-name="Rectángulo 310821" width="12.082" height="7.299" fill="#fffff3"/>
                <g id="Grupo_986591" data-name="Grupo 986591" transform="translate(0.585 1.023)">
                  <rect id="Rectángulo_310822" data-name="Rectángulo 310822" width="1.282" height="5.252" transform="translate(9.663)" fill="#16131b"/>
                  <rect id="Rectángulo_310823" data-name="Rectángulo 310823" width="0.45" height="5.252" transform="translate(8.434)" fill="#16131b"/>
                  <rect id="Rectángulo_310824" data-name="Rectángulo 310824" width="1.051" height="5.252" transform="translate(5.541)" fill="#16131b"/>
                  <rect id="Rectángulo_310825" data-name="Rectángulo 310825" width="0.641" height="5.252" transform="translate(7.276)" fill="#16131b"/>
                  <rect id="Rectángulo_310826" data-name="Rectángulo 310826" width="0.435" height="5.252" transform="translate(4.321)" fill="#16131b"/>
                  <rect id="Rectángulo_310827" data-name="Rectángulo 310827" width="0.869" height="5.252" transform="translate(1.833)" fill="#16131b"/>
                  <rect id="Rectángulo_310828" data-name="Rectángulo 310828" width="0.431" height="5.252" transform="translate(1.103)" fill="#16131b"/>
                  <rect id="Rectángulo_310829" data-name="Rectángulo 310829" width="0.595" height="5.252" transform="translate(3.091)" fill="#16131b"/>
                  <rect id="Rectángulo_310830" data-name="Rectángulo 310830" width="0.641" height="5.252" fill="#16131b"/>
                </g>
              </g>
            </g>
            <g id="Grupo_986596" data-name="Grupo 986596" transform="translate(85.003 103.087)">
              <rect id="Rectángulo_310831" data-name="Rectángulo 310831" width="73.099" height="71.429" transform="translate(20.241)" fill="#c97e43"/>
              <rect id="Rectángulo_310832" data-name="Rectángulo 310832" width="72.455" height="71.429" fill="#f3c37c"/>
              <rect id="Rectángulo_310833" data-name="Rectángulo 310833" width="19.441" height="18.379" transform="translate(26.507)" fill="#fff" opacity="0.9"/>
              <rect id="Rectángulo_310834" data-name="Rectángulo 310834" width="19.441" height="18.379" transform="translate(26.507 53.049)" fill="#fff" opacity="0.9"/>
              <g id="Grupo_986595" data-name="Grupo 986595" transform="translate(50.186 56.782)">
                <rect id="Rectángulo_310835" data-name="Rectángulo 310835" width="18.797" height="11.357" fill="#fffff3"/>
                <g id="Grupo_986594" data-name="Grupo 986594" transform="translate(0.91 1.593)">
                  <rect id="Rectángulo_310836" data-name="Rectángulo 310836" width="1.995" height="8.172" transform="translate(15.033)" fill="#16131b"/>
                  <rect id="Rectángulo_310837" data-name="Rectángulo 310837" width="0.7" height="8.172" transform="translate(13.122)" fill="#16131b"/>
                  <rect id="Rectángulo_310838" data-name="Rectángulo 310838" width="1.636" height="8.172" transform="translate(8.621)" fill="#16131b"/>
                  <rect id="Rectángulo_310839" data-name="Rectángulo 310839" width="0.998" height="8.172" transform="translate(11.321)" fill="#16131b"/>
                  <rect id="Rectángulo_310840" data-name="Rectángulo 310840" width="0.676" height="8.172" transform="translate(6.722)" fill="#16131b"/>
                  <rect id="Rectángulo_310841" data-name="Rectángulo 310841" width="1.352" height="8.172" transform="translate(2.852)" fill="#16131b"/>
                  <rect id="Rectángulo_310842" data-name="Rectángulo 310842" width="0.671" height="8.172" transform="translate(1.717)" fill="#16131b"/>
                  <rect id="Rectángulo_310843" data-name="Rectángulo 310843" width="0.927" height="8.172" transform="translate(4.809)" fill="#16131b"/>
                  <rect id="Rectángulo_310844" data-name="Rectángulo 310844" width="0.998" height="8.172" fill="#16131b"/>
                </g>
              </g>
            </g>
          </g>
        </g>
      </g>
    </g>
  </g>
</svg>
