<svg xmlns="http://www.w3.org/2000/svg" width="105" height="104.465" viewBox="0 0 105 104.465">
  <g id="Grupo_1009739" data-name="Grupo 1009739" transform="translate(-180 -16463.234)">
    <path id="Trazado_626454" data-name="Trazado 626454" d="M0,0H105V104.465H0Z" transform="translate(180 16463.234)" fill="#f0bd51"/>
    <g id="_x31_416_x2C__Box_x2C__Packaging_x2C__Product_x2C__Shopping_x2C__Valentine" transform="translate(185.845 16468.389)">
      <g id="Grupo_986689" data-name="Grupo 986689" transform="translate(16 16.001)">
        <path id="XMLID_65282_" d="M99.885,226H96v33.667h41.437V226Z" transform="translate(-85.641 -198.807)" fill="#e6be94"/>
        <path id="XMLID_65283_" d="M148.949,386v7.769H136V386Zm-2.59,5.18v-2.59h-2.59v2.59Zm-5.18,0v-2.59h-2.59v2.59Z" transform="translate(-120.461 -338.089)" fill="#8e725d"/>
        <path id="XMLID_65287_" d="M48.59,136A2.59,2.59,0,1,1,46,138.59,2.589,2.589,0,0,1,48.59,136Z" transform="translate(-42.115 -120.461)" fill="#ea7e23"/>
        <path id="XMLID_65288_" d="M448.59,226a2.59,2.59,0,1,1-2.59,2.59A2.589,2.589,0,0,1,448.59,226Z" transform="translate(-390.32 -198.807)" fill="#ea7e23"/>
        <path id="XMLID_65289_" d="M159.667,166v7.769H126v-6.474Z" transform="translate(-111.756 -146.577)" fill="#65b2fe"/>
        <path id="XMLID_65292_" d="M288.949,226v20.718l-6.474-6.474L276,246.718V226Z" transform="translate(-242.333 -198.807)" fill="#ef727a"/>
        <path id="XMLID_65293_" d="M235.688,47.081l-1.331,7.654L221.6,52.514l1.332-7.654Z" transform="translate(-194.977 -41.123)" fill="#c69a75"/>
        <path id="XMLID_65294_" d="M335.484,64.452l-1.331,7.655L320.12,69.664l1.331-7.654Z" transform="translate(-280.74 -56.052)" fill="#e6be94"/>
        <path id="XMLID_65295_" d="M128.6,28.442,127.263,36.1,113.23,33.654,114.561,26Z" transform="translate(-100.64 -24.705)" fill="#e6be94"/>
        <path id="XMLID_65296_" d="M456,346h2.59v2.59H456Z" transform="translate(-399.025 -303.269)"/>
        <path id="XMLID_65297_" d="M196,406h2.59v2.59H196Z" transform="translate(-172.692 -355.499)"/>
        <path id="XMLID_65298_" d="M156,406h2.59v2.59H156Z" transform="translate(-137.871 -355.499)"/>
        <path id="XMLID_65299_" d="M136,126h2.59v2.59H136Z" transform="translate(-120.461 -111.756)"/>
        <path id="XMLID_65300_" d="M46,46h2.59v2.59H46Z" transform="translate(-42.115 -42.115)"/>
        <path id="XMLID_65301_" d="M381.18,252.257a1.3,1.3,0,0,1-1.295-1.295V218.59h-2.59a1.295,1.295,0,1,1,0-2.59h3.885a1.3,1.3,0,0,1,1.295,1.295v33.667A1.3,1.3,0,0,1,381.18,252.257Z" transform="translate(-329.384 -190.102)"/>
        <path id="XMLID_65302_" d="M87.295,252.257A1.3,1.3,0,0,1,86,250.962V217.295A1.3,1.3,0,0,1,87.295,216H91.18a1.295,1.295,0,1,1,0,2.59H88.59v32.372A1.3,1.3,0,0,1,87.295,252.257Z" transform="translate(-76.936 -190.102)"/>
        <path id="XMLID_65303_" d="M150.962,166.358h-1.295a1.295,1.295,0,0,1,0-2.59V158.64l-31.077,1.2v3.934h18.129a1.295,1.295,0,0,1,0,2.59H117.295A1.3,1.3,0,0,1,116,165.064v-6.474a1.3,1.3,0,0,1,1.245-1.294L150.912,156a1.295,1.295,0,0,1,1.345,1.294v7.769A1.3,1.3,0,0,1,150.962,166.358Z" transform="translate(-103.051 -137.871)"/>
        <path id="XMLID_65304_" d="M280.244,239.308a1.294,1.294,0,0,1-.916-.379l-5.559-5.559-5.559,5.559a1.295,1.295,0,0,1-2.211-.916V217.295A1.3,1.3,0,0,1,267.295,216h12.949a1.3,1.3,0,0,1,1.295,1.295v20.718a1.295,1.295,0,0,1-1.295,1.295Zm-6.475-9.064a1.291,1.291,0,0,1,.916.379l4.264,4.264v-16.3H268.59v16.3l4.264-4.264a1.292,1.292,0,0,1,.916-.379Z" transform="translate(-233.628 -190.102)"/>
        <path id="XMLID_65307_" d="M118.558,28.687a1.315,1.315,0,0,1-.223-.019L104.3,26.226a1.3,1.3,0,0,1-1.054-1.5l1.331-7.654a1.3,1.3,0,0,1,1.5-1.054l14.034,2.442a1.295,1.295,0,1,1-.444,2.551l-12.758-2.22-.887,5.1,12.757,2.22a1.295,1.295,0,0,1-.221,2.571Z" transform="translate(-91.933 -16.001)"/>
        <path id="XMLID_65308_" d="M325.446,64.7a1.3,1.3,0,0,1-.222-.019l-14.033-2.443a1.295,1.295,0,0,1,.444-2.551L324.392,61.9l.888-5.1-12.757-2.22a1.295,1.295,0,0,1,.444-2.551L327,54.47a1.3,1.3,0,0,1,1.054,1.5l-1.331,7.655a1.3,1.3,0,0,1-1.276,1.073Z" transform="translate(-272.033 -47.346)"/>
        <path id="XMLID_65309_" d="M225.652,47.325a1.3,1.3,0,0,1-.222-.019l-12.757-2.221a1.3,1.3,0,0,1-1.054-1.5l1.332-7.654a1.3,1.3,0,0,1,1.5-1.054L227.206,37.1a1.3,1.3,0,0,1,1.054,1.5l-1.331,7.654a1.3,1.3,0,0,1-1.276,1.073Zm-11.259-4.569L224.6,44.532l.888-5.1-10.2-1.777Z" transform="translate(-186.272 -32.418)"/>
        <path id="XMLID_65312_" d="M76.86,478.59H17.295a1.295,1.295,0,1,1,0-2.59H76.86a1.295,1.295,0,1,1,0,2.59Z" transform="translate(-16 -416.435)"/>
        <path id="XMLID_65313_" d="M140.244,386.359H127.295A1.3,1.3,0,0,1,126,385.064v-7.769A1.3,1.3,0,0,1,127.295,376h12.949a1.3,1.3,0,0,1,1.295,1.295v7.769A1.3,1.3,0,0,1,140.244,386.359Zm-11.654-2.59h10.359v-5.18H128.59Z" transform="translate(-111.756 -329.384)"/>
        <path id="XMLID_65316_" d="M39.885,133.769a3.885,3.885,0,1,1,3.885-3.885A3.889,3.889,0,0,1,39.885,133.769Zm0-5.18a1.295,1.295,0,1,0,1.295,1.295A1.3,1.3,0,0,0,39.885,128.59Z" transform="translate(-33.41 -111.756)"/>
        <path id="XMLID_65319_" d="M439.885,223.769a3.885,3.885,0,1,1,3.885-3.885A3.889,3.889,0,0,1,439.885,223.769Zm0-5.18a1.295,1.295,0,1,0,1.295,1.295A1.3,1.3,0,0,0,439.885,218.59Z" transform="translate(-381.614 -190.102)"/>
        <path id="XMLID_65322_" d="M37.295,232.474A1.3,1.3,0,0,1,36,231.18v-3.885a1.295,1.295,0,0,1,2.59,0v3.885A1.3,1.3,0,0,1,37.295,232.474Z" transform="translate(-33.41 -198.807)"/>
        <path id="XMLID_65323_" d="M26.18,243.59H22.295a1.295,1.295,0,1,1,0-2.59H26.18a1.295,1.295,0,0,1,0,2.59Z" transform="translate(-20.353 -211.865)"/>
        <path id="XMLID_65324_" d="M462.295,142.474A1.3,1.3,0,0,1,461,141.18v-3.885a1.295,1.295,0,0,1,2.59,0v3.885A1.3,1.3,0,0,1,462.295,142.474Z" transform="translate(-403.377 -120.461)"/>
        <path id="XMLID_65325_" d="M451.18,153.59h-3.885a1.295,1.295,0,1,1,0-2.59h3.885a1.295,1.295,0,0,1,0,2.59Z" transform="translate(-390.32 -133.519)"/>
      </g>
    </g>
  </g>
</svg>
