<svg xmlns="http://www.w3.org/2000/svg" width="85" height="85" viewBox="0 0 85 85">
  <g id="Grupo_986767" data-name="Grupo 986767" transform="translate(-285 -5589.001)">
    <rect id="Rectángulo_306095" data-name="Rectángulo 306095" width="85" height="85" transform="translate(285 5589)" fill="none"/>
    <g id="caja-de-entrega_2_" data-name="caja-de-entrega(2)" transform="translate(295.911 5600.414)">
      <g id="Layer_3" transform="translate(2.51 3.846)">
        <path id="Trazado_659751" data-name="Trazado 659751" d="M26.332,34.883H5.494A1.985,1.985,0,0,1,3.509,32.9v-17a1.985,1.985,0,0,1,1.985-1.985H26.332A1.985,1.985,0,0,1,28.317,15.9v17a1.985,1.985,0,0,1-1.985,1.985Z" transform="translate(-0.532 7.047)" fill="#f8c862"/>
        <path id="Trazado_659752" data-name="Trazado 659752" d="M10.963,25.246,8.428,23.258,5.9,25.246V13.918h5.067Z" transform="translate(1.818 7.047)" fill="#f77656"/>
        <path id="Trazado_659753" data-name="Trazado 659753" d="M10.652,20.744h7.129v3.941H10.652Z" transform="translate(6.501 13.768)" fill="#f77656"/>
        <path id="Trazado_659754" data-name="Trazado 659754" d="M38.832,34.883H17.994A1.985,1.985,0,0,1,16.009,32.9v-17a1.985,1.985,0,0,1,1.985-1.985H38.832A1.985,1.985,0,0,1,40.817,15.9v17A1.985,1.985,0,0,1,38.832,34.883Z" transform="translate(11.776 7.047)" fill="#f8c862"/>
        <path id="Trazado_659755" data-name="Trazado 659755" d="M23.463,25.246l-2.534-1.989L18.4,25.246V13.918h5.067Z" transform="translate(14.126 7.047)" fill="#f77656"/>
        <path id="Trazado_659756" data-name="Trazado 659756" d="M23.152,20.744h7.129v3.941H23.152Z" transform="translate(18.809 13.768)" fill="#f77656"/>
        <path id="Trazado_659757" data-name="Trazado 659757" d="M32.582,24.319H11.744a1.985,1.985,0,0,1-1.985-1.985v-17a1.985,1.985,0,0,1,1.985-1.985H32.582a1.985,1.985,0,0,1,1.985,1.985v17A1.985,1.985,0,0,1,32.582,24.319Z" transform="translate(5.622 -3.354)" fill="#f8c862"/>
        <path id="Trazado_659758" data-name="Trazado 659758" d="M17.213,14.682l-2.534-1.989-2.532,1.989V3.354h5.067Z" transform="translate(7.972 -3.354)" fill="#f77656"/>
        <path id="Trazado_659759" data-name="Trazado 659759" d="M16.9,10.18h7.129v3.941H16.9Z" transform="translate(12.655 3.367)" fill="#f77656"/>
        <g id="Grupo_986768" data-name="Grupo 986768" transform="translate(0 41.931)">
          <path id="Trazado_659760" data-name="Trazado 659760" d="M2.009,24.482H57.578v5.263H2.009Z" transform="translate(-2.009 -24.482)" fill="#8fdda9"/>
          <path id="Trazado_659761" data-name="Trazado 659761" d="M4.081,27.134H9.769v5.688H4.081Z" transform="translate(0.031 -21.871)" fill="#8fdda9"/>
          <path id="Trazado_659762" data-name="Trazado 659762" d="M14.576,27.134h5.688v5.688H14.576Z" transform="translate(10.365 -21.871)" fill="#8fdda9"/>
          <path id="Trazado_659763" data-name="Trazado 659763" d="M25.072,27.134H30.76v5.688H25.072Z" transform="translate(20.699 -21.871)" fill="#8fdda9"/>
        </g>
      </g>
      <g id="Layer_2" transform="translate(1.5 2.854)">
        <g id="Grupo_986769" data-name="Grupo 986769">
          <path id="Trazado_659764" data-name="Trazado 659764" d="M18.265,20.244H11.134a.993.993,0,0,0-.992.992v3.941a.993.993,0,0,0,.992.992h7.131a.993.993,0,0,0,.992-.992V21.236a.99.99,0,0,0-.992-.992Zm-.992,3.941H12.127V22.229h5.146Z" transform="translate(7.009 14.268)"/>
          <path id="Trazado_659765" data-name="Trazado 659765" d="M26.341,15.4h3.277a1,1,0,0,1,.992.992v5.321a.992.992,0,0,0,1.985,0V16.395a2.981,2.981,0,0,0-2.977-2.977H26.341a.992.992,0,0,0,0,1.985Z" transform="translate(21.982 7.547)"/>
          <path id="Trazado_659766" data-name="Trazado 659766" d="M23.635,20.244a.993.993,0,0,0-.992.992v3.941a.993.993,0,0,0,.992.992h7.131a.993.993,0,0,0,.992-.992V21.236a.993.993,0,0,0-.992-.992Zm6.136,3.941H24.626V22.229h5.146Z" transform="translate(19.318 14.268)"/>
          <path id="Trazado_659767" data-name="Trazado 659767" d="M10.242,13.221a.993.993,0,0,0,.992-.992V8.6a.992.992,0,1,0-1.985,0v3.628A.991.991,0,0,0,10.242,13.221Z" transform="translate(6.131 1.828)"/>
          <path id="Trazado_659768" data-name="Trazado 659768" d="M24.515,15.606a.993.993,0,0,0,.992-.992V10.672a.993.993,0,0,0-.992-.992H17.384a.993.993,0,0,0-.992.992v3.941a.993.993,0,0,0,.992.992Zm-6.136-3.943h5.146v1.957H18.379Z" transform="translate(13.163 3.867)"/>
          <path id="Trazado_659769" data-name="Trazado 659769" d="M58.061,44.785H55.894a2.943,2.943,0,0,0,.183-.992V36.14a.992.992,0,0,0-1.985,0v7.653a1,1,0,0,1-.992.992H32.261a1,1,0,0,1-.992-.992v-17a1,1,0,0,1,.992-.992h1.76V36.14a.992.992,0,0,0,1.6.78l1.921-1.506,1.921,1.506a.994.994,0,0,0,1.606-.782V25.8H46.1a.992.992,0,1,0,0-1.985H43.49a2.943,2.943,0,0,0,.183-.992V5.831A2.981,2.981,0,0,0,40.7,2.854H19.858a2.981,2.981,0,0,0-2.977,2.977V9.51a.992.992,0,1,0,1.985,0V5.831a1,1,0,0,1,.992-.992h1.76V15.172a.992.992,0,0,0,1.6.78l1.921-1.506,1.921,1.506a.994.994,0,0,0,1.606-.782V4.839H40.7a1,1,0,0,1,.992.992V22.825a1,1,0,0,1-.992.992H19.858a1,1,0,0,1-.992-.992V20.9a.992.992,0,1,0-1.985,0v1.929a2.943,2.943,0,0,0,.183.992H7.454a2.981,2.981,0,0,0-2.977,2.977v17a2.943,2.943,0,0,0,.183.992H2.492a.993.993,0,0,0-.992.992v5.261a.993.993,0,0,0,.992.992H5.61v4.7a.993.993,0,0,0,.992.992H12.29a.993.993,0,0,0,.992-.992v-4.7H26.441v4.7a.993.993,0,0,0,.992.992h5.686a.993.993,0,0,0,.992-.992v-4.7H47.269v4.7a.993.993,0,0,0,.992.992h5.688a.993.993,0,0,0,.992-.992v-4.7h3.12a.993.993,0,0,0,.992-.992V45.779a.993.993,0,0,0-.992-.994ZM26.683,13.134l-.929-.728a1,1,0,0,0-1.226,0l-.929.728v-8.3h3.082v8.3Zm12.4,12.67v8.3l-.929-.728a1,1,0,0,0-1.226,0L36,34.1V25.8Zm-24.808,0v8.3l-.929-.728a1,1,0,0,0-1.226,0l-.929.728V25.8ZM6.462,43.793v-17a1,1,0,0,1,.992-.992h1.76V36.14a.992.992,0,0,0,1.6.78l1.921-1.506L14.66,36.92a.994.994,0,0,0,1.606-.782V25.8H28.292a1,1,0,0,1,.992.992v17a1,1,0,0,1-.992.992H7.454a.991.991,0,0,1-.992-.99ZM11.3,55.736h-3.7v-3.7h3.7Zm20.83,0h-3.7v-3.7h3.7Zm20.83,0h-3.7v-3.7h3.7Zm4.11-5.688H3.485V46.771H57.069Z" transform="translate(-1.5 -2.854)"/>
        </g>
      </g>
    </g>
  </g>
</svg>
