<svg id="Grupo_979563" data-name="Grupo 979563" xmlns="http://www.w3.org/2000/svg" width="156" height="156" viewBox="0 0 156 156">
  <rect id="Rectángulo_34178" data-name="Rectángulo 34178" width="156" height="156" fill="none"/>
  <g id="presupuesto" transform="translate(28.238 28.364)">
    <path id="Trazado_653605" data-name="Trazado 653605" d="M163.8,24.744V82.949c0,.116,0,.232-.008.349a7.515,7.515,0,0,1-7.507,7.165H114.038a7.514,7.514,0,0,1-7.515-7.513V15.559a7.5,7.5,0,0,1,7.515-7.515H147.6a7.49,7.49,0,0,1,3.264.748c2.03.977,2.6,2.212,6.25,5.942,4.2,4.558,5.2,5.025,6.055,7A7.432,7.432,0,0,1,163.8,24.744Z" transform="translate(-85.558 -6.494)" fill="#ffc477"/>
    <path id="Trazado_653606" data-name="Trazado 653606" d="M188.152,24.743V82.948c0,.116,0,.232-.008.349a7.538,7.538,0,0,1-1.7.192H144.2a7.514,7.514,0,0,1-7.515-7.513V8.585c0-.118,0-.234.008-.351a7.549,7.549,0,0,1,1.7-.192h33.558a7.526,7.526,0,0,1,5.491,2.386l4.023,4.3,4.606,4.819a7.562,7.562,0,0,1,2.084,5.191Z" transform="translate(-109.909 -6.494)" fill="#ffdaaa"/>
    <path id="Trazado_653607" data-name="Trazado 653607" d="M299.25,185.516v42.251a10.62,10.62,0,0,1-10.62,10.62h-27.6a10.62,10.62,0,0,1-10.62-10.62V185.516a10.615,10.615,0,0,1,10.62-10.62h27.6A10.619,10.619,0,0,1,299.25,185.516Z" transform="translate(-201.728 -141.202)" fill="#4cba68"/>
    <path id="Trazado_653608" data-name="Trazado 653608" d="M317.651,185.516v42.251a10.564,10.564,0,0,1-2.057,6.281,10.575,10.575,0,0,1-4.172.852h-27.6a10.62,10.62,0,0,1-10.62-10.62V182.029a10.564,10.564,0,0,1,2.057-6.281,10.575,10.575,0,0,1,4.172-.852h27.6A10.619,10.619,0,0,1,317.651,185.516Z" transform="translate(-220.129 -141.202)" fill="#7ccc92"/>
    <path id="Trazado_653609" data-name="Trazado 653609" d="M364.178,367.557v4.962a1.588,1.588,0,0,1-1.586,1.588h-4.964a1.588,1.588,0,0,1-1.588-1.588v-4.962a1.588,1.588,0,0,1,1.588-1.588h4.964A1.587,1.587,0,0,1,364.178,367.557Z" transform="translate(-287.004 -295.465)" fill="#2c733f"/>
    <path id="Trazado_653610" data-name="Trazado 653610" d="M322.537,210.5v5.317a3.424,3.424,0,0,1-3.424,3.424H291.721a3.425,3.425,0,0,1-3.424-3.424V210.5a3.425,3.425,0,0,1,3.424-3.424h27.391A3.424,3.424,0,0,1,322.537,210.5Z" transform="translate(-232.313 -167.184)" fill="#1e81ce"/>
    <path id="Trazado_653611" data-name="Trazado 653611" d="M346.888,210.5v5.317a3.424,3.424,0,0,1-3.424,3.424H321.882a3.425,3.425,0,0,1-3.424-3.424V210.5a3.425,3.425,0,0,1,3.424-3.424h21.581A3.424,3.424,0,0,1,346.888,210.5Z" transform="translate(-256.663 -167.184)" fill="#3d9ae2"/>
    <g id="Grupo_979565" data-name="Grupo 979565" transform="translate(55.984 57.527)">
      <path id="Trazado_653612" data-name="Trazado 653612" d="M296.438,367.557v4.962a1.588,1.588,0,0,1-1.588,1.588h-4.964a1.589,1.589,0,0,1-1.588-1.588v-4.962a1.589,1.589,0,0,1,1.588-1.588h4.964A1.588,1.588,0,0,1,296.438,367.557Z" transform="translate(-288.297 -352.992)" fill="#2c733f"/>
      <path id="Trazado_653613" data-name="Trazado 653613" d="M364.178,300.2v4.962a1.588,1.588,0,0,1-1.586,1.588h-4.964a1.588,1.588,0,0,1-1.588-1.588V300.2a1.588,1.588,0,0,1,1.588-1.588h4.964A1.588,1.588,0,0,1,364.178,300.2Z" transform="translate(-342.988 -298.608)" fill="#2c733f"/>
    </g>
    <path id="Trazado_653614" data-name="Trazado 653614" d="M432.735,300.2v4.962a1.588,1.588,0,0,1-1.588,1.588h-4.962a1.588,1.588,0,0,1-1.588-1.588V300.2a1.588,1.588,0,0,1,1.588-1.588h4.962A1.588,1.588,0,0,1,432.735,300.2Z" transform="translate(-342.354 -241.081)" fill="#ee8700"/>
    <g id="Grupo_979566" data-name="Grupo 979566" transform="translate(55.984 57.527)">
      <path id="Trazado_653615" data-name="Trazado 653615" d="M296.438,300.2v4.962a1.588,1.588,0,0,1-1.588,1.588h-4.964a1.589,1.589,0,0,1-1.588-1.588V300.2a1.589,1.589,0,0,1,1.588-1.588h4.964A1.588,1.588,0,0,1,296.438,300.2Z" transform="translate(-288.297 -298.608)" fill="#2c733f"/>
      <path id="Trazado_653616" data-name="Trazado 653616" d="M364.178,431.617v4.964a1.588,1.588,0,0,1-1.586,1.588h-4.964a1.588,1.588,0,0,1-1.588-1.588v-4.964a1.588,1.588,0,0,1,1.588-1.586h4.964A1.587,1.587,0,0,1,364.178,431.617Z" transform="translate(-342.988 -404.712)" fill="#2c733f"/>
      <path id="Trazado_653617" data-name="Trazado 653617" d="M296.438,431.617v4.964a1.588,1.588,0,0,1-1.588,1.588h-4.964a1.589,1.589,0,0,1-1.588-1.588v-4.964a1.589,1.589,0,0,1,1.588-1.586h4.964A1.588,1.588,0,0,1,296.438,431.617Z" transform="translate(-288.297 -404.712)" fill="#2c733f"/>
    </g>
    <path id="Trazado_653618" data-name="Trazado 653618" d="M432.735,368.327v15.412a2.708,2.708,0,0,1-2.708,2.71H427.3a2.708,2.708,0,0,1-2.708-2.71V368.327a2.36,2.36,0,0,1,2.359-2.359h3.421A2.358,2.358,0,0,1,432.735,368.327Z" transform="translate(-342.354 -295.464)" fill="#ee8700"/>
    <g id="Grupo_979567" data-name="Grupo 979567" transform="translate(55.984 57.527)">
      <path id="Trazado_653619" data-name="Trazado 653619" d="M364.178,367.557v1.476a1.588,1.588,0,0,1-1.586,1.588h-4.964a1.588,1.588,0,0,1-1.588-1.588v-1.476a1.588,1.588,0,0,1,1.588-1.588h4.964A1.587,1.587,0,0,1,364.178,367.557Z" transform="translate(-342.988 -352.992)" fill="#317f46"/>
      <path id="Trazado_653620" data-name="Trazado 653620" d="M296.438,367.557v1.476a1.588,1.588,0,0,1-1.588,1.588h-4.964a1.589,1.589,0,0,1-1.588-1.588v-1.476a1.589,1.589,0,0,1,1.588-1.588h4.964A1.588,1.588,0,0,1,296.438,367.557Z" transform="translate(-288.297 -352.992)" fill="#317f46"/>
      <path id="Trazado_653621" data-name="Trazado 653621" d="M364.178,300.2v1.476a1.588,1.588,0,0,1-1.586,1.588h-4.964a1.588,1.588,0,0,1-1.588-1.588V300.2a1.588,1.588,0,0,1,1.588-1.588h4.964A1.588,1.588,0,0,1,364.178,300.2Z" transform="translate(-342.988 -298.608)" fill="#317f46"/>
    </g>
    <path id="Trazado_653622" data-name="Trazado 653622" d="M432.735,300.2v1.476a1.588,1.588,0,0,1-1.588,1.588h-4.962a1.588,1.588,0,0,1-1.588-1.588V300.2a1.588,1.588,0,0,1,1.588-1.588h4.962A1.588,1.588,0,0,1,432.735,300.2Z" transform="translate(-342.354 -241.081)" fill="#ff9811"/>
    <g id="Grupo_979568" data-name="Grupo 979568" transform="translate(55.984 57.527)">
      <path id="Trazado_653623" data-name="Trazado 653623" d="M296.438,300.2v1.476a1.588,1.588,0,0,1-1.588,1.588h-4.964a1.589,1.589,0,0,1-1.588-1.588V300.2a1.589,1.589,0,0,1,1.588-1.588h4.964A1.588,1.588,0,0,1,296.438,300.2Z" transform="translate(-288.297 -298.608)" fill="#317f46"/>
      <path id="Trazado_653624" data-name="Trazado 653624" d="M364.178,431.617V433.1a1.588,1.588,0,0,1-1.586,1.588h-4.964a1.588,1.588,0,0,1-1.588-1.588v-1.478a1.588,1.588,0,0,1,1.588-1.586h4.964A1.587,1.587,0,0,1,364.178,431.617Z" transform="translate(-342.988 -404.712)" fill="#317f46"/>
      <path id="Trazado_653625" data-name="Trazado 653625" d="M296.438,431.617V433.1a1.588,1.588,0,0,1-1.588,1.588h-4.964A1.589,1.589,0,0,1,288.3,433.1v-1.478a1.589,1.589,0,0,1,1.588-1.586h4.964A1.588,1.588,0,0,1,296.438,431.617Z" transform="translate(-288.297 -404.712)" fill="#317f46"/>
    </g>
    <path id="Trazado_653626" data-name="Trazado 653626" d="M432.735,368.327v11.925a2.708,2.708,0,0,1-2.708,2.71H427.3a2.708,2.708,0,0,1-2.708-2.71V368.327a2.36,2.36,0,0,1,2.359-2.359h3.421A2.358,2.358,0,0,1,432.735,368.327Z" transform="translate(-342.354 -295.464)" fill="#ff9811"/>
    <path id="Trazado_653627" data-name="Trazado 653627" d="M348.967,24.864H339.55a2.889,2.889,0,0,1-2.889-2.889V11.924a7.505,7.505,0,0,1,2.227,1.638l4.024,4.3,4.605,4.82A7.441,7.441,0,0,1,348.967,24.864Z" transform="translate(-271.36 -9.627)" fill="#ffb655"/>
    <path id="Trazado_653628" data-name="Trazado 653628" d="M99.361,465.331a3.69,3.69,0,0,1-3.68,3.68H73.136a3.68,3.68,0,0,1,0-7.36H95.681A3.691,3.691,0,0,1,99.361,465.331Z" transform="translate(-55.632 -372.713)" fill="#aa6100"/>
    <path id="Trazado_653629" data-name="Trazado 653629" d="M99.361,427.126a3.69,3.69,0,0,1-3.68,3.68H73.136a3.68,3.68,0,0,1,0-7.36H95.681A3.691,3.691,0,0,1,99.361,427.126Z" transform="translate(-55.632 -341.869)" fill="#cc7400"/>
    <path id="Trazado_653630" data-name="Trazado 653630" d="M99.361,388.922a3.69,3.69,0,0,1-3.68,3.68H73.136a3.68,3.68,0,0,1,0-7.36H95.681A3.691,3.691,0,0,1,99.361,388.922Z" transform="translate(-55.632 -311.025)" fill="#ee8700"/>
    <path id="Trazado_653631" data-name="Trazado 653631" d="M99.361,350.716a3.69,3.69,0,0,1-3.68,3.68H73.136a3.691,3.691,0,0,1-3.68-3.68,3.69,3.69,0,0,1,3.68-3.68H95.681A3.691,3.691,0,0,1,99.361,350.716Z" transform="translate(-55.632 -280.179)" fill="#ff9811"/>
    <path id="Trazado_653632" data-name="Trazado 653632" d="M95.68,316.194H73.136a3.691,3.691,0,0,1-3.68-3.68h0a3.691,3.691,0,0,1,3.68-3.68H95.68a3.691,3.691,0,0,1,3.68,3.68h0A3.691,3.691,0,0,1,95.68,316.194Z" transform="translate(-55.632 -249.337)" fill="#ffa733"/>
    <path id="Trazado_653633" data-name="Trazado 653633" d="M37.3,389.1A11.974,11.974,0,0,0,24.822,377.63H20.13c-10.638.461-15.6,13.711-7.45,20.941a11.949,11.949,0,0,0,8.476,3.017h3.666v0c.335.013.672.017,1.013,0a12.182,12.182,0,0,0,2.227-.3,11.991,11.991,0,0,0,9.241-11.24v-.013C37.314,389.72,37.314,389.41,37.3,389.1Z" transform="translate(-6.518 -304.87)" fill="#cc7400"/>
    <path id="Trazado_653634" data-name="Trazado 653634" d="M80.042,391.349v.013A11.99,11.99,0,0,1,70.8,402.6a12,12,0,0,1-9.229-11.16c0-.027,0-.052,0-.079v-.014a11.994,11.994,0,0,1,9.239-12.094,11.993,11.993,0,0,1,9.233,11.162C80.053,390.731,80.053,391.041,80.042,391.349Z" transform="translate(-49.257 -306.191)" fill="#ee8700"/>
    <path id="Trazado_653635" data-name="Trazado 653635" d="M86.9,32.241h-7.11V18.249a9.087,9.087,0,0,0-2.512-6.262L72.686,7.18C68.787,3.163,68.295,2.028,65.972.9A9.086,9.086,0,0,0,62.039,0H28.48a9.075,9.075,0,0,0-9.065,9.065V57.948H17.5a5.226,5.226,0,0,0-3.711,8.91,5.21,5.21,0,0,0-1.518,3.68,5.365,5.365,0,0,0,.1,1.034,13.183,13.183,0,0,0,1.884,26.285l25.788-.01a5.226,5.226,0,0,0,3.711-8.91,5.2,5.2,0,0,0,1.511-3.421h1.962v1.048A12.086,12.086,0,0,0,59.306,98.637H86.9A12.086,12.086,0,0,0,98.975,86.565V44.314A12.086,12.086,0,0,0,86.9,32.241ZM66.852,5.479c6.086,6.432,7.457,7.883,7.715,8.156,0,0,0,0,0,0h0a.042.042,0,0,0,.008.01l0,0a.033.033,0,0,0,.012.012.027.027,0,0,1,.006.008s0,0,0,0,0,0,.006.006.006.006.008.008H66.851V5.479ZM17.5,61.047H40.049a2.131,2.131,0,1,1,0,4.261H17.5a2.131,2.131,0,1,1,0-4.261Zm0,7.36H40.049a2.131,2.131,0,1,1,0,4.261H24.477a12.619,12.619,0,0,0-1.962-.709,13.062,13.062,0,0,0-3.1-.455c-.3-.008-.608-.006-.912.008H15.612a2.1,2.1,0,0,1-.238-.974A2.134,2.134,0,0,1,17.5,68.407ZM42.18,77.9a2.133,2.133,0,0,1-2.131,2.131H31.378a13.034,13.034,0,0,0-2.63-4.261h11.3A2.134,2.134,0,0,1,42.18,77.9ZM9.966,75.116a13.37,13.37,0,0,0-2.441,3.13H5.72A10.233,10.233,0,0,1,9.966,75.116ZM4.072,81.151H6.328a13.377,13.377,0,0,0-.422,2.322H3.522A10.182,10.182,0,0,1,4.072,81.151Zm.25,7.68a10.165,10.165,0,0,1-.728-2.452H5.96a11.693,11.693,0,0,0,.554,2.452Zm1.933,2.905c.951,0,1.5,0,1.633,0a13.085,13.085,0,0,0,2.084,2.522A10.237,10.237,0,0,1,6.255,91.736Zm13.221,3.217a10.279,10.279,0,1,1,6.512-17.841A10.27,10.27,0,0,1,19.476,94.953Zm20.574-.205H27.543a13.274,13.274,0,0,0,3.329-4.261h9.177a2.131,2.131,0,0,1,0,4.261Zm2.113-9.231a2.131,2.131,0,0,1-2.113,1.871H31.942a13.313,13.313,0,0,0,.188-4.261h7.92A2.132,2.132,0,0,1,42.162,85.517Zm5.071-3.1h-2.8a5.141,5.141,0,0,0-.676-.841,5.218,5.218,0,0,0,0-7.36,5.218,5.218,0,0,0,0-7.36,5.234,5.234,0,0,0-3.711-8.91H22.515V9.065A5.973,5.973,0,0,1,28.48,3.1H63.753V15.237A1.549,1.549,0,0,0,65.3,16.787H76.509c.323,1.255.124.841.184,15.454H59.306A12.086,12.086,0,0,0,47.233,44.314v38.1ZM96.07,86.565A9.177,9.177,0,0,1,86.9,95.732h-27.6a9.178,9.178,0,0,1-9.167-9.167V44.314a9.178,9.178,0,0,1,9.167-9.167H86.9a9.177,9.177,0,0,1,9.167,9.167V86.565Z"/>
    <path id="Trazado_653636" data-name="Trazado 653636" d="M290.9,211.7h-5.27a1.978,1.978,0,0,1-1.972-1.972v-5.317a1.978,1.978,0,0,1,1.972-1.972h27.391A1.974,1.974,0,0,1,315,204.415v5.317a1.974,1.974,0,0,1-1.972,1.972H297.168a1.453,1.453,0,1,0,0,2.905h15.857a4.882,4.882,0,0,0,4.877-4.877v-5.317a4.882,4.882,0,0,0-4.877-4.877H285.634a4.877,4.877,0,0,0-4.877,4.877v5.317a4.877,4.877,0,0,0,4.877,4.877h5.27a1.453,1.453,0,0,0,0-2.905Z" transform="translate(-226.226 -161.097)"/>
    <path id="Trazado_653637" data-name="Trazado 653637" d="M283.8,369.473h4.964a3.044,3.044,0,0,0,3.041-3.041V361.47a3.043,3.043,0,0,0-3.041-3.041H283.8a3.045,3.045,0,0,0-3.041,3.041v4.962A3.045,3.045,0,0,0,283.8,369.473Zm-.136-8a.136.136,0,0,1,.136-.136h4.964a.136.136,0,0,1,.136.136v4.962a.136.136,0,0,1-.136.136H283.8a.136.136,0,0,1-.136-.136Z" transform="translate(-226.226 -289.377)"/>
    <path id="Trazado_653638" data-name="Trazado 653638" d="M425.059,291.068H420.1a3.043,3.043,0,0,0-3.041,3.041v4.962a3.043,3.043,0,0,0,3.041,3.041h4.962a3.044,3.044,0,0,0,3.041-3.041v-4.962A3.044,3.044,0,0,0,425.059,291.068Zm.136,8a.135.135,0,0,1-.136.136H420.1a.136.136,0,0,1-.136-.136c.06-4.91-.126-5.1.136-5.1h4.962a.135.135,0,0,1,.136.136Z" transform="translate(-336.266 -234.993)"/>
    <path id="Trazado_653639" data-name="Trazado 653639" d="M283.8,302.112h4.964a3.043,3.043,0,0,0,3.041-3.041v-4.962a3.043,3.043,0,0,0-3.041-3.041H283.8a3.045,3.045,0,0,0-3.041,3.041v4.962A3.044,3.044,0,0,0,283.8,302.112Zm-.136-8a.136.136,0,0,1,.136-.136h4.964a.136.136,0,0,1,.136.136v4.962a.136.136,0,0,1-.136.136H283.8a.136.136,0,0,1-.136-.136Z" transform="translate(-226.226 -234.993)"/>
    <path id="Trazado_653640" data-name="Trazado 653640" d="M291.016,423.516a3.039,3.039,0,0,0-2.276-1.025h-4.964a3.032,3.032,0,0,0-2.274,1.025,4.155,4.155,0,0,0-.767,3.1v3.88a3.045,3.045,0,0,0,3.041,3.041h4.964a3.043,3.043,0,0,0,3.041-3.041v-3.88A4.19,4.19,0,0,0,291.016,423.516Zm-2.276,7.114c-4.9-.06-5.1.126-5.1-.136,0-5.255-.058-5.1.136-5.1h4.964c.238,0,.091.331.136,1.218C288.876,426.615,289,430.63,288.74,430.63Z" transform="translate(-226.204 -341.098)"/>
    <path id="Trazado_653641" data-name="Trazado 653641" d="M424.287,358.428h-3.421a3.817,3.817,0,0,0-3.812,3.812v15.412a4.167,4.167,0,0,0,4.161,4.162h2.723a4.165,4.165,0,0,0,4.16-4.162V362.24A3.816,3.816,0,0,0,424.287,358.428Zm.907,19.223a1.257,1.257,0,0,1-1.255,1.257h-2.723a1.258,1.258,0,0,1-1.255-1.257V362.24a.908.908,0,0,1,.906-.906h3.421a.908.908,0,0,1,.906.906v15.412Z" transform="translate(-336.266 -289.376)"/>
    <path id="Trazado_653642" data-name="Trazado 653642" d="M168.86,177.256h0c-1.771-.651-3.051-1.121-3.051-2.762,0-1.5.993-2.254,2.952-2.254,2.079,0,2.639.915,3.372.915a1.4,1.4,0,0,0,1.238-1.431c0-1.21-1.974-1.81-3.739-1.969v-1.091a1.376,1.376,0,0,0-2.753,0v1.265a4.5,4.5,0,0,0-3.739,4.709c0,3.381,2.489,4.316,4.49,5.068,1.958.736,3.506,1.317,3.506,3.553,0,1.847-1.025,2.783-3.049,2.783-2.961,0-2.988-2-4.118-2a1.452,1.452,0,0,0-1.263,1.431c0,1.145,1.7,2.649,4.172,3.04v1.054a1.376,1.376,0,1,0,2.753,0v-1.083c2.654-.5,4.172-2.449,4.172-5.372C173.8,179.072,171.063,178.065,168.86,177.256Z" transform="translate(-130.918 -135.06)"/>
    <path id="Trazado_653643" data-name="Trazado 653643" d="M356.484,422.491H351.52a3.039,3.039,0,0,0-2.276,1.025,4.171,4.171,0,0,0-.765,3.1v3.88a3.043,3.043,0,0,0,3.041,3.041h4.964a3.043,3.043,0,0,0,3.039-3.041V425.53a3.044,3.044,0,0,0-3.039-3.039Zm0,8.139c-4.9-.06-5.1.126-5.1-.136V425.53a.136.136,0,0,1,.136-.134h4.964a.134.134,0,0,1,.134.134C356.56,430.446,356.742,430.63,356.484,430.63Z" transform="translate(-280.897 -341.098)"/>
    <path id="Trazado_653644" data-name="Trazado 653644" d="M356.5,291.068H351.54a3.043,3.043,0,0,0-3.041,3.041v4.962a3.043,3.043,0,0,0,3.041,3.041H356.5a3,3,0,0,0,1.106-.209,3.045,3.045,0,0,0,1.933-2.832v-4.962A3.044,3.044,0,0,0,356.5,291.068Zm.134,8a.134.134,0,0,1-.134.136H351.54a.136.136,0,0,1-.136-.136v-4.962c0-.261.18-.077,5.1-.136a.134.134,0,0,1,.134.136v4.962Z" transform="translate(-280.917 -234.993)"/>
    <path id="Trazado_653645" data-name="Trazado 653645" d="M357.61,358.637a3,3,0,0,0-1.106-.209H351.54a3.043,3.043,0,0,0-3.041,3.041v4.962a3.043,3.043,0,0,0,3.041,3.041H356.5a3.043,3.043,0,0,0,3.039-3.041v-4.962A3.044,3.044,0,0,0,357.61,358.637Zm-.972,7.794a.134.134,0,0,1-.134.136H351.54a.136.136,0,0,1-.136-.136v-4.962a.136.136,0,0,1,.136-.136H356.5a.134.134,0,0,1,.134.136Z" transform="translate(-280.917 -289.376)"/>
    <path id="Trazado_653646" data-name="Trazado 653646" d="M321.5,105.947h3.649a1.453,1.453,0,0,0,0-2.905H321.5a1.453,1.453,0,0,0,0,2.905Z" transform="translate(-257.946 -83.191)"/>
    <path id="Trazado_653647" data-name="Trazado 653647" d="M157.623,105.947h25.761a1.453,1.453,0,0,0,0-2.905H157.623a1.453,1.453,0,0,0,0,2.905Z" transform="translate(-125.64 -83.191)"/>
    <path id="Trazado_653648" data-name="Trazado 653648" d="M162.24,143.377a1.453,1.453,0,1,0,0-2.905h-4.617a1.453,1.453,0,0,0,0,2.905Z" transform="translate(-125.64 -113.41)"/>
    <path id="Trazado_653649" data-name="Trazado 653649" d="M238,141.925a1.453,1.453,0,0,0-1.453-1.453H211.752a1.453,1.453,0,0,0,0,2.905h24.792A1.453,1.453,0,0,0,238,141.925Z" transform="translate(-169.341 -113.41)"/>
    <path id="Trazado_653650" data-name="Trazado 653650" d="M80.523,403.315c0-.365.134-.47.26-.54a2.5,2.5,0,0,1,2.106.142,1.66,1.66,0,0,0,.786.239c1.433,0,2.566-2.662-.857-3.251v-.091a1.472,1.472,0,1,0-2.944,0v.279A3.3,3.3,0,0,0,77.63,403.4c0,2.477,1.8,3.154,3.115,3.648,1.254.471,1.687.677,1.687,1.53,0,.533-.144,1.026-1.186,1.026-1.518,0-1.337-1.2-2.473-1.2a1.518,1.518,0,0,0-1.4,1.5c0,1.006,1.046,1.962,2.506,2.349v.11a1.472,1.472,0,0,0,2.944,0v-.149a3.639,3.639,0,0,0,2.506-3.728C85.325,404.078,80.523,404.741,80.523,403.315Z" transform="translate(-62.02 -321.601)"/>
  </g>
</svg>
