<svg xmlns="http://www.w3.org/2000/svg" xmlns:xlink="http://www.w3.org/1999/xlink" width="297" height="282" viewBox="0 0 297 282">
  <defs>
    <linearGradient id="linear-gradient" x1="0.252" y1="-0.264" x2="0.617" y2="0.788" gradientUnits="objectBoundingBox">
      <stop offset="0" stop-color="#cfc2ba"/>
      <stop offset="0.549" stop-color="#baaea7"/>
      <stop offset="0.916" stop-color="#b3a7a1"/>
    </linearGradient>
  </defs>
  <g id="Grupo_986819" data-name="Grupo 986819" transform="translate(-1105 -17555)">
    <rect id="Rectángulo_311075" data-name="Rectángulo 311075" width="297" height="282" transform="translate(1105 17555)" fill="none"/>
    <g id="Grupo_986821" data-name="Grupo 986821" transform="translate(832.006 17565.797)">
      <path id="Trazado_659909" data-name="Trazado 659909" d="M481.571,111.469l-20.265,11.7-3.677,2.127-11.02,6.363-.029.02-2.284,1.314-3.686,2.127-8.9,5.147-1.706.99-2.324,1.343-5.863,3.373-4.48,2.588-1.176.686-25.236,14.569L307.564,101.1l71.628-41.977,51.035,22.7,1.284.735,4.834,2.794,6.637,3.833,1.323.765,1.941,1.118,4.108,2.373,6.069,3.5,1.99,1.147,2.637,1.52,9.579,5.539,3.451,1.99Z" transform="translate(0 54.409)" fill="url(#linear-gradient)"/>
      <path id="Trazado_659910" data-name="Trazado 659910" d="M393.061,216.161l-26.948-23.707-23.625-5.592L354.21,42.506l16.943,4.508,12.069,11.774Z" transform="translate(48.419 31.367)" fill="#b31800"/>
      <path id="Trazado_659911" data-name="Trazado 659911" d="M463.34,183.99,369.4,238.069,359.558,80.7,453.365,26.7Z" transform="translate(72.083 9.459)" fill="#ff745d"/>
      <path id="Trazado_659912" data-name="Trazado 659912" d="M441.287,19.88,347.343,73.958l17.08,4.422,12.069,11.774L470.3,36.162l-20.905-6.769Z" transform="translate(55.149 0)" fill="#fad793"/>
      <path id="Trazado_659913" data-name="Trazado 659913" d="M362.55,75.341l-13.179-3.412,88.694-51.056,7.451,8.742,17.444,5.648-88.988,51.22Z" transform="translate(57.96 1.375)" fill="#d3b16d"/>
      <path id="Trazado_659914" data-name="Trazado 659914" d="M438.265,21.106l-.2-.234L349.371,71.928l13.179,3.412,11.422,11.141L436.4,50.552Z" transform="translate(57.96 1.375)" fill="#d9bb80"/>
      <path id="Trazado_659915" data-name="Trazado 659915" d="M394.959,29.614l-.925,16.221-8.195,4.717,1.669-29.679Z" transform="translate(108.518 1.375)" fill="#bf9963"/>
      <path id="Trazado_659916" data-name="Trazado 659916" d="M453.562,26.9l-18,4.1-7.724-2.048L356.15,69.905l8.424,8.216Z" transform="translate(67.358 9.735)" fill="#c9bcad" style="mix-blend-mode: multiply;isolation: isolate"/>
      <path id="Trazado_659917" data-name="Trazado 659917" d="M392.234,43.561v.024a5.541,5.541,0,0,1-.1,1.05,5.216,5.216,0,0,1-1.384,2.911,1.718,1.718,0,0,1-.644.406,1.027,1.027,0,0,1-.644.072,1.8,1.8,0,0,1-1.265-1.289,2,2,0,0,1-.1-.358,5.9,5.9,0,0,1-.072-2.434,6.461,6.461,0,0,1,.477-1.623,3.274,3.274,0,0,1,1.551-1.718,1.494,1.494,0,0,1,.644-.072C391.638,40.7,392.234,41.962,392.234,43.561Z" transform="translate(111.434 28.616)" fill="#4f4334"/>
      <path id="Trazado_659918" data-name="Trazado 659918" d="M390.25,44.558c.289-1.74-.129-3.3-.94-3.868.052-.026.105-.062.158-.084a1.218,1.218,0,0,1,.64-.069c1.131.186,1.773,2.019,1.429,4.085-.267,1.611-1.1,2.983-2.036,3.334a1.207,1.207,0,0,1-.637.069,1.23,1.23,0,0,1-.489-.217A4.529,4.529,0,0,0,390.25,44.558Z" transform="translate(112.032 28.616)" fill="#8d7c55"/>
      <path id="Trazado_659919" data-name="Trazado 659919" d="M373.695,55.17c0,.048-.024.072-.024.119-.286,1.623-1.122,2.983-2.052,3.341-.024,0-.072.024-.1.024a1.432,1.432,0,0,1-.549.048,1.588,1.588,0,0,1-1.026-.811,5.261,5.261,0,0,1-.215-.5,4.345,4.345,0,0,1-.239-1.957l.072-.835a5.875,5.875,0,0,1,.215-.931,3.634,3.634,0,0,1,1.814-2.386,1.011,1.011,0,0,1,.644-.072C373.337,51.4,373.981,53.166,373.695,55.17Z" transform="translate(85.826 43.4)" fill="#4f4334"/>
      <path id="Trazado_659920" data-name="Trazado 659920" d="M371.777,55.223c.289-1.74-.129-3.3-.943-3.868.055-.026.107-.062.16-.081a1.235,1.235,0,0,1,.637-.072c1.131.189,1.775,2.021,1.432,4.085-.267,1.613-1.1,2.985-2.036,3.334a1.233,1.233,0,0,1-.637.072,1.2,1.2,0,0,1-.489-.22A4.531,4.531,0,0,0,371.777,55.223Z" transform="translate(86.422 43.403)" fill="#8d7c55"/>
      <path id="Trazado_659921" data-name="Trazado 659921" d="M355.775,44.395l-2.193,126.337,24.1,42.81L367.844,56.168Z" transform="translate(63.798 33.986)" fill="#991400"/>
      <path id="Trazado_659922" data-name="Trazado 659922" d="M368.961,97.336l-26.472,13.511,23.625,5.592,26.948,23.707Z" transform="translate(48.419 107.382)" fill="#871200"/>
      <g id="Grupo_986821-2" data-name="Grupo 986821" transform="translate(455.642 73.339)">
        <path id="Trazado_659923" data-name="Trazado 659923" d="M395.664,121.411a11.71,11.71,0,0,1-5.775-1.456c-8.3-4.608-10.233-19-11.641-29.5-.37-2.744-.687-5.114-1.067-6.971-1.248-6.111-3.835-9.24-5.794-10.791a4.639,4.639,0,0,1-1.618-4.832l.143-.544c.353.091,8.624,2.358,11.278,15.349.408,1.993.735,4.427,1.112,7.245,1.293,9.648,3.066,22.859,9.572,26.47,2.6,1.441,5.849,1.246,9.946-.6,14.566-6.574,17.425-34.96,15.8-52.436-.823-8.806-2.2-13.578-3.238-15.666a8.892,8.892,0,0,1-1.024-4.014l.007-1.377c3.351,0,5.322,3.98,7.011,11.829C424.2,71.9,423.191,110.618,403.5,119.5A19.211,19.211,0,0,1,395.664,121.411Z" transform="translate(-369.615 -42.282)" fill="#cf4630"/>
      </g>
      <g id="Grupo_986822" data-name="Grupo 986822" transform="translate(455.297 70.936)">
        <path id="Trazado_659924" data-name="Trazado 659924" d="M408.774,112.914a22.283,22.283,0,0,1-9.116,2.2,14.82,14.82,0,0,1-6.873-1.647c-10.261-5.25-13.65-21.811-15.464-30.713l-.072-.358c-1.241-6.109-3.818-8.83-5.727-10a6.143,6.143,0,0,0-1.575-.764,5.262,5.262,0,0,1-.215-.5,4.345,4.345,0,0,1-.239-1.957l.072-.835a5.876,5.876,0,0,1,.215-.931,9.912,9.912,0,0,1,3.914,1.5c2.72,1.718,6.061,5.274,7.565,12.672l.072.358c1.67,8.209,4.8,23.53,13.316,27.9,3.484,1.766,7.541,1.551,12.457-.644,15.106-6.825,19-34.364,15.13-51.116-1.289-5.656-3.365-9.689-5.87-11.574a5.711,5.711,0,0,0-2.649-1.169,5.9,5.9,0,0,1-.072-2.434,6.461,6.461,0,0,1,.477-1.623,8.83,8.83,0,0,1,3.723,1.241v.024c3.747,2.243,6.706,7.326,8.376,14.628C430.3,74.9,426.457,104.943,408.774,112.914Z" transform="translate(-369.471 -41.275)" fill="#edf7ff"/>
      </g>
    </g>
  </g>
</svg>
