<svg id="Grupo_979564" data-name="Grupo 979564" xmlns="http://www.w3.org/2000/svg" width="156" height="156" viewBox="0 0 156 156">
  <rect id="Rectángulo_34178" data-name="Rectángulo 34178" width="156" height="156" fill="none"/>
  <g id="logistica_1_" data-name="logistica(1)" transform="translate(29.127 28.844)">
    <path id="Trazado_653651" data-name="Trazado 653651" d="M147.676,8l6.306,9.459H72L78.306,8Zm0,0" transform="translate(-57.811 -6.423)" fill="#fcd770"/>
    <path id="Trazado_653652" data-name="Trazado 653652" d="M153.982,56v6.306H72V56Zm0,0" transform="translate(-57.811 -44.964)" fill="#ffeaa7"/>
    <path id="Trazado_653653" data-name="Trazado 653653" d="M163.676,88v44.144h-6.306V103.766H128.991V94.306H94.306v31.532h3.153v7.883H88V88Zm0,0" transform="translate(-70.658 -70.658)" fill="#ccd1d9"/>
    <path id="Trazado_653654" data-name="Trazado 653654" d="M183.3,305.225v4.73h-8.45a6.3,6.3,0,0,0-10.469,4.73,6.3,6.3,0,0,0-10.469-4.73H136V280h47.3Zm0,0" transform="translate(-109.199 -224.82)" fill="#ff826e"/>
    <path id="Trazado_653655" data-name="Trazado 653655" d="M20.613,340.5a6.306,6.306,0,0,0-4.162,1.577H8V327.883L15.883,320H33.225v22.072h-8.45A6.276,6.276,0,0,0,20.613,340.5Zm0,0" transform="translate(-6.424 -256.937)" fill="#ff826e"/>
    <path id="Trazado_653656" data-name="Trazado 653656" d="M154.685,120v9.459h-6.306v22.072h-6.306v-6.306h-9.459v6.306H120V120h12.613v6.306h9.459V120Zm0,0" transform="translate(-96.352 -96.351)" fill="#d3a06c"/>
    <path id="Trazado_653657" data-name="Trazado 653657" d="M184,248h9.459v6.306H184Zm0,0" transform="translate(-147.739 -199.126)" fill="#e6e9ed"/>
    <path id="Trazado_653658" data-name="Trazado 653658" d="M184,120h9.459v6.306H184Zm0,0" transform="translate(-147.739 -96.351)" fill="#e6e9ed"/>
    <path id="Trazado_653659" data-name="Trazado 653659" d="M298.685,168v28.378h-9.459a3.162,3.162,0,0,0-3.153,3.153v-9.459H264V168h12.613v6.306h9.459V168Zm0,0" transform="translate(-211.973 -134.892)" fill="#cf9e76"/>
    <path id="Trazado_653660" data-name="Trazado 653660" d="M328,168h9.459v6.306H328Zm0,0" transform="translate(-263.361 -134.892)" fill="#e6e9ed"/>
    <path id="Trazado_653661" data-name="Trazado 653661" d="M394.919,312a3.162,3.162,0,0,1,3.153,3.153v15.766a3.162,3.162,0,0,1-3.153,3.153h-3.153v-6.306h-9.459v6.306h-3.153A3.162,3.162,0,0,1,376,330.919V315.153A3.162,3.162,0,0,1,379.153,312h3.153v6.306h9.459V312Zm0,0" transform="translate(-301.901 -250.513)" fill="#cf9e76"/>
    <g id="Grupo_979569" data-name="Grupo 979569" transform="translate(1.576 61.487)">
      <path id="Trazado_653662" data-name="Trazado 653662" d="M417.459,312v6.306H408V312Zm0,0" transform="translate(-329.171 -312)" fill="#e6e9ed"/>
      <path id="Trazado_653663" data-name="Trazado 653663" d="M408,392h9.459v6.306H408Zm0,0" transform="translate(-329.171 -376.234)" fill="#e6e9ed"/>
      <path id="Trazado_653664" data-name="Trazado 653664" d="M341.571,435.153a3.162,3.162,0,0,1-3.153,3.153h-3.153l-.189-.047a6.064,6.064,0,0,0,.189-1.53,6.279,6.279,0,0,0-2.144-4.73h8.45Zm0,0" transform="translate(-269.049 -408.351)" fill="#e6e9ed"/>
      <path id="Trazado_653665" data-name="Trazado 653665" d="M119.481,432H93.121a6.279,6.279,0,0,1,2.144,4.73,6.154,6.154,0,0,1-.189,1.53l.189.047h22.072l.189-.047a6.065,6.065,0,0,1-.189-1.53,6.279,6.279,0,0,1,2.144-4.73Zm0,0" transform="translate(-76.346 -408.351)" fill="#e6e9ed"/>
      <path id="Trazado_653666" data-name="Trazado 653666" d="M11.153,438.306A3.162,3.162,0,0,1,8,435.153V432h8.45a6.279,6.279,0,0,0-2.144,4.73,6.065,6.065,0,0,0,.189,1.53l-.189.047Zm0,0" transform="translate(-8 -408.351)" fill="#e6e9ed"/>
    </g>
    <path id="Trazado_653667" data-name="Trazado 653667" d="M40.189,431.836a6.065,6.065,0,0,1-.189-1.53,6.306,6.306,0,0,1,12.613,0,6.154,6.154,0,0,1-.189,1.53,6.3,6.3,0,0,1-12.234,0Zm0,0" transform="translate(-32.118 -340.442)" fill="#838f9b"/>
    <path id="Trazado_653668" data-name="Trazado 653668" d="M222.306,424a6.306,6.306,0,1,1-6.117,7.836,6.065,6.065,0,0,1-.189-1.53A6.321,6.321,0,0,1,222.306,424Zm0,0" transform="translate(-173.433 -340.441)" fill="#838f9b"/>
    <path id="Trazado_653669" data-name="Trazado 653669" d="M290.469,425.577a6.279,6.279,0,0,1,2.144,4.73,6.064,6.064,0,0,1-.189,1.53,6.315,6.315,0,1,1-1.955-6.259Zm0,0" transform="translate(-224.82 -340.441)" fill="#838f9b"/>
    <path id="Trazado_653670" data-name="Trazado 653670" d="M208,312h18.919v17.342H208Zm0,0" transform="translate(-167.009 -250.513)" fill="#cf9e76"/>
    <path id="Trazado_653671" data-name="Trazado 653671" d="M52.613,352v9.459H40v-4.73L44.73,352Zm0,0" transform="translate(-32.118 -282.631)" fill="#69d6f4"/>
    <path id="Trazado_653672" data-name="Trazado 653672" d="M67.153,449.577A1.577,1.577,0,1,1,65.577,448,1.577,1.577,0,0,1,67.153,449.577Zm0,0" transform="translate(-51.388 -359.712)"/>
    <path id="Trazado_653673" data-name="Trazado 653673" d="M307.153,449.577A1.577,1.577,0,1,1,305.577,448,1.577,1.577,0,0,1,307.153,449.577Zm0,0" transform="translate(-244.091 -359.712)"/>
    <path id="Trazado_653674" data-name="Trazado 653674" d="M243.153,449.577A1.577,1.577,0,1,1,241.577,448,1.577,1.577,0,0,1,243.153,449.577Zm0,0" transform="translate(-192.703 -359.712)"/>
    <path id="Trazado_653675" data-name="Trazado 653675" d="M47.766,344H37.654L32,349.654v6.959H47.766Zm-3.153,9.459H35.153v-2.5l3.806-3.806h5.654Zm0,0" transform="translate(-25.694 -276.207)"/>
    <path id="Trazado_653676" data-name="Trazado 653676" d="M97.747,18.919V10.558L90.708,0H19.651L12.612,10.558v8.361h3.153V61.487H8.806L0,70.293v18a4.736,4.736,0,0,0,4.73,4.73H6.974a7.867,7.867,0,0,0,14.429,0H41.659A7.843,7.843,0,0,0,55.18,94.546,7.843,7.843,0,0,0,68.7,93.018h2.245a4.736,4.736,0,0,0,4.73-4.73V84.845a4.664,4.664,0,0,0,1.577.29H93.017a4.736,4.736,0,0,0,4.73-4.73V64.64a4.723,4.723,0,0,0-3.153-4.44V18.919ZM21.339,3.153H89.021l4.2,6.306H91.441v3.153h3.153v3.153H15.765V12.613h3.153V9.459H17.134ZM10.112,64.64H25.225V83.559H18.87a7.738,7.738,0,0,0-9.362,0H3.153V71.6ZM37.837,25.225h6.306v3.153H37.837ZM47.3,31.532V25.225h9.459v6.306H50.45V53.6H47.3V47.3H34.684V53.6H25.225V25.225h9.459v6.306Zm18.919,3.153h6.306v3.153H66.216Zm9.459,6.306V34.685h9.459V59.91H77.252a4.664,4.664,0,0,0-1.577.29V53.6H53.6V34.685h9.459v6.306Zm6.306,22.072h6.306v3.153H81.982Zm-15.814,20.5A7.782,7.782,0,0,0,55.18,85.184a7.782,7.782,0,0,0-10.988-1.625H28.378v-26.8H72.522v26.8ZM44.144,53.6H37.837V50.45h6.306ZM4.729,89.865a1.58,1.58,0,0,1-1.577-1.577V86.712H6.974a7.8,7.8,0,0,0-.668,3.153Zm9.459,4.73a4.73,4.73,0,1,1,4.73-4.73A4.736,4.736,0,0,1,14.189,94.595ZM21.4,86.712h3.821v3.153H22.072a7.8,7.8,0,0,0-.668-3.153Zm6.974,3.153V86.712H41.659a7.8,7.8,0,0,0-.668,3.153Zm20.5,4.73a4.73,4.73,0,1,1,4.73-4.73A4.736,4.736,0,0,1,48.873,94.595Zm12.613,0a4.73,4.73,0,1,1,4.73-4.73A4.736,4.736,0,0,1,61.486,94.595Zm9.459-4.73H69.369a7.8,7.8,0,0,0-.668-3.153h3.821v1.577a1.58,1.58,0,0,1-1.577,1.577Zm17.342-7.883H81.982V78.829h6.306Zm6.306-1.577a1.58,1.58,0,0,1-1.577,1.577H91.441V75.676H78.828v6.306H77.252a1.58,1.58,0,0,1-1.577-1.577V64.64a1.58,1.58,0,0,1,1.577-1.577h1.577v6.306H91.441V63.063h1.577a1.58,1.58,0,0,1,1.577,1.577Zm-3.153-20.5H88.288V31.532H59.909V22.072H22.072V56.757h3.153v4.73H18.918V18.919H91.441Zm0,0"/>
    <path id="Trazado_653677" data-name="Trazado 653677" d="M200,304v20.5h22.072V304Zm18.919,17.342H203.153V307.153h15.766Zm0,0" transform="translate(-160.586 -244.09)"/>
    <path id="Trazado_653678" data-name="Trazado 653678" d="M112,48h66.216v3.153H112Zm0,0" transform="translate(-89.928 -38.541)"/>
  </g>
</svg>
