<svg xmlns="http://www.w3.org/2000/svg" width="67.984" height="73.208" viewBox="0 0 67.984 73.208">
  <g id="carpeta" transform="translate(-18.268)">
    <g id="Grupo_979581" data-name="Grupo 979581" transform="translate(19.34 1.072)">
      <g id="Grupo_979579" data-name="Grupo 979579" transform="translate(6.219)">
        <path id="Trazado_654419" data-name="Trazado 654419" d="M114.109,9.647H110.9A2.147,2.147,0,0,0,108.754,7.5H71.413a2.147,2.147,0,0,0-2.147,2.147V66.706a2.147,2.147,0,0,0,2.147,2.147c40.7,0,37.532.125,38.233-.2a2.154,2.154,0,0,0,1.15-1.291h3.313V9.647Z" transform="translate(-69.266 -7.5)" fill="#60b7ff"/>
      </g>
      <path id="Trazado_654420" data-name="Trazado 654420" d="M349.9,7.5h-4.463a2.147,2.147,0,0,1,2.147,2.147V66.706a2.147,2.147,0,0,1-2.147,2.147H349.9a2.147,2.147,0,0,0,2.147-2.147V9.647A2.147,2.147,0,0,0,349.9,7.5Z" transform="translate(-299.726 -7.5)" fill="#26a6fe"/>
      <path id="Trazado_654421" data-name="Trazado 654421" d="M135.5,50.922l-9.916-9.916H95.729a2.968,2.968,0,0,0-2.968,2.968V97.035a2.968,2.968,0,0,0,.05.533h40.541a2.147,2.147,0,0,0,2.147-2.147Z" transform="translate(-83.182 -36.215)" fill="#26a6fe"/>
      <path id="Trazado_654422" data-name="Trazado 654422" d="M163.334,51.475,158.3,48.333l-4.344-7.327H124.1a2.968,2.968,0,0,0-2.968,2.968V97.035A2.968,2.968,0,0,0,124.1,100h39.173l.058,0V51.475Z" transform="translate(-107.5 -36.215)" fill="#eaf6ff"/>
      <path id="Trazado_654423" data-name="Trazado 654423" d="M392.072,110.228l-4.463-2.787V153.97a2.968,2.968,0,0,1-2.968,2.968H389.1a2.968,2.968,0,0,0,2.968-2.968V110.228Z" transform="translate(-333.327 -93.151)" fill="#d8ecfe"/>
      <path id="Trazado_654424" data-name="Trazado 654424" d="M353.652,53.291h9.318L350.684,41v9.318A2.968,2.968,0,0,0,353.652,53.291Z" transform="translate(-304.226 -36.214)" fill="#b3dafe"/>
      <path id="Trazado_654425" data-name="Trazado 654425" d="M89.088,204.843H86.762a2.871,2.871,0,0,0-2.479-1.439H48.245l-3.768-6.235H42.192a2.146,2.146,0,0,0-1.718-.861H27.916a2.147,2.147,0,0,0-2.147,2.147v39.057a2.863,2.863,0,0,0,2.863,2.863H84.283a2.867,2.867,0,0,0,1.379-.357h.006a2.877,2.877,0,0,0,.917-.805h2.5Z" transform="translate(-25.769 -169.311)" fill="#fdb441"/>
      <g id="Grupo_979580" data-name="Grupo 979580" transform="translate(14.705 26.997)">
        <path id="Trazado_654426" data-name="Trazado 654426" d="M130.516,197.461l3.111,5.945h4.463l-3.11-5.945a2.147,2.147,0,0,0-1.9-1.152h-4.463A2.147,2.147,0,0,1,130.516,197.461Z" transform="translate(-128.614 -196.309)" fill="#fea613"/>
        <path id="Trazado_654427" data-name="Trazado 654427" d="M439.463,245.938H435a2.863,2.863,0,0,1,2.863,2.863v31.246A2.863,2.863,0,0,1,435,282.909h4.463a2.863,2.863,0,0,0,2.863-2.863V248.8A2.863,2.863,0,0,0,439.463,245.938Z" transform="translate(-391.191 -238.842)" fill="#fea613"/>
      </g>
    </g>
    <g id="Grupo_979582" data-name="Grupo 979582" transform="translate(18.268 0)">
      <path id="Trazado_654428" data-name="Trazado 654428" d="M72.685,305.8H22.2a1.792,1.792,0,0,1-1.79-1.79V274.968a1.072,1.072,0,1,0-2.145,0v29.038a3.939,3.939,0,0,0,3.935,3.935H72.685a1.072,1.072,0,1,0,0-2.145Z" transform="translate(-18.268 -234.733)"/>
      <path id="Trazado_654429" data-name="Trazado 654429" d="M42.571,35.663a1.072,1.072,0,0,0,.95.575h38.8a1.792,1.792,0,0,1,1.79,1.79V69.274a1.792,1.792,0,0,1-1.79,1.79H77.69a1.072,1.072,0,0,0,0,2.145h4.628a3.939,3.939,0,0,0,3.935-3.935V38.028a3.939,3.939,0,0,0-3.935-3.935H79.157V18.149a1.075,1.075,0,0,0-.314-.758L72.73,11.278V3.219A3.223,3.223,0,0,0,69.511,0h-41.8a3.223,3.223,0,0,0-3.219,3.219V27h-3a3.223,3.223,0,0,0-3.219,3.219v5a1.072,1.072,0,1,0,2.145,0v-5a1.076,1.076,0,0,1,1.075-1.075H38.509a1.071,1.071,0,0,1,.952.576l3.111,5.945Zm24.3-27.211L75.5,17.077H68.766a1.9,1.9,0,0,1-1.9-1.9ZM26.632,3.219a1.076,1.076,0,0,1,1.075-1.075h41.8a1.076,1.076,0,0,1,1.075,1.075V9.133L66.557,5.1a1.082,1.082,0,0,0-.758-.314H35.944a4.045,4.045,0,0,0-4.04,4.04V27H26.632ZM44.171,34.093l-1.108-2.118H71.025a1.072,1.072,0,1,0,0-2.145H41.941l-.579-1.107A3.21,3.21,0,0,0,38.509,27h-4.46V8.831a1.9,1.9,0,0,1,1.9-1.9H64.726v8.246a4.045,4.045,0,0,0,4.04,4.04h8.246V34.093Z" transform="translate(-18.268 0)"/>
      <path id="Trazado_654430" data-name="Trazado 654430" d="M195.823,158.956H164.959a1.072,1.072,0,1,0,0,2.145h30.863a1.072,1.072,0,1,0,0-2.145Z" transform="translate(-143.066 -136.228)"/>
    </g>
  </g>
</svg>
