<svg xmlns="http://www.w3.org/2000/svg" width="260.381" height="239.563" viewBox="0 0 260.381 239.563">
  <g id="Grupo_1009739" data-name="Grupo 1009739" transform="translate(-355.719 -15326.219)">
    <g id="Grupo_1009642" data-name="Grupo 1009642" transform="translate(30 -440)">
      <g id="Grupo_986532" data-name="Grupo 986532" transform="translate(346.538 15766.219)">
        <path id="Trazado_659338" data-name="Trazado 659338" d="M535.815,3774.067A119.782,119.782,0,1,1,655.6,3654.287,119.917,119.917,0,0,1,535.815,3774.067Zm0-228.762A108.981,108.981,0,1,0,644.8,3654.287,109.1,109.1,0,0,0,535.815,3545.305Z" transform="translate(-416.034 -3534.504)" fill="#ef8b53"/>
      </g>
      <g id="Grupo_986625" data-name="Grupo 986625" transform="translate(325.719 15785.601)">
        <g id="Grupo_986619" data-name="Grupo 986619" transform="translate(3.912 4.602)" opacity="0.5" style="mix-blend-mode: multiply;isolation: isolate">
          <path id="Trazado_659508" data-name="Trazado 659508" d="M442.327,3609.388l-13.548-8.582H416.957l13.548,8.582Z" transform="translate(-387.977 -3505.071)" fill="gray" fill-rule="evenodd"/>
          <path id="Trazado_659509" data-name="Trazado 659509" d="M649.825,3688.213l6.027,0a33.41,33.41,0,0,0-22.869-30.936v-14.315a8.65,8.65,0,0,0-7.247-8.5v-56.694a17.336,17.336,0,0,0-17.279-17.281H558.35c-9.5,0-17.383,8.763-21.6,17.281l-38.881,78.548a8.423,8.423,0,0,0-.646,1.858,33.238,33.238,0,0,0-16.607,15.268v-96.258l6.784-4.75h2.371a1.3,1.3,0,0,0,1.192-.794,1.282,1.282,0,0,0,.1-.5v-4.738a1.3,1.3,0,0,0-1.3-1.3h-9.154v-10.277l6.784-4.752h2.371a1.3,1.3,0,0,0,1.192-.793,1.28,1.28,0,0,0,.1-.5v-4.739a1.3,1.3,0,0,0-1.3-1.294H454.593a1.3,1.3,0,0,0-1.3,1.294v4.739a1.3,1.3,0,0,0,1.3,1.3h2.05l7.1,4.975v10.054h-9.154a1.3,1.3,0,0,0-1.3,1.3v4.738a1.3,1.3,0,0,0,1.3,1.3h2.05l7.1,4.973V3686.53a2.847,2.847,0,0,1-2.691,2.6l-5.15.568a2.517,2.517,0,0,0-2.172-2.174v-40.46h-41.01l15-6.72H415.9l-15,6.72v40.63a2.572,2.572,0,0,0-1.519,2.332v9.685a2.574,2.574,0,0,0,2.568,2.566h51.455a2.547,2.547,0,0,0,2.236-1.378h31.84a25.528,25.528,0,0,0,43.417,3.237h70.808a25.616,25.616,0,0,0,46.3-15.921h1.819ZM470.659,3572.442h3.047v106.379h-3.047Zm73.836,9.161c2.338-4.724,7.881-12.47,13.855-12.47h50.108a8.7,8.7,0,0,1,8.638,8.641v56.552h-3.158v-23.263a3.38,3.38,0,0,0-3.369-3.369H607.2c-1.852,0-3.006,1.553-3.371,3.369l-4.736,23.535H568.338a6.4,6.4,0,0,0-1.458.167c-.18.041-.343.124-.518.178a7.253,7.253,0,0,0-.833.289c-.211.1-.406.237-.608.356s-.43.227-.632.369-.411.338-.615.51c-.172.145-.353.272-.518.43-.221.211-.422.45-.63.682-.13.145-.27.276-.394.428-.221.267-.42.557-.625.843-.1.133-.2.257-.292.394-.223.333-.425.677-.627,1.023-.058.1-.124.195-.18.294-.2.36-.383.725-.561,1.092-.044.088-.094.175-.137.262h0l-.012.023-2.724,5.778H520.747l18.192-22.5,11.359,6.616a.868.868,0,0,0,1.182-.312l1.085-1.867a.865.865,0,0,0-.31-1.182l-21.278-12.392a.867.867,0,0,0-1.181.313l-1.087,1.865a.864.864,0,0,0,.312,1.182l3.128,1.822L519.9,3635.623h-2.145Zm-63.877-6.649v-2.512h3.59Zm0-22.361v-2.512h3.59Zm-20.781-2.512h3.91v2.737Zm10.823,0h3.047v15.029h-3.047Zm-10.823,22.361h3.91v2.735Z" transform="translate(-399.383 -3542.751)" fill="gray" fill-rule="evenodd"/>
        </g>
        <g id="Grupo_986624" data-name="Grupo 986624">
          <g id="Grupo_986622" data-name="Grupo 986622" transform="translate(1.519 95.735)">
            <path id="Trazado_659510" data-name="Trazado 659510" d="M426.407,3598.016H414.585l13.548,8.582h11.821Z" transform="translate(-387.124 -3598.016)" fill="#c97e43"/>
            <rect id="Rectángulo_310904" data-name="Rectángulo 310904" width="41.375" height="43.735" transform="translate(0 8.582)" fill="#c97e43"/>
            <path id="Trazado_659511" data-name="Trazado 659511" d="M424.757,3599.144H412.935l-15,6.721h11.822Z" transform="translate(-397.932 -3597.282)" fill="#e8a94b"/>
            <rect id="Rectángulo_310905" data-name="Rectángulo 310905" width="41.01" height="43.735" transform="translate(11.821 8.582)" fill="#f3c37c"/>
            <rect id="Rectángulo_310906" data-name="Rectángulo 310906" width="11.004" height="11.253" transform="translate(26.825 8.582)" fill="#fff" opacity="0.9"/>
            <rect id="Rectángulo_310907" data-name="Rectángulo 310907" width="11.004" height="11.254" transform="translate(26.825 41.064)" fill="#fff" opacity="0.9"/>
            <g id="Grupo_986621" data-name="Grupo 986621" transform="translate(13.787 43.35)">
              <rect id="Rectángulo_310908" data-name="Rectángulo 310908" width="10.639" height="6.953" fill="#fffff3"/>
              <g id="Grupo_986620" data-name="Grupo 986620" transform="translate(0.486 0.975)">
                <rect id="Rectángulo_310909" data-name="Rectángulo 310909" width="1.129" height="5.003" fill="#16131b"/>
                <rect id="Rectángulo_310910" data-name="Rectángulo 310910" width="0.396" height="5.003" transform="translate(1.815)" fill="#16131b"/>
                <rect id="Rectángulo_310911" data-name="Rectángulo 310911" width="0.926" height="5.003" transform="translate(3.833)" fill="#16131b"/>
                <rect id="Rectángulo_310912" data-name="Rectángulo 310912" width="0.565" height="5.003" transform="translate(2.666)" fill="#16131b"/>
                <rect id="Rectángulo_310913" data-name="Rectángulo 310913" width="0.382" height="5.003" transform="translate(5.451)" fill="#16131b"/>
                <rect id="Rectángulo_310914" data-name="Rectángulo 310914" width="0.765" height="5.003" transform="translate(7.259)" fill="#16131b"/>
                <rect id="Rectángulo_310915" data-name="Rectángulo 310915" width="0.38" height="5.003" transform="translate(8.286)" fill="#16131b"/>
                <rect id="Rectángulo_310916" data-name="Rectángulo 310916" width="0.524" height="5.003" transform="translate(6.392)" fill="#16131b"/>
                <rect id="Rectángulo_310917" data-name="Rectángulo 310917" width="0.565" height="5.003" transform="translate(9.073)" fill="#16131b"/>
              </g>
            </g>
          </g>
          <g id="Grupo_986623" data-name="Grupo 986623">
            <path id="Rectángulo_310918" data-name="Rectángulo 310918" d="M.609,0H6.3a.609.609,0,0,1,.609.609V153.1a.609.609,0,0,1-.609.609H.608A.608.608,0,0,1,0,153.1V.609A.609.609,0,0,1,.609,0Z" transform="translate(74.323 4.332)" fill="#16131b"/>
            <path id="Rectángulo_310919" data-name="Rectángulo 310919" d="M.609,0h5.7a.608.608,0,0,1,.608.608V153.1a.608.608,0,0,1-.608.608H.608A.608.608,0,0,1,0,153.1V.609A.609.609,0,0,1,.609,0Z" transform="translate(64.363 4.334)" fill="#16131b"/>
            <path id="Trazado_659512" data-name="Trazado 659512" d="M529.769,3579.344H526.4c-1.852,0-3.006,1.553-3.371,3.369l-5.133,25.518c-.368,1.817,1.516,3.369,3.369,3.369h8.506a3.378,3.378,0,0,0,3.369-3.369v-25.518A3.378,3.378,0,0,0,529.769,3579.344Z" transform="translate(-318.584 -3514.399)" fill="#ffa910" fill-rule="evenodd"/>
            <path id="Trazado_659513" data-name="Trazado 659513" d="M513.112,3614.155H476.374l18.517-22.9-6.832-3.883L475.53,3602.06h-3.239l-10.569,20.853h47.489Z" transform="translate(-355.011 -3509.188)" fill="#16131b" fill-rule="evenodd"/>
            <path id="Trazado_659514" data-name="Trazado 659514" d="M564.321,3595.659H508.457c-4.037,0-6.918,3.7-8.638,7.342l-13.854,29.377c-1.72,3.647,3.311,7.342,7.343,7.342h71.012a7.369,7.369,0,0,0,7.343-7.342V3603A7.365,7.365,0,0,0,564.321,3595.659Z" transform="translate(-339.501 -3503.81)" fill="#ffa910" fill-rule="evenodd"/>
            <path id="Trazado_659515" data-name="Trazado 659515" d="M567.664,3663.827a17.326,17.326,0,0,0,17.279-17.277V3568a17.337,17.337,0,0,0-17.279-17.28H517.556c-9.5,0-17.382,8.763-21.6,17.28l-38.881,78.55c-4.213,8.514,7.775,17.277,17.28,17.277Zm-63.963-92c2.338-4.725,7.881-12.47,13.855-12.47h50.108A8.693,8.693,0,0,1,576.3,3568v78.55a8.685,8.685,0,0,1-8.638,8.639H474.358a12.03,12.03,0,0,1-4.688-1.136c-1.2-.542-4.236-2.377-4.774-3.822Z" transform="translate(-358.589 -3532.977)" fill="#16131b" fill-rule="evenodd"/>
            <path id="Trazado_659516" data-name="Trazado 659516" d="M581.747,3665.3H467.632a8.665,8.665,0,0,1-8.641-8.639v-39.023h92.25c4.749,0,7.191-4.115,8.638-8.637l4.32-13.512h17.547a8.667,8.667,0,0,1,8.638,8.64v52.532A8.664,8.664,0,0,1,581.747,3665.3Z" transform="translate(-356.784 -3503.918)" fill="#324981" fill-rule="evenodd"/>
            <path id="Trazado_659517" data-name="Trazado 659517" d="M499.028,3596.869l-21.277-12.393a.865.865,0,0,0-1.181.314l-1.087,1.865a.863.863,0,0,0,.312,1.181l21.276,12.392a.866.866,0,0,0,1.182-.311l1.085-1.866A.864.864,0,0,0,499.028,3596.869Z" transform="translate(-346.156 -3511.144)" fill="#16131b" fill-rule="evenodd"/>
            <path id="Trazado_659518" data-name="Trazado 659518" d="M491.29,3644.555H413.348a2.723,2.723,0,0,1-2.714-2.714v-4.733l39.207-4.321a2.84,2.84,0,0,0,2.714-2.716v-7.6H491.29a2.723,2.723,0,0,1,2.714,2.716v16.65A2.723,2.723,0,0,1,491.29,3644.555Z" transform="translate(-388.169 -3486.405)" fill="#09060e" fill-rule="evenodd"/>
            <path id="Rectángulo_310920" data-name="Rectángulo 310920" d="M.785,0h36.2a.785.785,0,0,1,.785.785V6.544a.786.786,0,0,1-.786.786H.786A.786.786,0,0,1,0,6.544V.785A.785.785,0,0,1,.785,0Z" transform="translate(53.913)" fill="#fff"/>
            <path id="Trazado_659519" data-name="Trazado 659519" d="M438.838,3547.142l-3.91-2.737h-3.194l7.1,4.975Z" transform="translate(-374.475 -3537.075)" fill="#dddfe8" fill-rule="evenodd"/>
            <path id="Trazado_659520" data-name="Trazado 659520" d="M446.273,3547.006l3.91-2.737h3.195l-7.1,4.976Z" transform="translate(-365.038 -3537.163)" fill="#dddfe8" fill-rule="evenodd"/>
            <path id="Rectángulo_310921" data-name="Rectángulo 310921" d="M.786,0h36.2a.786.786,0,0,1,.786.786V6.545a.785.785,0,0,1-.785.785H.786A.786.786,0,0,1,0,6.544V.786A.786.786,0,0,1,.786,0Z" transform="translate(53.913 22.36)" fill="#fff"/>
            <path id="Trazado_659521" data-name="Trazado 659521" d="M438.838,3560.7l-3.91-2.737h-3.194l7.1,4.975Z" transform="translate(-374.475 -3528.274)" fill="#dddfe8" fill-rule="evenodd"/>
            <path id="Trazado_659522" data-name="Trazado 659522" d="M446.273,3560.567l3.91-2.738h3.195l-7.1,4.976Z" transform="translate(-365.038 -3528.363)" fill="#dddfe8" fill-rule="evenodd"/>
            <path id="Rectángulo_310922" data-name="Rectángulo 310922" d="M1.556,0H55.031a1.558,1.558,0,0,1,1.558,1.558V13.263a1.558,1.558,0,0,1-1.558,1.558H1.556A1.556,1.556,0,0,1,0,13.264V1.556A1.556,1.556,0,0,1,1.556,0Z" transform="translate(0 144.709)" fill="#16131b"/>
            <rect id="Rectángulo_310923" data-name="Rectángulo 310923" width="71.487" height="18.81" transform="translate(130.809 142.577)" fill="gray" opacity="0.35" style="mix-blend-mode: multiply;isolation: isolate"/>
            <path id="Trazado_659523" data-name="Trazado 659523" d="M545.7,3608.371l.31,0,.467.011.341.011c.206.008.412.02.617.031l.18.012.515.038.345.028.363.036.42.044.411.049h.008l.417.058.34.05.44.068.389.067.228.039c.214.04.425.079.64.124l.084.018a33.449,33.449,0,0,1,26.657,31.969l-32.669-.02-.785.823v15.117H515.583a33.459,33.459,0,0,1,26.643-48.428l.071-.005c.241-.021.48-.042.721-.059l.172-.01.587-.036c.17-.009.34-.012.511-.019l.3-.013C544.961,3608.371,545.332,3608.367,545.7,3608.371Z" transform="translate(-322.399 -3495.561)" fill="#fff" fill-rule="evenodd"/>
            <path id="Trazado_659524" data-name="Trazado 659524" d="M523.65,3620.048a27.448,27.448,0,0,0-3.491,34.536h3.784v-15.92h46.532a27.435,27.435,0,0,0-46.826-18.616Z" transform="translate(-320.034 -3493.197)" fill="#7a7c83" fill-rule="evenodd"/>
            <path id="Trazado_659525" data-name="Trazado 659525" d="M477.106,3608.371l-.305,0-.47.011-.341.011c-.2.008-.412.02-.618.031l-.178.012-.513.038-.346.028-.361.036-.424.044-.407.049h-.01l-.419.058-.336.05-.442.068-.389.067-.226.039c-.214.04-.427.079-.64.124l-.084.018a33.449,33.449,0,0,0-26.657,31.969l32.669-.02.783.823v15.117h29.833a33.461,33.461,0,0,0-26.645-48.428l-.071-.005c-.241-.021-.478-.042-.721-.059l-.17-.01-.587-.036c-.172-.009-.341-.012-.513-.019l-.3-.013C477.846,3608.371,477.475,3608.367,477.106,3608.371Z" transform="translate(-366.553 -3495.561)" fill="#fff" fill-rule="evenodd"/>
            <path id="Trazado_659526" data-name="Trazado 659526" d="M451.033,3639.619H399.578a2.573,2.573,0,0,1-2.566-2.567v-4.844H453.6v4.844A2.575,2.575,0,0,1,451.033,3639.619Z" transform="translate(-397.01 -3480.088)" fill="#16131b" fill-rule="evenodd"/>
            <path id="Trazado_659527" data-name="Trazado 659527" d="M455.617,3620.058a27.343,27.343,0,0,0-8.024,18.6h48.143v15.92h2.187a27.441,27.441,0,0,0-42.306-34.52Z" transform="translate(-364.182 -3493.19)" fill="#7a7c83" fill-rule="evenodd"/>
            <circle id="Elipse_7746" data-name="Elipse 7746" cx="25.657" cy="25.657" r="25.657" transform="translate(85.177 120.596)" fill="#16131b"/>
            <path id="Trazado_659528" data-name="Trazado 659528" d="M477.318,3624.919a11.9,11.9,0,1,0,0,16.826A11.9,11.9,0,0,0,477.318,3624.919Z" transform="translate(-358.071 -3487.08)" fill="#d0d5dd" fill-rule="evenodd"/>
            <path id="Trazado_659529" data-name="Trazado 659529" d="M469.082,3627.276a4.414,4.414,0,1,0,0,6.243A4.413,4.413,0,0,0,469.082,3627.276Z" transform="translate(-355.124 -3484.129)" fill="#16131b" fill-rule="evenodd"/>
            <path id="Trazado_659530" data-name="Trazado 659530" d="M429.705,3555.742v2.371a1.3,1.3,0,0,0,1.3,1.294h35.181a1.3,1.3,0,0,0,1.294-1.294v-2.371Z" transform="translate(-375.791 -3529.718)" fill="#dddfe8" fill-rule="evenodd"/>
            <path id="Trazado_659531" data-name="Trazado 659531" d="M429.705,3542.183v2.368a1.3,1.3,0,0,0,1.3,1.3h35.181a1.3,1.3,0,0,0,1.294-1.3v-2.368Z" transform="translate(-375.791 -3538.517)" fill="#dddfe8" fill-rule="evenodd"/>
            <path id="Trazado_659532" data-name="Trazado 659532" d="M533.619,3595.659c-1.115,4.569-4.561,7.4-8.351,7.419H494.23l.012-.1c1.723-3.64,4.6-7.317,8.626-7.317Z" transform="translate(-333.912 -3503.81)" fill="#ff9307" fill-rule="evenodd"/>
            <path id="Trazado_659533" data-name="Trazado 659533" d="M560.484,3620.608a25.656,25.656,0,1,0,0,36.282A25.653,25.653,0,0,0,560.484,3620.608Z" transform="translate(-319.338 -3492.495)" fill="#16131b" fill-rule="evenodd"/>
            <path id="Trazado_659534" data-name="Trazado 659534" d="M545.341,3624.92a11.9,11.9,0,1,0,0,16.825A11.9,11.9,0,0,0,545.341,3624.92Z" transform="translate(-313.922 -3487.079)" fill="#d0d5dd" fill-rule="evenodd"/>
            <path id="Trazado_659535" data-name="Trazado 659535" d="M537.1,3627.276a4.414,4.414,0,1,0,0,6.243A4.413,4.413,0,0,0,537.1,3627.276Z" transform="translate(-310.977 -3484.129)" fill="#16131b" fill-rule="evenodd"/>
          </g>
        </g>
      </g>
    </g>
  </g>
</svg>
