<svg xmlns="http://www.w3.org/2000/svg" width="64.123" height="73.415" viewBox="0 0 64.123 73.415">
  <g id="documentos" transform="translate(-32.4)">
    <g id="Grupo_986841" data-name="Grupo 986841" transform="translate(33.482 1.069)">
      <path id="Trazado_659928" data-name="Trazado 659928" d="M424.99,136.5h-.01l-.426.251v7.384h6.47l.354-.3v-.946A6.407,6.407,0,0,0,424.99,136.5Z" transform="translate(-369.406 -117.998)" fill="#ffa90f"/>
      <path id="Trazado_659929" data-name="Trazado 659929" d="M163.738,8.485l-.457-1.028H131.928a2.369,2.369,0,0,0-2.369,2.369v4.089l.985.807h26.285l8.63,8.388V33.793H171.6l.683-.5V16.46l-1.066-.471Z" transform="translate(-116.709 -7.457)" fill="#62ddfc"/>
      <g id="Grupo_986840" data-name="Grupo 986840" transform="translate(12.85 0)">
        <path id="Trazado_659930" data-name="Trazado 659930" d="M136.906,9.826a2.369,2.369,0,0,1,2.369-2.369h-7.347a2.369,2.369,0,0,0-2.369,2.369v4.089l.985.807h7.347l-.985-.807V9.826Z" transform="translate(-129.559 -7.457)" fill="#00d2fc"/>
      </g>
      <path id="Trazado_659931" data-name="Trazado 659931" d="M46.343,136.5h-.131a6.285,6.285,0,0,0-6.267,6.267v1.067l.619.171h6.261v-7.1Z" transform="translate(-39.945 -117.998)" fill="#ffa90f"/>
      <path id="Trazado_659932" data-name="Trazado 659932" d="M364.741,7.457v6.634a2.369,2.369,0,0,0,2.369,2.369h6.634Z" transform="translate(-318.169 -7.457)" fill="#00d2fc"/>
      <path id="Trazado_659933" data-name="Trazado 659933" d="M118.838,53.855l-.552-1.357H86.933a2.369,2.369,0,0,0-2.369,2.369v17.01l.929.929h39.245l2.551-.929V61.5l-1.329-.62Z" transform="translate(-78.166 -46.04)" fill="#dbedff"/>
      <path id="Trazado_659934" data-name="Trazado 659934" d="M91.912,54.866A2.369,2.369,0,0,1,94.281,52.5H86.934a2.369,2.369,0,0,0-2.369,2.369v17.01l.929.929h7.347l-.929-.929Z" transform="translate(-78.167 -46.039)" fill="#b5dcff"/>
      <path id="Trazado_659935" data-name="Trazado 659935" d="M319.746,52.5v6.634a2.369,2.369,0,0,0,2.369,2.369h6.634Z" transform="translate(-279.626 -46.04)" fill="#b5dcff"/>
      <path id="Trazado_659936" data-name="Trazado 659936" d="M368.612,14.091V11.328l-3.871-3.871v6.634a2.369,2.369,0,0,0,2.369,2.369h3.871A2.369,2.369,0,0,1,368.612,14.091Z" transform="translate(-318.169 -7.457)" fill="#00c2fb"/>
      <path id="Trazado_659937" data-name="Trazado 659937" d="M323.617,59.132V56.369L319.746,52.5v6.634a2.369,2.369,0,0,0,2.369,2.369h3.871A2.369,2.369,0,0,1,323.617,59.132Z" transform="translate(-279.626 -46.04)" fill="#8bcaff"/>
      <path id="Trazado_659938" data-name="Trazado 659938" d="M101.918,187.649H39.945v43.522a1.9,1.9,0,0,0,1.9,1.9h58.164a1.9,1.9,0,0,0,1.9-1.9Z" transform="translate(-39.945 -161.812)" fill="#ffd086"/>
      <path id="Trazado_659939" data-name="Trazado 659939" d="M49.079,231.171V187.649H39.945v43.522a1.9,1.9,0,0,0,1.9,1.9h9.134A1.9,1.9,0,0,1,49.079,231.171Z" transform="translate(-39.945 -161.812)" fill="#ffc365"/>
      <path id="Trazado_659940" data-name="Trazado 659940" d="M280.086,320H257.265a1.219,1.219,0,0,0-1.219,1.219v17.964a1.219,1.219,0,0,0,1.219,1.219h22.822a1.219,1.219,0,0,0,1.219-1.219V321.221A1.219,1.219,0,0,0,280.086,320Z" transform="translate(-225.06 -275.187)" fill="#dbedff"/>
      <path id="Trazado_659941" data-name="Trazado 659941" d="M261.773,339.185V321.221A1.219,1.219,0,0,1,262.992,320h-5.727a1.219,1.219,0,0,0-1.219,1.219v17.964a1.219,1.219,0,0,0,1.219,1.219h5.727A1.219,1.219,0,0,1,261.773,339.185Z" transform="translate(-225.06 -275.187)" fill="#b5dcff"/>
    </g>
    <g id="Grupo_986842" data-name="Grupo 986842" transform="translate(32.4 0)">
      <path id="Trazado_659942" data-name="Trazado 659942" d="M38.8,18.566a7.352,7.352,0,0,0-6.4,7.28V70.435a2.983,2.983,0,0,0,2.98,2.98H93.544a2.983,2.983,0,0,0,2.98-2.98V50.97a1.075,1.075,0,1,0-2.151,0V70.435a.83.83,0,0,1-.829.829H35.38a.83.83,0,0,1-.829-.829V27.988H94.373V45.952a1.075,1.075,0,1,0,2.151,0V25.967a7.474,7.474,0,0,0-6.4-7.386v-8.5a1.081,1.081,0,0,0-.315-.761l-9-9A1.086,1.086,0,0,0,80.047,0H48.694A3.448,3.448,0,0,0,45.25,3.444V6.458H42.242A3.448,3.448,0,0,0,38.8,9.9Zm0,7.271H34.551a5.2,5.2,0,0,1,4.247-5.1Zm51.328-5.076a5.322,5.322,0,0,1,4.246,5.076H90.125Zm-9-17.09L86.454,9H82.416a1.3,1.3,0,0,1-1.294-1.294ZM47.4,3.444a1.3,1.3,0,0,1,1.294-1.294H78.972V7.709a3.448,3.448,0,0,0,3.444,3.444h5.559V25.837h-4.3v-9.3a1.081,1.081,0,0,0-.315-.761l-9-9a1.088,1.088,0,0,0-.761-.315H47.4ZM80,15.461H75.964a1.3,1.3,0,0,1-1.294-1.294V10.13ZM40.949,9.9a1.3,1.3,0,0,1,1.294-1.294H72.52v5.559a3.448,3.448,0,0,0,3.444,3.444h5.559v8.225H40.949Z" transform="translate(-32.4 0)"/>
      <path id="Trazado_659943" data-name="Trazado 659943" d="M299.856,425.126h-15.2a1.075,1.075,0,1,0,0,2.151h15.2a1.075,1.075,0,1,0,0-2.151Z" transform="translate(-247.565 -364.168)"/>
      <path id="Trazado_659944" data-name="Trazado 659944" d="M299.856,397.5h-15.2a1.075,1.075,0,1,0,0,2.151h15.2a1.075,1.075,0,1,0,0-2.151Z" transform="translate(-247.565 -340.502)"/>
      <path id="Trazado_659945" data-name="Trazado 659945" d="M299.856,369.873h-15.2a1.075,1.075,0,1,0,0,2.151h15.2a1.075,1.075,0,1,0,0-2.151Z" transform="translate(-247.565 -316.838)"/>
      <path id="Trazado_659946" data-name="Trazado 659946" d="M299.856,342.246h-15.2a1.075,1.075,0,1,0,0,2.151h15.2a1.075,1.075,0,1,0,0-2.151Z" transform="translate(-247.565 -293.172)"/>
      <path id="Trazado_659947" data-name="Trazado 659947" d="M149.249,149.617H119.665a1.075,1.075,0,0,0,0,2.151h29.584a1.075,1.075,0,0,0,0-2.151Z" transform="translate(-106.231 -128.164)"/>
      <path id="Trazado_659948" data-name="Trazado 659948" d="M119.664,124.142h24.9a1.075,1.075,0,0,0,0-2.151h-24.9a1.075,1.075,0,0,0,0,2.151Z" transform="translate(-106.231 -104.499)"/>
      <path id="Trazado_659949" data-name="Trazado 659949" d="M259.7,312.545h-8.9a2.3,2.3,0,0,0-2.294,2.294V332.8a2.3,2.3,0,0,0,2.294,2.294h22.822a2.3,2.3,0,0,0,2.294-2.294V314.839a2.3,2.3,0,0,0-2.294-2.294h-8.9a1.075,1.075,0,1,0,0,2.151h8.9a.143.143,0,0,1,.143.143V332.8a.143.143,0,0,1-.143.143H250.794a.143.143,0,0,1-.143-.143V314.839a.143.143,0,0,1,.143-.143h8.9a1.075,1.075,0,0,0,0-2.151Z" transform="translate(-217.514 -267.73)"/>
    </g>
  </g>
</svg>
