<svg xmlns="http://www.w3.org/2000/svg" width="105" height="104.465" viewBox="0 0 105 104.465">
  <g id="Grupo_1009739" data-name="Grupo 1009739" transform="translate(-810 -8058.451)">
    <path id="Trazado_663293" data-name="Trazado 663293" d="M0,0H105V104.465H0Z" transform="translate(810 8058.451)" fill="#f0bd51"/>
    <g id="produccion_2_" data-name="produccion(2)" transform="translate(825.217 8073.434)">
      <g id="Grupo_987715" data-name="Grupo 987715" transform="translate(18.642 1.243)">
        <path id="Trazado_663742" data-name="Trazado 663742" d="M154.8,26.642h-.21c0-6.214-1.033-17.4-12.218-17.4V8h-7.457V9.243c-11.185,0-12.218,11.185-12.218,17.4H120v4.971h37.283V26.642Z" transform="translate(-120 -8)" fill="#e3ac34"/>
        <path id="Trazado_663743" data-name="Trazado 663743" d="M271.374,333.569,256.3,310.951a1.243,1.243,0,0,0-2.068,0l-1.847,2.77L241.663,329.8l-2.512,3.766a1.243,1.243,0,0,0,1.035,1.933h30.152a1.243,1.243,0,0,0,1.035-1.933Z" transform="translate(-220.465 -263.421)" fill="#e3ac34"/>
      </g>
      <path id="Trazado_663744" data-name="Trazado 663744" d="M78.839,213.827h-6.9a28.417,28.417,0,0,0-3.781-9.12h0l4.882-4.88a1.243,1.243,0,0,0,0-1.758h0l-7.03-7.03a1.243,1.243,0,0,0-1.758,0h0l-4.88,4.882h0a28.421,28.421,0,0,0-9.117-3.778v-6.9A1.243,1.243,0,0,0,49.012,184H39.07a1.243,1.243,0,0,0-1.243,1.243v6.9a28.407,28.407,0,0,0-9.117,3.781l-4.88-4.882a1.243,1.243,0,0,0-1.758,0h0l-7.03,7.03a1.243,1.243,0,0,0,0,1.758h0l4.882,4.88a28.41,28.41,0,0,0-3.781,9.117h-6.9A1.243,1.243,0,0,0,8,215.07v9.942a1.243,1.243,0,0,0,1.243,1.243h17.24a18.627,18.627,0,0,1,30.833-19.292l1.847-2.77a1.243,1.243,0,0,1,2.068,0l14.708,22.062h2.9a1.243,1.243,0,0,0,1.243-1.243V215.07A1.243,1.243,0,0,0,78.839,213.827Z" transform="translate(-6.757 -155.416)" fill="#dbdce0"/>
      <path id="Trazado_663745" data-name="Trazado 663745" d="M113.243,26.1h37.283a1.243,1.243,0,0,0,1.243-1.243V19.884a1.243,1.243,0,0,0-1.243-1.243h-1.478c-.313-7.917-3.665-16.551-12.193-17.323V1.243A1.243,1.243,0,0,0,135.613,0h-7.457a1.243,1.243,0,0,0-1.243,1.243v.076c-8.528.772-11.88,9.407-12.193,17.323h-1.478A1.243,1.243,0,0,0,112,19.884v4.971A1.243,1.243,0,0,0,113.243,26.1Zm1.243-4.971h7.457V18.642H117.22c.208-3.761,1.532-13.9,9.694-14.835V14.913H129.4V2.486h4.971V14.913h2.486V3.807c8.16.94,9.485,11.074,9.694,14.835H124.428v2.486h24.856v2.486h-34.8Z" transform="translate(-94.601)"/>
      <rect id="Rect치ngulo_311203" data-name="Rect치ngulo 311203" width="2" height="11" transform="translate(52.567 54.566)"/>
      <rect id="Rect치ngulo_311204" data-name="Rect치ngulo 311204" width="2" height="2" transform="translate(52.567 68.566)"/>
      <path id="Trazado_663746" data-name="Trazado 663746" d="M72.081,205.827H66.162a29.51,29.51,0,0,0-3.188-7.689l4.189-4.188a2.493,2.493,0,0,0,0-3.515l-7.03-7.03a2.486,2.486,0,0,0-3.515,0l-4.187,4.188A29.6,29.6,0,0,0,44.74,184.4v-5.919A2.485,2.485,0,0,0,42.255,176H32.312a2.485,2.485,0,0,0-2.486,2.486V184.4a29.564,29.564,0,0,0-7.689,3.188L17.949,183.4a2.486,2.486,0,0,0-3.515,0L7.4,190.436a2.486,2.486,0,0,0,0,3.513l4.188,4.188A29.527,29.527,0,0,0,8.4,205.827H2.486A2.485,2.485,0,0,0,0,208.312v9.942a2.485,2.485,0,0,0,2.486,2.486h17.24a1.243,1.243,0,0,0,1.171-1.658A17.368,17.368,0,0,1,48.937,200.4L36.289,219.362a2.486,2.486,0,0,0,2.073,3.864H68.517a2.452,2.452,0,0,0,2.472-2.432c0-.018,0-.036,0-.054h1.092a2.485,2.485,0,0,0,2.486-2.486v-9.942A2.485,2.485,0,0,0,72.081,205.827ZM38.362,220.74,53.44,198.122,68.517,220.74Zm33.719-2.486H69.844L55.508,196.747a2.486,2.486,0,0,0-4.136,0h0l-1.039,1.561A19.7,19.7,0,0,0,37.283,193.4,19.908,19.908,0,0,0,17.4,213.283a19.539,19.539,0,0,0,.646,4.971H2.486v-9.942h6.9a1.243,1.243,0,0,0,1.213-.974,27.09,27.09,0,0,1,3.615-8.719,1.243,1.243,0,0,0-.17-1.546l-4.882-4.88,7.03-7.029,4.882,4.88a1.243,1.243,0,0,0,1.546.169,27.148,27.148,0,0,1,8.719-3.615,1.243,1.243,0,0,0,.973-1.213v-6.9h9.942v6.9a1.243,1.243,0,0,0,.973,1.213,27.157,27.157,0,0,1,8.722,3.616,1.243,1.243,0,0,0,1.544-.17l4.882-4.88,7.03,7.029-4.882,4.879a1.243,1.243,0,0,0-.169,1.547,27.1,27.1,0,0,1,3.615,8.719,1.243,1.243,0,0,0,1.213.974h6.9Z" transform="translate(0 -148.659)"/>
    </g>
  </g>
</svg>
