<svg xmlns="http://www.w3.org/2000/svg" width="105" height="104.465" viewBox="0 0 105 104.465">
  <g id="Grupo_1009741" data-name="Grupo 1009741" transform="translate(-810 -8230.668)">
    <path id="Trazado_663294" data-name="Trazado 663294" d="M0,0H105V104.465H0Z" transform="translate(810 8230.668)" fill="#f0bd51"/>
    <g id="produccion_3_" data-name="produccion(3)" transform="translate(824.25 8244.65)">
      <g id="Grupo_987741" data-name="Grupo 987741" transform="translate(2.202 2.202)">
        <g id="Grupo_987716" data-name="Grupo 987716" transform="translate(0 33.645)">
          <path id="Trazado_663747" data-name="Trazado 663747" d="M40.452,30v7.21h-7.21v-2.4H9.21v2.4H2V30H40.452Z" transform="translate(-2 -30)" fill="#aab2bd"/>
        </g>
        <g id="Grupo_987717" data-name="Grupo 987717" transform="translate(7.21 38.452)">
          <path id="Trazado_663748" data-name="Trazado 663748" d="M12.806,53.226a2.41,2.41,0,0,0,2.4,2.4H8V34H32.032V53.226a2.41,2.41,0,0,0,2.4,2.4H24.823a2.41,2.41,0,0,0,2.4-2.4V43.613a2.41,2.41,0,0,0-2.4-2.4H15.21a2.41,2.41,0,0,0-2.4,2.4Z" transform="translate(-8 -34)" fill="#e6e9ed"/>
        </g>
        <g id="Grupo_987718" data-name="Grupo 987718" transform="translate(0 60.081)">
          <path id="Trazado_663749" data-name="Trazado 663749" d="M68.089,52H8.008a6.008,6.008,0,0,0,0,12.016H68.089a6.008,6.008,0,0,0,0-12.016Z" transform="translate(-2 -52)" fill="#ccd1d9"/>
        </g>
        <g id="Grupo_987719" data-name="Grupo 987719" transform="translate(7.153 61.288)">
          <circle id="Elipse_7799" data-name="Elipse 7799" cx="4.845" cy="4.845" r="4.845" transform="translate(0 0)" fill="#969faa"/>
        </g>
        <g id="Grupo_987720" data-name="Grupo 987720" transform="translate(24.028 61.288)">
          <circle id="Elipse_7800" data-name="Elipse 7800" cx="4.845" cy="4.845" r="4.845" transform="translate(0 0)" fill="#969faa"/>
        </g>
        <g id="Grupo_987721" data-name="Grupo 987721" transform="translate(40.903 61.288)">
          <ellipse id="Elipse_7801" data-name="Elipse 7801" cx="4.762" cy="4.845" rx="4.762" ry="4.845" transform="translate(0 0)" fill="#969faa"/>
        </g>
        <g id="Grupo_987722" data-name="Grupo 987722" transform="translate(55.273 61.288)">
          <circle id="Elipse_7802" data-name="Elipse 7802" cx="4.845" cy="4.845" r="4.845" transform="translate(0 0)" fill="#969faa"/>
        </g>
        <g id="Grupo_987723" data-name="Grupo 987723" transform="translate(12.016 45.661)">
          <path id="Trazado_663750" data-name="Trazado 663750" d="M26.419,42.4v9.613a2.41,2.41,0,0,1-2.4,2.4H14.4a2.41,2.41,0,0,1-2.4-2.4V42.4A2.41,2.41,0,0,1,14.4,40h2.4v4.806h4.806V40h2.4A2.41,2.41,0,0,1,26.419,42.4Z" transform="translate(-12 -40)" fill="#d3a06c"/>
        </g>
        <g id="Grupo_987724" data-name="Grupo 987724" transform="translate(31.242 45.661)">
          <path id="Trazado_663751" data-name="Trazado 663751" d="M42.419,42.4v9.613a2.41,2.41,0,0,1-2.4,2.4H30.4a2.41,2.41,0,0,1-2.4-2.4V42.4A2.41,2.41,0,0,1,30.4,40h2.4v4.806h4.806V40h2.4A2.41,2.41,0,0,1,42.419,42.4Z" transform="translate(-28 -40)" fill="#d3a06c"/>
        </g>
        <g id="Grupo_987725" data-name="Grupo 987725" transform="translate(52.871 40.855)">
          <path id="Trazado_663752" data-name="Trazado 663752" d="M60.419,38.4v9.613a2.41,2.41,0,0,1-2.4,2.4H48.4a2.41,2.41,0,0,1-2.4-2.4V38.4A2.41,2.41,0,0,1,48.4,36h2.4v4.806h4.806V36h2.4A2.41,2.41,0,0,1,60.419,38.4Z" transform="translate(-46 -36)" fill="#d3a06c"/>
        </g>
        <g id="Grupo_987726" data-name="Grupo 987726" transform="translate(16.823 45.661)">
          <path id="Trazado_663753" data-name="Trazado 663753" d="M16,40h4.806v4.806H16Z" transform="translate(-16 -40)" fill="#b27946"/>
        </g>
        <g id="Grupo_987727" data-name="Grupo 987727" transform="translate(36.048 45.661)">
          <path id="Trazado_663754" data-name="Trazado 663754" d="M32,40h4.806v4.806H32Z" transform="translate(-32 -40)" fill="#b27946"/>
        </g>
        <g id="Grupo_987728" data-name="Grupo 987728" transform="translate(57.677 40.855)">
          <path id="Trazado_663755" data-name="Trazado 663755" d="M50,36h4.806v4.806H50Z" transform="translate(-50 -36)" fill="#b27946"/>
        </g>
        <g id="Grupo_987729" data-name="Grupo 987729" transform="translate(56.476 21.629)">
          <path id="Trazado_663756" data-name="Trazado 663756" d="M56.21,23.6A3.6,3.6,0,1,1,52.6,20,3.573,3.573,0,0,1,56.21,23.6Z" transform="translate(-49 -20)" fill="#ff826e"/>
        </g>
        <g id="Grupo_987730" data-name="Grupo 987730" transform="translate(10.815)">
          <path id="Trazado_663757" data-name="Trazado 663757" d="M24.218,12.815h-1.2c-2.439,0-3.232-2.211-3.485-3.629l-.12.024h-2.4l-.409.2a3.6,3.6,0,0,0-1.995,3.22v.18H13.4a2.362,2.362,0,0,0-1.574.589A7.884,7.884,0,0,1,18.883,2H19.94a7.884,7.884,0,0,1,7.053,11.4,2.362,2.362,0,0,0-1.574-.589Z" transform="translate(-11 -2)" fill="#656d78"/>
        </g>
        <g id="Grupo_987731" data-name="Grupo 987731" transform="translate(6.008 23.419)">
          <path id="Trazado_663758" data-name="Trazado 663758" d="M11.806,26.909v4.806H7v-1.2a10.847,10.847,0,0,1,4.806-9.024Z" transform="translate(-7 -21.49)" fill="#ffeaa7"/>
        </g>
        <g id="Grupo_987732" data-name="Grupo 987732" transform="translate(15.621 18.481)">
          <path id="Trazado_663759" data-name="Trazado 663759" d="M22.21,27.738v4.806H15V20.528l1.045-3.136V17.38a4.769,4.769,0,0,0,5.119,0v.012l1.045,3.136Z" transform="translate(-15 -17.38)" fill="#ffeaa7"/>
        </g>
        <g id="Grupo_987733" data-name="Grupo 987733" transform="translate(27.637 23.419)">
          <path id="Trazado_663760" data-name="Trazado 663760" d="M29.806,30.514v1.2H25V21.49A10.847,10.847,0,0,1,29.806,30.514Z" transform="translate(-25 -21.49)" fill="#ffeaa7"/>
        </g>
        <g id="Grupo_987734" data-name="Grupo 987734" transform="translate(22.831 28.839)">
          <path id="Trazado_663761" data-name="Trazado 663761" d="M21,26h4.806v4.806H21Z" transform="translate(-21 -26)" fill="#ff826e"/>
        </g>
        <g id="Grupo_987735" data-name="Grupo 987735" transform="translate(10.815 28.839)">
          <path id="Trazado_663762" data-name="Trazado 663762" d="M11,26h4.806v4.806H11Z" transform="translate(-11 -26)" fill="#ff826e"/>
        </g>
        <g id="Grupo_987736" data-name="Grupo 987736" transform="translate(22.831 21.629)">
          <path id="Trazado_663763" data-name="Trazado 663763" d="M25.806,21.79V27.21H21V20l.072.012A10.783,10.783,0,0,1,25.806,21.79Z" transform="translate(-21 -20)" fill="#fcd770"/>
        </g>
        <g id="Grupo_987737" data-name="Grupo 987737" transform="translate(10.815 21.629)">
          <path id="Trazado_663764" data-name="Trazado 663764" d="M15.806,20v7.21H11V21.79a10.783,10.783,0,0,1,4.734-1.778Z" transform="translate(-11 -20)" fill="#fcd770"/>
        </g>
        <g id="Grupo_987738" data-name="Grupo 987738" transform="translate(23.876 10.815)">
          <path id="Trazado_663765" data-name="Trazado 663765" d="M25.631,13.4a2.41,2.41,0,0,1-2.4,2.4H21.87a4.394,4.394,0,0,0,.156-1.2V11h1.2a2.362,2.362,0,0,1,1.574.589,1.133,1.133,0,0,0,.12.12A2.349,2.349,0,0,1,25.631,13.4Z" transform="translate(-21.87 -11)" fill="#f0d0b4"/>
        </g>
        <g id="Grupo_987739" data-name="Grupo 987739" transform="translate(10.815 10.815)">
          <path id="Trazado_663766" data-name="Trazado 663766" d="M14.6,11v3.6a4.394,4.394,0,0,0,.156,1.2H13.4A2.421,2.421,0,0,1,11,13.4a2.419,2.419,0,0,1,.829-1.814A2.362,2.362,0,0,1,13.4,11Z" transform="translate(-11 -11)" fill="#f0d0b4"/>
        </g>
        <g id="Grupo_987740" data-name="Grupo 987740" transform="translate(14.419 7.186)">
          <path id="Trazado_663767" data-name="Trazado 663767" d="M23.613,11.609v3.6a4.394,4.394,0,0,1-.156,1.2,4.793,4.793,0,0,1-7.21,2.86,4.432,4.432,0,0,1-.841-.661,4.9,4.9,0,0,1-1.25-2.2,4.394,4.394,0,0,1-.156-1.2V11.429a3.6,3.6,0,0,1,1.995-3.22L16.4,8h2.4l.12-.024c.252,1.418,1.045,3.629,3.485,3.629Z" transform="translate(-14 -7.98)" fill="#f0d0b4"/>
        </g>
      </g>
      <g id="Grupo_987742" data-name="Grupo 987742" transform="translate(1 1)">
        <path id="Trazado_663768" data-name="Trazado 663768" d="M68.29,61.081H48.843a3.564,3.564,0,0,0,.221-1.2V50.266a3.609,3.609,0,0,0-3.6-3.6H35.847a3.564,3.564,0,0,0-1.2.221V44.258h7.21V34.645H35.847a12.121,12.121,0,0,0-9.906-11.889L25.389,21.1a6,6,0,0,0,1.537-2.078h.509a3.6,3.6,0,0,0,2.972-5.639A9.058,9.058,0,0,0,21.956,1H20.9a9.059,9.059,0,0,0-8.451,12.386,3.571,3.571,0,0,0-.633,2.033,3.609,3.609,0,0,0,3.6,3.6h.509A6.009,6.009,0,0,0,17.466,21.1l-.55,1.651A12.112,12.112,0,0,0,7.008,34.645H1v9.613H8.21V61.081a7.21,7.21,0,0,0,0,14.419H68.29a7.21,7.21,0,0,0,0-14.419ZM62.282,71.9a3.6,3.6,0,1,1,3.6-3.6A3.609,3.609,0,0,1,62.282,71.9Zm-6.008-3.6a5.987,5.987,0,0,0,2.44,4.806H51.43a5.953,5.953,0,0,0,0-9.613h7.284A5.987,5.987,0,0,0,56.274,68.29ZM15.419,59.879V50.266a1.2,1.2,0,0,1,1.2-1.2h1.2v4.806h7.21V49.065h1.2a1.2,1.2,0,0,1,1.2,1.2v9.613a1.2,1.2,0,0,1-1.2,1.2H16.621A1.2,1.2,0,0,1,15.419,59.879Zm4.806-10.815h2.4v2.4h-2.4ZM34.645,68.29a3.6,3.6,0,1,1-3.6-3.6A3.609,3.609,0,0,1,34.645,68.29Zm-20.427-3.6a3.6,3.6,0,1,1-3.6,3.6A3.609,3.609,0,0,1,14.218,64.685Zm6.008,3.6a5.987,5.987,0,0,0-2.44-4.806h9.687a5.953,5.953,0,0,0,0,9.613H17.785A5.987,5.987,0,0,0,20.226,68.29Zm16.823,0a5.987,5.987,0,0,0-2.44-4.806H44.3a5.953,5.953,0,0,0,0,9.613H34.608A5.987,5.987,0,0,0,37.048,68.29Zm14.419,0a3.6,3.6,0,1,1-3.6-3.6A3.609,3.609,0,0,1,51.468,68.29ZM39.452,49.065h2.4v2.4h-2.4Zm-3.6,0h1.2v4.806h7.21V49.065h1.2a1.2,1.2,0,0,1,1.2,1.2v9.613a1.2,1.2,0,0,1-1.2,1.2H35.847a1.2,1.2,0,0,1-1.2-1.2V50.266A1.2,1.2,0,0,1,35.847,49.065Zm-2.4-14.419h-2.4V28.268A9.665,9.665,0,0,1,33.444,34.645Zm-4.806-4.806h-2.4V25.289a9.641,9.641,0,0,1,2.4,1Zm-2.4,2.4h2.4v2.4h-2.4Zm1.2-15.621v-2.4a1.2,1.2,0,0,1,0,2.4Zm-13.218-1.2a1.2,1.2,0,0,1,1.2-1.2v2.4A1.2,1.2,0,0,1,14.218,15.419Zm1.322-3.6h-.12a3.562,3.562,0,0,0-.924.135A6.645,6.645,0,0,1,20.9,3.4h1.059a6.646,6.646,0,0,1,6.4,8.547,3.512,3.512,0,0,0-.924-.136h-2.4c-2.354,0-2.4-3.462-2.4-3.608l-1.2,0h-1.2c0,2.078,1,6.008,4.806,6.008v2.4a3.6,3.6,0,0,1-7.21,0v-3.78a2.391,2.391,0,0,1,1.328-2.15l.411-.205-1.075-2.15-.411.205a4.773,4.773,0,0,0-2.535,3.273Zm5.888,10.815a5.942,5.942,0,0,0,1.832-.316l.571,1.711V34.645H19.024V24.027l.571-1.714A5.942,5.942,0,0,0,21.427,22.629Zm-4.806,7.21h-2.4V26.3a9.8,9.8,0,0,1,2.4-1.006Zm-2.4,2.4h2.4v2.4h-2.4Zm-2.4-3.963v6.366h-2.4A9.631,9.631,0,0,1,11.815,28.279ZM3.4,41.855V37.048H39.452v4.806H34.645v-2.4H8.21v2.4Zm7.21,0H32.242V59.879a3.564,3.564,0,0,0,.221,1.2H29.616a3.536,3.536,0,0,0,.222-1.2V50.266a3.609,3.609,0,0,0-3.6-3.6H16.621a3.609,3.609,0,0,0-3.6,3.6v9.613a3.564,3.564,0,0,0,.221,1.2H10.613ZM3.4,68.29A4.811,4.811,0,0,1,8.21,63.484h2.44a5.953,5.953,0,0,0,0,9.613H8.21A4.811,4.811,0,0,1,3.4,68.29ZM68.29,73.1H65.85a5.953,5.953,0,0,0,0-9.613h2.44a4.806,4.806,0,0,1,0,9.613Z" transform="translate(-1 -1)"/>
        <circle id="Elipse_7803" data-name="Elipse 7803" cx="1.17" cy="1.17" r="1.17" transform="translate(12.03 66.165)"/>
        <circle id="Elipse_7804" data-name="Elipse 7804" cx="1.17" cy="1.17" r="1.17" transform="translate(28.905 66.165)"/>
        <ellipse id="Elipse_7805" data-name="Elipse 7805" cx="1.253" cy="1.17" rx="1.253" ry="1.17" transform="translate(45.614 66.165)"/>
        <circle id="Elipse_7806" data-name="Elipse 7806" cx="1.17" cy="1.17" r="1.17" transform="translate(60.15 66.165)"/>
        <path id="Trazado_663769" data-name="Trazado 663769" d="M48.6,35A3.609,3.609,0,0,0,45,38.6v9.613a3.609,3.609,0,0,0,3.6,3.6h9.613a3.609,3.609,0,0,0,3.6-3.6V38.6a3.609,3.609,0,0,0-3.6-3.6Zm3.6,2.4h2.4v2.4h-2.4Zm7.21,1.2v9.613a1.2,1.2,0,0,1-1.2,1.2H48.6a1.2,1.2,0,0,1-1.2-1.2V38.6a1.2,1.2,0,0,1,1.2-1.2h1.2V42.21h7.21V37.4h1.2A1.2,1.2,0,0,1,59.419,38.6Z" transform="translate(7.871 5.855)"/>
        <path id="Trazado_663770" data-name="Trazado 663770" d="M55.637,21.59a4.58,4.58,0,0,0-3.546,5.225,7.211,7.211,0,0,0-2.462,5.419v4.1l2.755,2.755,1.7-1.7-2.051-2.051V32.234a4.8,4.8,0,0,1,1.074-3.016,4.746,4.746,0,0,0,7.464,0,4.807,4.807,0,0,1,1.074,3.016v3.107l-2.051,2.051,1.7,1.7,2.755-2.755v-4.1a7.224,7.224,0,0,0-2.462-5.42,4.724,4.724,0,0,0,.059-.588,4.8,4.8,0,0,0-3.6-4.636V7H28V9.4H55.637Zm3.6,4.636a2.4,2.4,0,1,1-2.4-2.4A2.406,2.406,0,0,1,59.242,26.226Z" transform="translate(4.444 0.21)"/>
      </g>
    </g>
  </g>
</svg>
