<svg xmlns="http://www.w3.org/2000/svg" width="105" height="104.465" viewBox="0 0 105 104.465">
  <g id="Grupo_1009743" data-name="Grupo 1009743" transform="translate(-810 -8402.885)">
    <path id="Trazado_663295" data-name="Trazado 663295" d="M0,0H105V104.465H0Z" transform="translate(810 8402.885)" fill="#f0bd51"/>
    <g id="camion_1_" data-name="camion(1)" transform="translate(824.787 8419.618)">
      <path id="Trazado_663312" data-name="Trazado 663312" d="M118.57,53h40.491V93.491H118.57Zm0,0" transform="translate(-101.103 -45.192)" fill="#787680"/>
      <g id="Grupo_987615" data-name="Grupo 987615" transform="translate(25.903 15.841)">
        <path id="Trazado_663313" data-name="Trazado 663313" d="M175.832,217.691h16.229V233.92H175.832Zm0,0" transform="translate(-175.832 -201.463)" fill="#57565c"/>
        <path id="Trazado_663314" data-name="Trazado 663314" d="M286,217.691h16.229V233.92H286Zm0,0" transform="translate(-269.771 -201.463)" fill="#57565c"/>
        <path id="Trazado_663315" data-name="Trazado 663315" d="M230.918,107.531h16.229V123.76H230.918Zm0,0" transform="translate(-222.803 -107.531)" fill="#57565c"/>
      </g>
      <path id="Trazado_663316" data-name="Trazado 663316" d="M7.5,53H23.862V93.491H7.5Zm0,0" transform="translate(-6.395 -45.192)" fill="#c6c5ca"/>
      <path id="Trazado_663317" data-name="Trazado 663317" d="M393.43,53h16.362V93.491H393.43Zm0,0" transform="translate(-335.472 -45.192)" fill="#c6c5ca"/>
      <path id="Trazado_663318" data-name="Trazado 663318" d="M197.094,373.359h17.354v7.092H197.094Zm0,0" transform="translate(-168.059 -318.358)" fill="#787680"/>
      <path id="Trazado_663319" data-name="Trazado 663319" d="M97.918,373.359h5.365v5.84H97.918Zm0,0" transform="translate(-83.493 -318.358)" fill="#ff7956"/>
      <path id="Trazado_663320" data-name="Trazado 663320" d="M61.5,373.359h5.365v5.84H61.5Zm0,0" transform="translate(-52.44 -318.358)" fill="#ffe477"/>
      <path id="Trazado_663321" data-name="Trazado 663321" d="M414.082,373.359h5.365v5.84h-5.365Zm0,0" transform="translate(-353.081 -318.358)" fill="#ffe477"/>
      <path id="Trazado_663322" data-name="Trazado 663322" d="M377.668,373.359h5.365v5.84h-5.365Zm0,0" transform="translate(-322.032 -318.358)" fill="#ff7956"/>
      <path id="Trazado_663323" data-name="Trazado 663323" d="M170.179,373.359v5.84h-9.247v-5.84Zm-26.6,0h-9.246v5.84h9.246Zm0,0" transform="translate(-114.543 -318.358)" fill="#c6c5ca"/>
      <path id="Trazado_663324" data-name="Trazado 663324" d="M91,413h9.428v10.8H91Zm0,0" transform="translate(-77.594 -352.159)" fill="#787680"/>
      <path id="Trazado_663325" data-name="Trazado 663325" d="M366.42,423.8h-9.428V413h9.428Zm0,0" transform="translate(-304.402 -352.159)" fill="#787680"/>
      <path id="Trazado_663326" data-name="Trazado 663326" d="M145.832,217.691h16.229V233.92H145.832Zm0,0" transform="translate(-124.349 -185.622)" fill="#ffb655"/>
      <path id="Trazado_663327" data-name="Trazado 663327" d="M181.477,217.691H187.2v4.439h-5.727Zm0,0" transform="translate(-154.743 -185.622)" fill="#ffdaaa"/>
      <path id="Trazado_663328" data-name="Trazado 663328" d="M256,217.691h16.229V233.92H256Zm0,0" transform="translate(-218.287 -185.622)" fill="#ffb655"/>
      <path id="Trazado_663329" data-name="Trazado 663329" d="M291.645,217.691h5.727v4.439h-5.727Zm0,0" transform="translate(-248.681 -185.622)" fill="#ffdaaa"/>
      <path id="Trazado_663330" data-name="Trazado 663330" d="M200.918,107.531h16.229V123.76H200.918Zm0,0" transform="translate(-171.32 -91.69)" fill="#ffb655"/>
      <path id="Trazado_663331" data-name="Trazado 663331" d="M201.477,217.691H207.2v4.439h-5.727Zm0,0" transform="translate(-171.796 -185.622)" fill="#ff7956"/>
      <path id="Trazado_663332" data-name="Trazado 663332" d="M311.645,217.691h5.727v4.439h-5.727Zm0,0" transform="translate(-265.735 -185.622)" fill="#ff7956"/>
      <path id="Trazado_663333" data-name="Trazado 663333" d="M256.559,107.531h5.728v4.439h-5.728Zm0,0" transform="translate(-218.764 -91.69)" fill="#ff7956"/>
      <path id="Trazado_663334" data-name="Trazado 663334" d="M236.559,107.531h5.728v4.439h-5.728Zm0,0" transform="translate(-201.71 -91.69)" fill="#ffdaaa"/>
      <path id="Trazado_663335" data-name="Trazado 663335" d="M73.07,7.5h53.9v6.7H73.07Zm0,0" transform="translate(-62.306 -6.395)" fill="#ff7956"/>
      <path id="Trazado_663336" data-name="Trazado 663336" d="M73.07,327.859h53.9v6.7H73.07Zm0,0" transform="translate(-62.306 -279.561)" fill="#ff7956"/>
      <path id="Trazado_663337" data-name="Trazado 663337" d="M118.57,53h4.419V93.491H118.57Zm0,0" transform="translate(-101.103 -45.192)" fill="#57565c"/>
      <path id="Trazado_663338" data-name="Trazado 663338" d="M7.5,53h4.419V93.491H7.5Zm0,0" transform="translate(-6.395 -45.192)" fill="#898890"/>
      <path id="Trazado_663339" data-name="Trazado 663339" d="M393.43,53h4.419V93.491H393.43Zm0,0" transform="translate(-335.472 -45.192)" fill="#898890"/>
      <path id="Trazado_663340" data-name="Trazado 663340" d="M197.094,373.359h2.946v7.092h-2.946Zm0,0" transform="translate(-168.059 -318.358)" fill="#57565c"/>
      <path id="Trazado_663341" data-name="Trazado 663341" d="M97.918,373.359h2.946v5.84H97.918Zm0,0" transform="translate(-83.493 -318.358)" fill="#ff3f62"/>
      <path id="Trazado_663342" data-name="Trazado 663342" d="M61.5,373.359h2.946v5.84H61.5Zm0,0" transform="translate(-52.44 -318.358)" fill="#ffb655"/>
      <path id="Trazado_663343" data-name="Trazado 663343" d="M414.082,373.359h2.946v5.84h-2.946Zm0,0" transform="translate(-353.081 -318.358)" fill="#ffb655"/>
      <path id="Trazado_663344" data-name="Trazado 663344" d="M377.668,373.359h2.946v5.84h-2.946Zm0,0" transform="translate(-322.032 -318.358)" fill="#ff3f62"/>
      <path id="Trazado_663345" data-name="Trazado 663345" d="M134.332,373.359h2.946v5.84h-2.946Zm0,0" transform="translate(-114.543 -318.358)" fill="#898890"/>
      <path id="Trazado_663346" data-name="Trazado 663346" d="M314.9,373.359h2.946v5.84H314.9Zm0,0" transform="translate(-268.509 -318.358)" fill="#898890"/>
      <path id="Trazado_663347" data-name="Trazado 663347" d="M91,413h4.419v10.8H91Zm0,0" transform="translate(-77.594 -352.159)" fill="#57565c"/>
      <path id="Trazado_663348" data-name="Trazado 663348" d="M356.992,413h4.419v10.8h-4.419Zm0,0" transform="translate(-304.402 -352.159)" fill="#57565c"/>
      <path id="Trazado_663349" data-name="Trazado 663349" d="M145.832,217.691h4.419V233.92h-4.419Zm0,0" transform="translate(-124.349 -185.622)" fill="#ff7956"/>
      <path id="Trazado_663350" data-name="Trazado 663350" d="M181.477,217.691h2.946v4.44h-2.946Zm0,0" transform="translate(-154.743 -185.622)" fill="#ff9478"/>
      <path id="Trazado_663351" data-name="Trazado 663351" d="M256,217.691h4.419V233.92H256Zm0,0" transform="translate(-218.287 -185.622)" fill="#ff7956"/>
      <path id="Trazado_663352" data-name="Trazado 663352" d="M291.645,217.691h2.946v4.44h-2.946Zm0,0" transform="translate(-248.681 -185.622)" fill="#ff9478"/>
      <path id="Trazado_663353" data-name="Trazado 663353" d="M200.918,107.531h4.419V123.76h-4.419Zm0,0" transform="translate(-171.32 -91.69)" fill="#ff7956"/>
      <path id="Trazado_663354" data-name="Trazado 663354" d="M236.559,107.531h2.946v4.44h-2.946Zm0,0" transform="translate(-201.71 -91.69)" fill="#ff9478"/>
      <path id="Trazado_663355" data-name="Trazado 663355" d="M73.07,7.5H77.49v6.7H73.07Zm0,0" transform="translate(-62.306 -6.395)" fill="#ff3f62"/>
      <path id="Trazado_663356" data-name="Trazado 663356" d="M73.07,327.859H77.49v6.7H73.07Zm0,0" transform="translate(-62.306 -279.561)" fill="#ff3f62"/>
      <path id="Trazado_663357" data-name="Trazado 663357" d="M75.425,49.4V6.7H65.766V0H9.66V6.7H0V49.4H9.66V53.9h-1.7v8.049H27.93V63.2H47.494V61.946H67.47V53.9h-1.7V49.4ZM73.216,8.913V47.193H59.063V8.913Zm-54.643,0H56.853V47.193H18.572Zm-6.7-6.7H63.556V6.7H11.869ZM2.21,47.193V8.913H16.363V47.193ZM13.32,59.736H10.165v-3.63H13.32Zm5.364,0H15.529v-3.63h3.155Zm2.21,0v-3.63H27.93v3.63Zm9.246-3.63H45.285v4.882H30.14Zm24.391,3.63H47.494v-3.63h7.037Zm5.364,0H56.741v-3.63H59.9Zm5.365,0H62.105v-3.63h3.155Zm-1.7-5.84H11.869V52.755H23.227v-2.21H11.869V49.4H63.556Zm0,0"/>
      <path id="Trazado_663358" data-name="Trazado 663358" d="M92.928,437.338H85.71v-1.424h5.377V433.7H85.71v-1.326h5.377v-2.21H83.5v9.379H95.138v-8.962h-2.21Zm0,0" transform="translate(-71.199 -366.798)"/>
      <path id="Trazado_663359" data-name="Trazado 663359" d="M358.92,437.338H351.7v-1.424h5.378V433.7H351.7v-1.326h5.378v-2.21h-7.588v9.379H361.13v-8.962h-2.21Zm0,0" transform="translate(-298.007 -366.798)"/>
      <path id="Trazado_663360" data-name="Trazado 663360" d="M163.273,296.191h4.854v2.21h-4.854Zm0,0" transform="translate(-139.22 -252.558)"/>
      <path id="Trazado_663361" data-name="Trazado 663361" d="M164.889,116.259V100.031H146.45v16.228h-8.114v14.388h2.21V118.469h3.041v4.44h7.937V118.47h3.041v12.177h2.21V118.47h3.041v4.438h7.937v-4.44h3.041v12.178H173V116.259Zm-7.46-14.018v2.229H153.91v-2.229Zm-8.769,0H151.7v4.439h7.938v-4.439h3.041v14.018H148.66Zm.654,18.458H145.8v-2.23h3.518Zm16.229,0h-3.518V118.47h3.518Zm0,0" transform="translate(-117.957 -85.295)"/>
      <path id="Trazado_663362" data-name="Trazado 663362" d="M273.441,296.191h4.853v2.21h-4.853Zm0,0" transform="translate(-233.159 -252.558)"/>
      <path id="Trazado_663363" data-name="Trazado 663363" d="M218.359,186.031h4.853v2.21h-4.853Zm0,0" transform="translate(-186.191 -158.626)"/>
      <path id="Trazado_663364" data-name="Trazado 663364" d="M474.21,101.362H472v-16h2.21Zm0-17.469H472v-2.21h2.21Zm0-3.683H472V78h2.21Zm0,0" transform="translate(-402.467 -66.509)" fill="#fff"/>
      <path id="Trazado_663365" data-name="Trazado 663365" d="M88.28,101.362H86.07v-16h2.21Zm0-17.469H86.07v-2.21h2.21Zm0-3.683H86.07V78h2.21Zm0,0" transform="translate(-73.39 -66.509)" fill="#fff"/>
      <path id="Trazado_663366" data-name="Trazado 663366" d="M294.636,24.167h-13.27v-2.21h13.27Zm-14.743,0h-2.21v-2.21h2.21Zm-3.683,0H274v-2.21h2.21Zm0,0" transform="translate(-233.636 -18.722)" fill="#fff"/>
    </g>
  </g>
</svg>
