<svg xmlns="http://www.w3.org/2000/svg" width="105" height="104.465" viewBox="0 0 105 104.465">
  <g id="Grupo_1009744" data-name="Grupo 1009744" transform="translate(-180 -8575.102)">
    <path id="Trazado_663296" data-name="Trazado 663296" d="M0,0H105V104.465H0Z" transform="translate(180 8575.102)" fill="#f0bd51"/>
    <g id="_x33_3_money_waste" transform="translate(164.749 8590.055)">
      <g id="Grupo_987619" data-name="Grupo 987619" transform="translate(36.311 0.029)">
        <g id="Grupo_987617" data-name="Grupo 987617" transform="translate(1.164 1.164)">
          <path id="Trazado_663394" data-name="Trazado 663394" d="M202.382,104.964a11.006,11.006,0,1,1-11.012-11A11,11,0,0,1,202.382,104.964Z" transform="translate(-160.57 -81.458)" fill="#ffcd7e"/>
          <path id="Trazado_663395" data-name="Trazado 663395" d="M61.931,16.833a8.809,8.809,0,1,1-8.814-8.8A8.808,8.808,0,0,1,61.931,16.833Z" transform="translate(-44.312 -8.028)" fill="#ffcd7e"/>
          <path id="Trazado_663396" data-name="Trazado 663396" d="M364.24,16.833a8.809,8.809,0,1,1-8.814-8.8A8.808,8.808,0,0,1,364.24,16.833Z" transform="translate(-302.628 -8.028)" fill="#ffcd7e"/>
        </g>
        <path id="Trazado_663397" data-name="Trazado 663397" d="M161.133,197l-5.255,41.173a4.006,4.006,0,0,1-3.974,3.5H131.415a4.006,4.006,0,0,1-3.974-3.5L122.186,197Z" transform="translate(-109.689 -168.338)" fill="#fff"/>
        <g id="Grupo_987618" data-name="Grupo 987618" transform="translate(0)">
          <path id="Trazado_663398" data-name="Trazado 663398" d="M56.258,10a9.974,9.974,0,1,0-9.978,9.968A9.985,9.985,0,0,0,56.258,10ZM38.639,10a7.645,7.645,0,1,1,7.641,7.64A7.65,7.65,0,0,1,38.639,10Z" transform="translate(-36.311 -0.029)"/>
          <path id="Trazado_663399" data-name="Trazado 663399" d="M88.1,38.819v-.247a2.9,2.9,0,0,0-1.019-5.612h-.3a.576.576,0,0,1,0-1.151H88.82a1.164,1.164,0,1,0,0-2.328H88.1v-.053a1.164,1.164,0,0,0-2.328,0v.246a2.9,2.9,0,0,0,1.013,5.615h.3a.575.575,0,1,1,0,1.151H85.045a1.164,1.164,0,0,0,0,2.328h.726v.053a1.164,1.164,0,0,0,2.328,0Z" transform="translate(-76.958 -24.154)"/>
          <path id="Trazado_663400" data-name="Trazado 663400" d="M348.594.029A9.969,9.969,0,1,0,358.572,10,9.98,9.98,0,0,0,348.594.029Zm0,17.609A7.641,7.641,0,1,1,356.244,10,7.649,7.649,0,0,1,348.594,17.638Z" transform="translate(-294.632 -0.029)"/>
          <path id="Trazado_663401" data-name="Trazado 663401" d="M389.093,31.809h2.035a1.164,1.164,0,1,0,0-2.328h-.721v-.053a1.164,1.164,0,1,0-2.328,0v.246a2.9,2.9,0,0,0,1.014,5.614h.3a.575.575,0,0,1,0,1.151h-2.035a1.164,1.164,0,1,0,0,2.328h.725v.053a1.164,1.164,0,0,0,2.328,0v-.247a2.9,2.9,0,0,0-1.019-5.613h-.3a.575.575,0,0,1,0-1.151Z" transform="translate(-335.274 -24.155)"/>
          <path id="Trazado_663402" data-name="Trazado 663402" d="M145.8,100.96h-9.4a11.94,11.94,0,0,0,.346-2.83,12.17,12.17,0,0,0-24.341,0,11.947,11.947,0,0,0,.346,2.83h-9.394a1.164,1.164,0,1,0,0,2.328h.72l5.126,40.156a5.181,5.181,0,0,0,5.129,4.515h20.489a5.18,5.18,0,0,0,5.128-4.515l5.126-40.156h.721a1.164,1.164,0,0,0,0-2.328Zm-31.062-2.83a9.842,9.842,0,0,1,19.685,0,9.742,9.742,0,0,1-.425,2.83h-5.972a3.173,3.173,0,0,0,.076-.657,3.341,3.341,0,0,0-3.337-3.337h-.369a1.009,1.009,0,0,1,0-2.018h2.542a1.164,1.164,0,1,0,0-2.328h-1.19v-.356a1.164,1.164,0,0,0-2.328,0v.519a3.328,3.328,0,0,0,.976,6.512h.369a1.01,1.01,0,0,1,1.009,1.009.994.994,0,0,1-.258.657H115.161A9.758,9.758,0,0,1,114.737,98.13Zm22.905,45.02a2.846,2.846,0,0,1-2.818,2.482H114.335a2.847,2.847,0,0,1-2.819-2.482l-5.088-39.862h36.3Z" transform="translate(-92.609 -73.459)"/>
          <path id="Trazado_663403" data-name="Trazado 663403" d="M303.831,283.5l.083,0a1.163,1.163,0,0,0,1.16-1.083l1.98-28.288a1.163,1.163,0,1,0-2.321-.163l-1.98,28.288A1.163,1.163,0,0,0,303.831,283.5Z" transform="translate(-263.976 -216.088)"/>
          <path id="Trazado_663404" data-name="Trazado 663404" d="M249.167,283.495a1.164,1.164,0,0,0,1.164-1.164V254.043a1.164,1.164,0,1,0-2.328,0v28.288A1.164,1.164,0,0,0,249.167,283.495Z" transform="translate(-217.197 -216.083)"/>
          <path id="Trazado_663405" data-name="Trazado 663405" d="M182.8,283.5l.082,0a1.164,1.164,0,0,0,1.08-1.242l-1.98-28.288a1.164,1.164,0,1,0-2.322.163l1.98,28.288a1.164,1.164,0,0,0,1.16,1.083Z" transform="translate(-158.795 -216.087)"/>
        </g>
      </g>
    </g>
  </g>
</svg>
