<svg xmlns="http://www.w3.org/2000/svg" width="105" height="104.465" viewBox="0 0 105 104.465">
  <g id="Grupo_1009740" data-name="Grupo 1009740" transform="translate(-180 -8230.668)">
    <path id="Trazado_663291" data-name="Trazado 663291" d="M0,0H105V104.465H0Z" transform="translate(180 8230.668)" fill="#f0bd51"/>
    <g id="_19-Inventory" data-name="19-Inventory" transform="translate(191.527 8245.888)">
      <path id="Trazado_663655" data-name="Trazado 663655" d="M51.486,44V64.486H31V44h6.4v8.963h7.682V44Z" transform="translate(8.692 8.496)" fill="#8d5c4d"/>
      <path id="Trazado_663656" data-name="Trazado 663656" d="M67.486,44V64.486H47V44h6.4v8.963h7.682V44Z" transform="translate(13.178 8.496)" fill="#a37862"/>
      <path id="Trazado_663657" data-name="Trazado 663657" d="M59.486,28V48.486H39V28h6.4v8.963h7.682V28h6.4Z" transform="translate(10.935 4.01)" fill="#966857"/>
      <g id="Grupo_987665" data-name="Grupo 987665" transform="translate(46.094 32.01)">
        <path id="Trazado_663658" data-name="Trazado 663658" d="M43.682,44v8.963H36V44h7.682Z" transform="translate(-36 -23.514)" fill="#f2bb88"/>
        <path id="Trazado_663659" data-name="Trazado 663659" d="M59.682,44v8.963H52V44h7.682Z" transform="translate(-31.514 -23.514)" fill="#f2bb88"/>
        <path id="Trazado_663660" data-name="Trazado 663660" d="M44,28h7.682v8.963H44Z" transform="translate(-33.757 -28)" fill="#f2bb88"/>
      </g>
      <path id="Trazado_663661" data-name="Trazado 663661" d="M10.122,32v5.122H5Z" transform="translate(1.402 5.131)" fill="#d6995c"/>
      <path id="Trazado_663662" data-name="Trazado 663662" d="M24.047,28v5.122h-12.8L6.122,38.243V58.729H1V28Z" transform="translate(0.28 4.01)" fill="#f2bb88"/>
      <path id="Trazado_663663" data-name="Trazado 663663" d="M24.206,48.645a7.682,7.682,0,1,0-7.682,7.682A7.682,7.682,0,0,0,24.206,48.645Zm3.841-6.4V62.729H5V37.122h5.122V32H28.047Z" transform="translate(1.402 5.131)" fill="#ffe4c2"/>
      <path id="Trazado_663664" data-name="Trazado 663664" d="M14,16H60.094v5.122H14Z" transform="translate(3.925 0.645)" fill="#7ea8c2"/>
      <path id="Trazado_663665" data-name="Trazado 663665" d="M14,20H60.094v5.122H14Z" transform="translate(3.925 1.767)" fill="#a0cbe0"/>
      <path id="Trazado_663666" data-name="Trazado 663666" d="M14,12H60.094v5.122H14Z" transform="translate(3.925 -0.476)" fill="#7197ad"/>
      <path id="Trazado_663667" data-name="Trazado 663667" d="M69.459,4V9.122H8V4Z" transform="translate(2.243 -2.72)" fill="#7197ad"/>
      <path id="Trazado_663668" data-name="Trazado 663668" d="M66.337,8V33.608H61.216V13.122H15.122V33.608H10V8Z" transform="translate(2.804 -1.598)" fill="#acaeaf"/>
      <path id="Trazado_663669" data-name="Trazado 663669" d="M60.094,24v5.122H46.01V44.486H25.524V34.243H20.4V29.122H14V24Z" transform="translate(3.925 2.888)" fill="#263540"/>
      <ellipse id="Elipse_7790" data-name="Elipse 7790" cx="7.596" cy="7.711" rx="7.596" ry="7.711" transform="translate(10.321 46.036)" fill="#95e8c8"/>
      <path id="Trazado_663670" data-name="Trazado 663670" d="M10.571,46.682a7.682,7.682,0,0,1,6.4-7.567,7.682,7.682,0,1,0,0,15.134A7.682,7.682,0,0,1,10.571,46.682Z" transform="translate(2.233 7.094)" fill="#82d9b6"/>
      <path id="Trazado_663671" data-name="Trazado 663671" d="M39,32V47.365H59.486V44.8A22.056,22.056,0,0,1,39,32Z" transform="translate(10.935 5.131)" fill="#8d5c4d"/>
      <path id="Trazado_663672" data-name="Trazado 663672" d="M47,48V63.365H67.486V60.8A22.056,22.056,0,0,1,47,48Z" transform="translate(13.178 9.618)" fill="#966857"/>
      <path id="Trazado_663673" data-name="Trazado 663673" d="M31,48V63.365H51.486V60.8A22.056,22.056,0,0,1,31,48Z" transform="translate(8.692 9.618)" fill="#805142"/>
      <path id="Trazado_663674" data-name="Trazado 663674" d="M21.613,16H14v5.122H32.456A77.365,77.365,0,0,1,21.613,16Z" transform="translate(3.925 0.645)" fill="#769eb2"/>
      <path id="Trazado_663675" data-name="Trazado 663675" d="M14,20v5.122H60.094A77.365,77.365,0,0,1,32.456,20Z" transform="translate(3.925 1.767)" fill="#99c1d1"/>
      <path id="Trazado_663676" data-name="Trazado 663676" d="M14,12v5.122h7.613A54.307,54.307,0,0,1,14,12Z" transform="translate(3.925 -0.476)" fill="#688a9b"/>
      <path id="Trazado_663677" data-name="Trazado 663677" d="M67.767,66.047H47.28A1.28,1.28,0,0,1,46,64.767V44.28A1.28,1.28,0,0,1,47.28,43H67.767a1.28,1.28,0,0,1,1.28,1.28V64.767A1.28,1.28,0,0,1,67.767,66.047ZM48.561,63.486H66.486V45.561H48.561Z" transform="translate(12.898 8.216)"/>
      <path id="Trazado_663678" data-name="Trazado 663678" d="M51.767,66.047H31.28A1.28,1.28,0,0,1,30,64.767V44.28A1.28,1.28,0,0,1,31.28,43H51.767a1.28,1.28,0,0,1,1.28,1.28V64.767A1.28,1.28,0,0,1,51.767,66.047ZM32.561,63.486H50.486V45.561H32.561Z" transform="translate(8.412 8.216)"/>
      <path id="Trazado_663679" data-name="Trazado 663679" d="M59.767,50.047H39.28A1.28,1.28,0,0,1,38,48.767V28.28A1.28,1.28,0,0,1,39.28,27H59.767a1.28,1.28,0,0,1,1.28,1.28V48.767A1.28,1.28,0,0,1,59.767,50.047ZM40.561,47.486H58.486V29.561H40.561Z" transform="translate(10.655 3.729)"/>
      <path id="Trazado_663680" data-name="Trazado 663680" d="M51.963,38.243H44.28A1.28,1.28,0,0,1,43,36.963V28h2.561v7.682h5.122V28h2.561v8.963A1.28,1.28,0,0,1,51.963,38.243Z" transform="translate(12.057 4.01)"/>
      <path id="Trazado_663681" data-name="Trazado 663681" d="M59.963,54.243H52.28A1.28,1.28,0,0,1,51,52.963V44h2.561v7.682h5.122V44h2.561v8.963A1.28,1.28,0,0,1,59.963,54.243Z" transform="translate(14.3 8.496)"/>
      <path id="Trazado_663682" data-name="Trazado 663682" d="M43.963,54.243H36.28A1.28,1.28,0,0,1,35,52.963V44h2.561v7.682h5.122V44h2.561v8.963A1.28,1.28,0,0,1,43.963,54.243Z" transform="translate(9.814 8.496)"/>
      <path id="Trazado_663683" data-name="Trazado 663683" d="M41,40h2.561v2.561H41Z" transform="translate(11.496 7.374)"/>
      <path id="Trazado_663684" data-name="Trazado 663684" d="M44,40H55.524v2.561H44Z" transform="translate(12.337 7.374)"/>
      <path id="Trazado_663685" data-name="Trazado 663685" d="M49,56h2.561v2.561H49Z" transform="translate(13.739 11.861)"/>
      <path id="Trazado_663686" data-name="Trazado 663686" d="M52,56H63.524v2.561H52Z" transform="translate(14.58 11.861)"/>
      <path id="Trazado_663687" data-name="Trazado 663687" d="M33,56h2.561v2.561H33Z" transform="translate(9.253 11.861)"/>
      <path id="Trazado_663688" data-name="Trazado 663688" d="M36,56H47.524v2.561H36Z" transform="translate(10.094 11.861)"/>
      <path id="Trazado_663689" data-name="Trazado 663689" d="M69.739,10.682H8.28A1.28,1.28,0,0,1,7,9.4V4.28A1.28,1.28,0,0,1,8.28,3H69.739a1.28,1.28,0,0,1,1.28,1.28V9.4A1.28,1.28,0,0,1,69.739,10.682ZM9.561,8.122h58.9V5.561H9.561Z" transform="translate(1.963 -3)"/>
      <path id="Trazado_663690" data-name="Trazado 663690" d="M67.9,33.888H65.337V9.561H11.561V33.888H9V8.28A1.28,1.28,0,0,1,10.28,7H66.618A1.28,1.28,0,0,1,67.9,8.28Z" transform="translate(2.524 -1.878)"/>
      <path id="Trazado_663691" data-name="Trazado 663691" d="M61.655,32.767H59.094V13.561H15.561V32.767H13V12.28A1.28,1.28,0,0,1,14.28,11H60.374a1.28,1.28,0,0,1,1.28,1.28Z" transform="translate(3.645 -0.757)"/>
      <path id="Trazado_663692" data-name="Trazado 663692" d="M14,15H60.094v2.561H14Z" transform="translate(3.925 0.365)"/>
      <path id="Trazado_663693" data-name="Trazado 663693" d="M14,19H60.094v2.561H14Z" transform="translate(3.925 1.486)"/>
      <path id="Trazado_663694" data-name="Trazado 663694" d="M14,23H60.094v2.561H14Z" transform="translate(3.925 2.608)"/>
      <path id="Trazado_663695" data-name="Trazado 663695" d="M6.4,60.29H1.28A1.28,1.28,0,0,1,0,59.01V28.28A1.28,1.28,0,0,1,1.28,27H24.327a1.28,1.28,0,0,1,1.28,1.28V33.4H23.047V29.561H2.561V57.729H6.4Z" transform="translate(0 3.729)"/>
      <path id="Trazado_663696" data-name="Trazado 663696" d="M28.327,64.29H5.28A1.28,1.28,0,0,1,4,63.01V37.4a1.28,1.28,0,0,1,.375-.905L9.5,31.375A1.28,1.28,0,0,1,10.4,31H28.327a1.28,1.28,0,0,1,1.28,1.28V63.01A1.28,1.28,0,0,1,28.327,64.29ZM6.561,61.729H27.047V33.561H10.932L6.561,37.932Z" transform="translate(1.122 4.851)"/>
      <path id="Trazado_663697" data-name="Trazado 663697" d="M10.122,38.4H5V35.841H8.841V32H11.4v5.122A1.28,1.28,0,0,1,10.122,38.4Z" transform="translate(1.402 5.131)"/>
      <path id="Trazado_663698" data-name="Trazado 663698" d="M23,39H43.486v2.561H23Z" transform="translate(6.449 7.094)"/>
      <path id="Trazado_663699" data-name="Trazado 663699" d="M15.963,55.925a8.963,8.963,0,1,1,8.963-8.963A8.963,8.963,0,0,1,15.963,55.925Zm0-15.365a6.4,6.4,0,1,0,6.4,6.4,6.4,6.4,0,0,0-6.4-6.4Z" transform="translate(1.963 6.814)"/>
      <path id="Trazado_663700" data-name="Trazado 663700" d="M13.759,49.6a1.28,1.28,0,0,1-.905-.375l-2.561-2.561,1.81-1.81,1.656,1.656,4.216-4.216,1.81,1.81-5.122,5.122A1.28,1.28,0,0,1,13.759,49.6Z" transform="translate(2.886 8.017)"/>
    </g>
  </g>
</svg>
