<svg xmlns="http://www.w3.org/2000/svg" width="400" height="340" viewBox="0 0 400 340">
  <g id="Grupo_987021" data-name="Grupo 987021" transform="translate(-1020 -5850)">
    <g id="Grupo_987020" data-name="Grupo 987020" transform="translate(885.076 1753.41)">
      <g id="Grupo_986997" data-name="Grupo 986997" transform="translate(186.721 4122.041)">
        <path id="Trazado_660252" data-name="Trazado 660252" d="M472.1,4171.848c7.6,21.322,6.887,45.561,1.785,67.247a172.983,172.983,0,0,1-201.183,130.228c-21.386-4.13-42.452-12.65-58.179-27.72-23.569-22.584-33.377-59.854-24.67-91.2a89.574,89.574,0,0,1,25.289-41.388c13.121-12.173,31.652-17.053,47.217-25.5,23-12.479,41.76-31.658,64.492-44.615,22.222-12.668,48.3-19.048,73.716-16.174,23.271,2.632,53.417,14.685,65.563,36.043A82.263,82.263,0,0,1,472.1,4171.848Z" transform="translate(-186.721 -4122.041)" fill="#e3f0e9"/>
        <path id="Trazado_660253" data-name="Trazado 660253" d="M472.1,4171.848c7.6,21.322,6.887,45.561,1.785,67.247a172.983,172.983,0,0,1-201.183,130.228c-21.386-4.13-42.452-12.65-58.179-27.72-23.569-22.584-33.377-59.854-24.67-91.2a89.574,89.574,0,0,1,25.289-41.388c13.121-12.173,31.652-17.053,47.217-25.5,23-12.479,41.76-31.658,64.492-44.615,22.222-12.668,48.3-19.048,73.716-16.174,23.271,2.632,53.417,14.685,65.563,36.043A82.263,82.263,0,0,1,472.1,4171.848Z" transform="translate(-186.721 -4122.041)" fill="#e3f0e9" opacity="0.7"/>
      </g>
      <g id="Grupo_986998" data-name="Grupo 986998" transform="translate(191.803 4337.575)">
        <ellipse id="Elipse_7769" data-name="Elipse 7769" cx="145.662" cy="36.783" rx="145.662" ry="36.783" fill="#bddccc"/>
        <ellipse id="Elipse_7770" data-name="Elipse 7770" cx="145.662" cy="36.783" rx="145.662" ry="36.783" fill="#bddccc" opacity="0.5"/>
      </g>
      <g id="Grupo_987016" data-name="Grupo 987016" transform="translate(196.65 4149.317)">
        <path id="Trazado_660254" data-name="Trazado 660254" d="M505.328,4221.551v92.215l-3.53-.435v-37.781l-.007-51.1a5.724,5.724,0,0,0-2.106-4.439c-5.148-4.192-18.312-14.327-22.938-12.355-4.339,1.853-23.6,65.091-33.04,96.868-3.182,10.717-5.248,17.857-5.248,17.857l-4.573.816s2.072-7.809,5.308-19.449c9.192-33.047,27.8-96.96,35.092-100.27a.024.024,0,0,1,.02-.007,1.416,1.416,0,0,1,.435-.12c2.073-.2,4.74.515,7.628,1.751.823.355,1.671.75,2.527,1.184,1.4.7,2.815,1.484,4.226,2.327.755.448,1.511.909,2.252,1.377,1.378.87,2.721,1.758,4,2.642.495.34.976.682,1.451,1.009,1.351.962,2.607,1.885,3.71,2.714,1.017.763,1.906,1.452,2.635,2.026.388.308.729.576,1.022.809a2.979,2.979,0,0,1,1.124,2.166A1.032,1.032,0,0,1,505.328,4221.551Z" transform="translate(-272.984 -4174.417)" fill="#5ae4a7" stroke="#1a2e35" stroke-miterlimit="10" stroke-width="1"/>
        <g id="Grupo_986999" data-name="Grupo 986999" transform="translate(200.536 23.41)">
          <path id="Trazado_660255" data-name="Trazado 660255" d="M526.755,4198.347l-26.676,4.3-6.893,1.111a2.513,2.513,0,0,1-.294.026,1.62,1.62,0,0,1-1.637-1.237,1.453,1.453,0,0,1,.742-1.524.025.025,0,0,1,.02-.007,1.678,1.678,0,0,1,.582-.208l33.569-5.408a1.652,1.652,0,0,1,1.932,1.21A1.513,1.513,0,0,1,526.755,4198.347Z" transform="translate(-491.229 -4195.375)" fill="#5ae4a7" stroke="#1a2e35" stroke-miterlimit="10" stroke-width="1"/>
        </g>
        <g id="Grupo_987000" data-name="Grupo 987000" transform="translate(211.026 26.143)">
          <path id="Trazado_660256" data-name="Trazado 660256" d="M540.521,4202.376l-29,5-3.229.555a2.039,2.039,0,0,1-.287.02,1.587,1.587,0,0,1-1.571-1.263,1.509,1.509,0,0,1,.862-1.639,1.436,1.436,0,0,1,.435-.147l32.231-5.548a1.583,1.583,0,0,1,1.852,1.236A1.539,1.539,0,0,1,540.521,4202.376Z" transform="translate(-506.407 -4199.329)" fill="#5ae4a7" stroke="#1a2e35" stroke-miterlimit="10" stroke-width="1"/>
        </g>
        <g id="Grupo_987001" data-name="Grupo 987001" transform="translate(217.148 29.499)">
          <path id="Trazado_660257" data-name="Trazado 660257" d="M550.1,4207.486l-29.6,5.409-3.323.608a1.394,1.394,0,0,1-.288.027,1.665,1.665,0,0,1-.388-3.276.7.7,0,0,1,.1-.027l32.919-6.016a1.638,1.638,0,0,1,1.892,1.343A1.659,1.659,0,0,1,550.1,4207.486Z" transform="translate(-515.265 -4204.184)" fill="#5ae4a7" stroke="#1a2e35" stroke-miterlimit="10" stroke-width="1"/>
        </g>
        <g id="Grupo_987002" data-name="Grupo 987002" transform="translate(222.671 33.095)">
          <path id="Trazado_660258" data-name="Trazado 660258" d="M558.936,4212.7l-30.8,5.522-2.915.521a1.471,1.471,0,0,1-.294.027,1.67,1.67,0,0,1-.5-3.262,1.025,1.025,0,0,1,.207-.054l33.716-6.044a1.671,1.671,0,0,1,.588,3.29Z" transform="translate(-523.256 -4209.388)" fill="#5ae4a7" stroke="#1a2e35" stroke-miterlimit="10" stroke-width="1"/>
        </g>
        <g id="Grupo_987003" data-name="Grupo 987003" transform="translate(229.149 37.788)">
          <path id="Trazado_660259" data-name="Trazado 660259" d="M569.057,4219.146a1.508,1.508,0,0,1-.749.348l-32.5,5.83-1.21.215a1.567,1.567,0,0,1-.3.026,1.671,1.671,0,0,1-.634-3.216,1.445,1.445,0,0,1,.341-.1l33.716-6.043a1.665,1.665,0,0,1,.943.107,1.662,1.662,0,0,1,.394,2.834Z" transform="translate(-532.628 -4216.178)" fill="#5ae4a7" stroke="#1a2e35" stroke-miterlimit="10" stroke-width="1"/>
        </g>
        <path id="Trazado_660260" data-name="Trazado 660260" d="M540.185,4213.069l-32.5,5.83a1.04,1.04,0,0,1,.013.2v49.046l-3.53,4.954-.007-51.1a5.723,5.723,0,0,0-2.106-4.439c-5.148-4.192-18.312-14.327-22.938-12.355-4.339,1.853-23.6,65.091-33.04,96.869l-3.924.708-.588-1.484c9.192-33.047,27.8-96.961,35.092-100.271a.025.025,0,0,1,.02-.007,1.678,1.678,0,0,1,.582-.208l33.568-5.408a1.652,1.652,0,0,1,1.932,1.21,1.513,1.513,0,0,1-1.344,1.738l-26.675,4.3c.822.355,1.671.75,2.527,1.184a1.423,1.423,0,0,1,.435-.147l32.231-5.548a1.583,1.583,0,0,1,1.852,1.236,1.539,1.539,0,0,1-1.29,1.785l-29,5c.755.448,1.511.909,2.252,1.377a.6.6,0,0,1,.1-.028l32.919-6.016a1.639,1.639,0,0,1,1.892,1.344,1.658,1.658,0,0,1-1.317,1.932l-29.6,5.409c.495.341.976.682,1.451,1.01a1.057,1.057,0,0,1,.207-.054l33.716-6.044a1.671,1.671,0,0,1,.588,3.29l-30.8,5.522c1.017.763,1.906,1.451,2.635,2.026a1.423,1.423,0,0,1,.341-.1l33.716-6.044a1.665,1.665,0,0,1,.943.108c.153.976.281,1.925.394,2.834A1.508,1.508,0,0,1,540.185,4213.069Z" transform="translate(-275.356 -4171.965)" opacity="0.3"/>
        <g id="Grupo_987006" data-name="Grupo 987006" transform="translate(191.823 132.402)">
          <g id="Grupo_987004" data-name="Grupo 987004" transform="translate(59.582 36.344)">
            <path id="Trazado_660261" data-name="Trazado 660261" d="M590.769,4412.126s-5.044-8.819-16.813-5.869c-5.092.715-9.128,10.534-9.128,22.548,0,12.463,4.341,22.567,9.7,22.594l.042.2s9.224,2.086,14.664-2.585S590.769,4412.126,590.769,4412.126Z" transform="translate(-564.828 -4405.653)" fill="#1a2e35"/>
            <ellipse id="Elipse_7771" data-name="Elipse 7771" cx="8.758" cy="20.354" rx="8.758" ry="20.354" transform="translate(12.71 3.618)" fill="#1a2e35"/>
            <ellipse id="Elipse_7772" data-name="Elipse 7772" cx="8.758" cy="20.354" rx="8.758" ry="20.354" transform="translate(12.71 3.618)" opacity="0.3"/>
            <path id="Trazado_660262" data-name="Trazado 660262" d="M594.357,4433.24c0,6.424-2.193,11.633-4.894,11.633a2.214,2.214,0,0,1-.976-.234h-.007c-2.226-1.09-3.9-5.776-3.9-11.4s1.678-10.309,3.9-11.4h.007a2.22,2.22,0,0,1,.976-.233C592.164,4421.607,594.357,4426.815,594.357,4433.24Z" transform="translate(-570.927 -4410.581)" fill="#fff" stroke="#1a2e35" stroke-miterlimit="10" stroke-width="1"/>
            <path id="Trazado_660263" data-name="Trazado 660263" d="M592.392,4433.344c0,5.623-1.671,10.309-3.9,11.4h-.007c-2.226-1.089-3.9-5.776-3.9-11.4s1.678-10.31,3.9-11.4h.007C590.72,4423.035,592.392,4427.722,592.392,4433.344Z" transform="translate(-570.927 -4410.685)" fill="#fff" stroke="#1a2e35" stroke-miterlimit="10" stroke-width="1"/>
          </g>
          <path id="Trazado_660264" data-name="Trazado 660264" d="M566.719,4381.108c0,4.232.454,7.829-2.848,9.581s-9.146,4.5-11.753,17.63c-2.326,11.733.3,15.691-3.65,16.761-3.076.842-26.435,6.511-36.557,8.965l-4.647,1.123-25.225-16.894-.615-.415-2.8-1.879,2.8-13.063.328-1.518,13.284-18.6,22.818-22.985,11.071-6.746s26.188.321,27.578,1.878,1.765,2.394,2.441,8.706-.12,8.812,4.139,10.048c3.7,1.063,3.717,2.674,3.657,5.837C566.732,4380.025,566.719,4380.547,566.719,4381.108Z" transform="translate(-478.623 -4353.069)" fill="#5ae4a7"/>
          <path id="Trazado_660265" data-name="Trazado 660265" d="M553.115,4354.026c.007.02-.223.167-.229.188-1.932,1.539-11.17,6.043-16.765,13.972s-11.128,18.1-11.014,24.1a4.8,4.8,0,0,1,2.008,2.863v4.065c-10.51,9.514-18,17.817-18,17.817l-25.827,1.244-.615.026v-16.447l.328-.455,13.284-18.6,22.818-22.985,11.071-6.746S545.226,4353.256,553.115,4354.026Z" transform="translate(-479.875 -4353.069)" opacity="0.3"/>
          <path id="Trazado_660266" data-name="Trazado 660266" d="M525.11,4434.426l36.822-8.866a4.258,4.258,0,0,0,3.216-3.962c.239-5.992,1.212-18.86,5.173-24.331,2.876-3.972,5.826-5.693,7.908-6.438a4.266,4.266,0,0,0,2.844-4.014v-8.76a4.257,4.257,0,0,0-3.483-4.187l-.149-.028a4.257,4.257,0,0,1-3.458-3.731l-1.286-11.951a4.253,4.253,0,0,0-3.893-3.789c-7.554-.6-25.568-1.7-36.988.306" transform="translate(-492.98 -4353.21)" fill="none" stroke="#1a2e35" stroke-linecap="round" stroke-linejoin="round" stroke-width="1"/>
          <path id="Trazado_660267" data-name="Trazado 660267" d="M576.862,4393.17a116.188,116.188,0,0,1,10.339-6.522" transform="translate(-508.963 -4363.44)" fill="none" stroke="#1a2e35" stroke-linecap="round" stroke-linejoin="round" stroke-width="1"/>
          <path id="Trazado_660268" data-name="Trazado 660268" d="M522.243,4431.039a323.328,323.328,0,0,1,31.064-27.833" transform="translate(-492.094 -4368.553)" fill="none" stroke="#1a2e35" stroke-linecap="round" stroke-linejoin="round" stroke-width="1"/>
          <path id="Trazado_660269" data-name="Trazado 660269" d="M513.24,4426.317s-10.146-18.85-28.281-6.062" transform="translate(-480.58 -4372.445)" fill="none" stroke="#1a2e35" stroke-linecap="round" stroke-linejoin="round" stroke-width="1"/>
          <path id="Trazado_660270" data-name="Trazado 660270" d="M534.077,4415.76s.894-6.654-4.062-8.437-24.6-1.082-24.6-1.082" transform="translate(-486.898 -4369.449)" fill="none" stroke="#1a2e35" stroke-linecap="round" stroke-linejoin="round" stroke-width="1"/>
          <path id="Trazado_660271" data-name="Trazado 660271" d="M544.067,4393.869s.876-20.744,24.615-35.676" transform="translate(-498.835 -4354.652)" fill="none" stroke="#1a2e35" stroke-linecap="round" stroke-linejoin="round" stroke-width="1"/>
          <g id="Grupo_987005" data-name="Grupo 987005" transform="translate(0.647 52.647)">
            <path id="Trazado_660272" data-name="Trazado 660272" d="M508.548,4436.474s-5.637-9.854-18.79-6.559c-5.69.8-10.2,11.773-10.2,25.2,0,13.926,4.851,25.219,10.841,25.25l.047.222s10.309,2.331,16.388-2.89S508.548,4436.474,508.548,4436.474Z" transform="translate(-479.559 -4429.241)" fill="#1a2e35"/>
            <ellipse id="Elipse_7773" data-name="Elipse 7773" cx="9.788" cy="22.746" rx="9.788" ry="22.746" transform="translate(14.203 4.043)" fill="#1c1c1b"/>
            <ellipse id="Elipse_7774" data-name="Elipse 7774" cx="9.788" cy="22.746" rx="9.788" ry="22.746" transform="translate(14.203 4.043)" opacity="0.3"/>
            <path id="Trazado_660273" data-name="Trazado 660273" d="M512.559,4460.069c0,7.18-2.451,13-5.469,13a2.463,2.463,0,0,1-1.091-.261h-.008c-2.488-1.218-4.363-6.455-4.363-12.739s1.875-11.521,4.363-12.739H506a2.476,2.476,0,0,1,1.091-.261C510.108,4447.069,512.559,4452.889,512.559,4460.069Z" transform="translate(-486.375 -4434.747)" fill="#fff" stroke="#1a2e35" stroke-miterlimit="10" stroke-width="1"/>
            <path id="Trazado_660274" data-name="Trazado 660274" d="M510.362,4460.186c0,6.284-1.868,11.521-4.363,12.739h-.008c-2.488-1.218-4.363-6.455-4.363-12.739s1.875-11.521,4.363-12.739H506C508.494,4448.665,510.362,4453.9,510.362,4460.186Z" transform="translate(-486.375 -4434.864)" fill="#fff" stroke="#1a2e35" stroke-miterlimit="10" stroke-width="1"/>
          </g>
          <path id="Trazado_660275" data-name="Trazado 660275" d="M578.464,4402.517c-3.3,1.751-9.146,4.5-11.753,17.63-2.326,11.733.3,15.69-3.65,16.76-3.076.843-26.435,6.511-36.557,8.965l-.628-5.2,33.02-7.173s-1.183-38.182,22.437-42.133c-.007.488-.02,1.009-.02,1.571C581.313,4397.168,581.767,4400.765,578.464,4402.517Z" transform="translate(-493.216 -4364.896)" opacity="0.1"/>
          <path id="Trazado_660276" data-name="Trazado 660276" d="M544.067,4401.569s4.369,3,6.671.715,18-13.018,25.235-14.743c0,0-23.786,16.569-31.458,23.742,0,0,3.956-2.1,0-7.606Z" transform="translate(-498.835 -4363.715)" opacity="0.1"/>
        </g>
        <g id="Grupo_987013" data-name="Grupo 987013" transform="translate(179.719 48.657)">
          <g id="Grupo_987012" data-name="Grupo 987012">
            <g id="Grupo_987010" data-name="Grupo 987010">
              <path id="Trazado_660277" data-name="Trazado 660277" d="M477.421,4311.016s1.557,17.327,9.7,21.667a20.723,20.723,0,0,0,12.059-2.917c2.812-1.752,8.463-18.321,8.951-19.925l-12.267-1.831-2.355,16.538a61.4,61.4,0,0,1-8.488-10.484c.407-1.95-1.442-3.1-1.95-4.791C480.77,4301.625,477.421,4311.016,477.421,4311.016Z" transform="translate(-466.148 -4254.872)" fill="#fff" stroke="#1a2e35" stroke-linecap="round" stroke-linejoin="round" stroke-width="1"/>
              <path id="Trazado_660278" data-name="Trazado 660278" d="M530.941,4275.9a5.669,5.669,0,0,1,4.894,3.085s13.052,5.363,15.576,9.109,1.347,18.6-1.75,25a18.686,18.686,0,0,1-9.181,8.724l-1.3,5.631-27.14-.282-2.655-17.034.1-7.985L504,4299.067s1.627-12.51,3.96-13.68,12.581-5.374,12.581-5.374.72-2.082,2.059-2.664S530.941,4275.9,530.941,4275.9Z" transform="translate(-474.355 -4245.49)" fill="#5ae4a7"/>
              <path id="Trazado_660279" data-name="Trazado 660279" d="M552.7,4324.367s-3.329,11.967-5.547,14.3a39.07,39.07,0,0,1-10.34-.619c-4.433-1.089-22.823-8.536-25.014-10.821s1.948-5.073,1.948-5.073a81.015,81.015,0,0,0,8.891,2.593c5.24,1.23,14.391,2.044,16.957,3.6l2.118-6.539A13.293,13.293,0,0,1,552.7,4324.367Z" transform="translate(-476.568 -4259.579)" fill="#fff"/>
              <path id="Trazado_660280" data-name="Trazado 660280" d="M521.945,4247.061s-.473,3.673.955,10.644,2.575,8.779,4.564,8.577,1.99.918,1.99.918v4.351s1.988,7.821,3.2,8.258,4.754-5.973,5.619-7.788.873-9.894.873-9.894l.409-6.366a2.944,2.944,0,0,0,2.353-3.408c-.433-2.861-3.725-6.654-3.725-6.654S527.816,4243.231,521.945,4247.061Z" transform="translate(-479.876 -4235.923)" fill="#fff"/>
              <path id="Trazado_660281" data-name="Trazado 660281" d="M482.676,4344.484s15.212.911,16.76,2.63,1.2,5.847,1.2,5.847l3.137,2.236-5.382,38.582s-9.987-2.6-15.718,7.764Z" transform="translate(-467.771 -4266.672)" fill="#1a2e35"/>
              <path id="Trazado_660282" data-name="Trazado 660282" d="M526.8,4254.8a5.213,5.213,0,0,1-1.256,4.519,1.067,1.067,0,0,0-.187.242.742.742,0,0,0,.263.829,1.453,1.453,0,0,0,2.224-.365" transform="translate(-480.938 -4238.976)" fill="none" stroke="#1a2e35" stroke-linecap="round" stroke-linejoin="round" stroke-width="1"/>
              <path id="Trazado_660283" data-name="Trazado 660283" d="M526.075,4251.939a1.7,1.7,0,0,0-2.4.276" transform="translate(-480.434 -4237.976)" fill="none" stroke="#1a2e35" stroke-linecap="round" stroke-linejoin="round" stroke-width="1"/>
              <path id="Trazado_660284" data-name="Trazado 660284" d="M531.58,4251.471a2.239,2.239,0,0,1,2.9.927" transform="translate(-482.874 -4237.882)" fill="none" stroke="#1a2e35" stroke-linecap="round" stroke-linejoin="round" stroke-width="1"/>
              <path id="Trazado_660285" data-name="Trazado 660285" d="M525.7,4255.4c0,.6-.263,1.089-.588,1.089s-.587-.487-.587-1.089.263-1.089.587-1.089S525.7,4254.794,525.7,4255.4Z" transform="translate(-480.697 -4238.822)" fill="#1a2e35"/>
              <ellipse id="Elipse_7775" data-name="Elipse 7775" cx="0.588" cy="1.089" rx="0.588" ry="1.089" transform="translate(48.844 15.484)" fill="#1a2e35"/>
              <path id="Trazado_660286" data-name="Trazado 660286" d="M528.229,4265.822s3.492.622,4.425-1.313" transform="translate(-481.84 -4241.973)" fill="none" stroke="#1a2e35" stroke-linecap="round" stroke-linejoin="round" stroke-width="1"/>
              <path id="Trazado_660287" data-name="Trazado 660287" d="M523.741,4241.987s-2.734,4.31-1.391,11.835,2.8,11.051,5.149,11.555,8.953-3.3,10.52-4.924,1.567-5.6,1.567-5.6" transform="translate(-479.909 -4235.018)" fill="none" stroke="#1a2e35" stroke-linecap="round" stroke-linejoin="round" stroke-width="1"/>
              <path id="Trazado_660288" data-name="Trazado 660288" d="M544.615,4254.268s.48-2.658,1.769-3.095,2.546,1.711,2.546,3.095-1.2,3.732-2.84,3.405" transform="translate(-486.9 -4237.837)" fill="none" stroke="#1a2e35" stroke-linecap="round" stroke-linejoin="round" stroke-width="1"/>
              <path id="Trazado_660289" data-name="Trazado 660289" d="M538.095,4245.438a7.192,7.192,0,0,1-3.72.981c-1.758-.185-4.2-3.283-7.623-3s-6.292,2.591-7.4,1.666.556-3.424.556-3.424l.784-.992s-.207-2.113-.207-3.871,2.826-4.479,8.655-4.85,8.416,1.894,9.358,2.933a11.416,11.416,0,0,1,2.514,4.3c.484,2.229-.364,5.444-.574,7.265A1.647,1.647,0,0,0,538.095,4245.438Z" transform="translate(-478.979 -4231.903)" fill="#1a2e35"/>
              <path id="Trazado_660290" data-name="Trazado 660290" d="M524.529,4244.285s4.8-2.863,10.384,1.193" transform="translate(-480.697 -4235.424)" fill="none" stroke="#fff" stroke-linecap="round" stroke-linejoin="round" stroke-width="1"/>
              <path id="Trazado_660291" data-name="Trazado 660291" d="M532.844,4270.927v5.472s1.776,7.725,3.2,8.257,4.795-5.771,5.505-7.458a18.806,18.806,0,0,0,.639-4.8l.757-11.793" transform="translate(-483.265 -4240.769)" fill="none" stroke="#1a2e35" stroke-linecap="round" stroke-linejoin="round" stroke-width="1"/>
              <path id="Trazado_660292" data-name="Trazado 660292" d="M530.636,4277.672s-2.427.09-2.694,1.688-.088,8.525-.621,9.59-1.42,1.776-1.065,2.13,5.2-3.7,6.461-3.046" transform="translate(-481.205 -4246.038)" fill="none" stroke="#1a2e35" stroke-linecap="round" stroke-linejoin="round" stroke-width="1"/>
              <path id="Trazado_660293" data-name="Trazado 660293" d="M540.875,4287.572a12.466,12.466,0,0,1,3.862,2.453c1.6,1.6,2.841-.114,2.4-.5s-1.065-1.452-.355-4.294.553-7.982-2.076-8.963" transform="translate(-485.745 -4245.604)" fill="none" stroke="#1a2e35" stroke-linecap="round" stroke-linejoin="round" stroke-width="1"/>
              <path id="Trazado_660294" data-name="Trazado 660294" d="M503.915,4301.194c1.02-5.586,2.492-12.99,4.016-13.98,2.209-1.436,13.037-5.4,13.037-5.4" transform="translate(-474.331 -4247.317)" fill="none" stroke="#1a2e35" stroke-linecap="round" stroke-linejoin="round" stroke-width="1"/>
              <path id="Trazado_660295" data-name="Trazado 660295" d="M510.282,4314.958l3.314,22.976,27.523,1.569.97-2.667" transform="translate(-476.297 -4257.554)" fill="none" stroke="#1a2e35" stroke-linecap="round" stroke-linejoin="round" stroke-width="1"/>
              <line id="Línea_785" data-name="Línea 785" x1="8.234" y1="3.716" transform="translate(28.35 60.372)" fill="none" stroke="#1c1c1b" stroke-linecap="round" stroke-linejoin="round" stroke-width="1"/>
              <g id="Grupo_987008" data-name="Grupo 987008" transform="translate(0 52.145)">
                <g id="Grupo_987007" data-name="Grupo 987007">
                  <path id="Trazado_660296" data-name="Trazado 660296" d="M494.178,4321.888a23.594,23.594,0,0,0-9.647-12.014,14.751,14.751,0,0,0-22.6,8.471,20.576,20.576,0,0,0-.823,3.737l3.309.442a17.072,17.072,0,0,1,.7-3.156,12.1,12.1,0,0,1,7.086-8,10.626,10.626,0,0,1,3.764-.676,13.291,13.291,0,0,1,6.84,2.039,18.456,18.456,0,0,1,4.86,4.313,21.981,21.981,0,0,1,3.383,6.01,20.243,20.243,0,0,1,.575,13.205,12.094,12.094,0,0,1-7.086,7.995,11.5,11.5,0,0,1-8.544-.32v3.563a15.276,15.276,0,0,0,4.773.783,14.066,14.066,0,0,0,4.941-.9,15.365,15.365,0,0,0,9.1-10.108,21.682,21.682,0,0,0,1.009-6.592A25.062,25.062,0,0,0,494.178,4321.888Z" transform="translate(-461.111 -4307.35)" fill="#1a2e35"/>
                </g>
                <path id="Trazado_660297" data-name="Trazado 660297" d="M478.064,4309.783s-1.738,12.011,2.517,15.757,14.029-1.64,14.029-1.64l1.518,4.442s-12.6,2.117-11.031,14.758l-7.162.927V4324.71l-5.875-.749s.367-5.967-3.79-9.25A24.667,24.667,0,0,1,478.064,4309.783Z" transform="translate(-463.322 -4308.101)" fill="#1a2e35"/>
              </g>
              <path id="Trazado_660298" data-name="Trazado 660298" d="M512.557,4315.175c6.885,2.424,13.988,7.16,20.255,9.074,7.322,2.237,14.349,2.023,14.773,1.709a77.52,77.52,0,0,0,5.021-12.421c2.76-9.417,4.311-20.817,1.449-24.069-3.739-4.25-15.576-9.109-15.576-9.109" transform="translate(-476.999 -4246.868)" fill="none" stroke="#1a2e35" stroke-linecap="round" stroke-linejoin="round" stroke-width="1"/>
              <path id="Trazado_660299" data-name="Trazado 660299" d="M532.844,4273.881s.171,3.6,1.933,3.217,6.659-3.983,7.9-10.551a12.439,12.439,0,0,1-4.282,3.646c-2.907,1.552-4.972,2.389-4.972,2.389Z" transform="translate(-483.265 -4242.603)" fill="#1a2e35"/>
              <path id="Trazado_660300" data-name="Trazado 660300" d="M508.945,4317.734c-.338-1.341-.943-2.849-2.206-3.165a3.246,3.246,0,0,0-.862-.066c-2.453.056-5.046.924-6.461,2.93a1.761,1.761,0,0,0-.386.957.758.758,0,0,0,.565.776,1.115,1.115,0,0,0,.685-.19,13.906,13.906,0,0,1,3.007-1.393,3.036,3.036,0,0,1,1.852.021c.115.151.311.6.426.751-1.974.126-5.312,1.331-6.086,3.329a.8.8,0,0,0-.062.5c.129.467.792.443,1.262.327a34.479,34.479,0,0,1,5.1-.86c-.633.093-1.255.364-1.888.457-1.13.165-2.411.427-2.988,1.413a.69.69,0,0,0-.106.571.75.75,0,0,0,.651.377,13.164,13.164,0,0,0,2.59-.182,2.721,2.721,0,0,1,2.375.781c.05.76.036,1.325.086,2.086a4.41,4.41,0,0,0,2.45-2.794,11.732,11.732,0,0,0,.247-5.447C509.131,4318.561,509.052,4318.156,508.945,4317.734Z" transform="translate(-472.822 -4257.413)" fill="#fff" stroke="#1a2e35" stroke-linecap="round" stroke-linejoin="round" stroke-width="1"/>
              <path id="Trazado_660301" data-name="Trazado 660301" d="M552.3,4325.867s2.95-6.538,2.754-12.381" transform="translate(-489.275 -4257.1)" fill="none" stroke="#1a2e35" stroke-linecap="round" stroke-linejoin="round" stroke-width="1"/>
              <path id="Trazado_660302" data-name="Trazado 660302" d="M535.337,4349.582s4.379,12.57-.854,21.426c-1.985,3.358-24.422,3.767-24.422,3.767l-9.365,20.154-10.567-37.095,17.242-9.632Z" transform="translate(-470.073 -4267.82)" fill="#1a2e35"/>
              <line id="Línea_786" data-name="Línea 786" x2="21.371" y2="1.105" transform="translate(39.177 105.849)" fill="none" stroke="#1a2e35" stroke-linecap="round" stroke-linejoin="round" stroke-width="1"/>
              <path id="Trazado_660303" data-name="Trazado 660303" d="M514.378,4321.94a89.043,89.043,0,0,0,17.743,4.7c4.648.427,10.188,1.068,12.6,5.678" transform="translate(-477.562 -4259.709)" fill="none" stroke="#1a2e35" stroke-linecap="round" stroke-linejoin="round" stroke-width="1"/>
              <path id="Trazado_660304" data-name="Trazado 660304" d="M555.368,4321.844s4.938-1.315,10.986,2.558" transform="translate(-490.221 -4259.614)" fill="none" stroke="#1a2e35" stroke-linecap="round" stroke-linejoin="round" stroke-width="1"/>
              <g id="Grupo_987009" data-name="Grupo 987009" transform="translate(31.559 83.363)" opacity="0.2">
                <path id="Trazado_660305" data-name="Trazado 660305" d="M521.85,4354.547c-3.774,1.146-9.315,2.947-15.078,5.241" transform="translate(-506.772 -4353.145)" fill="none" stroke="#fff" stroke-linecap="round" stroke-linejoin="round" stroke-width="1"/>
                <line id="Línea_787" data-name="Línea 787" x1="0.904" y1="2.262" transform="translate(9.976)" fill="none" stroke="#fff" stroke-linecap="round" stroke-linejoin="round" stroke-width="1"/>
              </g>
              <line id="Línea_788" data-name="Línea 788" x1="0.853" y1="8.11" transform="translate(34.705 50.598)" fill="none" stroke="#1a2e35" stroke-linecap="round" stroke-linejoin="round" stroke-width="1"/>
            </g>
            <g id="Grupo_987011" data-name="Grupo 987011" transform="translate(5.449 49.876)">
              <path id="Trazado_660306" data-name="Trazado 660306" d="M470.65,4309.2a4.849,4.849,0,0,0-1.644,3.485.836.836,0,0,0,.364.709.869.869,0,0,0,.925-.291,3.319,3.319,0,0,0,.908-1.528C471.361,4310.987,471.957,4307.784,470.65,4309.2Z" transform="translate(-468.996 -4305.54)" fill="#fff" stroke="#1a2e35" stroke-linecap="round" stroke-linejoin="round" stroke-width="1"/>
              <path id="Trazado_660307" data-name="Trazado 660307" d="M474.708,4309.526a13.036,13.036,0,0,1-1.687,2.172.148.148,0,0,1-.085.055.146.146,0,0,1-.1-.039,1.784,1.784,0,0,1-.643-1.259,3.878,3.878,0,0,1,.185-1.433,4.559,4.559,0,0,1,1.557-2.527,1.05,1.05,0,0,1,.485-.218,1.138,1.138,0,0,1,.564.125,5.309,5.309,0,0,1,.816.443A16.446,16.446,0,0,1,474.708,4309.526Z" transform="translate(-469.98 -4304.747)" fill="#fff" stroke="#1a2e35" stroke-linecap="round" stroke-linejoin="round" stroke-width="1"/>
              <path id="Trazado_660308" data-name="Trazado 660308" d="M478.107,4304.288c-1.616.841-2.5,3.262-2.7,4.95-.066.565.031,1.2.68,1.331a1.677,1.677,0,0,0,1.642-.864,8.383,8.383,0,0,0,.7-1.839,2.884,2.884,0,0,1,1.116-1.576c.5-.329,1.38-.258,1.527-.974C481.367,4303.9,478.863,4303.894,478.107,4304.288Z" transform="translate(-470.971 -4304.065)" fill="#fff" stroke="#1a2e35" stroke-linecap="round" stroke-linejoin="round" stroke-width="1"/>
            </g>
          </g>
          <line id="Línea_789" data-name="Línea 789" x1="5.701" y1="3.072" transform="translate(29.64 53.577)" fill="none" stroke="#1a2e35" stroke-linecap="round" stroke-linejoin="round" stroke-width="1"/>
        </g>
        <g id="Grupo_987014" data-name="Grupo 987014" transform="translate(132.007)">
          <path id="Trazado_660309" data-name="Trazado 660309" d="M452.39,4163.9v114.5l-13.137.077-4.787.962v-88.075l-.02.006h-.007l-28.614,4.9-.321.053.478,77.248-13.9-1.446v-96.292l3.59-1.237,9.834,1.986.067-.013,28.534-6.7.04-.006.294-6.305v-.013l.027-.542,4.787-1.5Z" transform="translate(-392.079 -4161.505)" fill="#5ae4a7"/>
          <path id="Trazado_660310" data-name="Trazado 660310" d="M440.468,4195.11l-28.153,4.82-.461.081-.254-19.7,28.534-6.7.294,18.94Z" transform="translate(-398.108 -4165.243)" opacity="0.3"/>
          <path id="Trazado_660311" data-name="Trazado 660311" d="M440.582,4203.573l-28.614,4.9.043-2.256,28.531-5.205Z" transform="translate(-398.221 -4173.706)" opacity="0.2"/>
          <path id="Trazado_660312" data-name="Trazado 660312" d="M395.67,4180.448v97.9l-3.59-.375v-96.292Z" transform="translate(-392.079 -4167.355)" opacity="0.2"/>
          <path id="Trazado_660313" data-name="Trazado 660313" d="M458.181,4161.508v116.971l-4.787.962-.02-88.069-.007-27.812v-.013l.027-.542Z" transform="translate(-411.007 -4161.505)" opacity="0.2"/>
          <path id="Trazado_660314" data-name="Trazado 660314" d="M471.329,4279.035V4163.9l-13.135-2.4L453.4,4163v117.172" transform="translate(-411.018 -4161.504)" fill="none" stroke="#1a2e35" stroke-linecap="round" stroke-linejoin="round" stroke-width="1"/>
          <line id="Línea_790" data-name="Línea 790" y2="117.937" transform="translate(47.176)" fill="none" stroke="#1a2e35" stroke-linecap="round" stroke-linejoin="round" stroke-width="1"/>
          <path id="Trazado_660315" data-name="Trazado 660315" d="M405.987,4280.557l-.485-98.125-9.836-1.988-3.587,1.242v98.076" transform="translate(-392.079 -4167.354)" fill="none" stroke="#1a2e35" stroke-linecap="round" stroke-linejoin="round" stroke-width="1"/>
          <line id="Línea_791" data-name="Línea 791" y2="101.481" transform="translate(3.587 13.09)" fill="none" stroke="#1a2e35" stroke-linecap="round" stroke-linejoin="round" stroke-width="1"/>
          <line id="Línea_792" data-name="Línea 792" y1="6.673" x2="28.962" transform="translate(13.423 8.405)" fill="none" stroke="#1a2e35" stroke-linecap="round" stroke-linejoin="round" stroke-width="1"/>
          <line id="Línea_793" data-name="Línea 793" y1="5.425" x2="28.893" transform="translate(13.492 27.146)" fill="none" stroke="#1a2e35" stroke-linecap="round" stroke-linejoin="round" stroke-width="1"/>
          <line id="Línea_794" data-name="Línea 794" y1="4.91" x2="28.639" transform="translate(13.746 29.858)" fill="none" stroke="#1a2e35" stroke-linecap="round" stroke-linejoin="round" stroke-width="1"/>
        </g>
        <path id="Trazado_660316" data-name="Trazado 660316" d="M555.567,4305.4v-78.4c0-2.775.081-5.563.135-8.332.043-2.2.359-4.686-.816-6.635-2.125-3.523-5.893-5.859-9.273-8.046-6.278-4.063-13.255-7.545-20.637-9-9.205-1.816-42.724,95.249-42.724,95.249l.292,8.075s35.449-100.882,44.507-99.323a40.412,40.412,0,0,1,14.8,6.089c2.494,1.6,5.311,2.935,7.437,5.037,3.166,3.132,2.736,7.132,2.736,11.237v5.032q0,6.783,0,13.564,0,16.639,0,33.279,0,13.263,0,26.526c0,.274-.1,5.208,0,5.22Z" transform="translate(-287.921 -4171.834)" fill="#5ae4a7" stroke="#1a2e35" stroke-miterlimit="10" stroke-width="1"/>
        <g id="Grupo_987015" data-name="Grupo 987015" transform="translate(0 107.849)">
          <path id="Trazado_660317" data-name="Trazado 660317" d="M396.571,4466.285v23.707l-7.334,2-24.088-4.707-4.038,1.144v11.218l-11.854,3.021-24.75-5.048-3.37.889v12.027l-15.791,4.3-22.236-4.473v-11.552l-2.534-.081-25.479,6.412-12.469-2.808v-10.55l-5.589-.588-21.882,5.957-8.1-2.086V4472.9l98.292-3.43,5.943-.208Z" transform="translate(-202.93 -4363.481)" fill="#5ae4a7"/>
          <path id="Trazado_660318" data-name="Trazado 660318" d="M440.491,4466.285v23.707l-7.334,2-24.088-4.707-4.038,1.144v11.218l-11.854,3.021-24.75-5.048-3.37.889v12.027l-15.791,4.3v-45.368l5.943-.208Z" transform="translate(-246.85 -4363.481)" fill="#367c58" opacity="0.1"/>
          <path id="Trazado_660319" data-name="Trazado 660319" d="M305.346,4466.257v46.064l-22.236-4.473V4496.3l-2.534-.081-25.479,6.411-12.469-2.808v-10.55l-5.589-.588-21.882,5.957-8.1-2.085v-34.411Z" transform="translate(-202.93 -4360.966)" opacity="0.3"/>
          <path id="Trazado_660320" data-name="Trazado 660320" d="M279.544,4506.824v10.841l23.419-6.415Z" transform="translate(-225.317 -4376.001)" opacity="0.3"/>
          <path id="Trazado_660321" data-name="Trazado 660321" d="M401.741,4502.2v11.563l-24.75-5.048Z" transform="translate(-255.412 -4374.572)" opacity="0.3"/>
          <path id="Trazado_660322" data-name="Trazado 660322" d="M460.069,4498.312l0-11.564-23.662,6.666Z" transform="translate(-273.762 -4369.801)" opacity="0.3"/>
          <path id="Trazado_660323" data-name="Trazado 660323" d="M220.983,4496.657l22.031,3.922-22.031,5.916Z" transform="translate(-207.231 -4372.861)" opacity="0.3"/>
          <path id="Trazado_660324" data-name="Trazado 660324" d="M395.711,4327.139v96.54l-92.208,20.11-102.417-13V4327.139l102.417-9.594Z" transform="translate(-201.086 -4317.545)" fill="#fff"/>
          <path id="Trazado_660325" data-name="Trazado 660325" d="M334.409,4334.642l10.758-.779,9.784.779v5.405l-9.782-.816-10.76,1.043Z" transform="translate(-242.261 -4322.584)" opacity="0.1"/>
          <path id="Trazado_660326" data-name="Trazado 660326" d="M201.089,4327.14v103.654l102.417,13,92.206-20.111V4327.14l-92.206-9.592Z" transform="translate(-201.087 -4317.546)" fill="none" stroke="#1a2e35" stroke-linecap="round" stroke-linejoin="round" stroke-width="1"/>
          <path id="Trazado_660327" data-name="Trazado 660327" d="M349.269,4468.9V4317.548" transform="translate(-246.851 -4317.546)" fill="none" stroke="#1a2e35" stroke-linecap="round" stroke-linejoin="round" stroke-width="1"/>
          <path id="Trazado_660328" data-name="Trazado 660328" d="M281.268,4503.391l-24.111,6.655-14.525-2.811v-10.551l-25.951-4.506v9.838l-9.627-2.046v-17.816" transform="translate(-202.93 -4368.382)" fill="none" stroke="#1a2e35" stroke-linecap="round" stroke-linejoin="round" stroke-width="1"/>
          <line id="Línea_795" data-name="Línea 795" y1="5.956" x2="21.869" transform="translate(13.913 127.718)" fill="none" stroke="#1a2e35" stroke-linecap="round" stroke-linejoin="round" stroke-width="1"/>
          <path id="Trazado_660329" data-name="Trazado 660329" d="M371.646,4513.762V4502.2l-28.122,7.406v12.025l-15.789,4.3-22.241-4.474V4509.9l-25.951-4.506v10.842" transform="translate(-225.317 -4374.572)" fill="none" stroke="#1a2e35" stroke-linecap="round" stroke-linejoin="round" stroke-width="1"/>
          <path id="Trazado_660330" data-name="Trazado 660330" d="M303.5,4317.545v126.244l-102.417-13V4327.139Z" transform="translate(-201.086 -4317.545)" opacity="0.1"/>
          <path id="Trazado_660331" data-name="Trazado 660331" d="M376.993,4499.207l24.749,4.978,11.854-2.952v-11.219l28.122-8v11.565l1.28-.349,6.056-1.652,0-20.166" transform="translate(-255.413 -4365.064)" fill="none" stroke="#1a2e35" stroke-linecap="round" stroke-linejoin="round" stroke-width="1"/>
          <line id="Línea_796" data-name="Línea 796" x1="23.88" y1="4.803" transform="translate(162.219 123.801)" fill="none" stroke="#1a2e35" stroke-linecap="round" stroke-linejoin="round" stroke-width="1"/>
          <path id="Trazado_660332" data-name="Trazado 660332" d="M201.089,4376.974l102.417-3.669,92.206,3.669" transform="translate(-201.087 -4334.766)" fill="none" stroke="#1a2e35" stroke-linecap="round" stroke-linejoin="round" stroke-width="1"/>
          <path id="Trazado_660333" data-name="Trazado 660333" d="M201.089,4429.7l102.417,5.929,92.206-8.591" transform="translate(-201.087 -4351.361)" fill="none" stroke="#1a2e35" stroke-linecap="round" stroke-linejoin="round" stroke-width="1"/>
          <line id="Línea_797" data-name="Línea 797" y2="34.82" transform="translate(155.789 5.554)" fill="none" stroke="#1a2e35" stroke-linecap="round" stroke-linejoin="round" stroke-width="1"/>
          <line id="Línea_798" data-name="Línea 798" y2="40.035" transform="translate(143.852 40.374)" fill="none" stroke="#1a2e35" stroke-linecap="round" stroke-linejoin="round" stroke-width="1"/>
          <line id="Línea_799" data-name="Línea 799" y2="35.868" transform="translate(174.159 41.394)" fill="none" stroke="#1a2e35" stroke-linecap="round" stroke-linejoin="round" stroke-width="1"/>
          <line id="Línea_800" data-name="Línea 800" y2="35.488" transform="translate(154.327 79.433)" fill="none" stroke="#1a2e35" stroke-linecap="round" stroke-linejoin="round" stroke-width="1"/>
          <line id="Línea_801" data-name="Línea 801" y2="78.108" transform="translate(62.408 3.749)" fill="none" stroke="#1a2e35" stroke-linecap="round" stroke-linejoin="round" stroke-width="1"/>
          <line id="Línea_802" data-name="Línea 802" y2="33.316" transform="translate(16.182 8.079)" fill="none" stroke="#1a2e35" stroke-linecap="round" stroke-linejoin="round" stroke-width="1"/>
          <line id="Línea_803" data-name="Línea 803" y2="38.769" transform="translate(28.013 41.205)" fill="none" stroke="#1a2e35" stroke-linecap="round" stroke-linejoin="round" stroke-width="1"/>
          <line id="Línea_804" data-name="Línea 804" y1="37.904" transform="translate(42.432 80.728)" fill="none" stroke="#1a2e35" stroke-linecap="round" stroke-linejoin="round" stroke-width="1"/>
          <path id="Trazado_660334" data-name="Trazado 660334" d="M201.219,4400.325h8.66v5.12l-8.66-.091Z" transform="translate(-201.127 -4343.11)" opacity="0.1"/>
          <path id="Trazado_660335" data-name="Trazado 660335" d="M398.507,4399.026v5.758l14.917-.759v-4.761Z" transform="translate(-262.057 -4342.709)" opacity="0.1"/>
          <path id="Trazado_660336" data-name="Trazado 660336" d="M250.61,4456.734v5.875l16.98,1.706v-6.607Z" transform="translate(-216.381 -4360.532)" opacity="0.1"/>
        </g>
      </g>
      <g id="Grupo_987019" data-name="Grupo 987019" transform="translate(204.222 4158.744)">
        <g id="Grupo_987017" data-name="Grupo 987017">
          <path id="Trazado_660337" data-name="Trazado 660337" d="M307.856,4200.946c-4.272-2.32-6.262-.39-7.823-2.32s4.3-7.042-7.433-12.125c0,0-.751-10.955-16.819-11.346s-11.735,10.933-16.038,13.666-5.473-1.562-9.761,1.179-2.351,8.214-5.872,9.01-8.214-3.521-12.516-.75-4.3,5.083-6.254,5.083-5.871-1.561-8.214,0-5.084,3.521-5.084,3.521h98.937S312.158,4203.3,307.856,4200.946Z" transform="translate(-212.042 -4175.145)" fill="none" stroke="#1a2e35" stroke-linecap="round" stroke-linejoin="round" stroke-width="1"/>
          <path id="Trazado_660338" data-name="Trazado 660338" d="M265.186,4210.205a13.464,13.464,0,0,1-1.749.826" transform="translate(-227.915 -4185.973)" fill="none" stroke="#1a2e35" stroke-linecap="round" stroke-linejoin="round" stroke-width="1"/>
          <path id="Trazado_660339" data-name="Trazado 660339" d="M288.08,4183.72a6.673,6.673,0,0,0-3.815,4.791c-.751,3.581-2.388,5.96-4.295,6.2s-9.092-.488-10.264,2.132a10.671,10.671,0,0,0-.676,2.4" transform="translate(-229.642 -4177.793)" fill="none" stroke="#1a2e35" stroke-linecap="round" stroke-linejoin="round" stroke-width="1"/>
        </g>
        <g id="Grupo_987018" data-name="Grupo 987018" transform="translate(63.156 48.448)">
          <path id="Trazado_660340" data-name="Trazado 660340" d="M340.862,4255.328c-1.682-.917-2.447-.15-3.056-.917s1.675-2.748-2.906-4.737c0,0-.308-4.28-6.57-4.43s-4.587,4.279-6.269,5.346-2.141-.607-3.822.458-.916,3.213-2.29,3.521-3.206-1.381-4.888-.308-1.682,1.982-2.448,1.982-2.29-.609-3.206,0-1.99,1.382-1.99,1.382h38.66A1.98,1.98,0,0,0,340.862,4255.328Z" transform="translate(-303.418 -4245.24)" fill="none" stroke="#1a2e35" stroke-linecap="round" stroke-linejoin="round" stroke-width="1"/>
          <path id="Trazado_660341" data-name="Trazado 660341" d="M324.212,4258.934a5.618,5.618,0,0,1-.675.323" transform="translate(-309.632 -4249.47)" fill="none" stroke="#1a2e35" stroke-linecap="round" stroke-linejoin="round" stroke-width="1"/>
          <path id="Trazado_660342" data-name="Trazado 660342" d="M333.136,4248.6a2.624,2.624,0,0,0-1.5,1.862c-.277,1.4-.931,2.335-1.674,2.425s-3.544-.18-4.009.841a3.983,3.983,0,0,0-.263.938" transform="translate(-310.296 -4246.279)" fill="none" stroke="#1a2e35" stroke-linecap="round" stroke-linejoin="round" stroke-width="1"/>
        </g>
      </g>
    </g>
    <rect id="Rectángulo_311165" data-name="Rectángulo 311165" width="400" height="340" transform="translate(1020 5850)" fill="none"/>
  </g>
</svg>
