<svg xmlns="http://www.w3.org/2000/svg" width="333.153" height="259.542" viewBox="0 0 333.153 259.542">
  <g id="Grupo_988393" data-name="Grupo 988393" transform="translate(-129.396 -4563.963)">
    <g id="Grupo_988392" data-name="Grupo 988392" transform="translate(129.396 4569.194)">
      <g id="Grupo_988390" data-name="Grupo 988390" transform="translate(1.219 0)">
        <line id="Línea_810" data-name="Línea 810" x2="330.715" transform="translate(0 234.02)" fill="none" stroke="#e0e0e0" stroke-linecap="round" stroke-linejoin="round" stroke-width="0.794"/>
        <line id="Línea_811" data-name="Línea 811" x2="330.715" transform="translate(0 224.269)" fill="none" stroke="#e0e0e0" stroke-linecap="round" stroke-linejoin="round" stroke-width="0.794"/>
        <line id="Línea_812" data-name="Línea 812" x2="330.715" transform="translate(0 214.518)" fill="none" stroke="#e0e0e0" stroke-linecap="round" stroke-linejoin="round" stroke-width="0.794"/>
        <line id="Línea_813" data-name="Línea 813" x2="330.715" transform="translate(0 204.767)" fill="none" stroke="#e0e0e0" stroke-linecap="round" stroke-linejoin="round" stroke-width="0.794"/>
        <line id="Línea_814" data-name="Línea 814" x2="330.715" transform="translate(0 195.016)" fill="none" stroke="#e0e0e0" stroke-linecap="round" stroke-linejoin="round" stroke-width="0.794"/>
        <line id="Línea_815" data-name="Línea 815" x2="330.715" transform="translate(0 185.266)" fill="none" stroke="#e0e0e0" stroke-linecap="round" stroke-linejoin="round" stroke-width="0.794"/>
        <line id="Línea_816" data-name="Línea 816" x2="330.715" transform="translate(0 175.515)" fill="none" stroke="#e0e0e0" stroke-linecap="round" stroke-linejoin="round" stroke-width="0.794"/>
        <line id="Línea_817" data-name="Línea 817" x2="330.715" transform="translate(0 165.764)" fill="none" stroke="#e0e0e0" stroke-linecap="round" stroke-linejoin="round" stroke-width="0.794"/>
        <line id="Línea_818" data-name="Línea 818" x2="330.715" transform="translate(0 156.013)" fill="none" stroke="#e0e0e0" stroke-linecap="round" stroke-linejoin="round" stroke-width="0.794"/>
        <line id="Línea_819" data-name="Línea 819" x2="330.715" transform="translate(0 146.262)" fill="none" stroke="#e0e0e0" stroke-linecap="round" stroke-linejoin="round" stroke-width="0.794"/>
        <line id="Línea_820" data-name="Línea 820" x2="330.715" transform="translate(0 136.511)" fill="none" stroke="#e0e0e0" stroke-linecap="round" stroke-linejoin="round" stroke-width="0.794"/>
        <line id="Línea_821" data-name="Línea 821" x2="330.715" transform="translate(0 126.761)" fill="none" stroke="#e0e0e0" stroke-linecap="round" stroke-linejoin="round" stroke-width="0.794"/>
        <line id="Línea_822" data-name="Línea 822" x2="330.715" transform="translate(0 117.01)" fill="none" stroke="#e0e0e0" stroke-linecap="round" stroke-linejoin="round" stroke-width="0.794"/>
        <line id="Línea_823" data-name="Línea 823" x2="330.715" transform="translate(0 107.259)" fill="none" stroke="#e0e0e0" stroke-linecap="round" stroke-linejoin="round" stroke-width="0.794"/>
        <line id="Línea_824" data-name="Línea 824" x2="330.715" transform="translate(0 97.508)" fill="none" stroke="#e0e0e0" stroke-linecap="round" stroke-linejoin="round" stroke-width="0.794"/>
        <line id="Línea_825" data-name="Línea 825" x2="330.715" transform="translate(0 87.757)" fill="none" stroke="#e0e0e0" stroke-linecap="round" stroke-linejoin="round" stroke-width="0.794"/>
        <line id="Línea_826" data-name="Línea 826" x2="330.715" transform="translate(0 78.007)" fill="none" stroke="#e0e0e0" stroke-linecap="round" stroke-linejoin="round" stroke-width="0.794"/>
        <line id="Línea_827" data-name="Línea 827" x2="330.715" transform="translate(0 68.256)" fill="none" stroke="#e0e0e0" stroke-linecap="round" stroke-linejoin="round" stroke-width="0.794"/>
        <line id="Línea_828" data-name="Línea 828" x2="330.715" transform="translate(0 58.505)" fill="none" stroke="#e0e0e0" stroke-linecap="round" stroke-linejoin="round" stroke-width="0.794"/>
        <line id="Línea_829" data-name="Línea 829" x2="330.715" transform="translate(0 48.754)" fill="none" stroke="#e0e0e0" stroke-linecap="round" stroke-linejoin="round" stroke-width="0.794"/>
        <line id="Línea_830" data-name="Línea 830" x2="330.715" transform="translate(0 39.003)" fill="none" stroke="#e0e0e0" stroke-linecap="round" stroke-linejoin="round" stroke-width="0.794"/>
        <line id="Línea_831" data-name="Línea 831" x2="330.715" transform="translate(0 29.252)" fill="none" stroke="#e0e0e0" stroke-linecap="round" stroke-linejoin="round" stroke-width="0.794"/>
        <line id="Línea_832" data-name="Línea 832" x2="330.715" transform="translate(0 19.502)" fill="none" stroke="#e0e0e0" stroke-linecap="round" stroke-linejoin="round" stroke-width="0.794"/>
        <line id="Línea_833" data-name="Línea 833" x2="330.715" transform="translate(0 9.751)" fill="none" stroke="#e0e0e0" stroke-linecap="round" stroke-linejoin="round" stroke-width="0.794"/>
        <line id="Línea_834" data-name="Línea 834" x2="330.715" fill="none" stroke="#e0e0e0" stroke-linecap="round" stroke-linejoin="round" stroke-width="0.794"/>
      </g>
      <g id="Grupo_988391" data-name="Grupo 988391" transform="translate(0 233.69)">
        <path id="Trazado_666123" data-name="Trazado 666123" d="M461.33,4860.433H130.615a1.219,1.219,0,0,1,0-2.438H461.33a1.219,1.219,0,0,1,0,2.438Z" transform="translate(-129.396 -4857.995)" fill="#4c4f60"/>
      </g>
    </g>
    <path id="Trazado_666124" data-name="Trazado 666124" d="M203.337,4817.9l-25.22-19.5-25.22,19.5v29.253h50.44Z" transform="translate(-4.405 -43.941)" fill="#bddccc"/>
    <rect id="Rectángulo_311261" data-name="Rectángulo 311261" width="50.44" height="10.563" transform="translate(148.492 4812.942)" fill="#bddccc"/>
    <text id="January" transform="translate(172.731 4820.137)" fill="#fff" font-size="6" font-family="Montserrat-Regular, Montserrat"><tspan x="-11.943" y="0">January</tspan></text>
    <text id="_12.2" data-name="+12.2" transform="translate(173.273 4743.832)" fill="#bddccc" font-size="18" font-family="BebasNeueRegular, Bebas Neue"><tspan x="-14.931" y="0">+12.2</tspan></text>
    <path id="Trazado_666125" data-name="Trazado 666125" d="M278.568,4769.9l-25.22-19.5-25.22,19.5v68.255h50.44Z" transform="translate(-18.506 -34.944)" fill="#449c6e"/>
    <rect id="Rectángulo_311262" data-name="Rectángulo 311262" width="50.44" height="10.563" transform="translate(209.622 4812.942)" fill="#449c6e"/>
    <text id="February" transform="translate(234.217 4820.137)" fill="#fff" font-size="6" font-family="Montserrat-Regular, Montserrat"><tspan x="-13.485" y="0">February</tspan></text>
    <text id="_23.5" data-name="+23.5" transform="translate(233.592 4704.829)" fill="#449c6e" font-size="18" font-family="BebasNeueRegular, Bebas Neue"><tspan x="-15.372" y="0">+23.5</tspan></text>
    <path id="Trazado_666126" data-name="Trazado 666126" d="M353.8,4745.9l-25.027-19.5-25.414,19.5v87.757H353.8Z" transform="translate(-32.606 -30.446)" fill="#367c58"/>
    <rect id="Rectángulo_311263" data-name="Rectángulo 311263" width="50.44" height="10.563" transform="translate(270.753 4812.942)" fill="#367c58"/>
    <text id="March" transform="translate(294.41 4820.137)" fill="#fff" font-size="6" font-family="Montserrat-Regular, Montserrat"><tspan x="-9.567" y="0">March</tspan></text>
    <text id="_32.5" data-name="+32.5" transform="translate(294.722 4685.327)" fill="#367c58" font-size="18" font-family="BebasNeueRegular, Bebas Neue"><tspan x="-15.372" y="0">+32.5</tspan></text>
    <path id="Trazado_666127" data-name="Trazado 666127" d="M429.031,4709.9l-25.22-19.5-25.22,19.5v117.01h50.44Z" transform="translate(-46.707 -23.698)" fill="#285d42"/>
    <rect id="Rectángulo_311264" data-name="Rectángulo 311264" width="50.44" height="10.563" transform="translate(331.883 4812.942)" fill="#285d42"/>
    <text id="April" transform="translate(356.79 4820.137)" fill="#fff" font-size="6" font-family="Montserrat-Regular, Montserrat"><tspan x="-7.077" y="0">April</tspan></text>
    <text id="_43.3" data-name="+43.3" transform="translate(355.852 4656.075)" fill="#285d42" font-size="18" font-family="BebasNeueRegular, Bebas Neue"><tspan x="-15.489" y="0">+43.3</tspan></text>
    <path id="Trazado_666128" data-name="Trazado 666128" d="M504.262,4661.9l-25.22-19.5-25.22,19.5v156.013h50.44Z" transform="translate(-60.808 -14.702)" fill="#1f4932"/>
    <rect id="Rectángulo_311265" data-name="Rectángulo 311265" width="50.44" height="10.563" transform="translate(393.014 4812.942)" fill="#1f4932"/>
    <text id="June" transform="translate(417.125 4820.137)" fill="#fff" font-size="6" font-family="Montserrat-Regular, Montserrat"><tspan x="-7.365" y="0">June</tspan></text>
    <text id="_55.5" data-name="+55.5" transform="translate(416.983 4617.071)" fill="#1f4932" font-size="18" font-family="BebasNeueRegular, Bebas Neue"><tspan x="-15.372" y="0">+55.5</tspan></text>
    <path id="Trazado_666129" data-name="Trazado 666129" d="M153.934,4710.667s27.622-29.253,85.508-39c42.276-7.121,83.376-21.469,125.754-61.213,21.427-20.095,40.875-33.408,57.644-40.338" transform="translate(-4.599 -1.153)" fill="none" stroke="#bdbdbd" stroke-linecap="round" stroke-linejoin="round" stroke-width="2"/>
    <circle id="Elipse_7835" data-name="Elipse 7835" cx="4.469" cy="4.469" r="4.469" transform="translate(169.304 4687.169)" fill="#bddccc"/>
    <circle id="Elipse_7836" data-name="Elipse 7836" cx="4.469" cy="4.469" r="4.469" transform="translate(230.373 4666.042)" fill="#449c6e"/>
    <circle id="Elipse_7837" data-name="Elipse 7837" cx="4.469" cy="4.469" r="4.469" transform="translate(291.505 4648.369)" fill="#367c58"/>
    <circle id="Elipse_7838" data-name="Elipse 7838" cx="4.469" cy="4.469" r="4.469" transform="translate(352.634 4607.537)" fill="#285d42"/>
    <circle id="Elipse_7839" data-name="Elipse 7839" cx="4.469" cy="4.469" r="4.469" transform="translate(413.782 4563.963)" fill="#1f4932"/>
  </g>
</svg>
