<svg xmlns="http://www.w3.org/2000/svg" xmlns:xlink="http://www.w3.org/1999/xlink" width="295" height="243" viewBox="0 0 295 243">
  <defs>
    <linearGradient id="linear-gradient" x1="0.335" y1="0.004" x2="0.579" y2="0.736" gradientUnits="objectBoundingBox">
      <stop offset="0" stop-color="#cfc2ba"/>
      <stop offset="0.549" stop-color="#baaea7"/>
      <stop offset="0.916" stop-color="#b3a7a1"/>
    </linearGradient>
    <linearGradient id="linear-gradient-2" x1="0.364" y1="0.127" x2="0.641" y2="0.899" xlink:href="#linear-gradient"/>
    <linearGradient id="linear-gradient-3" x1="-0.083" y1="-0.372" x2="0.517" y2="0.481" xlink:href="#linear-gradient"/>
    <linearGradient id="linear-gradient-5" x1="1.486" y1="0.072" x2="0.962" y2="1.13" gradientUnits="objectBoundingBox">
      <stop offset="0.054" stop-color="#304e5c"/>
      <stop offset="0.055" stop-color="#37596a"/>
      <stop offset="0.593" stop-color="#37596a"/>
      <stop offset="0.595" stop-color="#32505e"/>
    </linearGradient>
  </defs>
  <g id="Grupo_1009730" data-name="Grupo 1009730" transform="translate(-810.142 -7938)">
    <rect id="Rectángulo_306538" data-name="Rectángulo 306538" width="295" height="243" transform="translate(810.142 7938)" fill="none"/>
    <g id="Grupo_986846" data-name="Grupo 986846" transform="translate(835.386 7963.677)">
      <g id="Grupo_986877" data-name="Grupo 986877" transform="translate(0 0)">
        <g id="Grupo_986847" data-name="Grupo 986847">
          <path id="Trazado_659950" data-name="Trazado 659950" d="M196.313,269.392l-23.08,13.321-4.187,2.423L156.5,292.383l-.034.022-2.6,1.5-4.2,2.423-10.139,5.862-1.943,1.128-2.646,1.53-6.677,3.841-5.1,2.948-1.34.782L93.072,329.007,32.262,293.89l103.241-59.6,2.334,1.351,1.463.837,5.5,3.182,7.56,4.366,1.507.871,2.211,1.273,4.678,2.7,6.912,3.986,2.267,1.307,3,1.731,10.909,6.309,3.93,2.267Z" transform="translate(-6.794 -210.865)" fill="url(#linear-gradient)"/>
          <path id="Trazado_659951" data-name="Trazado 659951" d="M133.459,314l-.058,3.857L84.037,349.169a15.068,15.068,0,0,1-15.538.322L39.961,333.046l-1.869-1.109-13.757-7.916a1.632,1.632,0,0,1-.234-.146l-1.4-.816a7.021,7.021,0,0,1-3.506-6.047,7.7,7.7,0,0,1,.058-.818,5.437,5.437,0,0,1,.614-1.664,4.878,4.878,0,0,1,1.723-1.723l54.767-32.188,25.178,14.722,1.84,1.08L133.4,313.974Z" transform="translate(-19.194 -166.902)" fill="url(#linear-gradient-2)"/>
          <path id="Trazado_659952" data-name="Trazado 659952" d="M183.928,245.728v36.3l-4.254,2.457L160,295.841l-3.093,1.787-17.5,10.105-2.01,1.161-.77.447-5.706,3.294-10.038,5.8-1.3.748L83.132,340.225V303.936l27.826-16.068,1.429-.826,7.314-4.221,6.119-3.54,1.128-.648,2.189-1.262,13.835-7.995,2.937-1.686,10.9-6.3,3.852-2.233Z" transform="translate(41.476 -200.008)" fill="#367c58"/>
          <path id="Trazado_659953" data-name="Trazado 659953" d="M132.124,290.013l-5.706,3.294A122.78,122.78,0,0,1,116.336,268c-.413-1.506-.793-3.015-1.14-4.51q-.988-4.338-1.608-8.565l6.4-3.685H120c.29,2.847.737,5.763,1.317,8.71q.687,3.485,1.653,7.035A114.047,114.047,0,0,0,132.124,290.013Z" transform="translate(70.375 -194.774)" fill="#add1db"/>
          <path id="Trazado_659954" data-name="Trazado 659954" d="M121.062,296.4l-5.706,3.294a122.78,122.78,0,0,1-10.082-25.3c-.413-1.506-.793-3.015-1.14-4.512q-.988-4.335-1.608-8.563l6.4-3.685h.012c.29,2.847.737,5.763,1.317,8.71q.687,3.485,1.653,7.035A114.047,114.047,0,0,0,121.062,296.4Z" transform="translate(59.878 -188.709)" fill="#add1db"/>
          <path id="Trazado_659955" data-name="Trazado 659955" d="M112.039,292.285v36.289L52.669,294.3v-36.29Z" transform="translate(12.57 -188.358)" fill="#367c58"/>
          <path id="Trazado_659956" data-name="Trazado 659956" d="M183.928,245.728v4.623l-100.8,58.2v-4.612Z" transform="translate(41.476 -200.008)" fill="#285d42"/>
          <path id="Trazado_659957" data-name="Trazado 659957" d="M120.532,255.715l-6.119,3.533v0c.31,1.335.655,2.68,1.017,4.025l6.008-3.469C121.109,258.436,120.8,257.069,120.532,255.715Z" transform="translate(71.157 -190.531)" fill="#789aad"/>
          <path id="Trazado_659958" data-name="Trazado 659958" d="M109.47,262.106l-6.119,3.535v0c.31,1.337.655,2.682,1.017,4.026l6.008-3.469C110.045,264.829,109.737,263.462,109.47,262.106Z" transform="translate(60.661 -184.467)" fill="#789aad"/>
          <path id="Trazado_659959" data-name="Trazado 659959" d="M112.039,292.285V296.9l-59.37-34.28v-4.611Z" transform="translate(12.57 -188.358)" fill="#285d42"/>
          <path id="Trazado_659960" data-name="Trazado 659960" d="M186.112,252.012V240.286L82.873,299.9v11.726Z" transform="translate(41.229 -205.172)" fill="#367c58"/>
          <path id="Trazado_659961" data-name="Trazado 659961" d="M112.478,287.968,51.672,252.857v11.724l60.806,35.111Z" transform="translate(11.624 -193.243)" fill="#367c58"/>
          <path id="Trazado_659962" data-name="Trazado 659962" d="M215.733,257.384l-23.092,13.325-4.183,2.421-12.551,7.247-.033.017-2.6,1.5-4.2,2.421-10.13,5.864L157,291.3l-2.652,1.532-6.671,3.838-5.106,2.948-1.351.791-28.741,16.586-60.81-35.116,23.8-13.737,30.487-17.607,48.967-28.264,2.323,1.351,1.466.84,5.5,3.179,7.56,4.365,1.515.873,2.207,1.285,4.678,2.7,6.918,3.986,2.256,1.3,3.014,1.729,10.9,6.308,3.937,2.273Z" transform="translate(11.62 -222.268)" fill="#449c6e"/>
          <path id="Trazado_659963" data-name="Trazado 659963" d="M61.174,281.345c-1.485,0-3.379-1.479-4.6-3.594-1.563-2.711-1.627-5.613-.144-6.47a1.814,1.814,0,0,1,.932-.236c1.485,0,3.379,1.477,4.6,3.594a8.38,8.38,0,0,1,1.21,3.989,2.657,2.657,0,0,1-1.064,2.481A1.854,1.854,0,0,1,61.174,281.345Z" transform="translate(15.121 -175.985)" fill="#4f4334"/>
          <path id="Trazado_659964" data-name="Trazado 659964" d="M58.343,276.983c-1.319-2.284-1.557-4.689-.717-5.907a2.516,2.516,0,0,0-.265-.031,1.814,1.814,0,0,0-.932.236c-1.483.858-1.419,3.759.144,6.47,1.222,2.115,3.116,3.594,4.6,3.594a1.854,1.854,0,0,0,.932-.236,1.819,1.819,0,0,0,.567-.563C61.233,280.386,59.492,278.975,58.343,276.983Z" transform="translate(15.121 -175.985)" fill="#bf9963"/>
          <g id="Grupo_986846-2" data-name="Grupo 986846" transform="translate(100.973 111.277)">
            <path id="Trazado_659965" data-name="Trazado 659965" d="M86.483,287.226l-13.264-7.659A1.476,1.476,0,0,0,71,280.845v5.936a3.562,3.562,0,0,0,1.781,3.087l13.262,7.659a1.477,1.477,0,0,0,2.216-1.278v-5.936A3.563,3.563,0,0,0,86.483,287.226Z" transform="translate(-71.005 -279.366)" fill="#8ca9ad"/>
            <path id="Trazado_659966" data-name="Trazado 659966" d="M71.934,280.462l5.6,3.235v6.5l-5.6-3.235Z" transform="translate(-70.124 -278.326)" fill="#434041"/>
            <path id="Trazado_659967" data-name="Trazado 659967" d="M72.472,280.352l.873.5v2.984l-.873-.5Z" transform="translate(-69.613 -278.43)" fill="#8ca9ad"/>
            <path id="Trazado_659968" data-name="Trazado 659968" d="M73.232,284.133l1.111.641v1.29l-1.111-.642Z" transform="translate(-68.892 -274.843)" fill="#8ca9ad"/>
            <path id="Trazado_659969" data-name="Trazado 659969" d="M73.8,282.173l1.963,1.133v2.278L73.8,284.452Z" transform="translate(-68.351 -276.703)" fill="#8ca9ad"/>
            <path id="Trazado_659970" data-name="Trazado 659970" d="M72.1,282.8l1.436.829v1.666l-1.436-.829Z" transform="translate(-69.963 -276.111)" fill="#8ca9ad"/>
            <path id="Trazado_659971" data-name="Trazado 659971" d="M73.091,282.524l.692.4v.8l-.692-.4Z" transform="translate(-69.025 -276.37)" fill="#8ca9ad"/>
            <path id="Trazado_659972" data-name="Trazado 659972" d="M73.447,281.3l.693.4V283l-.693-.4Z" transform="translate(-68.688 -277.528)" fill="#8ca9ad"/>
            <path id="Trazado_659973" data-name="Trazado 659973" d="M73.8,283.791l.692.4v1.295l-.692-.4Z" transform="translate(-68.351 -275.168)" fill="#8ca9ad"/>
            <path id="Trazado_659974" data-name="Trazado 659974" d="M72.307,282.084l.692.4v.8l-.692-.4Z" transform="translate(-69.769 -276.788)" fill="#8ca9ad"/>
            <path id="Trazado_659975" data-name="Trazado 659975" d="M72.84,283.015l.346.2v.4l-.346-.2Z" transform="translate(-69.263 -275.904)" fill="#8ca9ad"/>
            <path id="Trazado_659976" data-name="Trazado 659976" d="M73.447,282.524l.346.2v.4l-.346-.2Z" transform="translate(-68.688 -276.37)" fill="#8ca9ad"/>
            <path id="Trazado_659977" data-name="Trazado 659977" d="M72.663,282.7l.346.2v.4l-.346-.2Z" transform="translate(-69.432 -276.201)" fill="#8ca9ad"/>
            <path id="Trazado_659978" data-name="Trazado 659978" d="M72.4,282.253l.346.2v.4l-.346-.2Z" transform="translate(-69.685 -276.628)" fill="#434041"/>
            <path id="Trazado_659979" data-name="Trazado 659979" d="M74.231,284.454l1.126.65v1.307l-1.126-.65Z" transform="translate(-67.944 -274.538)" fill="#8ca9ad"/>
            <path id="Trazado_659980" data-name="Trazado 659980" d="M74.375,284.728l.563.325v.653l-.563-.325Z" transform="translate(-67.807 -274.278)" fill="#434041"/>
            <path id="Trazado_659981" data-name="Trazado 659981" d="M73.018,283.029l.145.084v.168l-.145-.084Z" transform="translate(-69.095 -275.891)" fill="#8ca9ad"/>
            <path id="Trazado_659982" data-name="Trazado 659982" d="M72.944,282.9l.145.084v.168l-.145-.084Z" transform="translate(-69.165 -276.013)" fill="#8ca9ad"/>
            <path id="Trazado_659983" data-name="Trazado 659983" d="M73.018,282.856l.145.084v.168l-.145-.084Z" transform="translate(-69.095 -276.055)" fill="#8ca9ad"/>
            <path id="Trazado_659984" data-name="Trazado 659984" d="M73.447,283.142l.693.4v.8l-.693-.4Z" transform="translate(-68.688 -275.784)" fill="#8ca9ad"/>
            <path id="Trazado_659985" data-name="Trazado 659985" d="M72.248,283.047l.874.5v1.014l-.874-.5Z" transform="translate(-69.826 -275.874)" fill="#434041"/>
            <path id="Trazado_659986" data-name="Trazado 659986" d="M72.248,280.97l.874.5v1.014l-.874-.5Z" transform="translate(-69.826 -277.844)" fill="#434041"/>
            <path id="Trazado_659987" data-name="Trazado 659987" d="M72.757,281.753l.873.5v1.014l-.873-.5Z" transform="translate(-69.343 -277.102)" fill="#434041"/>
            <path id="Trazado_659988" data-name="Trazado 659988" d="M74.081,282.858l.874.5v1.014l-.874-.5Z" transform="translate(-68.086 -276.053)" fill="#434041"/>
            <path id="Trazado_659989" data-name="Trazado 659989" d="M73.892,282.407l1.785,1.065v1.014l-1.785-1.065Z" transform="translate(-68.265 -276.481)" fill="#434041"/>
            <path id="Trazado_659990" data-name="Trazado 659990" d="M72.774,281.106l1.785,1.065v1.014l-1.785-1.065Z" transform="translate(-69.326 -277.715)" fill="#434041"/>
            <path id="Trazado_659991" data-name="Trazado 659991" d="M75.66,282.668l5.6,3.235v.924l-5.6-3.235Z" transform="translate(-66.588 -276.233)" fill="#434041"/>
            <path id="Trazado_659992" data-name="Trazado 659992" d="M75.66,283.6l5.6,3.235v.39l-5.6-3.235Z" transform="translate(-66.588 -275.35)" fill="#434041"/>
            <path id="Trazado_659993" data-name="Trazado 659993" d="M75.66,284.16l5.6,3.235v.39l-5.6-3.235Z" transform="translate(-66.588 -274.817)" fill="#434041"/>
            <path id="Trazado_659994" data-name="Trazado 659994" d="M75.66,284.723l5.6,3.235v.39l-5.6-3.235Z" transform="translate(-66.588 -274.284)" fill="#434041"/>
            <path id="Trazado_659995" data-name="Trazado 659995" d="M75.66,285.743l2.582,1.494v.389l-2.582-1.494Z" transform="translate(-66.588 -273.316)" fill="#434041"/>
          </g>
          <path id="Trazado_659996" data-name="Trazado 659996" d="M103.717,275.027a27.344,27.344,0,0,1,1.809-25.133c5.237-8.912,14.85-15.9,26.865-20.5l-7.56-4.366c-11.892,5.192-21.4,12.617-26.832,21.841a32.772,32.772,0,0,0-3.114,27.524c.29.883.614,1.752.937,2.623a48.593,48.593,0,0,0,12.461,17.041l6.677-3.841A42.272,42.272,0,0,1,103.717,275.027Z" transform="translate(51.007 -219.651)" fill="#edf7ff"/>
          <path id="Trazado_659997" data-name="Trazado 659997" d="M128.364,230.637c-4.656,3.707-11.157,7.686-13.917,12.387-5.124,8.731-6.48,16.733-3.43,26.045.29.883.624,1.752.949,2.623a38.807,38.807,0,0,0,2.321,4.679l4.2-2.422,2.6-1.5.033-.021c-.458-.895-.883-1.811-1.263-2.727-3.506-8.5-2.565-15.671,2.1-23.653,2.569-4.366,8.869-8.045,13.313-11.428Z" transform="translate(66.407 -214.327)" fill="#edf7ff"/>
          <path id="Trazado_659998" data-name="Trazado 659998" d="M108.8,267.185c-.581-2.949-1.027-5.862-1.317-8.71h-.012l-6.4,3.683q.62,4.221,1.608,8.565c.15.645.329,1.3.491,1.945l6.057-3.5C109.083,268.509,108.929,267.844,108.8,267.185Z" transform="translate(58.497 -187.911)" fill="#add1db"/>
          <path id="Trazado_659999" data-name="Trazado 659999" d="M119.86,260.794c-.581-2.949-1.027-5.862-1.317-8.71h-.012l-6.4,3.685q.62,4.218,1.608,8.563c.15.645.329,1.3.491,1.947l6.057-3.5C120.145,262.119,119.991,261.452,119.86,260.794Z" transform="translate(68.994 -193.977)" fill="#add1db"/>
        </g>
        <path id="Trazado_660000" data-name="Trazado 660000" d="M118.082,296.3l3.095-1.785,19.674-11.356,4.254-2.458v-14.93c-4.249.24-4.582-3.481-7.846-3.477a7.714,7.714,0,0,0-5.716,1.91c-1.006.972-1.2,2.537-2.372,3.411a3.886,3.886,0,0,1-1.2.544,10.581,10.581,0,0,0-1.729.626,7.121,7.121,0,0,0-3.707,4.974c-.066.325-.1.647-.154.972a3.582,3.582,0,0,1-1.177-.548c-1.236-.889-6.989,1.06-8.635,1.011a7.522,7.522,0,0,0-5.716,1.91c-1,.973-1.2,2.537-2.372,3.411a3.839,3.839,0,0,1-1.2.544,10.584,10.584,0,0,0-1.729.626,7.124,7.124,0,0,0-3.707,4.974,38.292,38.292,0,0,0-.493,11.218c.148,1.581.148,3.886.329,6.01a14.587,14.587,0,0,0,.641,3.658c.016.045.043.094.06.138l.2-.115,2.009-1.162Z" transform="translate(54.778 -184.285)" fill="#cca08b" style="mix-blend-mode: multiply;isolation: isolate"/>
        <path id="Trazado_660115" data-name="Trazado 660115" d="M139.653,301.139a6.767,6.767,0,0,1-.932,4.056c-.372.487-1.121,1.308-1.8,1.278a1.726,1.726,0,0,1-1.3-1.037,1.817,1.817,0,0,0-1.419-.871,2.375,2.375,0,0,0-.8.084,23.3,23.3,0,0,0-3.88,1.045,6.824,6.824,0,0,0-2.539,1.208c-.9.9-1.45,2.091-2.487,2.871a4.516,4.516,0,0,1-3.691.871,18.359,18.359,0,0,1-3.773-1.5,4.663,4.663,0,0,0-.694,2.982c.031.055.057.109.09.164.171.29.361.557.54.838a19.218,19.218,0,0,0,3.9,1.547,16.294,16.294,0,0,0,3.5.542,19.436,19.436,0,0,0,5.944-.867c2.808-.78,6.4-2.029,8.111-4.58C140.111,307.258,139.783,304.06,139.653,301.139Z" transform="translate(72.958 -147.429)" fill="#367c58"/>
        <g id="Grupo_986889" data-name="Grupo 986889" transform="translate(184.501 81.491)">
          <path id="Trazado_660058" data-name="Trazado 660058" d="M147.173,331.643c-1.713,2.553-5.3,3.806-8.121,4.58-1.943.544,5.472,2.376,3.463,2.309a17.765,17.765,0,0,1-3.492-.544c-5.831-1.565-19.818-7.433-23.737-11.781a43.244,43.244,0,0,1-5.239-6.819,32.466,32.466,0,0,1-4.067-10.062c-.117-.5-1.631-7.133-1.532-7.148-.446.049-.891.082-1.335.115a90.666,90.666,0,0,1-5.484-8.121l30.486-17.606c.3,1.119.592,2.239.939,3.327.971,2.982,1.68,6.209,3.426,8.877,2.339,3.607,4.759,7.626,7.84,10.641,2.8,2.75,4.66,7,5.995,10.69a34.385,34.385,0,0,1,2.025,11.578C148.358,324.924,149.116,328.745,147.173,331.643Z" transform="translate(-97.629 -260.667)" fill="url(#linear-gradient-3)"/>
          <g id="Grupo_986875" data-name="Grupo 986875" transform="translate(6.607)">
            <g id="Grupo_986866" data-name="Grupo 986866">
              <g id="Grupo_986865" data-name="Grupo 986865">
                <g id="Grupo_986863" data-name="Grupo 986863">
                  <path id="Trazado_660059" data-name="Trazado 660059" d="M152.933,340.818c-1.713,2.551-5.3,3.8-8.105,4.578a19.259,19.259,0,0,1-5.946.873,15.8,15.8,0,0,1-3.508-.544c-5.813-1.547-10.391-5.979-14.328-10.345a41.354,41.354,0,0,1-5.223-6.8,32.564,32.564,0,0,1-4.067-10.08c-.115-.5-1.647-7.115-1.532-7.148-.444.049-.906.082-1.351.133-.577-.809-1.2-1.68-1.846-2.571-.774-1.087-1.563-2.224-2.288-3.342a29.6,29.6,0,0,1-1.994-3.492c-.214-.462-.411-.891-.559-1.317a14.581,14.581,0,0,1-.643-3.658c-.181-2.124-.181-4.43-.329-6.01a38.294,38.294,0,0,1,.5-11.218,7.122,7.122,0,0,1,3.7-4.974,10.541,10.541,0,0,1,1.731-.626,3.86,3.86,0,0,0,1.2-.544c1.169-.873,1.366-2.438,2.372-3.409a7.511,7.511,0,0,1,5.714-1.912c1.647.051,2.6,1.269,3.837,2.157,1.731,1.236,3.51.363,5.338,1.154,1.861.791,2.042,2.668,3.194,4.1.824,1.039,1.779,2.076,2.553,3.2a10.115,10.115,0,0,1,1.351,2.535c.807,2.4,1.317,5.057,2.124,7.511.972,2.982,1.68,6.227,3.411,8.895,2.354,3.607,4.777,7.61,7.856,10.641,2.8,2.732,4.644,6.983,5.979,10.672a34.556,34.556,0,0,1,2.042,11.578C154.134,334.1,154.876,337.936,152.933,340.818Z" transform="translate(-101.019 -268.408)" fill="#c5d3ed"/>
                </g>
                <path id="Trazado_660060" data-name="Trazado 660060" d="M129.191,279.02l-6.7,8.663s-3.112,14.1-10.639,6.589c-7.511-7.511-8.548-17.723-8.548-17.723a17.319,17.319,0,0,1,1.68-2.272,3.86,3.86,0,0,0,1.2-.544c1.169-.873,1.366-2.438,2.372-3.409a7.511,7.511,0,0,1,5.714-1.912c1.647.051,2.6,1.269,3.837,2.157,1.731,1.236,3.51.363,5.338,1.154,1.861.791,2.042,2.668,3.194,4.1C127.462,276.862,128.417,277.9,129.191,279.02Z" transform="translate(-98.854 -268.408)" fill="#449c6e"/>
                <path id="Trazado_660061" data-name="Trazado 660061" d="M118.063,282.275a62.085,62.085,0,0,0-8.943,9.817c-.774,1.054-1.481,2.14-2.157,3.212-.626,1-1.218,2.025-1.746,3.046-.774-1.087-1.563-2.224-2.288-3.342.511-.891,1.054-1.764,1.629-2.637.462-.692.939-1.366,1.434-2.042a65.347,65.347,0,0,1,9.832-10.787Z" transform="translate(-99.207 -257.844)" fill="#367c58"/>
                <path id="Trazado_660062" data-name="Trazado 660062" d="M114.778,279.3a59.8,59.8,0,0,0-8.943,9.817q-1.161,1.581-2.175,3.212c-.411.674-.807,1.333-1.169,2.009-.214-.462-.411-.891-.559-1.317a14.58,14.58,0,0,1-.643-3.658c.462-.674.906-1.349,1.4-2.007a65.524,65.524,0,0,1,9.848-10.789Z" transform="translate(-100.764 -260.667)" fill="#367c58"/>
                <path id="Trazado_660063" data-name="Trazado 660063" d="M119.309,272.055c-2.214-.437-3.411-2.945-5.854-2.849a6.372,6.372,0,0,0-4.463,2.321,20.689,20.689,0,0,1-2.122,2.8,13.36,13.36,0,0,0-1.951,1.66,17.821,17.821,0,0,0-1.2,4.424c-.754,5.784,5.408,11.742,10.329,14.878.785-2.146-.719-6.655-.7-8.941.008-1.167-.992-2.294-.269-3.21a3.693,3.693,0,0,1,1.15-.894c3.034-1.655,6.751-1.329,10.05-2.356.869-.271,1.836-.8,1.929-1.7a2.505,2.505,0,0,0-.46-1.452c-.811-1.4-1.547-4.213-3.336-4.338A24.82,24.82,0,0,1,119.309,272.055Z" transform="translate(-98.522 -267.654)" fill="#285d42"/>
                <path id="Trazado_660064" data-name="Trazado 660064" d="M106.67,284.518a20.45,20.45,0,0,0,2.122-2.8,6.387,6.387,0,0,1,4.463-2.321c1.565-.06,2.621.943,3.757,1.791,2.313-.516,4.783-.59,7.059-1.3.869-.271,1.836-.8,1.929-1.7a2.506,2.506,0,0,0-.46-1.452c-.811-1.4-1.547-4.215-3.336-4.338a24.819,24.819,0,0,1-3.095-.343c-2.214-.437-3.411-2.945-5.854-2.849a6.372,6.372,0,0,0-4.463,2.321,20.688,20.688,0,0,1-2.122,2.8,13.36,13.36,0,0,0-1.951,1.66,4.612,4.612,0,0,0-.744,2.2,15.351,15.351,0,0,0,1.05,7.657C105.521,285.354,106.148,284.991,106.67,284.518Z" transform="translate(-98.323 -267.654)" fill="#367c58"/>
                <path id="Trazado_660065" data-name="Trazado 660065" d="M151.419,329.412a1.727,1.727,0,0,1-1.3-1.037,1.818,1.818,0,0,0-1.419-.871,2.374,2.374,0,0,0-.8.084,23.344,23.344,0,0,0-3.88,1.045,6.823,6.823,0,0,0-2.539,1.208c-.9.9-1.45,2.091-2.487,2.871a4.516,4.516,0,0,1-3.691.871c-5.817-1.557-10.4-5.989-14.326-10.343a42.658,42.658,0,0,1-5.235-6.809,32.964,32.964,0,0,1-4.067-10.07c-.115-.491-1.639-7.121-1.526-7.147-.446.043-.9.08-1.345.119-2.3-3.233-5.472-7.359-6.694-10.715-.891-2.446-.727-7.069-.965-9.663-.062-.674-.027-1.325-.058-1.992a42.628,42.628,0,0,0,.123,6.016c.236,2.6.074,7.219.965,9.665,1.222,3.354,4.391,7.48,6.692,10.713.448-.039.9-.076,1.347-.117-.113.023,1.411,6.653,1.526,7.147a32.929,32.929,0,0,0,4.065,10.068,42.79,42.79,0,0,0,5.235,6.809c3.925,4.356,8.511,8.788,14.328,10.345a16.172,16.172,0,0,0,3.5.542,19.437,19.437,0,0,0,5.944-.867c2.808-.78,6.4-2.029,8.111-4.58,1.686-2.506,1.358-5.7,1.228-8.626a6.767,6.767,0,0,1-.932,4.056C152.847,328.621,152.1,329.441,151.419,329.412Z" transform="translate(-101.007 -260.29)" fill="#285d42"/>
                <path id="Trazado_660066" data-name="Trazado 660066" d="M103.494,280.659c-.23-1.481-1-7.287.361-8.135,1.848-1.154,1.331,1.684,1.37,2.744a24.463,24.463,0,0,0,1.953,9.2,13.663,13.663,0,0,0,.871,1.676,9.563,9.563,0,0,0,2.752,2.96,1.5,1.5,0,0,1,.431.364c.168.247,3.911,3.138,3.9,3.438C115.1,293.428,104.827,289.255,103.494,280.659Z" transform="translate(-99.074 -264.76)" fill="#449c6e"/>
                <path id="Trazado_660067" data-name="Trazado 660067" d="M143.58,327.682c-.082.1-.148.2-.23.3-1.532,1.729-4.892,2.738-7.082,3.249-2.982.674-9.776,1.489-18.134-9.29a63.789,63.789,0,0,1-5.517-8.943,20.365,20.365,0,0,1-2.75-8.037c-.314-3.592-.084-7.2-.148-10.789-.018-.922-.066-1.861-.133-2.783-.082-1.351-.2-2.686-.38-4.019-.148-1.154-.427-2.29-.559-3.444-.248-2.173-.758-4.956.559-6.9.661-.971,1.961-1.086,3.3-.988a19.189,19.189,0,0,0,6.439-.1,21.754,21.754,0,0,0,2.849-1.006,29.287,29.287,0,0,1,2.867-1.45c1.729-.526,1.762,2.142,1.992,3.327a25.816,25.816,0,0,1,.232,5.042v.1a19.74,19.74,0,0,0,.082,2.423c0,.049.018.082.018.131.016.2.033.413.033.626a5.178,5.178,0,0,1,.049.692.6.6,0,0,0,.016.166,34.376,34.376,0,0,0,.247,3.656c.018.133.049.263.066.4.429,2.4,2.575,4.71,4.106,6.687a107.68,107.68,0,0,1,7.653,10.822,62.834,62.834,0,0,1,3.081,6.012,14.587,14.587,0,0,1,1.333,3.722C144.126,320.553,145.558,324.782,143.58,327.682Z" transform="translate(-94.073 -263.66)" fill="#fafafa"/>
                <path id="Trazado_660068" data-name="Trazado 660068" d="M130.191,307.773s-8.121,5.287-10.493-2.438a115.089,115.089,0,0,0-5.147-13.609s-1.3-1.263-4.966-.341c-.082-1.351-.2-2.686-.38-4.019-.148-1.154-.427-2.29-.559-3.444-.248-2.173-.758-4.956.559-6.9.661-.971,1.961-1.086,3.3-.988a19.189,19.189,0,0,0,6.439-.1,21.754,21.754,0,0,0,2.849-1.006,29.287,29.287,0,0,1,2.867-1.45c1.729-.526,1.762,2.142,1.992,3.327a25.816,25.816,0,0,1,.232,5.042v.1c.016.3.033,1.22.1,2.553.016.2.033.413.033.626l.049.692a.6.6,0,0,0,.016.166c.066,1.2-1.241.912-.893,4.5a29.628,29.628,0,0,0,4.319,12.592C132.91,306.441,130.191,307.773,130.191,307.773Z" transform="translate(-94.073 -263.66)" fill="#449c6e"/>
                <path id="Trazado_660069" data-name="Trazado 660069" d="M123.072,294.283c.1.164.214.329.329.493,2.4,3.362-.312,4.695-.312,4.695a11.078,11.078,0,0,1-1.006.559c-.312.148-.674.314-1.087.479a8.527,8.527,0,0,1-4.266.641,5.762,5.762,0,0,1-.906-.23c2.916.248,5.979-1.746,5.979-1.746s2.719-1.317.314-4.695c-1.762-2.454-2.686-6.735-3.163-11.6a1.639,1.639,0,0,1,.133-.707v-.016Z" transform="translate(-86.971 -255.358)" fill="#367c58"/>
                <g id="Grupo_986864" data-name="Grupo 986864" transform="translate(14.267 9.753)">
                  <path id="Trazado_660070" data-name="Trazado 660070" d="M111.761,289.793c-.051-.659-.133-1.317-.214-1.976-.148-1.154-.429-2.29-.561-3.444-.248-2.173-.756-4.958.561-6.9.659-.971,1.959-1.087,3.294-.988.263.018.544.051.807.066a2.248,2.248,0,0,0-1.335-1.631.288.288,0,0,0-.115-.016c-.559-.033-1.119-.082-1.7-.133-1.335-.1-2.635.018-3.3.988-1.317,1.945-.807,4.728-.559,6.9.133,1.152.411,2.288.559,3.442.181,1.333.3,2.668.38,4.019Z" transform="translate(-108.339 -272.15)" fill="#bddccc"/>
                  <path id="Trazado_660071" data-name="Trazado 660071" d="M111.547,287.614c-.148-1.154-.429-2.29-.561-3.444-.244-2.155-.744-4.909.534-6.852-.179-1.2-.5-2.6-1.719-2.329a2.005,2.005,0,0,0-.594.567c-1.317,1.945-.807,4.728-.559,6.9.133,1.154.411,2.29.559,3.444.181,1.333.3,2.668.38,4.019l2.175-.329C111.71,288.931,111.628,288.273,111.547,287.614Z" transform="translate(-108.339 -271.948)" fill="#367c58"/>
                  <path id="Trazado_660072" data-name="Trazado 660072" d="M120.079,275.423c-.776.362-1.549.891-2.307,1.22-.411.181-.822.345-1.251.5a4.376,4.376,0,0,0-1.481-2.044c.131-.049.263-.115.394-.164a29.279,29.279,0,0,1,2.867-1.45C119.5,273.117,119.88,274.287,120.079,275.423Z" transform="translate(-101.982 -273.413)" fill="#bddccc"/>
                  <path id="Trazado_660073" data-name="Trazado 660073" d="M119.017,298.135a114.919,114.919,0,0,0-5.147-13.609s-1.46-1.688-2.343-1.717c.986,2.282,3.533,8.363,5.147,13.609.733,2.384,2.011,3.524,3.432,3.966A7.418,7.418,0,0,1,119.017,298.135Z" transform="translate(-105.315 -264.496)" fill="#367c58"/>
                </g>
              </g>
            </g>
            <g id="Grupo_986867" data-name="Grupo 986867" transform="translate(18.183 29.165)">
              <path id="Trazado_660074" data-name="Trazado 660074" d="M111.781,286.635a1.938,1.938,0,0,1-1.191-1.3c-.333-.883-.208-1.75.277-1.933a.548.548,0,0,1,.288-.023,1.938,1.938,0,0,1,1.191,1.3,2.522,2.522,0,0,1,.164,1.247.8.8,0,0,1-.44.686A.548.548,0,0,1,111.781,286.635Z" transform="translate(-110.297 -283.373)" fill="#bf7044"/>
              <path id="Trazado_660075" data-name="Trazado 660075" d="M111.641,286.524a1.827,1.827,0,0,1-1.119-1.216c-.31-.83-.195-1.643.259-1.812a.525.525,0,0,1,.271-.023,1.816,1.816,0,0,1,1.117,1.216,2.362,2.362,0,0,1,.154,1.169.751.751,0,0,1-.411.643A.526.526,0,0,1,111.641,286.524Z" transform="translate(-110.349 -283.287)" fill="#a83c00"/>
              <path id="Trazado_660076" data-name="Trazado 660076" d="M111.44,285.935a1.352,1.352,0,0,1-.83-.9c-.23-.616-.144-1.218.193-1.345a.366.366,0,0,1,.2-.016,1.345,1.345,0,0,1,.828.9,1.759,1.759,0,0,1,.113.867.56.56,0,0,1-.306.477A.4.4,0,0,1,111.44,285.935Z" transform="translate(-110.223 -283.094)" fill="#6f6f6f"/>
              <path id="Trazado_660077" data-name="Trazado 660077" d="M111,284.935a1.273,1.273,0,0,1,.055-1.245.339.339,0,0,0-.055-.016.366.366,0,0,0-.2.016c-.337.127-.423.729-.193,1.345a1.352,1.352,0,0,0,.83.9.349.349,0,0,0,.337-.113A1.422,1.422,0,0,1,111,284.935Z" transform="translate(-110.223 -283.094)" fill="#682c02"/>
            </g>
            <g id="Grupo_986868" data-name="Grupo 986868" transform="translate(20.213 35.145)">
              <path id="Trazado_660078" data-name="Trazado 660078" d="M112.824,289.7a1.944,1.944,0,0,1-1.193-1.3c-.331-.883-.209-1.75.277-1.931a.548.548,0,0,1,.288-.025,1.942,1.942,0,0,1,1.191,1.3,2.522,2.522,0,0,1,.164,1.247.8.8,0,0,1-.439.684A.552.552,0,0,1,112.824,289.7Z" transform="translate(-111.339 -286.442)" fill="#bf7044"/>
              <path id="Trazado_660079" data-name="Trazado 660079" d="M112.683,289.592a1.823,1.823,0,0,1-1.119-1.216c-.31-.828-.195-1.641.259-1.812a.526.526,0,0,1,.271-.023,1.827,1.827,0,0,1,1.119,1.216,2.392,2.392,0,0,1,.152,1.171.757.757,0,0,1-.411.643A.526.526,0,0,1,112.683,289.592Z" transform="translate(-111.391 -286.356)" fill="#a83c00"/>
              <path id="Trazado_660080" data-name="Trazado 660080" d="M112.481,289a1.353,1.353,0,0,1-.828-.9c-.232-.614-.144-1.216.191-1.343a.386.386,0,0,1,.2-.017,1.345,1.345,0,0,1,.828.9,1.756,1.756,0,0,1,.113.867.555.555,0,0,1-.3.476A.386.386,0,0,1,112.481,289Z" transform="translate(-111.265 -286.162)" fill="#6f6f6f"/>
              <path id="Trazado_660081" data-name="Trazado 660081" d="M112.045,288a1.276,1.276,0,0,1,.055-1.247.564.564,0,0,0-.055-.016.386.386,0,0,0-.2.017c-.335.127-.423.729-.191,1.343a1.353,1.353,0,0,0,.828.9.35.35,0,0,0,.337-.115A1.418,1.418,0,0,1,112.045,288Z" transform="translate(-111.265 -286.162)" fill="#682c02"/>
            </g>
            <g id="Grupo_986869" data-name="Grupo 986869" transform="translate(22.048 40.029)">
              <path id="Trazado_660082" data-name="Trazado 660082" d="M113.766,292.211a1.944,1.944,0,0,1-1.193-1.3c-.331-.883-.209-1.75.277-1.931a.549.549,0,0,1,.288-.025,1.943,1.943,0,0,1,1.191,1.3,2.525,2.525,0,0,1,.164,1.247.8.8,0,0,1-.44.686A.564.564,0,0,1,113.766,292.211Z" transform="translate(-112.28 -288.948)" fill="#bf7044"/>
              <path id="Trazado_660083" data-name="Trazado 660083" d="M113.626,292.1a1.822,1.822,0,0,1-1.119-1.216c-.312-.828-.195-1.643.259-1.813a.527.527,0,0,1,.271-.023,1.817,1.817,0,0,1,1.117,1.216,2.362,2.362,0,0,1,.154,1.169.755.755,0,0,1-.411.643A.526.526,0,0,1,113.626,292.1Z" transform="translate(-112.332 -288.862)" fill="#a83c00"/>
              <path id="Trazado_660084" data-name="Trazado 660084" d="M113.424,291.509a1.346,1.346,0,0,1-.828-.9c-.232-.614-.144-1.218.191-1.343a.385.385,0,0,1,.2-.018,1.345,1.345,0,0,1,.828.9,1.758,1.758,0,0,1,.113.867.559.559,0,0,1-.3.477A.368.368,0,0,1,113.424,291.509Z" transform="translate(-112.206 -288.668)" fill="#6f6f6f"/>
              <path id="Trazado_660085" data-name="Trazado 660085" d="M112.987,290.509a1.272,1.272,0,0,1,.055-1.245.335.335,0,0,0-.055-.016.385.385,0,0,0-.2.018c-.335.125-.423.729-.191,1.343a1.346,1.346,0,0,0,.828.9.368.368,0,0,0,.2-.016.383.383,0,0,0,.136-.1A1.417,1.417,0,0,1,112.987,290.509Z" transform="translate(-112.206 -288.668)" fill="#682c02"/>
            </g>
            <g id="Grupo_986870" data-name="Grupo 986870" transform="translate(24.09 44.664)">
              <path id="Trazado_660086" data-name="Trazado 660086" d="M115.223,294.409a1.937,1.937,0,0,1-1.409-1.056c-.489-.809-.526-1.684-.084-1.951a.56.56,0,0,1,.281-.076,1.941,1.941,0,0,1,1.409,1.056,2.525,2.525,0,0,1,.388,1.2.8.8,0,0,1-.306.754A.556.556,0,0,1,115.223,294.409Z" transform="translate(-113.34 -291.326)" fill="#bf7044"/>
              <path id="Trazado_660087" data-name="Trazado 660087" d="M115.068,294.321a1.828,1.828,0,0,1-1.321-.992c-.458-.756-.491-1.579-.076-1.828a.509.509,0,0,1,.261-.072,1.813,1.813,0,0,1,1.321.99,2.361,2.361,0,0,1,.364,1.123.756.756,0,0,1-.286.707A.536.536,0,0,1,115.068,294.321Z" transform="translate(-113.38 -291.228)" fill="#a83c00"/>
              <path id="Trazado_660088" data-name="Trazado 660088" d="M114.781,293.765a1.353,1.353,0,0,1-.98-.735c-.339-.561-.364-1.169-.057-1.356a.376.376,0,0,1,.193-.053,1.353,1.353,0,0,1,.98.735,1.751,1.751,0,0,1,.271.83.558.558,0,0,1-.214.524A.377.377,0,0,1,114.781,293.765Z" transform="translate(-113.239 -291.046)" fill="#6f6f6f"/>
              <path id="Trazado_660089" data-name="Trazado 660089" d="M114.169,292.862a1.276,1.276,0,0,1-.175-1.236c-.019,0-.039-.006-.057-.006a.376.376,0,0,0-.193.053c-.308.187-.283.8.057,1.356a1.353,1.353,0,0,0,.98.735.377.377,0,0,0,.193-.055.341.341,0,0,0,.117-.119A1.422,1.422,0,0,1,114.169,292.862Z" transform="translate(-113.239 -291.046)" fill="#682c02"/>
            </g>
            <g id="Grupo_986871" data-name="Grupo 986871" transform="translate(32.599 24.799)">
              <path id="Trazado_660090" data-name="Trazado 660090" d="M118.58,281.151a1.947,1.947,0,0,1,1.086,1.388c.261.906.068,1.762-.429,1.9a.536.536,0,0,1-.288,0,1.935,1.935,0,0,1-1.086-1.386,2.525,2.525,0,0,1-.064-1.257.8.8,0,0,1,.491-.649A.563.563,0,0,1,118.58,281.151Z" transform="translate(-117.746 -281.133)" fill="#bf7044"/>
              <path id="Trazado_660091" data-name="Trazado 660091" d="M118.652,281.173a1.818,1.818,0,0,1,1.019,1.3c.244.852.064,1.653-.4,1.787a.51.51,0,0,1-.271,0,1.821,1.821,0,0,1-1.017-1.3,2.371,2.371,0,0,1-.06-1.179.755.755,0,0,1,.462-.608A.51.51,0,0,1,118.652,281.173Z" transform="translate(-117.629 -281.112)" fill="#a83c00"/>
              <path id="Trazado_660092" data-name="Trazado 660092" d="M118.576,281.375a1.346,1.346,0,0,1,.754.963c.183.631.049,1.226-.3,1.325a.39.39,0,0,1-.2,0,1.348,1.348,0,0,1-.756-.963,1.78,1.78,0,0,1-.045-.873.561.561,0,0,1,.343-.452A.39.39,0,0,1,118.576,281.375Z" transform="translate(-117.508 -280.915)" fill="#6f6f6f"/>
              <path id="Trazado_660093" data-name="Trazado 660093" d="M118.819,282.406a1.281,1.281,0,0,1-.152,1.237.289.289,0,0,0,.053.02.39.39,0,0,0,.2,0c.345-.1.479-.694.3-1.325a1.346,1.346,0,0,0-.754-.963.39.39,0,0,0-.2,0,.4.4,0,0,0-.144.086A1.43,1.43,0,0,1,118.819,282.406Z" transform="translate(-117.394 -280.915)" fill="#682c02"/>
            </g>
            <g id="Grupo_986872" data-name="Grupo 986872" transform="translate(38.025 40.139)">
              <path id="Trazado_660094" data-name="Trazado 660094" d="M121.22,289.008a1.947,1.947,0,0,1,1.271,1.22c.386.863.314,1.737-.158,1.947a.56.56,0,0,1-.287.043A1.944,1.944,0,0,1,120.777,291a2.538,2.538,0,0,1-.24-1.236.8.8,0,0,1,.4-.711A.552.552,0,0,1,121.22,289.008Z" transform="translate(-120.53 -289.004)" fill="#bf7044"/>
              <path id="Trazado_660095" data-name="Trazado 660095" d="M121.3,289.014a1.825,1.825,0,0,1,1.191,1.146c.361.809.294,1.627-.148,1.826a.538.538,0,0,1-.269.039,1.822,1.822,0,0,1-1.191-1.146,2.379,2.379,0,0,1-.224-1.158.752.752,0,0,1,.372-.667A.517.517,0,0,1,121.3,289.014Z" transform="translate(-120.415 -288.997)" fill="#a83c00"/>
              <path id="Trazado_660096" data-name="Trazado 660096" d="M121.268,289.214a1.354,1.354,0,0,1,.883.85c.269.6.218,1.2-.109,1.353a.376.376,0,0,1-.2.029,1.35,1.35,0,0,1-.883-.85,1.737,1.737,0,0,1-.166-.858.558.558,0,0,1,.275-.495A.4.4,0,0,1,121.268,289.214Z" transform="translate(-120.284 -288.807)" fill="#6f6f6f"/>
              <path id="Trazado_660097" data-name="Trazado 660097" d="M121.692,290.185a1.284,1.284,0,0,1,.023,1.249.551.551,0,0,0,.055.012.376.376,0,0,0,.2-.029c.327-.148.378-.754.109-1.353a1.354,1.354,0,0,0-.883-.85.35.35,0,0,0-.329.134A1.418,1.418,0,0,1,121.692,290.185Z" transform="translate(-120.211 -288.807)" fill="#682c02"/>
            </g>
            <g id="Grupo_986873" data-name="Grupo 986873" transform="translate(36.552 35.203)">
              <path id="Trazado_660098" data-name="Trazado 660098" d="M120.565,286.484a1.943,1.943,0,0,1,1.14,1.343c.3.895.14,1.756-.351,1.92a.552.552,0,0,1-.288.014,1.947,1.947,0,0,1-1.14-1.343,2.511,2.511,0,0,1-.117-1.251.806.806,0,0,1,.466-.669A.561.561,0,0,1,120.565,286.484Z" transform="translate(-119.774 -286.471)" fill="#bf7044"/>
              <path id="Trazado_660099" data-name="Trazado 660099" d="M120.639,286.5a1.831,1.831,0,0,1,1.07,1.259c.279.84.131,1.649-.329,1.8a.528.528,0,0,1-.271.012,1.826,1.826,0,0,1-1.07-1.259,2.382,2.382,0,0,1-.109-1.175.754.754,0,0,1,.439-.626A.505.505,0,0,1,120.639,286.5Z" transform="translate(-119.657 -286.455)" fill="#a83c00"/>
              <path id="Trazado_660100" data-name="Trazado 660100" d="M120.576,286.7a1.357,1.357,0,0,1,.793.934c.207.624.1,1.222-.244,1.335a.387.387,0,0,1-.2.01,1.348,1.348,0,0,1-.793-.934,1.759,1.759,0,0,1-.08-.871.559.559,0,0,1,.324-.464A.407.407,0,0,1,120.576,286.7Z" transform="translate(-119.534 -286.259)" fill="#6f6f6f"/>
              <path id="Trazado_660101" data-name="Trazado 660101" d="M120.873,287.72a1.281,1.281,0,0,1-.1,1.243c.018.006.035.014.053.018a.387.387,0,0,0,.2-.01c.341-.113.45-.711.244-1.335a1.357,1.357,0,0,0-.793-.934.407.407,0,0,0-.2.01.364.364,0,0,0-.14.092A1.421,1.421,0,0,1,120.873,287.72Z" transform="translate(-119.433 -286.259)" fill="#682c02"/>
            </g>
            <g id="Grupo_986874" data-name="Grupo 986874" transform="translate(34.835 30.385)">
              <path id="Trazado_660102" data-name="Trazado 660102" d="M119.625,284.006a1.938,1.938,0,0,1,1.214,1.275c.349.877.24,1.746-.242,1.937a.542.542,0,0,1-.286.029,1.945,1.945,0,0,1-1.216-1.275,2.537,2.537,0,0,1-.185-1.245.8.8,0,0,1,.427-.692A.548.548,0,0,1,119.625,284.006Z" transform="translate(-118.893 -283.999)" fill="#bf7044"/>
              <path id="Trazado_660103" data-name="Trazado 660103" d="M119.7,284.017a1.821,1.821,0,0,1,1.14,1.2c.327.822.226,1.637-.226,1.816a.5.5,0,0,1-.269.027,1.813,1.813,0,0,1-1.14-1.195,2.378,2.378,0,0,1-.175-1.167.752.752,0,0,1,.4-.649A.517.517,0,0,1,119.7,284.017Z" transform="translate(-118.778 -283.988)" fill="#a83c00"/>
              <path id="Trazado_660104" data-name="Trazado 660104" d="M119.658,284.218a1.346,1.346,0,0,1,.846.887c.242.61.166,1.214-.168,1.347a.386.386,0,0,1-.2.02,1.345,1.345,0,0,1-.844-.885,1.75,1.75,0,0,1-.131-.865.56.56,0,0,1,.3-.481A.375.375,0,0,1,119.658,284.218Z" transform="translate(-118.651 -283.796)" fill="#6f6f6f"/>
              <path id="Trazado_660105" data-name="Trazado 660105" d="M120.029,285.21a1.278,1.278,0,0,1-.033,1.247.541.541,0,0,0,.055.014.386.386,0,0,0,.2-.02c.333-.133.409-.737.168-1.347a1.346,1.346,0,0,0-.846-.887.357.357,0,0,0-.335.121A1.419,1.419,0,0,1,120.029,285.21Z" transform="translate(-118.566 -283.796)" fill="#682c02"/>
            </g>
            <path id="Trazado_660106" data-name="Trazado 660106" d="M120.045,276.41c-.526.2-1.054.36-1.6.509a16.173,16.173,0,0,1-5.632.166,2.248,2.248,0,0,0-1.335-1.631.289.289,0,0,0-.115-.016c-.214,0,.511-.38.511-.38,6.012-1.152,6.357-.84,6.357-.84a1.028,1.028,0,0,1,.331.148A4.376,4.376,0,0,1,120.045,276.41Z" transform="translate(-91.24 -262.932)" fill="#fff3ed"/>
            <path id="Trazado_660107" data-name="Trazado 660107" d="M119.567,284.382l-2.734,1.236-4.266.411a68.732,68.732,0,0,0-.462-9.965.1.1,0,0,0-.016-.066,16.175,16.175,0,0,0,5.632-.166c.544-.148,1.072-.312,1.6-.509C119.83,276.493,119.567,284.382,119.567,284.382Z" transform="translate(-90.515 -261.846)" fill="#e3f0e9"/>
            <path id="Trazado_660108" data-name="Trazado 660108" d="M110.835,283.975a33.621,33.621,0,0,1,16.556,1.047,1.954,1.954,0,0,1,.676,2.232,56.765,56.765,0,0,0-16.834-1.126A3.181,3.181,0,0,1,110.835,283.975Z" transform="translate(-91.747 -254.193)" fill="#edf7ff"/>
            <path id="Trazado_660109" data-name="Trazado 660109" d="M112.73,289.572a53.561,53.561,0,0,1,16.47-.078c1.2.859.263,2.231.263,2.231a88.7,88.7,0,0,0-16.4.023A3.026,3.026,0,0,1,112.73,289.572Z" transform="translate(-89.976 -248.97)" fill="#d7e9f7"/>
            <path id="Trazado_660110" data-name="Trazado 660110" d="M113.639,296.3a35.831,35.831,0,0,1,13.124-9.552c1.2.859.265,2.231.265,2.231s-3.481,1.549-12.243,9.335A22.77,22.77,0,0,1,113.639,296.3Z" transform="translate(-89.044 -251.007)" fill="#edf7ff"/>
            <path id="Trazado_660111" data-name="Trazado 660111" d="M112.63,293.941a33.8,33.8,0,0,1,12.944-9.627,1.807,1.807,0,0,1,.746,2.062s-4.091,2.007-12.853,9.793A6.631,6.631,0,0,1,112.63,293.941Z" transform="translate(-90.001 -253.315)" fill="#d7e9f7"/>
            <path id="Trazado_660112" data-name="Trazado 660112" d="M111.723,291.88a28.237,28.237,0,0,1,12.52-10.518,1.81,1.81,0,0,1,.746,2.064s-3.666,2.9-12.428,10.684A6.634,6.634,0,0,1,111.723,291.88Z" transform="translate(-90.862 -256.116)" fill="#d7e9f7"/>
            <path id="Trazado_660113" data-name="Trazado 660113" d="M110.749,285.814s4.829-3.615,14.359-4.4a2.079,2.079,0,0,1,.8,2.2,40.585,40.585,0,0,0-14.527,4.444A4.684,4.684,0,0,1,110.749,285.814Z" transform="translate(-91.786 -256.068)" fill="#edf7ff"/>
            <path id="Trazado_660114" data-name="Trazado 660114" d="M111.755,287.073a53.527,53.527,0,0,1,16.47-.076,1.934,1.934,0,0,1,.569,2.3,88.7,88.7,0,0,0-16.4.023A4.667,4.667,0,0,1,111.755,287.073Z" transform="translate(-90.832 -251.341)" fill="#edf7ff"/>
          </g>
        </g>
        <g id="Grupo_986890" data-name="Grupo 986890" transform="translate(152.86 89.922)">
          <path id="Trazado_660058-2" data-name="Trazado 660058" d="M147.173,331.643c-1.713,2.553-5.3,3.806-8.121,4.58-1.943.544,5.472,2.376,3.463,2.309a17.765,17.765,0,0,1-3.492-.544c-5.831-1.565-19.818-7.433-23.737-11.781a43.244,43.244,0,0,1-5.239-6.819,32.466,32.466,0,0,1-4.067-10.062c-.117-.5-1.631-7.133-1.532-7.148-.446.049-.891.082-1.335.115a90.666,90.666,0,0,1-5.484-8.121l30.486-17.606c.3,1.119.592,2.239.939,3.327.971,2.982,1.68,6.209,3.426,8.877,2.339,3.607,4.759,7.626,7.84,10.641,2.8,2.75,4.66,7,5.995,10.69a34.385,34.385,0,0,1,2.025,11.578C148.358,324.924,149.116,328.745,147.173,331.643Z" transform="translate(-97.629 -260.667)" fill="url(#linear-gradient-3)"/>
          <g id="Grupo_986875-2" data-name="Grupo 986875" transform="translate(6.607)">
            <g id="Grupo_986866-2" data-name="Grupo 986866">
              <g id="Grupo_986865-2" data-name="Grupo 986865">
                <g id="Grupo_986863-2" data-name="Grupo 986863">
                  <path id="Trazado_660059-2" data-name="Trazado 660059" d="M152.933,340.818c-1.713,2.551-5.3,3.8-8.105,4.578a19.259,19.259,0,0,1-5.946.873,15.8,15.8,0,0,1-3.508-.544c-5.813-1.547-10.391-5.979-14.328-10.345a41.354,41.354,0,0,1-5.223-6.8,32.564,32.564,0,0,1-4.067-10.08c-.115-.5-1.647-7.115-1.532-7.148-.444.049-.906.082-1.351.133-.577-.809-1.2-1.68-1.846-2.571-.774-1.087-1.563-2.224-2.288-3.342a29.6,29.6,0,0,1-1.994-3.492c-.214-.462-.411-.891-.559-1.317a14.581,14.581,0,0,1-.643-3.658c-.181-2.124-.181-4.43-.329-6.01a38.294,38.294,0,0,1,.5-11.218,7.122,7.122,0,0,1,3.7-4.974,10.541,10.541,0,0,1,1.731-.626,3.86,3.86,0,0,0,1.2-.544c1.169-.873,1.366-2.438,2.372-3.409a7.511,7.511,0,0,1,5.714-1.912c1.647.051,2.6,1.269,3.837,2.157,1.731,1.236,3.51.363,5.338,1.154,1.861.791,2.042,2.668,3.194,4.1.824,1.039,1.779,2.076,2.553,3.2a10.115,10.115,0,0,1,1.351,2.535c.807,2.4,1.317,5.057,2.124,7.511.972,2.982,1.68,6.227,3.411,8.895,2.354,3.607,4.777,7.61,7.856,10.641,2.8,2.732,4.644,6.983,5.979,10.672a34.556,34.556,0,0,1,2.042,11.578C154.134,334.1,154.876,337.936,152.933,340.818Z" transform="translate(-101.019 -268.408)" fill="#c5d3ed"/>
                </g>
                <path id="Trazado_660060-2" data-name="Trazado 660060" d="M129.191,279.02l-6.7,8.663s-3.112,14.1-10.639,6.589c-7.511-7.511-8.548-17.723-8.548-17.723a17.319,17.319,0,0,1,1.68-2.272,3.86,3.86,0,0,0,1.2-.544c1.169-.873,1.366-2.438,2.372-3.409a7.511,7.511,0,0,1,5.714-1.912c1.647.051,2.6,1.269,3.837,2.157,1.731,1.236,3.51.363,5.338,1.154,1.861.791,2.042,2.668,3.194,4.1C127.462,276.862,128.417,277.9,129.191,279.02Z" transform="translate(-98.854 -268.408)" fill="#449c6e"/>
                <path id="Trazado_660061-2" data-name="Trazado 660061" d="M118.063,282.275a62.085,62.085,0,0,0-8.943,9.817c-.774,1.054-1.481,2.14-2.157,3.212-.626,1-1.218,2.025-1.746,3.046-.774-1.087-1.563-2.224-2.288-3.342.511-.891,1.054-1.764,1.629-2.637.462-.692.939-1.366,1.434-2.042a65.347,65.347,0,0,1,9.832-10.787Z" transform="translate(-99.207 -257.844)" fill="#367c58"/>
                <path id="Trazado_660062-2" data-name="Trazado 660062" d="M114.778,279.3a59.8,59.8,0,0,0-8.943,9.817q-1.161,1.581-2.175,3.212c-.411.674-.807,1.333-1.169,2.009-.214-.462-.411-.891-.559-1.317a14.58,14.58,0,0,1-.643-3.658c.462-.674.906-1.349,1.4-2.007a65.524,65.524,0,0,1,9.848-10.789Z" transform="translate(-100.764 -260.667)" fill="#367c58"/>
                <path id="Trazado_660063-2" data-name="Trazado 660063" d="M119.309,272.055c-2.214-.437-3.411-2.945-5.854-2.849a6.372,6.372,0,0,0-4.463,2.321,20.689,20.689,0,0,1-2.122,2.8,13.36,13.36,0,0,0-1.951,1.66,17.821,17.821,0,0,0-1.2,4.424c-.754,5.784,5.408,11.742,10.329,14.878.785-2.146-.719-6.655-.7-8.941.008-1.167-.992-2.294-.269-3.21a3.693,3.693,0,0,1,1.15-.894c3.034-1.655,6.751-1.329,10.05-2.356.869-.271,1.836-.8,1.929-1.7a2.505,2.505,0,0,0-.46-1.452c-.811-1.4-1.547-4.213-3.336-4.338A24.82,24.82,0,0,1,119.309,272.055Z" transform="translate(-98.522 -267.654)" fill="#285d42"/>
                <path id="Trazado_660064-2" data-name="Trazado 660064" d="M106.67,284.518a20.45,20.45,0,0,0,2.122-2.8,6.387,6.387,0,0,1,4.463-2.321c1.565-.06,2.621.943,3.757,1.791,2.313-.516,4.783-.59,7.059-1.3.869-.271,1.836-.8,1.929-1.7a2.506,2.506,0,0,0-.46-1.452c-.811-1.4-1.547-4.215-3.336-4.338a24.819,24.819,0,0,1-3.095-.343c-2.214-.437-3.411-2.945-5.854-2.849a6.372,6.372,0,0,0-4.463,2.321,20.688,20.688,0,0,1-2.122,2.8,13.36,13.36,0,0,0-1.951,1.66,4.612,4.612,0,0,0-.744,2.2,15.351,15.351,0,0,0,1.05,7.657C105.521,285.354,106.148,284.991,106.67,284.518Z" transform="translate(-98.323 -267.654)" fill="#367c58"/>
                <path id="Trazado_660065-2" data-name="Trazado 660065" d="M151.419,329.412a1.727,1.727,0,0,1-1.3-1.037,1.818,1.818,0,0,0-1.419-.871,2.374,2.374,0,0,0-.8.084,23.344,23.344,0,0,0-3.88,1.045,6.823,6.823,0,0,0-2.539,1.208c-.9.9-1.45,2.091-2.487,2.871a4.516,4.516,0,0,1-3.691.871c-5.817-1.557-10.4-5.989-14.326-10.343a42.658,42.658,0,0,1-5.235-6.809,32.964,32.964,0,0,1-4.067-10.07c-.115-.491-1.639-7.121-1.526-7.147-.446.043-.9.08-1.345.119-2.3-3.233-5.472-7.359-6.694-10.715-.891-2.446-.727-7.069-.965-9.663-.062-.674-.027-1.325-.058-1.992a42.628,42.628,0,0,0,.123,6.016c.236,2.6.074,7.219.965,9.665,1.222,3.354,4.391,7.48,6.692,10.713.448-.039.9-.076,1.347-.117-.113.023,1.411,6.653,1.526,7.147a32.929,32.929,0,0,0,4.065,10.068,42.79,42.79,0,0,0,5.235,6.809c3.925,4.356,8.511,8.788,14.328,10.345a16.172,16.172,0,0,0,3.5.542,19.437,19.437,0,0,0,5.944-.867c2.808-.78,6.4-2.029,8.111-4.58,1.686-2.506,1.358-5.7,1.228-8.626a6.767,6.767,0,0,1-.932,4.056C152.847,328.621,152.1,329.441,151.419,329.412Z" transform="translate(-101.007 -260.29)" fill="#285d42"/>
                <path id="Trazado_660066-2" data-name="Trazado 660066" d="M103.494,280.659c-.23-1.481-1-7.287.361-8.135,1.848-1.154,1.331,1.684,1.37,2.744a24.463,24.463,0,0,0,1.953,9.2,13.663,13.663,0,0,0,.871,1.676,9.563,9.563,0,0,0,2.752,2.96,1.5,1.5,0,0,1,.431.364c.168.247,3.911,3.138,3.9,3.438C115.1,293.428,104.827,289.255,103.494,280.659Z" transform="translate(-99.074 -264.76)" fill="#449c6e"/>
                <path id="Trazado_660067-2" data-name="Trazado 660067" d="M143.58,327.682c-.082.1-.148.2-.23.3-1.532,1.729-4.892,2.738-7.082,3.249-2.982.674-9.776,1.489-18.134-9.29a63.789,63.789,0,0,1-5.517-8.943,20.365,20.365,0,0,1-2.75-8.037c-.314-3.592-.084-7.2-.148-10.789-.018-.922-.066-1.861-.133-2.783-.082-1.351-.2-2.686-.38-4.019-.148-1.154-.427-2.29-.559-3.444-.248-2.173-.758-4.956.559-6.9.661-.971,1.961-1.086,3.3-.988a19.189,19.189,0,0,0,6.439-.1,21.754,21.754,0,0,0,2.849-1.006,29.287,29.287,0,0,1,2.867-1.45c1.729-.526,1.762,2.142,1.992,3.327a25.816,25.816,0,0,1,.232,5.042v.1a19.74,19.74,0,0,0,.082,2.423c0,.049.018.082.018.131.016.2.033.413.033.626a5.178,5.178,0,0,1,.049.692.6.6,0,0,0,.016.166,34.376,34.376,0,0,0,.247,3.656c.018.133.049.263.066.4.429,2.4,2.575,4.71,4.106,6.687a107.68,107.68,0,0,1,7.653,10.822,62.834,62.834,0,0,1,3.081,6.012,14.587,14.587,0,0,1,1.333,3.722C144.126,320.553,145.558,324.782,143.58,327.682Z" transform="translate(-94.073 -263.66)" fill="#fafafa"/>
                <path id="Trazado_660068-2" data-name="Trazado 660068" d="M130.191,307.773s-8.121,5.287-10.493-2.438a115.089,115.089,0,0,0-5.147-13.609s-1.3-1.263-4.966-.341c-.082-1.351-.2-2.686-.38-4.019-.148-1.154-.427-2.29-.559-3.444-.248-2.173-.758-4.956.559-6.9.661-.971,1.961-1.086,3.3-.988a19.189,19.189,0,0,0,6.439-.1,21.754,21.754,0,0,0,2.849-1.006,29.287,29.287,0,0,1,2.867-1.45c1.729-.526,1.762,2.142,1.992,3.327a25.816,25.816,0,0,1,.232,5.042v.1c.016.3.033,1.22.1,2.553.016.2.033.413.033.626l.049.692a.6.6,0,0,0,.016.166c.066,1.2-1.241.912-.893,4.5a29.628,29.628,0,0,0,4.319,12.592C132.91,306.441,130.191,307.773,130.191,307.773Z" transform="translate(-94.073 -263.66)" fill="#449c6e"/>
                <path id="Trazado_660069-2" data-name="Trazado 660069" d="M123.072,294.283c.1.164.214.329.329.493,2.4,3.362-.312,4.695-.312,4.695a11.078,11.078,0,0,1-1.006.559c-.312.148-.674.314-1.087.479a8.527,8.527,0,0,1-4.266.641,5.762,5.762,0,0,1-.906-.23c2.916.248,5.979-1.746,5.979-1.746s2.719-1.317.314-4.695c-1.762-2.454-2.686-6.735-3.163-11.6a1.639,1.639,0,0,1,.133-.707v-.016Z" transform="translate(-86.971 -255.358)" fill="#367c58"/>
                <g id="Grupo_986864-2" data-name="Grupo 986864" transform="translate(14.267 9.753)">
                  <path id="Trazado_660070-2" data-name="Trazado 660070" d="M111.761,289.793c-.051-.659-.133-1.317-.214-1.976-.148-1.154-.429-2.29-.561-3.444-.248-2.173-.756-4.958.561-6.9.659-.971,1.959-1.087,3.294-.988.263.018.544.051.807.066a2.248,2.248,0,0,0-1.335-1.631.288.288,0,0,0-.115-.016c-.559-.033-1.119-.082-1.7-.133-1.335-.1-2.635.018-3.3.988-1.317,1.945-.807,4.728-.559,6.9.133,1.152.411,2.288.559,3.442.181,1.333.3,2.668.38,4.019Z" transform="translate(-108.339 -272.15)" fill="#bddccc"/>
                  <path id="Trazado_660071-2" data-name="Trazado 660071" d="M111.547,287.614c-.148-1.154-.429-2.29-.561-3.444-.244-2.155-.744-4.909.534-6.852-.179-1.2-.5-2.6-1.719-2.329a2.005,2.005,0,0,0-.594.567c-1.317,1.945-.807,4.728-.559,6.9.133,1.154.411,2.29.559,3.444.181,1.333.3,2.668.38,4.019l2.175-.329C111.71,288.931,111.628,288.273,111.547,287.614Z" transform="translate(-108.339 -271.948)" fill="#367c58"/>
                  <path id="Trazado_660072-2" data-name="Trazado 660072" d="M120.079,275.423c-.776.362-1.549.891-2.307,1.22-.411.181-.822.345-1.251.5a4.376,4.376,0,0,0-1.481-2.044c.131-.049.263-.115.394-.164a29.279,29.279,0,0,1,2.867-1.45C119.5,273.117,119.88,274.287,120.079,275.423Z" transform="translate(-101.982 -273.413)" fill="#bddccc"/>
                  <path id="Trazado_660073-2" data-name="Trazado 660073" d="M119.017,298.135a114.919,114.919,0,0,0-5.147-13.609s-1.46-1.688-2.343-1.717c.986,2.282,3.533,8.363,5.147,13.609.733,2.384,2.011,3.524,3.432,3.966A7.418,7.418,0,0,1,119.017,298.135Z" transform="translate(-105.315 -264.496)" fill="#367c58"/>
                </g>
              </g>
            </g>
            <g id="Grupo_986867-2" data-name="Grupo 986867" transform="translate(18.183 29.165)">
              <path id="Trazado_660074-2" data-name="Trazado 660074" d="M111.781,286.635a1.938,1.938,0,0,1-1.191-1.3c-.333-.883-.208-1.75.277-1.933a.548.548,0,0,1,.288-.023,1.938,1.938,0,0,1,1.191,1.3,2.522,2.522,0,0,1,.164,1.247.8.8,0,0,1-.44.686A.548.548,0,0,1,111.781,286.635Z" transform="translate(-110.297 -283.373)" fill="#bf7044"/>
              <path id="Trazado_660075-2" data-name="Trazado 660075" d="M111.641,286.524a1.827,1.827,0,0,1-1.119-1.216c-.31-.83-.195-1.643.259-1.812a.525.525,0,0,1,.271-.023,1.816,1.816,0,0,1,1.117,1.216,2.362,2.362,0,0,1,.154,1.169.751.751,0,0,1-.411.643A.526.526,0,0,1,111.641,286.524Z" transform="translate(-110.349 -283.287)" fill="#a83c00"/>
              <path id="Trazado_660076-2" data-name="Trazado 660076" d="M111.44,285.935a1.352,1.352,0,0,1-.83-.9c-.23-.616-.144-1.218.193-1.345a.366.366,0,0,1,.2-.016,1.345,1.345,0,0,1,.828.9,1.759,1.759,0,0,1,.113.867.56.56,0,0,1-.306.477A.4.4,0,0,1,111.44,285.935Z" transform="translate(-110.223 -283.094)" fill="#6f6f6f"/>
              <path id="Trazado_660077-2" data-name="Trazado 660077" d="M111,284.935a1.273,1.273,0,0,1,.055-1.245.339.339,0,0,0-.055-.016.366.366,0,0,0-.2.016c-.337.127-.423.729-.193,1.345a1.352,1.352,0,0,0,.83.9.349.349,0,0,0,.337-.113A1.422,1.422,0,0,1,111,284.935Z" transform="translate(-110.223 -283.094)" fill="#682c02"/>
            </g>
            <g id="Grupo_986868-2" data-name="Grupo 986868" transform="translate(20.213 35.145)">
              <path id="Trazado_660078-2" data-name="Trazado 660078" d="M112.824,289.7a1.944,1.944,0,0,1-1.193-1.3c-.331-.883-.209-1.75.277-1.931a.548.548,0,0,1,.288-.025,1.942,1.942,0,0,1,1.191,1.3,2.522,2.522,0,0,1,.164,1.247.8.8,0,0,1-.439.684A.552.552,0,0,1,112.824,289.7Z" transform="translate(-111.339 -286.442)" fill="#bf7044"/>
              <path id="Trazado_660079-2" data-name="Trazado 660079" d="M112.683,289.592a1.823,1.823,0,0,1-1.119-1.216c-.31-.828-.195-1.641.259-1.812a.526.526,0,0,1,.271-.023,1.827,1.827,0,0,1,1.119,1.216,2.392,2.392,0,0,1,.152,1.171.757.757,0,0,1-.411.643A.526.526,0,0,1,112.683,289.592Z" transform="translate(-111.391 -286.356)" fill="#a83c00"/>
              <path id="Trazado_660080-2" data-name="Trazado 660080" d="M112.481,289a1.353,1.353,0,0,1-.828-.9c-.232-.614-.144-1.216.191-1.343a.386.386,0,0,1,.2-.017,1.345,1.345,0,0,1,.828.9,1.756,1.756,0,0,1,.113.867.555.555,0,0,1-.3.476A.386.386,0,0,1,112.481,289Z" transform="translate(-111.265 -286.162)" fill="#6f6f6f"/>
              <path id="Trazado_660081-2" data-name="Trazado 660081" d="M112.045,288a1.276,1.276,0,0,1,.055-1.247.564.564,0,0,0-.055-.016.386.386,0,0,0-.2.017c-.335.127-.423.729-.191,1.343a1.353,1.353,0,0,0,.828.9.35.35,0,0,0,.337-.115A1.418,1.418,0,0,1,112.045,288Z" transform="translate(-111.265 -286.162)" fill="#682c02"/>
            </g>
            <g id="Grupo_986869-2" data-name="Grupo 986869" transform="translate(22.048 40.029)">
              <path id="Trazado_660082-2" data-name="Trazado 660082" d="M113.766,292.211a1.944,1.944,0,0,1-1.193-1.3c-.331-.883-.209-1.75.277-1.931a.549.549,0,0,1,.288-.025,1.943,1.943,0,0,1,1.191,1.3,2.525,2.525,0,0,1,.164,1.247.8.8,0,0,1-.44.686A.564.564,0,0,1,113.766,292.211Z" transform="translate(-112.28 -288.948)" fill="#bf7044"/>
              <path id="Trazado_660083-2" data-name="Trazado 660083" d="M113.626,292.1a1.822,1.822,0,0,1-1.119-1.216c-.312-.828-.195-1.643.259-1.813a.527.527,0,0,1,.271-.023,1.817,1.817,0,0,1,1.117,1.216,2.362,2.362,0,0,1,.154,1.169.755.755,0,0,1-.411.643A.526.526,0,0,1,113.626,292.1Z" transform="translate(-112.332 -288.862)" fill="#a83c00"/>
              <path id="Trazado_660084-2" data-name="Trazado 660084" d="M113.424,291.509a1.346,1.346,0,0,1-.828-.9c-.232-.614-.144-1.218.191-1.343a.385.385,0,0,1,.2-.018,1.345,1.345,0,0,1,.828.9,1.758,1.758,0,0,1,.113.867.559.559,0,0,1-.3.477A.368.368,0,0,1,113.424,291.509Z" transform="translate(-112.206 -288.668)" fill="#6f6f6f"/>
              <path id="Trazado_660085-2" data-name="Trazado 660085" d="M112.987,290.509a1.272,1.272,0,0,1,.055-1.245.335.335,0,0,0-.055-.016.385.385,0,0,0-.2.018c-.335.125-.423.729-.191,1.343a1.346,1.346,0,0,0,.828.9.368.368,0,0,0,.2-.016.383.383,0,0,0,.136-.1A1.417,1.417,0,0,1,112.987,290.509Z" transform="translate(-112.206 -288.668)" fill="#682c02"/>
            </g>
            <g id="Grupo_986870-2" data-name="Grupo 986870" transform="translate(24.09 44.664)">
              <path id="Trazado_660086-2" data-name="Trazado 660086" d="M115.223,294.409a1.937,1.937,0,0,1-1.409-1.056c-.489-.809-.526-1.684-.084-1.951a.56.56,0,0,1,.281-.076,1.941,1.941,0,0,1,1.409,1.056,2.525,2.525,0,0,1,.388,1.2.8.8,0,0,1-.306.754A.556.556,0,0,1,115.223,294.409Z" transform="translate(-113.34 -291.326)" fill="#bf7044"/>
              <path id="Trazado_660087-2" data-name="Trazado 660087" d="M115.068,294.321a1.828,1.828,0,0,1-1.321-.992c-.458-.756-.491-1.579-.076-1.828a.509.509,0,0,1,.261-.072,1.813,1.813,0,0,1,1.321.99,2.361,2.361,0,0,1,.364,1.123.756.756,0,0,1-.286.707A.536.536,0,0,1,115.068,294.321Z" transform="translate(-113.38 -291.228)" fill="#a83c00"/>
              <path id="Trazado_660088-2" data-name="Trazado 660088" d="M114.781,293.765a1.353,1.353,0,0,1-.98-.735c-.339-.561-.364-1.169-.057-1.356a.376.376,0,0,1,.193-.053,1.353,1.353,0,0,1,.98.735,1.751,1.751,0,0,1,.271.83.558.558,0,0,1-.214.524A.377.377,0,0,1,114.781,293.765Z" transform="translate(-113.239 -291.046)" fill="#6f6f6f"/>
              <path id="Trazado_660089-2" data-name="Trazado 660089" d="M114.169,292.862a1.276,1.276,0,0,1-.175-1.236c-.019,0-.039-.006-.057-.006a.376.376,0,0,0-.193.053c-.308.187-.283.8.057,1.356a1.353,1.353,0,0,0,.98.735.377.377,0,0,0,.193-.055.341.341,0,0,0,.117-.119A1.422,1.422,0,0,1,114.169,292.862Z" transform="translate(-113.239 -291.046)" fill="#682c02"/>
            </g>
            <g id="Grupo_986871-2" data-name="Grupo 986871" transform="translate(32.599 24.799)">
              <path id="Trazado_660090-2" data-name="Trazado 660090" d="M118.58,281.151a1.947,1.947,0,0,1,1.086,1.388c.261.906.068,1.762-.429,1.9a.536.536,0,0,1-.288,0,1.935,1.935,0,0,1-1.086-1.386,2.525,2.525,0,0,1-.064-1.257.8.8,0,0,1,.491-.649A.563.563,0,0,1,118.58,281.151Z" transform="translate(-117.746 -281.133)" fill="#bf7044"/>
              <path id="Trazado_660091-2" data-name="Trazado 660091" d="M118.652,281.173a1.818,1.818,0,0,1,1.019,1.3c.244.852.064,1.653-.4,1.787a.51.51,0,0,1-.271,0,1.821,1.821,0,0,1-1.017-1.3,2.371,2.371,0,0,1-.06-1.179.755.755,0,0,1,.462-.608A.51.51,0,0,1,118.652,281.173Z" transform="translate(-117.629 -281.112)" fill="#a83c00"/>
              <path id="Trazado_660092-2" data-name="Trazado 660092" d="M118.576,281.375a1.346,1.346,0,0,1,.754.963c.183.631.049,1.226-.3,1.325a.39.39,0,0,1-.2,0,1.348,1.348,0,0,1-.756-.963,1.78,1.78,0,0,1-.045-.873.561.561,0,0,1,.343-.452A.39.39,0,0,1,118.576,281.375Z" transform="translate(-117.508 -280.915)" fill="#6f6f6f"/>
              <path id="Trazado_660093-2" data-name="Trazado 660093" d="M118.819,282.406a1.281,1.281,0,0,1-.152,1.237.289.289,0,0,0,.053.02.39.39,0,0,0,.2,0c.345-.1.479-.694.3-1.325a1.346,1.346,0,0,0-.754-.963.39.39,0,0,0-.2,0,.4.4,0,0,0-.144.086A1.43,1.43,0,0,1,118.819,282.406Z" transform="translate(-117.394 -280.915)" fill="#682c02"/>
            </g>
            <g id="Grupo_986872-2" data-name="Grupo 986872" transform="translate(38.025 40.139)">
              <path id="Trazado_660094-2" data-name="Trazado 660094" d="M121.22,289.008a1.947,1.947,0,0,1,1.271,1.22c.386.863.314,1.737-.158,1.947a.56.56,0,0,1-.287.043A1.944,1.944,0,0,1,120.777,291a2.538,2.538,0,0,1-.24-1.236.8.8,0,0,1,.4-.711A.552.552,0,0,1,121.22,289.008Z" transform="translate(-120.53 -289.004)" fill="#bf7044"/>
              <path id="Trazado_660095-2" data-name="Trazado 660095" d="M121.3,289.014a1.825,1.825,0,0,1,1.191,1.146c.361.809.294,1.627-.148,1.826a.538.538,0,0,1-.269.039,1.822,1.822,0,0,1-1.191-1.146,2.379,2.379,0,0,1-.224-1.158.752.752,0,0,1,.372-.667A.517.517,0,0,1,121.3,289.014Z" transform="translate(-120.415 -288.997)" fill="#a83c00"/>
              <path id="Trazado_660096-2" data-name="Trazado 660096" d="M121.268,289.214a1.354,1.354,0,0,1,.883.85c.269.6.218,1.2-.109,1.353a.376.376,0,0,1-.2.029,1.35,1.35,0,0,1-.883-.85,1.737,1.737,0,0,1-.166-.858.558.558,0,0,1,.275-.495A.4.4,0,0,1,121.268,289.214Z" transform="translate(-120.284 -288.807)" fill="#6f6f6f"/>
              <path id="Trazado_660097-2" data-name="Trazado 660097" d="M121.692,290.185a1.284,1.284,0,0,1,.023,1.249.551.551,0,0,0,.055.012.376.376,0,0,0,.2-.029c.327-.148.378-.754.109-1.353a1.354,1.354,0,0,0-.883-.85.35.35,0,0,0-.329.134A1.418,1.418,0,0,1,121.692,290.185Z" transform="translate(-120.211 -288.807)" fill="#682c02"/>
            </g>
            <g id="Grupo_986873-2" data-name="Grupo 986873" transform="translate(36.552 35.203)">
              <path id="Trazado_660098-2" data-name="Trazado 660098" d="M120.565,286.484a1.943,1.943,0,0,1,1.14,1.343c.3.895.14,1.756-.351,1.92a.552.552,0,0,1-.288.014,1.947,1.947,0,0,1-1.14-1.343,2.511,2.511,0,0,1-.117-1.251.806.806,0,0,1,.466-.669A.561.561,0,0,1,120.565,286.484Z" transform="translate(-119.774 -286.471)" fill="#bf7044"/>
              <path id="Trazado_660099-2" data-name="Trazado 660099" d="M120.639,286.5a1.831,1.831,0,0,1,1.07,1.259c.279.84.131,1.649-.329,1.8a.528.528,0,0,1-.271.012,1.826,1.826,0,0,1-1.07-1.259,2.382,2.382,0,0,1-.109-1.175.754.754,0,0,1,.439-.626A.505.505,0,0,1,120.639,286.5Z" transform="translate(-119.657 -286.455)" fill="#a83c00"/>
              <path id="Trazado_660100-2" data-name="Trazado 660100" d="M120.576,286.7a1.357,1.357,0,0,1,.793.934c.207.624.1,1.222-.244,1.335a.387.387,0,0,1-.2.01,1.348,1.348,0,0,1-.793-.934,1.759,1.759,0,0,1-.08-.871.559.559,0,0,1,.324-.464A.407.407,0,0,1,120.576,286.7Z" transform="translate(-119.534 -286.259)" fill="#6f6f6f"/>
              <path id="Trazado_660101-2" data-name="Trazado 660101" d="M120.873,287.72a1.281,1.281,0,0,1-.1,1.243c.018.006.035.014.053.018a.387.387,0,0,0,.2-.01c.341-.113.45-.711.244-1.335a1.357,1.357,0,0,0-.793-.934.407.407,0,0,0-.2.01.364.364,0,0,0-.14.092A1.421,1.421,0,0,1,120.873,287.72Z" transform="translate(-119.433 -286.259)" fill="#682c02"/>
            </g>
            <g id="Grupo_986874-2" data-name="Grupo 986874" transform="translate(34.835 30.385)">
              <path id="Trazado_660102-2" data-name="Trazado 660102" d="M119.625,284.006a1.938,1.938,0,0,1,1.214,1.275c.349.877.24,1.746-.242,1.937a.542.542,0,0,1-.286.029,1.945,1.945,0,0,1-1.216-1.275,2.537,2.537,0,0,1-.185-1.245.8.8,0,0,1,.427-.692A.548.548,0,0,1,119.625,284.006Z" transform="translate(-118.893 -283.999)" fill="#bf7044"/>
              <path id="Trazado_660103-2" data-name="Trazado 660103" d="M119.7,284.017a1.821,1.821,0,0,1,1.14,1.2c.327.822.226,1.637-.226,1.816a.5.5,0,0,1-.269.027,1.813,1.813,0,0,1-1.14-1.195,2.378,2.378,0,0,1-.175-1.167.752.752,0,0,1,.4-.649A.517.517,0,0,1,119.7,284.017Z" transform="translate(-118.778 -283.988)" fill="#a83c00"/>
              <path id="Trazado_660104-2" data-name="Trazado 660104" d="M119.658,284.218a1.346,1.346,0,0,1,.846.887c.242.61.166,1.214-.168,1.347a.386.386,0,0,1-.2.02,1.345,1.345,0,0,1-.844-.885,1.75,1.75,0,0,1-.131-.865.56.56,0,0,1,.3-.481A.375.375,0,0,1,119.658,284.218Z" transform="translate(-118.651 -283.796)" fill="#6f6f6f"/>
              <path id="Trazado_660105-2" data-name="Trazado 660105" d="M120.029,285.21a1.278,1.278,0,0,1-.033,1.247.541.541,0,0,0,.055.014.386.386,0,0,0,.2-.02c.333-.133.409-.737.168-1.347a1.346,1.346,0,0,0-.846-.887.357.357,0,0,0-.335.121A1.419,1.419,0,0,1,120.029,285.21Z" transform="translate(-118.566 -283.796)" fill="#682c02"/>
            </g>
            <path id="Trazado_660106-2" data-name="Trazado 660106" d="M120.045,276.41c-.526.2-1.054.36-1.6.509a16.173,16.173,0,0,1-5.632.166,2.248,2.248,0,0,0-1.335-1.631.289.289,0,0,0-.115-.016c-.214,0,.511-.38.511-.38,6.012-1.152,6.357-.84,6.357-.84a1.028,1.028,0,0,1,.331.148A4.376,4.376,0,0,1,120.045,276.41Z" transform="translate(-91.24 -262.932)" fill="#fff3ed"/>
            <path id="Trazado_660107-2" data-name="Trazado 660107" d="M119.567,284.382l-2.734,1.236-4.266.411a68.732,68.732,0,0,0-.462-9.965.1.1,0,0,0-.016-.066,16.175,16.175,0,0,0,5.632-.166c.544-.148,1.072-.312,1.6-.509C119.83,276.493,119.567,284.382,119.567,284.382Z" transform="translate(-90.515 -261.846)" fill="#e3f0e9"/>
            <path id="Trazado_660108-2" data-name="Trazado 660108" d="M110.835,283.975a33.621,33.621,0,0,1,16.556,1.047,1.954,1.954,0,0,1,.676,2.232,56.765,56.765,0,0,0-16.834-1.126A3.181,3.181,0,0,1,110.835,283.975Z" transform="translate(-91.747 -254.193)" fill="#edf7ff"/>
            <path id="Trazado_660109-2" data-name="Trazado 660109" d="M112.73,289.572a53.561,53.561,0,0,1,16.47-.078c1.2.859.263,2.231.263,2.231a88.7,88.7,0,0,0-16.4.023A3.026,3.026,0,0,1,112.73,289.572Z" transform="translate(-89.976 -248.97)" fill="#d7e9f7"/>
            <path id="Trazado_660110-2" data-name="Trazado 660110" d="M113.639,296.3a35.831,35.831,0,0,1,13.124-9.552c1.2.859.265,2.231.265,2.231s-3.481,1.549-12.243,9.335A22.77,22.77,0,0,1,113.639,296.3Z" transform="translate(-89.044 -251.007)" fill="#edf7ff"/>
            <path id="Trazado_660111-2" data-name="Trazado 660111" d="M112.63,293.941a33.8,33.8,0,0,1,12.944-9.627,1.807,1.807,0,0,1,.746,2.062s-4.091,2.007-12.853,9.793A6.631,6.631,0,0,1,112.63,293.941Z" transform="translate(-90.001 -253.315)" fill="#d7e9f7"/>
            <path id="Trazado_660112-2" data-name="Trazado 660112" d="M111.723,291.88a28.237,28.237,0,0,1,12.52-10.518,1.81,1.81,0,0,1,.746,2.064s-3.666,2.9-12.428,10.684A6.634,6.634,0,0,1,111.723,291.88Z" transform="translate(-90.862 -256.116)" fill="#d7e9f7"/>
            <path id="Trazado_660113-2" data-name="Trazado 660113" d="M110.749,285.814s4.829-3.615,14.359-4.4a2.079,2.079,0,0,1,.8,2.2,40.585,40.585,0,0,0-14.527,4.444A4.684,4.684,0,0,1,110.749,285.814Z" transform="translate(-91.786 -256.068)" fill="#edf7ff"/>
            <path id="Trazado_660114-2" data-name="Trazado 660114" d="M111.755,287.073a53.527,53.527,0,0,1,16.47-.076,1.934,1.934,0,0,1,.569,2.3,88.7,88.7,0,0,0-16.4.023A4.667,4.667,0,0,1,111.755,287.073Z" transform="translate(-90.832 -251.341)" fill="#edf7ff"/>
          </g>
        </g>
      </g>
      <g id="Grupo_986880" data-name="Grupo 986880" transform="translate(13.461 44.933)">
        <g id="Grupo_986878" data-name="Grupo 986878" transform="translate(3.364)">
          <path id="Trazado_660117" data-name="Trazado 660117" d="M54.07,249.6l0,0,.008,0Z" transform="translate(-2.926 -241.273)" fill="#6a6b7e"/>
          <path id="Trazado_660118" data-name="Trazado 660118" d="M27.827,274.093a13.219,13.219,0,0,0,6.591,11.417l95.051,54.877a6.986,6.986,0,0,0,10.481-6.049,20.889,20.889,0,0,0-5.061-13.628l-.119-.127L85.389,272.4v-2.68a25.241,25.241,0,0,0,5.535-3.007c2.033-1.783,3.06-4.82,3.06-9.025,0-4.607-1.148-8.061-3.732-9.815-3.98-2.7-6.363-3.352-10.052-1.489-8.409,4.251-4.457,9.127-4.582,9.171l3.356-1.912c.049-.06,1.249-7.147,8.037-2.341,1.709,1.212,2.313,2.573,2.313,6.139,0,3.216.7,5.636-.466,6.907-2.27,2.481-6.611,2.126-6.611,2.126l-3.364,1.906,3.364,2.992L39.191,262.86l-.2,0A11.259,11.259,0,0,0,27.827,274.093Zm4.036,0a7.213,7.213,0,0,1,6.958-7.191l44.088,8.715,48.977,47.79a16.851,16.851,0,0,1,4.028,10.929,2.951,2.951,0,0,1-4.426,2.555L36.437,282.016A9.174,9.174,0,0,1,31.863,274.093Z" transform="translate(-27.827 -245.324)" fill="url(#linear-gradient-5)"/>
        </g>
        <g id="Grupo_986879" data-name="Grupo 986879" transform="translate(0 2.122)">
          <path id="Trazado_660119" data-name="Trazado 660119" d="M52.344,250.576l0,0,.008,0Z" transform="translate(-1.2 -242.467)" fill="#060608"/>
          <path id="Trazado_660120" data-name="Trazado 660120" d="M26.1,274.966a13.216,13.216,0,0,0,6.593,11.417l95.051,54.876a6.985,6.985,0,0,0,10.479-6.047,20.89,20.89,0,0,0-5.061-13.631l-.119-.127L83.663,273.273v-2.68a25.239,25.239,0,0,0,5.535-3.007c2.033-1.783,3.06-4.82,3.06-9.025,0-4.607-1.146-8.061-3.732-9.815-10.477-7.112-13.554,4.3-13.755,4.367l2.477,1.4c.049-.06,2.588-8.074,9.376-3.266,1.709,1.208,2.493,3.744,2.493,7.31,0,3.214-.82,5.391-1.984,6.661-2.27,2.481-6.611,2.126-6.611,2.126v4.9l-43.057-8.513-.2,0A11.259,11.259,0,0,0,26.1,274.966Zm4.036,0a7.213,7.213,0,0,1,6.957-7.191l44.088,8.715,48.979,47.79a16.861,16.861,0,0,1,4.026,10.931,2.951,2.951,0,0,1-4.426,2.553L34.711,282.888A9.178,9.178,0,0,1,30.137,274.966Z" transform="translate(-26.101 -246.413)" fill="#252e47"/>
        </g>
      </g>
      <g id="Grupo_986884" data-name="Grupo 986884" transform="translate(15.755 122.627)">
        <g id="Grupo_986881" data-name="Grupo 986881">
          <path id="Trazado_660121" data-name="Trazado 660121" d="M141.541,318.576l-.058,3.855L92.121,353.744a15.08,15.08,0,0,1-15.54.322L48.045,337.621l-1.871-1.111-13.757-7.916a1.481,1.481,0,0,1-.234-.144l-1.4-.818a7.02,7.02,0,0,1-3.5-6.047,7.7,7.7,0,0,1,.057-.817,5.4,5.4,0,0,1,.614-1.664,4.873,4.873,0,0,1,1.725-1.725L84.439,285.19l25.178,14.722,1.84,1.08,30.026,17.556Z" transform="translate(-27.278 -285.19)" fill="#f6c038"/>
          <path id="Trazado_660122" data-name="Trazado 660122" d="M102.256,293.824,38.844,330.452l-1.869-1.11,63.442-36.6Z" transform="translate(-18.077 -278.022)" fill="#d1971d"/>
          <path id="Trazado_660123" data-name="Trazado 660123" d="M141.535,302.335l-.058,6.893L88.9,339.752a8.963,8.963,0,0,1-8.938.029l-3.389-1.957L32.411,312.352a1.481,1.481,0,0,1-.234-.144c-4.849-2.578-5.036-5.662-4.849-7.683a5.4,5.4,0,0,1,.614-1.664l51.729,29.851a9.558,9.558,0,0,0,9.522,0l52.283-30.377v-.029Z" transform="translate(-27.272 -268.949)" fill="#d1971d"/>
          <path id="Trazado_660124" data-name="Trazado 660124" d="M102.82,309.345,65.912,287.773c-6.868,3-10.033,8.883-10.033,14.589,0,9.2,5.272,11.2,19.715,11.2C85.34,313.559,98.322,314.379,102.82,309.345Z" transform="translate(-0.139 -282.739)" fill="#a67000"/>
          <path id="Trazado_660125" data-name="Trazado 660125" d="M60.133,288.847l40.31,23.781,1.722-2.315-6.116-5.98L68.271,286.641Z" transform="translate(3.898 -283.813)" fill="#d69816"/>
        </g>
        <path id="Trazado_660126" data-name="Trazado 660126" d="M67.843,285.911s-12.67,5.108-15.837,14.081c-2.348,6.653-.912,9.417-.912,9.417l11.8-5.644s-1.947-6.938,4.381-10.832a111.572,111.572,0,0,1,9.98-5.6Z" transform="translate(-5.091 -284.506)" fill="#ffbe57"/>
        <path id="Trazado_660127" data-name="Trazado 660127" d="M95.407,295.719a20.714,20.714,0,0,1-7.85,5.25c-7.881,3.132-22.363.548-22.363.548l-4.381,9.857s17.435,3.286,28.752-1.46,11.958-8.215,11.958-8.215Z" transform="translate(4.542 -275.199)" fill="#ffbe57"/>
        <g id="Grupo_986882" data-name="Grupo 986882" transform="translate(38.284 33.463)">
          <path id="Trazado_660128" data-name="Trazado 660128" d="M71.961,305.561l-.019,1.269L55.694,317.136a4.962,4.962,0,0,1-5.116.107l-1.964-1.13a.538.538,0,0,1-.078-.049l-.46-.269a2.308,2.308,0,0,1-1.154-1.99,2.491,2.491,0,0,1,.018-.269,1.812,1.812,0,0,1,.2-.548,1.6,1.6,0,0,1,.567-.567l16.328-9.6a3.356,3.356,0,0,1,3.4,0l4.5,2.73Z" transform="translate(-46.922 -302.361)" fill="#d69816"/>
          <path id="Trazado_660129" data-name="Trazado 660129" d="M71.96,304.008l-.008.963a2.294,2.294,0,0,1-1.142,1.963l-16.176,9.39a2.941,2.941,0,0,1-2.941.01l-1.117-.643-1.964-1.13a.538.538,0,0,1-.078-.049c-1.6-.848-1.657-1.863-1.6-2.528a1.811,1.811,0,0,1,.2-.548l4.455,2.571a3.136,3.136,0,0,0,3.134,0l17.211-10V304Z" transform="translate(-46.92 -300.807)" fill="#a67000"/>
        </g>
        <g id="Grupo_986883" data-name="Grupo 986883" transform="translate(46.023 36.925)">
          <path id="Trazado_660130" data-name="Trazado 660130" d="M50.941,309.08l-.047,2.493,20.619,11.968,1.541,2.173-2.647,5.341,9.271,5.978,19.846-11.957v-3.834Z" transform="translate(-50.893 -299.446)" fill="#d1971d"/>
          <path id="Trazado_660131" data-name="Trazado 660131" d="M67.026,304.137l-16.109,9.634,3.541,2.085,17.03,9.911,9.026,5.642v9.522L99.5,329.492v-6.024Z" transform="translate(-50.87 -304.137)" fill="#f6c038"/>
        </g>
      </g>
      <g id="Grupo_986888" data-name="Grupo 986888" transform="translate(15.755 112.226)">
        <g id="Grupo_986885" data-name="Grupo 986885">
          <path id="Trazado_660132" data-name="Trazado 660132" d="M141.541,313.239l-.058,3.855L92.121,348.407a15.071,15.071,0,0,1-15.54.322L48.045,332.284l-1.871-1.111-13.757-7.914a1.637,1.637,0,0,1-.234-.146l-1.4-.819a7.014,7.014,0,0,1-3.5-6.045,7.7,7.7,0,0,1,.057-.819,5.418,5.418,0,0,1,.614-1.664,4.854,4.854,0,0,1,1.725-1.723l54.765-32.19,25.178,14.722,1.84,1.082,30.026,17.554Z" transform="translate(-27.278 -279.853)" fill="#74c4f6"/>
          <path id="Trazado_660133" data-name="Trazado 660133" d="M102.256,288.488,38.844,325.116l-1.869-1.11,63.442-36.6Z" transform="translate(-18.077 -272.685)" fill="#4bb2d1"/>
          <path id="Trazado_660134" data-name="Trazado 660134" d="M141.535,297l-.058,6.893L88.9,334.415a8.963,8.963,0,0,1-8.938.029l-3.389-1.957-44.164-25.47a1.634,1.634,0,0,1-.234-.146c-4.849-2.576-5.036-5.661-4.849-7.682a5.418,5.418,0,0,1,.614-1.664l51.729,29.851a9.558,9.558,0,0,0,9.522,0L141.477,297v-.029Z" transform="translate(-27.272 -263.612)" fill="#4bb2d1"/>
          <path id="Trazado_660135" data-name="Trazado 660135" d="M102.82,304.008,65.912,282.436c-6.868,3-10.033,8.883-10.033,14.591,0,9.2,5.272,11.2,19.715,11.2C85.34,308.224,98.322,309.042,102.82,304.008Z" transform="translate(-0.139 -277.402)" fill="#1d87a6"/>
          <path id="Trazado_660136" data-name="Trazado 660136" d="M60.133,283.51l40.31,23.781,1.722-2.315L96.05,299,68.271,281.3Z" transform="translate(3.898 -278.475)" fill="#42b4d6"/>
        </g>
        <path id="Trazado_660137" data-name="Trazado 660137" d="M67.843,280.575s-12.67,5.106-15.837,14.079c-2.348,6.654-.912,9.417-.912,9.417l11.8-5.644s-1.947-6.936,4.381-10.832a111.138,111.138,0,0,1,9.98-5.6Z" transform="translate(-5.091 -279.168)" fill="#ade5ff"/>
        <path id="Trazado_660138" data-name="Trazado 660138" d="M95.407,290.382a20.688,20.688,0,0,1-7.85,5.25c-7.881,3.132-22.363.548-22.363.548l-4.381,9.857s17.435,3.288,28.752-1.46,11.958-8.215,11.958-8.215Z" transform="translate(4.542 -269.862)" fill="#ade5ff"/>
        <g id="Grupo_986886" data-name="Grupo 986886" transform="translate(38.284 33.464)">
          <path id="Trazado_660139" data-name="Trazado 660139" d="M71.961,300.224l-.019,1.269L55.694,311.8a4.962,4.962,0,0,1-5.116.105l-1.964-1.128a.541.541,0,0,1-.078-.049l-.46-.269a2.31,2.31,0,0,1-1.154-1.99,2.528,2.528,0,0,1,.018-.271,1.832,1.832,0,0,1,.2-.548,1.613,1.613,0,0,1,.567-.567l16.328-9.6a3.361,3.361,0,0,1,3.4,0l4.5,2.73Z" transform="translate(-46.922 -297.024)" fill="#42b4d6"/>
          <path id="Trazado_660140" data-name="Trazado 660140" d="M71.96,298.671l-.008.963A2.292,2.292,0,0,1,70.81,301.6l-16.176,9.392a2.951,2.951,0,0,1-2.941.01l-1.117-.645-1.964-1.128a.536.536,0,0,1-.078-.049c-1.6-.848-1.657-1.863-1.6-2.53a1.831,1.831,0,0,1,.2-.548L51.6,308.67a3.146,3.146,0,0,0,3.134,0l17.211-10v-.01Z" transform="translate(-46.92 -295.471)" fill="#1d87a6"/>
        </g>
        <g id="Grupo_986887" data-name="Grupo 986887" transform="translate(46.023 36.926)">
          <path id="Trazado_660141" data-name="Trazado 660141" d="M50.941,303.744l-.047,2.493L71.512,318.2l1.541,2.173-2.647,5.341,9.271,5.978,19.846-11.957V315.9Z" transform="translate(-50.893 -294.109)" fill="#4bb2d1"/>
          <path id="Trazado_660142" data-name="Trazado 660142" d="M67.026,298.8l-16.109,9.635,3.541,2.085,17.03,9.912,9.026,5.642v9.522L99.5,324.156v-6.024Z" transform="translate(-50.87 -298.8)" fill="#74c4f6"/>
        </g>
      </g>
    </g>
  </g>
</svg>
