<svg xmlns="http://www.w3.org/2000/svg" xmlns:xlink="http://www.w3.org/1999/xlink" width="272.663" height="213.59" viewBox="0 0 272.663 213.59">
  <defs>
    <clipPath id="clip-path">
      <path id="Trazado_667198" data-name="Trazado 667198" d="M819.586,197.8l-24.409-3.625,2.066,13.816Z" transform="translate(-795.177 -194.171)" fill="#eeeaed"/>
    </clipPath>
    <clipPath id="clip-path-2">
      <path id="Trazado_667205" data-name="Trazado 667205" d="M617.773,215.211l1.922,14.683-15.159,2.045a2.518,2.518,0,0,1-2.831-2.157l-1.373-10.133a2.517,2.517,0,0,1,2.231-2.841Z" transform="translate(-600.307 -215.211)" fill="#68838c"/>
    </clipPath>
  </defs>
  <g id="Grupo_991378" data-name="Grupo 991378" transform="translate(-600.307 -86.466)">
    <rect id="Rectángulo_311411" data-name="Rectángulo 311411" width="134.158" height="194.529" rx="4" transform="translate(694.835 104.204)" fill="#1f143f"/>
    <rect id="Rectángulo_311412" data-name="Rectángulo 311412" width="134.158" height="194.529" rx="4" transform="translate(692.542 104.204)" fill="#449c6e"/>
    <rect id="Rectángulo_311413" data-name="Rectángulo 311413" width="116.043" height="177.685" transform="translate(703.892 112.626)" fill="#c1c6e0"/>
    <rect id="Rectángulo_311414" data-name="Rectángulo 311414" width="116.043" height="177.685" transform="translate(701.599 112.626)" fill="#fff"/>
    <path id="Rectángulo_311415" data-name="Rectángulo 311415" d="M5,0H51.346a5,5,0,0,1,5,5V17.052a0,0,0,0,1,0,0H0a0,0,0,0,1,0,0V5A5,5,0,0,1,5,0Z" transform="translate(731.448 99.583)" fill="#1f143f"/>
    <path id="Trazado_667187" data-name="Trazado 667187" d="M838.284,86.466A13.117,13.117,0,1,0,851.4,99.583,13.117,13.117,0,0,0,838.284,86.466Zm0,19.676a6.559,6.559,0,1,1,6.559-6.559A6.559,6.559,0,0,1,838.284,106.142Z" transform="translate(-78.663)" fill="#1f143f"/>
    <g id="Grupo_991367" data-name="Grupo 991367" transform="translate(717.138 143.093)">
      <rect id="Rectángulo_311416" data-name="Rectángulo 311416" width="14.113" height="14.113" rx="2" transform="translate(69.716 5.431)" fill="none" stroke="#d5d8ef" stroke-miterlimit="10" stroke-width="1"/>
      <path id="Trazado_667188" data-name="Trazado 667188" d="M882.886,182.942l6.985,6.985,16.366-16.366" transform="translate(-815.993 -173.561)" fill="none" stroke="#e95a4f" stroke-miterlimit="10" stroke-width="3"/>
      <rect id="Rectángulo_311417" data-name="Rectángulo 311417" width="14.113" height="14.113" rx="2" transform="translate(69.716 32.809)" fill="none" stroke="#d5d8ef" stroke-miterlimit="10" stroke-width="1"/>
      <path id="Trazado_667189" data-name="Trazado 667189" d="M882.886,225.051l6.985,6.985,16.366-16.366" transform="translate(-815.993 -188.292)" fill="none" stroke="#e95a4f" stroke-miterlimit="10" stroke-width="3"/>
      <rect id="Rectángulo_311418" data-name="Rectángulo 311418" width="14.113" height="14.113" rx="2" transform="translate(69.716 58.918)" fill="none" stroke="#d5d8ef" stroke-miterlimit="10" stroke-width="1"/>
      <path id="Trazado_667190" data-name="Trazado 667190" d="M882.886,265.208l6.985,6.985,16.366-16.366" transform="translate(-815.993 -202.34)" fill="none" stroke="#e95a4f" stroke-miterlimit="10" stroke-width="3"/>
      <rect id="Rectángulo_311419" data-name="Rectángulo 311419" width="14.113" height="14.113" rx="2" transform="translate(69.716 85.45)" fill="none" stroke="#d5d8ef" stroke-miterlimit="10" stroke-width="1"/>
      <path id="Trazado_667191" data-name="Trazado 667191" d="M882.886,306.015,889.872,313l16.366-16.366" transform="translate(-815.993 -216.616)" fill="none" stroke="#e95a4f" stroke-miterlimit="10" stroke-width="3"/>
      <g id="Grupo_991366" data-name="Grupo 991366" transform="translate(0 4.796)">
        <rect id="Rectángulo_311420" data-name="Rectángulo 311420" width="59.555" height="2.328" rx="1" fill="#c1c6e0"/>
        <rect id="Rectángulo_311421" data-name="Rectángulo 311421" width="59.555" height="2.328" rx="1" transform="translate(0 5.998)" fill="#c1c6e0"/>
        <rect id="Rectángulo_311422" data-name="Rectángulo 311422" width="45.513" height="2.328" rx="1" transform="translate(0 11.997)" fill="#c1c6e0"/>
        <rect id="Rectángulo_311423" data-name="Rectángulo 311423" width="59.555" height="2.328" rx="1" transform="translate(0 27.378)" fill="#c1c6e0"/>
        <rect id="Rectángulo_311424" data-name="Rectángulo 311424" width="59.555" height="2.328" rx="1" transform="translate(0 33.377)" fill="#c1c6e0"/>
        <rect id="Rectángulo_311425" data-name="Rectángulo 311425" width="45.513" height="2.328" rx="1" transform="translate(0 39.375)" fill="#c1c6e0"/>
        <rect id="Rectángulo_311426" data-name="Rectángulo 311426" width="59.555" height="2.328" rx="1" transform="translate(0 53.487)" fill="#c1c6e0"/>
        <rect id="Rectángulo_311427" data-name="Rectángulo 311427" width="59.555" height="2.328" rx="1" transform="translate(0 59.485)" fill="#c1c6e0"/>
        <rect id="Rectángulo_311428" data-name="Rectángulo 311428" width="45.513" height="2.328" rx="1" transform="translate(0 65.484)" fill="#c1c6e0"/>
        <rect id="Rectángulo_311429" data-name="Rectángulo 311429" width="59.555" height="2.328" rx="1" transform="translate(0 80.019)" fill="#c1c6e0"/>
        <rect id="Rectángulo_311430" data-name="Rectángulo 311430" width="59.555" height="2.328" rx="1" transform="translate(0 86.017)" fill="#c1c6e0"/>
        <rect id="Rectángulo_311431" data-name="Rectángulo 311431" width="45.513" height="2.328" rx="1" transform="translate(0 92.015)" fill="#c1c6e0"/>
      </g>
    </g>
    <path id="Trazado_667192" data-name="Trazado 667192" d="M750.84,194.637c2.945.235,8.2,2.278,7.155,6.2a.915.915,0,0,1-.247.468,1.063,1.063,0,0,1-.689.185,5.487,5.487,0,0,1-3.747-.9c-.631-.532-1.027-1.313-1.7-1.794a5.024,5.024,0,0,0-1.293-.6l-2.337-.82c-.412-.144-.878-.343-1-.761a1.2,1.2,0,0,1,.605-1.2A4.86,4.86,0,0,1,750.84,194.637Z" transform="translate(-51.301 -37.834)" fill="#1f143f"/>
    <path id="Trazado_667193" data-name="Trazado 667193" d="M647.208,409.18l.045.009a19.493,19.493,0,0,0,3.731.213c2.268.019,4.528.041,6.795-.062,1.393-.062,1.959-.755,2.218-2.047a16.557,16.557,0,0,0,.3-4.1.8.8,0,0,0-.087-.386.779.779,0,0,0-.418-.276,7.346,7.346,0,0,0-1.712-.4c-.4-.045-1.137-.19-1.477.066a5.289,5.289,0,0,0-.835,1.2,8.126,8.126,0,0,1-1,1.26,6.569,6.569,0,0,1-2.742,1.493c-1.006.3-2.048.467-3.071.706a5.882,5.882,0,0,0-2.162.867.924.924,0,0,0-.472.794C646.375,408.909,646.817,409.094,647.208,409.18Z" transform="translate(-16.095 -110.401)" fill="#1f143f"/>
    <path id="Trazado_667194" data-name="Trazado 667194" d="M725.938,409.18l-.045.009a19.5,19.5,0,0,1-3.731.213c-2.268.019-4.528.041-6.795-.062-1.393-.062-1.96-.755-2.218-2.047a16.56,16.56,0,0,1-.3-4.1.794.794,0,0,1,.087-.386.776.776,0,0,1,.418-.276,7.339,7.339,0,0,1,1.712-.4c.4-.045,1.137-.19,1.477.066a5.268,5.268,0,0,1,.835,1.2,8.137,8.137,0,0,0,1,1.26,6.57,6.57,0,0,0,2.742,1.493c1.006.3,2.048.467,3.071.706a5.883,5.883,0,0,1,2.163.867.924.924,0,0,1,.472.794C726.771,408.909,726.329,409.094,725.938,409.18Z" transform="translate(-39.362 -110.401)" fill="#1f143f"/>
    <path id="Trazado_667195" data-name="Trazado 667195" d="M689.022,176.638a6.054,6.054,0,0,1-.139,1c-.358,1.489-1.457,2.591-2.264,3.841a5.283,5.283,0,0,0-.652,3.647,14.388,14.388,0,0,0,3.77,7.106,6.623,6.623,0,0,0,1.3,1.251,9.873,9.873,0,0,0,1.954.735,25.919,25.919,0,0,0,5.474,1.179c.915.1,1.833.134,2.752.148a5.612,5.612,0,0,0,2.4-.838,10.165,10.165,0,0,0,2.409-1.594,14.567,14.567,0,0,0,1.97-2.382,5.972,5.972,0,0,0,1.095-2.114c.2-.933-.038-1.944.309-2.833a9.06,9.06,0,0,1,.981-1.521c1.088-1.688-.456-3.735.428-5.492.55-1.092,1.664-1.765,2.138-2.9a4.55,4.55,0,0,0-.007-3.421,7.61,7.61,0,0,0-4.165-3.794c-2.018-.88-4.571-1.175-6.262.235-.359.3-.661.661-1,.981-2.73,2.567-6.266.523-9.409,1.7a4.573,4.573,0,0,0-2.849,2.848A10.332,10.332,0,0,0,689.022,176.638Z" transform="translate(-29.94 -28.495)" fill="#1f143f"/>
    <g id="Grupo_991372" data-name="Grupo 991372" transform="translate(600.307 156.462)">
      <g id="Grupo_991369" data-name="Grupo 991369" transform="translate(126.698 0.031)">
        <path id="Trazado_667196" data-name="Trazado 667196" d="M819.586,197.8l-24.409-3.625,2.066,13.816Z" transform="translate(-795.177 -194.171)" fill="#eeeaed"/>
        <g id="Grupo_991368" data-name="Grupo 991368" clip-path="url(#clip-path)">
          <path id="Trazado_667197" data-name="Trazado 667197" d="M818.123,200.272a5.973,5.973,0,0,0,1.053,2.233c1.72,2.188,5.784.735,7.811-.179a7.01,7.01,0,0,0,4.288-5.812,3.619,3.619,0,0,0-.388-2.1c-.791-1.389-2.747-1.675-4.167-1.995a10.429,10.429,0,0,0-5.276.068C818.438,193.392,817.366,197.258,818.123,200.272Z" transform="translate(-803.122 -193.452)" fill="#e95a4f"/>
        </g>
      </g>
      <path id="Trazado_667199" data-name="Trazado 667199" d="M735.057,194.124l-108.595,13.71-1.315,15.12,112.121-14.842Z" transform="translate(-608.997 -194.124)" fill="#fb0"/>
      <path id="Trazado_667200" data-name="Trazado 667200" d="M623.519,212.815l111.726-13.9-.757-4.79-108.595,13.71Z" transform="translate(-608.428 -194.124)" fill="#fff" opacity="0.2"/>
      <path id="Trazado_667201" data-name="Trazado 667201" d="M624.4,223.61l111.954-14.32.652,4.128L624.886,228.26Z" transform="translate(-608.736 -199.429)" fill="#231f20" opacity="0.2"/>
      <g id="Grupo_991371" data-name="Grupo 991371" transform="translate(0 13.71)">
        <path id="Trazado_667202" data-name="Trazado 667202" d="M617.773,215.211l1.922,14.683-15.159,2.045a2.518,2.518,0,0,1-2.831-2.157l-1.373-10.133a2.517,2.517,0,0,1,2.231-2.841Z" transform="translate(-600.307 -215.211)" fill="#68838c"/>
        <g id="Grupo_991370" data-name="Grupo 991370" clip-path="url(#clip-path-2)">
          <path id="Trazado_667203" data-name="Trazado 667203" d="M605.321,214.471l2.364,17.709-7.808.554-2.535-16.405Z" transform="translate(-599.27 -214.952)" fill="#c95b59"/>
          <path id="Trazado_667204" data-name="Trazado 667204" d="M614.905,213.868l2.41,18.024,3.818-.3-2.538-18.04" transform="translate(-605.414 -214.632)" fill="none" stroke="#506d75" stroke-miterlimit="10" stroke-width="1"/>
        </g>
      </g>
      <path id="Trazado_667206" data-name="Trazado 667206" d="M795.512,206.54a2.709,2.709,0,1,1,1.656-3.286A2.606,2.606,0,0,1,795.512,206.54Z" transform="translate(-667.455 -196.62)" fill="#eeeaed"/>
      <path id="Trazado_667207" data-name="Trazado 667207" d="M796.474,213.264a2.137,2.137,0,1,1,1.594-2.677A2.207,2.207,0,0,1,796.474,213.264Z" transform="translate(-667.935 -199.352)" fill="#eeeaed"/>
      <path id="Trazado_667208" data-name="Trazado 667208" d="M794.228,198.921a2.458,2.458,0,1,1,1.507-2.984A2.367,2.367,0,0,1,794.228,198.921Z" transform="translate(-667.11 -194.125)" fill="#eeeaed"/>
    </g>
    <path id="Trazado_667209" data-name="Trazado 667209" d="M667.13,338.616a273.42,273.42,0,0,0,5.887-29.849c.41-3.225.8-6.454,1.254-9.674.485-3.486,1.044-6.8,1.737-11.746.25-1.788,3.947-1.755,5.706-2.162,4.391-1.018,8.916-.48,13.369-.406,1.64.027,3.861-.663,4.941.772,1.154,1.533,1.127,4.233,1.231,6.054.919,16.169-1.022,32.308-1.474,48.456-.19,6.782-.073,13.511.264,20.286.067,1.341-.27,2.668-1.8,2.865a5.715,5.715,0,0,1-2.772-.343c-1.443-.83-2.349-3.575-2.844-5.034a42.33,42.33,0,0,1-1.467-6.466,118.794,118.794,0,0,1-1.31-12.189c-.891-13.286-1.583-21.862-.594-36.3-1.35,7.772-1.323,12.847-3.707,20.367a133.747,133.747,0,0,1-8.966,20.51c-1.891,3.681-3.689,7.413-5.742,11.008-1.025,1.8-2.112,3.557-3.3,5.248-1.045,1.486-1.867,2.989-3.826,3.219a10.866,10.866,0,0,1-2.54-.1c-.234-.028-.5-.079-.613-.287a.72.72,0,0,1-.03-.439c.577-3.95,2.537-7.807,3.6-11.669C665.232,346.719,666.15,342.659,667.13,338.616Z" transform="translate(-21.063 -69.303)" fill="#449c6e"/>
    <path id="Trazado_667210" data-name="Trazado 667210" d="M681.374,288.872a4.03,4.03,0,0,1,.82-.429,10.554,10.554,0,0,1,1.739-.543c1.384-.3,1.267.522,1.544,1.48.334,1.159,1.027,2.3,1.471,3.43.489,1.243,1.376,2.324-.054,3.134a6.051,6.051,0,0,1-2.376.753.764.764,0,0,1-.832-.339c-.637-.774-1.259-1.625-1.841-2.445-.833-1.174-1.509-2.181-1.265-3.7a2.188,2.188,0,0,1,.27-.8A1.857,1.857,0,0,1,681.374,288.872Z" transform="translate(-28.064 -70.445)" fill="#fab594"/>
    <path id="Trazado_667211" data-name="Trazado 667211" d="M682.974,299.3a10.391,10.391,0,0,0,3.12-.116,7.407,7.407,0,0,0,4.774-4.561" transform="translate(-28.919 -72.82)" fill="none" stroke="#4c83c3" stroke-miterlimit="10" stroke-width="0.5"/>
    <path id="Trazado_667212" data-name="Trazado 667212" d="M720.108,302.2a2.69,2.69,0,0,1-2.04-.2c-1.306-.832-2.486-3.81-3.121-7.876" transform="translate(-40.105 -72.643)" fill="none" stroke="#4c83c3" stroke-miterlimit="10" stroke-width="0.5"/>
    <path id="Trazado_667213" data-name="Trazado 667213" d="M703.166,284.778c-.053,0-.109,0-.161,0-4.453-.074-8.979-.612-13.37.406-1.758.407-5.456.374-5.706,2.162-.2,1.43-.389,2.721-.568,3.922a10.673,10.673,0,0,0,2.648,1.484,41.656,41.656,0,0,0,9.148,2.507c3.581.61,8.468,0,10.322,3.889a14.283,14.283,0,0,1,.957,5.939,276.774,276.774,0,0,1-.482,28.719,110.108,110.108,0,0,1-2.17,14.464c-.839,3.761-2.273,7.819-2.41,11.767a6.021,6.021,0,0,0,2.027,2.831,5.714,5.714,0,0,0,2.772.343c1.526-.2,1.862-1.524,1.8-2.865-.337-6.775-.454-13.5-.265-20.286.453-16.149,2.393-32.287,1.475-48.456-.045-.783-.066-1.728-.166-2.673A12.439,12.439,0,0,0,703.166,284.778Z" transform="translate(-29.054 -69.303)" fill="#231f20" opacity="0.2"/>
    <path id="Trazado_667214" data-name="Trazado 667214" d="M724.474,223.05a4.8,4.8,0,0,0-1.148.863,3.248,3.248,0,0,0,.955,5.043c2.279.993,5.043.317,7.329-.311a72.784,72.784,0,0,0,15.515-6.6,19.162,19.162,0,0,0,2.6-1.453,2.935,2.935,0,0,0,.889-1.028Z" transform="translate(-42.751 -46.561)" fill="#fab594"/>
    <path id="Trazado_667215" data-name="Trazado 667215" d="M711.823,233.3a32.4,32.4,0,0,0-1.776-5.963c-.9-2.181-2.37-4.8-4.458-6.062-1.955-1.181-5.812-.053-7.981.451-2.044.476-5.114,1.116-6.772,2.484-1.531,1.263-1.359,4.42-1.175,6.245.212,2.1.726,4.166.912,6.27a35.577,35.577,0,0,1-1.33,11.444,95.237,95.237,0,0,1-4.129,13.217,4.255,4.255,0,0,0-.456,1.978,3.835,3.835,0,0,0,2.18,2.581c6.63,3.924,14.746,3.321,22.192,2.955a3.3,3.3,0,0,0,1.774-.436,3.2,3.2,0,0,0,1.041-2.006,55.553,55.553,0,0,0,.934-12.487C712.749,247.184,713.175,240.028,711.823,233.3Z" transform="translate(-29.505 -46.978)" fill="#dfeae5"/>
    <path id="Trazado_667216" data-name="Trazado 667216" d="M706.2,218.334q-2.23-.681-4.411-1.514a1.111,1.111,0,0,1-.417-.233c-.3-.311-.25-1-.274-1.41a12.452,12.452,0,0,1,.026-1.6c.068-.975.231-1.952.224-2.932a4.958,4.958,0,0,1,.356-2.309,3.329,3.329,0,0,1,2.235-1.587,9.854,9.854,0,0,1,2.815-.12,1.269,1.269,0,0,1,.776.215c.7.6.536,1.776.624,2.592a32.119,32.119,0,0,0,.657,3.532c.121.544.289,1.077.421,1.618a2.566,2.566,0,0,1,.156,1.412,5.844,5.844,0,0,1-1.977,2.356.859.859,0,0,1-.352.176.914.914,0,0,1-.405-.056Z" transform="translate(-35.254 -42.021)" fill="#fab594"/>
    <path id="Trazado_667217" data-name="Trazado 667217" d="M702.553,213.116a8.638,8.638,0,0,0,6.653,1.269c-.088-.47-.182-.942-.289-1.42a31.973,31.973,0,0,1-.656-3.532c-.088-.816.074-2-.624-2.592a1.268,1.268,0,0,0-.775-.215,9.859,9.859,0,0,0-2.816.12,3.33,3.33,0,0,0-2.234,1.587,4.951,4.951,0,0,0-.356,2.309c0,.51-.023,1.055-.055,1.616A10.588,10.588,0,0,0,702.553,213.116Z" transform="translate(-35.366 -42.021)" fill="#eb977d"/>
    <path id="Trazado_667218" data-name="Trazado 667218" d="M694.988,194.464a12.158,12.158,0,0,0,5.274,8.516c2.235,1.431,5.556,2.172,7.956.708,3.221-1.966,3.869-6.738,3.787-10.166-.1-4.054-1.691-8.591-5.62-10.394-2.762-1.268-7.089-1.4-9.064,1.248A13.933,13.933,0,0,0,694.988,194.464Z" transform="translate(-33.071 -33.51)" fill="#fab594"/>
    <path id="Trazado_667219" data-name="Trazado 667219" d="M747.81,195.9c1.553,1.436,2.647,3.257,1.048,4.2-.521.308-1.159-.177-1.487-.685s-.633-1.137-1.222-1.272a1.917,1.917,0,0,0-1.322.369l-4.575,2.616a3.113,3.113,0,0,1-.765.35,1.932,1.932,0,0,1-2.12-1.173,3.16,3.16,0,0,1,.159-2.553c1.324-2.828,3.3-3.114,6.11-3.213A5.279,5.279,0,0,1,747.81,195.9Z" transform="translate(-47.877 -37.804)" fill="#fab594"/>
    <path id="Trazado_667220" data-name="Trazado 667220" d="M706.1,181.921a5.344,5.344,0,0,0-2.356.874c-1.406.952-2.272,2.514-3.538,3.645a16.743,16.743,0,0,1-4.136,2.393,1.951,1.951,0,0,0-.737.5,1.6,1.6,0,0,0-.255,1.1c.131,2.174,1.588,4.1.467,6.269a1.685,1.685,0,0,1-.464.6c-1.243.926-2.357-1.4-2.8-2.253a11.292,11.292,0,0,1-1.2-4.092c-.276-2.85.28-6.609,2.562-8.526a12.608,12.608,0,0,1,7.92-3.105,10.511,10.511,0,0,1,2.942.4,3.535,3.535,0,0,1,1.384.752,3.45,3.45,0,0,1,.721.659,6.562,6.562,0,0,1,.33.752A5.237,5.237,0,0,0,706.1,181.921Z" transform="translate(-31.735 -32.484)" fill="#1f143f"/>
    <path id="Trazado_667221" data-name="Trazado 667221" d="M707.423,206.278a26.32,26.32,0,0,0,3.669-.359,14.5,14.5,0,0,0,3.559-1.306s-.117,1.319-.158,1.458a4.815,4.815,0,0,1-.728,1.484,3.955,3.955,0,0,1-4.973.9,3.091,3.091,0,0,1-.986-1.009C707.759,207.369,707.282,206.29,707.423,206.278Z" transform="translate(-37.463 -41.331)" fill="#fff"/>
    <path id="Trazado_667222" data-name="Trazado 667222" d="M713.839,191.683c1.07-.529,2.653-.646,3.478.355" transform="translate(-39.717 -36.668)" fill="none" stroke="#1f143f" stroke-miterlimit="10" stroke-width="0.5"/>
    <g id="Grupo_991373" data-name="Grupo 991373" transform="translate(639.453 233.574)" opacity="0.2">
      <path id="Trazado_667223" data-name="Trazado 667223" d="M688.924,313.273c-.374,1.2-.648,2.447-.983,3.662a75.551,75.551,0,0,1-6.294,16.26c-3.066,5.586-7.39,9.977-11.483,14.784-1.444,1.7-2.865,3.456-4.182,5.285-.586,2.448-1.183,4.893-1.849,7.32-1.059,3.862-3.019,7.719-3.6,11.669a.72.72,0,0,0,.03.439c.109.208.379.259.613.287a10.868,10.868,0,0,0,2.54.1c1.959-.23,2.781-1.733,3.826-3.219,1.19-1.691,2.277-3.453,3.3-5.248,2.053-3.6,3.852-7.327,5.742-11.008a133.745,133.745,0,0,0,8.966-20.51c2.384-7.519,2.358-12.594,3.707-20.367C689.183,312.726,688.947,313.2,688.924,313.273Z" transform="translate(-660.516 -312.727)" fill="#231f20"/>
      <path id="Trazado_667224" data-name="Trazado 667224" d="M704.72,312.727c-.006.1-.012.192-.019.289C704.732,312.875,704.761,312.728,704.72,312.727Z" transform="translate(-675.974 -312.727)" fill="#231f20"/>
    </g>
    <path id="Trazado_667225" data-name="Trazado 667225" d="M700.436,241.34q.022,1.539.046,3.077a7.289,7.289,0,0,1-.143,1.93,2.455,2.455,0,0,1-1.079,1.551c-1.179.671-3.036-.342-3.7-1.372a9.924,9.924,0,0,1-1.432-5.194l6.307-.016Z" transform="translate(-32.822 -54.171)" fill="#72c384"/>
    <ellipse id="Elipse_7863" data-name="Elipse 7863" cx="1.721" cy="2.79" rx="1.721" ry="2.79" transform="translate(659.211 162.719) rotate(-30)" fill="#fab594"/>
    <path id="Trazado_667226" data-name="Trazado 667226" d="M705.543,198.31c.187.869-.035,1.655-.5,1.754s-.986-.525-1.173-1.395.034-1.655.5-1.754S705.355,197.44,705.543,198.31Z" transform="translate(-36.208 -38.635)" fill="#1f143f"/>
    <path id="Trazado_667227" data-name="Trazado 667227" d="M716.9,195.974c.07.887-.254,1.636-.724,1.673s-.908-.651-.978-1.538.254-1.635.724-1.672S716.831,195.088,716.9,195.974Z" transform="translate(-40.19 -37.771)" fill="#1f143f"/>
    <path id="Trazado_667228" data-name="Trazado 667228" d="M703.981,193.64a3.087,3.087,0,0,0-2.119.63,2.976,2.976,0,0,0-1.059,1.454" transform="translate(-35.156 -37.484)" fill="none" stroke="#1f143f" stroke-miterlimit="10" stroke-width="0.5"/>
    <path id="Trazado_667229" data-name="Trazado 667229" d="M712.645,219.965l-2.218,3.161,3.31,2.8v-5.389Z" transform="translate(-38.523 -46.702)" fill="#fff"/>
    <path id="Trazado_667230" data-name="Trazado 667230" d="M696.539,222.823l3.032-2.1,6,2.668-1.548,3.9Z" transform="translate(-33.665 -46.967)" fill="#fff"/>
    <path id="Trazado_667231" data-name="Trazado 667231" d="M685.166,266.014c-1.713.078-2.831-1.369-2.889-3.133-.02-.622-.012-1.245.022-1.867.268-4.9,2.266-9.409,3.984-13.927a32.483,32.483,0,0,0,2.3-12.363,28.6,28.6,0,0,0-2.014-9.929.378.378,0,0,1-.041-.206.362.362,0,0,1,.09-.159,10.466,10.466,0,0,1,2.867-2.166,16.08,16.08,0,0,1,3.458-1.675,6.12,6.12,0,0,1,1.227-.383c.995.241,2.09,3.377,2.484,4.248,4.125,9.136,2.459,20.043-1.729,28.845-2.044,4.3-4.39,8.545-7.816,11.845a2.73,2.73,0,0,1-.936.664A3.451,3.451,0,0,1,685.166,266.014Z" transform="translate(-28.672 -46.785)" fill="#1f143f"/>
    <path id="Trazado_667232" data-name="Trazado 667232" d="M670.426,242.806c-1.169,1.977-2.556,4.118-2.938,6.348-.49,2.848.292,5.533,1.182,8.245a59.549,59.549,0,0,0,7.136,14.283c.121.181.284.386.5.371a.629.629,0,0,0,.291-.127l4.294-2.836a1.119,1.119,0,0,0,.453-1.71q-1.949-4.921-3.9-9.843a16.574,16.574,0,0,1-1.3-4.46,10.791,10.791,0,0,1,1.77-6.6,25.865,25.865,0,0,1,4.58-5.205,6.248,6.248,0,0,0,1.575-1.881c1.094-2.4.912-5.2.671-7.755-.129-1.358.074-5.865-2.079-5.82a1.9,1.9,0,0,0-1.068.49c-2.462,1.9-4.079,4.615-5.63,7.257-1.677,2.855-3.484,5.623-5.116,8.506Q670.648,242.432,670.426,242.806Z" transform="translate(-23.449 -48.748)" fill="#1f143f"/>
    <path id="Trazado_667233" data-name="Trazado 667233" d="M724.469,257.676c.1-6.69.2-13.389-.179-20.073-.1-1.692-.227-3.38-.385-5.067-.1-1.095-.236-1.045.561-1.6a10.522,10.522,0,0,1,2.27-.827c4.11-1.5,8.221-3,12.3-4.573,3.637-1.4,7.214-3.18,9.792-6.19a96.241,96.241,0,0,1-11.456,1.527,131.676,131.676,0,0,1-15.545.823,15.065,15.065,0,0,1-6.312-1.371,20.48,20.48,0,0,1,1.69,6.113c.074,2.43.239,4.86.324,7.29q.25,7.152.234,14.309c-.016,7.387-.542,14.533-1.242,21.868a14.252,14.252,0,0,0,4.783-.427,1.839,1.839,0,0,0,.769-.346,1.915,1.915,0,0,0,.45-.738,24.575,24.575,0,0,0,1.716-6.277A40.428,40.428,0,0,0,724.469,257.676Z" transform="translate(-40.304 -46.484)" fill="#1f143f"/>
    <path id="Trazado_667234" data-name="Trazado 667234" d="M700.553,253.3c4.188-8.8,5.854-19.709,1.729-28.845-.393-.871-1.489-4.006-2.484-4.248a6.122,6.122,0,0,0-1.228.383c-.072.023-.139.053-.211.077a6.268,6.268,0,0,0,.545,1.208,14.391,14.391,0,0,1,.837,2.845,34.229,34.229,0,0,1,.345,13.034,4.187,4.187,0,0,1,1.845.215,6.281,6.281,0,0,1-.91,1.807,7.029,7.029,0,0,0-.222,3.965,29.808,29.808,0,0,1-.64,10.363C700.292,253.835,700.425,253.567,700.553,253.3Z" transform="translate(-34.302 -46.785)" fill="#274169"/>
    <path id="Trazado_667235" data-name="Trazado 667235" d="M718.61,228.152c.48,3.08.91,6.168,1.372,9.25a1.864,1.864,0,0,1-1.024-.166,25.513,25.513,0,0,1,.077,5.328c-.5,4-2.876,7.586-3.4,11.587-.609-4.388-1.218-8.779-1.554-13.2-.294-3.87-.377-7.762-.951-11.6-.473-3.164-1.278-6.286-1.448-9.48A4.067,4.067,0,0,1,712,217.7a1.571,1.571,0,0,1,1.854-.824,2.335,2.335,0,0,1,1.019,1.16A29.8,29.8,0,0,1,718.61,228.152Z" transform="translate(-38.957 -45.591)" fill="none"/>
    <path id="Trazado_667236" data-name="Trazado 667236" d="M721.329,238.821c-.462-3.082-.891-6.17-1.372-9.25a26.253,26.253,0,0,0-2.656-8.024,10.8,10.8,0,0,1-1.784-.7,20.48,20.48,0,0,1,1.69,6.113c.074,2.43.239,4.86.324,7.29q.25,7.152.234,14.309c0,1.324-.027,2.639-.061,3.95.912-2.839,2.3-5.569,2.677-8.528a25.525,25.525,0,0,0-.077-5.327A1.864,1.864,0,0,0,721.329,238.821Z" transform="translate(-40.304 -47.011)" fill="#274169"/>
    <path id="Trazado_667237" data-name="Trazado 667237" d="M710.819,227.591a22.84,22.84,0,0,1,1.174,5.27,92.181,92.181,0,0,1,.228,15.928,62.1,62.1,0,0,1-1.2,10.359c-.728,3.476-1.571,6.928-2.2,10.426" transform="translate(-37.961 -49.37)" fill="none" stroke="#fff" stroke-miterlimit="10" stroke-width="0.5"/>
    <g id="Grupo_991375" data-name="Grupo 991375" transform="translate(814.045 241.13)">
      <g id="Grupo_991374" data-name="Grupo 991374">
        <path id="Trazado_667238" data-name="Trazado 667238" d="M972.688,327.379l-8.555-3.03-4.506,8.033.272.1a21.233,21.233,0,0,0-5,.262l.261-.125-5.319-7.519L941.653,329l2.495,8.866.261-.125a21.247,21.247,0,0,0-3.348,3.718l.1-.273-9.078-1.555-3.03,8.556,8.033,4.506.1-.273a21.192,21.192,0,0,0,.261,5l-.125-.261-7.519,5.319,3.907,8.192,8.866-2.494-.124-.261a21.241,21.241,0,0,0,3.718,3.348l-.272-.1-1.555,9.078,8.556,3.03,4.5-8.033-.272-.1a21.267,21.267,0,0,0,5-.261l-.261.124,5.319,7.519,8.193-3.907-2.495-8.866-.261.125a21.247,21.247,0,0,0,3.348-3.718l-.1.272,9.078,1.555,3.03-8.556-8.033-4.505-.1.272a21.2,21.2,0,0,0-.261-5l.125.261,7.519-5.319-3.907-8.192-8.866,2.494.124.261a21.248,21.248,0,0,0-3.718-3.348l.272.1Z" transform="translate(-929.049 -324.349)" fill="#6a8fbc"/>
        <circle id="Elipse_7864" data-name="Elipse 7864" cx="18.541" cy="18.541" r="18.541" transform="translate(3.349 27.093) rotate(-39.814)" fill="#a0b3d9"/>
        <circle id="Elipse_7865" data-name="Elipse 7865" cx="13.927" cy="13.927" r="13.927" transform="translate(10.624 35.211) rotate(-61.969)" fill="#5a82ad"/>
        <circle id="Elipse_7866" data-name="Elipse 7866" cx="9.69" cy="9.69" r="9.69" transform="matrix(0.753, -0.658, 0.658, 0.753, 15.79, 28.547)" fill="#fff"/>
      </g>
    </g>
    <g id="Grupo_991377" data-name="Grupo 991377" transform="translate(814.053 200.441)">
      <g id="Grupo_991376" data-name="Grupo 991376">
        <path id="Trazado_667239" data-name="Trazado 667239" d="M960.215,264.972l-5.474-2.649-3.593,5.017.174.084a14.249,14.249,0,0,0-3.346-.194l.183-.064-2.988-5.4-5.744,2,1.007,6.089.183-.064a14.2,14.2,0,0,0-2.5,2.229l.084-.174-5.931-1.705-2.649,5.474,5.017,3.593.085-.174a14.22,14.22,0,0,0-.194,3.346l-.064-.183-5.4,2.988,2,5.744,6.088-1.007-.064-.183a14.175,14.175,0,0,0,2.229,2.5l-.175-.084-1.7,5.931,5.474,2.649,3.593-5.017-.174-.085a14.224,14.224,0,0,0,3.347.194l-.183.064,2.988,5.4,5.744-2-1.008-6.088-.183.064a14.2,14.2,0,0,0,2.5-2.229l-.085.175,5.931,1.7,2.649-5.474-5.018-3.593-.084.174a14.251,14.251,0,0,0,.194-3.347l.064.183,5.4-2.988-2-5.744-6.089,1.007.064.183a14.224,14.224,0,0,0-2.229-2.5l.174.085Z" transform="translate(-929.061 -261.767)" fill="#6a8fbc"/>
        <circle id="Elipse_7867" data-name="Elipse 7867" cx="12.424" cy="12.424" r="12.424" transform="matrix(0.425, -0.905, 0.905, 0.425, 3.24, 25.736)" fill="#a0b3d9"/>
        <path id="Trazado_667240" data-name="Trazado 667240" d="M958.5,278.74a9.332,9.332,0,1,1-12.465,4.335A9.332,9.332,0,0,1,958.5,278.74Z" transform="translate(-934.672 -267.378)" fill="#5a82ad"/>
        <path id="Trazado_667241" data-name="Trazado 667241" d="M958.791,282.824a6.493,6.493,0,1,1-8.672,3.016A6.493,6.493,0,0,1,958.791,282.824Z" transform="translate(-936.2 -268.906)" fill="#fff"/>
      </g>
    </g>
  </g>
</svg>
