<svg xmlns="http://www.w3.org/2000/svg" width="310.672" height="290.214" viewBox="0 0 310.672 290.214">
  <g id="Grupo_991348" data-name="Grupo 991348" transform="translate(-61.974 -49.718)">
    <g id="Grupo_991032" data-name="Grupo 991032" transform="translate(62.587 206.914)">
      <g id="Grupo_991031" data-name="Grupo 991031">
        <path id="Trazado_667038" data-name="Trazado 667038" d="M66.773,430.08v17.847H70.9a25.044,25.044,0,0,1,0-5.659c.4-2.106,4.87-7.531,4.738-12.188Z" transform="translate(-63.97 -316.488)" fill="#ebebeb"/>
        <path id="Trazado_667039" data-name="Trazado 667039" d="M113.091,430.08v17.847h4.122a25,25,0,0,1,0-5.659c.394-2.106,4.869-7.531,4.738-12.188Z" transform="translate(-77.313 -316.488)" fill="#e0e0e0"/>
        <path id="Trazado_667040" data-name="Trazado 667040" d="M154.837,430.08v17.847h-4.122a25.045,25.045,0,0,0,0-5.659c-.4-2.106-4.87-7.531-4.738-12.188Z" transform="translate(-86.786 -316.488)" fill="#ebebeb"/>
        <path id="Trazado_667041" data-name="Trazado 667041" d="M194.93,430.08v17.847h-4.122a25.044,25.044,0,0,0,0-5.659c-.4-2.106-4.87-7.531-4.738-12.188Z" transform="translate(-98.336 -316.488)" fill="#e0e0e0"/>
        <rect id="Rectángulo_311386" data-name="Rectángulo 311386" width="98.755" height="88.685" transform="translate(0 25.484)" fill="#f5f5f5"/>
        <path id="Trazado_667042" data-name="Trazado 667042" d="M164.181,306.318,164.916,395h25.87V306.315Z" transform="translate(-92.031 -280.834)" fill="#e0e0e0"/>
        <rect id="Rectángulo_311387" data-name="Rectángulo 311387" width="63.404" height="22.566" transform="translate(4.444 32.008)" fill="#ebebeb"/>
        <rect id="Rectángulo_311388" data-name="Rectángulo 311388" width="63.404" height="22.566" transform="translate(4.444 59.073)" fill="#ebebeb"/>
        <rect id="Rectángulo_311389" data-name="Rectángulo 311389" width="63.404" height="22.566" transform="translate(4.444 86.138)" fill="#ebebeb"/>
        <g id="Grupo_991030" data-name="Grupo 991030" transform="translate(26.014)">
          <g id="Grupo_991025" data-name="Grupo 991025">
            <g id="Grupo_991024" data-name="Grupo 991024">
              <path id="Trazado_667043" data-name="Trazado 667043" d="M102.111,270.523,99.376,295.9h35.04l2.906-25.379Z" transform="translate(-99.376 -270.523)" fill="#e0e0e0"/>
            </g>
          </g>
          <g id="Grupo_991027" data-name="Grupo 991027" transform="translate(1.515 1.823)">
            <g id="Grupo_991026" data-name="Grupo 991026">
              <path id="Trazado_667044" data-name="Trazado 667044" d="M104.164,273.084l-2.66,22.208h31.623l2.559-22.208Z" transform="translate(-101.504 -273.084)" fill="#fff"/>
            </g>
          </g>
          <g id="Grupo_991029" data-name="Grupo 991029" transform="translate(7.86 5.558)">
            <g id="Grupo_991028" data-name="Grupo 991028">
              <path id="Trazado_667045" data-name="Trazado 667045" d="M112.053,278.331l-1.637,14.737h19.956l1.024-14.737Z" transform="translate(-110.416 -278.331)" fill="#ebebeb"/>
            </g>
          </g>
        </g>
        <path id="Trazado_667046" data-name="Trazado 667046" d="M150.249,285.876l7.238,14.551-8.892-.1,1.655-14.449" transform="translate(-87.54 -274.946)" fill="#ebebeb"/>
      </g>
      <path id="Trazado_667047" data-name="Trazado 667047" d="M114.988,332.05a2.319,2.319,0,1,1-2.319-2.319A2.319,2.319,0,0,1,114.988,332.05Z" transform="translate(-76.523 -287.58)" fill="#e0e0e0"/>
      <path id="Trazado_667048" data-name="Trazado 667048" d="M114.988,370.443a2.319,2.319,0,1,1-2.319-2.319A2.319,2.319,0,0,1,114.988,370.443Z" transform="translate(-76.523 -298.64)" fill="#e0e0e0"/>
      <path id="Trazado_667049" data-name="Trazado 667049" d="M114.988,408.837a2.319,2.319,0,1,1-2.319-2.319A2.319,2.319,0,0,1,114.988,408.837Z" transform="translate(-76.523 -309.7)" fill="#e0e0e0"/>
    </g>
    <g id="Grupo_991041" data-name="Grupo 991041" transform="translate(74.34 87.688)">
      <g id="Grupo_991034" data-name="Grupo 991034">
        <g id="Grupo_991033" data-name="Grupo 991033">
          <path id="Trazado_667050" data-name="Trazado 667050" d="M135.34,103.6l-56-.544,1.564,72.974,55.989.206Z" transform="translate(-79.344 -103.052)" fill="#e0e0e0"/>
        </g>
      </g>
      <g id="Grupo_991036" data-name="Grupo 991036" transform="translate(3.366 2.526)">
        <g id="Grupo_991035" data-name="Grupo 991035">
          <path id="Trazado_667051" data-name="Trazado 667051" d="M133.089,107.874,84.072,106.6l1.418,66.184,49,.6Z" transform="translate(-84.072 -106.6)" fill="#fafafa"/>
        </g>
      </g>
      <g id="Grupo_991038" data-name="Grupo 991038" transform="translate(11.495 13.145)">
        <g id="Grupo_991037" data-name="Grupo 991037">
          <path id="Trazado_667052" data-name="Trazado 667052" d="M128.011,122.057l-32.522-.541.991,46.259,32.5-.7Z" transform="translate(-95.49 -121.517)" fill="#ebebeb"/>
        </g>
      </g>
      <g id="Grupo_991040" data-name="Grupo 991040" transform="translate(11.495 13.145)">
        <g id="Grupo_991039" data-name="Grupo 991039">
          <path id="Trazado_667053" data-name="Trazado 667053" d="M96.481,167.776l31.986-24.462-32.977-21.8Z" transform="translate(-95.49 -121.517)" fill="#f5f5f5"/>
        </g>
      </g>
    </g>
    <g id="Grupo_991050" data-name="Grupo 991050" transform="translate(322.157 49.718)">
      <g id="Grupo_991043" data-name="Grupo 991043">
        <g id="Grupo_991042" data-name="Grupo 991042">
          <path id="Trazado_667054" data-name="Trazado 667054" d="M476.563,50.2l-49.123-.478,1.372,64.018,49.117.18Z" transform="translate(-427.44 -49.718)" fill="#e0e0e0"/>
        </g>
      </g>
      <g id="Grupo_991045" data-name="Grupo 991045" transform="translate(2.953 2.216)">
        <g id="Grupo_991044" data-name="Grupo 991044">
          <path id="Trazado_667055" data-name="Trazado 667055" d="M474.589,53.948l-43-1.117,1.244,58.061,42.989.529Z" transform="translate(-431.588 -52.831)" fill="#fafafa"/>
        </g>
      </g>
      <g id="Grupo_991047" data-name="Grupo 991047" transform="translate(10.084 11.532)">
        <g id="Grupo_991046" data-name="Grupo 991046">
          <path id="Trazado_667056" data-name="Trazado 667056" d="M470.134,66.391l-28.53-.474.869,40.582,28.507-.611Z" transform="translate(-441.604 -65.917)" fill="#ebebeb"/>
        </g>
      </g>
      <g id="Grupo_991049" data-name="Grupo 991049" transform="translate(10.084 11.532)">
        <g id="Grupo_991048" data-name="Grupo 991048">
          <path id="Trazado_667057" data-name="Trazado 667057" d="M442.474,106.5l28.06-21.459L441.6,65.917Z" transform="translate(-441.604 -65.917)" fill="#f5f5f5"/>
        </g>
      </g>
    </g>
    <g id="Grupo_991057" data-name="Grupo 991057" transform="translate(316.248 275.165)">
      <g id="Grupo_991051" data-name="Grupo 991051" transform="translate(0 15.728)">
        <path id="Trazado_667058" data-name="Trazado 667058" d="M419.144,388.485c-.209.629,7.119,28.478,7.119,28.478l5.026-1.047-6.911-27.431Z" transform="translate(-419.14 -388.485)" fill="#ebebeb"/>
      </g>
      <g id="Grupo_991052" data-name="Grupo 991052" transform="translate(28.901 11.75)">
        <path id="Trazado_667059" data-name="Trazado 667059" d="M469.787,382.9l-10.051,32.457H465.6l9.632-30.153Z" transform="translate(-459.736 -382.897)" fill="#f5f5f5"/>
      </g>
      <g id="Grupo_991053" data-name="Grupo 991053" transform="translate(36.649 6.725)">
        <path id="Trazado_667060" data-name="Trazado 667060" d="M482.136,375.838,470.619,413.32h5.863l11.1-35.179Z" transform="translate(-470.619 -375.838)" fill="#ebebeb"/>
      </g>
      <g id="Grupo_991054" data-name="Grupo 991054" transform="translate(3.564 41.903)">
        <path id="Trazado_667061" data-name="Trazado 667061" d="M424.146,425.252l5.863,20.312h29.525l5.444-20.312Z" transform="translate(-424.146 -425.252)" fill="#e0e0e0"/>
      </g>
      <g id="Grupo_991056" data-name="Grupo 991056" transform="translate(4.129)">
        <g id="Grupo_991055" data-name="Grupo 991055">
          <path id="Trazado_667062" data-name="Trazado 667062" d="M439.6,408.3a1.037,1.037,0,0,1-.065-.209l-.156-.621c-.135-.571-.325-1.374-.567-2.4-.483-2.113-1.174-5.134-2.028-8.871-1.689-7.536-4.022-17.952-6.627-29.579l.18.145h-5.17l.181-.226c2.621,11.638,4.968,22.062,6.667,29.6.827,3.747,1.494,6.777,1.961,8.9.22,1.031.392,1.839.514,2.413.052.261.093.468.125.629a1.006,1.006,0,0,1,.031.217.973.973,0,0,1-.066-.209l-.159-.621c-.138-.572-.332-1.375-.579-2.4-.494-2.112-1.2-5.133-2.075-8.869l-6.779-29.58-.052-.226h5.551l.032.145,6.514,29.6c.807,3.747,1.459,6.777,1.916,8.9l.5,2.413.121.629A.938.938,0,0,1,439.6,408.3Z" transform="translate(-424.94 -366.392)" fill="#e0e0e0"/>
        </g>
      </g>
    </g>
    <g id="Grupo_991059" data-name="Grupo 991059" transform="translate(61.974 338.044)">
      <g id="Grupo_991058" data-name="Grupo 991058">
        <path id="Trazado_667063" data-name="Trazado 667063" d="M363.893,454.9c0,.1-67.592.185-150.952.185-83.389,0-150.967-.083-150.967-.185s67.578-.186,150.967-.186C296.3,454.714,363.893,454.8,363.893,454.9Z" transform="translate(-61.974 -454.714)" fill="#263238"/>
      </g>
    </g>
    <g id="Grupo_991076" data-name="Grupo 991076" transform="translate(296.967 143.639)">
      <g id="Grupo_991061" data-name="Grupo 991061">
        <g id="Grupo_991060" data-name="Grupo 991060">
          <path id="Trazado_667064" data-name="Trazado 667064" d="M439.548,181.921a2.77,2.77,0,0,0-.505-.155,3.513,3.513,0,0,0-1.543.023,5.58,5.58,0,0,0-2.245,1.153,11.893,11.893,0,0,0-2.278,2.655,47.615,47.615,0,0,0-3.945,8.926,130.746,130.746,0,0,0-4.015,12.551l0,.016-.006.01a3.678,3.678,0,0,1-.83,1.027,1.637,1.637,0,0,1-1.294.413,2.4,2.4,0,0,1-1.192-.687c-.332-.309-.644-.637-.958-.967a22.129,22.129,0,0,0-1.973-1.925,3.641,3.641,0,0,0-2.5-1.019,3.375,3.375,0,0,0-2.287,1.524,5.74,5.74,0,0,0-.787,2.828,28.522,28.522,0,0,0,.824,6.224q.595,3.193,1.218,6.54l.63,3.384q.159.855.32,1.719a2.233,2.233,0,0,1-.2,1.823.9.9,0,0,1-.95.323,2.39,2.39,0,0,1-.842-.439l-1.445-1.081a32.314,32.314,0,0,0-3.016-2.031,11.493,11.493,0,0,0-3.375-1.4,3.964,3.964,0,0,0-1.8.011,2.656,2.656,0,0,0-1.462.982,6.03,6.03,0,0,0-.959,3.557,19.951,19.951,0,0,0,.372,3.859,49.279,49.279,0,0,0,2.171,7.673,10.231,10.231,0,0,1,.622,1.98,1.446,1.446,0,0,1-.263,1.1,1.32,1.32,0,0,1-.206.207.7.7,0,0,1-.277.163.851.851,0,0,1-.62-.137,10.634,10.634,0,0,1-1.646-1.31l-1.526-1.415a22.622,22.622,0,0,0-3.238-2.607,6.8,6.8,0,0,0-1.867-.85,2.316,2.316,0,0,0-1.9.236,2.753,2.753,0,0,0-1.076,1.649,8.352,8.352,0,0,0-.254,2.083,17.546,17.546,0,0,0,.536,4.252,36.98,36.98,0,0,0,3.091,8.183,61.954,61.954,0,0,0,4.608,7.655,43.881,43.881,0,0,0,2.774,3.58l2.89,3.542.033.041-.171-.066,4.526-.659a41.752,41.752,0,0,0,4.464-.77,62.022,62.022,0,0,0,8.562-2.568,37.041,37.041,0,0,0,7.794-3.978,17.614,17.614,0,0,0,3.258-2.787A8.394,8.394,0,0,0,436,255.244a2.766,2.766,0,0,0,.314-1.946,2.316,2.316,0,0,0-1.249-1.456,6.8,6.8,0,0,0-1.955-.627,22.654,22.654,0,0,0-4.151-.248l-2.081.021a10.572,10.572,0,0,1-2.1-.137.852.852,0,0,1-.55-.317.7.7,0,0,1-.095-.307,1.328,1.328,0,0,1-.013-.292,1.442,1.442,0,0,1,.544-.99,10.219,10.219,0,0,1,1.793-1.047,49.322,49.322,0,0,0,6.767-4.222,19.933,19.933,0,0,0,2.87-2.606,6.027,6.027,0,0,0,1.68-3.28,2.657,2.657,0,0,0-.426-1.71,3.959,3.959,0,0,0-1.323-1.215,11.515,11.515,0,0,0-3.443-1.227,32.33,32.33,0,0,0-3.6-.524l-1.8-.171a2.4,2.4,0,0,1-.918-.244.9.9,0,0,1-.48-.883,2.247,2.247,0,0,1,1.079-1.482l1.393-1.058,2.742-2.08,5.3-4.022a28.428,28.428,0,0,0,4.793-4.053,5.732,5.732,0,0,0,1.316-2.623,3.37,3.37,0,0,0-.671-2.665,2.454,2.454,0,0,0-1.165-.7,5.655,5.655,0,0,0-1.368-.225,22.123,22.123,0,0,0-2.754.1c-.454.033-.906.066-1.359.071a2.391,2.391,0,0,1-1.344-.293,1.638,1.638,0,0,1-.679-1.176,3.687,3.687,0,0,1,.076-1.318l0-.011.008-.015a130.747,130.747,0,0,0,5.458-11.969,49.023,49.023,0,0,0,3.094-9.239,12.022,12.022,0,0,0,.141-3.49,5.657,5.657,0,0,0-.828-2.379,3.405,3.405,0,0,0-1.1-1.076,2.579,2.579,0,0,0-.474-.23,1.879,1.879,0,0,1,.49.2,3.352,3.352,0,0,1,1.138,1.068,5.656,5.656,0,0,1,.868,2.4,12.048,12.048,0,0,1-.112,3.523,48.586,48.586,0,0,1-3.051,9.283,128.947,128.947,0,0,1-5.425,12.013l.011-.026a3.465,3.465,0,0,0-.068,1.227,1.409,1.409,0,0,0,.582,1.015,2.171,2.171,0,0,0,1.214.251c.441-.006.889-.04,1.342-.075a22.3,22.3,0,0,1,2.786-.107,5.871,5.871,0,0,1,1.429.233,2.7,2.7,0,0,1,1.279.763,3.617,3.617,0,0,1,.743,2.88,6,6,0,0,1-1.366,2.752,28.647,28.647,0,0,1-4.835,4.112l-5.287,4.029-2.735,2.084-1.39,1.059a3.275,3.275,0,0,0-.633.557,1.416,1.416,0,0,0-.327.712.579.579,0,0,0,.323.584,2.1,2.1,0,0,0,.8.205l1.791.167a32.7,32.7,0,0,1,3.635.525,11.781,11.781,0,0,1,3.544,1.262,4.29,4.29,0,0,1,1.432,1.316,3,3,0,0,1,.48,1.913,6.335,6.335,0,0,1-1.758,3.476,20.314,20.314,0,0,1-2.917,2.655,49.477,49.477,0,0,1-6.811,4.259,10.143,10.143,0,0,0-1.723,1,1.094,1.094,0,0,0-.426.75.96.96,0,0,0,.011.22c.009.056.029.191.05.179a.612.612,0,0,0,.332.153,10.446,10.446,0,0,0,2.015.125l2.079-.023a22.953,22.953,0,0,1,4.217.251,7.128,7.128,0,0,1,2.062.664,2.678,2.678,0,0,1,1.428,1.685,3.131,3.131,0,0,1-.34,2.193,8.752,8.752,0,0,1-1.267,1.792,17.958,17.958,0,0,1-3.322,2.846,37.343,37.343,0,0,1-7.87,4.022,62.214,62.214,0,0,1-8.617,2.586,41.769,41.769,0,0,1-4.482.773l-4.534.66-.1.015-.066-.081-.033-.041-2.894-3.547a43.868,43.868,0,0,1-2.784-3.594,62.3,62.3,0,0,1-4.635-7.705,37.32,37.32,0,0,1-3.117-8.265,17.944,17.944,0,0,1-.544-4.339,8.713,8.713,0,0,1,.269-2.177,3.116,3.116,0,0,1,1.224-1.85,2.677,2.677,0,0,1,2.191-.285,7.127,7.127,0,0,1,1.971.895,22.9,22.9,0,0,1,3.289,2.65l1.523,1.414a10.436,10.436,0,0,0,1.576,1.262.612.612,0,0,0,.349.11c.007.023.112-.062.157-.1a.976.976,0,0,0,.155-.156,1.092,1.092,0,0,0,.19-.841,10.15,10.15,0,0,0-.6-1.9,49.484,49.484,0,0,1-2.178-7.731,20.281,20.281,0,0,1-.374-3.926,6.344,6.344,0,0,1,1.034-3.755,2.988,2.988,0,0,1,1.64-1.1,4.3,4.3,0,0,1,1.944-.014,11.775,11.775,0,0,1,3.472,1.448,32.368,32.368,0,0,1,3.043,2.055l1.439,1.08a2.1,2.1,0,0,0,.73.389.58.58,0,0,0,.634-.209,1.421,1.421,0,0,0,.239-.745,3.215,3.215,0,0,0-.093-.837q-.159-.864-.317-1.719l-.624-3.382-1.2-6.538a28.681,28.681,0,0,1-.816-6.295,6,6,0,0,1,.837-2.957,3.623,3.623,0,0,1,2.485-1.635,2.708,2.708,0,0,1,1.462.293,5.88,5.88,0,0,1,1.215.788,22.2,22.2,0,0,1,1.991,1.953c.312.33.621.657.943.958a2.184,2.184,0,0,0,1.067.632,1.409,1.409,0,0,0,1.114-.36,3.448,3.448,0,0,0,.776-.954l-.009.026a129.137,129.137,0,0,1,4.07-12.56,47.2,47.2,0,0,1,4.007-8.932,11.943,11.943,0,0,1,2.322-2.66,5.592,5.592,0,0,1,2.29-1.141,3.448,3.448,0,0,1,1.563.008A1.943,1.943,0,0,1,439.548,181.921Z" transform="translate(-392.057 -181.643)" fill="#263238"/>
        </g>
      </g>
      <g id="Grupo_991063" data-name="Grupo 991063" transform="translate(9.927 9.962)">
        <g id="Grupo_991062" data-name="Grupo 991062">
          <path id="Trazado_667065" data-name="Trazado 667065" d="M439.831,195.637a1.2,1.2,0,0,1-.072.232l-.246.669-.977,2.56-3.622,9.4L423.09,239.566c-4.6,12.142-8.81,23.118-11.928,31.034-1.558,3.959-2.833,7.157-3.733,9.36-.445,1.084-.794,1.933-1.042,2.534l-.28.656a1.228,1.228,0,0,1-.107.219,1.2,1.2,0,0,1,.072-.233l.246-.669.977-2.559,3.622-9.4,11.826-31.071c4.6-12.138,8.808-23.113,11.927-31.03,1.558-3.958,2.833-7.157,3.732-9.36l1.042-2.534c.116-.274.209-.491.279-.656A1.128,1.128,0,0,1,439.831,195.637Z" transform="translate(-406 -195.637)" fill="#263238"/>
        </g>
      </g>
      <g id="Grupo_991065" data-name="Grupo 991065" transform="translate(31.695 34.525)">
        <g id="Grupo_991064" data-name="Grupo 991064">
          <path id="Trazado_667066" data-name="Trazado 667066" d="M449.022,230.143a12.566,12.566,0,0,1-1.781,1.058l-4.361,2.426c-1.7.948-3.257,1.792-4.4,2.366a9.517,9.517,0,0,1-1.9.829,14.544,14.544,0,0,1,1.778-1.06L442.7,233.3c1.705-.948,3.269-1.772,4.42-2.334A10.544,10.544,0,0,1,449.022,230.143Z" transform="translate(-436.576 -230.139)" fill="#263238"/>
        </g>
      </g>
      <g id="Grupo_991067" data-name="Grupo 991067" transform="translate(23.884 26.181)">
        <g id="Grupo_991066" data-name="Grupo 991066">
          <path id="Trazado_667067" data-name="Trazado 667067" d="M432.839,233.015c-.092.046-1.785-3.185-3.781-7.215s-3.541-7.335-3.449-7.38,1.785,3.184,3.781,7.216S432.93,232.969,432.839,233.015Z" transform="translate(-425.605 -218.418)" fill="#263238"/>
        </g>
      </g>
      <g id="Grupo_991069" data-name="Grupo 991069" transform="translate(15.585 48.74)">
        <g id="Grupo_991068" data-name="Grupo 991068">
          <path id="Trazado_667068" data-name="Trazado 667068" d="M423.255,261.105a10.909,10.909,0,0,1-1.565-1.426c-.923-.925-2.164-2.24-3.451-3.765s-2.385-2.962-3.142-4.028a10.807,10.807,0,0,1-1.147-1.78,13.46,13.46,0,0,1,1.357,1.622c.809,1.022,1.93,2.43,3.215,3.945s2.486,2.856,3.358,3.824A13.313,13.313,0,0,1,423.255,261.105Z" transform="translate(-413.947 -250.105)" fill="#263238"/>
        </g>
      </g>
      <g id="Grupo_991071" data-name="Grupo 991071" transform="translate(24.905 56.669)">
        <g id="Grupo_991070" data-name="Grupo 991070">
          <path id="Trazado_667069" data-name="Trazado 667069" d="M440.05,261.255a10.288,10.288,0,0,1-1.877.55c-1.17.293-2.791.673-4.588,1.071s-3.427.738-4.612.965a10.264,10.264,0,0,1-1.934.294,10.24,10.24,0,0,1,1.877-.55c1.17-.293,2.792-.674,4.588-1.072s3.427-.737,4.611-.965A10.192,10.192,0,0,1,440.05,261.255Z" transform="translate(-427.04 -261.244)" fill="#263238"/>
        </g>
      </g>
      <g id="Grupo_991073" data-name="Grupo 991073" transform="translate(17.837 74.109)">
        <g id="Grupo_991072" data-name="Grupo 991072">
          <path id="Trazado_667070" data-name="Trazado 667070" d="M433.821,285.75a16.777,16.777,0,0,1-2.421.646c-1.5.352-3.589.814-5.9,1.3s-4.4.909-5.92,1.2a16.606,16.606,0,0,1-2.474.389,16.734,16.734,0,0,1,2.42-.646c1.505-.352,3.59-.814,5.9-1.3s4.4-.908,5.918-1.2A16.792,16.792,0,0,1,433.821,285.75Z" transform="translate(-417.112 -285.741)" fill="#263238"/>
        </g>
      </g>
      <g id="Grupo_991075" data-name="Grupo 991075" transform="translate(6.786 63.18)">
        <g id="Grupo_991074" data-name="Grupo 991074">
          <path id="Trazado_667071" data-name="Trazado 667071" d="M413.016,284.663a2.691,2.691,0,0,1-.535-.486c-.327-.328-.787-.817-1.347-1.427-1.117-1.224-2.623-2.95-4.2-4.927s-2.94-3.819-3.888-5.178c-.475-.679-.849-1.236-1.1-1.627a2.75,2.75,0,0,1-.357-.629,2.7,2.7,0,0,1,.474.545l1.192,1.556c1,1.317,2.388,3.132,3.965,5.1s3.045,3.719,4.109,4.986A21.544,21.544,0,0,1,413.016,284.663Z" transform="translate(-401.588 -270.389)" fill="#263238"/>
        </g>
      </g>
    </g>
    <g id="Grupo_991096" data-name="Grupo 991096" transform="translate(294.985 182.356)">
      <g id="Grupo_991078" data-name="Grupo 991078">
        <g id="Grupo_991077" data-name="Grupo 991077">
          <path id="Trazado_667072" data-name="Trazado 667072" d="M402.347,322.454c-12.362-9.963-14.153-27-12.6-42.1.258-2.521.164-5.2,1.518-7.338s4.262-3.456,6.451-2.237c1.816,1.012,2.484,3.251,3.409,5.127a14.815,14.815,0,0,0,5.537,6.066c1.551.945,3.507,1.592,5.156.825,2.262-1.053,2.725-4.046,2.882-6.56l.876-14.055a23.472,23.472,0,0,1,1.271-7.412,7.81,7.81,0,0,1,5.26-4.934c2.437-.505,5.3,1.076,5.635,3.57a23.279,23.279,0,0,1-.144,3.134,2.65,2.65,0,0,0,1.376,2.594c.982.363,2.037-.281,2.838-.964,2.768-2.359,4.752-5.507,6.62-8.645a46.443,46.443,0,0,1,6.236-8.962c2.543-2.606,5.949-4.576,9.561-4.532s7.3,2.527,7.962,6.123-1.645,7.057-4.091,9.771a56.23,56.23,0,0,1-12.442,10.331,4.631,4.631,0,0,0-2.1,1.966c-.661,1.638.812,3.411,2.428,4.075,1.83.753,3.876.7,5.82,1.062s4.007,1.375,4.62,3.278c.854,2.639-1.479,5.184-3.714,6.8a48.182,48.182,0,0,1-14.784,7.234,16.252,16.252,0,0,0-5.46,2.206c-1.58,1.2-2.634,3.394-1.855,5.225s3.053,2.559,5.013,2.332,3.766-1.158,5.658-1.728c3.543-1.066,7.986-.523,9.993,2.613a7.969,7.969,0,0,1,.364,7.09,18.365,18.365,0,0,1-4.235,5.949,48.43,48.43,0,0,1-21.626,13.084c-8.2,2.228-15.674,2.471-23.436-.987" transform="translate(-389.272 -236.028)" fill="#449c6e"/>
        </g>
      </g>
      <g id="Grupo_991080" data-name="Grupo 991080" opacity="0.1">
        <g id="Grupo_991079" data-name="Grupo 991079">
          <path id="Trazado_667073" data-name="Trazado 667073" d="M402.347,322.454c-12.362-9.963-14.153-27-12.6-42.1.258-2.521.164-5.2,1.518-7.338s4.262-3.456,6.451-2.237c1.816,1.012,2.484,3.251,3.409,5.127a14.815,14.815,0,0,0,5.537,6.066c1.551.945,3.507,1.592,5.156.825,2.262-1.053,2.725-4.046,2.882-6.56l.876-14.055a23.472,23.472,0,0,1,1.271-7.412,7.81,7.81,0,0,1,5.26-4.934c2.437-.505,5.3,1.076,5.635,3.57a23.279,23.279,0,0,1-.144,3.134,2.65,2.65,0,0,0,1.376,2.594c.982.363,2.037-.281,2.838-.964,2.768-2.359,4.752-5.507,6.62-8.645a46.443,46.443,0,0,1,6.236-8.962c2.543-2.606,5.949-4.576,9.561-4.532s7.3,2.527,7.962,6.123-1.645,7.057-4.091,9.771a56.23,56.23,0,0,1-12.442,10.331,4.631,4.631,0,0,0-2.1,1.966c-.661,1.638.812,3.411,2.428,4.075,1.83.753,3.876.7,5.82,1.062s4.007,1.375,4.62,3.278c.854,2.639-1.479,5.184-3.714,6.8a48.182,48.182,0,0,1-14.784,7.234,16.252,16.252,0,0,0-5.46,2.206c-1.58,1.2-2.634,3.394-1.855,5.225s3.053,2.559,5.013,2.332,3.766-1.158,5.658-1.728c3.543-1.066,7.986-.523,9.993,2.613a7.969,7.969,0,0,1,.364,7.09,18.365,18.365,0,0,1-4.235,5.949,48.43,48.43,0,0,1-21.626,13.084c-8.2,2.228-15.674,2.471-23.436-.987" transform="translate(-389.272 -236.028)"/>
        </g>
      </g>
      <g id="Grupo_991083" data-name="Grupo 991083" transform="translate(12.105 2.427)">
        <g id="Grupo_991082" data-name="Grupo 991082">
          <g id="Grupo_991081" data-name="Grupo 991081">
            <path id="Trazado_667074" data-name="Trazado 667074" d="M406.276,334.644a110.6,110.6,0,0,1,5.527-20.429,225.583,225.583,0,0,1,10.6-23.629l3.1-6.051c1.021-1.983,2.033-3.951,3.142-5.814a112.6,112.6,0,0,1,6.987-10.34c2.381-3.182,4.757-6.113,7-8.839s4.392-5.219,6.442-7.412a89.365,89.365,0,0,1,10.436-9.617c1.316-1.036,2.364-1.8,3.08-2.317l.819-.577a1.892,1.892,0,0,1,.288-.183,1.767,1.767,0,0,1-.26.222l-.792.614c-.7.537-1.728,1.328-3.026,2.384a94.607,94.607,0,0,0-10.308,9.7c-2.03,2.2-4.153,4.7-6.385,7.433s-4.588,5.67-6.955,8.851a114.025,114.025,0,0,0-6.936,10.314c-1.1,1.855-2.1,3.805-3.124,5.794l-3.093,6.049A231.335,231.335,0,0,0,412.2,314.366a112.538,112.538,0,0,0-5.6,20.332" transform="translate(-406.276 -239.437)" fill="#263238"/>
          </g>
        </g>
      </g>
      <g id="Grupo_991086" data-name="Grupo 991086" transform="translate(32.82 13.806)">
        <g id="Grupo_991085" data-name="Grupo 991085">
          <g id="Grupo_991084" data-name="Grupo 991084">
            <path id="Trazado_667075" data-name="Trazado 667075" d="M437.158,283.317a5.131,5.131,0,0,1-.172-1.089c-.085-.7-.173-1.725-.263-2.989-.184-2.527-.318-6.024-.452-9.88s-.318-7.344-.539-9.861c-.108-1.259-.2-2.277-.281-2.979a5.094,5.094,0,0,1-.065-1.1,4.993,4.993,0,0,1,.244,1.075c.131.7.278,1.711.427,2.969.306,2.517.543,6.015.676,9.876.122,3.807.233,7.25.317,9.88.046,1.188.085,2.19.116,2.994A5.011,5.011,0,0,1,437.158,283.317Z" transform="translate(-435.372 -255.42)" fill="#263238"/>
          </g>
        </g>
      </g>
      <g id="Grupo_991089" data-name="Grupo 991089" transform="translate(34.605 37.711)">
        <g id="Grupo_991088" data-name="Grupo 991088">
          <g id="Grupo_991087" data-name="Grupo 991087">
            <path id="Trazado_667076" data-name="Trazado 667076" d="M470.6,289.169a6.992,6.992,0,0,1-1.3.066c-.834.016-2.041.034-3.531.1-2.981.116-7.093.421-11.615.956s-8.594,1.21-11.525,1.776c-1.469.273-2.65.525-3.468.7a6.945,6.945,0,0,1-1.282.223,6.905,6.905,0,0,1,1.241-.4c.807-.224,1.981-.527,3.446-.843,2.922-.651,7-1.371,11.537-1.917a114.159,114.159,0,0,1,11.659-.822c1.5-.028,2.707,0,3.543.044A6.872,6.872,0,0,1,470.6,289.169Z" transform="translate(-437.881 -288.998)" fill="#263238"/>
          </g>
        </g>
      </g>
      <g id="Grupo_991092" data-name="Grupo 991092" transform="translate(4.631 34.26)">
        <g id="Grupo_991091" data-name="Grupo 991091">
          <g id="Grupo_991090" data-name="Grupo 991090">
            <path id="Trazado_667077" data-name="Trazado 667077" d="M409.216,326.53a1.7,1.7,0,0,1-.194-.409l-.472-1.207c-.406-1.049-.953-2.584-1.6-4.488-1.3-3.808-2.942-9.125-4.668-15.017s-3.313-11.218-4.537-15.048c-.6-1.862-1.095-3.394-1.462-4.532-.157-.494-.285-.9-.391-1.236a.228.228,0,1,1,.088-.032c.127.327.283.724.472,1.206.406,1.05.953,2.584,1.6,4.489,1.3,3.807,2.942,9.125,4.669,15.018s3.313,11.216,4.536,15.046c.6,1.862,1.095,3.394,1.462,4.531l.392,1.236A1.666,1.666,0,0,1,409.216,326.53Z" transform="translate(-395.777 -284.151)" fill="#263238"/>
          </g>
        </g>
      </g>
      <g id="Grupo_991095" data-name="Grupo 991095" transform="translate(18.07 65.741)">
        <g id="Grupo_991094" data-name="Grupo 991094">
          <g id="Grupo_991093" data-name="Grupo 991093">
            <path id="Trazado_667078" data-name="Trazado 667078" d="M458.535,328.377a1.7,1.7,0,0,1-.439.147l-1.275.332-4.7,1.174c-3.968.993-9.432,2.427-15.469,4.019s-11.521,2.979-15.511,3.889c-1.995.456-3.612.809-4.735,1.029l-1.294.246a1.688,1.688,0,0,1-.458.055,1.714,1.714,0,0,1,.439-.147l1.275-.332,4.7-1.174c3.968-.992,9.434-2.427,15.471-4.02s11.519-2.978,15.509-3.889c1.995-.456,3.612-.809,4.736-1.029l1.294-.246A1.685,1.685,0,0,1,458.535,328.377Z" transform="translate(-414.654 -328.371)" fill="#263238"/>
          </g>
        </g>
      </g>
    </g>
    <g id="Grupo_991151" data-name="Grupo 991151" transform="translate(138.288 53.481)">
      <g id="Grupo_991097" data-name="Grupo 991097" transform="translate(0 18.775)">
        <rect id="Rectángulo_311390" data-name="Rectángulo 311390" width="172.646" height="236.574" fill="#455a64"/>
      </g>
      <g id="Grupo_991098" data-name="Grupo 991098" transform="translate(14.376 28.337)">
        <path id="Trazado_667079" data-name="Trazado 667079" d="M340.807,307.749H189.361V94.807H340.807V307.749Z" transform="translate(-189.361 -94.807)" fill="#e0e0e0"/>
      </g>
      <g id="Grupo_991099" data-name="Grupo 991099" transform="translate(13.348 25.521)">
        <path id="Trazado_667080" data-name="Trazado 667080" d="M338,302.659H187.918V90.851H338V302.659Z" transform="translate(-187.918 -90.851)" fill="#ebebeb"/>
      </g>
      <g id="Grupo_991103" data-name="Grupo 991103" transform="translate(10.36 25.872)">
        <g id="Grupo_991100" data-name="Grupo 991100" transform="translate(0.185 0.186)">
          <path id="Trazado_667081" data-name="Trazado 667081" d="M320.738,286.393l-17.286,14.076H183.981V91.606H335.428V274.485Z" transform="translate(-183.981 -91.606)" fill="#fafafa"/>
        </g>
        <g id="Grupo_991102" data-name="Grupo 991102">
          <g id="Grupo_991101" data-name="Grupo 991101">
            <path id="Trazado_667082" data-name="Trazado 667082" d="M320.663,286.318s.306-.261.923-.768l2.769-2.264,10.961-8.922-.022.046c-.018-30.04-.058-96.791-.108-182.878l.167.167-150.124.018h-1.322l.185-.185c-.014,78.521-.027,150.959-.037,208.862l-.148-.148,119.47.085-.04.014,12.981-10.53,3.253-2.628c.724-.582,1.091-.868,1.091-.868s-.354.3-1.071.893l-3.233,2.653-12.943,10.578-.017.014h-.023l-119.47.085h-.149v-.149c-.01-57.9-.023-130.341-.037-208.862v-.186h1.508l150.124.018h.168v.168c-.051,86.088-.09,152.838-.108,182.878v.028l-.022.018-11,8.877-2.788,2.241C320.982,286.073,320.663,286.318,320.663,286.318Z" transform="translate(-183.721 -91.345)" fill="#263238"/>
          </g>
        </g>
      </g>
      <g id="Grupo_991104" data-name="Grupo 991104" transform="translate(55.332 11.461)">
        <path id="Rectángulo_311391" data-name="Rectángulo 311391" d="M14.757,0H47.828A14.154,14.154,0,0,1,61.983,14.154v7.094a0,0,0,0,1,0,0H0a0,0,0,0,1,0,0V14.757A14.757,14.757,0,0,1,14.757,0Z" fill="#449c6e"/>
      </g>
      <g id="Grupo_991105" data-name="Grupo 991105" transform="translate(68.247)">
        <path id="Trazado_667083" data-name="Trazado 667083" d="M267.3,66.465,265.031,55h35.688l-1.983,11.461Z" transform="translate(-265.031 -55.003)" fill="#449c6e"/>
      </g>
      <g id="Grupo_991106" data-name="Grupo 991106" transform="translate(26.386 59.333)">
        <path id="Trazado_667084" data-name="Trazado 667084" d="M231.746,163.861H206.231V138.346h25.515Zm-24.8-.712h24.091V139.058H206.943Z" transform="translate(-206.231 -138.346)" fill="#449c6e"/>
      </g>
      <g id="Grupo_991108" data-name="Grupo 991108" transform="translate(62.731 65.309)">
        <g id="Grupo_991107" data-name="Grupo 991107" transform="translate(0 0)">
          <path id="Trazado_667085" data-name="Trazado 667085" d="M336.612,146.926c0,.1-17.76.185-39.663.185s-39.666-.083-39.666-.185,17.756-.186,39.666-.186S336.612,146.823,336.612,146.926Z" transform="translate(-257.283 -146.74)" fill="#263238"/>
        </g>
      </g>
      <g id="Grupo_991110" data-name="Grupo 991110" transform="translate(62.731 70.612)">
        <g id="Grupo_991109" data-name="Grupo 991109">
          <path id="Trazado_667086" data-name="Trazado 667086" d="M336.612,154.373c0,.1-17.76.185-39.663.185s-39.666-.083-39.666-.185,17.756-.185,39.666-.185S336.612,154.271,336.612,154.373Z" transform="translate(-257.283 -154.188)" fill="#263238"/>
        </g>
      </g>
      <g id="Grupo_991112" data-name="Grupo 991112" transform="translate(62.731 75.913)">
        <g id="Grupo_991111" data-name="Grupo 991111">
          <path id="Trazado_667087" data-name="Trazado 667087" d="M336.612,161.82c0,.1-17.76.186-39.663.186s-39.666-.083-39.666-.186,17.756-.185,39.666-.185S336.612,161.718,336.612,161.82Z" transform="translate(-257.283 -161.635)" fill="#263238"/>
        </g>
      </g>
      <g id="Grupo_991114" data-name="Grupo 991114" transform="translate(62.731 81.215)">
        <g id="Grupo_991113" data-name="Grupo 991113">
          <path id="Trazado_667088" data-name="Trazado 667088" d="M336.612,169.268c0,.1-17.76.185-39.663.185s-39.666-.083-39.666-.185,17.756-.186,39.666-.186S336.612,169.165,336.612,169.268Z" transform="translate(-257.283 -169.082)" fill="#263238"/>
        </g>
      </g>
      <g id="Grupo_991115" data-name="Grupo 991115" transform="translate(26.386 98.656)">
        <path id="Trazado_667089" data-name="Trazado 667089" d="M231.746,219.094H206.231V193.58h25.515Zm-24.8-.712h24.091v-24.09H206.943Z" transform="translate(-206.231 -193.58)" fill="#449c6e"/>
      </g>
      <g id="Grupo_991116" data-name="Grupo 991116" transform="translate(31.46 100.271)">
        <path id="Trazado_667090" data-name="Trazado 667090" d="M213.358,207.516l3.387-3.638,5.645,4.516,12.921-12.545,3.1,3.648L222.14,215.544Z" transform="translate(-213.358 -195.849)" fill="#449c6e"/>
      </g>
      <g id="Grupo_991118" data-name="Grupo 991118" transform="translate(62.731 104.632)">
        <g id="Grupo_991117" data-name="Grupo 991117">
          <path id="Trazado_667091" data-name="Trazado 667091" d="M336.612,202.159c0,.1-17.76.185-39.663.185s-39.666-.083-39.666-.185,17.756-.185,39.666-.185S336.612,202.057,336.612,202.159Z" transform="translate(-257.283 -201.974)" fill="#263238"/>
        </g>
      </g>
      <g id="Grupo_991120" data-name="Grupo 991120" transform="translate(62.731 109.933)">
        <g id="Grupo_991119" data-name="Grupo 991119">
          <path id="Trazado_667092" data-name="Trazado 667092" d="M336.612,209.606c0,.1-17.76.186-39.663.186s-39.666-.083-39.666-.186,17.756-.185,39.666-.185S336.612,209.5,336.612,209.606Z" transform="translate(-257.283 -209.421)" fill="#263238"/>
        </g>
      </g>
      <g id="Grupo_991122" data-name="Grupo 991122" transform="translate(62.731 115.235)">
        <g id="Grupo_991121" data-name="Grupo 991121">
          <path id="Trazado_667093" data-name="Trazado 667093" d="M336.612,217.054c0,.1-17.76.185-39.663.185s-39.666-.083-39.666-.185,17.756-.186,39.666-.186S336.612,216.951,336.612,217.054Z" transform="translate(-257.283 -216.868)" fill="#263238"/>
        </g>
      </g>
      <g id="Grupo_991124" data-name="Grupo 991124" transform="translate(62.731 120.537)">
        <g id="Grupo_991123" data-name="Grupo 991123">
          <path id="Trazado_667094" data-name="Trazado 667094" d="M336.612,224.5c0,.1-17.76.185-39.663.185s-39.666-.083-39.666-.185,17.756-.185,39.666-.185S336.612,224.4,336.612,224.5Z" transform="translate(-257.283 -224.316)" fill="#263238"/>
        </g>
      </g>
      <g id="Grupo_991125" data-name="Grupo 991125" transform="translate(26.386 136.706)">
        <path id="Trazado_667095" data-name="Trazado 667095" d="M231.746,272.542H206.231V247.027h25.515Zm-24.8-.712h24.091V247.739H206.943Z" transform="translate(-206.231 -247.027)" fill="#449c6e"/>
      </g>
      <g id="Grupo_991126" data-name="Grupo 991126" transform="translate(31.46 138.322)">
        <path id="Trazado_667096" data-name="Trazado 667096" d="M213.358,260.964l3.387-3.638,5.645,4.516L235.312,249.3l3.1,3.648L222.14,268.992Z" transform="translate(-213.358 -249.297)" fill="#449c6e"/>
      </g>
      <g id="Grupo_991128" data-name="Grupo 991128" transform="translate(62.731 142.682)">
        <g id="Grupo_991127" data-name="Grupo 991127">
          <path id="Trazado_667097" data-name="Trazado 667097" d="M336.612,255.607c0,.1-17.76.186-39.663.186s-39.666-.083-39.666-.186,17.756-.185,39.666-.185S336.612,255.5,336.612,255.607Z" transform="translate(-257.283 -255.422)" fill="#263238"/>
        </g>
      </g>
      <g id="Grupo_991130" data-name="Grupo 991130" transform="translate(62.731 147.984)">
        <g id="Grupo_991129" data-name="Grupo 991129">
          <path id="Trazado_667098" data-name="Trazado 667098" d="M336.612,263.054c0,.1-17.76.186-39.663.186s-39.666-.083-39.666-.186,17.756-.185,39.666-.185S336.612,262.952,336.612,263.054Z" transform="translate(-257.283 -262.869)" fill="#263238"/>
        </g>
      </g>
      <g id="Grupo_991132" data-name="Grupo 991132" transform="translate(62.731 153.286)">
        <g id="Grupo_991131" data-name="Grupo 991131">
          <path id="Trazado_667099" data-name="Trazado 667099" d="M336.612,270.5c0,.1-17.76.185-39.663.185s-39.666-.083-39.666-.185,17.756-.186,39.666-.186S336.612,270.4,336.612,270.5Z" transform="translate(-257.283 -270.316)" fill="#263238"/>
        </g>
      </g>
      <g id="Grupo_991134" data-name="Grupo 991134" transform="translate(62.731 158.588)">
        <g id="Grupo_991133" data-name="Grupo 991133">
          <path id="Trazado_667100" data-name="Trazado 667100" d="M336.612,277.949c0,.1-17.76.185-39.663.185s-39.666-.083-39.666-.185,17.756-.185,39.666-.185S336.612,277.847,336.612,277.949Z" transform="translate(-257.283 -277.764)" fill="#263238"/>
        </g>
      </g>
      <g id="Grupo_991135" data-name="Grupo 991135" transform="translate(26.386 173.445)">
        <path id="Trazado_667101" data-name="Trazado 667101" d="M231.746,324.148H206.231V298.633h25.515Zm-24.8-.712h24.091V299.345H206.943Z" transform="translate(-206.231 -298.633)" fill="#449c6e"/>
      </g>
      <g id="Grupo_991136" data-name="Grupo 991136" transform="translate(31.46 175.061)">
        <path id="Trazado_667102" data-name="Trazado 667102" d="M213.358,312.569l3.387-3.638,5.645,4.516L235.312,300.9l3.1,3.648L222.14,320.6Z" transform="translate(-213.358 -300.902)" fill="#449c6e"/>
      </g>
      <g id="Grupo_991138" data-name="Grupo 991138" transform="translate(62.731 179.421)">
        <g id="Grupo_991137" data-name="Grupo 991137">
          <path id="Trazado_667103" data-name="Trazado 667103" d="M336.612,307.213c0,.1-17.76.185-39.663.185s-39.666-.083-39.666-.185,17.756-.186,39.666-.186S336.612,307.11,336.612,307.213Z" transform="translate(-257.283 -307.027)" fill="#263238"/>
        </g>
      </g>
      <g id="Grupo_991140" data-name="Grupo 991140" transform="translate(62.731 184.724)">
        <g id="Grupo_991139" data-name="Grupo 991139">
          <path id="Trazado_667104" data-name="Trazado 667104" d="M336.612,314.66c0,.1-17.76.185-39.663.185s-39.666-.083-39.666-.185,17.756-.185,39.666-.185S336.612,314.558,336.612,314.66Z" transform="translate(-257.283 -314.475)" fill="#263238"/>
        </g>
      </g>
      <g id="Grupo_991142" data-name="Grupo 991142" transform="translate(62.731 190.025)">
        <g id="Grupo_991141" data-name="Grupo 991141">
          <path id="Trazado_667105" data-name="Trazado 667105" d="M336.612,322.107c0,.1-17.76.186-39.663.186s-39.666-.083-39.666-.186,17.756-.185,39.666-.185S336.612,322,336.612,322.107Z" transform="translate(-257.283 -321.922)" fill="#263238"/>
        </g>
      </g>
      <g id="Grupo_991144" data-name="Grupo 991144" transform="translate(62.731 195.327)">
        <g id="Grupo_991143" data-name="Grupo 991143">
          <path id="Trazado_667106" data-name="Trazado 667106" d="M336.612,329.555c0,.1-17.76.185-39.663.185s-39.666-.083-39.666-.185,17.756-.186,39.666-.186S336.612,329.452,336.612,329.555Z" transform="translate(-257.283 -329.369)" fill="#263238"/>
        </g>
      </g>
      <g id="Grupo_991145" data-name="Grupo 991145" transform="translate(118.162 200.34)">
        <path id="Trazado_667107" data-name="Trazado 667107" d="M351.747,336.411l-16.6,34.386H347Z" transform="translate(-335.144 -336.411)" fill="#e0e0e0"/>
      </g>
      <g id="Grupo_991149" data-name="Grupo 991149" transform="translate(130.016 200.307)">
        <g id="Grupo_991146" data-name="Grupo 991146" transform="translate(0.001 0.227)">
          <path id="Trazado_667108" data-name="Trazado 667108" d="M351.8,371.07l4.749-34.386,27.227,8.4Z" transform="translate(-351.795 -336.683)" fill="#fafafa"/>
        </g>
        <g id="Grupo_991148" data-name="Grupo 991148">
          <g id="Grupo_991147" data-name="Grupo 991147">
            <path id="Trazado_667109" data-name="Trazado 667109" d="M351.795,370.978l9.156-7.536,22.706-18.588.061.313-10.512-3.239-16.713-5.169.224-.143c-1.423,9.988-2.642,18.544-3.509,24.626-.858,5.913-1.3,8.965-1.413,9.736,0,0,0-.047.016-.152l.06-.476c.058-.446.14-1.071.245-1.873.221-1.67.538-4.071.935-7.088.82-6.13,1.973-14.754,3.32-24.821l.027-.2.2.061,16.72,5.149,10.509,3.248.325.1-.264.214L360.9,363.672l-6.711,5.392L352.4,370.5l-.458.365A1.743,1.743,0,0,1,351.795,370.978Z" transform="translate(-351.794 -336.364)" fill="#263238"/>
          </g>
        </g>
      </g>
      <g id="Grupo_991150" data-name="Grupo 991150" transform="translate(99.502)" opacity="0.3">
        <path id="Trazado_667110" data-name="Trazado 667110" d="M310.9,55l-1.968,11.461h2.451L313.366,55h-3.121" transform="translate(-308.933 -55.003)"/>
      </g>
    </g>
    <g id="Grupo_991347" data-name="Grupo 991347" transform="translate(101.377 121.08)">
      <g id="Grupo_991166" data-name="Grupo 991166" transform="translate(17.428 5.722)">
        <g id="Grupo_991157" data-name="Grupo 991157" transform="translate(11.021 9.447)">
          <g id="Grupo_991156" data-name="Grupo 991156">
            <g id="Grupo_991155" data-name="Grupo 991155">
              <g id="Grupo_991154" data-name="Grupo 991154">
                <g id="Grupo_991153" data-name="Grupo 991153">
                  <g id="Grupo_991152" data-name="Grupo 991152">
                    <path id="Trazado_667111" data-name="Trazado 667111" d="M162.679,209.383h0a6.4,6.4,0,0,0,6.889-6.14c.134-3.486.251-7.01.251-7.01s5.283-.495,5.666-5.723.208-17.3.208-17.3h0a18.216,18.216,0,0,0-18.411,1.183l.326,18.4v9.9C157.643,206.015,159.369,209.129,162.679,209.383Z" transform="translate(-157.282 -171.263)" fill="#ffbf9d"/>
                  </g>
                </g>
              </g>
            </g>
          </g>
        </g>
        <g id="Grupo_991158" data-name="Grupo 991158" transform="translate(8.305 5.063)">
          <path id="Trazado_667112" data-name="Trazado 667112" d="M169.176,182.353a2.679,2.679,0,0,0-3.572-.78,3.038,3.038,0,0,0-1.013,3.8,4,4,0,0,0,2.565,1.939,2.007,2.007,0,0,1,1.572,2.162,6.693,6.693,0,0,1-1.835,3.641,9.65,9.65,0,0,1-6.051,2.867c-2.227.263-4.778-.2-6.073-2.031a8.3,8.3,0,0,1-1.045-4.7l-.239-11.564a16.573,16.573,0,0,1,.263-4.149,5.578,5.578,0,0,1,2.188-3.431c1.272-.836,2.883-.908,4.331-1.376,1.81-.586,3.348-1.787,5.043-2.653s3.771-1.385,5.472-.531c1.221.613,2.039,1.831,3.226,2.507,1.69.961,3.991.743,4.812,3.228a4.215,4.215,0,0,1-.028,2.659c-1.145,3.382-5.335,4.746-8.352,3.283a8.281,8.281,0,0,1-.1,3.658c-.193.578-.261,1.46-1.165,1.477" transform="translate(-153.467 -165.105)" fill="#263238"/>
        </g>
        <g id="Grupo_991159" data-name="Grupo 991159" transform="translate(0.707)">
          <path id="Trazado_667113" data-name="Trazado 667113" d="M151.674,169.542a17.8,17.8,0,0,0,1.679-5.252,6.018,6.018,0,0,0-1.648-5.075A4.951,4.951,0,0,0,148.26,158a5.827,5.827,0,0,0-5.254,4.163,6.277,6.277,0,0,0,2.113,6.431,6.806,6.806,0,0,0,6.773.883" transform="translate(-142.795 -157.994)" fill="#263238"/>
        </g>
        <g id="Grupo_991161" data-name="Grupo 991161" transform="translate(8.135 9.641)">
          <g id="Grupo_991160" data-name="Grupo 991160">
            <path id="Trazado_667114" data-name="Trazado 667114" d="M155.706,171.537a2.575,2.575,0,0,1-2.477,2.42c-.025-.106.766-.315,1.448-1S155.6,171.509,155.706,171.537Z" transform="translate(-153.228 -171.536)" fill="#ff4f5b"/>
          </g>
        </g>
        <g id="Grupo_991163" data-name="Grupo 991163" transform="translate(2.941 6.165)">
          <g id="Grupo_991162" data-name="Grupo 991162">
            <path id="Trazado_667115" data-name="Trazado 667115" d="M151.885,171.408a4.962,4.962,0,0,1-1.42,1.038,4.091,4.091,0,0,1-1.871.53,2.6,2.6,0,0,1-2.182-.979,2.909,2.909,0,0,1-.387-2.364,4.6,4.6,0,0,1,.879-1.731,5.471,5.471,0,0,1,1.237-1.247,16.54,16.54,0,0,1-1.025,1.4,4.7,4.7,0,0,0-.758,1.65,2.64,2.64,0,0,0,.352,2.071,2.31,2.31,0,0,0,1.882.856,4.1,4.1,0,0,0,1.755-.423C151.3,171.751,151.85,171.353,151.885,171.408Z" transform="translate(-145.933 -166.654)" fill="#263238"/>
          </g>
        </g>
        <g id="Grupo_991165" data-name="Grupo 991165" transform="translate(0 11.533)">
          <g id="Grupo_991164" data-name="Grupo 991164">
            <path id="Trazado_667116" data-name="Trazado 667116" d="M141.808,179.485a2.285,2.285,0,0,1,.255.579,5.993,5.993,0,0,0,.77,1.49,2.16,2.16,0,0,0,2.047.941,2.81,2.81,0,0,0,1.971-1.983,20.359,20.359,0,0,0,.535-3.038,4.69,4.69,0,0,1,1-2.395,2.574,2.574,0,0,1,1.522-.868,1,1,0,0,1,.64.054c0,.036-.231-.01-.612.088a2.585,2.585,0,0,0-1.351.9,4.619,4.619,0,0,0-.86,2.28,18.157,18.157,0,0,1-.522,3.1,3.11,3.11,0,0,1-2.26,2.2,2.083,2.083,0,0,1-1.417-.274,2.96,2.96,0,0,1-.9-.848,5.134,5.134,0,0,1-.7-1.6A1.956,1.956,0,0,1,141.808,179.485Z" transform="translate(-141.801 -174.193)" fill="#263238"/>
          </g>
        </g>
      </g>
      <g id="Grupo_991167" data-name="Grupo 991167" transform="translate(13.682 66.467)">
        <path id="Trazado_667117" data-name="Trazado 667117" d="M137.724,243.319s-2.665,19.521,0,22a5.573,5.573,0,0,0,5.23,1.653l5.074-4.243,1-19.406Z" transform="translate(-136.539 -243.319)" fill="#ffbf9d"/>
      </g>
      <g id="Grupo_991168" data-name="Grupo 991168" transform="translate(70.008)">
        <path id="Trazado_667118" data-name="Trazado 667118" d="M215.658,161.623l3.387-3.638,5.645,4.516,12.921-12.545,3.1,3.648L224.44,169.652Z" transform="translate(-215.658 -149.957)" fill="#449c6e"/>
      </g>
      <g id="Grupo_991169" data-name="Grupo 991169" transform="translate(57.051 12.658)">
        <path id="Trazado_667119" data-name="Trazado 667119" d="M226.331,167.736l-4.912,3.152c-.222-1.941-1.7-3.866-1.627-2.89s.009,6.035.009,6.035l-8.76,18.433a8.726,8.726,0,0,1-5.4,5.189l-8.177,2.431,3.2,10.811,11.365-3.768a9.8,9.8,0,0,0,6.229-6.247l7.835-23.866a37.073,37.073,0,0,0,1.266-4.7C227.684,170.325,226.331,167.736,226.331,167.736Z" transform="translate(-197.458 -167.736)" fill="#ffbf9d"/>
      </g>
      <g id="Grupo_991172" data-name="Grupo 991172" transform="translate(35.315 208.789)">
        <g id="Grupo_991171" data-name="Grupo 991171">
          <g id="Grupo_991170" data-name="Grupo 991170">
            <path id="Trazado_667120" data-name="Trazado 667120" d="M177.288,448.7l-.122-5.466-10.24.164.094,8,.636.031c2.828.112,14.388.369,16.267-.234C186.02,450.519,177.288,448.7,177.288,448.7Z" transform="translate(-166.926 -443.232)" fill="#449c6e"/>
          </g>
        </g>
      </g>
      <g id="Grupo_991175" data-name="Grupo 991175" transform="translate(35.374 213.928)" opacity="0.5">
        <g id="Grupo_991174" data-name="Grupo 991174">
          <g id="Grupo_991173" data-name="Grupo 991173">
            <path id="Trazado_667121" data-name="Trazado 667121" d="M170.756,453.334a3.553,3.553,0,0,0-1.342-2.163,3.449,3.449,0,0,0-2.4-.706l.043,2.862Z" transform="translate(-167.009 -450.451)" fill="#fff"/>
          </g>
        </g>
      </g>
      <g id="Grupo_991178" data-name="Grupo 991178" transform="translate(35.409 215.296)" opacity="0.4">
        <g id="Grupo_991177" data-name="Grupo 991177">
          <g id="Grupo_991176" data-name="Grupo 991176">
            <path id="Trazado_667122" data-name="Trazado 667122" d="M181.595,452.372s3.063.831,2.691,1.339-12.064.688-17.228.316l.013-.229,13.639-.093S181,452.406,181.595,452.372Z" transform="translate(-167.058 -452.372)" fill="#fff"/>
          </g>
        </g>
      </g>
      <g id="Grupo_991182" data-name="Grupo 991182" transform="translate(35.261 216.46)">
        <g id="Grupo_991181" data-name="Grupo 991181">
          <g id="Grupo_991180" data-name="Grupo 991180">
            <g id="Grupo_991179" data-name="Grupo 991179">
              <path id="Trazado_667123" data-name="Trazado 667123" d="M166.85,454.265a.945.945,0,0,0,.177.016l.506.023,1.862.051c1.573.033,3.746.048,6.147.013s4.573-.115,6.144-.193l1.86-.106.5-.038a.939.939,0,0,0,.176-.021.992.992,0,0,0-.177,0l-.507.014-1.861.067c-1.571.055-3.743.121-6.142.157s-4.571.033-6.144.023l-1.862-.012h-.506A.947.947,0,0,0,166.85,454.265Z" transform="translate(-166.85 -454.007)" fill="#263238"/>
            </g>
          </g>
        </g>
      </g>
      <g id="Grupo_991186" data-name="Grupo 991186" transform="translate(49.041 215.169)">
        <g id="Grupo_991185" data-name="Grupo 991185">
          <g id="Grupo_991184" data-name="Grupo 991184">
            <g id="Grupo_991183" data-name="Grupo 991183">
              <path id="Trazado_667124" data-name="Trazado 667124" d="M186.226,453.813a2.7,2.7,0,0,1,.958-1.616,1.653,1.653,0,0,0-.958,1.616Z" transform="translate(-186.206 -452.194)" fill="#263238"/>
            </g>
          </g>
        </g>
      </g>
      <g id="Grupo_991190" data-name="Grupo 991190" transform="translate(46.01 214.44)">
        <g id="Grupo_991189" data-name="Grupo 991189">
          <g id="Grupo_991188" data-name="Grupo 991188">
            <g id="Grupo_991187" data-name="Grupo 991187">
              <path id="Trazado_667125" data-name="Trazado 667125" d="M181.955,452.031c.029.018.171-.16.317-.4s.24-.445.211-.463-.171.16-.317.4S181.926,452.013,181.955,452.031Z" transform="translate(-181.95 -451.169)" fill="#263238"/>
            </g>
          </g>
        </g>
      </g>
      <g id="Grupo_991194" data-name="Grupo 991194" transform="translate(45.177 214.289)">
        <g id="Grupo_991193" data-name="Grupo 991193">
          <g id="Grupo_991192" data-name="Grupo 991192">
            <g id="Grupo_991191" data-name="Grupo 991191">
              <path id="Trazado_667126" data-name="Trazado 667126" d="M180.782,451.544c.023.025.183-.085.357-.246s.3-.313.273-.337-.184.085-.357.246S180.758,451.519,180.782,451.544Z" transform="translate(-180.779 -450.957)" fill="#263238"/>
            </g>
          </g>
        </g>
      </g>
      <g id="Grupo_991198" data-name="Grupo 991198" transform="translate(44.641 213.853)">
        <g id="Grupo_991197" data-name="Grupo 991197">
          <g id="Grupo_991196" data-name="Grupo 991196">
            <g id="Grupo_991195" data-name="Grupo 991195">
              <path id="Trazado_667127" data-name="Trazado 667127" d="M180.026,450.41a2.329,2.329,0,1,0,.535-.065A1.192,1.192,0,0,0,180.026,450.41Z" transform="translate(-180.026 -450.345)" fill="#263238"/>
            </g>
          </g>
        </g>
      </g>
      <g id="Grupo_991202" data-name="Grupo 991202" transform="translate(44.45 213.228)">
        <g id="Grupo_991201" data-name="Grupo 991201">
          <g id="Grupo_991200" data-name="Grupo 991200">
            <g id="Grupo_991199" data-name="Grupo 991199">
              <path id="Trazado_667128" data-name="Trazado 667128" d="M179.758,449.478a1.5,1.5,0,0,0,1.213.073,43.286,43.286,0,0,1-1.213-.073Z" transform="translate(-179.758 -449.467)" fill="#263238"/>
            </g>
          </g>
        </g>
      </g>
      <g id="Grupo_991206" data-name="Grupo 991206" transform="translate(46.349 213.462)">
        <g id="Grupo_991205" data-name="Grupo 991205">
          <g id="Grupo_991204" data-name="Grupo 991204">
            <g id="Grupo_991203" data-name="Grupo 991203">
              <path id="Trazado_667129" data-name="Trazado 667129" d="M182.425,450.737a1.88,1.88,0,0,0,.659-.014,3.806,3.806,0,0,0,.7-.165,1.958,1.958,0,0,0,.4-.171.357.357,0,0,0,.159-.207.258.258,0,0,0-.1-.261,1.207,1.207,0,0,0-1.487.376,1.177,1.177,0,0,0-.208.442.362.362,0,0,0-.014.178,1.869,1.869,0,0,1,.291-.566,1.184,1.184,0,0,1,.556-.374,1.02,1.02,0,0,1,.785.041c.106.075.067.2-.048.271a1.983,1.983,0,0,1-.367.164,4.559,4.559,0,0,1-.675.187C182.676,450.712,182.425,450.717,182.425,450.737Z" transform="translate(-182.425 -449.796)" fill="#263238"/>
            </g>
          </g>
        </g>
      </g>
      <g id="Grupo_991210" data-name="Grupo 991210" transform="translate(45.645 213.169)">
        <g id="Grupo_991209" data-name="Grupo 991209">
          <g id="Grupo_991208" data-name="Grupo 991208">
            <g id="Grupo_991207" data-name="Grupo 991207">
              <path id="Trazado_667130" data-name="Trazado 667130" d="M182.311,450.648a.645.645,0,0,0,.069-.458,1.072,1.072,0,0,0-.187-.478.66.66,0,0,0-.552-.327.263.263,0,0,0-.2.308.729.729,0,0,0,.117.292,2,2,0,0,0,.317.394.958.958,0,0,0,.381.261c.011-.016-.133-.116-.318-.322a2.286,2.286,0,0,1-.282-.391c-.093-.137-.158-.386.006-.419s.335.143.438.273a1.1,1.1,0,0,1,.193.425A2.335,2.335,0,0,1,182.311,450.648Z" transform="translate(-181.437 -449.384)" fill="#263238"/>
            </g>
          </g>
        </g>
      </g>
      <g id="Grupo_991214" data-name="Grupo 991214" transform="translate(35.427 213.836)">
        <g id="Grupo_991213" data-name="Grupo 991213">
          <g id="Grupo_991212" data-name="Grupo 991212">
            <g id="Grupo_991211" data-name="Grupo 991211">
              <path id="Trazado_667131" data-name="Trazado 667131" d="M167.083,450.4c0,.023.293-.033.757.015a3.21,3.21,0,0,1,2.715,2.1c.163.436.182.731.206.728a.611.611,0,0,0,0-.206,2.737,2.737,0,0,0-.12-.551,3.113,3.113,0,0,0-2.791-2.155,2.7,2.7,0,0,0-.563.023A.591.591,0,0,0,167.083,450.4Z" transform="translate(-167.083 -450.321)" fill="#263238"/>
            </g>
          </g>
        </g>
      </g>
      <g id="Grupo_991218" data-name="Grupo 991218" transform="translate(36.366 209.636)">
        <g id="Grupo_991217" data-name="Grupo 991217">
          <g id="Grupo_991216" data-name="Grupo 991216">
            <g id="Grupo_991215" data-name="Grupo 991215">
              <path id="Trazado_667132" data-name="Trazado 667132" d="M168.459,444.421a35.791,35.791,0,0,0,.011,4.21,35.791,35.791,0,0,0-.011-4.21Z" transform="translate(-168.403 -444.421)" fill="#263238"/>
            </g>
          </g>
        </g>
      </g>
      <g id="Grupo_991222" data-name="Grupo 991222" transform="translate(40.394 215.763)">
        <g id="Grupo_991221" data-name="Grupo 991221">
          <g id="Grupo_991220" data-name="Grupo 991220">
            <g id="Grupo_991219" data-name="Grupo 991219">
              <path id="Trazado_667133" data-name="Trazado 667133" d="M174.06,453.059a8.414,8.414,0,0,0,2.993-.018c0-.036-.672.015-1.5.018S174.064,453.022,174.06,453.059Z" transform="translate(-174.06 -453.028)" fill="#263238"/>
            </g>
          </g>
        </g>
      </g>
      <g id="Grupo_991226" data-name="Grupo 991226" transform="translate(38.382 215.817)">
        <g id="Grupo_991225" data-name="Grupo 991225">
          <g id="Grupo_991224" data-name="Grupo 991224">
            <g id="Grupo_991223" data-name="Grupo 991223">
              <path id="Trazado_667134" data-name="Trazado 667134" d="M171.239,453.108c-.024.025.057.141.127.293s.11.288.145.285.051-.162-.033-.338S171.261,453.083,171.239,453.108Z" transform="translate(-171.235 -453.104)" fill="#263238"/>
            </g>
          </g>
        </g>
      </g>
      <g id="Grupo_991230" data-name="Grupo 991230" transform="translate(37.611 214.887)">
        <g id="Grupo_991229" data-name="Grupo 991229">
          <g id="Grupo_991228" data-name="Grupo 991228">
            <g id="Grupo_991227" data-name="Grupo 991227">
              <path id="Trazado_667135" data-name="Trazado 667135" d="M170.156,451.8c-.024.024.044.13.152.236s.214.172.238.147-.044-.13-.152-.236S170.18,451.778,170.156,451.8Z" transform="translate(-170.151 -451.797)" fill="#263238"/>
            </g>
          </g>
        </g>
      </g>
      <g id="Grupo_991234" data-name="Grupo 991234" transform="translate(36.527 214.417)">
        <g id="Grupo_991233" data-name="Grupo 991233">
          <g id="Grupo_991232" data-name="Grupo 991232">
            <g id="Grupo_991231" data-name="Grupo 991231">
              <path id="Trazado_667136" data-name="Trazado 667136" d="M168.629,451.2c.008.035.144.031.295.082s.261.13.288.105-.061-.163-.249-.223S168.618,451.167,168.629,451.2Z" transform="translate(-168.628 -451.138)" fill="#263238"/>
            </g>
          </g>
        </g>
      </g>
      <g id="Grupo_991238" data-name="Grupo 991238" transform="translate(35.752 214.263)">
        <g id="Grupo_991237" data-name="Grupo 991237">
          <g id="Grupo_991236" data-name="Grupo 991236">
            <g id="Grupo_991235" data-name="Grupo 991235">
              <path id="Trazado_667137" data-name="Trazado 667137" d="M167.541,450.945c-.011.032.048.084.133.115s.164.031.177,0-.048-.084-.133-.115S167.554,450.913,167.541,450.945Z" transform="translate(-167.54 -450.921)" fill="#263238"/>
            </g>
          </g>
        </g>
      </g>
      <g id="Grupo_991241" data-name="Grupo 991241" transform="translate(0 201.73)">
        <g id="Grupo_991240" data-name="Grupo 991240">
          <g id="Grupo_991239" data-name="Grupo 991239">
            <path id="Trazado_667138" data-name="Trazado 667138" d="M126.863,444.093l3.472-4.223-7.87-6.554-5.144,6.125.461.437c2.071,1.929,10.667,9.663,12.484,10.433C132.295,451.167,126.863,444.093,126.863,444.093Z" transform="translate(-117.321 -433.316)" fill="#449c6e"/>
          </g>
        </g>
      </g>
      <g id="Grupo_991244" data-name="Grupo 991244" transform="translate(0.101 205.551)" opacity="0.5">
        <g id="Grupo_991243" data-name="Grupo 991243">
          <g id="Grupo_991242" data-name="Grupo 991242">
            <path id="Trazado_667139" data-name="Trazado 667139" d="M120.267,443.3a3.554,3.554,0,0,0,.393-2.514,3.449,3.449,0,0,0-1.363-2.1l-1.834,2.2Z" transform="translate(-117.463 -438.683)" fill="#fff"/>
          </g>
        </g>
      </g>
      <g id="Grupo_991247" data-name="Grupo 991247" transform="translate(0 207.688)" opacity="0.4">
        <g id="Grupo_991246" data-name="Grupo 991246">
          <g id="Grupo_991245" data-name="Grupo 991245">
            <path id="Trazado_667140" data-name="Trazado 667140" d="M129.42,450.077s1.781,2.628,1.166,2.77-9.593-7.346-13.265-11l.159-.166,10.4,8.824S128.946,449.715,129.42,450.077Z" transform="translate(-117.321 -441.686)" fill="#fff"/>
          </g>
        </g>
      </g>
      <g id="Grupo_991251" data-name="Grupo 991251" transform="translate(0.039 207.581)">
        <g id="Grupo_991250" data-name="Grupo 991250">
          <g id="Grupo_991249" data-name="Grupo 991249">
            <g id="Grupo_991248" data-name="Grupo 991248">
              <path id="Trazado_667141" data-name="Trazado 667141" d="M117.376,441.535a.94.94,0,0,0,.123.127l.369.347,1.378,1.254c1.171,1.05,2.809,2.48,4.651,4.019s3.542,2.9,4.783,3.861l1.479,1.133.407.3a.924.924,0,0,0,.147.1.947.947,0,0,0-.132-.118l-.394-.32-1.454-1.163c-1.228-.982-2.917-2.349-4.759-3.887s-3.486-2.957-4.672-3.99l-1.4-1.224-.384-.33A.952.952,0,0,0,117.376,441.535Z" transform="translate(-117.376 -441.535)" fill="#263238"/>
            </g>
          </g>
        </g>
      </g>
      <g id="Grupo_991255" data-name="Grupo 991255" transform="translate(10.453 215.96)">
        <g id="Grupo_991254" data-name="Grupo 991254">
          <g id="Grupo_991253" data-name="Grupo 991253">
            <g id="Grupo_991252" data-name="Grupo 991252">
              <path id="Trazado_667142" data-name="Trazado 667142" d="M132.006,453.978a2.7,2.7,0,0,1,1.78-.6,1.655,1.655,0,0,0-1.78.6Z" transform="translate(-132.004 -453.305)" fill="#263238"/>
            </g>
          </g>
        </g>
      </g>
      <g id="Grupo_991259" data-name="Grupo 991259" transform="translate(9.116 213.202)">
        <g id="Grupo_991258" data-name="Grupo 991258">
          <g id="Grupo_991257" data-name="Grupo 991257">
            <g id="Grupo_991256" data-name="Grupo 991256">
              <path id="Trazado_667143" data-name="Trazado 667143" d="M130.126,449.749a1.081,1.081,0,0,0,.5-.095c.266-.085.472-.181.461-.213a1.069,1.069,0,0,0-.5.095C130.322,449.621,130.115,449.717,130.126,449.749Z" transform="translate(-130.125 -449.43)" fill="#263238"/>
            </g>
          </g>
        </g>
      </g>
      <g id="Grupo_991263" data-name="Grupo 991263" transform="translate(8.76 212.573)">
        <g id="Grupo_991262" data-name="Grupo 991262">
          <g id="Grupo_991261" data-name="Grupo 991261">
            <g id="Grupo_991260" data-name="Grupo 991260">
              <path id="Trazado_667144" data-name="Trazado 667144" d="M129.626,448.627c0,.035.194.056.431.046s.428-.043.427-.078-.194-.055-.431-.046S129.625,448.593,129.626,448.627Z" transform="translate(-129.626 -448.547)" fill="#263238"/>
            </g>
          </g>
        </g>
      </g>
      <g id="Grupo_991267" data-name="Grupo 991267" transform="translate(8.975 211.572)">
        <g id="Grupo_991266" data-name="Grupo 991266">
          <g id="Grupo_991265" data-name="Grupo 991265">
            <g id="Grupo_991264" data-name="Grupo 991264">
              <path id="Trazado_667145" data-name="Trazado 667145" d="M129.929,447.144c-.022.026.142.2.367.394s.425.326.447.3-.142-.2-.367-.394S129.951,447.117,129.929,447.144Z" transform="translate(-129.927 -447.14)" fill="#263238"/>
            </g>
          </g>
        </g>
      </g>
      <g id="Grupo_991271" data-name="Grupo 991271" transform="translate(9.271 210.935)">
        <g id="Grupo_991270" data-name="Grupo 991270">
          <g id="Grupo_991269" data-name="Grupo 991269">
            <g id="Grupo_991268" data-name="Grupo 991268">
              <path id="Trazado_667146" data-name="Trazado 667146" d="M130.347,446.247a1.033,1.033,0,0,0,.347.515,1.044,1.044,0,0,0,.525.332c.019-.031-.2-.189-.439-.421S130.378,446.228,130.347,446.247Z" transform="translate(-130.343 -446.246)" fill="#263238"/>
            </g>
          </g>
        </g>
      </g>
      <g id="Grupo_991275" data-name="Grupo 991275" transform="translate(9.916 212.902)">
        <g id="Grupo_991274" data-name="Grupo 991274">
          <g id="Grupo_991273" data-name="Grupo 991273">
            <g id="Grupo_991272" data-name="Grupo 991272">
              <path id="Trazado_667147" data-name="Trazado 667147" d="M131.288,449.164a1.916,1.916,0,0,0,.508.419,3.841,3.841,0,0,0,.637.33,1.937,1.937,0,0,0,.414.13.358.358,0,0,0,.256-.053.259.259,0,0,0,.092-.266,1.207,1.207,0,0,0-1.373-.684,1.174,1.174,0,0,0-.446.2c-.093.07-.132.12-.127.126a1.854,1.854,0,0,1,.59-.239,1.186,1.186,0,0,1,.666.079,1.025,1.025,0,0,1,.568.543c.031.127-.08.2-.213.174a1.961,1.961,0,0,1-.385-.115,4.515,4.515,0,0,1-.634-.3C131.495,449.309,131.3,449.149,131.288,449.164Z" transform="translate(-131.249 -449.01)" fill="#263238"/>
            </g>
          </g>
        </g>
      </g>
      <g id="Grupo_991279" data-name="Grupo 991279" transform="translate(9.902 211.763)">
        <g id="Grupo_991278" data-name="Grupo 991278">
          <g id="Grupo_991277" data-name="Grupo 991277">
            <g id="Grupo_991276" data-name="Grupo 991276">
              <path id="Trazado_667148" data-name="Trazado 667148" d="M131.393,448.838c0,.011.185-.055.351-.3a1.085,1.085,0,0,0,.17-.484.661.661,0,0,0-.206-.609.262.262,0,0,0-.35.1.719.719,0,0,0-.1.3,2.026,2.026,0,0,0-.016.5.952.952,0,0,0,.119.446c.019,0-.025-.174-.031-.451a2.36,2.36,0,0,1,.041-.48c.02-.164.132-.4.278-.313a.587.587,0,0,1,.154.492,1.071,1.071,0,0,1-.131.448A2.342,2.342,0,0,1,131.393,448.838Z" transform="translate(-131.23 -447.409)" fill="#263238"/>
            </g>
          </g>
        </g>
      </g>
      <g id="Grupo_991283" data-name="Grupo 991283" transform="translate(1.994 205.562)">
        <g id="Grupo_991282" data-name="Grupo 991282">
          <g id="Grupo_991281" data-name="Grupo 991281">
            <g id="Grupo_991280" data-name="Grupo 991280">
              <path id="Trazado_667149" data-name="Trazado 667149" d="M120.123,438.7c-.014.019.243.167.563.5a3.209,3.209,0,0,1,.691,3.36c-.162.437-.339.673-.319.686a.6.6,0,0,0,.132-.159,2.665,2.665,0,0,0,.268-.5,3.111,3.111,0,0,0-.71-3.454,2.7,2.7,0,0,0-.441-.35A.6.6,0,0,0,120.123,438.7Z" transform="translate(-120.122 -438.699)" fill="#263238"/>
            </g>
          </g>
        </g>
      </g>
      <g id="Grupo_991287" data-name="Grupo 991287" transform="translate(2.802 202.969)">
        <g id="Grupo_991286" data-name="Grupo 991286">
          <g id="Grupo_991285" data-name="Grupo 991285">
            <g id="Grupo_991284" data-name="Grupo 991284">
              <path id="Trazado_667150" data-name="Trazado 667150" d="M123.994,435.058a35.694,35.694,0,0,0-2.737,3.2,35.973,35.973,0,0,0,2.737-3.2Z" transform="translate(-121.257 -435.057)" fill="#263238"/>
            </g>
          </g>
        </g>
      </g>
      <g id="Grupo_991291" data-name="Grupo 991291" transform="translate(4.533 210.226)">
        <g id="Grupo_991290" data-name="Grupo 991290">
          <g id="Grupo_991289" data-name="Grupo 991289">
            <g id="Grupo_991288" data-name="Grupo 991288">
              <path id="Trazado_667151" data-name="Trazado 667151" d="M123.689,445.252a8.4,8.4,0,0,0,2.28,1.939c.021-.03-.519-.426-1.147-.962S123.715,445.227,123.689,445.252Z" transform="translate(-123.688 -445.251)" fill="#263238"/>
            </g>
          </g>
        </g>
      </g>
      <g id="Grupo_991295" data-name="Grupo 991295" transform="translate(2.816 208.939)">
        <g id="Grupo_991294" data-name="Grupo 991294">
          <g id="Grupo_991293" data-name="Grupo 991293">
            <g id="Grupo_991292" data-name="Grupo 991292">
              <path id="Trazado_667152" data-name="Trazado 667152" d="M121.455,443.443c-.036,0-.049.144-.095.305s-.1.29-.076.311.145-.09.2-.278S121.488,443.438,121.455,443.443Z" transform="translate(-121.277 -443.443)" fill="#263238"/>
            </g>
          </g>
        </g>
      </g>
      <g id="Grupo_991299" data-name="Grupo 991299" transform="translate(2.973 207.732)">
        <g id="Grupo_991298" data-name="Grupo 991298">
          <g id="Grupo_991297" data-name="Grupo 991297">
            <g id="Grupo_991296" data-name="Grupo 991296">
              <path id="Trazado_667153" data-name="Trazado 667153" d="M121.54,441.747c-.034,0-.051.127-.038.278s.05.27.084.267.052-.127.039-.278S121.574,441.744,121.54,441.747Z" transform="translate(-121.497 -441.747)" fill="#263238"/>
            </g>
          </g>
        </g>
      </g>
      <g id="Grupo_991303" data-name="Grupo 991303" transform="translate(2.459 206.7)">
        <g id="Grupo_991302" data-name="Grupo 991302">
          <g id="Grupo_991301" data-name="Grupo 991301">
            <g id="Grupo_991300" data-name="Grupo 991300">
              <path id="Trazado_667154" data-name="Trazado 667154" d="M120.776,440.307c-.017.031.088.117.17.254s.113.268.149.267.061-.164-.043-.332S120.788,440.275,120.776,440.307Z" transform="translate(-120.774 -440.298)" fill="#263238"/>
            </g>
          </g>
        </g>
      </g>
      <g id="Grupo_991307" data-name="Grupo 991307" transform="translate(1.982 206.056)">
        <g id="Grupo_991306" data-name="Grupo 991306">
          <g id="Grupo_991305" data-name="Grupo 991305">
            <g id="Grupo_991304" data-name="Grupo 991304">
              <path id="Trazado_667155" data-name="Trazado 667155" d="M120.121,439.4c-.03.017-.019.095.026.174s.1.131.135.115.019-.095-.026-.174S120.151,439.379,120.121,439.4Z" transform="translate(-120.105 -439.393)" fill="#263238"/>
            </g>
          </g>
        </g>
      </g>
      <g id="Grupo_991320" data-name="Grupo 991320" transform="translate(0.861 92.233)">
        <g id="Grupo_991308" data-name="Grupo 991308" transform="translate(0 5.243)">
          <path id="Trazado_667156" data-name="Trazado 667156" d="M148.521,287.514s-3.409,14.426-2.445,17.28,7.211,4.5,7.211,4.5l-.211,39.5-34.546,42.7,12.757,10.438s37.4-42.782,40.694-50.528-2.1-64.534-2.1-64.534Z" transform="translate(-118.531 -286.875)" fill="#263238"/>
        </g>
        <g id="Grupo_991309" data-name="Grupo 991309" transform="translate(18.773)">
          <path id="Trazado_667157" data-name="Trazado 667157" d="M173.763,279.511l1.69,119.977-17.574.089-8.82-97.715h0c-1.864-1.779-4.487-4.828-4.125-11.624l.428-7.9Z" transform="translate(-144.901 -279.511)" fill="#263238"/>
        </g>
        <g id="Grupo_991311" data-name="Grupo 991311" transform="translate(29.104 24.282)">
          <g id="Grupo_991310" data-name="Grupo 991310">
            <path id="Trazado_667158" data-name="Trazado 667158" d="M159.413,363.182a.694.694,0,0,1,.1-.178l.333-.492,1.306-1.848,4.768-6.6-.029.09c-.383-4.164-.846-9.214-1.347-14.659-.638-7.136-1.155-13.6-1.459-18.286-.155-2.342-.257-4.24-.313-5.551-.022-.627-.039-1.13-.052-1.511a2.808,2.808,0,0,1,.007-.528,2.834,2.834,0,0,1,.068.524c.031.381.07.881.121,1.506.1,1.35.251,3.232.431,5.541.371,4.678.929,11.138,1.567,18.273.478,5.464.967,10.506,1.282,14.691l0,.046-.033.045-4.873,6.523-1.373,1.8-.369.466C159.466,363.136,159.419,363.187,159.413,363.182Z" transform="translate(-159.412 -313.618)" fill="#455a64"/>
          </g>
        </g>
        <g id="Grupo_991313" data-name="Grupo 991313" transform="translate(25.307 22.337)">
          <g id="Grupo_991312" data-name="Grupo 991312">
            <path id="Trazado_667159" data-name="Trazado 667159" d="M163.271,312.831a23.991,23.991,0,0,1-4.653-.692,24.1,24.1,0,0,1-4.539-1.238,39.541,39.541,0,0,1,4.615.875A39.865,39.865,0,0,1,163.271,312.831Z" transform="translate(-154.079 -310.887)" fill="#455a64"/>
          </g>
        </g>
        <g id="Grupo_991315" data-name="Grupo 991315" transform="translate(36.908 63.605)">
          <g id="Grupo_991314" data-name="Grupo 991314">
            <path id="Trazado_667160" data-name="Trazado 667160" d="M180,370.493a14.021,14.021,0,0,0-9.627-.763,4,4,0,0,1,1.369-.536,10.788,10.788,0,0,1,6.99.554A3.992,3.992,0,0,1,180,370.493Z" transform="translate(-170.374 -368.854)" fill="#455a64"/>
          </g>
        </g>
        <g id="Grupo_991317" data-name="Grupo 991317" transform="translate(30.357 70.804)">
          <g id="Grupo_991316" data-name="Grupo 991316">
            <path id="Trazado_667161" data-name="Trazado 667161" d="M183.55,378.966c.082.062-4.862,6.7-11.04,14.818s-11.255,14.657-11.337,14.6,4.861-6.7,11.041-14.819S183.469,378.9,183.55,378.966Z" transform="translate(-161.173 -378.965)" fill="#455a64"/>
          </g>
        </g>
        <g id="Grupo_991319" data-name="Grupo 991319" transform="translate(41.502 7.978)">
          <g id="Grupo_991318" data-name="Grupo 991318">
            <path id="Trazado_667162" data-name="Trazado 667162" d="M185.68,291.652a2.946,2.946,0,0,1-.99,1.3,4.895,4.895,0,0,1-7.163-.755,2.953,2.953,0,0,1-.7-1.483,15.516,15.516,0,0,0,.9,1.318,4.882,4.882,0,0,0,6.795.716A15.8,15.8,0,0,0,185.68,291.652Z" transform="translate(-176.826 -290.718)" fill="#455a64"/>
          </g>
        </g>
      </g>
      <g id="Grupo_991321" data-name="Grupo 991321" transform="translate(22.431 18.04)">
        <path id="Trazado_667163" data-name="Trazado 667163" d="M153.6,196.671a15.328,15.328,0,0,1-.832-21.375" transform="translate(-148.829 -175.296)" fill="#263238"/>
      </g>
      <g id="Grupo_991322" data-name="Grupo 991322" transform="translate(12.725 50.606)">
        <path id="Trazado_667164" data-name="Trazado 667164" d="M139.8,221.04s-3.818,4.312-4.609,20.809c0,0,10.873,2.062,11.072,1.469S139.8,221.04,139.8,221.04Z" transform="translate(-135.195 -221.04)" fill="#449c6e"/>
      </g>
      <g id="Grupo_991323" data-name="Grupo 991323" transform="translate(12.725 50.606)" opacity="0.3">
        <path id="Trazado_667165" data-name="Trazado 667165" d="M139.8,221.04s-3.818,4.312-4.609,20.809c0,0,10.873,2.062,11.072,1.469S139.8,221.04,139.8,221.04Z" transform="translate(-135.195 -221.04)"/>
      </g>
      <g id="Grupo_991324" data-name="Grupo 991324" transform="translate(20.407 71.415)">
        <path id="Trazado_667166" data-name="Trazado 667166" d="M145.986,250.27" transform="translate(-145.986 -250.27)" fill="#455a64"/>
      </g>
      <g id="Grupo_991325" data-name="Grupo 991325" transform="translate(16.139 42.498)">
        <path id="Trazado_667167" data-name="Trazado 667167" d="M142.946,265.8h33.381l-.54-5.214s-3.814-19.839-3.787-20.1l.6-1.263a12.586,12.586,0,0,0,.146-10.5h0l16.346-5.589-4-13.487c-7.417,1.252-18.628,2.649-18.628,2.649l-1.669.14s-11.574.6-11.821.633c-4.841.586-10.474.957-12.533,6.139-1.1,2.77-.056,6.929,1.742,11.216l4.279,13.168c1.709,7.239-1.019,6.894-2.515,14.179C143.721,258.878,142.924,264.791,142.946,265.8Z" transform="translate(-139.991 -209.651)" fill="#449c6e"/>
      </g>
      <g id="Grupo_991326" data-name="Grupo 991326" transform="translate(16.139 42.498)" opacity="0.3">
        <path id="Trazado_667168" data-name="Trazado 667168" d="M142.946,265.8h33.381l-.54-5.214s-3.814-19.839-3.787-20.1l.6-1.263a12.586,12.586,0,0,0,.146-10.5h0l16.346-5.589-4-13.487c-7.417,1.252-18.628,2.649-18.628,2.649l-1.669.14s-11.574.6-11.821.633c-4.841.586-10.474.957-12.533,6.139-1.1,2.77-.056,6.929,1.742,11.216l4.279,13.168c1.709,7.239-1.019,6.894-2.515,14.179C143.721,258.878,142.924,264.791,142.946,265.8Z" transform="translate(-139.991 -209.651)"/>
      </g>
      <g id="Grupo_991328" data-name="Grupo 991328" transform="translate(46.324 56.198)">
        <g id="Grupo_991327" data-name="Grupo 991327">
          <path id="Trazado_667169" data-name="Trazado 667169" d="M201.155,228.9a3.228,3.228,0,0,1-.725.305c-.474.173-1.165.412-2.02.7-1.709.577-4.082,1.343-6.7,2.18s-4.962,1.671-6.626,2.358c-.834.337-1.5.637-1.961.835a3.172,3.172,0,0,1-.731.288,3.2,3.2,0,0,1,.668-.417c.446-.238,1.1-.577,1.921-.946a63.041,63.041,0,0,1,6.616-2.47c2.623-.839,5.006-1.564,6.736-2.077.866-.256,1.568-.457,2.055-.588A3.223,3.223,0,0,1,201.155,228.9Z" transform="translate(-182.389 -228.895)" fill="#263238"/>
        </g>
      </g>
      <g id="Grupo_991330" data-name="Grupo 991330" transform="translate(19.065 48.837)">
        <g id="Grupo_991329" data-name="Grupo 991329">
          <path id="Trazado_667170" data-name="Trazado 667170" d="M188.185,218.741c0,.1-9.869.185-22.04.185s-22.043-.083-22.043-.185,9.867-.185,22.043-.185S188.185,218.639,188.185,218.741Z" transform="translate(-144.101 -218.556)" fill="#fafafa"/>
        </g>
      </g>
      <g id="Grupo_991332" data-name="Grupo 991332" transform="translate(15.109 55.393)">
        <g id="Grupo_991331" data-name="Grupo 991331">
          <path id="Trazado_667171" data-name="Trazado 667171" d="M187.6,227.95c0,.1-10.983.185-24.527.185s-24.53-.083-24.53-.185,10.98-.185,24.53-.185S187.6,227.848,187.6,227.95Z" transform="translate(-138.544 -227.765)" fill="#fafafa"/>
        </g>
      </g>
      <g id="Grupo_991334" data-name="Grupo 991334" transform="translate(13.752 62.854)">
        <g id="Grupo_991333" data-name="Grupo 991333">
          <path id="Trazado_667172" data-name="Trazado 667172" d="M140.727,238.429a11.339,11.339,0,0,1-4.089,0,11.381,11.381,0,0,1,4.089,0Z" transform="translate(-136.638 -238.244)" fill="#fafafa"/>
        </g>
      </g>
      <g id="Grupo_991336" data-name="Grupo 991336" transform="translate(17.841 63.079)">
        <g id="Grupo_991335" data-name="Grupo 991335">
          <path id="Trazado_667173" data-name="Trazado 667173" d="M174.464,238.747c0,.1-7.183.185-16.041.185s-16.042-.083-16.042-.185,7.181-.186,16.042-.186S174.464,238.644,174.464,238.747Z" transform="translate(-142.381 -238.561)" fill="#fafafa"/>
        </g>
      </g>
      <g id="Grupo_991338" data-name="Grupo 991338" transform="translate(20.421 70.766)">
        <g id="Grupo_991337" data-name="Grupo 991337">
          <path id="Trazado_667174" data-name="Trazado 667174" d="M174.8,249.543c0,.1-6.446.186-14.4.186s-14.4-.083-14.4-.186,6.445-.185,14.4-.185S174.8,249.441,174.8,249.543Z" transform="translate(-146.006 -249.358)" fill="#fafafa"/>
        </g>
      </g>
      <g id="Grupo_991340" data-name="Grupo 991340" transform="translate(22.908 77.887)">
        <g id="Grupo_991339" data-name="Grupo 991339">
          <path id="Trazado_667175" data-name="Trazado 667175" d="M175.6,259.546c0,.1-5.843.186-13.049.186s-13.051-.083-13.051-.186,5.842-.185,13.051-.185S175.6,259.444,175.6,259.546Z" transform="translate(-149.499 -259.361)" fill="#fafafa"/>
        </g>
      </g>
      <g id="Grupo_991342" data-name="Grupo 991342" transform="translate(22.23 83.652)">
        <g id="Grupo_991341" data-name="Grupo 991341">
          <path id="Trazado_667176" data-name="Trazado 667176" d="M176.466,267.644c0,.1-6.251.185-13.959.185s-13.96-.083-13.96-.185,6.249-.185,13.96-.185S176.466,267.542,176.466,267.644Z" transform="translate(-148.547 -267.459)" fill="#fafafa"/>
        </g>
      </g>
      <g id="Grupo_991344" data-name="Grupo 991344" transform="translate(20.196 91)">
        <g id="Grupo_991343" data-name="Grupo 991343">
          <path id="Trazado_667177" data-name="Trazado 667177" d="M177.451,277.964c0,.1-7.111.186-15.88.186s-15.882-.083-15.882-.186,7.109-.185,15.882-.185S177.451,277.862,177.451,277.964Z" transform="translate(-145.689 -277.779)" fill="#fafafa"/>
        </g>
      </g>
      <g id="Grupo_991346" data-name="Grupo 991346" transform="translate(16.508 58.589)">
        <g id="Grupo_991345" data-name="Grupo 991345">
          <path id="Trazado_667178" data-name="Trazado 667178" d="M146.412,249.492a2.66,2.66,0,0,1-.3-.656l-.7-1.822c-.587-1.54-1.414-3.662-2.274-6.029s-1.573-4.536-2.022-6.127c-.224-.8-.392-1.443-.487-1.9a2.69,2.69,0,0,1-.116-.71,26.231,26.231,0,0,1,.854,2.529c.511,1.566,1.257,3.714,2.119,6.077s1.647,4.5,2.173,6.066c.264.782.465,1.42.592,1.865A2.708,2.708,0,0,1,146.412,249.492Z" transform="translate(-140.509 -232.254)" fill="#263238"/>
        </g>
      </g>
    </g>
  </g>
</svg>
