<svg xmlns="http://www.w3.org/2000/svg" width="820" height="622.253" viewBox="0 0 820 622.253">
  <g id="Grupo_991351" data-name="Grupo 991351" transform="translate(-390 -3869.754)">
    <g id="Supply_chain_management" data-name="Supply chain management" transform="translate(161.965 3548.969)">
      <circle id="Elipse_7751" data-name="Elipse 7751" cx="304.012" cy="304.012" r="304.012" transform="translate(335.012 335.012)" fill="#f2e6dc"/>
      <g id="Grupo_986893" data-name="Grupo 986893" transform="translate(465.57 487.048)">
        <g id="Grupo_986892" data-name="Grupo 986892" transform="translate(0)">
          <path id="Trazado_660143" data-name="Trazado 660143" d="M1004.888,956.052l-12.794-4.477a125.62,125.62,0,0,0,1.489-19.885l13.307-2.527-8.546-45.132-13.336,2.533a127.29,127.29,0,0,0-8.641-17.95l10.285-8.872-29.934-34.806-10.262,8.852a125.166,125.166,0,0,0-16.461-11.219l4.471-12.813-43.3-15.154-4.471,12.813a125.045,125.045,0,0,0-19.855-1.491L864.315,792.6l-45.065,8.559,2.529,13.357a126.852,126.852,0,0,0-17.923,8.653L795,812.867l-34.754,29.979,8.839,10.277a125.366,125.366,0,0,0-11.2,16.485l-12.795-4.477h0L729.955,908.5l12.795,4.477a125.588,125.588,0,0,0-1.489,19.885l-13.307,2.528,8.546,45.132,13.337-2.533a127.182,127.182,0,0,0,8.641,17.95l-10.285,8.872,29.934,34.806h0l10.262-8.852a125.176,125.176,0,0,0,16.461,11.218l-4.471,12.814,43.3,15.154,4.471-12.813A125.036,125.036,0,0,0,868,1058.623l2.523,13.327h0l45.065-8.559-2.529-13.357a126.831,126.831,0,0,0,17.923-8.654l8.859,10.3L974.6,1021.7l-8.839-10.277a125.452,125.452,0,0,0,11.2-16.486l12.794,4.477Zm-64.536,4.459c-14.739,38.274-57.216,58.783-96.294,46.493a78.339,78.339,0,0,1-49.567-102.969c14.739-38.274,57.215-58.783,96.294-46.493A78.338,78.338,0,0,1,940.352,960.511Z" transform="translate(-727.954 -792.598)" fill="#fff"/>
        </g>
        <path id="Trazado_660144" data-name="Trazado 660144" d="M945.31,1111.16A100.824,100.824,0,1,1,963.9,911.231a.332.332,0,1,1-.124.653c-48.16-9.133-96.693,18.985-112.89,65.4a100.035,100.035,0,0,0,177.476,88.845.332.332,0,0,1,.552.37A100.564,100.564,0,0,1,945.31,1111.16Z" transform="translate(-805.823 -870.651)" fill="#f2e6dc"/>
      </g>
      <g id="Grupo_986898" data-name="Grupo 986898" transform="translate(381.455 335.677)">
        <g id="Grupo_986895" data-name="Grupo 986895" transform="translate(0 97.916)">
          <g id="Grupo_986894" data-name="Grupo 986894" transform="translate(418.487 246.836)">
            <path id="Trazado_660145" data-name="Trazado 660145" d="M1804.159,1420.86v-16.083l-3.136-3.141v-12.69l-7.339-7.351v13.381l-4.423,4.429-7.057-7.068,6.4-6.408-11.292-11.309-24.465,24.5h-7.528l-10.827,10.842c-.169,12.84-.345,32.506.162,32.506h18.819v-6.534h14.052v9.549h6.775v10.3l8.907,8.921,25.343-25.381v-18.47Z" transform="translate(-1734.319 -1374.621)" fill="#d3bba3"/>
          </g>
          <path id="Trazado_660146" data-name="Trazado 660146" d="M535.3,825.276c0-2.262-1.505-33.171,0-33.171H516.477v-17.34h25.594l9.41,9.424v-18.47l19.384-19.413h19.384V732.547h25.594v-40.71l-9.786-9.8-20.325,20.355-9.033-9.047,20.325-20.355,4.893,4.9,11.292-11.308,14.3,14.324,7.9-7.916V655.65H598.528l9.033-9.047H554.868L540,631.714H519.488l-44.7,44.762h18.349l12.28-12.3,12.562,12.581-13.173,13.193v22.24l-15.479,15.5v60.641Z" transform="translate(-474.792 -631.714)" fill="#d3bba3"/>
          <path id="Trazado_660147" data-name="Trazado 660147" d="M671.79,1214.279h25.969L734,1250.571l9.151,3.469,5.985,20.95-11.009,11.025V1312.6s-8.745,6.5-8.745,8.758v60.491l9.877,9.892v9.9l-44.124-44.189v-34.965l-13.277-13.3v-18.93l-19.711-19.74v-37.807Z" transform="translate(-599.895 -1020.718)" fill="#d3bba3"/>
          <path id="Trazado_660148" data-name="Trazado 660148" d="M1022.505,802.611v46.927s33.873-4.523,33.873,0,20.324,20.354,20.324,20.354v45.8c0,2.262,14.26,14.281,14.26,14.281v21.9h19.048l18.216-18.243V902.685l12.106-12.124V861.977l18.148-18.175-8.775-8.789h-13.16l-11.1-11.113V790.738l16.839,16.864-10.259,10.274,9.315,9.329,17.5-17.527v-7.633h16.089l14.678,14.7v11.873l12.138,12.156,25.687-25.725,7.622,7.633v22.333h13.831l-6.774-6.785v-9.612l7.514,7.525,5.752,5.761,14.678-14.7-12.722-12.741,22.017-22.05-20.3-20.334,33.747-33.8-23.429-23.464,22.645-22.679v14.354l19.932,19.961V708.191l-11.6-11.614,23.515-23.55h-12.875V662.959h-99.36l-18.066-18.092-22.017,22.05,5.645,5.654-21.17,21.2-8.468-8.481-12.42,12.439L1116.22,678.79l-31.333,31.379,8.468,8.481v7.633l5.787-5.8V708.756h10.868v4.177l-17.86,17.887-7.134-7.144-20.7,20.732v6.345l-4.3,4.3H1049.95v5.5l-5.395,5.4,8.061,8.073h9.127V764.7l7.434-7.445,6.4,6.408s3.293-7.068,5.175-5.183,8.092,7.162,8.092,8.1.941,5.842,0,5.842,3.764-3.769,3.764-3.769v-6.22l-5.834-5.843,2.352-2.356,6.4,6.408v7.822l5.034,5.042v-4.476l4.4-4.406,10.538-10.555v-6.337h6.846V754.9s4.234-.471,4.7,0l4.8,4.806v4.806h-10.633v-3.769h-7.339L1107,767.622v4.241l4.658,4.664h10.68v8.528h-19.76l-5.552-5.56-8,8.01-7.057-7.067v-6.314h-14.02l-6.493,6.5h-14.02l-17.516,17.542v4.227Z" transform="translate(-840.523 -640.497)" fill="#d3bba3"/>
        </g>
        <g id="Grupo_986897" data-name="Grupo 986897" transform="translate(9.095 0)">
          <g id="Grupo_986896" data-name="Grupo 986896" transform="translate(278.543 61.775)">
            <path id="Trazado_660149" data-name="Trazado 660149" d="M1368.438,522.941a27.959,27.959,0,0,1,27.938,27.979c0,15.453-27.938,49.552-27.938,49.552s-27.937-34.1-27.937-49.552A27.958,27.958,0,0,1,1368.438,522.941Z" transform="translate(-1340.501 -522.941)" fill="#f0bd51"/>
            <ellipse id="Elipse_7752" data-name="Elipse 7752" cx="19.116" cy="19.145" rx="19.116" ry="19.145" transform="translate(8.821 8.835)" fill="#f2e6dc"/>
          </g>
          <path id="Trazado_660150" data-name="Trazado 660150" d="M563.368,437.826a61.249,61.249,0,0,0-61.2,61.294c0,33.852,61.2,108.554,61.2,108.554s61.2-74.7,61.2-108.554A61.249,61.249,0,0,0,563.368,437.826Zm0,103.234a41.94,41.94,0,1,1,41.878-41.94A41.909,41.909,0,0,1,563.368,541.06Z" transform="translate(-502.165 -404.331)" fill="#ef8b53"/>
          <path id="Trazado_660151" data-name="Trazado 660151" d="M1763.612,337.015a61.248,61.248,0,0,0-61.2,61.294c0,33.852,61.2,108.554,61.2,108.554s61.2-74.7,61.2-108.554A61.249,61.249,0,0,0,1763.612,337.015Zm0,103.234a41.94,41.94,0,1,1,41.878-41.94A41.909,41.909,0,0,1,1763.612,440.249Z" transform="translate(-1303.619 -337.015)" fill="#ef8b53"/>
          <path id="Trazado_660152" data-name="Trazado 660152" d="M1574.817,867.79H1572.4a.332.332,0,0,1,0-.665h1.748v-1.575a.332.332,0,0,1,.665,0Zm-6.4,0h-3.987a.332.332,0,0,1,0-.665h3.987a.332.332,0,0,1,0,.665Zm-7.974,0h-3.987a.332.332,0,0,1,0-.665h3.987a.332.332,0,0,1,0,.665Zm-7.974,0h-3.987a.332.332,0,0,1,0-.665h3.987a.332.332,0,0,1,0,.665Zm-7.974,0h-3.987a.332.332,0,0,1,0-.665h3.987a.332.332,0,0,1,0,.665Zm-7.974,0h-3.987a.332.332,0,0,1,0-.665h3.987a.332.332,0,0,1,0,.665Zm-7.974,0h-3.987a.332.332,0,0,1,0-.665h3.987a.332.332,0,1,1,0,.665Zm-7.974,0h-3.987a.332.332,0,0,1,0-.665h3.987a.332.332,0,0,1,0,.665Zm-7.974,0h-3.987a.332.332,0,0,1,0-.665h3.987a.332.332,0,0,1,0,.665Zm-7.974,0h-3.987a.332.332,0,0,1,0-.665h3.987a.332.332,0,0,1,0,.665Zm-7.974,0h-3.987a.332.332,0,1,1,0-.665h3.987a.332.332,0,0,1,0,.665Zm-7.974,0h-3.987a.332.332,0,0,1,0-.665h3.987a.332.332,0,0,1,0,.665Zm-7.974,0h-3.987a.332.332,0,0,1,0-.665h3.987a.332.332,0,0,1,0,.665Zm-7.974,0h-3.987a.332.332,0,0,1,0-.665h3.987a.332.332,0,0,1,0,.665Zm-7.974,0h-3.987a.332.332,0,0,1,0-.665h3.987a.332.332,0,0,1,0,.665Zm-7.974,0h-3.987a.332.332,0,0,1,0-.665h3.987a.332.332,0,1,1,0,.665Zm-7.974,0h-3.987a.332.332,0,0,1,0-.665h3.987a.332.332,0,0,1,0,.665Zm-7.974,0h-3.987a.332.332,0,0,1,0-.665h3.987a.332.332,0,0,1,0,.665Zm-7.974,0h-3.987a.332.332,0,0,1,0-.665h3.987a.332.332,0,0,1,0,.665Zm-7.974,0H1420.9a.332.332,0,1,1,0-.665h3.987a.332.332,0,0,1,0,.665Zm-5.375-2.6a.332.332,0,0,1-.332-.332v-3.987a.332.332,0,0,1,.665,0v3.987A.332.332,0,0,1,1419.507,865.191Zm154.977-3.295a.332.332,0,0,1-.332-.332v-3.987a.332.332,0,0,1,.665,0v3.987A.332.332,0,0,1,1574.484,861.9Zm-154.977-4.68a.332.332,0,0,1-.332-.332V852.9a.332.332,0,0,1,.665,0v3.987A.332.332,0,0,1,1419.507,857.216Zm154.977-3.295a.332.332,0,0,1-.332-.332V849.6a.332.332,0,0,1,.665,0v3.987A.332.332,0,0,1,1574.484,853.922Zm-154.977-4.679a.332.332,0,0,1-.332-.332v-3.987a.332.332,0,0,1,.665,0v3.987A.332.332,0,0,1,1419.507,849.242Zm154.977-3.295a.332.332,0,0,1-.332-.332v-3.987a.332.332,0,0,1,.665,0v3.987A.332.332,0,0,1,1574.484,845.948Zm-154.977-4.68a.332.332,0,0,1-.332-.332v-3.987a.332.332,0,0,1,.665,0v3.987A.332.332,0,0,1,1419.507,841.268Zm154.977-3.295a.332.332,0,0,1-.332-.332v-.3a.332.332,0,0,1,.665,0v.3A.332.332,0,0,1,1574.484,837.973Zm-154.977-4.679a.332.332,0,0,1-.332-.332v-3.987a.332.332,0,0,1,.665,0v3.987A.332.332,0,0,1,1419.507,833.294Zm0-7.974a.332.332,0,0,1-.332-.332V821a.332.332,0,0,1,.665,0v3.987A.332.332,0,0,1,1419.507,825.32Z" transform="translate(-1114.492 -659.971)" fill="#363e44"/>
          <path id="Trazado_660153" data-name="Trazado 660153" d="M789.35,904.211H785.5a.332.332,0,0,1,0-.665h3.184v-.139a.332.332,0,0,1,.664,0Zm-7.835,0h-3.987a.332.332,0,0,1,0-.665h3.987a.332.332,0,0,1,0,.665Zm-7.974,0h-3.987a.332.332,0,0,1,0-.665h3.987a.332.332,0,0,1,0,.665Zm-7.974,0H761.58a.332.332,0,0,1,0-.665h3.987a.332.332,0,0,1,0,.665Zm-7.974,0h-3.987a.332.332,0,0,1,0-.665h3.987a.332.332,0,0,1,0,.665Zm-7.974,0h-3.987a.332.332,0,0,1,0-.665h3.987a.332.332,0,0,1,0,.665Zm-7.974,0h-3.987a.332.332,0,0,1,0-.665h3.987a.332.332,0,0,1,0,.665Zm-7.974,0h-3.987a.332.332,0,0,1,0-.665h3.987a.332.332,0,0,1,0,.665Zm-7.974,0h-3.987a.332.332,0,0,1,0-.665H725.7a.332.332,0,0,1,0,.665Zm-7.974,0h-3.987a.332.332,0,0,1,0-.665h3.987a.332.332,0,0,1,0,.665Zm-7.974,0H705.76a.332.332,0,0,1,0-.665h3.987a.332.332,0,0,1,0,.665Zm-7.974,0h-3.987a.332.332,0,0,1,0-.665h3.987a.332.332,0,0,1,0,.665Zm-7.974,0h-3.987a.332.332,0,0,1,0-.665H693.8a.332.332,0,0,1,0,.665Zm-7.974,0h-.456v-4.2a.332.332,0,1,1,.664,0v3.605a.332.332,0,0,1-.209.591Zm103.193-4.458a.332.332,0,0,1-.332-.332v-3.987a.332.332,0,1,1,.664,0v3.987A.332.332,0,0,1,789.018,899.753ZM685.7,896.36a.332.332,0,0,1-.332-.332v-3.987a.332.332,0,1,1,.664,0v3.987A.332.332,0,0,1,685.7,896.36Zm103.317-4.582a.332.332,0,0,1-.332-.332v-3.987a.332.332,0,0,1,.664,0v3.987A.332.332,0,0,1,789.018,891.778ZM685.7,888.386a.332.332,0,0,1-.332-.332v-3.987a.332.332,0,0,1,.664,0v3.987A.332.332,0,0,1,685.7,888.386ZM789.018,883.8a.332.332,0,0,1-.332-.332v-3.987a.332.332,0,1,1,.664,0v3.987A.332.332,0,0,1,789.018,883.8ZM685.7,880.412a.332.332,0,0,1-.332-.332v-3.987a.332.332,0,1,1,.664,0v3.987A.332.332,0,0,1,685.7,880.412Zm103.317-4.582a.332.332,0,0,1-.332-.332v-3.987a.332.332,0,1,1,.664,0V875.5A.332.332,0,0,1,789.018,875.83ZM685.7,872.438a.332.332,0,0,1-.332-.332v-3.987a.332.332,0,0,1,.664,0v3.987A.332.332,0,0,1,685.7,872.438Zm103.317-4.582a.332.332,0,0,1-.332-.332v-3.987a.332.332,0,0,1,.664,0v3.987A.332.332,0,0,1,789.018,867.856ZM685.7,864.464a.332.332,0,0,1-.332-.332v-3.987a.332.332,0,1,1,.664,0v3.987A.332.332,0,0,1,685.7,864.464Zm103.317-4.582a.332.332,0,0,1-.332-.332v-3.987a.332.332,0,1,1,.664,0v3.987A.332.332,0,0,1,789.018,859.882ZM685.7,856.489a.332.332,0,0,1-.332-.332V852.17a.332.332,0,0,1,.664,0v3.987A.332.332,0,0,1,685.7,856.489Zm103.317-4.582a.332.332,0,0,1-.332-.332v-3.987a.332.332,0,0,1,.664,0v3.987A.332.332,0,0,1,789.018,851.908Zm0-7.974a.332.332,0,0,1-.332-.332v-3.987a.332.332,0,1,1,.664,0V843.6A.332.332,0,0,1,789.018,843.933Zm0-7.974a.332.332,0,0,1-.332-.332V831.64a.332.332,0,1,1,.664,0v3.987A.332.332,0,0,1,789.018,835.959Zm0-7.974a.332.332,0,0,1-.332-.332v-3.987a.332.332,0,1,1,.664,0v3.987A.332.332,0,0,1,789.018,827.985Zm0-7.974a.332.332,0,0,1-.332-.332v-3.987a.332.332,0,0,1,.664,0v3.987A.332.332,0,0,1,789.018,820.011Zm0-7.974a.332.332,0,0,1-.332-.332v-3.987a.332.332,0,1,1,.664,0V811.7A.332.332,0,0,1,789.018,812.037Zm0-7.974a.332.332,0,0,1-.332-.332v-3.987a.332.332,0,1,1,.664,0v3.987A.332.332,0,0,1,789.018,804.063Zm140.5-7.019h-3.987a.332.332,0,0,1,0-.664h3.987a.332.332,0,1,1,0,.664Zm-7.974,0H917.56a.332.332,0,1,1,0-.664h3.987a.332.332,0,1,1,0,.664Zm-7.974,0h-3.987a.332.332,0,1,1,0-.664h3.987a.332.332,0,0,1,0,.664Zm-7.974,0h-3.987a.332.332,0,1,1,0-.664H905.6a.332.332,0,1,1,0,.664Zm-7.974,0h-3.987a.332.332,0,0,1,0-.664h3.987a.332.332,0,1,1,0,.664Zm-7.974,0h-3.987a.332.332,0,1,1,0-.664h3.987a.332.332,0,1,1,0,.664Zm-7.974,0h-3.987a.332.332,0,1,1,0-.664h3.987a.332.332,0,1,1,0,.664Zm-7.974,0h-3.987a.332.332,0,1,1,0-.664H873.7a.332.332,0,0,1,0,.664Zm-7.974,0h-3.987a.332.332,0,1,1,0-.664h3.987a.332.332,0,1,1,0,.664Zm-7.974,0h-3.987a.332.332,0,0,1,0-.664h3.987a.332.332,0,1,1,0,.664Zm-7.974,0h-3.987a.332.332,0,1,1,0-.664h3.987a.332.332,0,1,1,0,.664Zm-7.974,0h-3.987a.332.332,0,1,1,0-.664h3.987a.332.332,0,0,1,0,.664Zm-7.974,0h-3.987a.332.332,0,1,1,0-.664h3.987a.332.332,0,1,1,0,.664Zm-7.974,0H821.87a.332.332,0,0,1,0-.664h3.987a.332.332,0,0,1,0,.664Zm-7.974,0H813.9a.332.332,0,1,1,0-.664h3.987a.332.332,0,1,1,0,.664Zm-7.974,0h-3.987a.332.332,0,0,1,0-.664h3.987a.332.332,0,1,1,0,.664Zm-7.974,0h-3.987a.332.332,0,1,1,0-.664h3.987a.332.332,0,0,1,0,.664Zm-7.974,0h-3.987a.332.332,0,1,1,0-.664h3.987a.332.332,0,1,1,0,.664Z" transform="translate(-624.498 -643.752)" fill="#363e44"/>
        </g>
      </g>
      <g id="Grupo_986902" data-name="Grupo 986902" transform="translate(646.968 766.067)">
        <ellipse id="Elipse_7753" data-name="Elipse 7753" cx="45.943" cy="46.011" rx="45.943" ry="46.011" transform="translate(0 1.153)" fill="#fff"/>
        <path id="Trazado_660154" data-name="Trazado 660154" d="M1357.1,1725.053a46.343,46.343,0,1,1,46.275-46.343A46.362,46.362,0,0,1,1357.1,1725.053Zm0-92.022a45.679,45.679,0,1,0,45.61,45.679A45.7,45.7,0,0,0,1357.1,1633.031Z" transform="translate(-1298.557 -1632.366)" fill="#d3bba3"/>
        <g id="Grupo_986901" data-name="Grupo 986901" transform="translate(25.316 22.381)">
          <path id="Trazado_660155" data-name="Trazado 660155" d="M1412.273,1766.895h-61.836a.332.332,0,0,1-.332-.332v-40.64a.332.332,0,0,1,.665,0v40.308h61.5a.332.332,0,0,1,0,.665Z" transform="translate(-1350.105 -1716.997)" fill="#d3bba3"/>
          <g id="Grupo_986899" data-name="Grupo 986899" transform="translate(7.646)">
            <path id="Trazado_660156" data-name="Trazado 660156" d="M1469.855,1757.225a.332.332,0,0,1-.171-.617l7.345-4.4a.332.332,0,1,1,.342.57l-7.345,4.4A.332.332,0,0,1,1469.855,1757.225Z" transform="translate(-1437.491 -1734.742)" fill="#d3bba3"/>
            <path id="Trazado_660157" data-name="Trazado 660157" d="M1435.858,1732.029a.331.331,0,0,1-.278-.15l-9.952-15.173a.332.332,0,1,1,.556-.365l9.951,15.173a.332.332,0,0,1-.1.46A.327.327,0,0,1,1435.858,1732.029Z" transform="translate(-1408.145 -1710.722)" fill="#d3bba3"/>
            <path id="Trazado_660158" data-name="Trazado 660158" d="M1389.592,1720.86a.332.332,0,0,1-.2-.595l7.731-5.981a.332.332,0,0,1,.407.526l-7.731,5.981A.333.333,0,0,1,1389.592,1720.86Z" transform="translate(-1383.897 -1709.401)" fill="#d3bba3"/>
            <ellipse id="Elipse_7754" data-name="Elipse 7754" cx="3.188" cy="3.193" rx="3.188" ry="3.193" transform="translate(0 9.933)" fill="#d87355"/>
            <ellipse id="Elipse_7755" data-name="Elipse 7755" cx="3.188" cy="3.193" rx="3.188" ry="3.193" transform="translate(12.853)" fill="#d87355"/>
            <ellipse id="Elipse_7756" data-name="Elipse 7756" cx="3.188" cy="3.193" rx="3.188" ry="3.193" transform="translate(26.367 20.485)" fill="#d87355"/>
            <ellipse id="Elipse_7757" data-name="Elipse 7757" cx="3.188" cy="3.193" rx="3.188" ry="3.193" transform="translate(39.322 13.039)" fill="#d87355"/>
          </g>
          <g id="Grupo_986900" data-name="Grupo 986900" transform="translate(7.067 17.053)">
            <rect id="Rectángulo_311113" data-name="Rectángulo 311113" width="7.928" height="21.772" transform="translate(0 4.337)" fill="#e6d0be"/>
            <rect id="Rectángulo_311114" data-name="Rectángulo 311114" width="7.928" height="26.109" transform="translate(13.084)" fill="#e6d0be"/>
            <rect id="Rectángulo_311115" data-name="Rectángulo 311115" width="7.928" height="14.07" transform="translate(26.168 12.039)" fill="#e6d0be"/>
            <rect id="Rectángulo_311116" data-name="Rectángulo 311116" width="7.928" height="18.11" transform="translate(39.252 7.999)" fill="#e6d0be"/>
          </g>
        </g>
      </g>
      <g id="Grupo_986907" data-name="Grupo 986907" transform="translate(744.505 703.649)">
        <g id="Grupo_986904" data-name="Grupo 986904" transform="translate(0 103.004)">
          <rect id="Rectángulo_311117" data-name="Rectángulo 311117" width="183.554" height="136.11" fill="#efbc73"/>
          <path id="Trazado_660159" data-name="Trazado 660159" d="M1703.5,1898.271a.332.332,0,0,1-.332-.332v-120.3a.332.332,0,1,1,.664,0v120.3A.332.332,0,0,1,1703.5,1898.271Z" transform="translate(-1658.079 -1769.732)" fill="#e0aa63"/>
          <path id="Trazado_660160" data-name="Trazado 660160" d="M1950.173,1979.2a.332.332,0,0,1-.332-.332V1898.83a.332.332,0,0,1,.665,0v80.036A.332.332,0,0,1,1950.173,1979.2Z" transform="translate(-1822.795 -1850.659)" fill="#e0aa63"/>
          <g id="Grupo_986903" data-name="Grupo 986903" transform="translate(109.651 1.471)">
            <path id="Trazado_660161" data-name="Trazado 660161" d="M1932.609,1801.142a.332.332,0,0,1-.235-.1l-9.184-9.2-7.666,7.677a.343.343,0,0,1-.471,0l-7.914-7.926-9.085,9.1a.332.332,0,0,1-.567-.235v-41.184a.332.332,0,1,1,.665,0v40.381l8.753-8.766a.343.343,0,0,1,.471,0l7.914,7.926,7.666-7.677a.343.343,0,0,1,.471,0l8.852,8.865v-40.729a.332.332,0,1,1,.664,0v41.533a.332.332,0,0,1-.2.307A.327.327,0,0,1,1932.609,1801.142Z" transform="translate(-1897.487 -1758.945)" fill="#f7f1eb"/>
          </g>
        </g>
        <g id="Grupo_986906" data-name="Grupo 986906" transform="translate(46.55 0)">
          <rect id="Rectángulo_311118" data-name="Rectángulo 311118" width="118.592" height="87.939" transform="translate(3.404 15.026)" fill="#e0aa63"/>
          <path id="Trazado_660162" data-name="Trazado 660162" d="M1805.465,1582.488a.332.332,0,0,1-.332-.332v-77.727a.332.332,0,0,1,.665,0v77.727A.332.332,0,0,1,1805.465,1582.488Z" transform="translate(-1772.718 -1484.297)" fill="#efbc73"/>
          <path id="Trazado_660163" data-name="Trazado 660163" d="M1964.84,1634.774a.332.332,0,0,1-.332-.332v-51.71a.332.332,0,1,1,.664,0v51.71A.332.332,0,0,1,1964.84,1634.774Z" transform="translate(-1879.14 -1536.583)" fill="#efbc73"/>
          <g id="Grupo_986905" data-name="Grupo 986905" transform="translate(74.13 15.859)">
            <path id="Trazado_660164" data-name="Trazado 660164" d="M1953.492,1519.734a.333.333,0,0,1-.235-.1l-5.851-5.86-4.87,4.877a.343.343,0,0,1-.47,0l-5.029-5.038-5.786,5.8a.332.332,0,0,1-.568-.235v-26.609a.332.332,0,1,1,.665,0v25.806l5.454-5.463a.331.331,0,0,1,.235-.1h0a.333.333,0,0,1,.235.1l5.029,5.038,4.87-4.877a.333.333,0,0,1,.235-.1h0a.334.334,0,0,1,.235.1l5.519,5.527v-26.031a.332.332,0,1,1,.665,0V1519.4a.332.332,0,0,1-.205.307A.327.327,0,0,1,1953.492,1519.734Z" transform="translate(-1930.683 -1492.235)" fill="#f7f1eb"/>
          </g>
          <path id="Trazado_660165" data-name="Trazado 660165" d="M1733.519,1444.505a25.965,25.965,0,0,0-25.946,25.984c0,14.351,25.946,46.019,25.946,46.019s25.946-31.669,25.946-46.019A25.965,25.965,0,0,0,1733.519,1444.505Zm0,43.764a17.78,17.78,0,1,1,17.753-17.779A17.766,17.766,0,0,1,1733.519,1488.269Z" transform="translate(-1707.573 -1444.505)" fill="#fff"/>
        </g>
      </g>
      <g id="Grupo_986912" data-name="Grupo 986912" transform="translate(754.566 570.935)">
        <path id="Trazado_660166" data-name="Trazado 660166" d="M1771.246,1142.983H1598.082a.332.332,0,0,1-.332-.332v-97.245a.332.332,0,0,1,.332-.332h173.164a.332.332,0,0,1,.332.332v97.245A.332.332,0,0,1,1771.246,1142.983Zm-172.832-.665h172.5v-96.581h-172.5Z" transform="translate(-1597.75 -1045.073)" fill="#8b865c"/>
        <g id="Grupo_986908" data-name="Grupo 986908" transform="translate(79.943 10.576)">
          <rect id="Rectángulo_311119" data-name="Rectángulo 311119" width="12.764" height="70.068" transform="translate(70.068 0) rotate(90)" fill="#fff"/>
          <rect id="Rectángulo_311120" data-name="Rectángulo 311120" width="12.764" height="28.131" transform="translate(28.132 20.514) rotate(90)" fill="#fff"/>
          <rect id="Rectángulo_311121" data-name="Rectángulo 311121" width="12.764" height="56.263" transform="translate(56.263 41.028) rotate(90)" fill="#fff"/>
          <rect id="Rectángulo_311122" data-name="Rectángulo 311122" width="12.764" height="82.673" transform="translate(82.673 61.543) rotate(90)" fill="#fff"/>
        </g>
        <g id="Grupo_986911" data-name="Grupo 986911" transform="translate(16.642 14.05)">
          <g id="Grupo_986909" data-name="Grupo 986909">
            <path id="Trazado_660167" data-name="Trazado 660167" d="M1671.44,1130.307h-23.6l1.128-17.747,5.889-6.744-5.031-6.744.745-11.713h18.144l.744,11.713-5.031,6.744,5.889,6.744Z" transform="translate(-1647.836 -1087.359)" fill="#8b865c"/>
            <path id="Trazado_660168" data-name="Trazado 660168" d="M1651.231,1136.1h21.347l-.857-13.488h-19.633Z" transform="translate(-1650.103 -1110.899)" fill="#776e42"/>
          </g>
          <path id="Trazado_660169" data-name="Trazado 660169" d="M1734.345,1165.545v-15.228l-9.125,15.228v-15.228l-9.125,15.228v14.539h27.374v-29.767Z" transform="translate(-1693.416 -1129.399)" fill="#776e42"/>
          <rect id="Rectángulo_311123" data-name="Rectángulo 311123" width="50.054" height="24.498" transform="translate(0 42.667)" fill="#8b865c"/>
          <g id="Grupo_986910" data-name="Grupo 986910" transform="translate(3.251 47.03)">
            <rect id="Rectángulo_311124" data-name="Rectángulo 311124" width="11.354" height="5.745" transform="translate(31.231)" fill="#776e42"/>
            <rect id="Rectángulo_311125" data-name="Rectángulo 311125" width="11.354" height="5.745" transform="translate(31.231 10.026)" fill="#776e42"/>
            <rect id="Rectángulo_311126" data-name="Rectángulo 311126" width="11.354" height="5.745" transform="translate(15.615)" fill="#776e42"/>
            <rect id="Rectángulo_311127" data-name="Rectángulo 311127" width="11.354" height="5.745" transform="translate(15.615 10.026)" fill="#776e42"/>
            <rect id="Rectángulo_311128" data-name="Rectángulo 311128" width="11.354" height="5.745" fill="#776e42"/>
            <rect id="Rectángulo_311129" data-name="Rectángulo 311129" width="11.354" height="5.745" transform="translate(0 10.026)" fill="#776e42"/>
          </g>
        </g>
      </g>
      <g id="Grupo_986921" data-name="Grupo 986921" transform="translate(526.248 364.485)">
        <path id="Trazado_660170" data-name="Trazado 660170" d="M1041.475,493.461H910.911a.332.332,0,0,1-.332-.332V424.051a.332.332,0,0,1,.332-.332h130.564a.332.332,0,0,1,.332.332v69.077A.332.332,0,0,1,1041.475,493.461ZM911.243,492.8h129.9V424.383h-129.9Z" transform="translate(-910.579 -423.719)" fill="#8b865c"/>
        <g id="Grupo_986913" data-name="Grupo 986913" transform="translate(76.866 7.609)">
          <rect id="Rectángulo_311130" data-name="Rectángulo 311130" width="9.067" height="39.679" transform="translate(39.679) rotate(90)" fill="#fff"/>
          <rect id="Rectángulo_311131" data-name="Rectángulo 311131" width="9.067" height="15.93" transform="translate(15.93 14.572) rotate(90)" fill="#fff"/>
          <rect id="Rectángulo_311132" data-name="Rectángulo 311132" width="9.067" height="31.861" transform="translate(31.861 29.144) rotate(90)" fill="#fff"/>
          <rect id="Rectángulo_311133" data-name="Rectángulo 311133" width="9.067" height="46.817" transform="translate(46.817 43.716) rotate(90)" fill="#fff"/>
        </g>
        <g id="Grupo_986920" data-name="Grupo 986920" transform="translate(6.405 14.108)">
          <path id="Trazado_660171" data-name="Trazado 660171" d="M994.929,488.784v-4.017l-.763,2.547-25.144-5.656V476.54a11.176,11.176,0,0,0-5.352-9.591l-1.277-.769-1.277.769a11.177,11.177,0,0,0-5.352,9.591v5.118l-25.144,5.656-.763-2.547v4.017h26.085a52.834,52.834,0,0,0,2.335,11.777l-8.283,2.109v1.176h9.862l1.011,1.594h3.052l1.011-1.594h9.862v-1.176l-8.283-2.109a52.817,52.817,0,0,0,2.334-11.777Z" transform="translate(-929.856 -466.181)" fill="#8b865c"/>
          <path id="Trazado_660172" data-name="Trazado 660172" d="M965.773,516.937a2.028,2.028,0,1,1-2.027-2.082A2.055,2.055,0,0,1,965.773,516.937Z" transform="translate(-951.133 -498.683)" fill="#efbc73"/>
          <g id="Grupo_986915" data-name="Grupo 986915" transform="translate(16.188 21.134)">
            <rect id="Rectángulo_311134" data-name="Rectángulo 311134" width="0.657" height="3.574" transform="translate(1.576)" fill="#fff"/>
            <g id="Grupo_986914" data-name="Grupo 986914" transform="translate(0 2.091)">
              <rect id="Rectángulo_311135" data-name="Rectángulo 311135" width="1.313" height="3.102" fill="#363e44"/>
              <rect id="Rectángulo_311136" data-name="Rectángulo 311136" width="1.313" height="3.102" transform="translate(2.495)" fill="#363e44"/>
            </g>
          </g>
          <path id="Trazado_660173" data-name="Trazado 660173" d="M1081.641,516.937a2.028,2.028,0,1,0,2.027-2.082A2.055,2.055,0,0,0,1081.641,516.937Z" transform="translate(-1031.209 -498.683)" fill="#efbc73"/>
          <g id="Grupo_986917" data-name="Grupo 986917" transform="translate(45.077 21.134)">
            <rect id="Rectángulo_311137" data-name="Rectángulo 311137" width="0.657" height="3.574" transform="translate(2.232 3.574) rotate(180)" fill="#fff"/>
            <g id="Grupo_986916" data-name="Grupo 986916" transform="translate(0 2.091)">
              <rect id="Rectángulo_311138" data-name="Rectángulo 311138" width="1.313" height="3.102" transform="translate(3.808 3.102) rotate(180)" fill="#363e44"/>
              <rect id="Rectángulo_311139" data-name="Rectángulo 311139" width="1.313" height="3.102" transform="translate(1.313 3.102) rotate(180)" fill="#363e44"/>
            </g>
          </g>
          <g id="Grupo_986919" data-name="Grupo 986919" transform="translate(30.632 10.21)">
            <rect id="Rectángulo_311140" data-name="Rectángulo 311140" width="0.656" height="3.574" transform="translate(1.576)" fill="#fff"/>
            <g id="Grupo_986918" data-name="Grupo 986918" transform="translate(0 2.091)">
              <rect id="Rectángulo_311141" data-name="Rectángulo 311141" width="1.313" height="3.102" fill="#363e44"/>
              <rect id="Rectángulo_311142" data-name="Rectángulo 311142" width="1.313" height="3.102" transform="translate(2.495)" fill="#363e44"/>
            </g>
          </g>
        </g>
      </g>
      <g id="Grupo_986932" data-name="Grupo 986932" transform="translate(337.089 548.699)">
        <path id="Rectángulo_311143" data-name="Rectángulo 311143" d="M0,0H95.682a186.5,186.5,0,0,1,186.5,186.5v0a0,0,0,0,1,0,0H0a0,0,0,0,1,0,0V0A0,0,0,0,1,0,0Z" transform="translate(30.336 207.842)" fill="#efbc73"/>
        <g id="Grupo_986931" data-name="Grupo 986931" transform="translate(0)">
          <g id="Grupo_986922" data-name="Grupo 986922" transform="translate(96.788 289.532)">
            <path id="Trazado_660174" data-name="Trazado 660174" d="M805.278,1954.368l-27.431-104.807-139.1,5.517-6.176,99.29h80.07l1.377-26.186,19.4,26.186Z" transform="translate(-632.566 -1849.561)" fill="#363e44"/>
            <path id="Trazado_660175" data-name="Trazado 660175" d="M851.053,2045.658a.333.333,0,0,1-.279-.152l-12.926-20a.332.332,0,1,1,.558-.361l12.926,20a.333.333,0,0,1-.279.513Z" transform="translate(-769.606 -1966.705)" fill="#e6d0be"/>
          </g>
          <g id="Grupo_986923" data-name="Grupo 986923" transform="translate(131.663 35.714)">
            <path id="Trazado_660176" data-name="Trazado 660176" d="M921.064,1165.02a6.269,6.269,0,0,1-2.181-.413,11.548,11.548,0,0,1-6.026-6.112c-2.258-4.923-1.309-10.209,2.114-11.784a5.5,5.5,0,0,1,4.278-.039,11.551,11.551,0,0,1,6.026,6.112h0c2.258,4.923,1.31,10.21-2.114,11.784A4.976,4.976,0,0,1,921.064,1165.02Zm-3.994-18.094a4.32,4.32,0,0,0-1.821.39c-3.091,1.422-3.892,6.313-1.787,10.9a10.878,10.878,0,0,0,5.652,5.766,4.851,4.851,0,0,0,3.77-.019c3.091-1.422,3.892-6.313,1.787-10.9h0a10.879,10.879,0,0,0-5.653-5.766A5.619,5.619,0,0,0,917.069,1146.925Z" transform="translate(-853.785 -1126.118)" fill="#363e44"/>
            <path id="Trazado_660177" data-name="Trazado 660177" d="M814.216,1122.051c-6.157-13.459-10.931-20.76-19.4-23.866-11.379-4.174-22.546,3.139-23.7,3.921-.737.5-11.64,6.956-12.438,19.7-.788,12.582,5.105,25.142,15.667,31.789l2.42,27.745a16.172,16.172,0,0,0,17.51,14.719l2.014-.176a16.183,16.183,0,0,0,14.7-17.536l-1.616-18.534c5.6-.966,9.922-2.994,11.461-6.013C823.591,1148.389,821.467,1137.9,814.216,1122.051Z" transform="translate(-751.607 -1093.162)" fill="#9e6c5a"/>
            <path id="Trazado_660178" data-name="Trazado 660178" d="M873.99,1176.014a.332.332,0,0,1-.1-.65l25.59-7.911a.332.332,0,0,1,.2.635l-25.59,7.91A.338.338,0,0,1,873.99,1176.014Z" transform="translate(-828.429 -1140.26)" fill="#363e44"/>
            <path id="Trazado_660179" data-name="Trazado 660179" d="M909.821,1270.9a.332.332,0,0,1-.33-.295l-.772-6.769a.332.332,0,1,1,.66-.075l.772,6.77a.332.332,0,0,1-.292.367Z" transform="translate(-851.84 -1204.379)" fill="#363e44"/>
            <path id="Trazado_660180" data-name="Trazado 660180" d="M863.639,1214.686a.331.331,0,0,1-.225-.088c-1.676-1.54-2.717-2.54-3.477-3.271-.372-.357-.677-.651-.96-.913a.332.332,0,0,1,.453-.486c.284.265.592.561.966.92.758.728,1.8,1.725,3.467,3.26a.332.332,0,0,1-.225.577Z" transform="translate(-818.556 -1168.573)" fill="#363e44"/>
            <path id="Trazado_660181" data-name="Trazado 660181" d="M784.3,1089.236c-10.2-8.447-33.569-1.023-41.726,12-11.031,17.611-2.665,42.1,12.4,49.375,5.055,2.44,13.385,5.243,21.554.535,4.77-2.749,3.147-9.994,2.723-11.734a9.59,9.59,0,0,1-8.731-8.675,9.437,9.437,0,0,1,6.769-9.668,9.036,9.036,0,0,1,5.85.577C789.83,1107.892,791.569,1095.255,784.3,1089.236Z" transform="translate(-737.531 -1085.64)" fill="#363e44"/>
          </g>
          <g id="Grupo_986930" data-name="Grupo 986930">
            <g id="Grupo_986925" data-name="Grupo 986925">
              <path id="Trazado_660182" data-name="Trazado 660182" d="M442.652,1384.165c-26.292-9.994-103.932-34.184-93.432-66.717,8.685-26.91,83.26-.01,110.01,8.219Z" transform="translate(-345.928 -1196.916)" fill="#9e6c5a"/>
              <path id="Trazado_660183" data-name="Trazado 660183" d="M381.642,1126.3s0,0,0,0c23.57-45.383,41.161-77.129,46.207-87.144a20.664,20.664,0,0,0,2-5.538c1.956-9.791-4.894-14.817-7.528-26.052-2.988-12.748,2.536-21.621-.442-23.134-2.072-1.053-5.1,1.707-8.717,9.127h0c2.1-5.954,4.6-14.154,1.316-15.309-3.869-1.13-7.937,8.159-10.124,13.9,2.647-6.947,1.979-11.434-.015-11.62-3.139-.293-6.444,4.615-9.587,13.933h0c.375-7.041-.581-8.8-2.384-8.539-3.292.485-5.731,8.194-6.845,15.34a41.8,41.8,0,0,0,1.8,18.9v0c-19.8,30.072-24.988,37.121-40.448,61.757C329.314,1109.909,356.307,1138.269,381.642,1126.3Z" transform="translate(-341.263 -978.151)" fill="#9e6c5a"/>
              <path id="Trazado_660184" data-name="Trazado 660184" d="M585.276,1073.681c6.692-11.089,11.452-13.669,13.173-12.551,2.894,1.88,1.051,13.69-6.69,31.131C589.489,1087.246,587.546,1078.695,585.276,1073.681Z" transform="translate(-504.201 -1033.4)" fill="#9e6c5a"/>
              <g id="Grupo_986924" data-name="Grupo 986924" transform="translate(52.303 13.08)">
                <path id="Trazado_660185" data-name="Trazado 660185" d="M555.485,1036.583a.332.332,0,0,1-.326-.269,25.941,25.941,0,0,1,.417-11.631.332.332,0,0,1,.642.171,25.281,25.281,0,0,0-.406,11.335.332.332,0,0,1-.263.389A.378.378,0,0,1,555.485,1036.583Z" transform="translate(-536.08 -1022.137)" fill="#363e44"/>
                <path id="Trazado_660186" data-name="Trazado 660186" d="M530.1,1029.664a.333.333,0,0,1-.326-.27,25.96,25.96,0,0,1,.417-11.631.332.332,0,0,1,.642.171,25.3,25.3,0,0,0-.406,11.335.333.333,0,0,1-.264.389A.372.372,0,0,1,530.1,1029.664Z" transform="translate(-519.131 -1017.517)" fill="#363e44"/>
                <path id="Trazado_660187" data-name="Trazado 660187" d="M499.474,1038.958a.333.333,0,0,1-.326-.269,25.955,25.955,0,0,1,.417-11.631.332.332,0,0,1,.642.171,25.288,25.288,0,0,0-.406,11.334.333.333,0,0,1-.263.389A.378.378,0,0,1,499.474,1038.958Z" transform="translate(-498.68 -1023.723)" fill="#363e44"/>
              </g>
            </g>
            <g id="Grupo_986928" data-name="Grupo 986928" transform="translate(274.834 63.224)">
              <g id="Grupo_986926" data-name="Grupo 986926" transform="translate(0 81.091)">
                <path id="Trazado_660188" data-name="Trazado 660188" d="M1168.436,1412.5c57.591,12.266,102.818,24.695,97.879,43.2-10.455,39.172-53.9,19.038-92.519,18.694C1172.342,1458.508,1169.783,1431.756,1168.436,1412.5Z" transform="translate(-1168.436 -1412.498)" fill="#9e6c5a"/>
              </g>
              <path id="Trazado_660189" data-name="Trazado 660189" d="M1253.012,1286.171s-14.542-39.172-20.787-60.482c-6.559-22.379-12.989-56.377-8.229-57.216,2.712-.478,4.546,3.977,8.658,16.211a5.681,5.681,0,0,1,4.64-3.018,5.455,5.455,0,0,1,5.139,3.241c.116-.292,1.456-3.4,4.014-3.864a6,6,0,0,1,6.316,2.728c.311-.714,1.725-3.234,4.2-3.608,2.542-.385,5.476,1.062,6.193,3.651,1.316,4.75,4.958,18.942,7.571,25.632,5.141,13.165,29.666,57.464,32.075,78.458C1284.987,1283.859,1253.012,1286.171,1253.012,1286.171Z" transform="translate(-1204.436 -1168.438)" fill="#9e6c5a"/>
              <g id="Grupo_986927" data-name="Grupo 986927" transform="translate(24.236 20.947)">
                <path id="Trazado_660190" data-name="Trazado 660190" d="M1328.709,1232.748a.332.332,0,0,1-.047-.661l4.117-.6a.332.332,0,1,1,.1.658l-4.117.6A.294.294,0,0,1,1328.709,1232.748Z" transform="translate(-1299.471 -1231.483)" fill="#363e44"/>
                <path id="Trazado_660191" data-name="Trazado 660191" d="M1297.224,1237.578a.332.332,0,0,1-.037-.662l4.674-.53a.332.332,0,0,1,.074.66l-4.674.53A.28.28,0,0,1,1297.224,1237.578Z" transform="translate(-1278.447 -1234.755)" fill="#363e44"/>
                <path id="Trazado_660192" data-name="Trazado 660192" d="M1266.653,1240.655a.332.332,0,0,1-.048-.661c.774-.114,1.472-.21,2.171-.307s1.379-.191,2.141-.3a.332.332,0,1,1,.1.657c-.764.112-1.455.208-2.146.3s-1.394.193-2.165.306A.318.318,0,0,1,1266.653,1240.655Z" transform="translate(-1258.034 -1236.756)" fill="#363e44"/>
                <path id="Trazado_660193" data-name="Trazado 660193" d="M1241.71,1245.914a.332.332,0,0,1-.072-.657l4.033-.9a.332.332,0,0,1,.144.649l-4.033.9A.341.341,0,0,1,1241.71,1245.914Z" transform="translate(-1241.378 -1240.078)" fill="#363e44"/>
              </g>
            </g>
            <g id="Grupo_986929" data-name="Grupo 986929" transform="translate(59.898 115.054)">
              <path id="Trazado_660194" data-name="Trazado 660194" d="M559.463,1412.7l-37.925-13.958,15.192-73.63s118.453-7.706,211.824,28.681l-1.944,71.512-30.7,2.568,20.632,91.856c-74.957,9.576-135.82,8.466-186.981,0Z" transform="translate(-521.538 -1324.431)" fill="#8b865c"/>
              <path id="Trazado_660195" data-name="Trazado 660195" d="M643.3,1530.747a.352.352,0,0,1-.052,0,.333.333,0,0,1-.277-.38l3.766-24.2a.332.332,0,0,1,.657.1l-3.766,24.2A.333.333,0,0,1,643.3,1530.747Z" transform="translate(-602.624 -1445.592)" fill="#363e44"/>
            </g>
          </g>
        </g>
      </g>
    </g>
    <g id="Grupo_986937" data-name="Grupo 986937" transform="translate(3350 11123.527)">
      <circle id="Elipse_7758" data-name="Elipse 7758" cx="64.644" cy="64.644" r="64.644" transform="translate(-2661.948 -7250.722)" fill="#fae8c2"/>
      <g id="Grupo_986934" data-name="Grupo 986934" transform="translate(-2665 -7253.773)">
        <path id="Trazado_659337" data-name="Trazado 659337" d="M172.436,3669.9a67.7,67.7,0,1,1,67.695-67.7A67.772,67.772,0,0,1,172.436,3669.9Zm0-129.288a61.592,61.592,0,1,0,61.591,61.593A61.662,61.662,0,0,0,172.436,3540.608Z" transform="translate(-104.74 -3534.504)" fill="#f0bd51"/>
      </g>
    </g>
    <g id="Grupo_986940" data-name="Grupo 986940" transform="translate(3739.609 11236.717)">
      <circle id="Elipse_7758-2" data-name="Elipse 7758" cx="64.644" cy="64.644" r="64.644" transform="translate(-2661.948 -7250.722)" fill="#fae8c2"/>
      <g id="Grupo_986934-2" data-name="Grupo 986934" transform="translate(-2665 -7253.773)">
        <path id="Trazado_659337-2" data-name="Trazado 659337" d="M172.436,3669.9a67.7,67.7,0,1,1,67.695-67.7A67.772,67.772,0,0,1,172.436,3669.9Zm0-129.288a61.592,61.592,0,1,0,61.591,61.593A61.662,61.662,0,0,0,172.436,3540.608Z" transform="translate(-104.74 -3534.504)" fill="#f0bd51"/>
      </g>
    </g>
    <g id="Grupo_986941" data-name="Grupo 986941" transform="translate(3739.609 11504.695)">
      <circle id="Elipse_7758-3" data-name="Elipse 7758" cx="64.644" cy="64.644" r="64.644" transform="translate(-2661.948 -7250.722)" fill="#fae8c2"/>
      <g id="Grupo_986934-3" data-name="Grupo 986934" transform="translate(-2665 -7253.773)">
        <path id="Trazado_659337-3" data-name="Trazado 659337" d="M172.436,3669.9a67.7,67.7,0,1,1,67.695-67.7A67.772,67.772,0,0,1,172.436,3669.9Zm0-129.288a61.592,61.592,0,1,0,61.591,61.593A61.662,61.662,0,0,0,172.436,3540.608Z" transform="translate(-104.74 -3534.504)" fill="#f0bd51"/>
      </g>
    </g>
    <g id="Grupo_986938" data-name="Grupo 986938" transform="translate(3055 11247.695)">
      <circle id="Elipse_7758-4" data-name="Elipse 7758" cx="64.644" cy="64.644" r="64.644" transform="translate(-2661.948 -7250.722)" fill="#fae8c2"/>
      <g id="Grupo_986934-4" data-name="Grupo 986934" transform="translate(-2665 -7253.773)">
        <path id="Trazado_659337-4" data-name="Trazado 659337" d="M172.436,3669.9a67.7,67.7,0,1,1,67.695-67.7A67.772,67.772,0,0,1,172.436,3669.9Zm0-129.288a61.592,61.592,0,1,0,61.591,61.593A61.662,61.662,0,0,0,172.436,3540.608Z" transform="translate(-104.74 -3534.504)" fill="#f0bd51"/>
      </g>
    </g>
    <g id="Grupo_986939" data-name="Grupo 986939" transform="translate(3055 11504.695)">
      <circle id="Elipse_7758-5" data-name="Elipse 7758" cx="64.644" cy="64.644" r="64.644" transform="translate(-2661.948 -7250.722)" fill="#fae8c2"/>
      <g id="Grupo_986934-5" data-name="Grupo 986934" transform="translate(-2665 -7253.773)">
        <path id="Trazado_659337-5" data-name="Trazado 659337" d="M172.436,3669.9a67.7,67.7,0,1,1,67.695-67.7A67.772,67.772,0,0,1,172.436,3669.9Zm0-129.288a61.592,61.592,0,1,0,61.591,61.593A61.662,61.662,0,0,0,172.436,3540.608Z" transform="translate(-104.74 -3534.504)" fill="#f0bd51"/>
      </g>
    </g>
    <g id="objetivo_1_" data-name="objetivo(1)" transform="translate(429.566 4281.237)">
      <path id="Trazado_658882" data-name="Trazado 658882" d="M133.14,242.693l7.414-7.337c2.769-2.769,8.1.724,5.218,4.11l-8.978,10.563a6.3,6.3,0,0,1-1.2,1.09,8.956,8.956,0,0,1-4.869,1.233H117.4a24.99,24.99,0,0,0-2.884.167l-3.832.43-7.948-7.713s4.509-8.514,13.353-6.067a19.045,19.045,0,0,0,5.082.676h8.756c4.122,0,4.155,6.55-.034,6.55h-7.623" transform="translate(-91.449 -208.159)" fill="#ffcdac"/>
      <path id="Trazado_658883" data-name="Trazado 658883" d="M22.979,331.15l7.561-7.757a.006.006,0,0,0,0-.008L17.71,310.934a.006.006,0,0,0-.008,0l-7.632,7.924Zm0,0" transform="translate(-8.963 -276.324)" fill="#6bd5e1"/>
      <path id="Trazado_658884" data-name="Trazado 658884" d="M58.037,100.317a4.723,4.723,0,0,0-4.272,4.7v5.028a1.573,1.573,0,0,0,1.573,1.573H66.121a1.573,1.573,0,0,0,1.573-1.573v-5.028a4.723,4.723,0,0,0-4.277-4.7" transform="translate(-47.857 -88.849)" fill="#ffb677"/>
      <path id="Trazado_658885" data-name="Trazado 658885" d="M79.678,16.109A5.277,5.277,0,1,1,74.4,10.832a5.276,5.276,0,0,1,5.277,5.277Zm0,0" transform="translate(-61.529 -9.197)" fill="#ffcdac"/>
      <path id="Trazado_658886" data-name="Trazado 658886" d="M184.8,100.317a4.724,4.724,0,0,0-4.272,4.7v5.028a1.573,1.573,0,0,0,1.573,1.573h10.783a1.573,1.573,0,0,0,1.573-1.573v-5.028a4.723,4.723,0,0,0-4.277-4.7" transform="translate(-160.694 -88.849)" fill="#ff8364"/>
      <path id="Trazado_658887" data-name="Trazado 658887" d="M206.444,16.109a5.277,5.277,0,1,1-5.277-5.277,5.276,5.276,0,0,1,5.277,5.277Zm0,0" transform="translate(-174.366 -9.197)" fill="#ffcdac"/>
      <path id="Trazado_658888" data-name="Trazado 658888" d="M311.573,100.317a4.723,4.723,0,0,0-4.272,4.7v5.028a1.573,1.573,0,0,0,1.573,1.573h10.783a1.573,1.573,0,0,0,1.573-1.573v-5.028a4.723,4.723,0,0,0-4.278-4.7" transform="translate(-273.536 -88.849)" fill="#ffd98e"/>
      <path id="Trazado_658889" data-name="Trazado 658889" d="M333.214,16.109a5.277,5.277,0,1,1-5.277-5.277,5.277,5.277,0,0,1,5.277,5.277Zm0,0" transform="translate(-287.207 -9.197)" fill="#ffcdac"/>
      <path id="Trazado_658890" data-name="Trazado 658890" d="M54.927,225.346a5.1,5.1,0,0,0-3.143-1.317,4.5,4.5,0,0,0-3.457,1.316l-6.255,6.189a4.151,4.151,0,0,0-.423-.6,4.055,4.055,0,0,0-3.168-1.417H29.725a17.96,17.96,0,0,1-4.787-.636A11.779,11.779,0,0,0,13.949,231.2a15.983,15.983,0,0,0-2.861,3.071l-1.57-1.524a1.116,1.116,0,0,0-.774-.314H8.736a1.118,1.118,0,0,0-.794.341L.31,240.7a1.107,1.107,0,0,0,.034,1.569l12.909,12.292a1.106,1.106,0,0,0,1.556-.029l7.561-7.757a1.113,1.113,0,0,0-.022-1.575l-.658-.639,1.507-.17a23.952,23.952,0,0,1,2.756-.16H39.276a10,10,0,0,0,5.465-1.407l.036-.024a7.376,7.376,0,0,0,1.412-1.282l8.978-10.562a3.865,3.865,0,0,0-.239-5.612ZM13.988,252.2,2.677,241.434l6.093-6.326,11.245,10.912Zm39.493-22.68L44.5,240.087a5.173,5.173,0,0,1-.972.885,7.87,7.87,0,0,1-4.255,1.048H25.953a26.135,26.135,0,0,0-3.007.174l-3.313.372L12.7,235.835a13.8,13.8,0,0,1,2.652-2.918,9.526,9.526,0,0,1,9-1.907,20.171,20.171,0,0,0,5.377.716h8.756a2,2,0,0,1,1.992,2.167,2.4,2.4,0,0,1-.518,1.536,1.88,1.88,0,0,1-1.509.633H30.824a1.107,1.107,0,0,0,0,2.213h7.623a4.1,4.1,0,0,0,3.2-1.414,4.545,4.545,0,0,0,1.043-2.82l7.2-7.129a2.591,2.591,0,0,1,3.538.059,1.667,1.667,0,0,1,.054,2.551Zm0,0" transform="translate(0 -198.963)"/>
      <path id="Trazado_658891" data-name="Trazado 658891" d="M231.422,334.075a1.107,1.107,0,1,0-2.155.505l.01.045a1.107,1.107,0,1,0,2.155-.505Zm0,0" transform="translate(-204.05 -296.164)"/>
      <path id="Trazado_658892" data-name="Trazado 658892" d="M46.37,23.848H57.154a2.663,2.663,0,0,0,1.573-.512,2.663,2.663,0,0,0,1.573.512H71.082a2.663,2.663,0,0,0,1.573-.512,2.663,2.663,0,0,0,1.573.512H85.011a2.682,2.682,0,0,0,2.679-2.679V16.14a5.8,5.8,0,0,0-3.156-5.188,6.383,6.383,0,1,0-9.829,0,5.8,5.8,0,0,0-2.049,1.757,5.786,5.786,0,0,0-2.05-1.757,6.383,6.383,0,1,0-9.829,0,5.786,5.786,0,0,0-2.05,1.757,5.791,5.791,0,0,0-2.05-1.758,6.383,6.383,0,1,0-9.829,0,5.8,5.8,0,0,0-3.156,5.188v5.028a2.683,2.683,0,0,0,2.679,2.679ZM79.619,2.713a4.17,4.17,0,1,1-4.17,4.17A4.175,4.175,0,0,1,79.619,2.713ZM76.744,12.58a6.361,6.361,0,0,0,5.75,0,3.6,3.6,0,0,1,2.983,3.56v5.028a.467.467,0,0,1-.466.466H74.227a.466.466,0,0,1-.466-.466V16.14A3.6,3.6,0,0,1,76.744,12.58ZM65.691,2.713a4.17,4.17,0,1,1-4.17,4.17A4.175,4.175,0,0,1,65.691,2.713ZM62.816,12.58a6.361,6.361,0,0,0,5.75,0,3.6,3.6,0,0,1,2.983,3.56v5.028a.467.467,0,0,1-.466.466H60.3a.467.467,0,0,1-.466-.466V16.14a3.6,3.6,0,0,1,2.983-3.56ZM51.762,2.713a4.17,4.17,0,1,1-4.17,4.17A4.175,4.175,0,0,1,51.762,2.713ZM45.9,16.14a3.6,3.6,0,0,1,2.983-3.56,6.361,6.361,0,0,0,5.75,0,3.6,3.6,0,0,1,2.983,3.56v5.028a.467.467,0,0,1-.466.466H46.37a.467.467,0,0,1-.466-.466Zm0,0" transform="translate(-38.889)"/>
    </g>
    <g id="barco-de-carga" transform="translate(419.581 3936.979)">
      <path id="Trazado_660196" data-name="Trazado 660196" d="M234.935,167.194h-9.746v-9.943a.342.342,0,0,0-.342-.342h-20.4a.342.342,0,0,0-.342.342v20.227h31.62v-9.491A.794.794,0,0,0,234.935,167.194Z" transform="translate(-172.232 -58.512)" fill="#ffc06c"/>
      <rect id="Rectángulo_311145" data-name="Rectángulo 311145" width="20.581" height="11.507" transform="translate(5.321 108.285)" fill="#e1effb"/>
      <rect id="Rectángulo_311146" data-name="Rectángulo 311146" width="8.788" height="11.507" transform="translate(17.114 108.285)" fill="#bad5e5"/>
      <path id="Trazado_660197" data-name="Trazado 660197" d="M72.19,264.561h0a2.028,2.028,0,0,1-2.028,2.028H8.371a.856.856,0,0,0-.839,1.032,23.508,23.508,0,0,0,5.695,10.836,2.486,2.486,0,0,1,.387,2.729L11.7,285.194a1.014,1.014,0,0,0,.915,1.45H73.739a1.008,1.008,0,0,0,.912-.579l10.38-22.1a1.008,1.008,0,0,0-.912-1.437h-9.9A2.028,2.028,0,0,0,72.19,264.561Z" transform="translate(-6.339 -147.64)" fill="#ff4c4c"/>
      <path id="Trazado_660198" data-name="Trazado 660198" d="M393.719,262.533h-7.978l-11.327,24.112h8.925a1.008,1.008,0,0,0,.912-.579l10.38-22.1A1.008,1.008,0,0,0,393.719,262.533Z" transform="translate(-315.939 -147.64)" fill="#ef2929"/>
      <g id="Grupo_986947" data-name="Grupo 986947" transform="translate(31.877 98.397)">
        <path id="Trazado_660199" data-name="Trazado 660199" d="M349.623,233.045h-10.54V222.76h9.746a.794.794,0,0,1,.794.794Z" transform="translate(-318.003 -212.476)" fill="#eda558"/>
        <rect id="Rectángulo_311147" data-name="Rectángulo 311147" width="10.54" height="10.285" transform="translate(0 10.284)" fill="#eda558"/>
        <path id="Trazado_660200" data-name="Trazado 660200" d="M282.135,167.193H271.6V156.908h10.2a.342.342,0,0,1,.342.342v9.943Z" transform="translate(-261.055 -156.908)" fill="#eda558"/>
      </g>
      <path id="Trazado_660201" data-name="Trazado 660201" d="M70.031,151.147h-13.6v-11a.578.578,0,0,1,.578-.578H69.452a.578.578,0,0,1,.578.578v11Z" transform="translate(-47.621 -43.88)" fill="#e1effb"/>
      <path id="Trazado_660202" data-name="Trazado 660202" d="M95.425,139.569h-8.21v11.578H96v-11A.579.579,0,0,0,95.425,139.569Z" transform="translate(-73.594 -43.88)" fill="#bad5e5"/>
      <path id="Trazado_660203" data-name="Trazado 660203" d="M47.485,209.616H24.566a.374.374,0,0,1-.374-.373v-2.866a.374.374,0,0,1,.374-.374h22.92a.373.373,0,0,1,.373.374v2.866A.373.373,0,0,1,47.485,209.616Z" transform="translate(-20.413 -99.938)" fill="#cccbca"/>
      <path id="Trazado_660204" data-name="Trazado 660204" d="M127.872,206h-8.415v3.613h8.415a.374.374,0,0,0,.374-.373v-2.866A.374.374,0,0,0,127.872,206Z" transform="translate(-100.8 -99.938)" fill="#b9bbc1"/>
      <path id="Trazado_660205" data-name="Trazado 660205" d="M35.884,372.059a2.491,2.491,0,0,1-.2,1.547l-1.915,4.009a1.014,1.014,0,0,0,.915,1.45H95.812a1.008,1.008,0,0,0,.912-.579l3.019-6.427Z" transform="translate(-28.412 -240.06)" fill="#33d8dd"/>
      <path id="Trazado_660206" data-name="Trazado 660206" d="M377.705,372.059l-3.291,7.006h8.925a1.008,1.008,0,0,0,.912-.579l3.019-6.427Z" transform="translate(-315.939 -240.06)" fill="#0fb0c0"/>
      <path id="Trazado_660207" data-name="Trazado 660207" d="M79.621,114.732a2.171,2.171,0,0,0-1.841-1.012h-9.9a3.2,3.2,0,0,0-3.2,3.2.865.865,0,0,1-.007.1v-7.549a1.969,1.969,0,0,0-1.967-1.967H54.13V98.739a1.517,1.517,0,0,0-1.515-1.515h-20.4A1.517,1.517,0,0,0,30.7,98.739v19.037H27.076v-6.925a1.548,1.548,0,0,0,1.543-1.546v-2.866a1.549,1.549,0,0,0-1.547-1.547H23.583V96.267a1.754,1.754,0,0,0-1.752-1.752H16.8V88.754a1.186,1.186,0,1,0-2.371,0v5.762H9.393a1.753,1.753,0,0,0-1.752,1.752v8.624H4.152a1.549,1.549,0,0,0-1.547,1.547V109.3a1.548,1.548,0,0,0,1.543,1.546v6.925H2.031a2.029,2.029,0,0,0-1.987,2.447A24.978,24.978,0,0,0,6.013,131.6a1.3,1.3,0,0,1,.307.629,1.321,1.321,0,0,1,.021.187c0,.007,0,.014,0,.021a1.32,1.32,0,0,1-.008.176c0,.011,0,.022,0,.033a1.3,1.3,0,0,1-.033.16c0,.014-.005.028-.01.042a1.316,1.316,0,0,1-.074.192L4.3,137.049a2.187,2.187,0,0,0,1.973,3.129H67.4a2.189,2.189,0,0,0,1.974-1.254l10.38-22.1A2.17,2.17,0,0,0,79.621,114.732ZM54.13,109.855h8.194v7.921H54.13ZM43.59,99.57h8.194v7.938H43.59Zm0,10.285h8.194v7.921H43.59ZM33.05,99.57h8.194v7.938H33.05Zm0,10.285h8.194v7.921H33.05ZM9.987,96.863h11.25v8.029H9.987ZM4.952,107.238h21.32V108.5H13a1.173,1.173,0,1,0,0,2.346H24.729v6.925H6.495v-6.925h.992a1.173,1.173,0,0,0,0-2.346H4.952ZM63.5,120.14c.066,0,.262-.007.325-.017h0a3.2,3.2,0,0,0,3.2-3.2.856.856,0,0,1,.855-.855H77.52l-6.933,14.759H58.956a1.173,1.173,0,0,0,0,2.346H69.484l-2.189,4.66H6.527l1.806-3.78c.037-.078.071-.157.1-.237.01-.025.018-.05.028-.075.02-.055.04-.11.057-.166.01-.031.019-.062.028-.093q.021-.074.04-.148c.009-.036.017-.072.025-.109,0-.017.008-.035.012-.052H53.439a1.173,1.173,0,0,0,0-2.346H8.3a3.653,3.653,0,0,0-.538-.791,22.447,22.447,0,0,1-5.336-9.912l61.072.017" transform="translate(0)"/>
    </g>
    <g id="flujo-de-trabajo" transform="translate(721.386 3887.657)">
      <g id="Grupo_986948" data-name="Grupo 986948" transform="translate(11.437 11.436)">
        <path id="Trazado_660208" data-name="Trazado 660208" d="M117.329,96.794a16.96,16.96,0,0,1,4.966,2.059l3.227-1.433,3.8,3.8-1.433,3.226a16.965,16.965,0,0,1,2.059,4.967l3.292,1.267v5.379l-3.293,1.268a16.96,16.96,0,0,1-2.059,4.966l1.433,3.227-3.8,3.8-3.226-1.433a16.958,16.958,0,0,1-4.967,2.059l-1.267,3.292h-5.379l-1.268-3.293a16.96,16.96,0,0,1-4.966-2.059l-3.227,1.433-3.8-3.8,1.433-3.226a16.963,16.963,0,0,1-2.059-4.967L93.5,116.062v-5.378l3.293-1.267a16.96,16.96,0,0,1,2.059-4.966l-1.433-3.227,3.8-3.8,3.227,1.433a16.965,16.965,0,0,1,4.966-2.059l1.268-3.293h5.379Zm-3.957,6.378a10.2,10.2,0,1,0,10.2,10.2A10.2,10.2,0,0,0,113.372,103.173Z" transform="translate(-93.5 -93.501)" fill="#449c6e" fill-rule="evenodd"/>
        <path id="Trazado_660209" data-name="Trazado 660209" d="M259.958,96.794a16.959,16.959,0,0,1,4.966,2.059l3.227-1.433,3.8,3.8-1.433,3.226a16.965,16.965,0,0,1,2.059,4.967l3.292,1.267v5.379l-3.293,1.268a16.959,16.959,0,0,1-2.059,4.966l1.433,3.227-3.8,3.8-3.226-1.433a16.958,16.958,0,0,1-4.967,2.059l-1.267,3.292H256v-9.672a10.2,10.2,0,0,0,0-20.4V93.5h2.689Z" transform="translate(-236.129 -93.501)" fill="#367c58" fill-rule="evenodd"/>
      </g>
      <path id="Trazado_660210" data-name="Trazado 660210" d="M40.631,44.934l2.613,1.159,2.85-2.853-1.159-2.613a.963.963,0,0,1,.063-.91,15.911,15.911,0,0,0,1.938-4.68.982.982,0,0,1,.6-.686L50.2,33.325V29.29l-2.665-1.026a.982.982,0,0,1-.6-.686A15.9,15.9,0,0,0,45,22.9a.98.98,0,0,1-.063-.91l1.159-2.612-2.85-2.853-2.613,1.161a.981.981,0,0,1-.911-.061,16.019,16.019,0,0,0-4.678-1.94.972.972,0,0,1-.686-.6l-1.027-2.666H29.29L28.264,15.08a.971.971,0,0,1-.686.6,16.022,16.022,0,0,0-4.678,1.94.982.982,0,0,1-.911.061L19.375,16.52l-2.85,2.854,1.159,2.612a.982.982,0,0,1-.063.911,15.892,15.892,0,0,0-1.938,4.68.982.982,0,0,1-.6.686L12.418,29.29v4.035l2.665,1.026a.982.982,0,0,1,.6.686,15.913,15.913,0,0,0,1.938,4.682.978.978,0,0,1,.063.91L16.525,43.24l2.85,2.853,2.613-1.161a.982.982,0,0,1,.911.061,16.006,16.006,0,0,0,4.678,1.94.973.973,0,0,1,.686.6L29.29,50.2h4.038l1.027-2.666a.971.971,0,0,1,.686-.6,16.006,16.006,0,0,0,4.678-1.94A.98.98,0,0,1,40.631,44.934ZM40.3,46.927A17.9,17.9,0,0,1,36,48.712l-1.09,2.818a.976.976,0,0,1-.911.628H28.621a.99.99,0,0,1-.917-.628L26.62,48.71a17.846,17.846,0,0,1-4.3-1.783l-2.763,1.228a.979.979,0,0,1-1.09-.2l-3.8-3.8a.98.98,0,0,1-.208-1.088L15.688,40.3a17.9,17.9,0,0,1-1.782-4.3L11.085,34.91A.985.985,0,0,1,10.456,34V28.618a.985.985,0,0,1,.629-.914l2.821-1.084a17.947,17.947,0,0,1,1.782-4.3L14.46,19.555a.98.98,0,0,1,.208-1.088l3.8-3.8a.979.979,0,0,1,1.09-.2l2.763,1.228a17.8,17.8,0,0,1,4.3-1.783l1.084-2.82a.989.989,0,0,1,.917-.627H34a.976.976,0,0,1,.911.627L36,13.905a17.8,17.8,0,0,1,4.3,1.783l2.763-1.228a.981.981,0,0,1,1.09.2l3.8,3.8a.98.98,0,0,1,.208,1.088L46.93,22.318a17.9,17.9,0,0,1,1.782,4.3L51.533,27.7a.979.979,0,0,1,.623.914V34a.98.98,0,0,1-.623.914l-2.821,1.084a17.91,17.91,0,0,1-1.782,4.3l1.229,2.765a.98.98,0,0,1-.208,1.088l-3.8,3.8a.981.981,0,0,1-1.09.2Zm.237-15.62a9.224,9.224,0,1,1-9.224-9.221A9.236,9.236,0,0,1,40.533,31.307Zm1.955,0A11.179,11.179,0,1,1,31.309,20.129,11.194,11.194,0,0,1,42.488,31.307Zm19.145-.978a.979.979,0,0,1,.981.978A31.322,31.322,0,0,1,44.075,59.9l2.14.37a.978.978,0,0,1-.162,1.943.919.919,0,0,1-.167-.014l-5.676-.981a.985.985,0,0,1-.663-1.482L42.3,55.318a.979.979,0,0,1,1.661,1.036l-1.246,2a29.5,29.5,0,0,0,17.94-27.048.978.978,0,0,1,.975-.978ZM31.309,1.959a.978.978,0,1,1,0-1.957A31.329,31.329,0,0,1,59.9,18.544l.369-2.144a.978.978,0,1,1,1.927.334L61.218,22.4a.98.98,0,0,1-.963.811,1,1,0,0,1-.519-.148L55.323,20.31a.977.977,0,1,1,1.032-1.66l2,1.248A29.439,29.439,0,0,0,31.309,1.959Zm0,58.7a.978.978,0,1,1,0,1.957A31.358,31.358,0,0,1,2.715,44.07l-.369,2.145a.978.978,0,0,1-.963.812.965.965,0,0,1-.167-.014.979.979,0,0,1-.8-1.131L1.4,40.21a.963.963,0,0,1,.565-.725.976.976,0,0,1,.917.062L7.3,42.3a.977.977,0,1,1-1.032,1.66l-2-1.249A29.4,29.4,0,0,0,31.309,60.656ZM.985,32.286A.979.979,0,0,1,0,31.307,31.307,31.307,0,0,1,18.544,2.714l-2.14-.37A.978.978,0,1,1,16.732.415l5.676.981a.978.978,0,0,1,.721.565.993.993,0,0,1-.058.917L20.314,7.3a.978.978,0,0,1-1.35.312.973.973,0,0,1-.311-1.347l1.246-2A29.436,29.436,0,0,0,1.96,31.307a.978.978,0,0,1-.975.979Z" fill-rule="evenodd"/>
    </g>
    <g id="produccion-en-masa" transform="translate(1101.94 3989.985)">
      <g id="Grupo_986949" data-name="Grupo 986949" transform="translate(14.084 20.375)">
        <path id="Trazado_660211" data-name="Trazado 660211" d="M90.979,49.423V63.045H42.7V49.423h8.048V35.8h8.046V22.18H74.885V35.8h8.046V49.423Z" transform="translate(-42.7 -22.18)" fill="#efbf27"/>
      </g>
      <g id="Grupo_986960" data-name="Grupo 986960" transform="translate(3.756 61.239)">
        <g id="Grupo_986950" data-name="Grupo 986950" transform="translate(0 0)">
          <path id="Trazado_660212" data-name="Trazado 660212" d="M65.48,187.153h-50.9a9.019,9.019,0,0,1,0-18.037h50.9a9.019,9.019,0,0,1,0,18.037Z" transform="translate(-5.564 -169.116)" fill="#aeaeae"/>
        </g>
        <g id="Grupo_986951" data-name="Grupo 986951" transform="translate(4.187 4.187)">
          <path id="Trazado_660213" data-name="Trazado 660213" d="M25.451,193.835a4.832,4.832,0,1,1,0-9.664h50.9a4.832,4.832,0,1,1,0,9.664Z" transform="translate(-20.619 -184.171)" fill="#4a4842"/>
        </g>
        <g id="Grupo_986952" data-name="Grupo 986952" transform="translate(55.084 4.187)">
          <circle id="Elipse_7759" data-name="Elipse 7759" cx="4.832" cy="4.832" r="4.832" fill="#efefef"/>
        </g>
        <g id="Grupo_986953" data-name="Grupo 986953" transform="translate(58.075 7.178)">
          <circle id="Elipse_7760" data-name="Elipse 7760" cx="1.841" cy="1.841" r="1.841" fill="#f0c020"/>
        </g>
        <g id="Grupo_986954" data-name="Grupo 986954" transform="translate(38.118 4.187)">
          <circle id="Elipse_7761" data-name="Elipse 7761" cx="4.832" cy="4.832" r="4.832" fill="#efefef"/>
        </g>
        <g id="Grupo_986955" data-name="Grupo 986955" transform="translate(41.109 7.178)">
          <circle id="Elipse_7762" data-name="Elipse 7762" cx="1.841" cy="1.841" r="1.841" fill="#f0c020"/>
        </g>
        <g id="Grupo_986956" data-name="Grupo 986956" transform="translate(21.153 4.187)">
          <circle id="Elipse_7763" data-name="Elipse 7763" cx="4.832" cy="4.832" r="4.832" fill="#efefef"/>
        </g>
        <g id="Grupo_986957" data-name="Grupo 986957" transform="translate(24.144 7.178)">
          <circle id="Elipse_7764" data-name="Elipse 7764" cx="1.841" cy="1.841" r="1.841" fill="#f0c020"/>
        </g>
        <g id="Grupo_986958" data-name="Grupo 986958" transform="translate(4.187 4.187)">
          <circle id="Elipse_7765" data-name="Elipse 7765" cx="4.832" cy="4.832" r="4.832" fill="#efefef"/>
        </g>
        <g id="Grupo_986959" data-name="Grupo 986959" transform="translate(7.178 7.178)">
          <circle id="Elipse_7766" data-name="Elipse 7766" cx="1.841" cy="1.841" r="1.841" fill="#f0c020"/>
        </g>
      </g>
      <g id="Grupo_986961" data-name="Grupo 986961" transform="translate(19.679 47.618)">
        <path id="Trazado_660214" data-name="Trazado 660214" d="M67.085,126.123l-1.3-1.157a.556.556,0,0,0-.74,0l-1.3,1.157a.556.556,0,0,1-.926-.415v-5.571H68.01v5.571A.556.556,0,0,1,67.085,126.123Z" transform="translate(-62.819 -120.136)" fill="#fb5c3c"/>
      </g>
      <g id="Grupo_986962" data-name="Grupo 986962" transform="translate(35.771 47.618)">
        <path id="Trazado_660215" data-name="Trazado 660215" d="M124.948,126.123l-1.3-1.157a.556.556,0,0,0-.74,0l-1.3,1.157a.556.556,0,0,1-.926-.415v-5.571h5.191v5.571A.556.556,0,0,1,124.948,126.123Z" transform="translate(-120.682 -120.136)" fill="#fb5c3c"/>
      </g>
      <g id="Grupo_986963" data-name="Grupo 986963" transform="translate(16.912 57.639)">
        <path id="Trazado_660216" data-name="Trazado 660216" d="M94.8,157.562h-.834a.7.7,0,1,1,0-1.391H94.8a.7.7,0,1,1,0,1.391Zm-3.615,0H53.562a.7.7,0,1,1,0-1.391H91.181a.7.7,0,1,1,0,1.391Z" transform="translate(-52.867 -156.171)" fill="#f7e4b0"/>
      </g>
      <g id="Grupo_986964" data-name="Grupo 986964" transform="translate(24.689 44.239)">
        <path id="Trazado_660217" data-name="Trazado 660217" d="M107.207,109.377h-.834a.7.7,0,1,1,0-1.391h.834a.7.7,0,0,1,0,1.391Zm-3.615,0H81.528a.7.7,0,1,1,0-1.391h22.063a.7.7,0,0,1,0,1.391Z" transform="translate(-80.833 -107.986)" fill="#f7e4b0"/>
      </g>
      <g id="Grupo_986965" data-name="Grupo 986965" transform="translate(31.934 30.476)">
        <path id="Trazado_660218" data-name="Trazado 660218" d="M118.769,59.891h-.834a.7.7,0,0,1,0-1.391h.834a.7.7,0,0,1,0,1.391Zm-3.615,0H107.58a.7.7,0,0,1,0-1.391h7.573a.7.7,0,0,1,0,1.391Z" transform="translate(-106.885 -58.5)" fill="#f7e4b0"/>
      </g>
      <g id="Grupo_986966" data-name="Grupo 986966" transform="translate(51.864 47.618)">
        <path id="Trazado_660219" data-name="Trazado 660219" d="M182.812,126.123l-1.3-1.157a.556.556,0,0,0-.74,0l-1.3,1.157a.556.556,0,0,1-.926-.415v-5.571h5.191v5.571A.556.556,0,0,1,182.812,126.123Z" transform="translate(-178.546 -120.136)" fill="#fb5c3c"/>
      </g>
      <g id="Grupo_986967" data-name="Grupo 986967" transform="translate(27.725 33.996)">
        <path id="Trazado_660220" data-name="Trazado 660220" d="M96.016,77.143l-1.3-1.157a.556.556,0,0,0-.74,0l-1.3,1.157a.556.556,0,0,1-.926-.415V71.157h5.191v5.571A.556.556,0,0,1,96.016,77.143Z" transform="translate(-91.75 -71.157)" fill="#fb5c3c"/>
      </g>
      <g id="Grupo_986968" data-name="Grupo 986968" transform="translate(43.818 33.996)">
        <path id="Trazado_660221" data-name="Trazado 660221" d="M153.88,77.143l-1.3-1.157a.556.556,0,0,0-.74,0l-1.3,1.157a.556.556,0,0,1-.926-.415V71.157h5.191v5.571A.556.556,0,0,1,153.88,77.143Z" transform="translate(-149.614 -71.157)" fill="#fb5c3c"/>
      </g>
      <g id="Grupo_986969" data-name="Grupo 986969" transform="translate(58.756 33.912)">
        <path id="Trazado_660222" data-name="Trazado 660222" d="M206.257,78.655c-.327-1.409-.543-2.341-2.453-2.972a.7.7,0,0,1,0-1.32c1.109-.366,1.91-.631,2.453-2.972a.7.7,0,0,1,1.355,0c.556,2.4,1.391,2.621,2.453,2.972a.7.7,0,0,1,0,1.32c-1.109.367-1.91.632-2.453,2.972A.7.7,0,0,1,206.257,78.655Z" transform="translate(-203.328 -70.855)"/>
      </g>
      <g id="Grupo_986970" data-name="Grupo 986970" transform="translate(61.108 36.679)">
        <path id="Trazado_660223" data-name="Trazado 660223" d="M214.257,82.212a3.689,3.689,0,0,0-1.2,1.36,3.861,3.861,0,0,0-1.271-1.349,3.7,3.7,0,0,0,1.257-1.418,3.771,3.771,0,0,0,1.215,1.407Z" transform="translate(-211.785 -80.805)" fill="#f0c020"/>
      </g>
      <g id="Grupo_986971" data-name="Grupo 986971" transform="translate(10.479 33.912)">
        <path id="Trazado_660224" data-name="Trazado 660224" d="M32.666,78.655c-.327-1.409-.543-2.341-2.453-2.972a.7.7,0,0,1,0-1.32c1.109-.366,1.91-.631,2.453-2.972a.7.7,0,0,1,1.355,0c.556,2.4,1.391,2.621,2.453,2.972a.7.7,0,0,1,0,1.32c-1.109.367-1.91.632-2.453,2.972A.7.7,0,0,1,32.666,78.655Z" transform="translate(-29.737 -70.855)"/>
      </g>
      <g id="Grupo_986972" data-name="Grupo 986972" transform="translate(12.831 36.679)">
        <path id="Trazado_660225" data-name="Trazado 660225" d="M40.667,82.212a3.689,3.689,0,0,0-1.2,1.36,3.861,3.861,0,0,0-1.271-1.349,3.7,3.7,0,0,0,1.257-1.418A3.771,3.771,0,0,0,40.667,82.212Z" transform="translate(-38.195 -80.805)" fill="#f0c020"/>
      </g>
      <g id="Grupo_986973" data-name="Grupo 986973" transform="translate(35.771 20.375)">
        <path id="Trazado_660226" data-name="Trazado 660226" d="M125.872,22.18v5.529a.556.556,0,0,1-.926.414l-1.3-1.157a.559.559,0,0,0-.74,0l-1.3,1.157a.556.556,0,0,1-.926-.414V22.18Z" transform="translate(-120.68 -22.18)" fill="#fb5c3c"/>
      </g>
      <g id="Grupo_986974" data-name="Grupo 986974" transform="translate(3.06 19.68)">
        <path id="Trazado_660227" data-name="Trazado 660227" d="M12.774,79.974h42a.7.7,0,0,0,0-1.391,0,0,0,0,0,0,0h-42a8.322,8.322,0,1,1,0-16.645h50.9a8.322,8.322,0,1,1,0,16.645H60.336a.7.7,0,0,0,0,1.393h3.337a9.714,9.714,0,1,0,0-19.429h-.617V47.619a.693.693,0,0,0-.692-.7H55.01V34a.693.693,0,0,0-.7-.7h-7.35V20.375a.693.693,0,0,0-.7-.7H30.178a.694.694,0,0,0-.7.7V33.3h-7.35a.692.692,0,0,0-.7.7V37.7a.7.7,0,0,0,1.391,0V34.692h4.2v4.875a1.251,1.251,0,0,0,2.083.935l1.208-1.075L31.529,40.5a1.251,1.251,0,0,0,2.084-.935V34.691h4.061V46.922H22.828V43.266a.7.7,0,0,0-1.391-.006v3.662H14.084a.692.692,0,0,0-.692.7V60.545h-.617a9.714,9.714,0,1,0,0,19.429ZM61.665,60.545h-14.7V56.24a.7.7,0,1,0-1.391,0v4.305h-14.7V48.313h4.2v4.876a1.251,1.251,0,0,0,2.084.935l1.207-1.075,1.207,1.075a1.251,1.251,0,0,0,2.084-.935V48.313h3.916v2.365a.7.7,0,1,0,1.391,0V48.313h4.2v4.876a1.251,1.251,0,0,0,2.084.935l1.207-1.075,1.207,1.075a1.252,1.252,0,0,0,2.084-.935V48.314h3.915ZM56.36,48.314v4.565l-1.068-.951a1.251,1.251,0,0,0-1.664,0l-1.068.951V48.313h3.8ZM44.513,34.691h3.8v4.565l-1.068-.951a1.251,1.251,0,0,0-1.664,0l-1.068.951ZM36.467,21.071h3.8v4.523L39.2,24.642a1.251,1.251,0,0,0-1.664,0l-1.068.951Zm-1.391,0V25.9a1.251,1.251,0,0,0,2.084.935l1.207-1.075,1.207,1.075a1.251,1.251,0,0,0,2.084-.935V21.071h3.916V33.3h-14.7V21.071ZM32.222,39.257l-1.068-.951a1.252,1.252,0,0,0-1.664,0l-1.068.951V34.692h3.8Zm6.842-4.566h4.059v4.875a1.251,1.251,0,0,0,2.084.935l1.207-1.075L47.621,40.5a1.251,1.251,0,0,0,2.084-.935V34.692H53.62v12.23H39.064Zm1.2,13.622v4.566L39.2,51.928a1.251,1.251,0,0,0-1.664,0l-1.068.951V48.313Zm-19.893,0h3.8v4.566l-1.068-.951a1.251,1.251,0,0,0-1.664,0l-1.068.951Zm-5.6,0h4.2v4.875a1.251,1.251,0,0,0,2.083.935l1.208-1.075,1.207,1.075a1.251,1.251,0,0,0,2.084-.935V48.313h3.916V60.545h-14.7Z" transform="translate(-3.06 -19.68)"/>
      </g>
      <g id="Grupo_986975" data-name="Grupo 986975" transform="translate(56.86 78.58)">
        <path id="Trazado_660228" data-name="Trazado 660228" d="M196.51,232.168a.7.7,0,1,0,.7-.7A.7.7,0,0,0,196.51,232.168Z" transform="translate(-196.51 -231.47)"/>
      </g>
      <g id="Grupo_986976" data-name="Grupo 986976" transform="translate(7.248 64.731)">
        <path id="Trazado_660229" data-name="Trazado 660229" d="M80.071,187.2a5.533,5.533,0,0,0-5.527-5.527h-50.9a5.527,5.527,0,0,0,0,11.054h50.9A5.533,5.533,0,0,0,80.071,187.2Zm-1.391,0a4.137,4.137,0,1,1-4.137-4.137A4.141,4.141,0,0,1,78.68,187.2Zm-16.966,0a4.136,4.136,0,1,1-4.137-4.137A4.141,4.141,0,0,1,61.714,187.2Zm-16.966,0a4.136,4.136,0,1,1-4.136-4.137A4.141,4.141,0,0,1,44.748,187.2Zm-25.239,0a4.137,4.137,0,1,1,4.137,4.137A4.141,4.141,0,0,1,19.51,187.2Zm7.79,4.137a5.5,5.5,0,0,0,0-8.273h9.659a5.5,5.5,0,0,0,0,8.273Zm16.966,0a5.5,5.5,0,0,0,0-8.273h9.659a5.5,5.5,0,0,0,0,8.273Zm16.966,0a5.5,5.5,0,0,0,0-8.273H70.89a5.5,5.5,0,0,0,0,8.273Z" transform="translate(-18.119 -181.671)"/>
      </g>
      <g id="Grupo_986977" data-name="Grupo 986977" transform="translate(61.136 67.722)">
        <path id="Trazado_660230" data-name="Trazado 660230" d="M211.887,194.961a2.536,2.536,0,1,0,2.536-2.536A2.539,2.539,0,0,0,211.887,194.961Zm3.682,0a1.146,1.146,0,1,1-1.146-1.146A1.147,1.147,0,0,1,215.569,194.961Z" transform="translate(-211.887 -192.425)"/>
      </g>
      <g id="Grupo_986978" data-name="Grupo 986978" transform="translate(44.17 67.722)">
        <path id="Trazado_660231" data-name="Trazado 660231" d="M153.418,197.5a2.536,2.536,0,1,0-2.536-2.537A2.539,2.539,0,0,0,153.418,197.5Zm0-3.682a1.146,1.146,0,1,1-1.146,1.146A1.147,1.147,0,0,1,153.418,193.816Z" transform="translate(-150.882 -192.425)"/>
      </g>
      <g id="Grupo_986979" data-name="Grupo 986979" transform="translate(27.205 67.722)">
        <path id="Trazado_660232" data-name="Trazado 660232" d="M92.414,197.5a2.536,2.536,0,1,0-2.536-2.537A2.539,2.539,0,0,0,92.414,197.5Zm0-3.682a1.146,1.146,0,1,1-1.146,1.146A1.147,1.147,0,0,1,92.414,193.816Z" transform="translate(-89.878 -192.425)"/>
      </g>
      <g id="Grupo_986980" data-name="Grupo 986980" transform="translate(10.239 67.722)">
        <path id="Trazado_660233" data-name="Trazado 660233" d="M33.946,194.961a2.536,2.536,0,1,0-2.536,2.537A2.539,2.539,0,0,0,33.946,194.961Zm-3.682,0a1.146,1.146,0,1,1,1.146,1.146A1.147,1.147,0,0,1,30.264,194.961Z" transform="translate(-28.873 -192.425)"/>
      </g>
      <g id="Grupo_986981" data-name="Grupo 986981" transform="translate(21.437 39.79)">
        <circle id="Elipse_7767" data-name="Elipse 7767" cx="0.695" cy="0.695" r="0.695"/>
      </g>
      <g id="Grupo_986982" data-name="Grupo 986982" transform="translate(45.574 52.764)">
        <circle id="Elipse_7768" data-name="Elipse 7768" cx="0.695" cy="0.695" r="0.695" transform="translate(0 0)"/>
      </g>
    </g>
    <g id="disminucion-de-la-concentracion" transform="translate(1110.484 4273.007)">
      <g id="Grupo_986992" data-name="Grupo 986992">
        <g id="Grupo_986983" data-name="Grupo 986983">
          <path id="Trazado_660234" data-name="Trazado 660234" d="M32,40.99v6H28V41.13l2-1.14,2.04.91Z" fill="#5d9cec"/>
        </g>
        <g id="Grupo_986984" data-name="Grupo 986984">
          <path id="Trazado_660235" data-name="Trazado 660235" d="M22,55.99l.16.17A9.4,9.4,0,0,0,20,61.99H17s-7,0-7-9c0-9.22,1-18,1-18l7,2Z" fill="#75b1f2"/>
        </g>
        <g id="Grupo_986985" data-name="Grupo 986985">
          <path id="Trazado_660236" data-name="Trazado 660236" d="M30,54.99c-4-1.2-6.4-.32-7.84,1.17L22,55.99l-4-19-.15-.98.15-.02a23,23,0,0,0,5.04,2.91l-.04.09v5l5-2.86v5.86h4v-6l.04-.09L39,43.99a16.777,16.777,0,0,0-2.83-8.76,15.175,15.175,0,0,0,1.3-3.39l.53.15c18,6,17,16,17,23s-7,7-7,7H30Z" fill="#75b1f2"/>
        </g>
        <g id="Grupo_986986" data-name="Grupo 986986">
          <path id="Trazado_660237" data-name="Trazado 660237" d="M39,43.99,32.04,40.9,30,39.99l-.03-.17a8.581,8.581,0,0,0,6.2-4.59A16.777,16.777,0,0,1,39,43.99Z" fill="#5d9cec"/>
        </g>
        <g id="Grupo_986987" data-name="Grupo 986987">
          <path id="Trazado_660238" data-name="Trazado 660238" d="M30,39.99l-2,1.14-5,2.86v-5l.04-.09A13.333,13.333,0,0,0,28,39.99a11.462,11.462,0,0,0,1.97-.17Z" fill="#5d9cec"/>
        </g>
        <g id="Grupo_986988" data-name="Grupo 986988">
          <path id="Trazado_660239" data-name="Trazado 660239" d="M30,54.99v7H20a9.4,9.4,0,0,1,2.16-5.83C23.6,54.67,26,53.79,30,54.99Z" fill="#f0d0b4"/>
        </g>
        <g id="Grupo_986989" data-name="Grupo 986989">
          <path id="Trazado_660240" data-name="Trazado 660240" d="M36.17,35.23a8.581,8.581,0,0,1-6.2,4.59,11.462,11.462,0,0,1-1.97.17,13.333,13.333,0,0,1-4.96-1.09A23,23,0,0,1,18,35.99l-.15.02L16,23.99s-1-7,3-8,6,3,6,3l8-5a24.13,24.13,0,0,1,2.7,4.15A18.93,18.93,0,0,1,38,28.99a23.783,23.783,0,0,1-.53,2.85A15.175,15.175,0,0,1,36.17,35.23Z" fill="#f0d0b4"/>
        </g>
        <g id="Grupo_986990" data-name="Grupo 986990">
          <path id="Trazado_660241" data-name="Trazado 660241" d="M17.85,36.01l.15.98-7-2a12.061,12.061,0,0,1,0-5,8.184,8.184,0,0,1,5-6Z" fill="#f0d0b4"/>
        </g>
        <g id="Grupo_986991" data-name="Grupo 986991">
          <path id="Trazado_660242" data-name="Trazado 660242" d="M30.51,6.05,31,5.99l7,1a34.214,34.214,0,0,1-2,11l-.3.15A24.13,24.13,0,0,0,33,13.99c-1.64,1.634-4.348,3.223-8,5,0,0-2-4-6-3s-3,8-3,8a8.184,8.184,0,0,0-5,6s-5-3-5-13,15-15,24-15Z" fill="#656d78"/>
        </g>
      </g>
      <g id="Grupo_986993" data-name="Grupo 986993">
        <path id="Trazado_660243" data-name="Trazado 660243" d="M38.646,31.161c.135-.644.255-1.316.346-2.043A19.428,19.428,0,0,0,36.93,18.361,34.906,34.906,0,0,0,39,6.993V6.126L31.388,5.038,30.882.993H30c-10.218,0-25,5.7-25,16,0,8.485,3.471,12.24,4.9,13.422a12.245,12.245,0,0,0,.094,4.627C9.857,36.25,9,44.48,9,52.993c0,9.886,7.92,10,8,10H48c2.767,0,8-1.672,8-8l.005-1.045c.048-7.115.107-16.842-17.359-22.787ZM7,16.993c0-9,13.741-13.67,22.119-13.983l.889,7.107,1.984-.248L31.645,7.1l5.328.761A34.873,34.873,0,0,1,35.637,16a22.925,22.925,0,0,0-1.879-2.658l-1.519,1.3c.057.066,5.7,6.773,4.768,14.226-.84,6.718-3.87,10.124-9.008,10.124-4.181,0-8.488-3.109-9.247-3.683L16.99,23.852c-.009-.061-.788-6.128,2.252-6.889,3.169-.791,4.8,2.347,4.863,2.478l1.789-.9c-.816-1.632-3.367-4.467-7.137-3.522-4.008,1-3.974,6.4-3.822,8.383a9.113,9.113,0,0,0-4.439,4.83C9.166,26.808,7,23.489,7,16.993ZM24,40.311a14.542,14.542,0,0,0,2.444.562L24,42.27Zm5,1.4,1.057-.6.943.42v4.462H29Zm3.583-1.669a9.217,9.217,0,0,0,3.58-2.925,16.181,16.181,0,0,1,1.692,5.269ZM11.865,34.2c-.256-1.587-.609-6.206,3.359-8.68L16.775,35.6ZM17,60.993c-.245,0-6-.091-6-8,0-7.1.6-14.021.871-16.711l5.274,1.507L20.98,56.006a10.158,10.158,0,0,0-1.91,4.987Zm12,0H21.085a6.983,6.983,0,0,1,2.349-4.625c1.331-.99,3.2-1.194,5.566-.612Zm25-7.058L54,54.993c0,5.8-5.389,6-6,6H31v-5.24l17.268-4.8-.535-1.928-2.051.57L42.97,38.751l-1.939.484,2.725,10.9L29.99,53.958c-2.958-.829-5.405-.657-7.288.511l-3.453-16.4A24.013,24.013,0,0,0,22,39.536v6.181l5-2.858v5.134h6V42.42l7,3.112V43.993a17.857,17.857,0,0,0-2.661-8.826,15.692,15.692,0,0,0,.8-2.067C54.1,38.583,54.052,47.087,54.005,53.935Z"/>
        <path id="Trazado_660244" data-name="Trazado 660244" d="M31.9,32.341a.318.318,0,0,1-.442.089l-1-.668a2.322,2.322,0,0,0-2.926.29l-2.235,2.234L26.707,35.7l2.236-2.235a.318.318,0,0,1,.4-.039l1,.668a2.318,2.318,0,0,0,3.216-.643l1.269-1.9L33.168,30.44Z"/>
        <path id="Trazado_660245" data-name="Trazado 660245" d="M50.422,30.6l-1.869-3.738L42.8,28.013l.392,1.961,4.251-.85,2.131,4.262L57.5,28.861,56.5,27.125Z"/>
        <path id="Trazado_660246" data-name="Trazado 660246" d="M48.726,17.305l-3.621,7.241,1.79.894,2.379-4.758,2.664,2.664,6.7-5.584-1.282-1.537-5.3,4.416Z"/>
        <path id="Trazado_660247" data-name="Trazado 660247" d="M48.438,9.845l2.884,2.884L55.914,2.4l-1.828-.812-3.408,7.67L47.563,6.142,43.416,18.583,40.447,17.1l-.894,1.789L44.584,21.4Z"/>
        <path id="Trazado_660248" data-name="Trazado 660248" d="M20.447,23.1l-.894,1.789,2.987,1.493-1.372,2.057,1.664,1.11L25.46,25.6Z"/>
        <path id="Trazado_660249" data-name="Trazado 660249" d="M29.806,23.649l3.878,1.292.632-1.9-2.122-.708.776-3.1-1.94-.484Z"/>
        <path id="Trazado_660250" data-name="Trazado 660250" d="M28.53,14.912a13.3,13.3,0,0,0-5.287-2.889l-.486,1.939a11.318,11.318,0,0,1,4.4,2.406Z"/>
        <path id="Trazado_660251" data-name="Trazado 660251" d="M31.707,13.286a15.518,15.518,0,0,0-5.391-3.241l-.633,1.9A13.605,13.605,0,0,1,30.292,14.7Z"/>
      </g>
    </g>
    <rect id="Rectángulo_311148" data-name="Rectángulo 311148" width="138" height="47" rx="15" transform="translate(1072 4339)" fill="#f0bd51"/>
    <rect id="Rectángulo_311149" data-name="Rectángulo 311149" width="138" height="47" rx="15" transform="translate(1072 4071)" fill="#f0bd51"/>
    <rect id="Rectángulo_311150" data-name="Rectángulo 311150" width="138" height="47" rx="15" transform="translate(685 3958)" fill="#f0bd51"/>
    <rect id="Rectángulo_311151" data-name="Rectángulo 311151" width="138" height="47" rx="15" transform="translate(390 4085)" fill="#f0bd51"/>
    <rect id="Rectángulo_311152" data-name="Rectángulo 311152" width="138" height="47" rx="15" transform="translate(390 4339)" fill="#f0bd51"/>
    <path id="Trazado_678352" data-name="Trazado 678352" d="M-14.605-4.945h-4.5v3.063h5.281V0h-7.625V-11.375h7.609v1.9h-5.266v2.711h4.5Zm4.969,2.188,1.57-5.7h2.359L-8.559,0h-2.156l-2.852-8.453h2.359ZM-2.332,0H-4.6V-8.453h2.266Zm-2.4-10.641a1.112,1.112,0,0,1,.34-.836,1.277,1.277,0,0,1,.926-.328,1.28,1.28,0,0,1,.922.328,1.105,1.105,0,0,1,.344.836,1.108,1.108,0,0,1-.348.844,1.283,1.283,0,0,1-.918.328A1.283,1.283,0,0,1-4.383-9.8,1.108,1.108,0,0,1-4.73-10.641Zm6.961.109v2.078H3.676V-6.8H2.23v4.219a1.007,1.007,0,0,0,.18.672.9.9,0,0,0,.688.2,3.6,3.6,0,0,0,.664-.055V-.047a4.648,4.648,0,0,1-1.367.2,2.156,2.156,0,0,1-2.422-2.4V-6.8H-1.262V-8.453H-.027v-2.078ZM9.832,0a2.507,2.507,0,0,1-.227-.758A2.732,2.732,0,0,1,7.473.156,3,3,0,0,1,5.414-.562,2.312,2.312,0,0,1,4.6-2.375a2.389,2.389,0,0,1,1-2.062,4.915,4.915,0,0,1,2.879-.727H9.512v-.484a1.393,1.393,0,0,0-.3-.937,1.183,1.183,0,0,0-.949-.352,1.345,1.345,0,0,0-.895.273.929.929,0,0,0-.324.75H4.785a2.268,2.268,0,0,1,.453-1.359,3,3,0,0,1,1.281-.98,4.669,4.669,0,0,1,1.859-.355,3.689,3.689,0,0,1,2.48.785,2.747,2.747,0,0,1,.918,2.207v3.664a4.041,4.041,0,0,0,.336,1.82V0ZM7.965-1.57a1.945,1.945,0,0,0,.922-.223,1.462,1.462,0,0,0,.625-.6V-3.844H8.668q-1.7,0-1.8,1.172l-.008.133a.9.9,0,0,0,.3.7A1.153,1.153,0,0,0,7.965-1.57Zm10.3-4.766a6.134,6.134,0,0,0-.812-.062,1.654,1.654,0,0,0-1.68.867V0H13.512V-8.453h2.133l.063,1.008A2.092,2.092,0,0,1,17.59-8.609a2.366,2.366,0,0,1,.7.1ZM-57.625,19h-2.266V10.547h2.266Zm-2.4-10.641a1.112,1.112,0,0,1,.34-.836,1.277,1.277,0,0,1,.926-.328,1.28,1.28,0,0,1,.922.328,1.105,1.105,0,0,1,.344.836,1.108,1.108,0,0,1-.348.844,1.283,1.283,0,0,1-.918.328,1.283,1.283,0,0,1-.918-.328A1.108,1.108,0,0,1-60.023,8.359Zm6.336,2.188.07.977a2.951,2.951,0,0,1,2.43-1.133,2.453,2.453,0,0,1,2,.789,3.682,3.682,0,0,1,.672,2.359V19h-2.258V13.581a1.47,1.47,0,0,0-.312-1.045,1.4,1.4,0,0,0-1.039-.325,1.553,1.553,0,0,0-1.43.814V19h-2.258V10.547Zm10.4,6.789a1.481,1.481,0,0,0,1.016-.344,1.2,1.2,0,0,0,.406-.914h2.117a2.9,2.9,0,0,1-.469,1.574,3.093,3.093,0,0,1-1.262,1.109,3.949,3.949,0,0,1-1.77.395A3.67,3.67,0,0,1-46.109,18a4.56,4.56,0,0,1-1.047-3.184v-.148a4.508,4.508,0,0,1,1.039-3.117,3.627,3.627,0,0,1,2.852-1.164,3.555,3.555,0,0,1,2.543.9,3.2,3.2,0,0,1,.973,2.4h-2.117a1.551,1.551,0,0,0-.406-1.072,1.354,1.354,0,0,0-1.031-.412,1.36,1.36,0,0,0-1.191.575,3.333,3.333,0,0,0-.4,1.866v.235a3.375,3.375,0,0,0,.4,1.878A1.377,1.377,0,0,0-43.289,17.336Zm4.477-2.641a5.013,5.013,0,0,1,.484-2.242,3.546,3.546,0,0,1,1.395-1.523,4.069,4.069,0,0,1,2.113-.539,3.849,3.849,0,0,1,2.793,1.047,4.2,4.2,0,0,1,1.207,2.844l.016.578a4.418,4.418,0,0,1-1.086,3.121A3.775,3.775,0,0,1-34.8,19.156a3.793,3.793,0,0,1-2.918-1.172,4.5,4.5,0,0,1-1.09-3.187Zm2.258.16A3.16,3.16,0,0,0-36.1,16.7a1.5,1.5,0,0,0,1.3.638,1.5,1.5,0,0,0,1.281-.63,3.457,3.457,0,0,0,.461-2.015,3.128,3.128,0,0,0-.461-1.831,1.5,1.5,0,0,0-1.3-.649,1.474,1.474,0,0,0-1.281.646A3.516,3.516,0,0,0-36.555,14.856Zm9.219-4.309.07.977a2.951,2.951,0,0,1,2.43-1.133,2.453,2.453,0,0,1,2,.789,3.682,3.682,0,0,1,.672,2.359V19h-2.258V13.581a1.47,1.47,0,0,0-.312-1.045,1.4,1.4,0,0,0-1.039-.325,1.553,1.553,0,0,0-1.43.814V19h-2.258V10.547Zm7.5,8.453V12.2h-1.258V10.547h1.258V9.828a2.918,2.918,0,0,1,.816-2.207,3.162,3.162,0,0,1,2.285-.785,5.321,5.321,0,0,1,1.148.155l-.023,1.736a2.878,2.878,0,0,0-.687-.07q-1.273,0-1.273,1.205v.685h1.68V12.2h-1.68V19Zm4.766-4.3a5.013,5.013,0,0,1,.484-2.242,3.546,3.546,0,0,1,1.395-1.523,4.069,4.069,0,0,1,2.113-.539,3.849,3.849,0,0,1,2.793,1.047,4.2,4.2,0,0,1,1.207,2.844l.016.578A4.418,4.418,0,0,1-8.148,17.98a3.775,3.775,0,0,1-2.914,1.176,3.793,3.793,0,0,1-2.918-1.172A4.5,4.5,0,0,1-15.07,14.8Zm2.258.16a3.16,3.16,0,0,0,.453,1.843,1.5,1.5,0,0,0,1.3.638,1.5,1.5,0,0,0,1.281-.63,3.457,3.457,0,0,0,.461-2.015,3.128,3.128,0,0,0-.461-1.831,1.5,1.5,0,0,0-1.3-.649,1.474,1.474,0,0,0-1.281.646A3.516,3.516,0,0,0-12.812,14.856ZM-.922,12.664a6.134,6.134,0,0,0-.812-.062,1.654,1.654,0,0,0-1.68.867V19H-5.672V10.547h2.133l.063,1.008a2.092,2.092,0,0,1,1.883-1.164,2.366,2.366,0,0,1,.7.1Zm3.2-2.117.07.945a2.971,2.971,0,0,1,2.43-1.1A2.255,2.255,0,0,1,7.023,11.68a2.9,2.9,0,0,1,2.539-1.289,2.521,2.521,0,0,1,2.047.8,3.681,3.681,0,0,1,.672,2.41V19H10.016V13.6a1.616,1.616,0,0,0-.281-1.053,1.245,1.245,0,0,0-.992-.333,1.409,1.409,0,0,0-1.406.971L7.344,19H5.086V13.6A1.6,1.6,0,0,0,4.8,12.54a1.257,1.257,0,0,0-.984-.329,1.463,1.463,0,0,0-1.391.8V19H.164V10.547ZM16.4,19H14.133V10.547H16.4ZM14,8.359a1.112,1.112,0,0,1,.34-.836,1.465,1.465,0,0,1,1.848,0,1.193,1.193,0,0,1,0,1.68,1.448,1.448,0,0,1-1.836,0A1.108,1.108,0,0,1,14,8.359Zm3.906,6.352a5.094,5.094,0,0,1,.887-3.148,2.877,2.877,0,0,1,2.426-1.172,2.589,2.589,0,0,1,2.039.922V7h2.266V19H23.484l-.109-.9A2.657,2.657,0,0,1,21.2,19.156a2.869,2.869,0,0,1-2.395-1.176A5.258,5.258,0,0,1,17.906,14.711Zm2.258.161a3.355,3.355,0,0,0,.414,1.829,1.348,1.348,0,0,0,1.2.636,1.51,1.51,0,0,0,1.477-.887V13.1a1.489,1.489,0,0,0-1.461-.887Q20.164,12.211,20.164,14.872ZM32.172,19a2.507,2.507,0,0,1-.227-.758,2.732,2.732,0,0,1-2.133.914,3,3,0,0,1-2.059-.719,2.312,2.312,0,0,1-.816-1.812,2.389,2.389,0,0,1,1-2.062,4.915,4.915,0,0,1,2.879-.727h1.039v-.484a1.393,1.393,0,0,0-.3-.937,1.183,1.183,0,0,0-.949-.352,1.345,1.345,0,0,0-.895.273.929.929,0,0,0-.324.75H27.125a2.268,2.268,0,0,1,.453-1.359,3,3,0,0,1,1.281-.98,4.669,4.669,0,0,1,1.859-.355,3.689,3.689,0,0,1,2.48.785,2.747,2.747,0,0,1,.918,2.207v3.664a4.041,4.041,0,0,0,.336,1.82V19ZM30.3,17.43a1.945,1.945,0,0,0,.922-.223,1.462,1.462,0,0,0,.625-.6V15.156h-.844q-1.7,0-1.8,1.172l-.008.133a.9.9,0,0,0,.3.7A1.153,1.153,0,0,0,30.3,17.43Zm5.2-2.719a5.094,5.094,0,0,1,.887-3.148,2.877,2.877,0,0,1,2.426-1.172,2.589,2.589,0,0,1,2.039.922V7h2.266V19H41.078l-.109-.9A2.657,2.657,0,0,1,38.8,19.156,2.869,2.869,0,0,1,36.4,17.98,5.258,5.258,0,0,1,35.5,14.711Zm2.258.161a3.355,3.355,0,0,0,.414,1.829,1.348,1.348,0,0,0,1.2.636,1.51,1.51,0,0,0,1.477-.887V13.1a1.489,1.489,0,0,0-1.461-.887Q37.758,12.211,37.758,14.872Zm11,4.285a4.15,4.15,0,0,1-3.027-1.141,4.054,4.054,0,0,1-1.168-3.039v-.219a5.106,5.106,0,0,1,.492-2.277,3.612,3.612,0,0,1,1.395-1.547,3.914,3.914,0,0,1,2.059-.543,3.508,3.508,0,0,1,2.73,1.094,4.444,4.444,0,0,1,1,3.1v.922H46.852a2.1,2.1,0,0,0,.66,1.328,2,2,0,0,0,1.395.5,2.437,2.437,0,0,0,2.039-.945l1.109,1.242a3.389,3.389,0,0,1-1.375,1.121A4.511,4.511,0,0,1,48.758,19.156ZM48.5,12.211a1.411,1.411,0,0,0-1.09.455,2.357,2.357,0,0,0-.535,1.3h3.141v-.181a1.681,1.681,0,0,0-.406-1.165A1.456,1.456,0,0,0,48.5,12.211Zm9.594,4.453a.727.727,0,0,0-.41-.652,4.659,4.659,0,0,0-1.316-.426q-3.016-.633-3.016-2.562a2.323,2.323,0,0,1,.934-1.879,3.766,3.766,0,0,1,2.441-.754,4.053,4.053,0,0,1,2.574.758,2.388,2.388,0,0,1,.965,1.969H58.008a1.092,1.092,0,0,0-.312-.8A1.322,1.322,0,0,0,56.719,12a1.351,1.351,0,0,0-.883.258.814.814,0,0,0-.312.656.7.7,0,0,0,.355.605,3.657,3.657,0,0,0,1.2.4A9.8,9.8,0,0,1,58.5,14.3a2.336,2.336,0,0,1,1.789,2.273,2.2,2.2,0,0,1-.992,1.871,4.28,4.28,0,0,1-2.562.715,4.47,4.47,0,0,1-1.887-.379,3.166,3.166,0,0,1-1.293-1.039,2.414,2.414,0,0,1-.469-1.426h2.141a1.179,1.179,0,0,0,.445.922,1.766,1.766,0,0,0,1.109.32,1.635,1.635,0,0,0,.98-.246A.766.766,0,0,0,58.094,16.664Z" transform="translate(1142.305 4358.099)" fill="#12263f"/>
    <path id="Trazado_678349" data-name="Trazado 678349" d="M-39.547-4.008V0h-2.344V-11.375h4.438a5.134,5.134,0,0,1,2.254.469,3.454,3.454,0,0,1,1.5,1.332,3.714,3.714,0,0,1,.523,1.965,3.266,3.266,0,0,1-1.145,2.637,4.767,4.767,0,0,1-3.168.965Zm0-1.9h2.094a2.059,2.059,0,0,0,1.418-.437,1.591,1.591,0,0,0,.488-1.25,1.876,1.876,0,0,0-.492-1.352A1.839,1.839,0,0,0-37.4-9.477h-2.148Zm12.578-.43a6.134,6.134,0,0,0-.812-.062,1.654,1.654,0,0,0-1.68.867V0h-2.258V-8.453h2.133l.063,1.008a2.092,2.092,0,0,1,1.883-1.164,2.366,2.366,0,0,1,.7.1Zm.453,2.031a5.013,5.013,0,0,1,.484-2.242A3.546,3.546,0,0,1-24.637-8.07a4.069,4.069,0,0,1,2.113-.539A3.849,3.849,0,0,1-19.73-7.562a4.2,4.2,0,0,1,1.207,2.844l.016.578A4.418,4.418,0,0,1-19.594-1.02,3.775,3.775,0,0,1-22.508.156a3.793,3.793,0,0,1-2.918-1.172A4.5,4.5,0,0,1-26.516-4.2Zm2.258.16A3.16,3.16,0,0,0-23.8-2.3a1.5,1.5,0,0,0,1.3.638,1.5,1.5,0,0,0,1.281-.63,3.457,3.457,0,0,0,.461-2.015,3.128,3.128,0,0,0-.461-1.831,1.5,1.5,0,0,0-1.3-.649,1.474,1.474,0,0,0-1.281.646A3.516,3.516,0,0,0-24.258-4.144Zm6.789-.145a5.094,5.094,0,0,1,.887-3.148,2.877,2.877,0,0,1,2.426-1.172,2.589,2.589,0,0,1,2.039.922V-12h2.266V0h-2.039L-12-.9A2.657,2.657,0,0,1-14.172.156,2.869,2.869,0,0,1-16.566-1.02,5.258,5.258,0,0,1-17.469-4.289Zm2.258.161A3.355,3.355,0,0,0-14.8-2.3a1.348,1.348,0,0,0,1.2.636,1.51,1.51,0,0,0,1.477-.887V-5.9a1.489,1.489,0,0,0-1.461-.887Q-15.211-6.789-15.211-4.128ZM-3.039-.859A2.831,2.831,0,0,1-5.352.156,2.67,2.67,0,0,1-7.426-.625a3.335,3.335,0,0,1-.73-2.289V-8.453H-5.9v5.467q0,1.322,1.2,1.322a1.63,1.63,0,0,0,1.578-.8V-8.453H-.852V0H-2.977Zm7.406-.8a1.481,1.481,0,0,0,1.016-.344,1.2,1.2,0,0,0,.406-.914H7.906a2.9,2.9,0,0,1-.469,1.574A3.093,3.093,0,0,1,6.176-.238a3.949,3.949,0,0,1-1.77.395A3.67,3.67,0,0,1,1.547-1,4.56,4.56,0,0,1,.5-4.18v-.148A4.508,4.508,0,0,1,1.539-7.445,3.627,3.627,0,0,1,4.391-8.609a3.555,3.555,0,0,1,2.543.9,3.2,3.2,0,0,1,.973,2.4H5.789a1.551,1.551,0,0,0-.406-1.072,1.354,1.354,0,0,0-1.031-.412,1.36,1.36,0,0,0-1.191.575,3.333,3.333,0,0,0-.4,1.866v.235a3.375,3.375,0,0,0,.4,1.878A1.377,1.377,0,0,0,4.367-1.664Zm8.344,0a1.481,1.481,0,0,0,1.016-.344,1.2,1.2,0,0,0,.406-.914H16.25a2.9,2.9,0,0,1-.469,1.574A3.093,3.093,0,0,1,14.52-.238a3.949,3.949,0,0,1-1.77.395A3.67,3.67,0,0,1,9.891-1,4.56,4.56,0,0,1,8.844-4.18v-.148A4.508,4.508,0,0,1,9.883-7.445a3.627,3.627,0,0,1,2.852-1.164,3.555,3.555,0,0,1,2.543.9,3.2,3.2,0,0,1,.973,2.4H14.133a1.551,1.551,0,0,0-.406-1.072A1.354,1.354,0,0,0,12.7-6.789a1.36,1.36,0,0,0-1.191.575,3.333,3.333,0,0,0-.4,1.866v.235a3.375,3.375,0,0,0,.4,1.878A1.377,1.377,0,0,0,12.711-1.664ZM19.922,0H17.656V-8.453h2.266Zm-2.4-10.641a1.112,1.112,0,0,1,.34-.836,1.277,1.277,0,0,1,.926-.328,1.28,1.28,0,0,1,.922.328,1.105,1.105,0,0,1,.344.836,1.108,1.108,0,0,1-.348.844,1.283,1.283,0,0,1-.918.328,1.283,1.283,0,0,1-.918-.328A1.108,1.108,0,0,1,17.523-10.641ZM21.43-4.3a5.013,5.013,0,0,1,.484-2.242A3.546,3.546,0,0,1,23.309-8.07a4.069,4.069,0,0,1,2.113-.539,3.849,3.849,0,0,1,2.793,1.047,4.2,4.2,0,0,1,1.207,2.844l.016.578A4.418,4.418,0,0,1,28.352-1.02,3.775,3.775,0,0,1,25.438.156,3.793,3.793,0,0,1,22.52-1.016,4.5,4.5,0,0,1,21.43-4.2Zm2.258.16A3.16,3.16,0,0,0,24.141-2.3a1.5,1.5,0,0,0,1.3.638,1.5,1.5,0,0,0,1.281-.63,3.457,3.457,0,0,0,.461-2.015,3.128,3.128,0,0,0-.461-1.831,1.5,1.5,0,0,0-1.3-.649,1.474,1.474,0,0,0-1.281.646A3.516,3.516,0,0,0,23.688-4.144ZM25.867-12h2.461L26.164-9.578H24.328Zm7.039,3.547.07.977a2.951,2.951,0,0,1,2.43-1.133,2.453,2.453,0,0,1,2,.789,3.682,3.682,0,0,1,.672,2.359V0H35.82V-5.419a1.47,1.47,0,0,0-.312-1.045,1.4,1.4,0,0,0-1.039-.325,1.553,1.553,0,0,0-1.43.814V0H30.781V-8.453ZM-7.961,9.664A6.134,6.134,0,0,0-8.773,9.6a1.654,1.654,0,0,0-1.68.867V16h-2.258V7.547h2.133l.063,1.008A2.092,2.092,0,0,1-8.633,7.391a2.366,2.366,0,0,1,.7.1Zm4.828,6.492A4.15,4.15,0,0,1-6.16,15.016a4.054,4.054,0,0,1-1.168-3.039v-.219A5.106,5.106,0,0,1-6.836,9.48,3.612,3.612,0,0,1-5.441,7.934a3.914,3.914,0,0,1,2.059-.543A3.508,3.508,0,0,1-.652,8.484a4.444,4.444,0,0,1,1,3.1v.922H-5.039a2.1,2.1,0,0,0,.66,1.328,2,2,0,0,0,1.395.5,2.437,2.437,0,0,0,2.039-.945L.164,14.633a3.389,3.389,0,0,1-1.375,1.121A4.511,4.511,0,0,1-3.133,16.156Zm-.258-6.945a1.411,1.411,0,0,0-1.09.455,2.357,2.357,0,0,0-.535,1.3h3.141v-.181a1.681,1.681,0,0,0-.406-1.165A1.456,1.456,0,0,0-3.391,9.211ZM6.523,16a2.507,2.507,0,0,1-.227-.758,2.732,2.732,0,0,1-2.133.914,3,3,0,0,1-2.059-.719,2.312,2.312,0,0,1-.816-1.812,2.389,2.389,0,0,1,1-2.062,4.915,4.915,0,0,1,2.879-.727H6.2v-.484a1.393,1.393,0,0,0-.3-.937,1.183,1.183,0,0,0-.949-.352,1.345,1.345,0,0,0-.895.273.929.929,0,0,0-.324.75H1.477A2.268,2.268,0,0,1,1.93,8.727a3,3,0,0,1,1.281-.98A4.669,4.669,0,0,1,5.07,7.391a3.689,3.689,0,0,1,2.48.785,2.747,2.747,0,0,1,.918,2.207v3.664a4.041,4.041,0,0,0,.336,1.82V16ZM4.656,14.43a1.945,1.945,0,0,0,.922-.223,1.462,1.462,0,0,0,.625-.6V12.156H5.359q-1.7,0-1.8,1.172l-.008.133a.9.9,0,0,0,.3.7A1.153,1.153,0,0,0,4.656,14.43ZM12.586,16H10.32V4h2.266Z" transform="translate(1142.305 4093)" fill="#12263f"/>
    <path id="Trazado_678350" data-name="Trazado 678350" d="M-24.66-4.648h-4.5V0H-31.5V-11.375H-24.1v1.9H-29.16v2.938h4.5ZM-20.5,0H-22.77V-12H-20.5Zm6.922-.859A2.831,2.831,0,0,1-15.895.156a2.67,2.67,0,0,1-2.074-.781,3.335,3.335,0,0,1-.73-2.289V-8.453h2.258v5.467q0,1.322,1.2,1.322a1.63,1.63,0,0,0,1.578-.8V-8.453h2.266V0H-13.52ZM-7.3-8.453V.461a3.024,3.024,0,0,1-.742,2.176,2.821,2.821,0,0,1-2.141.777A4.591,4.591,0,0,1-11.3,3.281V1.492a4.238,4.238,0,0,0,.711.07q1.023,0,1.023-1.086v-8.93Zm-2.445-2.187a1.112,1.112,0,0,1,.34-.836A1.277,1.277,0,0,1-8.48-11.8a1.277,1.277,0,0,1,.926.328,1.112,1.112,0,0,1,.34.836,1.108,1.108,0,0,1-.348.844,1.283,1.283,0,0,1-.918.328A1.283,1.283,0,0,1-9.4-9.8,1.108,1.108,0,0,1-9.746-10.641ZM-5.887-4.3A5.013,5.013,0,0,1-5.4-6.547,3.546,3.546,0,0,1-4.008-8.07a4.069,4.069,0,0,1,2.113-.539A3.849,3.849,0,0,1,.9-7.562,4.2,4.2,0,0,1,2.105-4.719l.016.578A4.418,4.418,0,0,1,1.035-1.02,3.775,3.775,0,0,1-1.879.156,3.793,3.793,0,0,1-4.8-1.016,4.5,4.5,0,0,1-5.887-4.2Zm2.258.16A3.16,3.16,0,0,0-3.176-2.3a1.5,1.5,0,0,0,1.3.638A1.5,1.5,0,0,0-.6-2.294,3.457,3.457,0,0,0-.137-4.309,3.128,3.128,0,0,0-.6-6.14a1.5,1.5,0,0,0-1.3-.649,1.474,1.474,0,0,0-1.281.646A3.516,3.516,0,0,0-3.629-4.144ZM7.145-4.289a5.094,5.094,0,0,1,.887-3.148,2.877,2.877,0,0,1,2.426-1.172,2.589,2.589,0,0,1,2.039.922V-12h2.266V0H12.723l-.109-.9A2.657,2.657,0,0,1,10.441.156,2.869,2.869,0,0,1,8.047-1.02,5.258,5.258,0,0,1,7.145-4.289ZM9.4-4.128A3.355,3.355,0,0,0,9.816-2.3a1.348,1.348,0,0,0,1.2.636A1.51,1.51,0,0,0,12.5-2.551V-5.9a1.489,1.489,0,0,0-1.461-.887Q9.4-6.789,9.4-4.128ZM20.4.156A4.15,4.15,0,0,1,17.375-.984a4.054,4.054,0,0,1-1.168-3.039v-.219A5.106,5.106,0,0,1,16.7-6.52a3.612,3.612,0,0,1,1.395-1.547,3.914,3.914,0,0,1,2.059-.543,3.508,3.508,0,0,1,2.73,1.094,4.444,4.444,0,0,1,1,3.1v.922H18.5a2.1,2.1,0,0,0,.66,1.328,2,2,0,0,0,1.395.5,2.437,2.437,0,0,0,2.039-.945L23.7-1.367A3.389,3.389,0,0,1,22.324-.246,4.511,4.511,0,0,1,20.4.156Zm-.258-6.945a1.411,1.411,0,0,0-1.09.455,2.357,2.357,0,0,0-.535,1.3H21.66v-.181a1.681,1.681,0,0,0-.406-1.165A1.456,1.456,0,0,0,20.145-6.789ZM27.543,0H25.277V-12h2.266Zm-48,12.852a5.07,5.07,0,0,1-.887,3.129,2.843,2.843,0,0,1-2.395,1.176,2.633,2.633,0,0,1-2.07-.891V20.25H-28.07V8.547h2.094l.078.828a2.654,2.654,0,0,1,2.141-.984,2.862,2.862,0,0,1,2.43,1.156,5.207,5.207,0,0,1,.867,3.188Zm-2.258-.172a3.345,3.345,0,0,0-.418-1.826,1.36,1.36,0,0,0-1.215-.643,1.478,1.478,0,0,0-1.461.815V14.5a1.5,1.5,0,0,0,1.477.839Q-22.719,15.336-22.719,12.679Zm8.406-2.015a6.134,6.134,0,0,0-.812-.062,1.654,1.654,0,0,0-1.68.867V17h-2.258V8.547h2.133l.063,1.008a2.092,2.092,0,0,1,1.883-1.164,2.366,2.366,0,0,1,.7.1Zm.453,2.031a5.013,5.013,0,0,1,.484-2.242A3.546,3.546,0,0,1-11.98,8.93a4.069,4.069,0,0,1,2.113-.539A3.849,3.849,0,0,1-7.074,9.438a4.2,4.2,0,0,1,1.207,2.844l.016.578A4.418,4.418,0,0,1-6.937,15.98a3.775,3.775,0,0,1-2.914,1.176,3.793,3.793,0,0,1-2.918-1.172,4.5,4.5,0,0,1-1.09-3.187Zm2.258.16a3.16,3.16,0,0,0,.453,1.843,1.5,1.5,0,0,0,1.3.638,1.5,1.5,0,0,0,1.281-.63,3.457,3.457,0,0,0,.461-2.015A3.128,3.128,0,0,0-8.57,10.86a1.5,1.5,0,0,0-1.3-.649,1.474,1.474,0,0,0-1.281.646A3.516,3.516,0,0,0-11.6,12.856Zm10.656,2.48A1.481,1.481,0,0,0,.07,14.992a1.2,1.2,0,0,0,.406-.914H2.594a2.9,2.9,0,0,1-.469,1.574A3.093,3.093,0,0,1,.863,16.762a3.949,3.949,0,0,1-1.77.395A3.67,3.67,0,0,1-3.766,16,4.56,4.56,0,0,1-4.812,12.82v-.148A4.508,4.508,0,0,1-3.773,9.555,3.627,3.627,0,0,1-.922,8.391a3.555,3.555,0,0,1,2.543.9,3.2,3.2,0,0,1,.973,2.4H.477A1.551,1.551,0,0,0,.07,10.623a1.354,1.354,0,0,0-1.031-.412,1.36,1.36,0,0,0-1.191.575,3.333,3.333,0,0,0-.4,1.866v.235a3.375,3.375,0,0,0,.4,1.878A1.377,1.377,0,0,0-.945,15.336Zm8.719,1.82a4.15,4.15,0,0,1-3.027-1.141,4.054,4.054,0,0,1-1.168-3.039v-.219A5.106,5.106,0,0,1,4.07,10.48,3.612,3.612,0,0,1,5.465,8.934a3.914,3.914,0,0,1,2.059-.543,3.508,3.508,0,0,1,2.73,1.094,4.444,4.444,0,0,1,1,3.1v.922H5.867a2.1,2.1,0,0,0,.66,1.328,2,2,0,0,0,1.395.5,2.437,2.437,0,0,0,2.039-.945l1.109,1.242A3.389,3.389,0,0,1,9.7,16.754,4.511,4.511,0,0,1,7.773,17.156Zm-.258-6.945a1.411,1.411,0,0,0-1.09.455,2.357,2.357,0,0,0-.535,1.3H9.031v-.181a1.681,1.681,0,0,0-.406-1.165A1.456,1.456,0,0,0,7.516,10.211Zm9.594,4.453a.727.727,0,0,0-.41-.652,4.659,4.659,0,0,0-1.316-.426q-3.016-.633-3.016-2.562A2.323,2.323,0,0,1,13.3,9.145a3.766,3.766,0,0,1,2.441-.754,4.053,4.053,0,0,1,2.574.758,2.388,2.388,0,0,1,.965,1.969H17.023a1.092,1.092,0,0,0-.312-.8A1.322,1.322,0,0,0,15.734,10a1.351,1.351,0,0,0-.883.258.814.814,0,0,0-.312.656.7.7,0,0,0,.355.605,3.657,3.657,0,0,0,1.2.4,9.8,9.8,0,0,1,1.422.379A2.336,2.336,0,0,1,19.3,14.57a2.2,2.2,0,0,1-.992,1.871,4.28,4.28,0,0,1-2.562.715,4.47,4.47,0,0,1-1.887-.379,3.166,3.166,0,0,1-1.293-1.039,2.414,2.414,0,0,1-.469-1.426h2.141a1.179,1.179,0,0,0,.445.922,1.766,1.766,0,0,0,1.109.32,1.635,1.635,0,0,0,.98-.246A.766.766,0,0,0,17.109,14.664Zm3.3-1.969a5.013,5.013,0,0,1,.484-2.242A3.546,3.546,0,0,1,22.285,8.93,4.069,4.069,0,0,1,24.4,8.391a3.849,3.849,0,0,1,2.793,1.047A4.2,4.2,0,0,1,28.4,12.281l.016.578a4.418,4.418,0,0,1-1.086,3.121,3.775,3.775,0,0,1-2.914,1.176A3.793,3.793,0,0,1,21.5,15.984a4.5,4.5,0,0,1-1.09-3.187Zm2.258.16a3.16,3.16,0,0,0,.453,1.843,1.628,1.628,0,0,0,2.578.008,3.457,3.457,0,0,0,.461-2.015A3.128,3.128,0,0,0,25.7,10.86a1.5,1.5,0,0,0-1.3-.649,1.474,1.474,0,0,0-1.281.646A3.516,3.516,0,0,0,22.664,12.856Z" transform="translate(752.695 3979.5)" fill="#12263f"/>
    <path id="Trazado_678348" data-name="Trazado 678348" d="M-24.164-4.164h-1.867V0h-2.344V-11.375h4.227a4.778,4.778,0,0,1,3.109.9,3.1,3.1,0,0,1,1.094,2.539A3.5,3.5,0,0,1-20.449-6a3.437,3.437,0,0,1-1.527,1.238l2.461,4.648V0h-2.516Zm-1.867-1.9h1.891a1.936,1.936,0,0,0,1.367-.449,1.606,1.606,0,0,0,.484-1.238,1.719,1.719,0,0,0-.457-1.266,1.9,1.9,0,0,0-1.4-.461h-1.883Zm12.781,5.2A2.831,2.831,0,0,1-15.562.156a2.67,2.67,0,0,1-2.074-.781,3.335,3.335,0,0,1-.73-2.289V-8.453h2.258v5.467q0,1.322,1.2,1.322a1.63,1.63,0,0,0,1.578-.8V-8.453h2.266V0h-2.125Zm6.594-9.672v2.078h1.445V-6.8H-6.656v4.219a1.007,1.007,0,0,0,.18.672.9.9,0,0,0,.688.2,3.6,3.6,0,0,0,.664-.055V-.047a4.648,4.648,0,0,1-1.367.2,2.156,2.156,0,0,1-2.422-2.4V-6.8h-1.234V-8.453h1.234v-2.078ZM.945,0A2.507,2.507,0,0,1,.719-.758,2.732,2.732,0,0,1-1.414.156,3,3,0,0,1-3.473-.562a2.312,2.312,0,0,1-.816-1.812,2.389,2.389,0,0,1,1-2.062A4.915,4.915,0,0,1-.414-5.164H.625v-.484a1.393,1.393,0,0,0-.3-.937,1.183,1.183,0,0,0-.949-.352,1.345,1.345,0,0,0-.895.273.929.929,0,0,0-.324.75H-4.1a2.268,2.268,0,0,1,.453-1.359,3,3,0,0,1,1.281-.98A4.669,4.669,0,0,1-.508-8.609a3.689,3.689,0,0,1,2.48.785,2.747,2.747,0,0,1,.918,2.207v3.664a4.041,4.041,0,0,0,.336,1.82V0ZM-.922-1.57A1.945,1.945,0,0,0,0-1.793a1.462,1.462,0,0,0,.625-.6V-3.844H-.219q-1.7,0-1.8,1.172l-.008.133a.9.9,0,0,0,.3.7A1.153,1.153,0,0,0-.922-1.57Zm9.18-2.719a5.094,5.094,0,0,1,.887-3.148A2.877,2.877,0,0,1,11.57-8.609a2.589,2.589,0,0,1,2.039.922V-12h2.266V0H13.836l-.109-.9A2.657,2.657,0,0,1,11.555.156,2.869,2.869,0,0,1,9.16-1.02,5.258,5.258,0,0,1,8.258-4.289Zm2.258.161A3.355,3.355,0,0,0,10.93-2.3a1.348,1.348,0,0,0,1.2.636,1.51,1.51,0,0,0,1.477-.887V-5.9a1.489,1.489,0,0,0-1.461-.887Q10.516-6.789,10.516-4.128Zm11,4.285A4.15,4.15,0,0,1,18.488-.984,4.054,4.054,0,0,1,17.32-4.023v-.219a5.106,5.106,0,0,1,.492-2.277,3.612,3.612,0,0,1,1.395-1.547,3.914,3.914,0,0,1,2.059-.543A3.508,3.508,0,0,1,24-7.516a4.444,4.444,0,0,1,1,3.1v.922H19.609a2.1,2.1,0,0,0,.66,1.328,2,2,0,0,0,1.395.5A2.437,2.437,0,0,0,23.7-2.609l1.109,1.242A3.389,3.389,0,0,1,23.438-.246,4.511,4.511,0,0,1,21.516.156Zm-.258-6.945a1.411,1.411,0,0,0-1.09.455,2.357,2.357,0,0,0-.535,1.3h3.141v-.181a1.681,1.681,0,0,0-.406-1.165A1.456,1.456,0,0,0,21.258-6.789ZM-15.8,15.242l1.57-5.7h2.359L-14.719,18h-2.156l-2.852-8.453h2.359ZM-6.094,18a2.507,2.507,0,0,1-.227-.758,2.732,2.732,0,0,1-2.133.914,3,3,0,0,1-2.059-.719,2.312,2.312,0,0,1-.816-1.812,2.389,2.389,0,0,1,1-2.062,4.915,4.915,0,0,1,2.879-.727h1.039v-.484a1.393,1.393,0,0,0-.3-.937,1.183,1.183,0,0,0-.949-.352,1.345,1.345,0,0,0-.895.273.929.929,0,0,0-.324.75h-2.258a2.268,2.268,0,0,1,.453-1.359,3,3,0,0,1,1.281-.98,4.669,4.669,0,0,1,1.859-.355,3.689,3.689,0,0,1,2.48.785,2.747,2.747,0,0,1,.918,2.207v3.664a4.041,4.041,0,0,0,.336,1.82V18Zm-1.867-1.57a1.945,1.945,0,0,0,.922-.223,1.462,1.462,0,0,0,.625-.6V14.156h-.844q-1.7,0-1.8,1.172l-.008.133a.9.9,0,0,0,.3.7A1.153,1.153,0,0,0-7.961,16.43ZM-.031,18H-2.3V6H-.031Zm1.508-4.3a5.013,5.013,0,0,1,.484-2.242A3.546,3.546,0,0,1,3.355,9.93a4.069,4.069,0,0,1,2.113-.539,3.849,3.849,0,0,1,2.793,1.047,4.2,4.2,0,0,1,1.207,2.844l.016.578A4.418,4.418,0,0,1,8.4,16.98a3.775,3.775,0,0,1-2.914,1.176,3.793,3.793,0,0,1-2.918-1.172A4.5,4.5,0,0,1,1.477,13.8Zm2.258.16A3.16,3.16,0,0,0,4.188,15.7a1.5,1.5,0,0,0,1.3.638,1.5,1.5,0,0,0,1.281-.63,3.457,3.457,0,0,0,.461-2.015,3.128,3.128,0,0,0-.461-1.831,1.5,1.5,0,0,0-1.3-.649,1.474,1.474,0,0,0-1.281.646A3.516,3.516,0,0,0,3.734,13.856Zm11.891-2.192a6.134,6.134,0,0,0-.812-.062,1.654,1.654,0,0,0-1.68.867V18H10.875V9.547h2.133l.063,1.008a2.092,2.092,0,0,1,1.883-1.164,2.366,2.366,0,0,1,.7.1Z" transform="translate(459.562 4106)" fill="#12263f"/>
    <path id="Trazado_678351" data-name="Trazado 678351" d="M9.945-3.789A4.025,4.025,0,0,1,8.59-.9,4.76,4.76,0,0,1,5.367.156,4.28,4.28,0,0,1,1.926-1.316,6.038,6.038,0,0,1,.672-5.359v-.7A6.819,6.819,0,0,1,1.25-8.945,4.332,4.332,0,0,1,2.9-10.863a4.629,4.629,0,0,1,2.5-.668A4.637,4.637,0,0,1,8.57-10.477,4.326,4.326,0,0,1,9.961-7.516H7.617A2.376,2.376,0,0,0,7-9.113a2.271,2.271,0,0,0-1.605-.5,1.991,1.991,0,0,0-1.754.84,4.707,4.707,0,0,0-.6,2.605V-5.3a5.038,5.038,0,0,0,.559,2.7,1.954,1.954,0,0,0,1.762.852,2.314,2.314,0,0,0,1.621-.5A2.241,2.241,0,0,0,7.6-3.789ZM13.719,0H11.453V-12h2.266Zm4.242,0H15.7V-8.453h2.266Zm-2.4-10.641a1.112,1.112,0,0,1,.34-.836,1.277,1.277,0,0,1,.926-.328,1.28,1.28,0,0,1,.922.328,1.105,1.105,0,0,1,.344.836,1.108,1.108,0,0,1-.348.844,1.283,1.283,0,0,1-.918.328A1.283,1.283,0,0,1,15.91-9.8,1.108,1.108,0,0,1,15.563-10.641ZM23.711.156A4.15,4.15,0,0,1,20.684-.984a4.054,4.054,0,0,1-1.168-3.039v-.219a5.106,5.106,0,0,1,.492-2.277A3.612,3.612,0,0,1,21.4-8.066a3.914,3.914,0,0,1,2.059-.543,3.508,3.508,0,0,1,2.73,1.094,4.444,4.444,0,0,1,1,3.1v.922H21.8a2.1,2.1,0,0,0,.66,1.328,2,2,0,0,0,1.395.5A2.437,2.437,0,0,0,25.9-2.609l1.109,1.242A3.389,3.389,0,0,1,25.633-.246,4.511,4.511,0,0,1,23.711.156Zm-.258-6.945a1.411,1.411,0,0,0-1.09.455,2.357,2.357,0,0,0-.535,1.3h3.141v-.181a1.681,1.681,0,0,0-.406-1.165A1.456,1.456,0,0,0,23.453-6.789Zm7.094-1.664.07.977a2.951,2.951,0,0,1,2.43-1.133,2.453,2.453,0,0,1,2,.789,3.682,3.682,0,0,1,.672,2.359V0H33.461V-5.419a1.47,1.47,0,0,0-.312-1.045,1.4,1.4,0,0,0-1.039-.325,1.553,1.553,0,0,0-1.43.814V0H28.422V-8.453Zm9.586-2.078v2.078h1.445V-6.8H40.133v4.219a1.007,1.007,0,0,0,.18.672A.9.9,0,0,0,41-1.7a3.6,3.6,0,0,0,.664-.055V-.047a4.648,4.648,0,0,1-1.367.2,2.156,2.156,0,0,1-2.422-2.4V-6.8H36.641V-8.453h1.234v-2.078ZM46.727.156A4.15,4.15,0,0,1,43.7-.984a4.054,4.054,0,0,1-1.168-3.039v-.219a5.106,5.106,0,0,1,.492-2.277,3.612,3.612,0,0,1,1.395-1.547,3.914,3.914,0,0,1,2.059-.543,3.508,3.508,0,0,1,2.73,1.094,4.444,4.444,0,0,1,1,3.1v.922H44.82a2.1,2.1,0,0,0,.66,1.328,2,2,0,0,0,1.395.5,2.437,2.437,0,0,0,2.039-.945l1.109,1.242A3.389,3.389,0,0,1,48.648-.246,4.511,4.511,0,0,1,46.727.156Zm-.258-6.945a1.411,1.411,0,0,0-1.09.455,2.357,2.357,0,0,0-.535,1.3h3.141v-.181a1.681,1.681,0,0,0-.406-1.165A1.456,1.456,0,0,0,46.469-6.789Z" transform="translate(432 4369)" fill="#12263f"/>
  </g>
</svg>
