<svg xmlns="http://www.w3.org/2000/svg" width="105" height="104.465" viewBox="0 0 105 104.465">
  <g id="Grupo_1009734" data-name="Grupo 1009734" transform="translate(-180 -6477.234)">
    <path id="Trazado_626454" data-name="Trazado 626454" d="M0,0H105V104.465H0Z" transform="translate(180 6477.234)" fill="#f0bd51"/>
    <g id="competencia" transform="translate(192.101 6495.95)">
      <path id="Trazado_660343" data-name="Trazado 660343" d="M37.771,250.464a1.338,1.338,0,0,0-1.337,1.337v21.145H58.955V250.464Zm0,0" transform="translate(-30.909 -212.485)" fill="#54a0ff"/>
      <path id="Trazado_660344" data-name="Trazado 660344" d="M42.285,250.465H37.771a1.338,1.338,0,0,0-1.337,1.337v21.145h4.514V251.8A1.338,1.338,0,0,1,42.285,250.465Zm0,0" transform="translate(-30.909 -212.486)" fill="#338def"/>
      <path id="Trazado_660345" data-name="Trazado 660345" d="M348.652,306.906H327.469V320.83h22.52V308.243a1.337,1.337,0,0,0-1.337-1.337Zm0,0" transform="translate(-277.813 -260.368)" fill="#ff6b6b"/>
      <path id="Trazado_660346" data-name="Trazado 660346" d="M327.469,306.906h4.514V320.83h-4.514Zm0,0" transform="translate(-277.813 -260.368)" fill="#ee5253"/>
      <path id="Trazado_660347" data-name="Trazado 660347" d="M381.356,151.221a4.651,4.651,0,1,1-4.651-4.651A4.651,4.651,0,0,1,381.356,151.221Zm0,0" transform="translate(-315.638 -124.345)" fill="#ffcdbf"/>
      <path id="Trazado_660348" data-name="Trazado 660348" d="M362.755,207.914h-5.264a5,5,0,0,0-4.983,4.983v5.773a.849.849,0,0,0,.849.849h13.532a.848.848,0,0,0,.849-.849V212.9A5,5,0,0,0,362.755,207.914Zm0,0" transform="translate(-299.055 -176.387)" fill="#ff6b6b"/>
      <path id="Trazado_660349" data-name="Trazado 660349" d="M355.541,218.67V212.9a5,5,0,0,1,4.983-4.983h-3.033a5,5,0,0,0-4.983,4.983v5.773a.849.849,0,0,0,.849.849h3.033A.849.849,0,0,1,355.541,218.67Zm0,0" transform="translate(-299.055 -176.387)" fill="#ee5253"/>
      <path id="Trazado_660350" data-name="Trazado 660350" d="M203.832,167.906H184.29a1.337,1.337,0,0,0-1.337,1.338v33.663H205.17V169.244a1.338,1.338,0,0,0-1.337-1.338Zm0,0" transform="translate(-155.211 -142.446)" fill="#feca57"/>
      <path id="Trazado_660351" data-name="Trazado 660351" d="M188.8,167.906h-4.514a1.337,1.337,0,0,0-1.337,1.338v33.663h4.514V169.244A1.338,1.338,0,0,1,188.8,167.906Zm0,0" transform="translate(-155.211 -142.446)" fill="#f4b537"/>
      <path id="Trazado_660352" data-name="Trazado 660352" d="M81.482,402.861H9.3a1.6,1.6,0,0,1-1.592-1.592v-1.948A1.6,1.6,0,0,1,9.3,397.73H81.482a1.6,1.6,0,0,1,1.592,1.592v1.948A1.6,1.6,0,0,1,81.482,402.861Zm0,0" transform="translate(-6.542 -337.42)" fill="#3e4b5a"/>
      <path id="Trazado_660353" data-name="Trazado 660353" d="M12.376,401.27v-1.948a1.6,1.6,0,0,1,1.592-1.592H9.3a1.6,1.6,0,0,0-1.592,1.592v1.948A1.6,1.6,0,0,0,9.3,402.862h4.665A1.6,1.6,0,0,1,12.376,401.27Zm0,0" transform="translate(-6.542 -337.42)" fill="#303f49"/>
      <path id="Trazado_660354" data-name="Trazado 660354" d="M234.935,12.225a4.651,4.651,0,1,1-4.651-4.651A4.651,4.651,0,0,1,234.935,12.225Zm0,0" transform="translate(-191.419 -6.426)" fill="#ffcdbf"/>
      <path id="Trazado_660355" data-name="Trazado 660355" d="M216.333,68.914h-5.264a5,5,0,0,0-4.983,4.983V79.67a.849.849,0,0,0,.849.849h13.532a.849.849,0,0,0,.849-.849V73.9a5,5,0,0,0-4.983-4.983Zm0,0" transform="translate(-174.836 -58.464)" fill="#feca57"/>
      <path id="Trazado_660356" data-name="Trazado 660356" d="M209.119,79.67V73.9a5,5,0,0,1,4.983-4.983h-3.033a5,5,0,0,0-4.983,4.983V79.67a.849.849,0,0,0,.849.849h3.033A.849.849,0,0,1,209.119,79.67Zm0,0" transform="translate(-174.836 -58.465)" fill="#f4b537"/>
      <path id="Trazado_660357" data-name="Trazado 660357" d="M88.324,94.826a4.651,4.651,0,1,1-4.651-4.65A4.651,4.651,0,0,1,88.324,94.826Zm0,0" transform="translate(-67.041 -76.502)" fill="#ffcdbf"/>
      <g id="Grupo_987022" data-name="Grupo 987022" transform="translate(11.983 1.148)">
        <path id="Trazado_660358" data-name="Trazado 660358" d="M376.664,151.221a4.648,4.648,0,0,1,2.346-4.039,4.651,4.651,0,1,0,0,8.078,4.648,4.648,0,0,1-2.346-4.039Zm0,0" transform="translate(-327.621 -125.493)" fill="#ffbeab"/>
        <path id="Trazado_660359" data-name="Trazado 660359" d="M230.242,12.225a4.646,4.646,0,0,1,2.346-4.039,4.65,4.65,0,1,0,0,8.078,4.648,4.648,0,0,1-2.346-4.039Zm0,0" transform="translate(-203.401 -7.574)" fill="#ffbeab"/>
        <path id="Trazado_660360" data-name="Trazado 660360" d="M83.632,94.826a4.648,4.648,0,0,1,2.346-4.039,4.651,4.651,0,1,0,0,8.078,4.646,4.646,0,0,1-2.346-4.039Zm0,0" transform="translate(-79.023 -77.651)" fill="#ffbeab"/>
      </g>
      <path id="Trazado_660361" data-name="Trazado 660361" d="M69.72,151.516H64.456a5,5,0,0,0-4.983,4.983v5.773a.849.849,0,0,0,.849.849H73.854a.849.849,0,0,0,.849-.849V156.5A5,5,0,0,0,69.72,151.516Zm0,0" transform="translate(-50.455 -128.541)" fill="#54a0ff"/>
      <path id="Trazado_660362" data-name="Trazado 660362" d="M62.506,162.271V156.5a5,5,0,0,1,4.983-4.983H64.456a5,5,0,0,0-4.983,4.983v5.773a.849.849,0,0,0,.849.848h3.033A.848.848,0,0,1,62.506,162.271Zm0,0" transform="translate(-50.455 -128.54)" fill="#338def"/>
      <path id="Trazado_660363" data-name="Trazado 660363" d="M344.8,154.422v5.773a1.988,1.988,0,0,0,1.986,1.986h13.533a1.988,1.988,0,0,0,1.986-1.986v-5.773a6.13,6.13,0,0,0-4.367-5.863,5.788,5.788,0,1,0-8.772,0,6.13,6.13,0,0,0-4.367,5.863Zm8.752-13.147a3.513,3.513,0,0,1,.006,7.027h-.011a3.513,3.513,0,0,1,.005-7.027Zm-6.478,13.147a3.851,3.851,0,0,1,3.846-3.846h5.264a3.851,3.851,0,0,1,3.846,3.846v5.484h-1.557v-5.663a1.137,1.137,0,1,0-2.275,0v5.663H350.9v-5.663a1.137,1.137,0,1,0-2.275,0v5.663h-1.557Zm0,0" transform="translate(-292.514 -117.923)"/>
      <path id="Trazado_660364" data-name="Trazado 660364" d="M198.375,15.422v5.773a1.988,1.988,0,0,0,1.986,1.986h13.532a1.989,1.989,0,0,0,1.987-1.986V15.422a6.131,6.131,0,0,0-4.367-5.863,5.788,5.788,0,1,0-8.772,0A6.13,6.13,0,0,0,198.375,15.422Zm8.752-13.147a3.514,3.514,0,1,1-3.513,3.514,3.518,3.518,0,0,1,3.513-3.514ZM200.65,15.422a3.85,3.85,0,0,1,3.846-3.845h5.264a3.85,3.85,0,0,1,3.845,3.845v5.484h-1.557V15.243a1.137,1.137,0,1,0-2.275,0v5.663h-5.293V15.243a1.137,1.137,0,0,0-2.275,0v5.663H200.65Zm0,0" transform="translate(-168.294 0)"/>
      <path id="Trazado_660365" data-name="Trazado 660365" d="M51.762,98.024V103.8a1.989,1.989,0,0,0,1.987,1.986H67.281a1.988,1.988,0,0,0,1.986-1.986V98.024A6.13,6.13,0,0,0,64.9,92.161a5.788,5.788,0,1,0-8.772,0,6.13,6.13,0,0,0-4.367,5.863Zm8.753-13.147a3.513,3.513,0,0,1,0,7.027h-.006a3.513,3.513,0,0,1,0-7.027ZM54.037,98.024a3.85,3.85,0,0,1,3.845-3.845h5.264a3.85,3.85,0,0,1,3.846,3.845v5.484H65.436V97.845a1.137,1.137,0,0,0-2.275,0v5.663H57.867V97.845a1.137,1.137,0,0,0-2.275,0v5.663H54.037Zm0,0" transform="translate(-43.913 -70.077)"/>
      <path id="Trazado_660366" data-name="Trazado 660366" d="M245.78,205.8a.552.552,0,0,0-.293.07l-1.333.809a.6.6,0,0,0-.293.535c0,.443.377.793.748.546l.293-.182v5.143c0,.646,1.576.646,1.576,0V206.3C246.477,205.993,246.1,205.8,245.78,205.8Zm0,0" transform="translate(-206.882 -174.594)"/>
      <path id="Trazado_660367" data-name="Trazado 660367" d="M94.54,304.06a2.182,2.182,0,0,0-2.354-2.091,2.091,2.091,0,0,0-2.283,1.939c0,.637.3.819.707.819.515,0,.829-.283.829-.576a.689.689,0,0,1,.758-.758.7.7,0,0,1,.768.717c0,1.283-3.183,2.192-3.183,3.778v.98c0,.293.4.485.687.485h3.6c.252,0,.475-.333.475-.7s-.223-.677-.475-.677H91.418v-.091c0-.919,3.122-1.637,3.122-3.829Zm0,0" transform="translate(-76.167 -256.18)"/>
      <path id="Trazado_660368" data-name="Trazado 660368" d="M389.655,335.416c-.455,0-.9-.111-.9-.586,0-.384-.162-.525-.809-.525-.556,0-.747.121-.747.576,0,.849.667,1.91,2.4,1.91,1.414,0,2.556-.627,2.556-2.283v-.192a1.464,1.464,0,0,0-1.03-1.485,1.775,1.775,0,0,0,.778-1.657c0-1.364-.97-1.829-2.253-1.829-1.738,0-2.3,1.021-2.3,1.808,0,.485.091.637.819.637.586,0,.737-.232.737-.576,0-.394.253-.515.748-.515.414,0,.747.142.747.727,0,.818-.4.869-.788.869-.344,0-.455.3-.455.606s.111.606.455.606c.556,0,.97.131.97.809v.192C390.584,335.164,390.342,335.416,389.655,335.416Zm0,0" transform="translate(-328.487 -279.404)"/>
      <path id="Trazado_660369" data-name="Trazado 660369" d="M74.908,195.336H73.282v-3.171a1.137,1.137,0,1,0-2.275,0v3.171H51.064V183.687H70.807a.2.2,0,0,1,.2.2v2.971a1.137,1.137,0,0,0,2.275,0v-2.971a2.477,2.477,0,0,0-2.475-2.475H51.064v-18.6a2.477,2.477,0,0,0-2.475-2.475H29.047a2.477,2.477,0,0,0-2.475,2.475v10.044H6.83a2.478,2.478,0,0,0-2.475,2.475v20.008H2.729A2.732,2.732,0,0,0,0,198.065v1.8a2.732,2.732,0,0,0,2.729,2.729H35.9a1.137,1.137,0,0,0,0-2.275H2.729a.461.461,0,0,1-.455-.455v-1.8a.461.461,0,0,1,.455-.455H74.908a.461.461,0,0,1,.455.455v1.8a.461.461,0,0,1-.455.455h-33.7a1.137,1.137,0,0,0,0,2.275h33.7a2.732,2.732,0,0,0,2.729-2.729v-1.8a2.732,2.732,0,0,0-2.729-2.729ZM6.63,175.329a.2.2,0,0,1,.2-.2H26.573v20.207H6.63ZM28.847,162.81a.2.2,0,0,1,.2-.2H48.59a.2.2,0,0,1,.2.2v32.526H28.847V162.81Zm0,0" transform="translate(0 -136.023)"/>
    </g>
  </g>
</svg>
