<svg xmlns="http://www.w3.org/2000/svg" width="70" height="70" viewBox="0 0 70 70">
  <g id="Grupo_979673" data-name="Grupo 979673" transform="translate(-898.567 -5052.575)">
    <g id="Grupo_979672" data-name="Grupo 979672" transform="translate(898.567 5052.575)">
      <g id="Grupo_979670" data-name="Grupo 979670" transform="translate(1.129 1.129)">
        <g id="Grupo_979652" data-name="Grupo 979652" transform="translate(42.903)">
          <circle id="Elipse_4726" data-name="Elipse 4726" cx="12.419" cy="12.419" r="12.419" fill="#ffeaa7"/>
        </g>
        <g id="Grupo_979653" data-name="Grupo 979653" transform="translate(36.129 49.677)">
          <path id="Trazado_654552" data-name="Trazado 654552" d="M961,5137.707h20.323v18.064H961Z" transform="translate(-960.997 -5137.707)" fill="#d3a06c"/>
        </g>
        <g id="Grupo_979654" data-name="Grupo 979654" transform="translate(46.29 38.387)">
          <path id="Trazado_654553" data-name="Trazado 654553" d="M978.024,5118.789h20.323v18.064H978.024Z" transform="translate(-978.024 -5118.789)" fill="#d3a06c"/>
        </g>
        <g id="Grupo_979655" data-name="Grupo 979655" transform="translate(18.843 27.097)">
          <path id="Trazado_654554" data-name="Trazado 654554" d="M943.673,5131.483h-1.129a8.161,8.161,0,0,0-5.283-7.632l-2.36-.881a8.31,8.31,0,0,0-2.868-.52H936.9a11.294,11.294,0,0,0,11.291-11.29v-11.29h4.516v18.064a13.581,13.581,0,0,1-.768,4.516h-2.619v7.079a2.255,2.255,0,0,0-1.129-.3H948a2.266,2.266,0,0,0-1.6.666l-1.92,1.92A1.141,1.141,0,0,0,943.673,5131.483Z" transform="translate(-932.033 -5099.871)" fill="#656d78"/>
        </g>
        <g id="Grupo_979656" data-name="Grupo 979656" transform="translate(1.129 27.097)">
          <path id="Trazado_654555" data-name="Trazado 654555" d="M918.157,5122.451h1.129a4.515,4.515,0,0,0-4.516,4.517v4.471a13.553,13.553,0,0,1-12.42-13.5v-18.064h4.517v11.29A11.294,11.294,0,0,0,918.157,5122.451Z" transform="translate(-902.35 -5099.871)" fill="#656d78"/>
        </g>
        <g id="Grupo_979657" data-name="Grupo 979657" transform="translate(53.064 38.387)">
          <path id="Trazado_654556" data-name="Trazado 654556" d="M989.375,5118.789h6.774v4.516h-6.774Z" transform="translate(-989.375 -5118.789)" fill="#b27946"/>
        </g>
        <g id="Grupo_979658" data-name="Grupo 979658" transform="translate(42.903 49.677)">
          <path id="Trazado_654557" data-name="Trazado 654557" d="M979.122,5137.707v4.517h-6.774v-4.517h6.774Z" transform="translate(-972.348 -5137.707)" fill="#b27946"/>
        </g>
        <g id="Grupo_979659" data-name="Grupo 979659" transform="translate(22.58 6.775)">
          <path id="Trazado_654558" data-name="Trazado 654558" d="M954.1,5081.624h-6.774v-7.9a1.132,1.132,0,0,0-1.129-1.129h-2.258a1.132,1.132,0,0,0-1.129,1.129v7.9h-4.516v-15.806A15.809,15.809,0,0,1,954.1,5081.624Z" transform="translate(-938.295 -5065.818)" fill="#ffeaa7"/>
        </g>
        <g id="Grupo_979660" data-name="Grupo 979660" transform="translate(2.258 6.775)">
          <path id="Trazado_654559" data-name="Trazado 654559" d="M920.049,5065.818v15.806h-4.516v-7.9a1.132,1.132,0,0,0-1.129-1.129h-2.258a1.132,1.132,0,0,0-1.129,1.129v7.9h-6.774A15.809,15.809,0,0,1,920.049,5065.818Z" transform="translate(-904.242 -5065.818)" fill="#ffeaa7"/>
        </g>
        <g id="Grupo_979661" data-name="Grupo 979661" transform="translate(27.097 13.549)">
          <path id="Trazado_654560" data-name="Trazado 654560" d="M950.379,5078.3v7.9h-4.516v-7.9a1.132,1.132,0,0,1,1.129-1.128h2.258A1.132,1.132,0,0,1,950.379,5078.3Z" transform="translate(-945.863 -5077.169)" fill="#fcd770"/>
        </g>
        <g id="Grupo_979662" data-name="Grupo 979662" transform="translate(18.064 4.516)">
          <path id="Trazado_654561" data-name="Trazado 654561" d="M935.244,5064.292V5080.1h-4.516v-16.936a1.132,1.132,0,0,1,1.129-1.129h2.258a1.132,1.132,0,0,1,1.129,1.129Z" transform="translate(-930.728 -5062.034)" fill="#fcd770"/>
        </g>
        <g id="Grupo_979663" data-name="Grupo 979663" transform="translate(9.032 13.549)">
          <path id="Trazado_654562" data-name="Trazado 654562" d="M920.109,5078.3v7.9h-4.516v-7.9a1.132,1.132,0,0,1,1.129-1.128h2.258A1.132,1.132,0,0,1,920.109,5078.3Z" transform="translate(-915.593 -5077.169)" fill="#fcd770"/>
        </g>
        <g id="Grupo_979664" data-name="Grupo 979664" transform="translate(0 22.581)">
          <path id="Trazado_654563" data-name="Trazado 654563" d="M941.1,5093.432v2.259a1.133,1.133,0,0,1-1.129,1.129H901.588a1.133,1.133,0,0,1-1.129-1.129v-2.259a1.133,1.133,0,0,1,1.129-1.129h38.387A1.133,1.133,0,0,1,941.1,5093.432Z" transform="translate(-900.459 -5092.303)" fill="#fcd770"/>
        </g>
        <g id="Grupo_979665" data-name="Grupo 979665" transform="translate(13.548 49.677)">
          <path id="Trazado_654564" data-name="Trazado 654564" d="M940.9,5147.067a1.142,1.142,0,0,1,.328.8v6.774a1.132,1.132,0,0,1-1.129,1.129H929.935a6.779,6.779,0,0,1-6.774-6.774v-6.774a4.516,4.516,0,1,1,9.032,0v4.516h7.9A1.141,1.141,0,0,1,940.9,5147.067Z" transform="translate(-923.161 -5137.707)" fill="#b4dd7f"/>
        </g>
        <g id="Grupo_979666" data-name="Grupo 979666" transform="translate(18.064 49.677)">
          <path id="Trazado_654565" data-name="Trazado 654565" d="M936.735,5139.107a8.161,8.161,0,0,1,5.283,7.632h-6.774v-4.516a4.51,4.51,0,0,0-4.516-4.517h.779a8.311,8.311,0,0,1,2.868.52Z" transform="translate(-930.728 -5137.707)" fill="#b4dd7f"/>
        </g>
        <g id="Grupo_979667" data-name="Grupo 979667" transform="translate(31.285 56.452)">
          <path id="Trazado_654566" data-name="Trazado 654566" d="M957.724,5149.363a2.254,2.254,0,0,1,1.129,1.954h1.129a2.265,2.265,0,0,1,2.258,2.258,4.51,4.51,0,0,1-4.516,4.516h-4.516v-5.645a1.143,1.143,0,0,0-.328-.8l1.92-1.92a2.268,2.268,0,0,1,1.6-.666h.192A2.249,2.249,0,0,1,957.724,5149.363Z" transform="translate(-952.881 -5149.058)" fill="#f0d0b4"/>
        </g>
        <g id="Grupo_979668" data-name="Grupo 979668" transform="translate(5.645 27.097)">
          <path id="Trazado_654567" data-name="Trazado 654567" d="M939.273,5099.871v11.29a11.294,11.294,0,0,1-11.291,11.29h-6.774a11.294,11.294,0,0,1-11.29-11.29v-11.29Z" transform="translate(-909.918 -5099.871)" fill="#f0d0b4"/>
        </g>
        <g id="Grupo_979669" data-name="Grupo 979669" transform="translate(14.677 40.646)">
          <path id="Trazado_654568" data-name="Trazado 654568" d="M936.343,5122.573l-.034.135a5.784,5.784,0,0,1-11.223,0l-.034-.135Z" transform="translate(-925.052 -5122.573)" fill="#ff826e"/>
        </g>
      </g>
      <g id="Grupo_979671" data-name="Grupo 979671">
        <path id="Trazado_654569" data-name="Trazado 654569" d="M936.427,5122.218l.385-1.537H922.629l.384,1.537a6.913,6.913,0,0,0,13.414,0Zm-10.7.721h7.983a4.657,4.657,0,0,1-7.983,0Z" transform="translate(-908.269 -5080.036)"/>
        <path id="Trazado_654570" data-name="Trazado 654570" d="M944.857,5105.3h-4.919a14.728,14.728,0,0,0,.4-3.387v-17.249a2.252,2.252,0,0,0,1.129-1.944v-2.258a2.26,2.26,0,0,0-2.258-2.258h-.058a16.932,16.932,0,0,0-15.749-15.749v-.057a2.261,2.261,0,0,0-2.258-2.259H918.89a2.261,2.261,0,0,0-2.258,2.259v.057a16.932,16.932,0,0,0-15.749,15.749h-.058a2.26,2.26,0,0,0-2.258,2.258v2.258a2.251,2.251,0,0,0,1.129,1.944v17.249a14.756,14.756,0,0,0,12.419,14.491v1.314a7.913,7.913,0,0,0,7.9,7.9H930.18a2.26,2.26,0,0,0,2.258-2.258H934.7v2.258h22.58v-11.291h10.162v-20.323H944.857Zm-1.129,2.259h4.517v2.258h-4.517ZM934.7,5105.3v6.774H934.5a3.372,3.372,0,0,0-2.4.992l-1.351,1.351a2.206,2.206,0,0,0-.577-.084h-.088a9.33,9.33,0,0,0-4.647-6.956,12.43,12.43,0,0,0,10.38-12.238V5084.98h2.258v16.936a12.37,12.37,0,0,1-.476,3.387Zm-11.743,3.436.414.156a7.054,7.054,0,0,1,4.456,5.441H923.4v-3.388a5.6,5.6,0,0,0-.45-2.209Zm-5.193-3.436h-1.129a10.173,10.173,0,0,1-10.161-10.161V5084.98h27.1v10.161a10.173,10.173,0,0,1-10.162,10.161H917.76Zm19.136-27.1h-4.459v-6.774a2.261,2.261,0,0,0-2.258-2.258h-2.258a2.261,2.261,0,0,0-2.258,2.258v6.774h-2.258v-13.49A14.68,14.68,0,0,1,936.9,5078.206Zm-6.717,0h-2.258v-6.774h2.258Zm-9.032-15.806v15.806H918.89V5062.4Zm-4.516,2.315v13.49h-2.258v-6.774a2.26,2.26,0,0,0-2.258-2.258h-2.258a2.261,2.261,0,0,0-2.258,2.258v6.774h-4.458A14.679,14.679,0,0,1,916.631,5064.716Zm-4.516,13.49h-2.258v-6.774h2.258Zm-11.291,2.258h38.387v2.258H900.825Zm1.129,21.452V5084.98h2.258v10.161a12.432,12.432,0,0,0,9.38,12.028,5.586,5.586,0,0,0-1.477,3.776v3.182A12.494,12.494,0,0,1,901.954,5101.916Zm18.065,21.45a5.652,5.652,0,0,1-5.646-5.645v-6.775a3.383,3.383,0,0,1,3.375-3.385h.024a3.384,3.384,0,0,1,3.375,3.386v4.175l-2.067,3.1,1.879,1.252,1.92-2.884h7.3v6.774Zm12.334-7.35,1.351-1.351a1.125,1.125,0,0,1,.8-.331h.193a1.13,1.13,0,0,1,1.129,1.129v1.129h2.258a1.13,1.13,0,0,1,1.129,1.129,3.391,3.391,0,0,1-3.387,3.387h-3.387v-4.516A2.217,2.217,0,0,0,932.353,5116.017Zm22.666,7.351H936.954v-.114a5.656,5.656,0,0,0,4.517-5.531,3.392,3.392,0,0,0-3.387-3.387h-.193a3.392,3.392,0,0,0-.936-1.383v-5.391h4.517v4.516H950.5v-4.516h4.516Zm-1.129-27.1h4.516v2.257H953.89Zm-2.258,0v4.516h9.032v-4.516h4.516v15.806h-7.9V5105.3H947.115v-9.031Z" transform="translate(-898.567 -5055.626)"/>
        <path id="Trazado_654571" data-name="Trazado 654571" d="M984.005,5079.672a13.548,13.548,0,1,0-13.548-13.549A13.564,13.564,0,0,0,984.005,5079.672Zm0-24.839a11.29,11.29,0,1,1-11.291,11.291A11.3,11.3,0,0,1,984.005,5054.833Z" transform="translate(-927.554 -5052.575)"/>
        <path id="Trazado_654572" data-name="Trazado 654572" d="M995.615,5067.968l-1.6-1.6-9.363,9.363-2.589-2.588-1.6,1.6,4.185,4.186Z" transform="translate(-931.591 -5058.138)"/>
        <path id="Trazado_654573" data-name="Trazado 654573" d="M976.132,5101.762h20.323v2.258H976.132Z" transform="translate(-929.842 -5072.407)"/>
        <path id="Trazado_654574" data-name="Trazado 654574" d="M976.132,5109.33h20.323v2.257H976.132Z" transform="translate(-929.842 -5075.459)"/>
        <path id="Trazado_654575" data-name="Trazado 654575" d="M922.367,5110.062h2.258a4.516,4.516,0,0,0-9.032,0h2.258a2.258,2.258,0,0,1,4.516,0Z" transform="translate(-905.432 -5073.934)"/>
        <path id="Trazado_654576" data-name="Trazado 654576" d="M942.811,5107.8a2.26,2.26,0,0,1,2.258,2.258h2.258a4.516,4.516,0,0,0-9.032,0h2.258A2.26,2.26,0,0,1,942.811,5107.8Z" transform="translate(-914.586 -5073.934)"/>
      </g>
    </g>
  </g>
</svg>
