<svg xmlns="http://www.w3.org/2000/svg" width="505" height="258.474" viewBox="0 0 505 258.474">
  <g id="Grupo_950148" data-name="Grupo 950148" transform="translate(-354.407 -4834.479)">
    <g id="Grupo_949825" data-name="Grupo 949825" transform="translate(363.011 4992.091)">
      <g id="Grupo_949824" data-name="Grupo 949824">
        <rect id="Rectángulo_308950" data-name="Rectángulo 308950" width="100.684" height="79.542" transform="translate(0 0.215)" fill="#ebebeb"/>
        <g id="Grupo_949823" data-name="Grupo 949823" transform="translate(75.259)">
          <path id="Trazado_628277" data-name="Trazado 628277" d="M463.992,5126.752c-.11,0-.2-17.729-.2-39.6s.09-39.6.2-39.6.2,17.726.2,39.6S464.1,5126.752,463.992,5126.752Z" transform="translate(-463.792 -5047.557)" fill="#e0e0e0"/>
        </g>
        <rect id="Rectángulo_308951" data-name="Rectángulo 308951" width="7.719" height="8.938" transform="translate(84.429 61.652)" fill="#fafafa"/>
        <rect id="Rectángulo_308952" data-name="Rectángulo 308952" width="11.437" height="16.973" transform="translate(30.716 0.42)" fill="#e0e0e0"/>
        <rect id="Rectángulo_308953" data-name="Rectángulo 308953" width="11.437" height="16.972" transform="translate(30.716 62.548)" fill="#e0e0e0"/>
      </g>
    </g>
    <g id="Grupo_949828" data-name="Grupo 949828" transform="translate(378.757 4912.73)">
      <g id="Grupo_949827" data-name="Grupo 949827">
        <rect id="Rectángulo_308954" data-name="Rectángulo 308954" width="100.685" height="79.542" transform="translate(0 0.215)" fill="#ebebeb"/>
        <g id="Grupo_949826" data-name="Grupo 949826" transform="translate(75.259)">
          <path id="Trazado_628278" data-name="Trazado 628278" d="M484.529,5025.7c-.11,0-.2-17.731-.2-39.6s.089-39.6.2-39.6.2,17.726.2,39.6S484.64,5025.7,484.529,5025.7Z" transform="translate(-484.33 -4946.5)" fill="#e0e0e0"/>
        </g>
        <rect id="Rectángulo_308955" data-name="Rectángulo 308955" width="7.719" height="8.938" transform="translate(84.429 61.652)" fill="#fafafa"/>
        <rect id="Rectángulo_308956" data-name="Rectángulo 308956" width="11.437" height="16.973" transform="translate(30.716 0.42)" fill="#e0e0e0"/>
        <rect id="Rectángulo_308957" data-name="Rectángulo 308957" width="11.437" height="16.972" transform="translate(30.716 62.548)" fill="#e0e0e0"/>
      </g>
    </g>
    <g id="Grupo_949831" data-name="Grupo 949831" transform="translate(391.564 4849.02)">
      <g id="Grupo_949830" data-name="Grupo 949830">
        <rect id="Rectángulo_308958" data-name="Rectángulo 308958" width="80.958" height="63.958" transform="translate(0 0.173)" fill="#f5f5f5"/>
        <g id="Grupo_949829" data-name="Grupo 949829" transform="translate(60.514)">
          <path id="Trazado_628279" data-name="Trazado 628279" d="M481.962,4929.049c-.088,0-.16-14.256-.16-31.838s.072-31.841.16-31.841.161,14.253.161,31.841S482.051,4929.049,481.962,4929.049Z" transform="translate(-481.802 -4865.369)" fill="#e0e0e0"/>
        </g>
        <rect id="Rectángulo_308959" data-name="Rectángulo 308959" width="6.207" height="7.187" transform="translate(67.887 49.573)" fill="#fafafa"/>
        <rect id="Rectángulo_308960" data-name="Rectángulo 308960" width="9.196" height="13.647" transform="translate(24.698 0.338)" fill="#e0e0e0"/>
        <rect id="Rectángulo_308961" data-name="Rectángulo 308961" width="9.196" height="13.647" transform="translate(24.698 50.293)" fill="#e0e0e0"/>
      </g>
    </g>
    <g id="Grupo_949834" data-name="Grupo 949834" transform="translate(757.871 4893.437)">
      <g id="Grupo_949833" data-name="Grupo 949833">
        <rect id="Rectángulo_308962" data-name="Rectángulo 308962" width="76.047" height="60.078" transform="translate(0 0.162)" fill="#f5f5f5"/>
        <g id="Grupo_949832" data-name="Grupo 949832" transform="translate(56.843)">
          <path id="Trazado_628280" data-name="Trazado 628280" d="M954.949,4981.746c-.083,0-.15-13.392-.15-29.907s.068-29.909.15-29.909.151,13.388.151,29.909S955.033,4981.746,954.949,4981.746Z" transform="translate(-954.799 -4921.93)" fill="#e0e0e0"/>
        </g>
        <rect id="Rectángulo_308963" data-name="Rectángulo 308963" width="5.83" height="6.751" transform="translate(63.769 46.565)" fill="#fafafa"/>
        <rect id="Rectángulo_308964" data-name="Rectángulo 308964" width="8.638" height="12.819" transform="translate(23.199 0.317)" fill="#e0e0e0"/>
        <rect id="Rectángulo_308965" data-name="Rectángulo 308965" width="8.638" height="12.819" transform="translate(23.199 47.242)" fill="#e0e0e0"/>
      </g>
    </g>
    <g id="Grupo_949837" data-name="Grupo 949837" transform="translate(771.757 5022.555)">
      <g id="Grupo_949836" data-name="Grupo 949836">
        <rect id="Rectángulo_308966" data-name="Rectángulo 308966" width="87.65" height="69.245" transform="translate(0 0.188)" fill="#ebebeb"/>
        <g id="Grupo_949835" data-name="Grupo 949835" transform="translate(65.516)">
          <path id="Trazado_628281" data-name="Trazado 628281" d="M984.4,5155.294c-.1,0-.174-15.435-.174-34.47s.077-34.474.174-34.474.173,15.432.173,34.474S984.493,5155.294,984.4,5155.294Z" transform="translate(-984.223 -5086.351)" fill="#e0e0e0"/>
        </g>
        <rect id="Rectángulo_308967" data-name="Rectángulo 308967" width="6.72" height="7.781" transform="translate(73.498 53.671)" fill="#fafafa"/>
        <rect id="Rectángulo_308968" data-name="Rectángulo 308968" width="9.956" height="14.775" transform="translate(26.739 0.366)" fill="#e0e0e0"/>
        <rect id="Rectángulo_308969" data-name="Rectángulo 308969" width="9.956" height="14.775" transform="translate(26.739 54.451)" fill="#e0e0e0"/>
      </g>
    </g>
    <g id="Grupo_949840" data-name="Grupo 949840" transform="translate(759.649 4953.489)">
      <g id="Grupo_949839" data-name="Grupo 949839" transform="translate(0 0)">
        <rect id="Rectángulo_308970" data-name="Rectángulo 308970" width="87.65" height="69.245" transform="translate(0 0.187)" fill="#ebebeb"/>
        <g id="Grupo_949838" data-name="Grupo 949838" transform="translate(65.516)">
          <path id="Trazado_628282" data-name="Trazado 628282" d="M968.6,5067.344c-.1,0-.173-15.434-.173-34.47s.077-34.472.173-34.472.174,15.431.174,34.472S968.7,5067.344,968.6,5067.344Z" transform="translate(-968.431 -4998.402)" fill="#e0e0e0"/>
        </g>
        <rect id="Rectángulo_308971" data-name="Rectángulo 308971" width="6.72" height="7.781" transform="translate(73.498 53.671)" fill="#fafafa"/>
        <rect id="Rectángulo_308972" data-name="Rectángulo 308972" width="9.956" height="14.775" transform="translate(26.739 0.366)" fill="#e0e0e0"/>
        <rect id="Rectángulo_308973" data-name="Rectángulo 308973" width="9.956" height="14.775" transform="translate(26.739 54.451)" fill="#e0e0e0"/>
      </g>
    </g>
    <g id="Grupo_949843" data-name="Grupo 949843" transform="translate(609.607 4894.402)">
      <g id="Grupo_949842" data-name="Grupo 949842">
        <rect id="Rectángulo_308974" data-name="Rectángulo 308974" width="76.047" height="60.078" transform="translate(0 0.162)" fill="#f5f5f5"/>
        <g id="Grupo_949841" data-name="Grupo 949841" transform="translate(56.843)">
          <path id="Trazado_628283" data-name="Trazado 628283" d="M761.565,4982.976c-.084,0-.151-13.392-.151-29.906s.068-29.909.151-29.909.15,13.388.15,29.909S761.648,4982.976,761.565,4982.976Z" transform="translate(-761.414 -4923.16)" fill="#e0e0e0"/>
        </g>
        <rect id="Rectángulo_308975" data-name="Rectángulo 308975" width="5.83" height="6.751" transform="translate(63.769 46.565)" fill="#fafafa"/>
        <rect id="Rectángulo_308976" data-name="Rectángulo 308976" width="8.638" height="12.819" transform="translate(23.2 0.317)" fill="#e0e0e0"/>
        <rect id="Rectángulo_308977" data-name="Rectángulo 308977" width="8.638" height="12.819" transform="translate(23.2 47.242)" fill="#e0e0e0"/>
      </g>
    </g>
    <g id="Grupo_949846" data-name="Grupo 949846" transform="translate(616.351 4834.479)">
      <g id="Grupo_949845" data-name="Grupo 949845" transform="translate(0 0)">
        <rect id="Rectángulo_308978" data-name="Rectángulo 308978" width="76.047" height="60.078" transform="translate(0 0.163)" fill="#ebebeb"/>
        <g id="Grupo_949844" data-name="Grupo 949844" transform="translate(56.842)">
          <path id="Trazado_628284" data-name="Trazado 628284" d="M770.361,4906.669c-.083,0-.151-13.391-.151-29.907s.068-29.909.151-29.909.151,13.388.151,29.909S770.445,4906.669,770.361,4906.669Z" transform="translate(-770.21 -4846.853)" fill="#e0e0e0"/>
        </g>
        <rect id="Rectángulo_308979" data-name="Rectángulo 308979" width="5.83" height="6.751" transform="translate(63.769 46.566)" fill="#fafafa"/>
        <rect id="Rectángulo_308980" data-name="Rectángulo 308980" width="8.638" height="12.819" transform="translate(23.2 0.317)" fill="#e0e0e0"/>
        <rect id="Rectángulo_308981" data-name="Rectángulo 308981" width="8.638" height="12.819" transform="translate(23.2 47.242)" fill="#e0e0e0"/>
      </g>
    </g>
    <g id="Grupo_949849" data-name="Grupo 949849" transform="translate(761.167 4849.02)">
      <g id="Grupo_949848" data-name="Grupo 949848">
        <rect id="Rectángulo_308982" data-name="Rectángulo 308982" width="54.415" height="42.989" transform="translate(0 0.116)" fill="#ebebeb"/>
        <g id="Grupo_949847" data-name="Grupo 949847" transform="translate(40.674)">
          <path id="Trazado_628285" data-name="Trazado 628285" d="M773.732,4836.62c-.06,0-.108-9.582-.108-21.4s.048-21.4.108-21.4.107,9.58.107,21.4S773.791,4836.62,773.732,4836.62Z" transform="translate(-773.624 -4793.819)" fill="#e0e0e0"/>
        </g>
        <rect id="Rectángulo_308983" data-name="Rectángulo 308983" width="4.172" height="4.83" transform="translate(45.629 33.32)" fill="#fafafa"/>
        <rect id="Rectángulo_308984" data-name="Rectángulo 308984" width="6.181" height="9.173" transform="translate(16.6 0.227)" fill="#e0e0e0"/>
        <rect id="Rectángulo_308985" data-name="Rectángulo 308985" width="6.181" height="9.173" transform="translate(16.6 33.804)" fill="#e0e0e0"/>
      </g>
    </g>
    <g id="Grupo_949852" data-name="Grupo 949852" transform="translate(623.493 5023.521)">
      <g id="Grupo_949851" data-name="Grupo 949851">
        <rect id="Rectángulo_308986" data-name="Rectángulo 308986" width="87.65" height="69.245" transform="translate(0 0.188)" fill="#ebebeb"/>
        <g id="Grupo_949850" data-name="Grupo 949850" transform="translate(65.515)">
          <path id="Trazado_628286" data-name="Trazado 628286" d="M791.012,5156.524c-.1,0-.174-15.435-.174-34.47s.078-34.473.174-34.473.174,15.431.174,34.473S791.108,5156.524,791.012,5156.524Z" transform="translate(-790.838 -5087.582)" fill="#e0e0e0"/>
        </g>
        <rect id="Rectángulo_308987" data-name="Rectángulo 308987" width="6.72" height="7.781" transform="translate(73.498 53.671)" fill="#fafafa"/>
        <rect id="Rectángulo_308988" data-name="Rectángulo 308988" width="9.956" height="14.775" transform="translate(26.739 0.366)" fill="#e0e0e0"/>
        <rect id="Rectángulo_308989" data-name="Rectángulo 308989" width="9.956" height="14.775" transform="translate(26.739 54.451)" fill="#e0e0e0"/>
      </g>
    </g>
    <g id="Grupo_949855" data-name="Grupo 949855" transform="translate(611.386 4954.455)">
      <g id="Grupo_949854" data-name="Grupo 949854">
        <rect id="Rectángulo_308990" data-name="Rectángulo 308990" width="87.65" height="69.245" transform="translate(0 0.187)" fill="#ebebeb"/>
        <g id="Grupo_949853" data-name="Grupo 949853" transform="translate(65.516)">
          <path id="Trazado_628287" data-name="Trazado 628287" d="M775.22,5068.574c-.1,0-.174-15.434-.174-34.47s.078-34.473.174-34.473.173,15.431.173,34.473S775.316,5068.574,775.22,5068.574Z" transform="translate(-775.046 -4999.632)" fill="#e0e0e0"/>
        </g>
        <rect id="Rectángulo_308991" data-name="Rectángulo 308991" width="6.72" height="7.781" transform="translate(73.498 53.671)" fill="#fafafa"/>
        <rect id="Rectángulo_308992" data-name="Rectángulo 308992" width="9.956" height="14.775" transform="translate(26.739 0.366)" fill="#e0e0e0"/>
        <rect id="Rectángulo_308993" data-name="Rectángulo 308993" width="9.956" height="14.775" transform="translate(26.739 54.451)" fill="#e0e0e0"/>
      </g>
    </g>
    <path id="Trazado_628288" data-name="Trazado 628288" d="M509.771,5156.513v-7.393H362.19a2,2,0,0,0-1.973,2.021v3.349a2,2,0,0,0,1.973,2.022H366.3v3.364a1.968,1.968,0,0,1-1.943,1.99h-2.2a1.966,1.966,0,0,0-1.943,1.989v3.413a1.967,1.967,0,0,0,1.943,1.99H509.771v-7.392h-34.4v-5.354Zm-108.1,0h8.844v5.354h-8.844Zm-5.9,5.354h-8.844v-5.354h8.844Zm20.634-5.354h8.844v5.354h-8.844Zm14.739,0H440v5.354h-8.844Zm14.739,0h8.843v5.354h-8.843Zm-73.7,0h8.844v5.354h-8.844Zm97.278,5.354H460.63v-5.354h8.844Z" transform="translate(-1.356 -77.273)" fill="#e0e0e0"/>
    <g id="Grupo_949947" data-name="Grupo 949947" transform="translate(408.945 4834.479)">
      <g id="Grupo_949859" data-name="Grupo 949859" transform="translate(14.625 95.506)">
        <g id="Grupo_949857" data-name="Grupo 949857">
          <rect id="Rectángulo_308994" data-name="Rectángulo 308994" width="79.876" height="63.103" transform="translate(0 0.171)" fill="#bb8aff"/>
          <rect id="Rectángulo_308995" data-name="Rectángulo 308995" width="79.876" height="63.103" transform="translate(0 0.171)" opacity="0.3"/>
          <g id="Grupo_949856" data-name="Grupo 949856" transform="translate(59.734)">
            <path id="Trazado_628289" data-name="Trazado 628289" d="M522.66,5024.973c-.071,0-.129-14.066-.129-31.413s.057-31.416.129-31.416.129,14.062.129,31.416S522.731,5024.973,522.66,5024.973Z" transform="translate(-522.531 -4962.145)" fill="#263238"/>
          </g>
          <rect id="Rectángulo_308996" data-name="Rectángulo 308996" width="6.124" height="7.09" transform="translate(66.979 48.91)" fill="#f5f5f5"/>
          <rect id="Rectángulo_308997" data-name="Rectángulo 308997" width="9.073" height="13.465" transform="translate(24.368 0.333)" fill="#263238"/>
          <rect id="Rectángulo_308998" data-name="Rectángulo 308998" width="9.073" height="13.465" transform="translate(24.368 49.621)" fill="#263238"/>
        </g>
        <g id="Grupo_949858" data-name="Grupo 949858" transform="translate(0 0.038)">
          <path id="Trazado_628290" data-name="Trazado 628290" d="M523.8,4962.326a1.052,1.052,0,0,1-.2.013l-.6.014-2.307.025-8.484.042-27.992.038-28-.038-8.483-.042-2.307-.025-.6-.014a1.044,1.044,0,0,1-.2-.013,1.153,1.153,0,0,1,.2-.013l.6-.014,2.307-.024,8.483-.042,28-.04,27.992.04,8.484.042,2.307.024.6.014A1.163,1.163,0,0,1,523.8,4962.326Z" transform="translate(-444.618 -4962.193)" fill="#263238"/>
        </g>
      </g>
      <g id="Grupo_949863" data-name="Grupo 949863" transform="translate(81.117 95.433)">
        <g id="Grupo_949861" data-name="Grupo 949861">
          <rect id="Rectángulo_308999" data-name="Rectángulo 308999" width="79.876" height="63.103" transform="translate(0 0.171)" fill="#bb8aff"/>
          <g id="Grupo_949860" data-name="Grupo 949860" transform="translate(59.734)">
            <path id="Trazado_628291" data-name="Trazado 628291" d="M609.387,5024.875c-.071,0-.129-14.065-.129-31.413s.057-31.415.129-31.415.129,14.063.129,31.415S609.458,5024.875,609.387,5024.875Z" transform="translate(-609.258 -4962.048)" fill="#263238"/>
          </g>
          <rect id="Rectángulo_309000" data-name="Rectángulo 309000" width="6.124" height="7.09" transform="translate(66.979 48.91)" fill="#f5f5f5"/>
          <rect id="Rectángulo_309001" data-name="Rectángulo 309001" width="9.073" height="13.465" transform="translate(24.368 0.333)" fill="#fff" opacity="0.5"/>
          <rect id="Rectángulo_309002" data-name="Rectángulo 309002" width="9.073" height="13.465" transform="translate(24.368 49.621)" fill="#fff" opacity="0.5"/>
        </g>
        <g id="Grupo_949862" data-name="Grupo 949862" transform="translate(0 0.038)">
          <path id="Trazado_628292" data-name="Trazado 628292" d="M610.524,4962.229a1.211,1.211,0,0,1-.2.013l-.6.013-2.307.025-8.484.041-27.992.038-28-.038-8.484-.042-2.306-.024-.6-.013a1.212,1.212,0,0,1-.2-.013,1.11,1.11,0,0,1,.2-.014l.6-.014,2.306-.024,8.484-.042,28-.039,27.992.039,8.484.042,2.307.024.6.014A1.056,1.056,0,0,1,610.524,4962.229Z" transform="translate(-531.345 -4962.096)" fill="#263238"/>
        </g>
      </g>
      <g id="Grupo_949867" data-name="Grupo 949867" transform="translate(85.601 37.129)">
        <g id="Grupo_949865" data-name="Grupo 949865">
          <rect id="Rectángulo_309003" data-name="Rectángulo 309003" width="79.876" height="63.103" transform="translate(0 0.171)" fill="#bb8aff"/>
          <g id="Grupo_949864" data-name="Grupo 949864" transform="translate(59.734)">
            <path id="Trazado_628293" data-name="Trazado 628293" d="M615.236,4944.517c-.071,0-.129-14.066-.129-31.413s.057-31.416.129-31.416.129,14.062.129,31.416S615.307,4944.517,615.236,4944.517Z" transform="translate(-615.107 -4881.689)" fill="#263238"/>
          </g>
          <rect id="Rectángulo_309004" data-name="Rectángulo 309004" width="6.124" height="7.09" transform="translate(66.979 48.911)" fill="#f5f5f5"/>
          <rect id="Rectángulo_309005" data-name="Rectángulo 309005" width="9.073" height="13.465" transform="translate(24.368 0.333)" fill="#263238"/>
          <rect id="Rectángulo_309006" data-name="Rectángulo 309006" width="9.073" height="13.465" transform="translate(24.368 49.621)" fill="#263238"/>
        </g>
        <g id="Grupo_949866" data-name="Grupo 949866" transform="translate(0 0.038)">
          <path id="Trazado_628294" data-name="Trazado 628294" d="M616.373,4881.87a1.109,1.109,0,0,1-.2.014l-.6.013-2.307.025c-2.017.009-4.912.024-8.484.042l-27.992.039-28-.039c-3.572-.018-6.467-.033-8.484-.042L538,4881.9l-.6-.013a1.11,1.11,0,0,1-.2-.014,1.212,1.212,0,0,1,.2-.013c.147,0,.346-.007.6-.014l2.306-.024,8.484-.042,28-.04,27.992.04,8.484.042,2.307.024c.254.007.453.01.6.014A1.211,1.211,0,0,1,616.373,4881.87Z" transform="translate(-537.194 -4881.737)" fill="#263238"/>
        </g>
      </g>
      <path id="Trazado_628295" data-name="Trazado 628295" d="M584.724,5130.171v-7.393H437.144a2,2,0,0,0-1.974,2.022v3.349a2,2,0,0,0,1.974,2.021h4.109v3.365a1.966,1.966,0,0,1-1.942,1.99h-2.2a1.967,1.967,0,0,0-1.943,1.989v3.413a1.967,1.967,0,0,0,1.943,1.99H584.724v-7.393h-34.4v-5.354Zm-108.1,0h8.844v5.354h-8.844Zm-5.9,5.354h-8.844v-5.354h8.844Zm20.634-5.354h8.844v5.354h-8.844Zm14.739,0h8.843v5.354h-8.843Zm14.739,0h8.844v5.354h-8.844Zm-73.7,0h8.844v5.354h-8.844Zm97.278,5.354h-8.844v-5.354h8.844Z" transform="translate(-427.788 -4906.096)" fill="#455a64"/>
      <g id="Grupo_949935" data-name="Grupo 949935" transform="translate(76.923)">
        <path id="Trazado_628296" data-name="Trazado 628296" d="M764.832,4962.244a2.717,2.717,0,0,0-.079-3.8l-24.895-24.1a2.634,2.634,0,0,0-3.671.015h0a2.792,2.792,0,0,0-.1,3.884l9.93,10.7-5.169,5.09-2.7-2.167L719.378,4973.9l-10.036-9.889-12.1,36.45,2.4,49.5h27.833l-1.943-58.791,18.643-27.26.142-6.481,5.341-5.624,11.566,10.58a2.563,2.563,0,0,0,3.606-.131Z" transform="translate(-565.859 -4860.75)" fill="#263238"/>
        <g id="Grupo_949868" data-name="Grupo 949868" transform="translate(123.677 1.759)">
          <path id="Trazado_628297" data-name="Trazado 628297" d="M687.39,5038.276c-.11,0-.2-45.14-.2-100.81,0-55.688.089-100.818.2-100.818s.2,45.13.2,100.818C687.59,4993.136,687.5,5038.276,687.39,5038.276Z" transform="translate(-687.191 -4836.648)" fill="#263238"/>
        </g>
        <path id="Trazado_628298" data-name="Trazado 628298" d="M768.738,5041.16l16.927-48.147-6.36-2.638v-9.338l46.284-.735a4.541,4.541,0,0,0,4.378-4.092l6.8-61.893a5.583,5.583,0,0,1,5.5-5.035h0a5.608,5.608,0,0,1,5.529,5.9l-2.56,63.779,24.17.133.823,11.633-71.476,2.864-18.637,46.875Z" transform="translate(-582.54 -4854.728)" fill="#455a64"/>
        <path id="Trazado_628299" data-name="Trazado 628299" d="M764.317,5061.354l-60.166.49v4.1l24.92-.328,39.7-.309,96.243-13.922-10.909-42.538H788.963a6.886,6.886,0,0,0-5.765,3Z" transform="translate(-567.471 -4878.231)" fill="#263238"/>
        <path id="Trazado_628300" data-name="Trazado 628300" d="M731.7,4847.581l-43.735,142.871.307,39.739H702.19V4990.7l35.834-142.74,97.092-.555,18.57,148.678h10.956L842.05,4848.446a8.29,8.29,0,0,0-8.092-6.876H739.591A8.261,8.261,0,0,0,731.7,4847.581Z" transform="translate(-563.695 -4835.946)" fill="#455a64"/>
        <path id="Trazado_628301" data-name="Trazado 628301" d="M677.729,5118.01v-38.167l8.157-7.736,76.645-1.01,13.83-11.5a15.548,15.548,0,0,1,9.042-3.583l14.761-.854s6.626-4.676,13.015-9.309a47.282,47.282,0,0,1,27.768-9.058h42.494a5.89,5.89,0,0,1,5.818,5.959v75.255Z" transform="translate(-561.306 -4887.635)" fill="#7352b6"/>
        <rect id="Rectángulo_309007" data-name="Rectángulo 309007" width="212.282" height="12.548" transform="translate(115.671 218.076)" fill="#263238"/>
        <g id="Grupo_949899" data-name="Grupo 949899" transform="translate(126.655 203.738)">
          <g id="Grupo_949874" data-name="Grupo 949874">
            <g id="Grupo_949873" data-name="Grupo 949873">
              <g id="Grupo_949872" data-name="Grupo 949872">
                <g id="Grupo_949871" data-name="Grupo 949871">
                  <g id="Grupo_949870" data-name="Grupo 949870">
                    <g id="Grupo_949869" data-name="Grupo 949869">
                      <path id="Trazado_628302" data-name="Trazado 628302" d="M691.078,5132.792c-.209,14.846,11.372,27.056,25.867,27.271s26.414-11.649,26.624-26.5S732.2,5106.511,717.7,5106.3,691.287,5117.945,691.078,5132.792Z" transform="translate(-691.075 -5106.294)" fill="#263238"/>
                    </g>
                  </g>
                </g>
              </g>
            </g>
          </g>
          <g id="Grupo_949880" data-name="Grupo 949880" transform="translate(0 26.428)">
            <g id="Grupo_949879" data-name="Grupo 949879">
              <g id="Grupo_949878" data-name="Grupo 949878">
                <g id="Grupo_949877" data-name="Grupo 949877">
                  <g id="Grupo_949876" data-name="Grupo 949876">
                    <g id="Grupo_949875" data-name="Grupo 949875">
                      <path id="Trazado_628303" data-name="Trazado 628303" d="M691.083,5139.948c0,.023,0,.046,0,.07-.209,14.846,11.372,27.056,25.867,27.27s26.414-11.648,26.624-26.5c0-.023,0-.046,0-.069Z" transform="translate(-691.075 -5139.948)" fill="#263238"/>
                    </g>
                  </g>
                </g>
              </g>
            </g>
          </g>
          <g id="Grupo_949886" data-name="Grupo 949886" transform="translate(7.82 8.01)">
            <g id="Grupo_949885" data-name="Grupo 949885">
              <g id="Grupo_949884" data-name="Grupo 949884">
                <g id="Grupo_949883" data-name="Grupo 949883">
                  <g id="Grupo_949882" data-name="Grupo 949882">
                    <g id="Grupo_949881" data-name="Grupo 949881">
                      <path id="Trazado_628304" data-name="Trazado 628304" d="M701.277,5135.1a18.433,18.433,0,1,0,18.692-18.6A18.671,18.671,0,0,0,701.277,5135.1Z" transform="translate(-701.275 -5116.495)" fill="#fafafa"/>
                    </g>
                  </g>
                </g>
              </g>
            </g>
          </g>
          <g id="Grupo_949892" data-name="Grupo 949892" transform="translate(7.822 8.01)">
            <g id="Grupo_949891" data-name="Grupo 949891">
              <g id="Grupo_949890" data-name="Grupo 949890">
                <g id="Grupo_949889" data-name="Grupo 949889">
                  <g id="Grupo_949888" data-name="Grupo 949888">
                    <g id="Grupo_949887" data-name="Grupo 949887">
                      <path id="Trazado_628305" data-name="Trazado 628305" d="M719.97,5116.5a18.639,18.639,0,0,0-18.692,18.6l36.852.544A18.67,18.67,0,0,0,719.97,5116.5Z" transform="translate(-701.278 -5116.495)" fill="#e0e0e0"/>
                    </g>
                  </g>
                </g>
              </g>
            </g>
          </g>
          <g id="Grupo_949898" data-name="Grupo 949898" transform="translate(15.023 15.387)">
            <g id="Grupo_949897" data-name="Grupo 949897">
              <g id="Grupo_949896" data-name="Grupo 949896">
                <g id="Grupo_949895" data-name="Grupo 949895">
                  <g id="Grupo_949894" data-name="Grupo 949894">
                    <g id="Grupo_949893" data-name="Grupo 949893">
                      <path id="Trazado_628306" data-name="Trazado 628306" d="M710.672,5137.221a11.229,11.229,0,1,0,11.386-11.331A11.372,11.372,0,0,0,710.672,5137.221Z" transform="translate(-710.67 -5125.889)" fill="#263238"/>
                    </g>
                  </g>
                </g>
              </g>
            </g>
          </g>
        </g>
        <g id="Grupo_949930" data-name="Grupo 949930" transform="translate(255.105 203.738)">
          <g id="Grupo_949905" data-name="Grupo 949905">
            <g id="Grupo_949904" data-name="Grupo 949904">
              <g id="Grupo_949903" data-name="Grupo 949903">
                <g id="Grupo_949902" data-name="Grupo 949902">
                  <g id="Grupo_949901" data-name="Grupo 949901">
                    <g id="Grupo_949900" data-name="Grupo 949900">
                      <path id="Trazado_628307" data-name="Trazado 628307" d="M858.619,5132.792c-.209,14.846,11.371,27.056,25.866,27.271s26.415-11.649,26.624-26.5-11.372-27.056-25.867-27.271S858.828,5117.945,858.619,5132.792Z" transform="translate(-858.616 -5106.294)" fill="#263238"/>
                    </g>
                  </g>
                </g>
              </g>
            </g>
          </g>
          <g id="Grupo_949911" data-name="Grupo 949911" transform="translate(0 26.428)">
            <g id="Grupo_949910" data-name="Grupo 949910">
              <g id="Grupo_949909" data-name="Grupo 949909">
                <g id="Grupo_949908" data-name="Grupo 949908">
                  <g id="Grupo_949907" data-name="Grupo 949907">
                    <g id="Grupo_949906" data-name="Grupo 949906">
                      <path id="Trazado_628308" data-name="Trazado 628308" d="M858.624,5139.948c0,.023,0,.046,0,.07-.209,14.846,11.371,27.056,25.866,27.27s26.415-11.648,26.624-26.5c0-.023,0-.046,0-.069Z" transform="translate(-858.616 -5139.948)" fill="#263238"/>
                    </g>
                  </g>
                </g>
              </g>
            </g>
          </g>
          <g id="Grupo_949917" data-name="Grupo 949917" transform="translate(7.82 8.01)">
            <g id="Grupo_949916" data-name="Grupo 949916">
              <g id="Grupo_949915" data-name="Grupo 949915">
                <g id="Grupo_949914" data-name="Grupo 949914">
                  <g id="Grupo_949913" data-name="Grupo 949913">
                    <g id="Grupo_949912" data-name="Grupo 949912">
                      <path id="Trazado_628309" data-name="Trazado 628309" d="M868.818,5135.1a18.433,18.433,0,1,0,18.692-18.6A18.67,18.67,0,0,0,868.818,5135.1Z" transform="translate(-868.816 -5116.495)" fill="#fafafa"/>
                    </g>
                  </g>
                </g>
              </g>
            </g>
          </g>
          <g id="Grupo_949923" data-name="Grupo 949923" transform="translate(7.822 8.01)">
            <g id="Grupo_949922" data-name="Grupo 949922">
              <g id="Grupo_949921" data-name="Grupo 949921">
                <g id="Grupo_949920" data-name="Grupo 949920">
                  <g id="Grupo_949919" data-name="Grupo 949919">
                    <g id="Grupo_949918" data-name="Grupo 949918">
                      <path id="Trazado_628310" data-name="Trazado 628310" d="M887.511,5116.5a18.639,18.639,0,0,0-18.692,18.6l36.852.544A18.67,18.67,0,0,0,887.511,5116.5Z" transform="translate(-868.819 -5116.495)" fill="#e0e0e0"/>
                    </g>
                  </g>
                </g>
              </g>
            </g>
          </g>
          <g id="Grupo_949929" data-name="Grupo 949929" transform="translate(15.023 15.387)">
            <g id="Grupo_949928" data-name="Grupo 949928">
              <g id="Grupo_949927" data-name="Grupo 949927">
                <g id="Grupo_949926" data-name="Grupo 949926">
                  <g id="Grupo_949925" data-name="Grupo 949925">
                    <g id="Grupo_949924" data-name="Grupo 949924">
                      <path id="Trazado_628311" data-name="Trazado 628311" d="M878.213,5137.221A11.229,11.229,0,1,0,889.6,5125.89,11.372,11.372,0,0,0,878.213,5137.221Z" transform="translate(-878.211 -5125.889)" fill="#263238"/>
                    </g>
                  </g>
                </g>
              </g>
            </g>
          </g>
        </g>
        <g id="Grupo_949931" data-name="Grupo 949931" transform="translate(247.352 192.298)">
          <path id="Trazado_628312" data-name="Trazado 628312" d="M916.664,5110.446a1.006,1.006,0,0,1-.127-.187l-.337-.565-.537-.925a12.671,12.671,0,0,0-.77-1.236,37.855,37.855,0,0,0-5.918-7.072c-.678-.7-1.5-1.31-2.3-2-.819-.671-1.728-1.3-2.65-1.962-.973-.588-1.931-1.283-3.015-1.824-.534-.284-1.068-.59-1.625-.865l-1.72-.782a35.645,35.645,0,0,0-31.873,1.558l-1.639.946c-.529.329-1.031.687-1.537,1.02-1.03.644-1.918,1.429-2.833,2.11-.856.754-1.7,1.464-2.456,2.212-.732.77-1.49,1.457-2.1,2.22a38.128,38.128,0,0,0-5.233,7.617,12.717,12.717,0,0,0-.65,1.305l-.449.972c-.117.244-.209.441-.284.6a.97.97,0,0,1-.109.2.911.911,0,0,1,.071-.214l.248-.612.415-.992a12.324,12.324,0,0,1,.621-1.327,36.651,36.651,0,0,1,5.161-7.736c.607-.774,1.365-1.473,2.1-2.254.753-.761,1.6-1.482,2.46-2.249.918-.691,1.811-1.488,2.845-2.144.509-.34,1.014-.7,1.546-1.037l1.651-.963a35.7,35.7,0,0,1,32.192-1.574l1.733.8c.561.28,1.1.593,1.635.881,1.091.552,2.054,1.257,3.031,1.857.926.678,1.838,1.314,2.658,2,.8.706,1.62,1.327,2.3,2.04a36.336,36.336,0,0,1,5.857,7.2,12.07,12.07,0,0,1,.741,1.261l.505.947c.125.24.225.434.3.585A.892.892,0,0,1,916.664,5110.446Z" transform="translate(-848.503 -5089.541)" fill="#263238"/>
        </g>
        <g id="Grupo_949932" data-name="Grupo 949932" transform="translate(118.627 193.172)">
          <path id="Trazado_628313" data-name="Trazado 628313" d="M749.153,5115.649a1.035,1.035,0,0,1-.1-.213c-.067-.166-.153-.377-.259-.643l-.413-1.045-.616-1.4A43.3,43.3,0,0,0,742.8,5104a32.812,32.812,0,0,0-10.685-9.324,31.009,31.009,0,0,0-7.9-2.693,39.276,39.276,0,0,0-8.919-.833,38.72,38.72,0,0,0-8.882,1.17,32.584,32.584,0,0,0-7.759,3.105,39.028,39.028,0,0,0-11.03,8.974,45.193,45.193,0,0,0-5.406,8.059c-.534,1.021-.938,1.819-1.194,2.371l-.307.62a1.01,1.01,0,0,1-.117.2,1.064,1.064,0,0,1,.08-.222l.271-.638c.233-.563.616-1.374,1.129-2.411a43.212,43.212,0,0,1,5.329-8.172,38.832,38.832,0,0,1,11.068-9.115,32.65,32.65,0,0,1,7.839-3.163,38.766,38.766,0,0,1,8.971-1.19,39.313,39.313,0,0,1,9,.849,31.183,31.183,0,0,1,7.985,2.75,32.777,32.777,0,0,1,10.741,9.482,41.461,41.461,0,0,1,4.882,8.459l.584,1.424.379,1.063.222.657A.994.994,0,0,1,749.153,5115.649Z" transform="translate(-680.604 -5090.73)" fill="#263238"/>
        </g>
        <rect id="Rectángulo_309008" data-name="Rectángulo 309008" width="116.37" height="13.94" transform="translate(0 216.683)" fill="#263238"/>
        <path id="Trazado_628314" data-name="Trazado 628314" d="M671.484,5129.36a3.39,3.39,0,1,1-3.389-3.471A3.431,3.431,0,0,1,671.484,5129.36Z" transform="translate(-558.267 -4906.764)" fill="#455a64"/>
        <rect id="Rectángulo_309009" data-name="Rectángulo 309009" width="9.714" height="197.646" transform="translate(105.131 4.531)" fill="#455a64"/>
        <g id="Grupo_949933" data-name="Grupo 949933" transform="translate(179.843 205.425)">
          <path id="Trazado_628315" data-name="Trazado 628315" d="M833.586,5106.147c0,.113-16.374.2-36.567.2s-36.571-.091-36.571-.2,16.37-.205,36.571-.205S833.586,5106.034,833.586,5106.147Z" transform="translate(-760.449 -5105.942)" fill="#263238"/>
        </g>
        <g id="Grupo_949934" data-name="Grupo 949934" transform="translate(237.876 170.485)">
          <path id="Trazado_628316" data-name="Trazado 628316" d="M836.342,5093.523c-.11,0-.2-7.3-.2-16.292s.09-16.292.2-16.292.2,7.293.2,16.292S836.453,5093.523,836.342,5093.523Z" transform="translate(-836.143 -5060.938)" fill="#263238"/>
        </g>
        <rect id="Rectángulo_309010" data-name="Rectángulo 309010" width="19.824" height="9.062" transform="translate(104.083)" fill="#263238"/>
        <rect id="Rectángulo_309011" data-name="Rectángulo 309011" width="12.764" height="26.089" transform="translate(103.606 192.421)" fill="#263238"/>
      </g>
      <g id="Grupo_949939" data-name="Grupo 949939" transform="translate(83.778 155.537)">
        <g id="Grupo_949937" data-name="Grupo 949937">
          <rect id="Rectángulo_309012" data-name="Rectángulo 309012" width="79.875" height="63.103" transform="translate(0 0.171)" fill="#bb8aff"/>
          <rect id="Rectángulo_309013" data-name="Rectángulo 309013" width="79.875" height="63.103" transform="translate(0 0.171)" opacity="0.3"/>
          <g id="Grupo_949936" data-name="Grupo 949936" transform="translate(59.734)">
            <path id="Trazado_628317" data-name="Trazado 628317" d="M612.858,5105.263c-.071,0-.129-14.065-.129-31.412s.057-31.416.129-31.416.129,14.063.129,31.416S612.929,5105.263,612.858,5105.263Z" transform="translate(-612.729 -5042.436)" fill="#263238"/>
          </g>
          <rect id="Rectángulo_309014" data-name="Rectángulo 309014" width="6.124" height="7.09" transform="translate(66.979 48.911)" fill="#f5f5f5"/>
          <rect id="Rectángulo_309015" data-name="Rectángulo 309015" width="9.073" height="13.465" transform="translate(24.368 0.334)" fill="#263238"/>
          <rect id="Rectángulo_309016" data-name="Rectángulo 309016" width="9.073" height="13.465" transform="translate(24.368 49.621)" fill="#263238"/>
        </g>
        <g id="Grupo_949938" data-name="Grupo 949938" transform="translate(0 0.038)">
          <path id="Trazado_628318" data-name="Trazado 628318" d="M613.995,5042.616a1.11,1.11,0,0,1-.2.014l-.6.013-2.307.024-8.484.042-27.992.039-28-.039-8.484-.042-2.306-.024-.6-.013a1.11,1.11,0,0,1-.2-.014,1.127,1.127,0,0,1,.2-.013c.147,0,.347-.008.6-.014l2.306-.025,8.484-.042,28-.04,27.992.04,8.484.042,2.307.025c.254.005.452.009.6.014A1.127,1.127,0,0,1,613.995,5042.616Z" transform="translate(-534.816 -5042.483)" fill="#263238"/>
        </g>
      </g>
      <g id="Grupo_949943" data-name="Grupo 949943" transform="translate(0 155.537)">
        <g id="Grupo_949941" data-name="Grupo 949941" transform="translate(0)">
          <rect id="Rectángulo_309017" data-name="Rectángulo 309017" width="79.876" height="63.103" transform="translate(0 0.171)" fill="#bb8aff"/>
          <g id="Grupo_949940" data-name="Grupo 949940" transform="translate(59.734)">
            <path id="Trazado_628319" data-name="Trazado 628319" d="M503.584,5105.263c-.071,0-.129-14.065-.129-31.412s.057-31.416.129-31.416.13,14.063.13,31.416S503.655,5105.263,503.584,5105.263Z" transform="translate(-503.455 -5042.436)" fill="#263238"/>
          </g>
          <rect id="Rectángulo_309018" data-name="Rectángulo 309018" width="6.124" height="7.09" transform="translate(66.979 48.911)" fill="#f5f5f5"/>
          <rect id="Rectángulo_309019" data-name="Rectángulo 309019" width="9.073" height="13.465" transform="translate(24.368 0.334)" fill="#fff" opacity="0.5"/>
          <rect id="Rectángulo_309020" data-name="Rectángulo 309020" width="9.073" height="13.465" transform="translate(24.368 49.621)" fill="#fff" opacity="0.5"/>
        </g>
        <g id="Grupo_949942" data-name="Grupo 949942" transform="translate(0 0.038)">
          <path id="Trazado_628320" data-name="Trazado 628320" d="M504.721,5042.616a1.124,1.124,0,0,1-.2.014l-.6.013-2.307.024-8.485.042-27.991.039-28-.039-8.484-.042-2.307-.024-.6-.013a1.125,1.125,0,0,1-.2-.014,1.142,1.142,0,0,1,.2-.013c.147,0,.346-.008.6-.014l2.307-.025,8.484-.042,28-.04,27.991.04,8.485.042,2.307.025c.254.005.452.009.6.014A1.141,1.141,0,0,1,504.721,5042.616Z" transform="translate(-425.542 -5042.483)" fill="#263238"/>
        </g>
      </g>
      <g id="Grupo_949946" data-name="Grupo 949946" transform="translate(404.877 171.093)">
        <path id="Trazado_628321" data-name="Trazado 628321" d="M958.007,5064.5a10.3,10.3,0,0,1,7.5,9.638,9.878,9.878,0,0,1-7.5,9.281" transform="translate(-954.655 -5062.06)" fill="#bb8aff"/>
        <g id="Grupo_949944" data-name="Grupo 949944" transform="translate(3.352 2.438)" opacity="0.6">
          <path id="Trazado_628322" data-name="Trazado 628322" d="M958.007,5064.5a10.3,10.3,0,0,1,7.5,9.638,9.878,9.878,0,0,1-7.5,9.281" transform="translate(-958.007 -5064.498)" fill="#fff"/>
        </g>
        <g id="Grupo_949945" data-name="Grupo 949945">
          <rect id="Rectángulo_309021" data-name="Rectángulo 309021" width="3.522" height="23.884" fill="#bb8aff"/>
          <rect id="Rectángulo_309022" data-name="Rectángulo 309022" width="3.522" height="23.884" opacity="0.3"/>
        </g>
      </g>
    </g>
    <path id="Trazado_628323" data-name="Trazado 628323" d="M760.282,4928.359" transform="translate(-94.7 -29.874)" fill="#ff9a6c"/>
    <g id="Grupo_950135" data-name="Grupo 950135" transform="translate(649.043 4843.722)">
      <g id="Grupo_949951" data-name="Grupo 949951" transform="translate(0 54.241)">
        <path id="Trazado_628324" data-name="Trazado 628324" d="M739.575,4936.995a2.315,2.315,0,0,1-.576-2.929c.587-1.058,1.28-2.3,1.6-2.812a18.746,18.746,0,0,0,1.048-1.9,2.124,2.124,0,0,1,1.61-1.57,8.71,8.71,0,0,1,2.818.084l9.59,2.119,4.465,2.268-4.347,3.923-2.413-.754c-.725.649-3.57.986-4.535.864-1.235-.155-3.708-.977-5.111-.7l-1.352.191.643.554a6.253,6.253,0,0,1,3.406.713,1,1,0,0,1-.47,1.824l-3.153.211a17.984,17.984,0,0,1-2.456-1.434A9.614,9.614,0,0,0,739.575,4936.995Z" transform="translate(-738.71 -4927.694)" fill="#ffbf9d"/>
        <g id="Grupo_949948" data-name="Grupo 949948" transform="translate(0.352 3.909)">
          <path id="Trazado_628325" data-name="Trazado 628325" d="M742.476,4936.84a1.212,1.212,0,0,1-.521.219,2.642,2.642,0,0,1-1.55-.02,1.929,1.929,0,0,1-.916-.652,1.689,1.689,0,0,1-.287-1.308,1.189,1.189,0,0,1,.4-.656,2.137,2.137,0,0,1,.66-.336,10.442,10.442,0,0,1,1.4-.373,21.965,21.965,0,0,1,2.738-.359c.423-.029.824-.049,1.208-.046.093,0,.2.006.291.013a1.274,1.274,0,0,0,.228-.009c.162-.023.322-.055.475-.092,1.219-.318,1.965-.6,1.986-.54a6.952,6.952,0,0,1-1.914.819,4.6,4.6,0,0,1-.5.125,1.55,1.55,0,0,1-.3.024c-.086,0-.166,0-.261,0-.366.011-.764.043-1.179.082a26.812,26.812,0,0,0-2.69.385,11.232,11.232,0,0,0-1.347.35c-.448.134-.741.336-.829.7a1.364,1.364,0,0,0,.2,1.018,1.688,1.688,0,0,0,.747.581,2.788,2.788,0,0,0,1.423.135C742.273,4936.858,742.466,4936.807,742.476,4936.84Z" transform="translate(-739.169 -4932.672)" fill="#ff9a6c"/>
        </g>
        <g id="Grupo_949949" data-name="Grupo 949949" transform="translate(4.246 2.956)">
          <path id="Trazado_628326" data-name="Trazado 628326" d="M744.854,4931.459c.1-.029.29.49.1,1.112s-.621.946-.692.863.161-.465.31-.983S744.741,4931.479,744.854,4931.459Z" transform="translate(-744.247 -4931.458)" fill="#ff9a6c"/>
        </g>
        <g id="Grupo_949950" data-name="Grupo 949950" transform="translate(5.549 3.579)">
          <path id="Trazado_628327" data-name="Trazado 628327" d="M746.751,4932.253c.107.011.137.394-.127.746s-.633.421-.67.317.16-.3.353-.567S746.639,4932.235,746.751,4932.253Z" transform="translate(-745.947 -4932.252)" fill="#ff9a6c"/>
        </g>
      </g>
      <path id="Trazado_628328" data-name="Trazado 628328" d="M787.172,4929.452c1.323-.561-7.577,8.8-7.577,8.8l-16.438-6.274-5.8,3.651,17.678,12.748a9.136,9.136,0,0,0,7.1,1.57,9.253,9.253,0,0,0,4.957-2.745l10.431-12.352Z" transform="translate(-743.06 -4873.825)" fill="#ffbf9d"/>
      <g id="Grupo_950068" data-name="Grupo 950068" transform="translate(49.96)">
        <g id="Grupo_949952" data-name="Grupo 949952" transform="translate(0 11.597)">
          <path id="Trazado_628329" data-name="Trazado 628329" d="M807.664,4879.884c-2.292-.45-3.729-1.175-3.789-2.08-.123-1.866,5.667-3.788,12.932-4.292s13.255.6,13.379,2.467c.06.9-1.255,1.812-3.446,2.573" transform="translate(-803.873 -4873.391)" fill="#9b5eff"/>
        </g>
        <g id="Grupo_949953" data-name="Grupo 949953" transform="translate(1.683 12.182)" opacity="0.4">
          <path id="Trazado_628330" data-name="Trazado 628330" d="M809.427,4879.893c-2.031-.4-3.356-1.04-3.358-1.843-.006-2.236,5.023-3.358,11.462-3.805s11.749.532,11.858,2.187c.052.8-1.112,1.606-3.055,2.279" transform="translate(-806.069 -4874.136)"/>
        </g>
        <g id="Grupo_949954" data-name="Grupo 949954" transform="translate(1.753 0.883)">
          <path id="Trazado_628331" data-name="Trazado 628331" d="M806.16,4873.873s1.357-8.052,1.493-8.449,2.111-4.017,7.313-5.375l4.354-.3s6.317,1.608,7.547,3.071,2.21,8.918,2.21,8.918l-12.39-1.872-8.167,2.65Z" transform="translate(-806.16 -4859.748)" fill="#9b5eff"/>
        </g>
        <g id="Grupo_949955" data-name="Grupo 949955" transform="translate(9.444)">
          <path id="Trazado_628332" data-name="Trazado 628332" d="M818.671,4858.8l-1.869.13a3.151,3.151,0,0,0-.609,2.064c0,1.392.328,10.925.328,10.925l5.441-.632-.952-11.736,1.881.293-.1-.662-.531-.559Z" transform="translate(-816.192 -4858.624)" fill="#9b5eff"/>
        </g>
        <g id="Grupo_950048" data-name="Grupo 950048" transform="translate(4.11 9.903)">
          <g id="Grupo_950047" data-name="Grupo 950047">
            <g id="Grupo_950046" data-name="Grupo 950046">
              <g id="Grupo_950045" data-name="Grupo 950045">
                <g id="Grupo_950044" data-name="Grupo 950044">
                  <g id="Grupo_949970" data-name="Grupo 949970">
                    <g id="Grupo_949969" data-name="Grupo 949969">
                      <g id="Grupo_949968" data-name="Grupo 949968">
                        <g id="Grupo_949961" data-name="Grupo 949961">
                          <g id="Grupo_949960" data-name="Grupo 949960">
                            <g id="Grupo_949959" data-name="Grupo 949959">
                              <g id="Grupo_949958" data-name="Grupo 949958">
                                <g id="Grupo_949957" data-name="Grupo 949957">
                                  <g id="Grupo_949956" data-name="Grupo 949956">
                                    <path id="Trazado_628333" data-name="Trazado 628333" d="M828.427,4905.394l-13.341.3c-.171-1.44-.042-10.433-.042-10.433s-5.08-.452-5.482-5.6-.321-15.475-.321-15.475l.056-.456c5.649-2.965,12.373-3.662,17.653-.053l.784.535Z" transform="translate(-809.234 -4871.233)" fill="#ffbf9d"/>
                                  </g>
                                </g>
                              </g>
                            </g>
                          </g>
                        </g>
                        <g id="Grupo_949967" data-name="Grupo 949967" transform="translate(5.793 21.59)">
                          <g id="Grupo_949966" data-name="Grupo 949966">
                            <g id="Grupo_949965" data-name="Grupo 949965">
                              <g id="Grupo_949964" data-name="Grupo 949964">
                                <g id="Grupo_949963" data-name="Grupo 949963">
                                  <g id="Grupo_949962" data-name="Grupo 949962">
                                    <path id="Trazado_628334" data-name="Trazado 628334" d="M816.807,4901.162a11.972,11.972,0,0,0,6.413-2.435s-1.384,3.889-6.43,3.773Z" transform="translate(-816.79 -4898.727)" fill="#ff9a6c"/>
                                  </g>
                                </g>
                              </g>
                            </g>
                          </g>
                        </g>
                      </g>
                    </g>
                  </g>
                  <g id="Grupo_949984" data-name="Grupo 949984" transform="translate(18.233 8.11)">
                    <g id="Grupo_949976" data-name="Grupo 949976">
                      <g id="Grupo_949975" data-name="Grupo 949975">
                        <g id="Grupo_949974" data-name="Grupo 949974">
                          <g id="Grupo_949973" data-name="Grupo 949973">
                            <g id="Grupo_949972" data-name="Grupo 949972">
                              <g id="Grupo_949971" data-name="Grupo 949971">
                                <path id="Trazado_628335" data-name="Trazado 628335" d="M833.016,4881.809c.083-.044,3.384-1.287,3.507,2.241a2.6,2.6,0,0,1-3.369,2.826C833.144,4886.774,833.016,4881.809,833.016,4881.809Z" transform="translate(-833.016 -4881.561)" fill="#ffbf9d"/>
                              </g>
                            </g>
                          </g>
                        </g>
                      </g>
                    </g>
                    <g id="Grupo_949983" data-name="Grupo 949983" transform="translate(1.14 1.125)">
                      <g id="Grupo_949982" data-name="Grupo 949982">
                        <g id="Grupo_949981" data-name="Grupo 949981">
                          <g id="Grupo_949980" data-name="Grupo 949980">
                            <g id="Grupo_949979" data-name="Grupo 949979">
                              <g id="Grupo_949978" data-name="Grupo 949978">
                                <g id="Grupo_949977" data-name="Grupo 949977">
                                  <path id="Trazado_628336" data-name="Trazado 628336" d="M834.506,4885.808c.015-.012.061.04.165.084a.587.587,0,0,0,.449-.007,1.534,1.534,0,0,0,.639-1.388,2.073,2.073,0,0,0-.2-.874.7.7,0,0,0-.468-.456.3.3,0,0,0-.348.181c-.043.1-.018.17-.037.177s-.076-.056-.053-.2a.393.393,0,0,1,.127-.226.444.444,0,0,1,.329-.1.846.846,0,0,1,.646.523,2.122,2.122,0,0,1,.242.975,1.6,1.6,0,0,1-.822,1.556.626.626,0,0,1-.552-.074C834.515,4885.893,834.495,4885.815,834.506,4885.808Z" transform="translate(-834.503 -4882.994)" fill="#ff9a6c"/>
                                </g>
                              </g>
                            </g>
                          </g>
                        </g>
                      </g>
                    </g>
                  </g>
                  <g id="Grupo_950043" data-name="Grupo 950043" transform="translate(1.431 4.411)">
                    <g id="Grupo_950042" data-name="Grupo 950042">
                      <g id="Grupo_950029" data-name="Grupo 950029" transform="translate(0 2.915)">
                        <g id="Grupo_950028" data-name="Grupo 950028">
                          <g id="Grupo_950027" data-name="Grupo 950027">
                            <g id="Grupo_949998" data-name="Grupo 949998" transform="translate(0 0.38)">
                              <g id="Grupo_949990" data-name="Grupo 949990" transform="translate(0.246 0.886)">
                                <g id="Grupo_949989" data-name="Grupo 949989">
                                  <g id="Grupo_949988" data-name="Grupo 949988">
                                    <g id="Grupo_949987" data-name="Grupo 949987">
                                      <g id="Grupo_949986" data-name="Grupo 949986">
                                        <g id="Grupo_949985" data-name="Grupo 949985">
                                          <path id="Trazado_628337" data-name="Trazado 628337" d="M811.421,4882.89a.727.727,0,0,0,.741.694.7.7,0,0,0,.7-.714.728.728,0,0,0-.741-.7A.7.7,0,0,0,811.421,4882.89Z" transform="translate(-811.421 -4882.175)" fill="#263238"/>
                                        </g>
                                      </g>
                                    </g>
                                  </g>
                                </g>
                              </g>
                              <g id="Grupo_949997" data-name="Grupo 949997">
                                <g id="Grupo_949996" data-name="Grupo 949996">
                                  <g id="Grupo_949995" data-name="Grupo 949995">
                                    <g id="Grupo_949994" data-name="Grupo 949994">
                                      <g id="Grupo_949993" data-name="Grupo 949993">
                                        <g id="Grupo_949992" data-name="Grupo 949992">
                                          <g id="Grupo_949991" data-name="Grupo 949991">
                                            <path id="Trazado_628338" data-name="Trazado 628338" d="M811.114,4881.921c.1.09.612-.359,1.384-.412s1.365.3,1.442.2c.038-.045-.064-.212-.323-.379a1.93,1.93,0,0,0-1.162-.28,1.871,1.871,0,0,0-1.093.447C811.136,4881.7,811.067,4881.881,811.114,4881.921Z" transform="translate(-811.1 -4881.046)" fill="#263238"/>
                                          </g>
                                        </g>
                                      </g>
                                    </g>
                                  </g>
                                </g>
                              </g>
                            </g>
                            <g id="Grupo_950012" data-name="Grupo 950012" transform="translate(7.602)">
                              <g id="Grupo_950004" data-name="Grupo 950004" transform="translate(0.253 0.977)">
                                <g id="Grupo_950003" data-name="Grupo 950003">
                                  <g id="Grupo_950002" data-name="Grupo 950002">
                                    <g id="Grupo_950001" data-name="Grupo 950001">
                                      <g id="Grupo_950000" data-name="Grupo 950000">
                                        <g id="Grupo_949999" data-name="Grupo 949999">
                                          <path id="Trazado_628339" data-name="Trazado 628339" d="M821.346,4882.521a.727.727,0,0,0,.741.694.7.7,0,0,0,.7-.714.726.726,0,0,0-.741-.694A.7.7,0,0,0,821.346,4882.521Z" transform="translate(-821.346 -4881.808)" fill="#263238"/>
                                        </g>
                                      </g>
                                    </g>
                                  </g>
                                </g>
                              </g>
                              <g id="Grupo_950011" data-name="Grupo 950011">
                                <g id="Grupo_950010" data-name="Grupo 950010">
                                  <g id="Grupo_950009" data-name="Grupo 950009">
                                    <g id="Grupo_950008" data-name="Grupo 950008">
                                      <g id="Grupo_950007" data-name="Grupo 950007">
                                        <g id="Grupo_950006" data-name="Grupo 950006">
                                          <g id="Grupo_950005" data-name="Grupo 950005">
                                            <path id="Trazado_628340" data-name="Trazado 628340" d="M821.029,4881.438c.1.091.612-.359,1.385-.412s1.365.305,1.442.2c.038-.045-.063-.212-.323-.379a1.935,1.935,0,0,0-1.162-.28,1.876,1.876,0,0,0-1.094.448C821.052,4881.219,820.983,4881.4,821.029,4881.438Z" transform="translate(-821.015 -4880.563)" fill="#263238"/>
                                          </g>
                                        </g>
                                      </g>
                                    </g>
                                  </g>
                                </g>
                              </g>
                            </g>
                            <g id="Grupo_950019" data-name="Grupo 950019" transform="translate(3.193 0.32)">
                              <g id="Grupo_950018" data-name="Grupo 950018">
                                <g id="Grupo_950017" data-name="Grupo 950017">
                                  <g id="Grupo_950016" data-name="Grupo 950016">
                                    <g id="Grupo_950015" data-name="Grupo 950015">
                                      <g id="Grupo_950014" data-name="Grupo 950014">
                                        <g id="Grupo_950013" data-name="Grupo 950013">
                                          <path id="Trazado_628341" data-name="Trazado 628341" d="M817.272,4887.587a5.06,5.06,0,0,0-1.27-.145c-.2-.007-.388-.034-.43-.169a1.047,1.047,0,0,1,.092-.609q.229-.751.481-1.578a26.993,26.993,0,0,0,1.043-4.115,27.138,27.138,0,0,0-1.365,4.019c-.159.554-.311,1.082-.456,1.586a1.2,1.2,0,0,0-.05.8.5.5,0,0,0,.343.272,1.351,1.351,0,0,0,.338.025A4.9,4.9,0,0,0,817.272,4887.587Z" transform="translate(-815.265 -4880.97)" fill="#263238"/>
                                        </g>
                                      </g>
                                    </g>
                                  </g>
                                </g>
                              </g>
                            </g>
                            <g id="Grupo_950026" data-name="Grupo 950026" transform="translate(5.187 7.326)">
                              <g id="Grupo_950025" data-name="Grupo 950025">
                                <g id="Grupo_950024" data-name="Grupo 950024">
                                  <g id="Grupo_950023" data-name="Grupo 950023">
                                    <g id="Grupo_950022" data-name="Grupo 950022">
                                      <g id="Grupo_950021" data-name="Grupo 950021">
                                        <g id="Grupo_950020" data-name="Grupo 950020">
                                          <path id="Trazado_628342" data-name="Trazado 628342" d="M820.188,4889.893c-.126,0-.071.86-.748,1.519s-1.576.627-1.574.748c-.009.054.21.153.588.137a2.064,2.064,0,0,0,1.317-.575,1.886,1.886,0,0,0,.573-1.27C820.353,4890.09,820.246,4889.883,820.188,4889.893Z" transform="translate(-817.866 -4889.892)" fill="#263238"/>
                                        </g>
                                      </g>
                                    </g>
                                  </g>
                                </g>
                              </g>
                            </g>
                          </g>
                        </g>
                      </g>
                      <g id="Grupo_950035" data-name="Grupo 950035" transform="translate(7.205)">
                        <g id="Grupo_950034" data-name="Grupo 950034">
                          <g id="Grupo_950033" data-name="Grupo 950033">
                            <g id="Grupo_950032" data-name="Grupo 950032">
                              <g id="Grupo_950031" data-name="Grupo 950031">
                                <g id="Grupo_950030" data-name="Grupo 950030">
                                  <path id="Trazado_628343" data-name="Trazado 628343" d="M820.5,4877.555c.091.209.855.054,1.768.1.915.03,1.664.25,1.771.049.048-.1-.094-.289-.4-.477a3.013,3.013,0,0,0-2.7-.117C820.621,4877.274,820.464,4877.455,820.5,4877.555Z" transform="translate(-820.498 -4876.851)" fill="#263238"/>
                                </g>
                              </g>
                            </g>
                          </g>
                        </g>
                      </g>
                      <g id="Grupo_950041" data-name="Grupo 950041" transform="translate(0.121 0.943)">
                        <g id="Grupo_950040" data-name="Grupo 950040">
                          <g id="Grupo_950039" data-name="Grupo 950039">
                            <g id="Grupo_950038" data-name="Grupo 950038">
                              <g id="Grupo_950037" data-name="Grupo 950037">
                                <g id="Grupo_950036" data-name="Grupo 950036">
                                  <path id="Trazado_628344" data-name="Trazado 628344" d="M811.283,4878.969c.147.169.667-.054,1.306-.107.637-.077,1.19.038,1.3-.158.048-.1-.048-.27-.3-.422a1.773,1.773,0,0,0-1.083-.221,1.792,1.792,0,0,0-1.019.434C811.28,4878.695,811.217,4878.885,811.283,4878.969Z" transform="translate(-811.258 -4878.051)" fill="#263238"/>
                                </g>
                              </g>
                            </g>
                          </g>
                        </g>
                      </g>
                    </g>
                  </g>
                </g>
              </g>
            </g>
          </g>
        </g>
        <g id="Grupo_950049" data-name="Grupo 950049" transform="translate(17.293 13.561)">
          <path id="Trazado_628345" data-name="Trazado 628345" d="M831.825,4877.24c-.038,1.437.1,2.881.061,4.318a4.994,4.994,0,0,1-.4,1.575,1.576,1.576,0,0,1-1.1,1.045,1.544,1.544,0,0,1-1.52-.851,4.292,4.292,0,0,1-.428-1.822,6.051,6.051,0,0,0-.312-1.854,10.057,10.057,0,0,0-1.161-1.748,2.321,2.321,0,0,1-.455-1.985,10.054,10.054,0,0,1,5.314,1.324" transform="translate(-826.43 -4875.892)" fill="#263238"/>
        </g>
        <g id="Grupo_950050" data-name="Grupo 950050" transform="translate(4.037 9.588)">
          <path id="Trazado_628346" data-name="Trazado 628346" d="M809.223,4876.8l-.084-2.887,8.049-3.076,10.464,2.384.2,3.1A24.73,24.73,0,0,0,809.223,4876.8Z" transform="translate(-809.139 -4870.833)" fill="#455a64"/>
        </g>
        <g id="Grupo_950051" data-name="Grupo 950051" transform="translate(1.342 9.375)">
          <path id="Trazado_628347" data-name="Trazado 628347" d="M808.792,4873.206l-.337.384-2.831,2.106a45.946,45.946,0,0,1,11.453-2.374,53.66,53.66,0,0,1,12.741,1.222l-4.053-2.129h0a6.632,6.632,0,0,0-4.911-1.845l-7.388.364A6.653,6.653,0,0,0,808.792,4873.206Z" transform="translate(-805.624 -4870.562)" fill="#9b5eff"/>
        </g>
        <g id="Grupo_950053" data-name="Grupo 950053" transform="translate(9.438 1.451)">
          <g id="Grupo_950052" data-name="Grupo 950052">
            <path id="Trazado_628348" data-name="Trazado 628348" d="M816.393,4868.531a52.8,52.8,0,0,0-.095-8.061,52.509,52.509,0,0,0,.095,8.061Z" transform="translate(-816.184 -4860.471)" fill="#263238"/>
          </g>
        </g>
        <g id="Grupo_950055" data-name="Grupo 950055" transform="translate(14.175 0.908)">
          <g id="Grupo_950054" data-name="Grupo 950054">
            <path id="Trazado_628349" data-name="Trazado 628349" d="M824.33,4860.092a5.306,5.306,0,0,0-1.411-.313.615.615,0,0,0-.556.606c.018.273.035.556.053.849.047.6.1,1.247.147,1.92.113,1.361.232,2.593.333,3.483a6.768,6.768,0,0,0,.229,1.437,6.809,6.809,0,0,0-.011-1.452c-.046-.895-.131-2.129-.244-3.491-.06-.673-.117-1.314-.171-1.919l-.081-.827a.379.379,0,0,1,.321-.383A7.416,7.416,0,0,0,824.33,4860.092Z" transform="translate(-822.363 -4859.779)" fill="#263238"/>
          </g>
        </g>
        <g id="Grupo_950057" data-name="Grupo 950057" transform="translate(1.155 9.044)">
          <g id="Grupo_950056" data-name="Grupo 950056">
            <path id="Trazado_628350" data-name="Trazado 628350" d="M805.381,4875.582c.014.022.335-.168.953-.441.307-.142.688-.306,1.114-.545a3.32,3.32,0,0,0,1.234-1.132c.363-.547.386-1.279.791-1.828.373-.581,1.179-.634,1.958-.719,1.581-.176,3.324-.312,5.158-.389s3.586-.092,5.176-.077a3.093,3.093,0,0,1,2.057.548,5.673,5.673,0,0,1,.671.76l.312.384.159.18a.741.741,0,0,0,.227.149c1.135.469,2.059.753,2.693,1a10.272,10.272,0,0,0,.99.35c0-.011-.077-.059-.236-.14s-.4-.191-.711-.325c-.616-.277-1.552-.6-2.642-1.084a.531.531,0,0,1-.156-.1l-.15-.178-.3-.384a5.7,5.7,0,0,0-.691-.807,3.318,3.318,0,0,0-2.219-.642c-1.6-.031-3.352-.026-5.193.053s-3.593.223-5.178.415a8.008,8.008,0,0,0-1.17.192,1.645,1.645,0,0,0-.965.664c-.444.646-.446,1.376-.768,1.863a3.2,3.2,0,0,1-1.135,1.1c-.406.248-.779.428-1.079.587s-.53.29-.682.386A.939.939,0,0,0,805.381,4875.582Z" transform="translate(-805.381 -4870.141)" fill="#263238"/>
          </g>
        </g>
        <g id="Grupo_950059" data-name="Grupo 950059" transform="translate(2.284 12.13)">
          <g id="Grupo_950058" data-name="Grupo 950058">
            <path id="Trazado_628351" data-name="Trazado 628351" d="M806.854,4876.8a.807.807,0,0,0,.212-.125,4.547,4.547,0,0,1,.59-.365,11.778,11.778,0,0,1,2.367-.919,28.95,28.95,0,0,1,8.31-.991c1.651.006,3.217-.028,4.634.063,1.409.106,2.693.29,3.747.472.529.1,1,.2,1.415.316a2.365,2.365,0,0,1,.972.431,1.017,1.017,0,0,1,.361.811c.007,0,.049-.08.041-.251a1.033,1.033,0,0,0-.321-.652,2.4,2.4,0,0,0-1.005-.509c-.412-.129-.889-.255-1.421-.367a34.887,34.887,0,0,0-3.769-.542c-1.432-.108-3.008-.082-4.651-.089a26.944,26.944,0,0,0-8.373,1.093,10.394,10.394,0,0,0-2.366,1.028,3.345,3.345,0,0,0-.567.422C806.906,4876.728,806.846,4876.788,806.854,4876.8Z" transform="translate(-806.853 -4874.07)" fill="#263238"/>
          </g>
        </g>
        <g id="Grupo_950061" data-name="Grupo 950061" transform="translate(10.856 0.243)">
          <g id="Grupo_950060" data-name="Grupo 950060">
            <path id="Trazado_628352" data-name="Trazado 628352" d="M818.033,4859.188a4.769,4.769,0,0,0,.771.006l1.856-.076c.722-.02,1.385-.115,1.845-.068a.9.9,0,0,1,.647.338c.005,0-.016-.08-.112-.184a.925.925,0,0,0-.522-.243,12.935,12.935,0,0,0-1.864.031l-1.855.112A4.622,4.622,0,0,0,818.033,4859.188Z" transform="translate(-818.033 -4858.932)" fill="#fafafa"/>
          </g>
        </g>
        <g id="Grupo_950063" data-name="Grupo 950063" transform="translate(10.539 9.681)">
          <g id="Grupo_950062" data-name="Grupo 950062">
            <path id="Trazado_628353" data-name="Trazado 628353" d="M817.62,4871.1a2.336,2.336,0,0,0,.389.008l1.06-.016c.895-.013,2.131-.023,3.5,0l1.924.049a8.617,8.617,0,0,1,1.556.125,1.517,1.517,0,0,1,.872.537,1.785,1.785,0,0,1,.186.342.765.765,0,0,0-.146-.371,1.525,1.525,0,0,0-.889-.6,8.093,8.093,0,0,0-1.573-.155c-.592-.027-1.243-.048-1.927-.059-1.367-.022-2.605,0-3.5.039l-1.06.056A2.194,2.194,0,0,0,817.62,4871.1Z" transform="translate(-817.62 -4870.951)" fill="#fafafa"/>
          </g>
        </g>
        <g id="Grupo_950065" data-name="Grupo 950065" transform="translate(13.869 1.206)">
          <g id="Grupo_950064" data-name="Grupo 950064">
            <path id="Trazado_628354" data-name="Trazado 628354" d="M822.67,4867.379a1.319,1.319,0,0,0-.023-.285c-.034-.254-.067-.509-.1-.771-.087-.65-.2-1.55-.294-2.546s-.155-1.9-.192-2.558c-.015-.263-.031-.52-.045-.775a1.29,1.29,0,0,0-.031-.285,1.3,1.3,0,0,0-.017.286c0,.184,0,.45.006.779.015.657.062,1.565.156,2.565s.222,1.9.33,2.548c.054.324.1.585.141.766A1.26,1.26,0,0,0,822.67,4867.379Z" transform="translate(-821.964 -4860.158)" fill="#fafafa"/>
          </g>
        </g>
        <g id="Grupo_950067" data-name="Grupo 950067" transform="translate(20.958 11.547)">
          <g id="Grupo_950066" data-name="Grupo 950066">
            <path id="Trazado_628355" data-name="Trazado 628355" d="M831.21,4873.329a1.084,1.084,0,0,0,.242.111l.674.26,2.239.812a9.318,9.318,0,0,1,1.211.475,1.511,1.511,0,0,1,.718.732,1.091,1.091,0,0,1,.064.7c-.047.162-.11.238-.1.245a.556.556,0,0,0,.146-.23,1.1,1.1,0,0,0-.03-.745,1.56,1.56,0,0,0-.744-.8,8.206,8.206,0,0,0-1.224-.493l-2.251-.777-.686-.222A1.124,1.124,0,0,0,831.21,4873.329Z" transform="translate(-831.21 -4873.327)" fill="#fafafa"/>
          </g>
        </g>
      </g>
      <g id="Grupo_950134" data-name="Grupo 950134" transform="translate(2.423 36.291)">
        <g id="Grupo_950093" data-name="Grupo 950093" transform="translate(0 56.258)">
          <g id="Grupo_950088" data-name="Grupo 950088" transform="translate(0 59.067)">
            <g id="Grupo_950082" data-name="Grupo 950082">
              <g id="Grupo_950069" data-name="Grupo 950069" transform="translate(0.012)">
                <path id="Trazado_628356" data-name="Trazado 628356" d="M753.705,5051.969l.694,12.748s-12.417,5-12.513,7.373l24.18-.491-.286-19.907Z" transform="translate(-741.886 -5051.692)" fill="#9b5eff"/>
              </g>
              <g id="Grupo_950070" data-name="Grupo 950070" transform="translate(0.012)" opacity="0.4">
                <path id="Trazado_628357" data-name="Trazado 628357" d="M753.705,5051.969l.694,12.748s-12.417,5-12.513,7.373l24.18-.491-.286-19.907Z" transform="translate(-741.886 -5051.692)"/>
              </g>
              <g id="Grupo_950072" data-name="Grupo 950072" transform="translate(18.816 11.763)">
                <g id="Grupo_950071" data-name="Grupo 950071">
                  <path id="Trazado_628358" data-name="Trazado 628358" d="M767.578,5066.709a1.012,1.012,0,0,1,.7,1.141.949.949,0,0,1-1.1.726,1.069,1.069,0,0,1-.741-1.211.98.98,0,0,1,1.224-.625" transform="translate(-766.413 -5066.671)" fill="#e0e0e0"/>
                </g>
              </g>
              <g id="Grupo_950073" data-name="Grupo 950073" transform="translate(0 17.902)">
                <path id="Trazado_628359" data-name="Trazado 628359" d="M766.062,5076.5l-.106-2.006-23.143,1.22s-1.067.5-.931,1.275Z" transform="translate(-741.87 -5074.489)" fill="#e0e0e0"/>
              </g>
              <g id="Grupo_950075" data-name="Grupo 950075" transform="translate(12.13 12.788)">
                <g id="Grupo_950074" data-name="Grupo 950074">
                  <path id="Trazado_628360" data-name="Trazado 628360" d="M757.693,5068.1c.006.121.6.164,1.186.541.6.361.908.879,1.015.829.108-.026-.081-.746-.8-1.189S757.664,5067.986,757.693,5068.1Z" transform="translate(-757.692 -5067.976)" fill="#263238"/>
                </g>
              </g>
              <g id="Grupo_950077" data-name="Grupo 950077" transform="translate(9.615 13.982)">
                <g id="Grupo_950076" data-name="Grupo 950076">
                  <path id="Trazado_628361" data-name="Trazado 628361" d="M754.412,5069.548c-.025.117.491.313.9.816s.537,1.042.654,1.035c.112.017.179-.693-.343-1.309S754.412,5069.433,754.412,5069.548Z" transform="translate(-754.411 -5069.497)" fill="#263238"/>
                </g>
              </g>
              <g id="Grupo_950079" data-name="Grupo 950079" transform="translate(7.25 15.103)">
                <g id="Grupo_950078" data-name="Grupo 950078">
                  <path id="Trazado_628362" data-name="Trazado 628362" d="M752.312,5072.994c.107.023.26-.585-.056-1.241s-.873-.908-.922-.807c-.064.1.3.449.552.991S752.194,5072.984,752.312,5072.994Z" transform="translate(-751.327 -5070.924)" fill="#263238"/>
                </g>
              </g>
              <g id="Grupo_950081" data-name="Grupo 950081" transform="translate(12.283 9.526)">
                <g id="Grupo_950080" data-name="Grupo 950080">
                  <path id="Trazado_628363" data-name="Trazado 628363" d="M757.9,5064.282c.051.109.59-.069,1.258-.036s1.193.238,1.252.132c.067-.088-.448-.526-1.237-.553S757.836,5064.188,757.9,5064.282Z" transform="translate(-757.891 -5063.823)" fill="#263238"/>
                </g>
              </g>
            </g>
            <g id="Grupo_950083" data-name="Grupo 950083" transform="translate(11.971 2.674)" opacity="0.3">
              <path id="Trazado_628364" data-name="Trazado 628364" d="M757.485,5055.226l.121,2.272,11.881-.352-.024-2.049Z" transform="translate(-757.485 -5055.097)"/>
            </g>
            <g id="Grupo_950085" data-name="Grupo 950085" transform="translate(12.193 5.353)">
              <g id="Grupo_950084" data-name="Grupo 950084">
                <path id="Trazado_628365" data-name="Trazado 628365" d="M757.774,5060.565a2.225,2.225,0,0,0,1.211-.031,5.37,5.37,0,0,0,1.259-.424,5.783,5.783,0,0,0,.689-.393,1.478,1.478,0,0,0,.359-.3.536.536,0,0,0,.042-.644.646.646,0,0,0-.523-.266,1.589,1.589,0,0,0-.453.073,4.415,4.415,0,0,0-.748.28,4.277,4.277,0,0,0-1.1.774c-.55.543-.733,1-.692,1.021.054.039.32-.345.882-.8a4.776,4.776,0,0,1,1.068-.645,4.473,4.473,0,0,1,.691-.234c.255-.074.473-.081.541.035.024.044.028.062-.024.14a1.252,1.252,0,0,1-.265.218,6.459,6.459,0,0,1-.632.387,6.6,6.6,0,0,1-1.162.484A8.36,8.36,0,0,0,757.774,5060.565Z" transform="translate(-757.774 -5058.509)" fill="#263238"/>
              </g>
            </g>
            <g id="Grupo_950087" data-name="Grupo 950087" transform="translate(10.709 3.664)">
              <g id="Grupo_950086" data-name="Grupo 950086">
                <path id="Trazado_628366" data-name="Trazado 628366" d="M757.48,5060.274a2.01,2.01,0,0,0,.3-1.2,4.091,4.091,0,0,0-.514-2.1,1.007,1.007,0,0,0-.785-.61.566.566,0,0,0-.5.355,1.677,1.677,0,0,0-.116.458,2.8,2.8,0,0,0,.015.835,2.88,2.88,0,0,0,.542,1.271c.485.632.98.766.989.726.038-.062-.377-.287-.751-.9a2.9,2.9,0,0,1-.406-1.158,2.647,2.647,0,0,1,.008-.717c.033-.264.125-.479.222-.453.12,0,.328.189.431.4a4.179,4.179,0,0,1,.314.667,4.606,4.606,0,0,1,.258,1.233C757.532,5059.8,757.415,5060.257,757.48,5060.274Z" transform="translate(-755.839 -5056.358)" fill="#263238"/>
              </g>
            </g>
          </g>
          <g id="Grupo_950092" data-name="Grupo 950092" transform="translate(3.989)">
            <g id="Grupo_950091" data-name="Grupo 950091">
              <g id="Grupo_950090" data-name="Grupo 950090">
                <g id="Grupo_950089" data-name="Grupo 950089">
                  <path id="Trazado_628367" data-name="Trazado 628367" d="M820.195,4981.66s-2.643,13.878-7.031,14.074c-5.384.242-44.355.788-44.355.788l2.374,44.459-17.01-.419-6.8-43.81a17.138,17.138,0,0,1,1.809-11.5l.139-.245a16.256,16.256,0,0,1,13.917-8.033l32.372-.5Z" transform="translate(-747.073 -4976.475)" fill="#263238"/>
                </g>
              </g>
            </g>
          </g>
        </g>
        <g id="Grupo_950132" data-name="Grupo 950132" transform="translate(6.61)">
          <g id="Grupo_950112" data-name="Grupo 950112" transform="translate(0 115.325)">
            <g id="Grupo_950106" data-name="Grupo 950106">
              <g id="Grupo_950094" data-name="Grupo 950094" transform="translate(0.012)">
                <path id="Trazado_628368" data-name="Trazado 628368" d="M762.325,5051.969l.695,12.748s-12.417,5-12.513,7.373l24.179-.491-.285-19.907Z" transform="translate(-750.507 -5051.692)" fill="#9b5eff"/>
              </g>
              <g id="Grupo_950096" data-name="Grupo 950096" transform="translate(18.816 11.763)">
                <g id="Grupo_950095" data-name="Grupo 950095">
                  <path id="Trazado_628369" data-name="Trazado 628369" d="M776.2,5066.709a1.012,1.012,0,0,1,.705,1.141.949.949,0,0,1-1.1.726,1.069,1.069,0,0,1-.741-1.211.98.98,0,0,1,1.223-.625" transform="translate(-775.034 -5066.671)" fill="#e0e0e0"/>
                </g>
              </g>
              <g id="Grupo_950097" data-name="Grupo 950097" transform="translate(0 17.902)">
                <path id="Trazado_628370" data-name="Trazado 628370" d="M774.682,5076.5l-.1-2.006-23.143,1.22s-1.067.5-.931,1.275Z" transform="translate(-750.491 -5074.489)" fill="#e0e0e0"/>
              </g>
              <g id="Grupo_950099" data-name="Grupo 950099" transform="translate(12.129 12.788)">
                <g id="Grupo_950098" data-name="Grupo 950098">
                  <path id="Trazado_628371" data-name="Trazado 628371" d="M766.313,5068.1c.006.121.6.164,1.186.541.6.361.908.879,1.016.829.108-.026-.082-.746-.8-1.189S766.285,5067.986,766.313,5068.1Z" transform="translate(-766.312 -5067.976)" fill="#263238"/>
                </g>
              </g>
              <g id="Grupo_950101" data-name="Grupo 950101" transform="translate(9.615 13.982)">
                <g id="Grupo_950100" data-name="Grupo 950100">
                  <path id="Trazado_628372" data-name="Trazado 628372" d="M763.033,5069.548c-.025.117.49.313.9.816s.537,1.042.655,1.035c.111.017.179-.693-.343-1.309S763.033,5069.433,763.033,5069.548Z" transform="translate(-763.032 -5069.497)" fill="#263238"/>
                </g>
              </g>
              <g id="Grupo_950103" data-name="Grupo 950103" transform="translate(7.25 15.103)">
                <g id="Grupo_950102" data-name="Grupo 950102">
                  <path id="Trazado_628373" data-name="Trazado 628373" d="M760.932,5072.994c.108.023.261-.585-.055-1.241s-.873-.908-.922-.807c-.064.1.3.449.552.991S760.815,5072.984,760.932,5072.994Z" transform="translate(-759.948 -5070.924)" fill="#263238"/>
                </g>
              </g>
              <g id="Grupo_950105" data-name="Grupo 950105" transform="translate(12.282 9.526)">
                <g id="Grupo_950104" data-name="Grupo 950104">
                  <path id="Trazado_628374" data-name="Trazado 628374" d="M766.516,5064.282c.052.109.59-.069,1.259-.036s1.192.238,1.252.132c.067-.088-.449-.526-1.237-.553S766.456,5064.188,766.516,5064.282Z" transform="translate(-766.511 -5063.823)" fill="#263238"/>
                </g>
              </g>
            </g>
            <g id="Grupo_950107" data-name="Grupo 950107" transform="translate(11.971 2.674)" opacity="0.3">
              <path id="Trazado_628375" data-name="Trazado 628375" d="M766.106,5055.226l.121,2.272,11.881-.352-.024-2.049Z" transform="translate(-766.106 -5055.097)"/>
            </g>
            <g id="Grupo_950109" data-name="Grupo 950109" transform="translate(12.193 5.353)">
              <g id="Grupo_950108" data-name="Grupo 950108">
                <path id="Trazado_628376" data-name="Trazado 628376" d="M766.4,5060.565a2.224,2.224,0,0,0,1.211-.031,5.371,5.371,0,0,0,1.259-.424,5.773,5.773,0,0,0,.688-.393,1.481,1.481,0,0,0,.36-.3.537.537,0,0,0,.041-.644.644.644,0,0,0-.522-.266,1.59,1.59,0,0,0-.453.073,4.365,4.365,0,0,0-.747.28,4.263,4.263,0,0,0-1.1.774c-.55.543-.733,1-.692,1.021.054.039.32-.345.882-.8a4.769,4.769,0,0,1,1.067-.645,4.458,4.458,0,0,1,.692-.234c.255-.074.472-.081.54.035.025.044.028.062-.024.14a1.239,1.239,0,0,1-.265.218,6.381,6.381,0,0,1-.633.387,6.6,6.6,0,0,1-1.162.484A8.357,8.357,0,0,0,766.4,5060.565Z" transform="translate(-766.395 -5058.509)" fill="#263238"/>
              </g>
            </g>
            <g id="Grupo_950111" data-name="Grupo 950111" transform="translate(10.709 3.664)">
              <g id="Grupo_950110" data-name="Grupo 950110">
                <path id="Trazado_628377" data-name="Trazado 628377" d="M766.1,5060.274a2.006,2.006,0,0,0,.3-1.2,4.071,4.071,0,0,0-.514-2.1,1,1,0,0,0-.784-.61.568.568,0,0,0-.5.355,1.7,1.7,0,0,0-.115.458,2.8,2.8,0,0,0,.015.835,2.888,2.888,0,0,0,.541,1.271c.485.632.981.766.99.726.038-.062-.378-.287-.751-.9a2.9,2.9,0,0,1-.406-1.158,2.613,2.613,0,0,1,.008-.717c.033-.264.125-.479.222-.453.12,0,.329.189.432.4a4.111,4.111,0,0,1,.313.667,4.547,4.547,0,0,1,.258,1.233C766.154,5059.8,766.036,5060.257,766.1,5060.274Z" transform="translate(-764.46 -5056.358)" fill="#263238"/>
              </g>
            </g>
          </g>
          <g id="Grupo_950116" data-name="Grupo 950116" transform="translate(1.674 56.258)">
            <g id="Grupo_950115" data-name="Grupo 950115">
              <g id="Grupo_950114" data-name="Grupo 950114">
                <g id="Grupo_950113" data-name="Grupo 950113">
                  <path id="Trazado_628378" data-name="Trazado 628378" d="M825.8,4981.66s-2.642,13.878-7.03,14.074c-5.385.242-44.356.788-44.356.788l2.375,44.459-17.01-.419-6.8-43.81a17.134,17.134,0,0,1,1.809-11.5c.045-.082.092-.164.139-.245a16.256,16.256,0,0,1,13.917-8.033l32.371-.5Z" transform="translate(-752.674 -4976.475)" fill="#263238"/>
                </g>
              </g>
            </g>
          </g>
          <g id="Grupo_950118" data-name="Grupo 950118" transform="translate(41.63)">
            <g id="Grupo_950117" data-name="Grupo 950117">
              <path id="Trazado_628379" data-name="Trazado 628379" d="M804.79,4910.533l5.094,34.929-3.47,15.69,31.542,9.511c2.848-4.173,2.959-17.44,2.86-26.824-.176-16.537.535-17.339-.16-23.14-.687-5.731-1.89-9.531-4.881-11.354l-8.558-4.508s-4.852,3.162-7.8,2.99c0,0-3.506.147-5.45-1.758C813.97,4906.068,806.886,4908.268,804.79,4910.533Z" transform="translate(-804.79 -4904.836)" fill="#9b5eff"/>
            </g>
          </g>
          <path id="Trazado_628380" data-name="Trazado 628380" d="M801.59,4912.091l-10.514,14.843,14.315,8.606-1.094-5.4Z" transform="translate(-759.961 -4906.394)" fill="#9b5eff"/>
          <g id="Grupo_950119" data-name="Grupo 950119" transform="translate(1.675 56.956)">
            <path id="Trazado_628381" data-name="Trazado 628381" d="M767.58,4977.382a.61.61,0,0,1-.182.028l-.532.042a7.824,7.824,0,0,0-.86.1,10.447,10.447,0,0,0-1.158.224,15.02,15.02,0,0,0-6.562,3.564,17.643,17.643,0,0,0-3.275,4.075,14.044,14.044,0,0,0-1.848,5.705,28.209,28.209,0,0,0,.247,6.712c.31,2.322.754,4.725,1,7.214.544,4.952,1.274,9.646,1.958,13.911l1.871,11.324c.528,3.225.937,5.838,1.19,7.649l.278,2.087c.025.218.044.4.061.544a.656.656,0,0,1,.007.188.664.664,0,0,1-.048-.182c-.027-.146-.06-.322-.1-.539q-.129-.762-.352-2.074l-1.315-7.625c-.558-3.23-1.221-7.061-1.956-11.311-.7-4.264-1.446-8.961-1.991-13.928-.245-2.476-.685-4.865-.992-7.2a28.318,28.318,0,0,1-.225-6.808,14.337,14.337,0,0,1,1.929-5.837,17.771,17.771,0,0,1,3.373-4.119,14.827,14.827,0,0,1,6.715-3.5A9.815,9.815,0,0,1,767.58,4977.382Z" transform="translate(-752.676 -4977.365)" fill="#455a64"/>
          </g>
          <g id="Grupo_950131" data-name="Grupo 950131" transform="translate(12.471 6.851)">
            <g id="Grupo_950127" data-name="Grupo 950127" transform="translate(0 15.317)">
              <path id="Trazado_628382" data-name="Trazado 628382" d="M786.832,4957.085s12.165,4.024,21.627,7.535a10.161,10.161,0,0,0,9.689-1.445h0a10.609,10.609,0,0,0,3.719-5.326l6.478-20.906-10.816-3.877-7.233,18.792-26.9-3.625" transform="translate(-770.639 -4933.065)" fill="#ffbf9d"/>
              <g id="Grupo_950126" data-name="Grupo 950126" transform="translate(0 14.045)">
                <path id="Trazado_628383" data-name="Trazado 628383" d="M766.859,4956.612l-.1-.988a3.416,3.416,0,0,1,.846-1.967h0a3.3,3.3,0,0,1,.913-.719l3.188-1.7a2.439,2.439,0,0,1,1.568-.252l6.528,1.136,7.485,1.007-1.549,8.727-3.462-1.178s-2.512,1.424-4.056,1.085c0,0-1.434.979-2.023.263,0,0-1.286,1.13-1.765,1.055s-1.434-.64-1.4-.979l.037-.451a1.535,1.535,0,0,1-1.582-.076,2.324,2.324,0,0,1-.735-1.017,2.936,2.936,0,0,1-1.618-.716,3.854,3.854,0,0,1-.588-1.507S767.1,4957.635,766.859,4956.612Z" transform="translate(-766.758 -4950.95)" fill="#ffbf9d"/>
                <g id="Grupo_950120" data-name="Grupo 950120" transform="translate(1.714 2.5)">
                  <path id="Trazado_628384" data-name="Trazado 628384" d="M772.191,4954.134c.046,0,.125.357-.035.912a4.751,4.751,0,0,1-1.152,1.835c-.573.6-1.107,1.1-1.439,1.509s-.5.69-.558.666.032-.367.332-.839a11.249,11.249,0,0,1,1.377-1.618,6.1,6.1,0,0,0,1.176-1.654C772.1,4954.47,772.128,4954.132,772.191,4954.134Z" transform="translate(-768.994 -4954.134)" fill="#ff9a6c"/>
                </g>
                <g id="Grupo_950121" data-name="Grupo 950121" transform="translate(3.886 5.989)">
                  <path id="Trazado_628385" data-name="Trazado 628385" d="M774.095,4958.578a4.417,4.417,0,0,1-.851,1.969c-.633,1-1.329,1.672-1.408,1.6a33.195,33.195,0,0,1,2.259-3.567Z" transform="translate(-771.826 -4958.576)" fill="#ff9a6c"/>
                </g>
                <g id="Grupo_950122" data-name="Grupo 950122" transform="translate(6.261 8.296)">
                  <path id="Trazado_628386" data-name="Trazado 628386" d="M776.486,4961.52c.092.061-.179.632-.607,1.275s-.847,1.11-.937,1.045.182-.636.607-1.275S776.393,4961.458,776.486,4961.52Z" transform="translate(-774.925 -4961.515)" fill="#ff9a6c"/>
                </g>
                <g id="Grupo_950123" data-name="Grupo 950123" transform="translate(6.648 5.464)">
                  <path id="Trazado_628387" data-name="Trazado 628387" d="M776.3,4959.827c-.018.05-.169.055-.368-.069a1.127,1.127,0,0,1-.486-.767,1.139,1.139,0,0,1,.229-.884c.151-.182.3-.225.327-.184.073.08-.247.478-.162,1S776.34,4959.728,776.3,4959.827Z" transform="translate(-775.429 -4957.909)" fill="#ff9a6c"/>
                </g>
                <g id="Grupo_950124" data-name="Grupo 950124" transform="translate(8.571 8.261)">
                  <path id="Trazado_628388" data-name="Trazado 628388" d="M778.7,4962.937c-.019.05-.144.062-.31-.034a.951.951,0,0,1-.426-.6.736.736,0,0,1,.2-.76c.2-.135.353-.041.334.01a.634.634,0,0,0-.149.655C778.438,4962.6,778.74,4962.835,778.7,4962.937Z" transform="translate(-777.937 -4961.47)" fill="#ff9a6c"/>
                </g>
                <g id="Grupo_950125" data-name="Grupo 950125" transform="translate(5.503 3.022)">
                  <path id="Trazado_628389" data-name="Trazado 628389" d="M774.889,4956.66c-.006.051-.168.093-.4-.017a1.018,1.018,0,0,1-.55-.815,1.03,1.03,0,0,1,.394-.905c.209-.151.375-.14.389-.092.044.087-.43.4-.386.96S774.916,4956.566,774.889,4956.66Z" transform="translate(-773.935 -4954.799)" fill="#ff9a6c"/>
                </g>
              </g>
            </g>
            <g id="Grupo_950129" data-name="Grupo 950129" transform="translate(43.501)">
              <path id="Trazado_628390" data-name="Trazado 628390" d="M837.835,4914.086c-2.469-1.1-5.511.01-7.3,1.912s-2.605,4.423-3.377,6.861c-.744,2.35-2.59,7.12-3.333,9.47l14.025,6.15q1.789-4.978,3.344-10.029c.871-2.829,1.682-5.879.672-8.69" transform="translate(-823.575 -4913.58)" fill="#9b5eff"/>
              <g id="Grupo_950128" data-name="Grupo 950128">
                <path id="Trazado_628391" data-name="Trazado 628391" d="M841.79,4919.741a1.627,1.627,0,0,1,.145.347,6.215,6.215,0,0,1,.273,1.045,11.015,11.015,0,0,1-.1,4.02,45.931,45.931,0,0,1-1.7,5.92l-2.452,7.449-.064.2-.2-.09-9.871-4.316-4.158-1.826-.166-.073.054-.161c1.131-3.419,2.4-6.559,3.352-9.448a30.618,30.618,0,0,1,1.525-4.058,10.681,10.681,0,0,1,2.189-3.111,7.312,7.312,0,0,1,5.139-2.069,5.335,5.335,0,0,1,1.519.28,2.622,2.622,0,0,1,.483.222,6.625,6.625,0,0,0-2-.361,7.226,7.226,0,0,0-4.94,2.11,10.5,10.5,0,0,0-2.088,3.058,30.984,30.984,0,0,0-1.471,4.031c-.932,2.913-2.19,6.062-3.306,9.461l-.113-.234,4.159,1.822,9.861,4.338-.268.106c.908-2.687,1.751-5.183,2.506-7.42a49.078,49.078,0,0,0,1.776-5.869,11.518,11.518,0,0,0,.21-3.959C841.946,4920.229,841.756,4919.75,841.79,4919.741Z" transform="translate(-823.498 -4913.561)" fill="#263238"/>
              </g>
            </g>
            <g id="Grupo_950130" data-name="Grupo 950130" transform="translate(1.39 29.307)">
              <path id="Trazado_628392" data-name="Trazado 628392" d="M811.007,4962.848c-.051.01-.159-.819-.635-2.221a11.078,11.078,0,0,0-1.153-2.407,6.99,6.99,0,0,0-2.441-2.4l.041.012-15.193-2.023-9.159-1.265-3.994-.568c-1.244-.2-2.405-.393-3.471-.567l-1.513-.25a1.854,1.854,0,0,0-1.247.23l-1.97.976-1.253.6a2.248,2.248,0,0,1-.449.186,2.191,2.191,0,0,1,.413-.26l1.219-.669,1.94-1.038a2.077,2.077,0,0,1,1.386-.283l1.516.221,3.476.518,4,.53c2.821.381,5.914.8,9.162,1.233,5.8.811,11.109,1.552,15.178,2.119l.027,0,.015.008a7.121,7.121,0,0,1,2.522,2.546,10.725,10.725,0,0,1,1.11,2.486,11.59,11.59,0,0,1,.4,1.678A3.111,3.111,0,0,1,811.007,4962.848Z" transform="translate(-768.571 -4950.88)" fill="#ff9a6c"/>
            </g>
          </g>
        </g>
        <g id="Grupo_950133" data-name="Grupo 950133" transform="translate(48.766 11.268)">
          <path id="Trazado_628393" data-name="Trazado 628393" d="M810.063,4948.021a6.307,6.307,0,0,1-.211-1.13l-.481-3.09c-.432-2.677-1.008-6.244-1.645-10.187s-1.217-7.511-1.651-10.191c-.189-1.25-.347-2.291-.468-3.093a6.365,6.365,0,0,1-.12-1.144,6.3,6.3,0,0,1,.273,1.117c.154.8.354,1.83.594,3.073.481,2.6,1.115,6.193,1.766,10.174s1.192,7.59,1.531,10.212c.173,1.31.288,2.375.356,3.111A6.452,6.452,0,0,1,810.063,4948.021Z" transform="translate(-805.478 -4919.185)" fill="#263238"/>
        </g>
      </g>
    </g>
    <g id="Grupo_950136" data-name="Grupo 950136" transform="translate(354.454 5091.783)">
      <path id="Trazado_628394" data-name="Trazado 628394" d="M850.143,5174.71c0,.113-110.97.205-247.826.205-136.9,0-247.849-.092-247.849-.205s110.946-.2,247.849-.2C739.173,5174.506,850.143,5174.6,850.143,5174.71Z" transform="translate(-354.468 -5174.506)" fill="#263238"/>
    </g>
    <g id="Grupo_950147" data-name="Grupo 950147" transform="translate(354.407 5047.662)">
      <g id="Grupo_950137" data-name="Grupo 950137" transform="translate(7.299 0)">
        <path id="Trazado_628395" data-name="Trazado 628395" d="M371.547,5136.461c-1.232,1.7-3.522,1.065-4.563-.023a8.938,8.938,0,0,1-1.826-4.112c-.852-3.371-1.707-6.9-.919-10.292a5.752,5.752,0,0,1,1.352-2.755,2.865,2.865,0,0,1,2.78-.863,4.318,4.318,0,0,1,2.339,2.656,24.976,24.976,0,0,1,2.085,10.561,8.65,8.65,0,0,1-1.247,4.828" transform="translate(-363.927 -5118.322)" fill="#9b5eff"/>
      </g>
      <g id="Grupo_950138" data-name="Grupo 950138" transform="translate(7.299 0)" opacity="0.2">
        <path id="Trazado_628396" data-name="Trazado 628396" d="M371.547,5136.461c-1.232,1.7-3.522,1.065-4.563-.023a8.938,8.938,0,0,1-1.826-4.112c-.852-3.371-1.707-6.9-.919-10.292a5.752,5.752,0,0,1,1.352-2.755,2.865,2.865,0,0,1,2.78-.863,4.318,4.318,0,0,1,2.339,2.656,24.976,24.976,0,0,1,2.085,10.561,8.65,8.65,0,0,1-1.247,4.828" transform="translate(-363.927 -5118.322)"/>
      </g>
      <g id="Grupo_950139" data-name="Grupo 950139" transform="translate(0 25.706)">
        <path id="Trazado_628397" data-name="Trazado 628397" d="M364.651,5152.156a10.069,10.069,0,0,0-6.357-.969,5.236,5.236,0,0,0-3.188,1.354,2.363,2.363,0,0,0-.117,3.221,2.966,2.966,0,0,0,1.973.57c1.687.026,3.566-.227,4.885.85.753.613,1.239,1.613,2.15,1.93a2.152,2.152,0,0,0,2.418-1.023,3.887,3.887,0,0,0,.344-2.8A4.3,4.3,0,0,0,364.651,5152.156Z" transform="translate(-354.407 -5151.056)" fill="#9b5eff"/>
      </g>
      <g id="Grupo_950140" data-name="Grupo 950140" transform="translate(16.956 6.083)">
        <path id="Trazado_628398" data-name="Trazado 628398" d="M377.678,5140.7a6.444,6.444,0,0,1-.807-5.837,11.186,11.186,0,0,1,3.491-4.9,17.985,17.985,0,0,1,6.112-3.472,6.292,6.292,0,0,1,2.718-.4,2.838,2.838,0,0,1,2.234,1.47c.6,1.254-.045,2.737-.734,3.944a46.9,46.9,0,0,1-4.113,6.055,10.753,10.753,0,0,1-4.446,3.695c-1.824.657-3.7.522-4.62-.786" transform="translate(-376.523 -5126.069)" fill="#9b5eff"/>
      </g>
      <g id="Grupo_950142" data-name="Grupo 950142" transform="translate(5.878 28.124)">
        <g id="Grupo_950141" data-name="Grupo 950141">
          <path id="Trazado_628399" data-name="Trazado 628399" d="M370.51,5170.331a3.833,3.833,0,0,1-.087-.792c-.04-.576-.09-1.3-.149-2.157a31.709,31.709,0,0,0-.389-3.17,24.908,24.908,0,0,0-1.023-3.756,13.855,13.855,0,0,0-1.769-3.421,6.994,6.994,0,0,0-2.3-2.063,6.451,6.451,0,0,0-1.96-.686,3.626,3.626,0,0,1-.764-.135,3.45,3.45,0,0,1,.78.009,5.893,5.893,0,0,1,2.048.607,6.96,6.96,0,0,1,2.424,2.084,13.549,13.549,0,0,1,1.835,3.493,23.22,23.22,0,0,1,1.013,3.816,27.4,27.4,0,0,1,.326,3.208c.043.915.048,1.656.048,2.168A3.83,3.83,0,0,1,370.51,5170.331Z" transform="translate(-362.073 -5154.135)" fill="#263238"/>
        </g>
      </g>
      <g id="Grupo_950144" data-name="Grupo 950144" transform="translate(11.208 6.979)">
        <g id="Grupo_950143" data-name="Grupo 950143">
          <path id="Trazado_628400" data-name="Trazado 628400" d="M372.03,5162.889a1.593,1.593,0,0,1-.011-.366c.008-.275.018-.621.03-1.047.026-.908.061-2.222.055-3.846.007-3.247-.149-7.734-.547-12.673s-.99-9.39-1.547-12.586c-.131-.8-.265-1.523-.392-2.154s-.224-1.179-.325-1.621c-.086-.417-.156-.755-.212-1.024a1.622,1.622,0,0,1-.053-.363,1.606,1.606,0,0,1,.115.347l.271,1.01c.12.438.241.981.378,1.612s.294,1.35.439,2.15a121.607,121.607,0,0,1,1.643,12.6c.4,4.948.519,9.448.455,12.7-.024,1.627-.092,2.943-.156,3.851-.036.424-.066.77-.09,1.043A1.508,1.508,0,0,1,372.03,5162.889Z" transform="translate(-369.025 -5127.21)" fill="#263238"/>
        </g>
      </g>
      <g id="Grupo_950146" data-name="Grupo 950146" transform="translate(14.408 10.047)">
        <g id="Grupo_950145" data-name="Grupo 950145">
          <path id="Trazado_628401" data-name="Trazado 628401" d="M373.21,5155.062a7.024,7.024,0,0,1,.036-1.092c.057-.7.178-1.714.4-2.952a39.791,39.791,0,0,1,1.053-4.289,38.742,38.742,0,0,1,1.894-5.057,27.233,27.233,0,0,1,5.389-8.108,13.256,13.256,0,0,1,1.247-1.125c.191-.157.36-.313.531-.436l.481-.321a6.806,6.806,0,0,1,.914-.564,32.184,32.184,0,0,0-3.015,2.61,28.733,28.733,0,0,0-5.259,8.082,41.388,41.388,0,0,0-1.9,5.009c-.5,1.572-.848,3.022-1.112,4.244s-.406,2.226-.5,2.92A7.213,7.213,0,0,1,373.21,5155.062Z" transform="translate(-373.199 -5131.117)" fill="#263238"/>
        </g>
      </g>
    </g>
  </g>
</svg>
