<svg xmlns="http://www.w3.org/2000/svg" width="70" height="70" viewBox="0 0 70 70">
  <g id="Grupo_979628" data-name="Grupo 979628" transform="translate(-513.414 -5053.238)">
    <g id="Grupo_979627" data-name="Grupo 979627" transform="translate(513.414 5053.238)">
      <g id="Grupo_979625" data-name="Grupo 979625" transform="translate(1.129 1.129)">
        <g id="Grupo_979613" data-name="Grupo 979613" transform="translate(18.065 63.226)">
          <path id="Trazado_654518" data-name="Trazado 654518" d="M576.824,5162.111v2.258H545.212v-2.258a2.265,2.265,0,0,1,2.258-2.258h27.1A2.265,2.265,0,0,1,576.824,5162.111Z" transform="translate(-545.212 -5159.853)" fill="#969faa"/>
        </g>
        <g id="Grupo_979614" data-name="Grupo 979614" transform="translate(22.581 56.451)">
          <path id="Trazado_654519" data-name="Trazado 654519" d="M552.693,5148.63h22.581v6.774H552.693Z" transform="translate(-552.693 -5148.63)" fill="#aab2bd"/>
        </g>
        <g id="Grupo_979615" data-name="Grupo 979615" transform="translate(5.646 47.419)">
          <path id="Trazado_654520" data-name="Trazado 654520" d="M581.088,5133.667v4.516a4.515,4.515,0,0,1-4.516,4.516H529.153a4.515,4.515,0,0,1-4.516-4.516v-4.516h56.451Z" transform="translate(-524.637 -5133.667)" fill="#ccd1d9"/>
        </g>
        <g id="Grupo_979616" data-name="Grupo 979616" transform="translate(5.646 11.291)">
          <path id="Trazado_654521" data-name="Trazado 654521" d="M524.637,5073.813h56.451v36.129H524.637Z" transform="translate(-524.637 -5073.813)" fill="#69d6f4"/>
        </g>
        <g id="Grupo_979617" data-name="Grupo 979617" transform="translate(15.807 11.291)">
          <path id="Trazado_654522" data-name="Trazado 654522" d="M555.019,5095.264a2.264,2.264,0,0,0,2.258,2.258l-1.129,2.258a9.2,9.2,0,0,0-7.575,6.673l-4.211-4.2,1.378-2.664a16.4,16.4,0,0,1-1.4-3.41l-2.868-.915v-6.774l2.868-.915a16.4,16.4,0,0,1,1.4-3.409l-1.378-2.665,4.8-4.8,2.665,1.377a16.4,16.4,0,0,1,3.409-1.4l.914-2.868h6.774l.914,2.868a16.392,16.392,0,0,1,3.41,1.4l2.664-1.377,4.8,4.8-1.377,2.665a16.429,16.429,0,0,1,1.4,3.409l2.868.915v6.774l-2.868.915a16.426,16.426,0,0,1-1.4,3.41l1.377,2.664-4.211,4.2a9.212,9.212,0,0,0-7.576-6.673l-1.129-2.258a2.265,2.265,0,0,0,2.258-2.258v-1.129h2.258a2.264,2.264,0,0,0,2.258-2.258,2.221,2.221,0,0,0-.6-1.524,7.986,7.986,0,0,0,.6-3.025,6.736,6.736,0,0,0-6.74-6.741h-4.584a6.747,6.747,0,0,0-6.741,6.741,7.987,7.987,0,0,0,.6,3.025,2.219,2.219,0,0,0-.6,1.524,2.265,2.265,0,0,0,2.258,2.258h2.258Z" transform="translate(-541.471 -5073.813)" fill="#fcd770"/>
        </g>
        <g id="Grupo_979618" data-name="Grupo 979618" transform="translate(22.908 37.258)">
          <path id="Trazado_654523" data-name="Trazado 654523" d="M571.91,5122.727a16.419,16.419,0,0,1-3.41,1.4l-.914,2.868h-6.774l-.914-2.868a16.429,16.429,0,0,1-3.409-1.4l-2.665,1.366-.587-.576v-.011a9.2,9.2,0,0,1,7.575-6.672l3.387,4.516,3.387-4.516a9.211,9.211,0,0,1,7.576,6.672v.011l-.587.576Z" transform="translate(-553.236 -5116.833)" fill="#b4dd7f"/>
        </g>
        <g id="Grupo_979619" data-name="Grupo 979619" transform="translate(38.387 27.097)">
          <path id="Trazado_654524" data-name="Trazado 654524" d="M581.138,5100a2.206,2.206,0,0,1,1.592.667l.068.067a2.221,2.221,0,0,1,.6,1.524,2.264,2.264,0,0,1-2.258,2.258H578.88V5100Z" transform="translate(-578.88 -5099.999)" fill="#f0d0b4"/>
        </g>
        <g id="Grupo_979620" data-name="Grupo 979620" transform="translate(30.484 35)">
          <path id="Trazado_654525" data-name="Trazado 654525" d="M571.432,5113.092l1.129,2.258-3.387,4.517-3.387-4.517,1.129-2.258Z" transform="translate(-565.786 -5113.092)" fill="#f0d0b4"/>
        </g>
        <g id="Grupo_979621" data-name="Grupo 979621" transform="translate(29.355 23.71)">
          <path id="Trazado_654526" data-name="Trazado 654526" d="M572.948,5097.775v5.645a2.265,2.265,0,0,1-2.258,2.258h-4.516a2.264,2.264,0,0,1-2.258-2.258v-7.44a1.6,1.6,0,0,1,2.721-1.129l.531.531A8.17,8.17,0,0,0,572.948,5097.775Z" transform="translate(-563.916 -5094.388)" fill="#f0d0b4"/>
        </g>
        <g id="Grupo_979622" data-name="Grupo 979622" transform="translate(24.839 27.097)">
          <path id="Trazado_654527" data-name="Trazado 654527" d="M560.95,5100v4.516h-2.258a2.265,2.265,0,0,1-2.258-2.258,2.219,2.219,0,0,1,.6-1.524l.068-.067a2.2,2.2,0,0,1,1.592-.667Z" transform="translate(-556.434 -5099.999)" fill="#f0d0b4"/>
        </g>
        <g id="Grupo_979623" data-name="Grupo 979623" transform="translate(24.839 18.065)">
          <path id="Trazado_654528" data-name="Trazado 654528" d="M558.692,5094.067a2.2,2.2,0,0,0-1.592.667l-.068.067a7.986,7.986,0,0,1-.6-3.025,6.747,6.747,0,0,1,6.741-6.741h4.584a6.736,6.736,0,0,1,6.74,6.741,7.986,7.986,0,0,1-.6,3.025l-.068-.067a2.206,2.206,0,0,0-1.592-.667h-2.258a8.17,8.17,0,0,1-5.781-2.393l-.531-.531a1.6,1.6,0,0,0-2.721,1.129v1.795Z" transform="translate(-556.434 -5085.035)" fill="#b27946"/>
        </g>
        <g id="Grupo_979624" data-name="Grupo 979624">
          <path id="Trazado_654529" data-name="Trazado 654529" d="M583.026,5066.4v2.134a7.892,7.892,0,0,1-7.169,2.235,7.782,7.782,0,0,1-4.855-3.094,3.248,3.248,0,0,0-2.642-1.275H529.951a3.232,3.232,0,0,0-2.642,1.275,7.889,7.889,0,0,1-12.025.858V5066.4h3.388a3.387,3.387,0,0,0,0-6.774h-3.388v-2.134a7.882,7.882,0,0,1,7.17-2.235,7.785,7.785,0,0,1,4.855,3.093,3.245,3.245,0,0,0,2.642,1.276H568.36a3.23,3.23,0,0,0,2.642-1.276,7.89,7.89,0,0,1,12.024-.858v2.134h-3.387a3.387,3.387,0,1,0,0,6.774Z" transform="translate(-515.284 -5055.108)" fill="#ccd1d9"/>
        </g>
      </g>
      <g id="Grupo_979626" data-name="Grupo 979626">
        <path id="Trazado_654530" data-name="Trazado 654530" d="M578.9,5060.012h4.516v-3.721l-.321-.33a8.938,8.938,0,0,0-6.453-2.723,9.056,9.056,0,0,0-7.286,3.708,2.128,2.128,0,0,1-1.732.808H529.211a2.121,2.121,0,0,1-1.732-.809,8.9,8.9,0,0,0-5.563-3.547,9.073,9.073,0,0,0-8.182,2.563l-.32.329v3.723h4.516a2.258,2.258,0,1,1,0,4.516h-4.516v3.721l.32.33a8.929,8.929,0,0,0,5.324,2.646V5106.3a5.652,5.652,0,0,0,5.645,5.645h11.291v4.516h-1.129a3.391,3.391,0,0,0-3.387,3.387v3.387h33.871v-3.387a3.391,3.391,0,0,0-3.387-3.387h-1.129v-4.516h11.29a5.651,5.651,0,0,0,5.645-5.645v-35.094a9,9,0,0,0,5.324-2.63l.321-.328v-3.723H578.9a2.258,2.258,0,1,1,0-4.516Zm-33.047,40.645L545,5098l-.584-.165a14.644,14.644,0,0,1-3.158-1.3l-.528-.3-1.559.8a8.037,8.037,0,0,1,5.385-4.155l3.857,5.142,3.857-5.143a8.035,8.035,0,0,1,5.385,4.154l-1.558-.8-.528.3a14.669,14.669,0,0,1-3.158,1.3l-.584.165-.851,2.661Zm-3.082-15.807H541.64a1.129,1.129,0,0,1,0-2.258h1.129Zm0-5.177v.662H541.64a3.386,3.386,0,0,0-1,.167,6.731,6.731,0,0,1-.131-1.325,5.622,5.622,0,0,1,5.615-5.616H550.7a5.622,5.622,0,0,1,5.615,5.616,6.739,6.739,0,0,1-.131,1.327,3.347,3.347,0,0,0-1-.168H552.93a7,7,0,0,1-4.984-2.063l-.525-.525a2.725,2.725,0,0,0-4.653,1.927Zm11.29,2.919h1.129a1.129,1.129,0,1,1,0,2.258h-1.129Zm-9.032-2.919a.468.468,0,0,1,.8-.331l.525.525a9.226,9.226,0,0,0,5.451,2.658v4.584a1.129,1.129,0,0,1-1.129,1.129h-4.516a1.13,1.13,0,0,1-1.129-1.129Zm4.948,10.822.5,1.011-2.065,2.752-2.065-2.752.5-1.011Zm3.639,9.333a16.9,16.9,0,0,0,2.516-1.037l2.878,1.48,5.955-5.954-1.481-2.878a16.96,16.96,0,0,0,1.038-2.517l3.089-.991v-8.421l-3.086-.989a17.031,17.031,0,0,0-1.038-2.517l1.481-2.877-5.955-5.955-2.878,1.481a17.064,17.064,0,0,0-2.516-1.037l-.267-.83h14.268a2.121,2.121,0,0,1,1.732.808,8.9,8.9,0,0,0,5.562,3.547c.2.038.4.05.6.075v29.441H553.348Zm-2.636-33.042.851,2.66.584.165a14.551,14.551,0,0,1,3.158,1.3l.529.3,2.477-1.276,3.627,3.626-1.276,2.477.3.529a14.575,14.575,0,0,1,1.3,3.159l.165.583,2.66.85v5.127l-2.66.851-.165.583a14.677,14.677,0,0,1-1.3,3.158l-.3.528,1.276,2.479-2.4,2.4a10.315,10.315,0,0,0-7.248-5.673l-.27-.541a3.378,3.378,0,0,0,1.773-2.96h1.129a3.391,3.391,0,0,0,3.387-3.387,3.348,3.348,0,0,0-.472-1.695,8.92,8.92,0,0,0,.472-2.851,7.882,7.882,0,0,0-7.874-7.874h-4.576a7.882,7.882,0,0,0-7.872,7.874,8.952,8.952,0,0,0,.472,2.851,3.343,3.343,0,0,0-.472,1.695,3.39,3.39,0,0,0,3.387,3.387h1.129a3.376,3.376,0,0,0,1.773,2.959l-.271.541a10.31,10.31,0,0,0-7.247,5.672l-2.4-2.4,1.276-2.479-.3-.528a14.632,14.632,0,0,1-1.3-3.158l-.165-.584-2.66-.849v-5.127l2.66-.851.165-.583a14.574,14.574,0,0,1,1.3-3.159l.3-.529-1.276-2.477,3.627-3.626,2.477,1.276.529-.3a14.55,14.55,0,0,1,3.158-1.3l.584-.165.851-2.66Zm-7.762.829a17.033,17.033,0,0,0-2.516,1.038l-2.878-1.481-5.954,5.955,1.481,2.877a17.052,17.052,0,0,0-1.038,2.517l-3.089.991v8.422l3.087.989a16.889,16.889,0,0,0,1.038,2.516l-1.481,2.878,5.955,5.953,2.877-1.48a16.937,16.937,0,0,0,2.517,1.038l.267.83H521.317v-29.43a9.064,9.064,0,0,0,6.157-3.633,2.125,2.125,0,0,1,1.732-.808H543.48Zm19.877,52.236v1.128H533.736v-1.128a1.129,1.129,0,0,1,1.129-1.129h27.1A1.13,1.13,0,0,1,563.091,5119.851Zm-4.516-3.387H538.253v-4.516h20.322Zm13.548-6.774H524.7a3.391,3.391,0,0,1-3.387-3.387v-3.387H575.51v3.387A3.391,3.391,0,0,1,572.123,5109.689Zm6.774-42.9h2.258v.525a6.747,6.747,0,0,1-9.982-1.047,4.385,4.385,0,0,0-3.558-1.736h-38.41a4.386,4.386,0,0,0-3.555,1.733,6.784,6.784,0,0,1-5.462,2.783,6.692,6.692,0,0,1-4.516-1.733v-.525h2.258a4.516,4.516,0,1,0,0-9.032h-2.258v-.525a6.714,6.714,0,0,1,5.83-1.61,6.641,6.641,0,0,1,4.152,2.656,4.383,4.383,0,0,0,3.557,1.737h38.411a4.383,4.383,0,0,0,3.555-1.734,6.785,6.785,0,0,1,5.462-2.782,6.7,6.7,0,0,1,4.516,1.733v.525H578.9a4.516,4.516,0,1,0,0,9.032Z" transform="translate(-513.414 -5053.238)"/>
        <circle id="Elipse_4723" data-name="Elipse 4723" cx="1.129" cy="1.129" r="1.129" transform="translate(29.355 51.935)"/>
        <circle id="Elipse_4724" data-name="Elipse 4724" cx="1.129" cy="1.129" r="1.129" transform="translate(33.871 51.935)"/>
        <circle id="Elipse_4725" data-name="Elipse 4725" cx="1.129" cy="1.129" r="1.129" transform="translate(38.387 51.935)"/>
      </g>
    </g>
  </g>
</svg>
