<svg xmlns="http://www.w3.org/2000/svg" width="70" height="70.056" viewBox="0 0 70 70.056">
  <g id="Grupo_979675" data-name="Grupo 979675" transform="translate(-1091.976 -5232.435)">
    <path id="Trazado_654577" data-name="Trazado 654577" d="M1148.572,5285.387a22.655,22.655,0,1,0-22.655,22.714A22.685,22.685,0,0,0,1148.572,5285.387Z" transform="translate(-4.547 -12.181)" fill="#97c9e8"/>
    <path id="Trazado_654578" data-name="Trazado 654578" d="M1138.892,5262.672a22.773,22.773,0,0,0-3.42.257,22.727,22.727,0,0,1,0,44.914,22.711,22.711,0,1,0,3.42-45.171Z" transform="translate(-17.522 -12.181)" fill="#60b6ff"/>
    <g id="Grupo_979674" data-name="Grupo 979674" transform="translate(1098.716 5250.537)">
      <path id="Trazado_654579" data-name="Trazado 654579" d="M1133.019,5271.53c-3.489,2.187-6.107,5.686-4.144,9.623s6.325,2.406,10.361,1.859.981,11.918,3.38,14.98,9.16-3.062,8.506-7c-.968-5.828-1.308-7.873,6.544-12.028l.021-.007a22.68,22.68,0,0,0-20.305-16.21v.034S1136.51,5269.343,1133.019,5271.53Z" transform="translate(-1113.31 -5262.748)" fill="#baeb6c"/>
      <path id="Trazado_654580" data-name="Trazado 654580" d="M1164.97,5271.066l0,0Z" transform="translate(-1128.121 -5266.099)" fill="#baeb6c"/>
      <path id="Trazado_654581" data-name="Trazado 654581" d="M1169.608,5275.5h0Z" transform="translate(-1129.99 -5267.886)" fill="#baeb6c"/>
      <path id="Trazado_654582" data-name="Trazado 654582" d="M1110.868,5305.648c-1.048-1.6,1.854-5.357,2.509-8.2s-3.272-2.625-4.471-3.609-2.836-5.248-4.036-6.232l-.192-.151a22.777,22.777,0,0,0,7.819,26.215l.007-.477A10.455,10.455,0,0,0,1110.868,5305.648Z" transform="translate(-1103.263 -5272.701)" fill="#baeb6c"/>
      <path id="Trazado_654583" data-name="Trazado 654583" d="M1165.306,5309.99c0-.028-.01-.056-.014-.085a22.627,22.627,0,0,1-1.882,4.986C1164.7,5313.371,1165.56,5311.516,1165.306,5309.99Z" transform="translate(-1127.493 -5281.745)" fill="#baeb6c"/>
    </g>
    <path id="Trazado_654584" data-name="Trazado 654584" d="M1143.4,5262.748v.034s-.073.548-.26,1.378a22.723,22.723,0,0,1,14.56,19.169c1-1.369,2.832-2.7,5.985-4.365l.021-.007A22.681,22.681,0,0,0,1143.4,5262.748Z" transform="translate(-20.611 -12.212)" fill="#96d629"/>
    <path id="Trazado_654585" data-name="Trazado 654585" d="M1118.741,5259c-10.955-1.859-17.752-15.651-17.752-15.651s10.966-10.781,21.922-8.922,17.751,15.652,17.751,15.652S1129.7,5260.861,1118.741,5259Z" transform="translate(-3.631 -0.717)" fill="#49cb5c"/>
    <path id="Trazado_654586" data-name="Trazado 654586" d="M1133.517,5234.43a17.011,17.011,0,0,0-6.2.156c10.5,2.357,16.972,15.5,16.972,15.5s-7.178,7.056-15.722,8.766c.258.058.517.111.779.156,10.955,1.858,21.921-8.922,21.921-8.922S1144.471,5236.289,1133.517,5234.43Z" transform="translate(-14.237 -0.717)" fill="#07b128"/>
    <path id="Trazado_654587" data-name="Trazado 654587" d="M1179.314,5247.034c2.939-6.954,13.121-9.3,13.121-9.3s5.418,8.934,2.479,15.888-13.121,9.3-13.121,9.3S1176.375,5253.989,1179.314,5247.034Z" transform="translate(-34.831 -2.137)" fill="#49cb5c"/>
    <path id="Trazado_654588" data-name="Trazado 654588" d="M1194.047,5237.739a27.286,27.286,0,0,0-5.057,1.844c1.406,2.979,3.636,9.026,1.516,14.044-1.538,3.637-5.057,6.013-8.065,7.451.543,1.15.964,1.844.964,1.844s10.183-2.341,13.121-9.3S1194.047,5237.739,1194.047,5237.739Z" transform="translate(-36.443 -2.137)" fill="#07b128"/>
    <path id="Trazado_654589" data-name="Trazado 654589" d="M1160.923,5240.6a28.158,28.158,0,0,0-2.442-5.557,1.047,1.047,0,0,0-1.108-.468,28.216,28.216,0,0,0-5.687,2.122c-4.034,2.014-6.851,4.7-8.15,7.774a15.062,15.062,0,0,0-.469,9.14,29.1,29.1,0,0,0-5.472-4.763,42.376,42.376,0,0,0-4.756-7.29,1.027,1.027,0,0,0-1.593,1.295,41.079,41.079,0,0,1,3.787,5.569l-9.348-1.822-8.882-12.115a14.488,14.488,0,0,1,2.589.265,17.713,17.713,0,0,1,8.017,4.132,1.027,1.027,0,0,0,1.332-1.562,19.736,19.736,0,0,0-8.954-4.584c-4.7-.921-10.187.287-15.861,3.494a40.982,40.982,0,0,0-7.177,5.126,1.085,1.085,0,0,0-.122,1.409,41.861,41.861,0,0,0,4.6,7.225,32.071,32.071,0,0,0,4.851,4.987q-.716.6-1.393,1.261a23.725,23.725,0,0,0,7.676,38.941,1.027,1.027,0,0,0,.771-1.9,21.636,21.636,0,0,1-4.439-2.442,11.569,11.569,0,0,0-1.743-8.095c-.325-.506.647-2.5,1.228-3.685a19.263,19.263,0,0,0,1.507-3.685,2.808,2.808,0,0,0-1-3.076,7.565,7.565,0,0,0-2.44-1.082,5.241,5.241,0,0,1-1.341-.525,13.7,13.7,0,0,1-1.738-2.828,17.556,17.556,0,0,0-1.875-3.082,21.82,21.82,0,0,1,6.478-8.536,17.95,17.95,0,0,0,8.647,3.213c-3.627,2.81-4.8,6.4-3.123,9.846,1.958,4.026,5.989,3.382,9.545,2.816.616-.1,1.252-.2,1.862-.276.229-.028.3.034.343.075.779.693.756,4,.739,6.417-.023,3.342-.044,6.5,1.2,8.118a3.135,3.135,0,0,0,2.577,1.249,5.185,5.185,0,0,0,2.026-.458c3.1-1.326,6.313-5.315,5.822-8.472-.429-2.759-.713-4.582-.044-6.053.619-1.359,2.114-2.619,5.06-4.226a21.671,21.671,0,0,1-23.549,26.235,1.027,1.027,0,0,0-.224,2.04,23.856,23.856,0,0,0,19.209-6.622,23.709,23.709,0,0,0-3.651-36.826c1.356-.968,2.366-1.8,2.926-2.289a27.248,27.248,0,1,1-42.744,17.721,1.027,1.027,0,0,0-2.024-.334,29.291,29.291,0,0,0,24.13,33.674,29.674,29.674,0,0,0,4.836.4,29.311,29.311,0,0,0,26.806-40.991,29.489,29.489,0,0,0,4.732-1.864c4.033-2.014,6.852-4.7,8.149-7.773S1162.291,5244.895,1160.923,5240.6Zm-59.565,28.22a12.753,12.753,0,0,0,2.236,3.443,5.886,5.886,0,0,0,2.053.913c2.006.616,2.239.918,2.047,1.712a17.969,17.969,0,0,1-1.356,3.267c-1.06,2.168-2.061,4.216-1.112,5.7a9.754,9.754,0,0,1,1.553,5.445,21.874,21.874,0,0,1-6.325-22.131C1100.757,5267.68,1101.074,5268.281,1101.358,5268.818Zm49.654-20.168-2.917-7.068a19.2,19.2,0,0,1,4.468-3.029,27.358,27.358,0,0,1,3.243-1.365Zm6.686-10.667a27.457,27.457,0,0,1,1.284,3.281,19.619,19.619,0,0,1,.929,4.947l-6.835,2.82Zm-12.271,7.285a9.818,9.818,0,0,1,1.146-1.992l3.32,8.046-2.98,7.124a27.436,27.436,0,0,1-1.33-3.38C1144.745,5252.413,1144.037,5248.559,1145.427,5245.269Zm6.575,12.51a27.165,27.165,0,0,1-3.14,1.33l3.092-7.392,7.87-3.247a9.886,9.886,0,0,1-.686,2.594C1157.747,5254.353,1154.491,5256.531,1152,5257.778Zm-37.006-.584q-.545-.107-1.073-.257l11.358-8.326,9.353,1.823C1131.227,5253.119,1122.936,5258.75,1115,5257.194Zm-10.381-6.422a39.934,39.934,0,0,1-5.232-7.209l11.9,2.32Zm2.1-13.692,4.98,6.792-11.979-2.334A40.439,40.439,0,0,1,1106.718,5237.081Zm7.949,7.372-6.037-8.235a23.111,23.111,0,0,1,5.736-1.588l8.351,11.392Zm-.639,1.966,8.512,1.659-10.924,8.007a21.218,21.218,0,0,1-5.536-3.84Zm27.848,20.041c-3.7,1.971-5.512,3.52-6.371,5.408-.923,2.028-.585,4.205-.116,7.218.276,1.776-1.835,5.085-4.6,6.27-1.024.438-1.753.387-2.168-.154-.816-1.061-.793-4.273-.776-6.854.024-3.571.045-6.654-1.428-7.965a2.42,2.42,0,0,0-1.96-.578c-.645.081-1.3.185-1.932.286-3.772.6-6.147.842-7.377-1.686-1.992-4.1,2.041-7.129,3.868-8.243a6.455,6.455,0,0,0,1.038-.792,29.834,29.834,0,0,0,12.3-4.793A21.781,21.781,0,0,1,1141.876,5266.459Z" transform="translate(0 0)"/>
  </g>
</svg>
