<svg xmlns="http://www.w3.org/2000/svg" width="105" height="104.465" viewBox="0 0 105 104.465">
  <g id="Grupo_1009738" data-name="Grupo 1009738" transform="translate(-180 -8058.451)">
    <path id="Trazado_663291" data-name="Trazado 663291" d="M0,0H105V104.465H0Z" transform="translate(180 8058.451)" fill="#f0bd51"/>
    <g id="Fill_Outline" data-name="Fill Outline" transform="translate(195.129 8073.192)">
      <g id="Color" transform="translate(1.246 1.12)">
        <rect id="Rectángulo_311202" data-name="Rectángulo 311202" width="49.491" height="72.557" rx="4" transform="translate(22.541)" fill="#e9f1f2"/>
        <path id="Trazado_663622" data-name="Trazado 663622" d="M70.827,66.53v3.737a4.983,4.983,0,0,1-4.983,4.983H25.983A4.983,4.983,0,0,1,21,70.267V7.983A4.983,4.983,0,0,1,25.983,3h2.491a2.435,2.435,0,0,0,.735,1.756,2.435,2.435,0,0,0,1.756.735H65.845a2.5,2.5,0,0,1,2.491,2.491V64.038A2.5,2.5,0,0,0,70.827,66.53Z" transform="translate(1.422 -2.874)" fill="#d0d8da"/>
        <path id="Trazado_663623" data-name="Trazado 663623" d="M25,7H64.862V69.284H25Z" transform="translate(2.405 -1.891)" fill="#ade8f4"/>
        <path id="Trazado_663624" data-name="Trazado 663624" d="M25,7V69.284H64.862V7ZM61.125,46.862a4.983,4.983,0,0,1-4.983,4.983H51.159a17.44,17.44,0,0,1-17.44-17.44V15.72A4.983,4.983,0,0,1,38.7,10.737h17.44a4.983,4.983,0,0,1,4.983,4.983Z" transform="translate(2.405 -1.891)" fill="#48cae4"/>
        <ellipse id="Elipse_7787" data-name="Elipse 7787" cx="5.039" cy="4.927" rx="5.039" ry="4.927" transform="translate(33.514 16.348)" fill="#ff7373"/>
        <ellipse id="Elipse_7788" data-name="Elipse 7788" cx="5.039" cy="4.927" rx="5.039" ry="4.927" transform="translate(33.514 31.352)" fill="#ff7373"/>
        <g id="Grupo_987664" data-name="Grupo 987664" transform="translate(33.514 16.993)">
          <circle id="Elipse_7789" data-name="Elipse 7789" cx="5.039" cy="5.039" r="5.039" transform="translate(0 29.139)" fill="#ef5350"/>
          <path id="Trazado_663625" data-name="Trazado 663625" d="M32.491,16.54v8.62a4.974,4.974,0,0,1,0-8.62Z" transform="translate(-29.881 -16.54)" fill="#ef5350"/>
          <path id="Trazado_663626" data-name="Trazado 663626" d="M34.833,37.82a4.973,4.973,0,0,1-2.342-9.28v.573a17.246,17.246,0,0,0,2.342,8.707Z" transform="translate(-29.881 -13.592)" fill="#ef5350"/>
        </g>
        <path id="Trazado_663627" data-name="Trazado 663627" d="M3,19H20.44V36.44H3Z" transform="translate(-3 1.057)" fill="#ffd000"/>
        <path id="Trazado_663628" data-name="Trazado 663628" d="M8,19h4.983v4.983H8Z" transform="translate(-1.772 1.057)" fill="#ffea00"/>
        <path id="Trazado_663629" data-name="Trazado 663629" d="M20.44,32.7V36.44H3V19H6.737v3.737A9.965,9.965,0,0,0,16.7,32.7Z" transform="translate(-3 1.057)" fill="#ffb700"/>
        <path id="Trazado_663630" data-name="Trazado 663630" d="M3,33H20.44V50.44H3Z" transform="translate(-3 4.496)" fill="#ffd000"/>
        <path id="Trazado_663631" data-name="Trazado 663631" d="M8,33h4.983v4.983H8Z" transform="translate(-1.772 4.496)" fill="#ffea00"/>
        <path id="Trazado_663632" data-name="Trazado 663632" d="M20.44,46.7V50.44H3V33H6.737v3.737A9.965,9.965,0,0,0,16.7,46.7Z" transform="translate(-3 4.496)" fill="#ffb700"/>
        <path id="Trazado_663633" data-name="Trazado 663633" d="M3,47H20.44V64.44H3Z" transform="translate(-3 7.936)" fill="#ffd000"/>
        <path id="Trazado_663634" data-name="Trazado 663634" d="M8,47h4.983v4.983H8Z" transform="translate(-1.772 7.936)" fill="#ffea00"/>
        <path id="Trazado_663635" data-name="Trazado 663635" d="M20.44,60.7V64.44H3V47H6.737v3.737A9.965,9.965,0,0,0,16.7,60.7Z" transform="translate(-3 7.936)" fill="#ffb700"/>
        <path id="Trazado_663636" data-name="Trazado 663636" d="M17,33H34.44V50.44H17Z" transform="translate(0.44 4.496)" fill="#ffd000"/>
        <path id="Trazado_663637" data-name="Trazado 663637" d="M22,33h4.983v4.983H22Z" transform="translate(1.668 4.496)" fill="#ffea00"/>
        <path id="Trazado_663638" data-name="Trazado 663638" d="M34.44,46.7V50.44H17V33h3.737v3.737A9.965,9.965,0,0,0,30.7,46.7Z" transform="translate(0.44 4.496)" fill="#ffb700"/>
        <path id="Trazado_663639" data-name="Trazado 663639" d="M17,47H34.44V64.44H17Z" transform="translate(0.44 7.936)" fill="#ffd000"/>
        <path id="Trazado_663640" data-name="Trazado 663640" d="M22,47h4.983v4.983H22Z" transform="translate(1.668 7.936)" fill="#ffea00"/>
        <path id="Trazado_663641" data-name="Trazado 663641" d="M34.44,60.7V64.44H17V47h3.737v3.737A9.965,9.965,0,0,0,30.7,60.7Z" transform="translate(0.44 7.936)" fill="#ffb700"/>
        <path id="Trazado_663642" data-name="Trazado 663642" d="M31,47H48.44V64.44H31Z" transform="translate(3.879 7.936)" fill="#ffd000"/>
        <path id="Trazado_663643" data-name="Trazado 663643" d="M36,47h4.983v4.983H36Z" transform="translate(5.108 7.936)" fill="#ffea00"/>
        <path id="Trazado_663644" data-name="Trazado 663644" d="M48.44,60.7V64.44H31V47h3.737v3.737A9.965,9.965,0,0,0,44.7,60.7Z" transform="translate(3.879 7.936)" fill="#ffb700"/>
      </g>
      <g id="Outline_copy" data-name="Outline copy" transform="translate(0 0)">
        <path id="Trazado_663645" data-name="Trazado 663645" d="M75.5,36.879a1.246,1.246,0,0,0,1.246-1.246V8.228A6.236,6.236,0,0,0,70.513,2H30.651a6.236,6.236,0,0,0-6.228,6.228V39.37H21.931V23.177a1.246,1.246,0,0,0-1.246-1.246H3.246A1.246,1.246,0,0,0,2,23.177V46.845a1.246,1.246,0,1,0,2.491,0V41.862H8.228V45.6a1.246,1.246,0,0,0,1.246,1.246h4.983A1.246,1.246,0,0,0,15.7,45.6V41.862H19.44V53.073a1.246,1.246,0,0,0,2.491,0V41.862h3.737V45.6a1.246,1.246,0,0,0,1.246,1.246H31.9A1.246,1.246,0,0,0,33.142,45.6V41.862h3.737V56.81H4.491V51.827a1.246,1.246,0,1,0-2.491,0V75.5a1.246,1.246,0,0,0,1.246,1.246H26.914a1.246,1.246,0,1,0,0-2.491H21.931V59.3h3.737v3.737a1.246,1.246,0,0,0,1.246,1.246H31.9a1.246,1.246,0,0,0,1.246-1.246V59.3h3.737V74.25H31.9a1.246,1.246,0,1,0,0,2.491H70.513a6.236,6.236,0,0,0,6.228-6.228v-29.9a1.246,1.246,0,1,0-2.491,0v29.9a3.737,3.737,0,0,1-3.737,3.737H56.81V71.758h13.7a1.246,1.246,0,0,0,1.246-1.246V18.194a1.246,1.246,0,1,0-2.491,0V69.267H56.81V59.3h7.474a1.246,1.246,0,0,0,0-2.491H47.556a6.135,6.135,0,0,0,.534-2.491,6.2,6.2,0,0,0-.466-2.344l2.4-1.6A1.246,1.246,0,0,0,48.645,48.3l-2.4,1.6a6.2,6.2,0,0,0-4.382-1.81,6.135,6.135,0,0,0-2.491.534v-3.56a6.135,6.135,0,0,0,2.491.534,6.212,6.212,0,0,0,5.763-8.573l2.4-1.6a1.246,1.246,0,1,0-1.383-2.073l-2.4,1.6a6.167,6.167,0,0,0-8.494-.223l-.125-.092A1.246,1.246,0,1,0,36.13,36.63l.117.088a6.155,6.155,0,0,0-.614,2.652h-8.72V8.228a3.737,3.737,0,0,1,3.737-3.737H70.513A3.737,3.737,0,0,1,74.25,8.228V35.633A1.246,1.246,0,0,0,75.5,36.879ZM13.211,59.3v2.491H10.72V59.3Zm-8.72,0H8.228v3.737a1.246,1.246,0,0,0,1.246,1.246h4.983A1.246,1.246,0,0,0,15.7,63.038V59.3H19.44V74.25H4.491Zm26.159,2.491H28.159V59.3h2.491ZM54.319,59.3V74.25H39.37V59.3h3.737v3.737a1.246,1.246,0,0,0,1.246,1.246h4.983a1.246,1.246,0,0,0,1.246-1.246V59.3ZM48.09,61.793H45.6V59.3H48.09ZM45.6,54.319a3.644,3.644,0,0,1-1.005,2.491H39.37v-2.8l1.744,1.308a1.246,1.246,0,0,0,1.439.04l2.921-1.947A3.659,3.659,0,0,1,45.6,54.319ZM44.09,51.337,41.9,52.793l-2.09-1.567a3.624,3.624,0,0,1,2.048-.644,3.7,3.7,0,0,1,2.229.755Zm-2.229-15.7a3.7,3.7,0,0,1,2.229.755L41.9,37.845l-2.118-1.582A3.713,3.713,0,0,1,41.862,35.633ZM38.31,38.264l2.8,2.1a1.246,1.246,0,0,0,1.439.04l2.921-1.947a3.659,3.659,0,0,1,.125.911,3.737,3.737,0,0,1-3.737,3.737A3.644,3.644,0,0,1,39.37,42.1V40.616a1.246,1.246,0,0,0-1.246-1.246A3.7,3.7,0,0,1,38.31,38.264Zm-25.1-13.842v2.491H10.72V24.422Zm-8.72,0H8.228v3.737a1.246,1.246,0,0,0,1.246,1.246h4.983A1.246,1.246,0,0,0,15.7,28.159V24.422H19.44V39.37H4.491Zm8.72,19.931H10.72V41.862h2.491Zm17.44-2.491v2.491H28.159V41.862Z" transform="translate(-2 -2)"/>
        <path id="Trazado_663646" data-name="Trazado 663646" d="M65.108,13.474a1.246,1.246,0,0,0,1.246-1.246V7.246A1.246,1.246,0,0,0,65.108,6H25.246A1.246,1.246,0,0,0,24,7.246V34.651a1.246,1.246,0,1,0,2.491,0V8.491h37.37v3.737A1.246,1.246,0,0,0,65.108,13.474Z" transform="translate(3.405 -1.017)"/>
        <path id="Trazado_663647" data-name="Trazado 663647" d="M43.739,15.554a1.246,1.246,0,0,0-1.728-.345l-2.4,1.6a6.167,6.167,0,0,0-8.494-.223l-.125-.092A1.246,1.246,0,0,0,29.5,18.488l.117.088A6.155,6.155,0,0,0,29,21.228a6.228,6.228,0,1,0,11.991-2.344l2.4-1.6a1.246,1.246,0,0,0,.345-1.728Zm-8.51,1.937a3.7,3.7,0,0,1,2.229.755L35.271,19.7l-2.118-1.582a3.713,3.713,0,0,1,2.075-.629Zm3.737,3.737a3.737,3.737,0,0,1-7.474,0,3.7,3.7,0,0,1,.186-1.106l2.8,2.1a1.246,1.246,0,0,0,1.439.04l2.921-1.947A3.659,3.659,0,0,1,38.966,21.228Z" transform="translate(4.633 1.194)"/>
        <path id="Trazado_663648" data-name="Trazado 663648" d="M54.948,22h-13.7a1.246,1.246,0,1,0,0,2.491h13.7a1.246,1.246,0,0,0,0-2.491Z" transform="translate(7.336 2.914)"/>
        <path id="Trazado_663649" data-name="Trazado 663649" d="M56.194,35.246A1.246,1.246,0,0,0,54.948,34h-13.7a1.246,1.246,0,1,0,0,2.491h13.7A1.246,1.246,0,0,0,56.194,35.246Z" transform="translate(7.336 5.862)"/>
        <path id="Trazado_663650" data-name="Trazado 663650" d="M54.7,18H42.246a1.246,1.246,0,0,0,0,2.491H54.7A1.246,1.246,0,0,0,54.7,18Z" transform="translate(7.582 1.931)"/>
        <path id="Trazado_663651" data-name="Trazado 663651" d="M54.457,30H43.246a1.246,1.246,0,1,0,0,2.491H54.457a1.246,1.246,0,0,0,0-2.491Z" transform="translate(7.827 4.879)"/>
        <path id="Trazado_663652" data-name="Trazado 663652" d="M43.246,42a1.246,1.246,0,1,0,0,2.491h9.965a1.246,1.246,0,1,0,0-2.491Z" transform="translate(7.827 7.827)"/>
        <path id="Trazado_663653" data-name="Trazado 663653" d="M53.948,12.491a1.246,1.246,0,0,0,0-2.491h-13.7a1.246,1.246,0,0,0,0,2.491Z" transform="translate(7.09 -0.035)"/>
        <path id="Trazado_663654" data-name="Trazado 663654" d="M36.983,12.491a1.246,1.246,0,0,0,0-2.491H33.246a1.246,1.246,0,1,0,0,2.491Z" transform="translate(5.371 -0.035)"/>
      </g>
    </g>
  </g>
</svg>
