<svg id="Grupo_1009603" data-name="Grupo 1009603" xmlns="http://www.w3.org/2000/svg" width="106.25" height="106.252" viewBox="0 0 106.25 106.252">
  <path id="Trazado_655285" data-name="Trazado 655285" d="M739.3,221.494a11.922,11.922,0,0,0-9.393-11.709l-21.454-4.769V201.25l2.741-2.056a18.76,18.76,0,0,0,4.477-4.8h3.064a5.148,5.148,0,0,0,5.141-5.141v-3.48a8.491,8.491,0,0,0,1.713-5.088V165.262a25.691,25.691,0,0,0-49.151-10.49,22.3,22.3,0,1,0-2.261,18.879V182.4a8.56,8.56,0,0,0,8.161,8.528,18.9,18.9,0,0,0,6.234,8.267l2.741,2.056v3.764l-9.455,2.1a8.551,8.551,0,0,0-4.254-2.268v-8.739a5.148,5.148,0,0,0-5.141-5.141H648.476a5.148,5.148,0,0,0-5.141,5.141v8.741a8.587,8.587,0,0,0-6.856,8.4V232.1h-3.426v5.141a8.579,8.579,0,0,0,8.567,8.569h37.7a8.58,8.58,0,0,0,8.569-8.569v-1.713H739.3Zm-28.064-12.347-3.474,9.554-5.454-5.455,4.978-4.978Zm-11.831,16.1h.956l2.285,6.854h-5.527Zm1.222-3.428h-1.487l-2.026-3.376,2.769-2.769,2.771,2.769Zm-5.884-18.328a11.689,11.689,0,0,0,10.282,0v2.2l-5.141,5.141-5.141-5.141Zm23.992-12.519h-1.323c.234-.594.429-1.2.6-1.814a8.493,8.493,0,0,0,2.436-.625v.724A1.719,1.719,0,0,1,718.739,190.968Zm-.084-5.431c.036-.472.084-.946.084-1.425v-8.253a5.109,5.109,0,0,1-.084,9.678Zm-63.324-42.554a18.814,18.814,0,0,1,16.134,28.553,8.481,8.481,0,0,0-5.182-4.194l-5.811-1.66v-.455a8.58,8.58,0,0,0,3.428-6.82v-3.071a8.815,8.815,0,0,0-7.807-8.89,8.566,8.566,0,0,0-9.331,8.531v3.428a8.577,8.577,0,0,0,3.428,6.82v.455l-5.811,1.66a8.478,8.478,0,0,0-5.181,4.194,18.81,18.81,0,0,1,16.132-28.552ZM641.922,173.83a5.059,5.059,0,0,1,3.4-3.191l8.3-2.371v-4.942l-.853-.5a5.088,5.088,0,0,1-2.575-4.424v-3.428a5.143,5.143,0,0,1,5.608-5.119,5.368,5.368,0,0,1,4.674,5.476v3.071a5.088,5.088,0,0,1-2.575,4.424l-.853.5v4.942l8.3,2.371a5.055,5.055,0,0,1,3.4,3.191Zm2.6,3.428h21.61a18.742,18.742,0,0,1-21.61,0ZM677.61,182.4a5.132,5.132,0,0,1,3.426-4.825v6.538a18.7,18.7,0,0,0,.311,3.208A5.13,5.13,0,0,1,677.61,182.4Zm3.426-11.592V174a8.512,8.512,0,0,0-3.426,1.583V165.262a22.278,22.278,0,1,1,44.557,0v8.612a8.473,8.473,0,0,0-3.428-1.583v-3.6h-3.428v3.428h-2.393a44.048,44.048,0,0,1-25.743-8.25l-.839-.6-.922.462A7.877,7.877,0,0,0,681.036,170.807Zm3.428,13.305V170.807a4.453,4.453,0,0,1,1.667-3.49,47.442,47.442,0,0,0,26.787,8.228h2.393v8.567a15.434,15.434,0,0,1-1.619,6.856h-7.265a5.137,5.137,0,0,0-4.827-3.428h-3.426a5.141,5.141,0,1,0,0,10.282H701.6a5.135,5.135,0,0,0,4.827-3.428h4.921a15.32,15.32,0,0,1-2.207,2.058l-4.115,3.083a8.8,8.8,0,0,1-10.279,0l-4.113-3.085A15.5,15.5,0,0,1,684.464,184.112Zm18.851,8.569a1.716,1.716,0,0,1-1.715,1.713h-3.426a1.713,1.713,0,1,1,0-3.426H701.6A1.716,1.716,0,0,1,703.315,192.681Zm-10.83,15.586,4.978,4.978L692.01,218.7l-3.476-9.554Zm-35.442-13.873H663.9v3.428h-6.856Zm-10.282,1.715a1.718,1.718,0,0,1,1.715-1.715h5.141v6.856h13.708v-6.856h5.143a1.717,1.717,0,0,1,1.713,1.715v20.564a1.716,1.716,0,0,1-1.713,1.713h-5.143v-6.854H653.617v6.854h-5.141a1.716,1.716,0,0,1-1.715-1.713ZM663.9,218.387h-6.856V214.96H663.9Zm-23.992-5.141a5.132,5.132,0,0,1,3.428-4.825v8.253a5.148,5.148,0,0,0,5.141,5.141h23.992a5.148,5.148,0,0,0,5.141-5.141V208.42a5.133,5.133,0,0,1,3.426,4.825V232.1H639.907Zm44.557,23.992a5.148,5.148,0,0,1-5.141,5.141h-37.7a5.148,5.148,0,0,1-5.141-5.141v-1.713h47.985Zm1.713-5.141h-1.713V213.246a8.464,8.464,0,0,0-.592-3.064l1.291-.287,5.464,15.034,3.993-3.993,1.679,2.8-2.786,8.363Zm49.7,0H725.593V221.815h-3.426V232.1h-15.9l-2.789-8.363,1.68-2.8,3.993,3.993,5.465-15.034,14.553,3.236a8.513,8.513,0,0,1,6.71,8.363Z" transform="translate(-633.053 -139.555)" fill="#fff"/>
  <path id="Trazado_655286" data-name="Trazado 655286" d="M669.426,163.232a1.714,1.714,0,1,1-1.715-1.713A1.714,1.714,0,0,1,669.426,163.232Z" transform="translate(-609.445 -123.816)" fill="#fff"/>
  <path id="Trazado_655287" data-name="Trazado 655287" d="M679.409,163.232a1.714,1.714,0,1,1-1.713-1.713A1.714,1.714,0,0,1,679.409,163.232Z" transform="translate(-602.292 -123.816)" fill="#fff"/>
  <path id="Trazado_655288" data-name="Trazado 655288" d="M657.013,189.473h3.428V192.9h-3.428Z" transform="translate(-615.884 -103.785)" fill="#fff"/>
  <path id="Trazado_655289" data-name="Trazado 655289" d="M653.019,189.473h3.428V192.9h-3.428Z" transform="translate(-618.746 -103.785)" fill="#fff"/>
  <path id="Trazado_655290" data-name="Trazado 655290" d="M649.026,189.473h3.428V192.9h-3.428Z" transform="translate(-621.607 -103.785)" fill="#fff"/>
</svg>
