<svg xmlns="http://www.w3.org/2000/svg" width="105" height="104.465" viewBox="0 0 105 104.465">
  <g id="Grupo_1009736" data-name="Grupo 1009736" transform="translate(-180 -7886.234)">
    <path id="Trazado_663291" data-name="Trazado 663291" d="M0,0H105V104.465H0Z" transform="translate(180 7886.234)" fill="#f0bd51"/>
    <g id="inventario_1_" data-name="inventario(1)" transform="translate(195.396 7901.217)">
      <g id="Grupo_987662" data-name="Grupo 987662" transform="translate(1.197 1.197)">
        <g id="Grupo_987644" data-name="Grupo 987644" transform="translate(4.788 23.938)">
          <path id="Trazado_663601" data-name="Trazado 663601" d="M68.24,22v4.788H6V22H68.24Z" transform="translate(-6 -22)" fill="#aab2bd"/>
        </g>
        <g id="Grupo_987645" data-name="Grupo 987645" transform="translate(67.027 2.394)">
          <path id="Trazado_663602" data-name="Trazado 663602" d="M62.788,5.2V73.421H58V5.2A1.2,1.2,0,0,1,59.2,4h2.394A1.2,1.2,0,0,1,62.788,5.2Z" transform="translate(-58 -4)" fill="#aab2bd"/>
        </g>
        <g id="Grupo_987646" data-name="Grupo 987646" transform="translate(0 2.394)">
          <path id="Trazado_663603" data-name="Trazado 663603" d="M6.788,5.2V73.421H2V5.2A1.2,1.2,0,0,1,3.2,4H5.591A1.2,1.2,0,0,1,6.788,5.2Z" transform="translate(-2 -4)" fill="#aab2bd"/>
        </g>
        <g id="Grupo_987647" data-name="Grupo 987647" transform="translate(40.695 52.664)">
          <path id="Trazado_663604" data-name="Trazado 663604" d="M40.788,48.394V65.151H36V46h4.788Z" transform="translate(-36 -46)" fill="#ccd1d9"/>
        </g>
        <g id="Grupo_987648" data-name="Grupo 987648" transform="translate(26.332 52.664)">
          <path id="Trazado_663605" data-name="Trazado 663605" d="M38.363,46V65.151H28.788l-.227-2.274A10.706,10.706,0,0,0,24,55.121V46H38.363Z" transform="translate(-24 -46)" fill="#e6e9ed"/>
        </g>
        <g id="Grupo_987649" data-name="Grupo 987649" transform="translate(45.483 55.058)">
          <path id="Trazado_663606" data-name="Trazado 663606" d="M40,48H61.545V64.757H40Z" transform="translate(-40 -48)" fill="#d3a06c"/>
        </g>
        <g id="Grupo_987650" data-name="Grupo 987650" transform="translate(33.514 35.908)">
          <path id="Trazado_663607" data-name="Trazado 663607" d="M30,32V48.757H41.969v2.394H58.726V32Z" transform="translate(-30 -32)" fill="#d3a06c"/>
        </g>
        <g id="Grupo_987651" data-name="Grupo 987651" transform="translate(9.575)">
          <path id="Trazado_663608" data-name="Trazado 663608" d="M33.938,2v9.575H26.757V25.938H10V2h7.182V6.788h9.575V2Z" transform="translate(-10 -2)" fill="#d3a06c"/>
        </g>
        <g id="Grupo_987652" data-name="Grupo 987652" transform="translate(38.301)">
          <path id="Trazado_663609" data-name="Trazado 663609" d="M57.938,2V25.938H41.182V11.575H34V2h7.182V6.788h9.575V2Z" transform="translate(-34 -2)" fill="#d3a06c"/>
        </g>
        <g id="Grupo_987653" data-name="Grupo 987653" transform="translate(26.332 9.575)">
          <path id="Trazado_663610" data-name="Trazado 663610" d="M24,10H43.151V24.363H24Z" transform="translate(-24 -10)" fill="#cf9e76"/>
        </g>
        <g id="Grupo_987654" data-name="Grupo 987654" transform="translate(33.514 9.575)">
          <path id="Trazado_663611" data-name="Trazado 663611" d="M30,10h4.788v4.788H30Z" transform="translate(-30 -10)" fill="#dfb28b"/>
        </g>
        <g id="Grupo_987655" data-name="Grupo 987655" transform="translate(52.664 55.058)">
          <path id="Trazado_663612" data-name="Trazado 663612" d="M46,48h7.182v7.182H46Z" transform="translate(-46 -48)" fill="#b27946"/>
        </g>
        <g id="Grupo_987656" data-name="Grupo 987656" transform="translate(43.089 35.908)">
          <path id="Trazado_663613" data-name="Trazado 663613" d="M38,32h9.575v4.788H38Z" transform="translate(-38 -32)" fill="#b27946"/>
        </g>
        <g id="Grupo_987657" data-name="Grupo 987657" transform="translate(45.483)">
          <path id="Trazado_663614" data-name="Trazado 663614" d="M40,2h9.575V6.788H40Z" transform="translate(-40 -2)" fill="#b27946"/>
        </g>
        <g id="Grupo_987658" data-name="Grupo 987658" transform="translate(16.757)">
          <path id="Trazado_663615" data-name="Trazado 663615" d="M16,2h9.575V6.788H16Z" transform="translate(-16 -2)" fill="#b27946"/>
        </g>
        <g id="Grupo_987659" data-name="Grupo 987659" transform="translate(0 59.846)">
          <path id="Trazado_663616" data-name="Trazado 663616" d="M25.938,63.969H2L2.227,61.7A10.765,10.765,0,0,1,12.94,52h9.24a10.81,10.81,0,0,1,6.152,1.927v.012a10.706,10.706,0,0,1,4.56,7.756l.227,2.274Z" transform="translate(-2 -52)" fill="#b4dd7f"/>
        </g>
        <g id="Grupo_987660" data-name="Grupo 987660" transform="translate(4.788 28.726)">
          <path id="Trazado_663617" data-name="Trazado 663617" d="M7.113,39.346A8.186,8.186,0,0,1,6,35.216,9.223,9.223,0,0,1,15.216,26H26.348a1.2,1.2,0,0,1,1.2,1.2v2.394a5.886,5.886,0,0,1-1.9,4.345,6.318,6.318,0,0,1-4.333,1.64H18.1a2.6,2.6,0,0,1-1.592-.527l-.012.012-.922,5.3a2.4,2.4,0,0,0-2.394,2.394,2.88,2.88,0,0,0,.85,2.047l1.544,1.544v.91a4.325,4.325,0,0,1-2.394,3.878l-3.3-1.652a7.007,7.007,0,0,1-3.136-9.408Z" transform="translate(-6 -26)" fill="#656d78"/>
        </g>
        <g id="Grupo_987661" data-name="Grupo 987661" transform="translate(11.969 36.662)">
          <path id="Trazado_663618" data-name="Trazado 663618" d="M15.327,33.743a2.6,2.6,0,0,0,1.592.527h3.208a6.318,6.318,0,0,0,4.333-1.64l.012.012a36.006,36.006,0,0,1,4.285,10.006l-2.394,1.2v1.2a5.987,5.987,0,0,1-5.985,5.985h-1.2v4.788H12V49.83a4.325,4.325,0,0,0,2.394-3.878v-.91L12.85,43.5A2.88,2.88,0,0,1,12,41.451a2.4,2.4,0,0,1,2.394-2.394l.922-5.3Z" transform="translate(-12 -32.63)" fill="#f0d0b4"/>
        </g>
      </g>
      <g id="Grupo_987663" data-name="Grupo 987663" transform="translate(0 0)">
        <path id="Trazado_663619" data-name="Trazado 663619" d="M72.815,3.394H70.421a2.4,2.4,0,0,0-2.394,2.394V24.938H65.634V1H39.3v9.575H36.908V1H10.575V24.938H8.182V5.788A2.4,2.4,0,0,0,5.788,3.394H3.394A2.4,2.4,0,0,0,1,5.788V75.209H75.209V5.788A2.4,2.4,0,0,0,72.815,3.394Zm-23.938,0h2.394V5.788H48.877Zm4.788,0h2.394V5.788H53.664Zm-11.969,0h4.788V8.182H58.452V3.394H63.24V24.938H48.877V10.575H41.7Zm0,9.575h4.788V24.938H29.726V12.969h4.788v4.788H41.7Zm-2.394,0v2.394H36.908V12.969ZM20.151,3.394h2.394V5.788H20.151Zm4.788,0h2.394V5.788H24.938Zm-11.969,0h4.788V8.182H29.726V3.394h4.788v7.182H27.332V24.938H12.969ZM68.027,27.332v2.394H8.182V27.332ZM24.938,70.421v2.394H10.575V70.421H8.182v2.394H3.52l.1-.953a9.545,9.545,0,0,1,9.527-8.623h9.228A9.545,9.545,0,0,1,31.9,71.862l.1.953H27.332V70.421ZM8.182,32.12h1.39a10.523,10.523,0,0,0-1.39,1.391Zm.18,14.6L9.618,48.4l1.915-1.436-1.94-2.587A7.094,7.094,0,0,1,8.182,40.14,8.02,8.02,0,0,1,16.2,32.12H27.332v2.394A4.866,4.866,0,0,1,22.293,39.3H19.082a1.289,1.289,0,0,1-1.26-.792,1.219,1.219,0,0,1,.169-1.114,1.185,1.185,0,0,1,.964-.487h1.2V34.514h-1.2a3.6,3.6,0,0,0-3.422,4.7,3.309,3.309,0,0,0,.667,1.179l-.671,3.849a3.6,3.6,0,0,0-2.558,3.44,4.061,4.061,0,0,0,1.2,2.889l1.2,1.2v.419a3.117,3.117,0,0,1-1.252,2.508l-2.718-1.359a5.786,5.786,0,0,1-3.032-6.612ZM22.545,60.854v-2.4a7.145,7.145,0,0,0,4.788-1.843v5.316A11.967,11.967,0,0,0,22.545,60.854Zm4.788-9.584a4.792,4.792,0,0,1-4.788,4.788H20.151v4.788H15.363V56.738a5.494,5.494,0,0,0,2.394-4.554v-1.41l-1.9-1.9a1.679,1.679,0,0,1-.5-1.2,1.2,1.2,0,0,1,1.2-1.2h1.007l.846-4.85a3.85,3.85,0,0,0,.668.062h3.211A7.673,7.673,0,0,0,26.273,40.6a34.521,34.521,0,0,1,3.241,7.64l-2.182,1.092Zm6.949,20.354a11.984,11.984,0,0,0-.184-1.2h5.2V68.027H33.338a11.9,11.9,0,0,0-3.612-4.663V56.058H41.7V72.815H34.4Zm9.808-15.566h2.394V72.815H44.089Zm-7.182-2.394V39.3h7.182v4.788H56.058V39.3H63.24V56.058H48.877V53.664ZM53.664,39.3V41.7H51.271V39.3ZM48.877,41.7H46.483V39.3h2.394Zm7.182,16.757h4.788V63.24H56.058ZM34.514,36.908V53.664H29.307a7.122,7.122,0,0,0,.419-2.394v-.457l2.591-1.3-.232-.931a36.717,36.717,0,0,0-3.964-9.572,7.044,7.044,0,0,0,1.605-4.5V32.12h38.3V56.058H65.634V36.908ZM5.788,5.788V40.14a9.478,9.478,0,0,0,.97,4.121l-.1.206a8.2,8.2,0,0,0,3.669,11.008L12.969,56.8v4.056a11.917,11.917,0,0,0-9.575,5.016V5.788ZM48.877,72.815V58.452h4.788v7.182H63.24V58.452h4.788V72.815Zm23.938,0H70.421V5.788h2.394Z" transform="translate(-1 -1)"/>
        <path id="Trazado_663620" data-name="Trazado 663620" d="M27,49h7.182v2.394H27Z" transform="translate(4.12 8.452)"/>
        <path id="Trazado_663621" data-name="Trazado 663621" d="M27,53h7.182v2.394H27Z" transform="translate(4.12 9.24)"/>
      </g>
    </g>
  </g>
</svg>
