<svg xmlns="http://www.w3.org/2000/svg" width="105" height="104.465" viewBox="0 0 105 104.465">
  <g id="Grupo_1009742" data-name="Grupo 1009742" transform="translate(-180 -8402.885)">
    <path id="Trazado_663291" data-name="Trazado 663291" d="M0,0H105V104.465H0Z" transform="translate(180 8402.885)" fill="#f0bd51"/>
    <g id="Parcel_Rack" transform="translate(193.033 8415.936)">
      <g id="Grupo_987635" data-name="Grupo 987635" transform="translate(2.5 2.507)">
        <path id="Trazado_663478" data-name="Trazado 663478" d="M71.722,116.442v1.335a.573.573,0,0,1-.573.573H35.285a.573.573,0,0,1-.573-.573v-1.335a.573.573,0,0,1,.573-.573H71.149A.573.573,0,0,1,71.722,116.442Z" transform="translate(-16.25 -50.898)" fill="#bcdae6"/>
        <path id="Trazado_663479" data-name="Trazado 663479" d="M71.724,116.442v.969a.575.575,0,0,0-.573-.573H35.285a.575.575,0,0,0-.573.573v-.969a.575.575,0,0,1,.573-.573H71.151A.575.575,0,0,1,71.724,116.442Z" transform="translate(-16.25 -50.898)" fill="#fff" opacity="0.3"/>
        <path id="Trazado_663480" data-name="Trazado 663480" d="M36.032,120.2H71.526v6.184H36.032Z" transform="translate(-16.814 -52.747)" fill="#bcdae6"/>
        <path id="Trazado_663481" data-name="Trazado 663481" d="M71.526,120.2v6.184H36.032v-1.255h29.31A4.929,4.929,0,0,0,70.27,120.2h1.255Z" transform="translate(-16.814 -52.747)" opacity="0.05"/>
        <path id="Trazado_663482" data-name="Trazado 663482" d="M36.032,120.2H71.526v1.719H36.032Z" transform="translate(-16.814 -52.747)" opacity="0.05"/>
        <path id="Trazado_663483" data-name="Trazado 663483" d="M69.035,68.421v1.857a.6.6,0,0,1-.6.6H56.054a.6.6,0,0,1-.6-.6V68.421a.6.6,0,0,1,.6-.6h12.38A.6.6,0,0,1,69.035,68.421Z" transform="translate(-25.104 -30.387)" fill="#d4f4ff"/>
        <path id="Trazado_663484" data-name="Trazado 663484" d="M69.035,70.149v1.123a.6.6,0,0,1-.6.6H56.054a.6.6,0,0,1-.6-.6V70.149Z" transform="translate(-25.104 -31.382)" opacity="0.05"/>
        <path id="Trazado_663485" data-name="Trazado 663485" d="M69.037,68.421v1.1a.6.6,0,0,0-.6-.6H56.06a.6.6,0,0,0-.6.6v-1.1a.6.6,0,0,1,.6-.6H68.438A.6.6,0,0,1,69.037,68.421Z" transform="translate(-25.108 -30.389)" fill="#f3fcff" opacity="0.3"/>
        <path id="Trazado_663486" data-name="Trazado 663486" d="M69.035,63.1v1.856a.6.6,0,0,1-.6.6H56.054a.6.6,0,0,1-.6-.6V63.1a.6.6,0,0,1,.6-.6H68.436a.6.6,0,0,1,.6.6Z" transform="translate(-25.105 -28.117)" fill="#ffcb8f"/>
        <path id="Trazado_663487" data-name="Trazado 663487" d="M69.037,63.094v.976a.6.6,0,0,0-.6-.6H56.06a.6.6,0,0,0-.6.6v-.976a.6.6,0,0,1,.6-.6H68.438a.6.6,0,0,1,.6.6Z" transform="translate(-25.108 -28.115)" fill="#fff" opacity="0.3"/>
        <path id="Trazado_663488" data-name="Trazado 663488" d="M74.313,73.745v1.788a.6.6,0,0,1-.6.6H17.574a.6.6,0,0,1-.6-.6V73.745a.6.6,0,0,1,.6-.6H73.712A.6.6,0,0,1,74.313,73.745Z" transform="translate(-8.678 -32.662)" fill="#ffcb8f"/>
        <path id="Trazado_663489" data-name="Trazado 663489" d="M74.313,73.745V74.96a.6.6,0,0,0-.6-.6H17.574a.6.6,0,0,0-.6.6V73.745a.6.6,0,0,1,.6-.6H73.712A.6.6,0,0,1,74.313,73.745Z" transform="translate(-8.678 -32.662)" fill="#fff" opacity="0.3"/>
        <path id="Trazado_663490" data-name="Trazado 663490" d="M70.784,74.3v1.834H41.1V74.3a2.778,2.778,0,0,1,.241-1.146h29.2a2.778,2.778,0,0,1,.241,1.146Z" transform="translate(-18.978 -32.662)" opacity="0.05"/>
        <path id="Trazado_663491" data-name="Trazado 663491" d="M20.817,73.148v2.981H17.573a.6.6,0,0,1-.6-.6V73.746a.6.6,0,0,1,.6-.6Z" transform="translate(-8.679 -32.662)" opacity="0.05"/>
        <path id="Trazado_663492" data-name="Trazado 663492" d="M114.161,73.746V75.53a.6.6,0,0,1-.6.6h-3.238V73.147h3.238a.6.6,0,0,1,.6.6Z" transform="translate(-48.527 -32.662)" opacity="0.05"/>
        <path id="Trazado_663493" data-name="Trazado 663493" d="M74.312,41.068v1.784a.6.6,0,0,1-.6.6H17.573a.6.6,0,0,1-.6-.6V41.068a.6.6,0,0,1,.6-.6H73.714a.6.6,0,0,1,.6.6Z" transform="translate(-8.679 -18.712)" fill="#ffcb8f"/>
        <path id="Trazado_663494" data-name="Trazado 663494" d="M74.313,41.065V42.28a.6.6,0,0,0-.6-.6H17.574a.6.6,0,0,0-.6.6V41.065a.6.6,0,0,1,.6-.6H73.712A.6.6,0,0,1,74.313,41.065Z" transform="translate(-8.678 -18.712)" fill="#fff" opacity="0.3"/>
        <path id="Trazado_663495" data-name="Trazado 663495" d="M20.817,40.469V43.45H17.573a.6.6,0,0,1-.6-.6V41.068a.6.6,0,0,1,.6-.6h3.244Z" transform="translate(-8.679 -18.712)" opacity="0.05"/>
        <path id="Trazado_663496" data-name="Trazado 663496" d="M114.161,41.068v1.784a.6.6,0,0,1-.6.6h-3.238V40.469h3.238a.6.6,0,0,1,.6.6Z" transform="translate(-48.527 -18.712)" opacity="0.05"/>
        <path id="Trazado_663497" data-name="Trazado 663497" d="M74.313,106.425v1.788a.6.6,0,0,1-.6.6H17.574a.6.6,0,0,1-.6-.6v-1.788a.6.6,0,0,1,.6-.6H73.712A.593.593,0,0,1,74.313,106.425Z" transform="translate(-8.678 -46.613)" fill="#ffcb8f"/>
        <path id="Trazado_663498" data-name="Trazado 663498" d="M74.313,106.425v1.215a.593.593,0,0,0-.6-.6H17.574a.6.6,0,0,0-.6.6v-1.215a.6.6,0,0,1,.6-.6H73.712A.593.593,0,0,1,74.313,106.425Z" transform="translate(-8.678 -46.613)" fill="#fff" opacity="0.3"/>
        <path id="Trazado_663499" data-name="Trazado 663499" d="M52.077,105.829v1.782a1.2,1.2,0,0,1-1.2,1.2H41.1v-2.98Z" transform="translate(-18.978 -46.612)" opacity="0.05"/>
        <path id="Trazado_663500" data-name="Trazado 663500" d="M84.948,105.829v2.98H75.48a1.2,1.2,0,0,1-1.2-1.2v-1.782Z" transform="translate(-33.142 -46.613)" opacity="0.05"/>
        <path id="Trazado_663501" data-name="Trazado 663501" d="M20.817,105.829v2.981H17.573a.6.6,0,0,1-.6-.6v-1.784a.6.6,0,0,1,.6-.6Z" transform="translate(-8.679 -46.612)" opacity="0.05"/>
        <path id="Trazado_663502" data-name="Trazado 663502" d="M114.161,106.427v1.784a.6.6,0,0,1-.6.6h-3.238v-2.981h3.238A.593.593,0,0,1,114.161,106.427Z" transform="translate(-48.527 -46.612)" opacity="0.05"/>
        <path id="Trazado_663503" data-name="Trazado 663503" d="M116.434,21.1V83.227a.6.6,0,0,1-.6.6h-1.783a.6.6,0,0,1-.6-.6V21.1a.6.6,0,0,1,.6-.6h1.783a.6.6,0,0,1,.6.6Z" transform="translate(-49.863 -10.188)" fill="#ffcb8f"/>
        <path id="Trazado_663504" data-name="Trazado 663504" d="M116.432,21.1v.449H115.1a.6.6,0,0,0-.6.6V83.824h-.449a.593.593,0,0,1-.6-.6V21.1a.6.6,0,0,1,.6-.6h1.778a.6.6,0,0,1,.6.6Z" transform="translate(-49.865 -10.188)" fill="#fff" opacity="0.3"/>
        <path id="Trazado_663505" data-name="Trazado 663505" d="M113.453,127.387v1.468a.6.6,0,0,0,.6.6h1.783a.6.6,0,0,0,.6-.6v-1.468Z" transform="translate(-49.863 -55.815)" opacity="0.05"/>
        <path id="Trazado_663506" data-name="Trazado 663506" d="M18.326,21.1V83.227a.6.6,0,0,1-.6.6H15.945a.6.6,0,0,1-.6-.6V21.1a.6.6,0,0,1,.6-.6h1.783a.6.6,0,0,1,.6.6Z" transform="translate(-7.984 -10.188)" fill="#ffcb8f"/>
        <path id="Trazado_663507" data-name="Trazado 663507" d="M15.346,127.387v1.468a.6.6,0,0,0,.6.6h1.783a.6.6,0,0,0,.6-.6v-1.468Z" transform="translate(-7.984 -55.815)" opacity="0.05"/>
        <path id="Trazado_663508" data-name="Trazado 663508" d="M18.326,21.1v.449H16.991a.6.6,0,0,0-.6.6V83.824h-.449a.6.6,0,0,1-.6-.6V21.1a.6.6,0,0,1,.6-.6h1.784a.6.6,0,0,1,.6.6Z" transform="translate(-7.983 -10.188)" fill="#fff" opacity="0.3"/>
        <path id="Trazado_663509" data-name="Trazado 663509" d="M39.617,20.606v1.544a.331.331,0,0,1-.331.331H24.137a.331.331,0,0,1-.331-.331V20.606a.331.331,0,0,1,.331-.331H39.286A.331.331,0,0,1,39.617,20.606Z" transform="translate(-11.595 -10.092)" fill="#ffcb8f"/>
        <path id="Trazado_663510" data-name="Trazado 663510" d="M39.619,20.606v1.1a.332.332,0,0,0-.331-.331H24.142a.332.332,0,0,0-.331.331v-1.1a.328.328,0,0,1,.331-.331H39.288A.328.328,0,0,1,39.619,20.606Z" transform="translate(-11.597 -10.092)" fill="#fff" opacity="0.3"/>
        <path id="Trazado_663511" data-name="Trazado 663511" d="M39.39,24.126v8.04a1.325,1.325,0,0,1-1.326,1.326h-11.4a1.329,1.329,0,0,1-1.326-1.326v-8.04Z" transform="translate(-12.249 -11.736)" fill="#ffcb8f"/>
        <path id="Trazado_663512" data-name="Trazado 663512" d="M25.338,24.126H39.39v1.3H25.338Z" transform="translate(-12.249 -11.736)" opacity="0.05"/>
        <path id="Trazado_663513" data-name="Trazado 663513" d="M91.472,5.263V22.254a2.251,2.251,0,0,1-2.251,2.251h-18.1a2.251,2.251,0,0,1-2.251-2.251V5.263a2.251,2.251,0,0,1,2.251-2.251h18.1A2.251,2.251,0,0,1,91.472,5.263Z" transform="translate(-30.83 -2.722)" fill="#ffcb8f"/>
        <path id="Trazado_663514" data-name="Trazado 663514" d="M91.471,5.258v1.8a2.252,2.252,0,0,0-2.252-2.252h-18.1A2.252,2.252,0,0,0,68.873,7.06v-1.8a2.252,2.252,0,0,1,2.252-2.252h18.1A2.252,2.252,0,0,1,91.471,5.258Z" transform="translate(-30.833 -2.72)" fill="#fff" opacity="0.3"/>
        <path id="Trazado_663515" data-name="Trazado 663515" d="M91.471,35.184v-1.8a2.252,2.252,0,0,1-2.252,2.252h-18.1a2.252,2.252,0,0,1-2.252-2.252v1.8a2.252,2.252,0,0,0,2.252,2.252h18.1A2.252,2.252,0,0,0,91.471,35.184Z" transform="translate(-30.833 -15.686)" opacity="0.05"/>
        <path id="Trazado_663516" data-name="Trazado 663516" d="M89.616,3.006V7.782L87.6,6.737,85.59,7.782,83.574,6.737,81.558,7.782V3.006Z" transform="translate(-36.248 -2.72)" fill="#ffcb8f"/>
        <path id="Trazado_663517" data-name="Trazado 663517" d="M81.558,3.006h8.058v1.8H81.558Z" transform="translate(-36.248 -2.72)" fill="#fff" opacity="0.3"/>
        <circle id="Elipse_7785" data-name="Elipse 7785" cx="1.369" cy="1.369" r="1.369" transform="translate(18.75 25.95)" fill="#00ffc1"/>
        <path id="Trazado_663518" data-name="Trazado 663518" d="M39.5,54.679v9.508a1.076,1.076,0,0,1-1.077,1.077h-12.7a1.076,1.076,0,0,1-1.077-1.077V54.679Z" transform="translate(-11.952 -24.778)" fill="#00ffc1"/>
        <path id="Trazado_663519" data-name="Trazado 663519" d="M39.684,51.28v1.18a.539.539,0,0,1-.539.539H23.893a.539.539,0,0,1-.539-.539V51.28a.539.539,0,0,1,.539-.539H39.146A.539.539,0,0,1,39.684,51.28Z" transform="translate(-11.402 -23.097)" fill="#00ffc1"/>
        <path id="Trazado_663520" data-name="Trazado 663520" d="M39.682,51.28v1.126a.54.54,0,0,0-.539-.539H23.891a.54.54,0,0,0-.539.539V51.28a.54.54,0,0,1,.539-.539H39.143A.54.54,0,0,1,39.682,51.28Z" transform="translate(-11.401 -23.097)" fill="#fff" opacity="0.3"/>
        <path id="Trazado_663521" data-name="Trazado 663521" d="M39.5,54.68v9.508a1.081,1.081,0,0,1-1.078,1.078h-12.7a1.077,1.077,0,0,1-1.078-1.078v-.226H37.118A1.081,1.081,0,0,0,38.2,62.884v-8.2Z" transform="translate(-11.951 -24.778)" fill="#34e0aa"/>
        <path id="Trazado_663522" data-name="Trazado 663522" d="M46.7,70.149v.642a1.076,1.076,0,0,1-1.077,1.077h-4.1a2.761,2.761,0,0,1,.6-.883,2.852,2.852,0,0,1,2.029-.837Z" transform="translate(-19.157 -31.382)" opacity="0.05"/>
        <path id="Trazado_663523" data-name="Trazado 663523" d="M38.118,60.049v3.341a.425.425,0,0,1-.425.425H34.509a.425.425,0,0,1-.425-.425V60.049L36.1,57.9Z" transform="translate(-15.982 -26.155)" fill="#fff"/>
        <path id="Trazado_663524" data-name="Trazado 663524" d="M38.118,66.032v.828a.426.426,0,0,1-.425.425H34.509a.426.426,0,0,1-.425-.425v-.828a.426.426,0,0,0,.425.425h3.184A.426.426,0,0,0,38.118,66.032Z" transform="translate(-15.982 -29.624)" fill="#d4f4ff"/>
        <path id="Trazado_663525" data-name="Trazado 663525" d="M97.886,60.123a2.007,2.007,0,0,1-2,2.2H85.919A2.008,2.008,0,0,1,83.936,60.6a1.923,1.923,0,0,1-.011-.481l1.146-11.95a.419.419,0,0,1,.418-.384H96.316a.428.428,0,0,1,.424.384Z" transform="translate(-37.254 -21.837)" fill="#ff4b3a"/>
        <path id="Trazado_663526" data-name="Trazado 663526" d="M97.8,60.9a2,2,0,0,1-1.917,1.422H85.919a2,2,0,0,1-.947-.238,1.768,1.768,0,0,1-.281-.184.832.832,0,0,1-.1-.084c-.04-.033-.077-.07-.114-.107s-.07-.077-.1-.117-.064-.08-.1-.124c0,0,0,0,0,0-.03-.043-.057-.087-.084-.13a2.052,2.052,0,0,1-.115-.23c-.022-.05-.039-.1-.057-.153-.006-.017-.014-.034-.019-.051h0a2,2,0,0,1-.086-.776L85.066,48.17a.424.424,0,0,1,.423-.384H96.316a.424.424,0,0,1,.422.383l.043.443H86.234a.335.335,0,0,0-.335.3L84.878,59.556A1.227,1.227,0,0,0,86.1,60.9H97.8Z" transform="translate(-37.252 -21.836)" fill="#fc6868"/>
        <path id="Trazado_663527" data-name="Trazado 663527" d="M88.835,71.868h-2.9a2.008,2.008,0,0,1-1.983-1.719H86.21a2.838,2.838,0,0,1,2.625,1.719Z" transform="translate(-37.27 -31.382)" opacity="0.05"/>
        <path id="Trazado_663528" data-name="Trazado 663528" d="M96.63,51.856h0a.889.889,0,0,1-.889.889H92.3a.889.889,0,0,1-.889-.889h0a.889.889,0,0,1,.889-.889h3.443A.889.889,0,0,1,96.63,51.856Z" transform="translate(-40.453 -23.193)" fill="#fff"/>
        <path id="Trazado_663529" data-name="Trazado 663529" d="M96.63,51.857a.886.886,0,0,1-.047.281.885.885,0,0,0-.843-.612H92.3a.884.884,0,0,0-.843.612.889.889,0,0,1,.843-1.171H95.74a.889.889,0,0,1,.89.89Z" transform="translate(-40.452 -23.193)" fill="#d4f4ff"/>
        <path id="Trazado_663530" data-name="Trazado 663530" d="M93.786,91.647v6.419a1.2,1.2,0,0,1-1.2,1.2H75.48a1.2,1.2,0,0,1-1.2-1.2V91.647a1.194,1.194,0,0,1,1.2-1.2H92.588A1.2,1.2,0,0,1,93.786,91.647Z" transform="translate(-33.142 -40.047)" fill="#d4f4ff"/>
        <path id="Trazado_663531" data-name="Trazado 663531" d="M93.784,91.642v1.275a1.2,1.2,0,0,0-1.2-1.2H75.479a1.193,1.193,0,0,0-1.2,1.2V91.642a1.2,1.2,0,0,1,1.2-1.2H92.587A1.2,1.2,0,0,1,93.784,91.642Z" transform="translate(-33.142 -40.045)" fill="#fff"/>
        <path id="Trazado_663532" data-name="Trazado 663532" d="M93.784,102.79v-1.275a1.2,1.2,0,0,1-1.2,1.2H75.479a1.193,1.193,0,0,1-1.2-1.2v1.275a1.2,1.2,0,0,0,1.2,1.2H92.587A1.2,1.2,0,0,0,93.784,102.79Z" transform="translate(-33.142 -44.771)" opacity="0.05"/>
        <path id="Trazado_663533" data-name="Trazado 663533" d="M84.948,90.449v8.815H75.48a1.2,1.2,0,0,1-1.2-1.2V91.647a1.194,1.194,0,0,1,1.2-1.2Z" transform="translate(-33.142 -40.047)" opacity="0.05"/>
        <path id="Trazado_663534" data-name="Trazado 663534" d="M45.725,91.647v6.419a1.2,1.2,0,0,1-1.2,1.2H27.42a1.2,1.2,0,0,1-1.2-1.2V91.647a1.2,1.2,0,0,1,1.2-1.2H44.528A1.194,1.194,0,0,1,45.725,91.647Z" transform="translate(-12.626 -40.047)" fill="#ffcb8f"/>
        <path id="Trazado_663535" data-name="Trazado 663535" d="M45.727,91.642v1.275a1.2,1.2,0,0,0-1.2-1.2H27.423a1.193,1.193,0,0,0-1.2,1.2V91.642a1.2,1.2,0,0,1,1.2-1.2H44.53A1.2,1.2,0,0,1,45.727,91.642Z" transform="translate(-12.628 -40.045)" fill="#fff" opacity="0.3"/>
        <path id="Trazado_663536" data-name="Trazado 663536" d="M45.727,102.79v-1.275a1.2,1.2,0,0,1-1.2,1.2H27.423a1.193,1.193,0,0,1-1.2-1.2v1.275a1.2,1.2,0,0,0,1.2,1.2H44.53A1.2,1.2,0,0,0,45.727,102.79Z" transform="translate(-12.628 -44.771)" opacity="0.05"/>
        <path id="Trazado_663537" data-name="Trazado 663537" d="M52.077,91.647v6.419a1.2,1.2,0,0,1-1.2,1.2H41.1V90.449h9.778A1.194,1.194,0,0,1,52.077,91.647Z" transform="translate(-18.978 -40.047)" opacity="0.05"/>
        <path id="Trazado_663538" data-name="Trazado 663538" d="M76.012,20.6v5.743a.573.573,0,0,1-.573.573H71.972a.573.573,0,0,1-.573-.573V20.6a.573.573,0,0,1,.573-.573h3.467A.573.573,0,0,1,76.012,20.6Z" transform="translate(-31.911 -9.987)" fill="#fff" opacity="0.3"/>
        <path id="Trazado_663539" data-name="Trazado 663539" d="M43.239,126.568l.824-.824" transform="translate(-19.89 -55.114)" fill="#fff"/>
        <path id="Trazado_663540" data-name="Trazado 663540" d="M41.278,125.319l1.536-1.537" transform="translate(-19.053 -54.276)" fill="#fff"/>
        <path id="Trazado_663541" data-name="Trazado 663541" d="M70.345,74.3V96.487A1.146,1.146,0,0,1,69.2,97.633H45.248A1.146,1.146,0,0,1,44.1,96.487V74.3a1.135,1.135,0,0,1,1.146-1.146H69.2a1.163,1.163,0,0,1,.814.332A1.143,1.143,0,0,1,70.345,74.3Z" transform="translate(-20.259 -32.662)" fill="#ffcb8f"/>
        <path id="Trazado_663542" data-name="Trazado 663542" d="M70.345,74.3V96.487A1.146,1.146,0,0,1,69.2,97.633H45.248A1.146,1.146,0,0,1,44.1,96.487v-.309h1.76A23.029,23.029,0,0,0,68.89,73.149h.31a1.163,1.163,0,0,1,.814.332,1.143,1.143,0,0,1,.332.814Z" transform="translate(-20.259 -32.662)" opacity="0.05"/>
        <path id="Trazado_663543" data-name="Trazado 663543" d="M70.26,73.482,58.231,85.362a1.037,1.037,0,0,1-1.519,0L44.682,73.482a1.143,1.143,0,0,1,.814-.332H69.447a1.163,1.163,0,0,1,.814.332Z" transform="translate(-20.506 -32.662)" fill="#ffcb8f"/>
        <path id="Trazado_663544" data-name="Trazado 663544" d="M70.26,73.482l-.779.768H45.461l-.779-.768a1.143,1.143,0,0,1,.814-.332H69.447a1.163,1.163,0,0,1,.814.332Z" transform="translate(-20.506 -32.662)" fill="#fff" opacity="0.3"/>
        <path id="Trazado_663545" data-name="Trazado 663545" d="M67.851,101.743a3.314,3.314,0,0,1-1.261,2.6,3.054,3.054,0,0,1-1.711.627v2.507h.791v.757H63.338v-.757h.784v-2.514a3.126,3.126,0,0,1-1.97-.852c-.007,0-.007-.007-.014-.014a3.323,3.323,0,0,1-.982-2.359h6.694Z" transform="translate(-27.539 -44.868)"/>
        <path id="Trazado_663546" data-name="Trazado 663546" d="M69.946,102.527a.15.15,0,0,1-.041.1l-.934,1.111.518-1.036h-.32a.169.169,0,0,1-.17-.17.181.181,0,0,1,.02-.082l.375-.709h.389l-.327.62h.327A.166.166,0,0,1,69.946,102.527Z" transform="translate(-30.875 -44.868)" fill="#fff"/>
        <g id="Grupo_987634" data-name="Grupo 987634">
          <path id="Trazado_663547" data-name="Trazado 663547" d="M3.1,130.491H2.787a.287.287,0,0,0,0,.573H3.1a.287.287,0,0,0,0-.573Z" transform="translate(-2.5 -57.14)"/>
          <path id="Trazado_663548" data-name="Trazado 663548" d="M8.822,130.491H5.335a.287.287,0,0,0,0,.573H8.822a.287.287,0,0,0,0-.573Z" transform="translate(-3.588 -57.14)"/>
          <path id="Trazado_663549" data-name="Trazado 663549" d="M74.215,75.859h-.38a.874.874,0,0,0,.059-.31V13.417a.883.883,0,0,0-.883-.883H71.229a.886.886,0,0,0-.888.883V23.973h-3.29a2.522,2.522,0,0,0,.915-1.935V5.047a2.541,2.541,0,0,0-2.538-2.538c-.294-.005-18.042,0-18.1,0a2.541,2.541,0,0,0-2.538,2.538V22.039a2.522,2.522,0,0,0,.915,1.935H34.08a1.6,1.6,0,0,0,.388-1.037V15.184h.262a.618.618,0,0,0,.618-.618V13.021a.618.618,0,0,0-.618-.618H19.581a.618.618,0,0,0-.618.618v1.545a.618.618,0,0,0,.618.618h.262v7.753a1.6,1.6,0,0,0,.388,1.037H17.665V13.417a.883.883,0,0,0-.883-.883H15a.886.886,0,0,0-.888.883V75.549a.869.869,0,0,0,.059.31h-.753a.287.287,0,1,0,0,.573h5.215a.287.287,0,0,0,0-.573H17.606a.874.874,0,0,0,.059-.31V64.986h12.93v1.346a1.419,1.419,0,0,0,.294.86H26.073a.861.861,0,0,0-.86.86v1.335a.858.858,0,0,0,.758.849v5.622H19.783a.287.287,0,1,0,0,.573H64.5a.287.287,0,0,0,0-.573h-2.46V70.236a.858.858,0,0,0,.758-.849V68.051a.861.861,0,0,0-.86-.86H57.118a1.419,1.419,0,0,0,.294-.86V64.986H70.341V75.549a.869.869,0,0,0,.059.31H65.934a.287.287,0,1,0,0,.573h8.281a.287.287,0,1,0,0-.573ZM67.132,53.472a.89.89,0,0,1,.263.631v6.419a.909.909,0,0,1-.263.639l-8.5-3.843ZM57.934,57l-.522-.236V53.2h8.936ZM44.554,55.011a.746.746,0,0,1-.55.24h0A.752.752,0,0,1,43.446,55L31.661,43.365A.849.849,0,0,1,32,43.282H56.007a.849.849,0,0,1,.339.082ZM17.665,43.282H30.886a1.419,1.419,0,0,0-.291.857v1.55H17.665Zm2.35-1.365V32.7h6.853v1.45L24.931,36.2a.288.288,0,0,0-.078.2v3.341a.712.712,0,0,0,.711.711h3.184a.712.712,0,0,0,.711-.711V36.4a.288.288,0,0,0-.078-.2L27.441,34.14V32.7H34.3v9.221a.791.791,0,0,1-.763.789l-12.728,0a.792.792,0,0,1-.791-.791Zm7.141-13.176a1.085,1.085,0,0,1,1.082,1.123H26.073a1.085,1.085,0,0,1,1.083-1.123Zm7.628,1.7a.256.256,0,0,1,.252.252v1.181a.256.256,0,0,1-.252.252H19.528a.252.252,0,0,1-.252-.252V30.69a.252.252,0,0,1,.252-.252Zm-7.63,5.981a.286.286,0,0,0,.287-.287V34.976l1.446,1.538v3.228a.139.139,0,0,1-.138.138H25.565a.139.139,0,0,1-.138-.138V36.514l1.441-1.532v1.151a.286.286,0,0,0,.287.287Zm10.521,2.925V37.489a.312.312,0,0,1,.312-.312H50.37a.312.312,0,0,1,.312.312v1.855a.311.311,0,0,1-.3.31h-12.4a.311.311,0,0,1-.3-.31Zm0,3.05v-.474h4.482a.287.287,0,0,0,0-.573H37.676v-.809a.311.311,0,0,1,.3-.31h12.4a.311.311,0,0,1,.3.31V42.4a.312.312,0,0,1-.309.311H37.985a.312.312,0,0,1-.309-.311Zm16.756-.252a1.722,1.722,0,0,1-.439-1.321l1.146-11.953a.137.137,0,0,1,.137-.124H66.1a.137.137,0,0,1,.137.124h0l1.146,11.952a1.721,1.721,0,0,1-1.713,1.885H55.7a1.724,1.724,0,0,1-1.273-.564Zm2.69,1.14h13.22v2.407H57.412v-1.55a1.419,1.419,0,0,0-.291-.857Zm13.22-.573H67.167a2.254,2.254,0,0,0,.2-.181,2.3,2.3,0,0,0,.586-1.762L66.81,28.815a.708.708,0,0,0-.708-.644H55.275a.708.708,0,0,0-.708.643L53.421,40.766a2.3,2.3,0,0,0,.586,1.762,2.257,2.257,0,0,0,.2.178H51.2a.876.876,0,0,0,.059-.311V40.539a.879.879,0,0,0-.236-.6.88.88,0,0,0,.236-.6V37.489a.886.886,0,0,0-.885-.885H37.987a.886.886,0,0,0-.885.885v1.855a.88.88,0,0,0,.236.6.879.879,0,0,0-.236.6V42.4a.876.876,0,0,0,.059.311H34.616a1.354,1.354,0,0,0,.255-.789v-9.23a.823.823,0,0,0,.739-.816V30.69a.826.826,0,0,0-.826-.825H28.807c0-.015,0-.025,0-.04a1.656,1.656,0,0,0-3.313,0c0,.015,0,.026.005.04H19.528a.826.826,0,0,0-.825.825v1.181a.823.823,0,0,0,.739.816v9.23a1.354,1.354,0,0,0,.257.791H17.665V27.527H70.341V42.709ZM17.665,46.262h12.93v6.362H21.832A1.483,1.483,0,0,0,20.348,54.1v6.419a1.47,1.47,0,0,0,.322.912h-3V46.262Zm3.256,14.259V54.1a.909.909,0,0,1,.911-.906h8.763v3.828H27.486l-4.26-3.256a.287.287,0,0,0-.348.456l4.045,3.092L22.878,60.4a.287.287,0,0,0,.348.456L27.5,57.6h3.1v3.834H21.832a.912.912,0,0,1-.911-.912Zm10.247,5.81c0-5.2,0-18.638,0-22.192a.85.85,0,0,1,.087-.37L42.837,55.208,31.253,66.7a.85.85,0,0,1-.085-.367Zm.491.773,11.6-11.51a1.317,1.317,0,0,0,1.484,0L56.348,67.1a.85.85,0,0,1-.369.086H32.027a.85.85,0,0,1-.369-.086Zm13.511-11.9L56.752,43.769a.85.85,0,0,1,.087.37c0,.035,0-.292,0,1.836,0,6.94,0-12.782,0,20.356a.85.85,0,0,1-.085.367ZM57.412,57.4l8.931,4.038H57.412Zm9.971-4.464-.014-.013c-.006,0-.01-.011-.016-.015a1.45,1.45,0,0,0-.869-.279H57.412V46.262H70.341V61.433H67.647a1.47,1.47,0,0,0,.322-.912V54.1a1.457,1.457,0,0,0-.585-1.172ZM52.635,3.083H60.12V7.1l-1.6-.828a.286.286,0,0,0-.264,0l-1.877.976L54.5,6.269a.287.287,0,0,0-.264,0l-1.6.828ZM45.362,22.039V5.047a1.967,1.967,0,0,1,1.965-1.965h4.735V7.569a.287.287,0,0,0,.419.254l1.884-.977,1.884.977a.286.286,0,0,0,.264,0l1.877-.976,1.884.976a.287.287,0,0,0,.419-.254V3.083h4.736a1.967,1.967,0,0,1,1.965,1.965V22.039a1.962,1.962,0,0,1-1.672,1.935H47.034a1.962,1.962,0,0,1-1.672-1.935ZM19.581,14.611a.045.045,0,0,1-.045-.045V13.021a.045.045,0,0,1,.045-.045H34.729a.045.045,0,0,1,.045.045v1.545a.045.045,0,0,1-.045.045H19.581Zm.835,8.326V15.184H33.894v7.753a1.039,1.039,0,0,1-1.017,1.037H21.433a1.039,1.039,0,0,1-1.017-1.037Zm49.925,1.61v2.407H17.665V24.547C17.786,24.547,65.871,24.548,70.341,24.547ZM15,75.859a.313.313,0,0,1-.315-.31V13.417a.313.313,0,0,1,.315-.31h.6v3a.287.287,0,1,0,.573,0v-3h.605a.31.31,0,0,1,.31.31V75.549a.31.31,0,0,1-.31.31H15Zm2.665-11.446V62.006h12.93v2.407Zm43.8,8.352H50.385a.287.287,0,0,0,0,.573h11.08v2.519H26.544V70.246H61.465Zm.758-4.714v1.335a.287.287,0,0,1-.287.287H26.073a.287.287,0,0,1-.287-.287V68.051a.287.287,0,0,1,.287-.287H61.937A.287.287,0,0,1,62.224,68.051Zm-4.812-3.638V62.006H70.341v.919H66.982a.287.287,0,1,0,0,.573h3.359v.915H57.412Zm13.5,11.136V13.416a.313.313,0,0,1,.315-.31h1.783a.313.313,0,0,1,.31.31V75.549a.313.313,0,0,1-.31.31H71.229a.313.313,0,0,1-.315-.31Z" transform="translate(-7.039 -2.507)"/>
          <path id="Trazado_663550" data-name="Trazado 663550" d="M125.358,130.491H121.5a.287.287,0,0,0,0,.573h3.857a.287.287,0,0,0,0-.573Z" transform="translate(-53.176 -57.14)"/>
          <path id="Trazado_663551" data-name="Trazado 663551" d="M130.549,130.491h-.318a.287.287,0,0,0,0,.573h.318a.287.287,0,0,0,0-.573Z" transform="translate(-56.903 -57.14)"/>
          <path id="Trazado_663552" data-name="Trazado 663552" d="M34.622,32.445H27.985a.287.287,0,1,0,0,.573h6.637a.287.287,0,1,0,0-.573Z" transform="translate(-13.256 -15.287)"/>
          <path id="Trazado_663553" data-name="Trazado 663553" d="M32.5,35.14H27.985a.287.287,0,1,0,0,.573H32.5a.287.287,0,1,0,0-.573Z" transform="translate(-13.256 -16.437)"/>
          <path id="Trazado_663554" data-name="Trazado 663554" d="M95.806,26.375h.3v3.376a.11.11,0,0,0,.11.11h.8a.11.11,0,0,0,.11-.11V26.375h.3a.11.11,0,0,0,.092-.172L96.7,25a.11.11,0,0,0-.184,0l-.8,1.207a.11.11,0,0,0,.092.172Z" transform="translate(-42.282 -12.086)"/>
          <path id="Trazado_663555" data-name="Trazado 663555" d="M100.179,26.375h.3v3.376a.11.11,0,0,0,.11.11h.8a.11.11,0,0,0,.11-.11V26.375h.3a.11.11,0,0,0,.092-.172l-.8-1.207a.11.11,0,0,0-.184,0l-.8,1.207a.11.11,0,0,0,.092.172Z" transform="translate(-44.149 -12.086)"/>
          <path id="Trazado_663556" data-name="Trazado 663556" d="M99.957,34.274H95.566a.11.11,0,0,0-.11.11v.7a.11.11,0,0,0,.11.11h4.391a.11.11,0,0,0,.11-.11v-.7A.11.11,0,0,0,99.957,34.274Z" transform="translate(-42.18 -16.068)"/>
          <path id="Trazado_663557" data-name="Trazado 663557" d="M44.6,56.392a.286.286,0,0,0-.405,0l-1.472,1.472a.287.287,0,0,0,.405.405L44.6,56.8A.286.286,0,0,0,44.6,56.392Z" transform="translate(-19.632 -25.473)"/>
          <path id="Trazado_663558" data-name="Trazado 663558" d="M46.305,58.981a.287.287,0,0,0-.405-.405l-1,1a.287.287,0,0,0,.405.405Z" transform="translate(-20.565 -26.405)"/>
          <path id="Trazado_663559" data-name="Trazado 663559" d="M92.085,52.817h3.443a1.175,1.175,0,1,0,0-2.35H92.085a1.175,1.175,0,1,0,0,2.35Zm0-1.777h3.443a.6.6,0,1,1,0,1.2H92.085a.6.6,0,1,1,0-1.2Z" transform="translate(-40.24 -22.98)"/>
          <path id="Trazado_663560" data-name="Trazado 663560" d="M90.737,57.813h5.914a.287.287,0,1,0,0-.573H90.737a.287.287,0,0,0,0,.573Z" transform="translate(-40.044 -25.871)"/>
          <path id="Trazado_663561" data-name="Trazado 663561" d="M96.54,60.052H91.493a.287.287,0,0,0,0,.573H96.54a.287.287,0,1,0,0-.573Z" transform="translate(-40.366 -27.072)"/>
          <path id="Trazado_663562" data-name="Trazado 663562" d="M88.279,66.322a.286.286,0,0,0-.405,0l-1.235,1.235a.287.287,0,0,0,.405.405l1.235-1.235A.286.286,0,0,0,88.279,66.322Z" transform="translate(-38.381 -29.712)"/>
          <path id="Trazado_663563" data-name="Trazado 663563" d="M88.209,69.225a.286.286,0,0,0,.405,0l.929-.929a.287.287,0,1,0-.405-.405l-.929.929A.286.286,0,0,0,88.209,69.225Z" transform="translate(-39.051 -30.382)"/>
          <path id="Trazado_663564" data-name="Trazado 663564" d="M66.077,70.279h-.948a.287.287,0,0,0,0,.573h.948a.287.287,0,1,0,0-.573Z" transform="translate(-29.112 -31.437)"/>
          <path id="Trazado_663565" data-name="Trazado 663565" d="M74.226,10.923a.286.286,0,0,0-.405,0l-1.965,1.965a.287.287,0,1,0,.405.405l1.965-1.965A.286.286,0,0,0,74.226,10.923Z" transform="translate(-32.07 -6.064)"/>
          <path id="Trazado_663566" data-name="Trazado 663566" d="M75.187,12.845l-1.409,1.409a.287.287,0,1,0,.405.405l1.409-1.409a.286.286,0,1,0-.405-.4Z" transform="translate(-32.891 -6.884)"/>
          <path id="Trazado_663567" data-name="Trazado 663567" d="M72.543,125.667h1.648a.287.287,0,0,0,0-.573H72.543a.287.287,0,1,0,0,.573Z" transform="translate(-32.277 -54.836)"/>
          <path id="Trazado_663568" data-name="Trazado 663568" d="M42.823,126.151a.287.287,0,0,0,.405.405l.824-.824a.287.287,0,0,0-.405-.405Z" transform="translate(-19.677 -54.9)"/>
          <path id="Trazado_663569" data-name="Trazado 663569" d="M41.267,125.308l1.536-1.536a.287.287,0,0,0-.405-.405L40.862,124.9a.287.287,0,0,0,.405.405Z" transform="translate(-18.84 -54.063)"/>
          <path id="Trazado_663570" data-name="Trazado 663570" d="M17.732,27.231a.286.286,0,0,0-.287.287v.466a.287.287,0,0,0,.573,0v-.466A.286.286,0,0,0,17.732,27.231Z" transform="translate(-8.88 -13.061)"/>
          <path id="Trazado_663571" data-name="Trazado 663571" d="M105.056,107.926h-.43a.287.287,0,0,0,0,.573h.43a.287.287,0,0,0,0-.573Z" transform="translate(-45.973 -47.508)"/>
          <path id="Trazado_663572" data-name="Trazado 663572" d="M47.721,82.022a.287.287,0,0,0-.405-.405l-.889.889a.287.287,0,0,0,.405.405Z" transform="translate(-21.215 -36.241)"/>
          <path id="Trazado_663573" data-name="Trazado 663573" d="M49.113,82.393a.286.286,0,0,0-.405,0l-1.5,1.5a.287.287,0,0,0,.405.405l1.5-1.5A.286.286,0,0,0,49.113,82.393Z" transform="translate(-21.547 -36.572)"/>
        </g>
      </g>
    </g>
  </g>
</svg>
