<svg xmlns="http://www.w3.org/2000/svg" width="105" height="104.465" viewBox="0 0 105 104.465">
  <g id="Grupo_1009737" data-name="Grupo 1009737" transform="translate(-810 -7886.234)">
    <path id="Trazado_663292" data-name="Trazado 663292" d="M0,0H105V104.465H0Z" transform="translate(810 7886.234)" fill="#f0bd51"/>
    <g id="produccion_1_" data-name="produccion(1)" transform="translate(824.064 7900.31)">
      <g id="Grupo_987714" data-name="Grupo 987714" transform="translate(2.208 1)">
        <g id="Grupo_987695" data-name="Grupo 987695" transform="translate(47.097 10.868)">
          <path id="Trazado_663722" data-name="Trazado 663722" d="M47.038,10.942a3.506,3.506,0,0,1,1.208,2.681,3.623,3.623,0,1,1-7.246,0,3.506,3.506,0,0,1,1.208-2.681V10.93a3.6,3.6,0,0,1,4.83,0Z" transform="translate(-41 -10)" fill="#fcd770"/>
        </g>
        <g id="Grupo_987696" data-name="Grupo 987696" transform="translate(48.304)">
          <path id="Trazado_663723" data-name="Trazado 663723" d="M46.83,1V12.8a3.6,3.6,0,0,0-4.83,0V1Z" transform="translate(-42 -1)" fill="#ccd1d9"/>
        </g>
        <g id="Grupo_987697" data-name="Grupo 987697" transform="translate(26.567 66.419)">
          <path id="Trazado_663724" data-name="Trazado 663724" d="M24,56H67.474v7.246H24Z" transform="translate(-24 -56)" fill="#ccd1d9"/>
        </g>
        <g id="Grupo_987698" data-name="Grupo 987698" transform="translate(26.567 61.588)">
          <path id="Trazado_663725" data-name="Trazado 663725" d="M31.246,52H69.889v4.83H24V52h7.246Z" transform="translate(-24 -52)" fill="#969faa"/>
        </g>
        <g id="Grupo_987699" data-name="Grupo 987699" transform="translate(50.72 39.851)">
          <path id="Trazado_663726" data-name="Trazado 663726" d="M60.907,34l2.415,7.246h-15.7L44,34H60.907Z" transform="translate(-44 -34)" fill="#b27946"/>
        </g>
        <g id="Grupo_987700" data-name="Grupo 987700" transform="translate(31.398 39.851)">
          <path id="Trazado_663727" data-name="Trazado 663727" d="M47.322,34,43.7,41.246H28L30.415,34H47.322Z" transform="translate(-28 -34)" fill="#b27946"/>
        </g>
        <g id="Grupo_987701" data-name="Grupo 987701" transform="translate(50.72 39.851)">
          <path id="Trazado_663728" data-name="Trazado 663728" d="M44,55.737V34l3.623,7.246H60.907V55.737Z" transform="translate(-44 -34)" fill="#d3a06c"/>
        </g>
        <g id="Grupo_987702" data-name="Grupo 987702" transform="translate(33.813 39.851)">
          <path id="Trazado_663729" data-name="Trazado 663729" d="M46.907,34V55.737h-12a2.345,2.345,0,0,0,2.343-2.343v-2.56A2.345,2.345,0,0,0,34.9,48.491h-1.28l-.556-1.123a2.338,2.338,0,0,0-2.1-1.292,5.382,5.382,0,0,0-.966.217V41.246H43.284Z" transform="translate(-30 -34)" fill="#d3a06c"/>
        </g>
        <g id="Grupo_987703" data-name="Grupo 987703" transform="translate(43.474 25.36)">
          <path id="Trazado_663730" data-name="Trazado 663730" d="M38,22H52.491V36.491H38Z" transform="translate(-38 -22)" fill="#d3a06c"/>
        </g>
        <g id="Grupo_987704" data-name="Grupo 987704" transform="translate(48.304 25.36)">
          <path id="Trazado_663731" data-name="Trazado 663731" d="M42,22h4.83v4.83H42Z" transform="translate(-42 -22)" fill="#b27946"/>
        </g>
        <g id="Grupo_987705" data-name="Grupo 987705" transform="translate(0 1.208)">
          <path id="Trazado_663732" data-name="Trazado 663732" d="M11.661,17.7v1.208l-.712.242a4.347,4.347,0,0,0-2.113,1.546,4.267,4.267,0,0,0,.447,5.495l2.379,2.379V33.4l-.58-.29a16.579,16.579,0,0,1-6.63-6.062A16.416,16.416,0,0,1,18.424,2h5.724a6.831,6.831,0,0,1,4.83,11.666l-.411.411H15.284A3.618,3.618,0,0,0,11.661,17.7Z" transform="translate(-2 -2)" fill="#656d78"/>
        </g>
        <g id="Grupo_987706" data-name="Grupo 987706" transform="translate(2.427 37.569)">
          <path id="Trazado_663733" data-name="Trazado 663733" d="M32.981,48.884v7.246H19.7A15.68,15.68,0,0,1,4.01,40.66a10.524,10.524,0,0,1,4.565-8.55l2.669,7.113A9.658,9.658,0,0,0,20.9,48.884H32.981Z" transform="translate(-4.01 -32.11)" fill="#b4dd7f"/>
        </g>
        <g id="Grupo_987707" data-name="Grupo 987707" transform="translate(2.415 46.119)">
          <path id="Trazado_663734" data-name="Trazado 663734" d="M28.152,59.49v7.246H4V39.347a.689.689,0,0,1,.012-.157A15.68,15.68,0,0,0,19.7,54.659h8.453Z" transform="translate(-4 -39.19)" fill="#b4dd7f"/>
        </g>
        <g id="Grupo_987708" data-name="Grupo 987708" transform="translate(9.661 44.682)">
          <path id="Trazado_663735" data-name="Trazado 663735" d="M26.508,47.661H19.661A9.658,9.658,0,0,1,10,38H22.269A23.474,23.474,0,0,1,26.508,47.661Z" transform="translate(-10 -38)" fill="#b4dd7f"/>
        </g>
        <g id="Grupo_987709" data-name="Grupo 987709" transform="translate(6.992 36.228)">
          <path id="Trazado_663736" data-name="Trazado 663736" d="M22.716,39.453H10.459L7.79,32.34A10.438,10.438,0,0,1,10.459,31a23.462,23.462,0,0,1,9.661,5.519A24,24,0,0,1,22.716,39.453Z" transform="translate(-7.79 -31)" fill="#a0d468"/>
        </g>
        <g id="Grupo_987710" data-name="Grupo 987710" transform="translate(31.398 51.927)">
          <path id="Trazado_663737" data-name="Trazado 663737" d="M31.381,44a2.338,2.338,0,0,1,2.1,1.292l.556,1.123h1.28a2.345,2.345,0,0,1,2.343,2.343v2.56a2.345,2.345,0,0,1-2.343,2.343H28V46.415l1.727-1.727a2.187,2.187,0,0,1,.688-.471A5.382,5.382,0,0,1,31.381,44Z" transform="translate(-28 -44)" fill="#f0d0b4"/>
        </g>
        <g id="Grupo_987711" data-name="Grupo 987711" transform="translate(9.661 13.284)">
          <path id="Trazado_663738" data-name="Trazado 663738" d="M28.633,18.557a2.346,2.346,0,0,1-.6,3.756l-1.123.556v2.415H16.038L10,16.83V15.623A3.618,3.618,0,0,1,13.623,12H26.907v2.379A5.923,5.923,0,0,0,28.633,18.557Z" transform="translate(-10 -12)" fill="#f0d0b4"/>
        </g>
        <g id="Grupo_987712" data-name="Grupo 987712" transform="translate(6.038 18.114)">
          <path id="Trazado_663739" data-name="Trazado 663739" d="M20.284,31.7v7.934a23.462,23.462,0,0,0-9.661-5.519V25.661L8.244,23.282A4.267,4.267,0,0,1,7.8,17.787,4.347,4.347,0,0,1,9.91,16.242L10.623,16l6.038,8.453L17.868,31.7Z" transform="translate(-7 -16)" fill="#f0d0b4"/>
        </g>
        <g id="Grupo_987713" data-name="Grupo 987713" transform="translate(15.699 26.567)">
          <path id="Trazado_663740" data-name="Trazado 663740" d="M25.868,23v2.415a4.829,4.829,0,0,1-4.83,4.83h-4.83L15,23Z" transform="translate(-15 -23)" fill="#e6e9ed"/>
        </g>
      </g>
      <path id="Trazado_663741" data-name="Trazado 663741" d="M75.872,61.381h-4.83V49.3h2.883L70.7,39.644H61.381V34.352l.037-.018A8.671,8.671,0,0,0,57.54,17.907h-.454a4.716,4.716,0,0,0-.536-5.577V1H54.135v9.832a4.338,4.338,0,0,0-2.415,0V1H49.3V12.33a4.716,4.716,0,0,0-.536,5.577h-.454a8.671,8.671,0,0,0-3.878,16.427l.037.018v5.292H35.15L31.929,49.3h2.884v3.182a3.393,3.393,0,0,0-.331.273l-1.377,1.375H29.344a24.386,24.386,0,0,0-6.607-11.914v-6.2h1.208a6.045,6.045,0,0,0,6.038-6.038V25.9l.454-.227A3.528,3.528,0,0,0,32.4,22.5a3.571,3.571,0,0,0-1.039-2.508,4.669,4.669,0,0,1-1.377-3.323V14.785l.06-.06A8.04,8.04,0,0,0,24.359,1H18.626a17.625,17.625,0,0,0-7.965,33.348V36.4a11.779,11.779,0,0,0-7.23,10.494H3.415c0,.058.008.115.008.173s-.008.145-.008.219V75.872H73.457V68.626h2.415Zm-7.246,0H54.135V45.967L55.8,49.3H68.626Zm1.948-14.491H57.3l-2.415-4.83H68.963Zm-20.062-31.4a2.415,2.415,0,1,1,2.415,2.415A2.418,2.418,0,0,1,50.512,15.491ZM42.059,26.578a6.263,6.263,0,0,1,6.255-6.257H57.54A6.245,6.245,0,0,1,61.381,31.5V25.152H44.474V31.5A6.2,6.2,0,0,1,42.059,26.578Zm9.661.989h2.415v2.415H51.72Zm-4.83,0H49.3V32.4H56.55v-4.83h2.415V39.644H46.889Zm-10,14.491H50.973l-2.415,4.83H35.28ZM50.051,49.3l1.669-3.338V61.381H44.272a3.521,3.521,0,0,0,.2-1.132V57.683a3.551,3.551,0,0,0-3.547-3.548h-.536l-.227-.454a3.517,3.517,0,0,0-2.934-1.944V49.3ZM34.813,55.842l1.377-1.377A1.167,1.167,0,0,1,38,54.76l.895,1.79h2.03a1.133,1.133,0,0,1,1.132,1.133v2.566a1.133,1.133,0,0,1-1.132,1.132H34.813ZM21.557,44.474H12.705l-2.026-5.405A9.5,9.5,0,0,1,11.9,38.5a22.071,22.071,0,0,1,9.655,5.978Zm1.974,2.415a22.034,22.034,0,0,1,3.339,7.246H21.529a8.46,8.46,0,0,1-8.357-7.246Zm-3.21-6.76a24.566,24.566,0,0,0-7.246-3.779V28.275l-2.729-2.73a3.04,3.04,0,0,1,1.064-4.993l5.35,7.491.929,5.563h-2.2v2.415h4.83Zm3.623-6.524H20.137l-.8-4.83h8.235v1.208A3.627,3.627,0,0,1,23.945,33.605Zm5.413-10.094-1.79.895V26.36H18.528l-5.452-7.633v-.82a2.418,2.418,0,0,1,2.415-2.415H27.567v1.176A7.065,7.065,0,0,0,29.652,21.7a1.141,1.141,0,0,1,.331.8,1.127,1.127,0,0,1-.626,1.012ZM3.415,18.627A15.229,15.229,0,0,1,18.627,3.415H24.36a5.624,5.624,0,0,1,3.977,9.6l-.062.062H15.491a4.835,4.835,0,0,0-4.83,4.83v.338a5.464,5.464,0,0,0-2.023,9.008l2.023,2.023v2.3A15.11,15.11,0,0,1,3.415,18.627ZM8.666,40.583l2.007,5.352A10.875,10.875,0,0,0,21.529,56.55H32.4v4.83H20.322A14.5,14.5,0,0,1,5.843,47.125a9.35,9.35,0,0,1,2.823-6.542ZM5.83,55.553A16.9,16.9,0,0,0,20.322,63.8h7.246v9.661H5.83Zm65.211,17.9H29.983v-4.83H71.041Zm2.415-7.246H29.983V63.8H73.457Z"/>
    </g>
  </g>
</svg>
