<svg id="Grupo_1009628" data-name="Grupo 1009628" xmlns="http://www.w3.org/2000/svg" width="112.571" height="106.002" viewBox="0 0 112.571 106.002">
  <g id="Grupo_979804" data-name="Grupo 979804" transform="translate(0)">
    <path id="Trazado_655346" data-name="Trazado 655346" d="M422.991,600.864H409.983a1.649,1.649,0,1,0,0,3.3h13.008a.794.794,0,0,1,.794.792V689.87a.8.8,0,0,1-.794.794H367.762V663.08a1.649,1.649,0,0,0-3.3,0V702.96a.611.611,0,0,1-.61.61H318.418a.612.612,0,0,1-.61-.61V639.634a.611.611,0,0,1,.61-.61h17.414v2.961H322.543a1.65,1.65,0,0,0-1.65,1.648v54.828a1.65,1.65,0,0,0,1.65,1.65h37.186a1.649,1.649,0,0,0,1.65-1.65V643.634a1.649,1.649,0,0,0-1.65-1.648H346.44v-2.961h17.414a.611.611,0,0,1,.61.61V655.3a1.649,1.649,0,0,0,3.3,0V639.634a3.912,3.912,0,0,0-3.908-3.906h-8.63v-.753a6.172,6.172,0,0,0-6.166-6.164H337.283V604.954a.793.793,0,0,1,.794-.792h30.07v20.694a4.1,4.1,0,0,0,4.09,4.092h16.594a4.1,4.1,0,0,0,4.09-4.092V604.162H402.2a1.649,1.649,0,0,0,0-3.3H338.077a4.1,4.1,0,0,0-4.092,4.09V628.81h-.771a6.171,6.171,0,0,0-6.164,6.166v.751h-8.631a3.91,3.91,0,0,0-3.906,3.906V702.96a3.91,3.91,0,0,0,3.906,3.906h45.436a3.912,3.912,0,0,0,3.908-3.906v-9h55.229a4.1,4.1,0,0,0,4.092-4.092V604.954a4.1,4.1,0,0,0-4.092-4.09Zm-33.368,23.992a.794.794,0,0,1-.792.794H372.237a.794.794,0,0,1-.792-.794V604.162h18.178v20.694Zm-31.542,71.957H324.192V645.284h11.729a3.915,3.915,0,0,0,3.818,3.081h2.8a3.913,3.913,0,0,0,3.818-3.081h11.729Zm-14.939-52.354a.61.61,0,0,1-.608.61h-2.8a.609.609,0,0,1-.608-.61v-5.435h4.012v5.435Zm-12.8-9.484a2.871,2.871,0,0,1,2.868-2.866h15.844a2.871,2.871,0,0,1,2.868,2.866v.753h-21.58Z" transform="translate(-314.512 -600.864)" fill="#fff"/>
    <path id="Trazado_655347" data-name="Trazado 655347" d="M383.834,628.913a3.442,3.442,0,0,0-2.945-1.642H368.514a3.462,3.462,0,0,0-3.1,5.011l.468.937a11.883,11.883,0,0,0,4.1,18.88,1.649,1.649,0,0,0,1.308-3.027,8.584,8.584,0,0,1-3.777-12.587l4.086,8.171a3.462,3.462,0,0,0,6.194,0l4.086-8.171a8.581,8.581,0,0,1-4.059,12.7,1.649,1.649,0,1,0,1.2,3.071,11.88,11.88,0,0,0,4.493-19.037l.468-.937a3.443,3.443,0,0,0-.153-3.369Zm-8.985,14.268a.147.147,0,0,1-.148.09.143.143,0,0,1-.146-.09l-6.187-12.373a.164.164,0,0,1,.146-.238h12.375a.164.164,0,0,1,.146.238Z" transform="translate(-283.432 -583.873)" fill="#fff"/>
    <path id="Trazado_655348" data-name="Trazado 655348" d="M381.427,645.42H369.921a1.648,1.648,0,0,0,0,3.3h11.506a1.648,1.648,0,0,0,0-3.3Z" transform="translate(-279.921 -572.196)" fill="#fff"/>
    <path id="Trazado_655349" data-name="Trazado 655349" d="M392.515,649.564H352.688a1.648,1.648,0,0,0,0,3.3h39.827a1.648,1.648,0,0,0,0-3.3Z" transform="translate(-291.009 -569.53)" fill="#fff"/>
    <path id="Trazado_655350" data-name="Trazado 655350" d="M329.08,643.809l-2.337,2.337-.585-.585a1.649,1.649,0,0,0-2.332,2.332l1.752,1.752a1.649,1.649,0,0,0,2.332,0l3.5-3.5a1.649,1.649,0,1,0-2.332-2.332Z" transform="translate(-308.83 -573.543)" fill="#fff"/>
    <path id="Trazado_655351" data-name="Trazado 655351" d="M332.681,646.138h2.268a1.648,1.648,0,1,0,0-3.3h-2.268a1.648,1.648,0,0,0,0,3.3Z" transform="translate(-303.882 -573.855)" fill="#fff"/>
    <path id="Trazado_655352" data-name="Trazado 655352" d="M332.681,645.944a1.648,1.648,0,0,0,0,3.3h8.288a1.648,1.648,0,0,0,0-3.3Z" transform="translate(-303.882 -571.859)" fill="#fff"/>
    <path id="Trazado_655353" data-name="Trazado 655353" d="M329.08,651.719l-2.337,2.337-.585-.587a1.649,1.649,0,0,0-2.332,2.332l1.752,1.752a1.649,1.649,0,0,0,2.332,0l3.5-3.5a1.649,1.649,0,1,0-2.332-2.332Z" transform="translate(-308.83 -568.454)" fill="#fff"/>
    <path id="Trazado_655354" data-name="Trazado 655354" d="M332.681,654.048h2.268a1.649,1.649,0,0,0,0-3.3h-2.268a1.649,1.649,0,0,0,0,3.3Z" transform="translate(-303.882 -568.767)" fill="#fff"/>
    <path id="Trazado_655355" data-name="Trazado 655355" d="M340.969,653.853h-8.286a1.649,1.649,0,1,0,0,3.3h8.286a1.649,1.649,0,0,0,0-3.3Z" transform="translate(-303.882 -566.77)" fill="#fff"/>
    <path id="Trazado_655356" data-name="Trazado 655356" d="M338.516,631.489l-5.834,5.832-1.1-1.1a4.427,4.427,0,0,0-3.152-1.3h0a4.456,4.456,0,0,0-3.15,7.607l4.251,4.253a4.46,4.46,0,0,0,6.3,0l8.983-8.985a4.456,4.456,0,0,0-3.15-7.607h0a4.421,4.421,0,0,0-3.15,1.3Zm3.971,2.332a1.159,1.159,0,0,1,0,1.638l-8.983,8.985a1.161,1.161,0,0,1-1.638,0l-4.253-4.253a1.16,1.16,0,0,1,.818-1.979h0a1.152,1.152,0,0,1,.82.34l2.268,2.268a1.648,1.648,0,0,0,2.332,0l7-7a1.15,1.15,0,0,1,.818-.339h0a1.157,1.157,0,0,1,.82.339Z" transform="translate(-308.423 -581.999)" fill="#fff"/>
    <path id="Trazado_655357" data-name="Trazado 655357" d="M349.077,610h-5.892a6.124,6.124,0,1,0,0,3.3h5.892a1.649,1.649,0,0,0,0-3.3Zm-11.787,4.475A2.826,2.826,0,1,1,339.58,610H337.29a1.649,1.649,0,1,0,0,3.3h2.289A2.821,2.821,0,0,1,337.29,614.474Z" transform="translate(-303.796 -597.866)" fill="#fff"/>
    <path id="Trazado_655358" data-name="Trazado 655358" d="M343.571,611.286h-2.2a1.649,1.649,0,0,0,0,3.3h2.2a1.649,1.649,0,0,0,0-3.3Z" transform="translate(-298.29 -594.158)" fill="#fff"/>
  </g>
</svg>
