<svg id="Grupo_1009622" data-name="Grupo 1009622" xmlns="http://www.w3.org/2000/svg" width="105.39" height="105.39" viewBox="0 0 105.39 105.39">
  <g id="Grupo_979802" data-name="Grupo 979802">
    <path id="Trazado_655338" data-name="Trazado 655338" d="M586.466,857.855v-3.712h-3.4v3.4h-3.4v5.1a5.106,5.106,0,0,0,5.1,5.1,1.7,1.7,0,0,1,1.7,1.7v1.7h-1.7a1.7,1.7,0,0,1-1.7-1.7v-1.7h-3.4v1.7a5.092,5.092,0,0,0,3.4,4.787v3.712h3.4v-3.4h3.4v-5.1a5.106,5.106,0,0,0-5.1-5.1,1.7,1.7,0,0,1-1.7-1.7v-1.7h1.7a1.7,1.7,0,0,1,1.7,1.7v1.7h3.4v-1.7A5.092,5.092,0,0,0,586.466,857.855Z" transform="translate(-532.071 -779.35)" fill="#fff"/>
    <path id="Trazado_655339" data-name="Trazado 655339" d="M587.508,812.4c-1.172-.147-2.365-.246-3.54-.292l-.139,3.4c1.08.044,2.178.134,3.258.268Z" transform="translate(-529.504 -805.271)" fill="#fff"/>
    <path id="Trazado_655340" data-name="Trazado 655340" d="M583.215,815.5l-.137-3.4c-1.175.047-2.368.146-3.54.293l.419,3.372C581.036,815.638,582.132,815.547,583.215,815.5Z" transform="translate(-532.15 -805.27)" fill="#fff"/>
    <path id="Trazado_655341" data-name="Trazado 655341" d="M621.362,891.611a18.557,18.557,0,0,0-2.315-6.46,32.286,32.286,0,1,0-34.825-54.286v-8.005a38.773,38.773,0,0,1,10.552-3.933l-.7-3.325a42.172,42.172,0,0,0-9.847,3.417v-7.74a3.4,3.4,0,0,0-3.4-3.4h-23.8a3.4,3.4,0,0,0-3.4,3.4v23.8a3.4,3.4,0,0,0,3.4,3.4h6.8v27.2a1.7,1.7,0,1,1-3.4,0v-10.2a6.808,6.808,0,0,0-6.8-6.8,3.4,3.4,0,0,0-3.4,3.4v16.313a32.852,32.852,0,0,0,6.8,19.972v24.909h34V909a18.689,18.689,0,0,0,30.559-13.678,42.37,42.37,0,0,0,20.748-22.214l-3.152-1.274a38.961,38.961,0,0,1-17.814,19.776Zm-4.307-9.245a18.828,18.828,0,0,0-4.436-3.752,41.7,41.7,0,0,0,2.9-6.142h11.944A28.834,28.834,0,0,1,617.055,882.366Zm-29.631-29.917a5.054,5.054,0,0,0-6.8-3.4,5.088,5.088,0,0,0-4.082-3.692l.036-.084h12.655a43.551,43.551,0,0,0-1.324,7.024c-.163.048-.328.089-.485.152Zm-3.212-17.267a28.8,28.8,0,0,1,14.06-6.507,40.979,40.979,0,0,0-7.951,13.2H578.437a28.888,28.888,0,0,1,2.5-3.411A3.394,3.394,0,0,0,584.211,835.181Zm47.519,20.292H618.149a44.139,44.139,0,0,0-1.539-10.2h12.613A28.656,28.656,0,0,1,631.731,855.473Zm-37.31,11.349v-7.949h20.342a40.175,40.175,0,0,1-1.691,10.2H594.377C594.4,868.322,594.42,867.574,594.42,866.822Zm23.742-7.949h13.6a28.922,28.922,0,0,1-2.486,10.2h-12.64a43.941,43.941,0,0,0,1.531-10.2Zm-3.413-3.4H594.108a5.114,5.114,0,0,0-2.8-3,39.769,39.769,0,0,1,1.461-7.2h20.273a40.144,40.144,0,0,1,1.707,10.2Zm-20.743-13.6a37.662,37.662,0,0,1,8.911-13.054,37.383,37.383,0,0,1,8.927,13.054Zm-19.985.943v-4.342H576.6a32.187,32.187,0,0,0-2.575,4.342Zm20.159,29.655h17.671a38.026,38.026,0,0,1-2.292,4.64,18.52,18.52,0,0,0-16.16,1.38c.348-1.993.614-4,.781-6.02Zm33.209-30.6H615.516a41.205,41.205,0,0,0-7.92-13.185A28.92,28.92,0,0,1,627.39,841.874Zm-60.168-30.6h3.4v3.4h-3.4Zm-10.2,23.8v-23.8h6.8v6.8h10.2v-6.8h6.8v23.8h-6.8v-1.7a5.1,5.1,0,0,0-10.2,0v1.7Zm-3.4,33.312V852.073a3.4,3.4,0,0,1,3.4,3.4v10.2a5.1,5.1,0,1,0,10.2,0v-32.3a1.7,1.7,0,0,1,3.4,0v34h3.4v-17a1.7,1.7,0,1,1,3.4,0v17h3.4v-13.6a1.7,1.7,0,1,1,3.4,0v13.6h3.4v-10.2a1.7,1.7,0,1,1,3.4,0v9.648a64.42,64.42,0,0,1-2.95,19.249H559.584A29.421,29.421,0,0,1,553.625,868.387Zm6.8,41.481v-20.4h27.2v20.4Zm42.495,0a15.168,15.168,0,0,1-11.9-5.715v-16.11c.487-1.479.912-2.976,1.295-4.48a15.292,15.292,0,1,1,10.6,26.3Z" transform="translate(-550.225 -807.878)" fill="#fff"/>
    <path id="Trazado_655342" data-name="Trazado 655342" d="M605.959,846.666l3.253.993c.352-1.164.661-2.355.913-3.544l-3.325-.7c-.231,1.091-.514,2.187-.841,3.256Z" transform="translate(-515.858 -785.968)" fill="#fff"/>
    <path id="Trazado_655343" data-name="Trazado 655343" d="M606.817,842.64l3.372.417c.147-1.172.246-2.365.293-3.539l-3.4-.139c-.042,1.083-.134,2.177-.268,3.261Z" transform="translate(-515.329 -788.453)" fill="#fff"/>
    <path id="Trazado_655344" data-name="Trazado 655344" d="M616.4,818.883a6.8,6.8,0,1,0-6.8,6.8A6.806,6.806,0,0,0,616.4,818.883Zm-10.2,0a3.4,3.4,0,1,1,3.4,3.4A3.4,3.4,0,0,1,606.2,818.883Z" transform="translate(-517.807 -805.284)" fill="#fff"/>
    <path id="Trazado_655345" data-name="Trazado 655345" d="M632.408,821.477a13.6,13.6,0,0,0-27.2,0,13.179,13.179,0,0,0,.144,1.82,42.227,42.227,0,0,0-16.789-7.7l-.706,3.325a38.965,38.965,0,0,1,19.164,10.282c2.363,5.977,6.536,12.235,9.51,14.821a38.924,38.924,0,0,1,2.242,11.514l3.4-.139A42.351,42.351,0,0,0,620.3,844.65c4.244-2.924,12.1-15.68,12.1-23.173Zm-23.8,0a10.2,10.2,0,0,1,20.4,0c0,6.837-7.651,17.838-10.2,20.133C616.261,839.315,608.61,828.314,608.61,821.477Z" transform="translate(-527.019 -807.878)" fill="#fff"/>
  </g>
</svg>
