<svg xmlns="http://www.w3.org/2000/svg" width="105" height="104.465" viewBox="0 0 105 104.465">
  <g id="Grupo_1009747" data-name="Grupo 1009747" transform="translate(-810 -8747.318)">
    <path id="Trazado_663299" data-name="Trazado 663299" d="M0,0H105V104.465H0Z" transform="translate(810 8747.318)" fill="#f0bd51"/>
    <g id="perezoso" transform="translate(808.88 8761.301)">
      <g id="Grupo_987666" data-name="Grupo 987666" transform="translate(44.15 64.536)">
        <path id="Trazado_663701" data-name="Trazado 663701" d="M126.191,228v-3.468a6.909,6.909,0,0,0-6.909-6.909H102.624a6.91,6.91,0,0,0-6.909,6.909V228Z" transform="translate(-95.715 -217.619)" fill="#a4c9ff"/>
      </g>
      <g id="Grupo_987667" data-name="Grupo 987667" transform="translate(43.564 63.949)">
        <path id="Trazado_663702" data-name="Trazado 663702" d="M124.778,227.17H94.3a.587.587,0,0,1-.587-.587v-3.468a7.5,7.5,0,0,1,7.5-7.5h16.657a7.5,7.5,0,0,1,7.5,7.5v3.468A.587.587,0,0,1,124.778,227.17ZM94.889,226h29.3v-2.881a6.33,6.33,0,0,0-6.323-6.323H101.212a6.33,6.33,0,0,0-6.323,6.323V226Z" transform="translate(-93.716 -215.619)"/>
      </g>
      <g id="Grupo_987668" data-name="Grupo 987668" transform="translate(40.39 21.317)">
        <path id="Trazado_663703" data-name="Trazado 663703" d="M120.393,95.937,83.741,99.144l-.776-8.874a18.4,18.4,0,1,1,36.652-3.206Z" transform="translate(-82.894 -70.27)" fill="#4671c6"/>
      </g>
      <g id="Grupo_987669" data-name="Grupo 987669" transform="translate(39.804 20.73)">
        <path id="Trazado_663704" data-name="Trazado 663704" d="M82.328,98.315a.587.587,0,0,1-.584-.536l-.776-8.874a18.982,18.982,0,1,1,37.82-3.309l.776,8.874a.587.587,0,0,1-.533.636L82.38,98.313ZM99.909,69.44q-.788,0-1.583.069A17.83,17.83,0,0,0,82.137,88.8l.726,8.29,35.483-3.1-.725-8.29A17.812,17.812,0,0,0,99.909,69.44Z" transform="translate(-80.895 -68.267)"/>
      </g>
      <g id="Grupo_987670" data-name="Grupo 987670" transform="translate(54.308 62.483)">
        <path id="Trazado_663705" data-name="Trazado 663705" d="M135.426,211.5a15.013,15.013,0,0,1-5.081-.882v2.521a5.081,5.081,0,0,0,10.162,0v-2.521A15.013,15.013,0,0,1,135.426,211.5Z" transform="translate(-130.345 -210.619)" fill="#f9cfcf"/>
      </g>
      <g id="Grupo_987671" data-name="Grupo 987671" transform="translate(53.721 61.896)">
        <path id="Trazado_663706" data-name="Trazado 663706" d="M134.013,217.394a5.674,5.674,0,0,1-5.667-5.668V209.2a.587.587,0,0,1,.785-.552,14.482,14.482,0,0,0,9.765,0,.587.587,0,0,1,.785.552v2.521A5.674,5.674,0,0,1,134.013,217.394Zm-4.494-7.378v1.711a4.494,4.494,0,1,0,8.988,0v-1.711a15.682,15.682,0,0,1-7.485.371C130.518,210.288,130.015,210.164,129.519,210.015Z" transform="translate(-128.346 -208.618)"/>
      </g>
      <g id="Grupo_987672" data-name="Grupo 987672" transform="translate(39.253 29.634)">
        <path id="Trazado_663707" data-name="Trazado 663707" d="M114.591,110.308c-12.048,1.717-18.171-3.63-19.637-5.148a.064.064,0,0,0-.1.077l3.184,5.9a.53.53,0,0,1-.523.777c-7.531-.848-10.41-7.666-8.89-13.288-3.543,3.072-5.771,7.969-5.209,14.394a4.734,4.734,0,0,0-4.381,5.137c.211,2.413,2.155,4.565,5.675,4.257a15.455,15.455,0,0,0,29.851-2.612c3.553-.311,5.058-2.792,4.849-5.178a4.722,4.722,0,0,0-4.821-4.313Z" transform="translate(-79.018 -98.623)" fill="#f9cfcf"/>
      </g>
      <g id="Grupo_987673" data-name="Grupo 987673" transform="translate(38.666 29.047)">
        <path id="Trazado_663708" data-name="Trazado 663708" d="M97.876,131.956A16.01,16.01,0,0,1,82.894,121.61,5.314,5.314,0,0,1,81.376,111.1c-.374-5.877,1.551-10.951,5.451-14.332a.587.587,0,0,1,.951.6,10.456,10.456,0,0,0,1.326,8.515,9.475,9.475,0,0,0,6.952,4.024l-3.131-5.8a.655.655,0,0,1,.189-.837.643.643,0,0,1,.849.074c1.32,1.368,5.892,5.306,14.6,5.307a32.059,32.059,0,0,0,4.527-.333.585.585,0,0,1,.075-.006h.077a5.294,5.294,0,0,1,5.336,4.849,5.184,5.184,0,0,1-1.147,3.793,5.847,5.847,0,0,1-3.785,1.969,16.015,16.015,0,0,1-14.36,12.976c-.474.042-.947.062-1.414.062ZM83.3,120.411a.587.587,0,0,1,.554.394,14.869,14.869,0,0,0,28.718-2.512.587.587,0,0,1,.528-.491,4.867,4.867,0,0,0,3.435-1.6,4.017,4.017,0,0,0,.881-2.942,4.131,4.131,0,0,0-4.168-3.778h-.024c-9.123,1.291-14.926-1.379-17.957-3.515l1.877,3.476a1.116,1.116,0,0,1-1.1,1.638,10.581,10.581,0,0,1-7.9-4.543,11.5,11.5,0,0,1-1.837-7.6c-2.839,3.191-4.149,7.6-3.71,12.617a.587.587,0,0,1-.533.636,4.144,4.144,0,0,0-3.848,4.5c.18,2.058,1.806,4.007,5.04,3.724Zm9.821-16.257h0Z" transform="translate(-77.016 -96.623)"/>
      </g>
      <g id="Grupo_987674" data-name="Grupo 987674" transform="translate(47.082 51.63)">
        <ellipse id="Elipse_7791" data-name="Elipse 7791" cx="2.749" cy="1.535" rx="2.749" ry="1.535" transform="translate(0 0.478) rotate(-4.992)" fill="#f9a7a7"/>
      </g>
      <g id="Grupo_987675" data-name="Grupo 987675" transform="translate(66.958 49.895)">
        <ellipse id="Elipse_7792" data-name="Elipse 7792" cx="2.749" cy="1.535" rx="2.749" ry="1.535" transform="translate(0 0.478) rotate(-4.992)" fill="#f9a7a7"/>
      </g>
      <g id="Grupo_987676" data-name="Grupo 987676" transform="translate(65.638 43.334)">
        <path id="Trazado_663709" data-name="Trazado 663709" d="M170.941,150.428a1.666,1.666,0,0,1-1.805-1.514l-.155-1.77a1.666,1.666,0,0,1,3.319-.291l.155,1.77A1.666,1.666,0,0,1,170.941,150.428Z" transform="translate(-168.975 -145.332)"/>
      </g>
      <g id="Grupo_987677" data-name="Grupo 987677" transform="translate(47.944 46.156)">
        <path id="Trazado_663710" data-name="Trazado 663710" d="M112.069,159.224a3.44,3.44,0,0,1-3.42-3.136.587.587,0,1,1,1.169-.1,2.262,2.262,0,1,0,4.508-.395.586.586,0,1,1,1.169-.1,3.44,3.44,0,0,1-3.123,3.722c-.1.009-.2.014-.3.014Z" transform="translate(-108.647 -154.953)"/>
      </g>
      <g id="Grupo_987678" data-name="Grupo 987678" transform="translate(53.615 51.719)">
        <path id="Trazado_663711" data-name="Trazado 663711" d="M141.056,176.94a3.7,3.7,0,0,0-3.956-3l-2.87.251-2.87.251a3.7,3.7,0,0,0-3.375,3.645,3.458,3.458,0,0,0,5.982,2.4,1.212,1.212,0,0,1,1.614-.141,3.458,3.458,0,0,0,5.475-3.4Z" transform="translate(-127.984 -173.923)" fill="#f9a7a7"/>
      </g>
      <g id="Grupo_987679" data-name="Grupo 987679" transform="translate(53.029 51.133)">
        <path id="Trazado_663712" data-name="Trazado 663712" d="M130.03,180.75a4.044,4.044,0,0,1-4.046-4.086,4.269,4.269,0,0,1,3.911-4.223l5.739-.5a4.271,4.271,0,0,1,4.584,3.48,4.044,4.044,0,0,1-6.4,3.977.625.625,0,0,0-.833.073,4.038,4.038,0,0,1-2.6,1.266Q130.205,180.75,130.03,180.75Zm5.984-7.655q-.138,0-.277.012l-5.739.5a3.1,3.1,0,0,0-2.84,3.067,2.876,2.876,0,0,0,.921,2.136,2.835,2.835,0,0,0,2.2.753,2.867,2.867,0,0,0,1.846-.9,1.8,1.8,0,0,1,2.395-.21,2.871,2.871,0,0,0,4.546-2.823A3.1,3.1,0,0,0,136.014,173.1Z" transform="translate(-125.984 -171.922)"/>
      </g>
      <g id="Grupo_987680" data-name="Grupo 987680" transform="translate(44.326 54.713)">
        <path id="Trazado_663713" data-name="Trazado 663713" d="M106.583,191.858,104.045,191a3.89,3.89,0,0,1-1.714-1.159l-4.371-5.12a1.7,1.7,0,0,0-1.29-.595.354.354,0,0,0-.327.49l3.01,7.281,4.011,3.8-.8,8.629h6.249V194.5A3.335,3.335,0,0,0,106.583,191.858Z" transform="translate(-96.314 -184.128)" fill="#f9cfcf"/>
      </g>
      <g id="Grupo_987681" data-name="Grupo 987681" transform="translate(43.739 54.126)">
        <path id="Trazado_663714" data-name="Trazado 663714" d="M107.4,203.5h-6.249a.587.587,0,0,1-.584-.641l.773-8.346-3.8-3.605a.589.589,0,0,1-.139-.2l-3.009-7.281a.941.941,0,0,1,.87-1.3,2.28,2.28,0,0,1,1.736.8l4.371,5.12a3.305,3.305,0,0,0,1.456.985l2.539.856a3.911,3.911,0,0,1,2.621,3.106.56.56,0,0,1,.007.092v9.829a.587.587,0,0,1-.587.587Zm-5.606-1.173h5.019v-9.195a2.741,2.741,0,0,0-1.83-2.134l-2.539-.856a4.478,4.478,0,0,1-1.973-1.334l-4.371-5.12a1.106,1.106,0,0,0-.47-.324l2.8,6.779,3.92,3.715a.586.586,0,0,1,.18.48Z" transform="translate(-94.314 -182.126)"/>
      </g>
      <g id="Grupo_987682" data-name="Grupo 987682" transform="translate(75.05 23.439)">
        <circle id="Elipse_7793" data-name="Elipse 7793" cx="2.219" cy="2.219" r="2.219" fill="#e0ebfc"/>
      </g>
      <g id="Grupo_987683" data-name="Grupo 987683" transform="translate(75.05 23.439)">
        <circle id="Elipse_7794" data-name="Elipse 7794" cx="2.219" cy="2.219" r="2.219" fill="#e0ebfc"/>
      </g>
      <g id="Grupo_987684" data-name="Grupo 987684" transform="translate(77.667 17.086)">
        <circle id="Elipse_7795" data-name="Elipse 7795" cx="1.581" cy="1.581" r="1.581" fill="#e0ebfc"/>
      </g>
      <g id="Grupo_987685" data-name="Grupo 987685" transform="translate(81.205 21.497)">
        <circle id="Elipse_7796" data-name="Elipse 7796" cx="1.35" cy="1.35" r="1.35" fill="#e0ebfc"/>
      </g>
      <g id="Grupo_987686" data-name="Grupo 987686" transform="translate(23.336 1.587)">
        <circle id="Elipse_7797" data-name="Elipse 7797" cx="13.032" cy="13.032" r="13.032" transform="translate(0 0)" fill="#f9a7a7"/>
      </g>
      <g id="Grupo_987687" data-name="Grupo 987687" transform="translate(25.975 4.226)">
        <circle id="Elipse_7798" data-name="Elipse 7798" cx="10.392" cy="10.392" r="10.392" fill="#e0ebfc"/>
      </g>
      <g id="Grupo_987688" data-name="Grupo 987688" transform="translate(22.749 1)">
        <path id="Trazado_663715" data-name="Trazado 663715" d="M36.368,28.237A13.619,13.619,0,1,1,49.987,14.619,13.634,13.634,0,0,1,36.368,28.237Zm0-26.064A12.446,12.446,0,1,0,48.813,14.619,12.46,12.46,0,0,0,36.368,2.173Z" transform="translate(-22.749 -1)"/>
      </g>
      <g id="Grupo_987689" data-name="Grupo 987689" transform="translate(25.389 3.64)">
        <path id="Trazado_663716" data-name="Trazado 663716" d="M42.728,31.958A10.979,10.979,0,1,1,53.707,20.979,10.992,10.992,0,0,1,42.728,31.958Zm0-20.785a9.806,9.806,0,1,0,9.806,9.806A9.817,9.817,0,0,0,42.728,11.173Z" transform="translate(-31.749 -10)"/>
      </g>
      <g id="Grupo_987690" data-name="Grupo 987690" transform="translate(28.932 5.295)">
        <path id="Trazado_663717" data-name="Trazado 663717" d="M51.266,25.553H44.418a.587.587,0,1,1,0-1.173H50.68V16.229a.587.587,0,1,1,1.173,0v8.738A.587.587,0,0,1,51.266,25.553Z" transform="translate(-43.831 -15.642)"/>
      </g>
      <g id="Grupo_987691" data-name="Grupo 987691" transform="translate(74.463 22.853)">
        <path id="Trazado_663718" data-name="Trazado 663718" d="M201.87,81.118a2.806,2.806,0,1,1,2.806-2.806A2.809,2.809,0,0,1,201.87,81.118Zm0-4.439a1.633,1.633,0,1,0,1.633,1.633A1.635,1.635,0,0,0,201.87,76.679Z" transform="translate(-199.064 -75.506)" fill="#3762cc"/>
      </g>
      <g id="Grupo_987692" data-name="Grupo 987692" transform="translate(74.463 22.853)">
        <path id="Trazado_663719" data-name="Trazado 663719" d="M201.87,81.118a2.806,2.806,0,1,1,2.806-2.806A2.809,2.809,0,0,1,201.87,81.118Zm0-4.439a1.633,1.633,0,1,0,1.633,1.633A1.635,1.635,0,0,0,201.87,76.679Z" transform="translate(-199.064 -75.506)"/>
      </g>
      <g id="Grupo_987693" data-name="Grupo 987693" transform="translate(77.081 16.5)">
        <path id="Trazado_663720" data-name="Trazado 663720" d="M210.155,58.18a2.168,2.168,0,1,1,2.168-2.168A2.17,2.17,0,0,1,210.155,58.18Zm0-3.163a.995.995,0,1,0,.995.995A1,1,0,0,0,210.155,55.017Z" transform="translate(-207.987 -53.844)"/>
      </g>
      <g id="Grupo_987694" data-name="Grupo 987694" transform="translate(80.618 20.91)">
        <path id="Trazado_663721" data-name="Trazado 663721" d="M221.983,72.755a1.936,1.936,0,1,1,1.936-1.936A1.939,1.939,0,0,1,221.983,72.755Zm0-2.7a.763.763,0,1,0,.763.763A.764.764,0,0,0,221.983,70.056Z" transform="translate(-220.047 -68.882)"/>
      </g>
    </g>
  </g>
</svg>
