<svg id="Grupo_1009621" data-name="Grupo 1009621" xmlns="http://www.w3.org/2000/svg" width="106.25" height="106.252" viewBox="0 0 106.25 106.252">
  <path id="Trazado_655331" data-name="Trazado 655331" d="M723.291,868.26a1.714,1.714,0,1,1-1.714-1.714A1.714,1.714,0,0,1,723.291,868.26Z" transform="translate(-706.154 -770.577)" fill="#fff"/>
  <path id="Trazado_655332" data-name="Trazado 655332" d="M754.578,868.26a1.714,1.714,0,1,1-1.714-1.714A1.714,1.714,0,0,1,754.578,868.26Z" transform="translate(-686.029 -770.577)" fill="#fff"/>
  <path id="Trazado_655333" data-name="Trazado 655333" d="M746.235,868.26a1.714,1.714,0,1,1-1.714-1.714A1.714,1.714,0,0,1,746.235,868.26Z" transform="translate(-691.396 -770.577)" fill="#fff"/>
  <path id="Trazado_655334" data-name="Trazado 655334" d="M732.828,852.988H721.837l-6.146,6.146V866.7h17.137ZM729.4,863.271H719.119v-2.718l4.138-4.138H729.4Z" transform="translate(-708.837 -779.298)" fill="#fff"/>
  <path id="Trazado_655335" data-name="Trazado 655335" d="M817.77,828.708v-9.089l-7.651-11.476H732.88l-7.651,11.476v9.089h3.428v46.271h-7.565l-9.572,9.572v19.561a5.148,5.148,0,0,0,5.14,5.141h2.44a8.551,8.551,0,0,0,15.684,0H756.8a8.526,8.526,0,0,0,14.7,1.661,8.525,8.525,0,0,0,14.7-1.661h2.44a5.148,5.148,0,0,0,5.14-5.141v-3.743a5.043,5.043,0,0,0,1.714.316h17.137a5.148,5.148,0,0,0,5.142-5.14V878.407a5.135,5.135,0,0,0-3.428-4.826V828.708Zm-83.055-17.137h73.568l4.572,6.855h-1.941v3.428h3.428v3.426H728.657v-3.426h3.428v-3.428h-1.941Zm-12.2,66.836h16.427V898.97h-6.906a8.419,8.419,0,0,0-10.178,0h-6.906v-13Zm30.138-42.844H759.5v3.428H752.65Zm10.282,6.854v-6.854h10.282v6.854h-6.854V866.41h-3.428v-6.854H749.222v6.854H738.939V835.563h10.283v6.854Zm20.565,3.428h6.856v3.428H783.5Zm10.281,6.855v-6.855h10.283v27.42h-8.569a5.085,5.085,0,0,0-1.714.315V866.41H769.787V845.845h10.282V852.7Zm6.855,23.993h6.855v3.426h-6.855Zm-17.19,22.277a8.462,8.462,0,0,0-11.943,1.766,8.464,8.464,0,0,0-11.945-1.766h-17.19V869.838h47.985V898.97ZM759.5,866.41H752.65v-3.428H759.5ZM716.66,905.826a1.716,1.716,0,0,1-1.712-1.714V902.4H719.1a8.5,8.5,0,0,0-.726,3.428Zm10.283,5.142a5.142,5.142,0,1,1,5.141-5.142A5.148,5.148,0,0,1,726.943,910.967Zm7.841-8.569h4.154v3.428h-3.428A8.474,8.474,0,0,0,734.785,902.4Zm7.582,3.428V902.4H756.8a8.5,8.5,0,0,0-.726,3.428Zm22.279,5.142a5.142,5.142,0,1,1,5.142-5.142A5.148,5.148,0,0,1,764.645,910.967Zm13.709,0a5.142,5.142,0,1,1,5.142-5.142A5.148,5.148,0,0,1,778.354,910.967Zm10.283-5.142h-1.714a8.5,8.5,0,0,0-.726-3.428h4.154v1.714A1.717,1.717,0,0,1,788.638,905.826Zm18.851-8.568h-6.855V893.83h6.855Zm6.854-1.714a1.717,1.717,0,0,1-1.714,1.714h-1.714V890.4H797.205v6.855h-1.714a1.718,1.718,0,0,1-1.714-1.714V878.407a1.717,1.717,0,0,1,1.714-1.714h1.714v6.854h13.709v-6.854h1.714a1.716,1.716,0,0,1,1.714,1.714Zm-3.428-22.279h-3.426V842.417H776.641V832.136h-41.13v37.7h3.428v5.142h-6.854V828.708h78.83Z" transform="translate(-711.52 -808.143)" fill="#fff"/>
  <path id="Trazado_655336" data-name="Trazado 655336" d="M737.592,847.774v22.279h23.993V847.774Zm20.565,18.851H741.02V851.2h17.137Z" transform="translate(-694.75 -782.652)" fill="#fff"/>
  <path id="Trazado_655337" data-name="Trazado 655337" d="M726.12,814.4H798.1v3.428H726.12Z" transform="translate(-702.129 -804.118)" fill="#fff"/>
</svg>
