<svg id="Grupo_1009623" data-name="Grupo 1009623" xmlns="http://www.w3.org/2000/svg" width="107.003" height="107.002" viewBox="0 0 107.003 107.002">
  <g id="Grupo_979817" data-name="Grupo 979817">
    <path id="Trazado_655382" data-name="Trazado 655382" d="M432.907,788.269a5.016,5.016,0,1,0,5.016,5.016A5.021,5.021,0,0,0,432.907,788.269Zm0,6.687a1.672,1.672,0,1,1,1.673-1.671A1.672,1.672,0,0,1,432.907,794.956Z" transform="translate(-394.454 -697.986)" fill="#fff"/>
    <path id="Trazado_655383" data-name="Trazado 655383" d="M466.721,793.118a5.017,5.017,0,1,0,0,.333A1.642,1.642,0,0,0,466.721,793.118Zm-5.011,1.838a1.672,1.672,0,1,1,1.671-1.671A1.673,1.673,0,0,1,461.71,794.956Z" transform="translate(-376.441 -697.986)" fill="#fff"/>
    <path id="Trazado_655384" data-name="Trazado 655384" d="M509.02,816.32c.411-1.159.288,1.027.288-31.767a5.022,5.022,0,0,0-5.016-5.016H492.3c.41-1.159.288,1.027.288-31.767a5.022,5.022,0,0,0-5.016-5.014H460.822a5.021,5.021,0,0,0-5.016,5.014c0,32.8-.122,30.611.288,31.767H444.1a5.021,5.021,0,0,0-5.016,5.016c0,32.8-.122,30.61.288,31.767h-5.3V742.756a10.043,10.043,0,0,0-10.032-10.032h-11.7a5.016,5.016,0,0,0,0,10.032h10.45a1.255,1.255,0,0,1,1.253,1.253V824.68a5.022,5.022,0,0,0,5.016,5.014h5.138a11.7,11.7,0,0,0,23.164,0h23.65a11.7,11.7,0,0,0,23.164,0h5.138a5.022,5.022,0,0,0,5.016-5.014v-3.345A5.03,5.03,0,0,0,509.02,816.32Zm-3.057-31.767v30.094a1.674,1.674,0,0,1-1.671,1.673H477.541a1.675,1.675,0,0,1-1.673-1.673V784.553a1.675,1.675,0,0,1,1.673-1.673h6.687v8.36a1.673,1.673,0,0,0,1.673,1.673h10.032a1.672,1.672,0,0,0,1.671-1.673v-8.36h6.689A1.674,1.674,0,0,1,505.963,784.553Zm-24.957,41.8h-23.65a11.684,11.684,0,0,0-3.4-6.687h30.454A11.685,11.685,0,0,0,481.006,826.351Zm13.254-36.781h-6.687v-6.689h6.687ZM477.541,746.1v6.687h-6.687V746.1Zm-18.391,31.765V747.77a1.674,1.674,0,0,1,1.673-1.671h6.687v8.359a1.672,1.672,0,0,0,1.673,1.671h10.032a1.67,1.67,0,0,0,1.671-1.671V746.1h6.689a1.672,1.672,0,0,1,1.671,1.671v30.094a1.673,1.673,0,0,1-1.671,1.673H460.822A1.674,1.674,0,0,1,459.149,777.865Zm1.673,5.016v6.689h-6.689v-6.689ZM442.43,814.648V784.553a1.675,1.675,0,0,1,1.673-1.673h6.687v8.36a1.673,1.673,0,0,0,1.673,1.673h10.032a1.672,1.672,0,0,0,1.671-1.673v-8.36h6.689a1.674,1.674,0,0,1,1.671,1.673v30.094a1.674,1.674,0,0,1-1.671,1.673H444.1A1.675,1.675,0,0,1,442.43,814.648Zm-15.046-60.189h3.344V816.32h-3.344Zm-4.6-15.048h-10.45a1.672,1.672,0,1,1,0-3.343h11.7a6.7,6.7,0,0,1,6.689,6.689v8.359h-3.344v-7.106A4.6,4.6,0,0,0,422.786,739.411Zm4.6,85.269v-5.016h10.211a11.684,11.684,0,0,0-3.4,6.687h-5.138A1.673,1.673,0,0,1,427.384,824.68Zm18.39,11.7a8.36,8.36,0,1,1,8.359-8.36A8.369,8.369,0,0,1,445.774,836.383Zm46.815,0a8.36,8.36,0,1,1,8.36-8.36A8.37,8.37,0,0,1,492.589,836.383Zm18.39-11.7a1.673,1.673,0,0,1-1.671,1.671H504.17a11.684,11.684,0,0,0-3.4-6.687h8.54a1.673,1.673,0,0,1,1.671,1.671Z" transform="translate(-407.32 -732.724)" fill="#fff"/>
    <path id="Trazado_655385" data-name="Trazado 655385" d="M442.936,783.383h3.343a1.672,1.672,0,1,0,0-3.343h-3.343a1.672,1.672,0,0,0,0,3.343Z" transform="translate(-386.091 -703.132)" fill="#fff"/>
    <path id="Trazado_655386" data-name="Trazado 655386" d="M463.508,780.04a1.672,1.672,0,0,0,0,3.343h3.345a1.672,1.672,0,0,0,0-3.343Z" transform="translate(-373.225 -703.132)" fill="#fff"/>
    <path id="Trazado_655387" data-name="Trazado 655387" d="M453.222,760.755h3.343a1.672,1.672,0,1,0,0-3.344h-3.343a1.672,1.672,0,0,0,0,3.344Z" transform="translate(-379.658 -717.285)" fill="#fff"/>
  </g>
</svg>
