<svg id="Grupo_1009629" data-name="Grupo 1009629" xmlns="http://www.w3.org/2000/svg" width="110.432" height="110.43" viewBox="0 0 110.432 110.43">
  <g id="Grupo_979807" data-name="Grupo 979807" transform="translate(47.854 92.026)">
    <g id="Grupo_979806" data-name="Grupo 979806">
      <path id="Trazado_655359" data-name="Trazado 655359" d="M328.785,494a9.2,9.2,0,1,0,9.2,9.2A9.2,9.2,0,0,0,328.785,494Zm0,14.724a5.521,5.521,0,1,1,5.521-5.521A5.522,5.522,0,0,1,328.785,508.721Z" transform="translate(-319.583 -493.997)" fill="#fff"/>
    </g>
  </g>
  <g id="Grupo_979809" data-name="Grupo 979809" transform="translate(84.665 92.026)">
    <g id="Grupo_979808" data-name="Grupo 979808">
      <path id="Trazado_655360" data-name="Trazado 655360" d="M350.286,494a9.2,9.2,0,1,0,9.2,9.2A9.2,9.2,0,0,0,350.286,494Zm0,14.724a5.521,5.521,0,1,1,5.521-5.521A5.521,5.521,0,0,1,350.286,508.721Z" transform="translate(-341.084 -493.997)" fill="#fff"/>
    </g>
  </g>
  <g id="Grupo_979811" data-name="Grupo 979811">
    <g id="Grupo_979810" data-name="Grupo 979810">
      <path id="Trazado_655361" data-name="Trazado 655361" d="M400.224,443.927H377.754a42,42,0,0,0-38.268,24.8V442.086a1.84,1.84,0,0,0-1.841-1.84h-7.362a1.84,1.84,0,0,0-1.841,1.84v1.84H300.836a1.84,1.84,0,0,0-1.84,1.841V495.46h-5.523a1.842,1.842,0,0,0-1.84,1.841v7.362a1.841,1.841,0,0,0,1.84,1.84h34.971v27.609a1.841,1.841,0,0,0,1.841,1.84h7.362a1.841,1.841,0,0,0,1.841-1.84v-1.594a12.815,12.815,0,0,1,20.35,2.513,1.838,1.838,0,0,0,1.591.921H372.76a1.841,1.841,0,0,0,1.592-.921,12.86,12.86,0,0,1,22.291,0,1.841,1.841,0,0,0,1.592.921h1.988a1.841,1.841,0,0,0,1.84-1.84V445.767A1.84,1.84,0,0,0,400.224,443.927Zm-86.5,3.681H317.4v8.064l-1.019-.507a1.835,1.835,0,0,0-1.647,0l-1.015.507Zm14.724,55.214h-33.13v-3.681h33.13Zm0-7.362H302.677V473.375h7.362v11.043a1.838,1.838,0,0,0,2.662,1.647l2.859-1.43,2.857,1.428a1.842,1.842,0,0,0,2.664-1.645V473.375h7.362Zm-14.724-14.02v-8.066H317.4v8.066l-1.019-.508a1.835,1.835,0,0,0-1.647,0Zm14.724-11.746H302.677V447.608h7.362v11.043A1.841,1.841,0,0,0,312.7,460.3l2.859-1.43,2.857,1.428a1.842,1.842,0,0,0,2.664-1.645V447.608h7.362Zm11.043,16.182a38.31,38.31,0,0,1,38.268-38.268h13.267v43.879a18.32,18.32,0,0,0-12.883-.7v-3.609a10.125,10.125,0,0,0-4.647-8.5,11.042,11.042,0,1,0-11.81.63,10.164,10.164,0,0,0-1.457,1.428h-2.334a5.518,5.518,0,0,0-4.968,3.154l-9.175-3.06-1.166,3.5,3.744,1.248-6.84,19.384Zm25.767-1.459a1.841,1.841,0,0,1,0,3.681h-7.362a1.841,1.841,0,0,1,0-3.681Zm-5.521-14.724a7.363,7.363,0,1,1,7.362,7.362A7.363,7.363,0,0,1,359.731,469.694Zm-1.84,22.086v9.2a11.058,11.058,0,0,0-11.043,11.045v1.841h-6.6l9.57-27.129,2.746.919A5.521,5.521,0,0,0,357.891,491.779Zm-7.362,20.247a7.363,7.363,0,0,1,7.362-7.364h7.73a18.589,18.589,0,0,0-.368,3.681v5.523H350.529Zm11.043-11.045v-9.2h3.681a5.512,5.512,0,0,0,1.323-10.858,6.381,6.381,0,0,1,7.7,4.7,6.5,6.5,0,0,1,.178,1.555v5.251a18.5,18.5,0,0,0-7.656,8.552Zm36.811,30.1a16.533,16.533,0,0,0-26.642,1.188h-9.295a16.495,16.495,0,0,0-26.186-1.685,1.839,1.839,0,0,0-.455,1.214v.471h-3.681V443.927h3.681v71.78a1.841,1.841,0,0,0,1.84,1.84h60.738v13.536Zm0-17.217H368.934v-5.523a14.725,14.725,0,0,1,29.449,0Zm0-16.518a18.533,18.533,0,0,0-3.681-3.693V447.608h3.681Z" transform="translate(-291.632 -440.246)" fill="#fff"/>
    </g>
  </g>
</svg>
