<svg xmlns="http://www.w3.org/2000/svg" width="105" height="104.465" viewBox="0 0 105 104.465">
  <g id="Grupo_1009746" data-name="Grupo 1009746" transform="translate(-180 -8747.318)">
    <path id="Trazado_663297" data-name="Trazado 663297" d="M0,0H105V104.465H0Z" transform="translate(180 8747.318)" fill="#f0bd51"/>
    <g id="produccion-en-masa" transform="translate(185.897 8742.459)">
      <g id="Grupo_987743" data-name="Grupo 987743" transform="translate(16.711 20.541)">
        <path id="Trazado_663771" data-name="Trazado 663771" d="M102.484,55.915V72.783H42.7V55.915h9.966V39.048h9.963V22.18H82.555V39.048h9.963V55.915Z" transform="translate(-42.7 -22.18)" fill="#efbf27"/>
      </g>
      <g id="Grupo_987754" data-name="Grupo 987754" transform="translate(3.922 71.142)">
        <g id="Grupo_987744" data-name="Grupo 987744" transform="translate(0 0)">
          <path id="Trazado_663772" data-name="Trazado 663772" d="M79.758,191.452H16.732a11.168,11.168,0,1,1,0-22.336H79.758a11.168,11.168,0,1,1,0,22.336Z" transform="translate(-5.564 -169.116)" fill="#aeaeae"/>
        </g>
        <g id="Grupo_987745" data-name="Grupo 987745" transform="translate(5.185 5.185)">
          <path id="Trazado_663773" data-name="Trazado 663773" d="M26.6,196.137a5.983,5.983,0,1,1,0-11.966H89.628a5.983,5.983,0,1,1,0,11.966Z" transform="translate(-20.619 -184.171)" fill="#4a4842"/>
        </g>
        <g id="Grupo_987746" data-name="Grupo 987746" transform="translate(68.21 5.185)">
          <circle id="Elipse_7807" data-name="Elipse 7807" cx="5.983" cy="5.983" r="5.983" fill="#efefef"/>
        </g>
        <g id="Grupo_987747" data-name="Grupo 987747" transform="translate(71.914 8.888)">
          <circle id="Elipse_7808" data-name="Elipse 7808" cx="2.28" cy="2.28" r="2.28" fill="#f0c020"/>
        </g>
        <g id="Grupo_987748" data-name="Grupo 987748" transform="translate(47.202 5.185)">
          <circle id="Elipse_7809" data-name="Elipse 7809" cx="5.983" cy="5.983" r="5.983" fill="#efefef"/>
        </g>
        <g id="Grupo_987749" data-name="Grupo 987749" transform="translate(50.905 8.888)">
          <circle id="Elipse_7810" data-name="Elipse 7810" cx="2.28" cy="2.28" r="2.28" fill="#f0c020"/>
        </g>
        <g id="Grupo_987750" data-name="Grupo 987750" transform="translate(26.193 5.185)">
          <circle id="Elipse_7811" data-name="Elipse 7811" cx="5.983" cy="5.983" r="5.983" fill="#efefef"/>
        </g>
        <g id="Grupo_987751" data-name="Grupo 987751" transform="translate(29.897 8.888)">
          <circle id="Elipse_7812" data-name="Elipse 7812" cx="2.28" cy="2.28" r="2.28" fill="#f0c020"/>
        </g>
        <g id="Grupo_987752" data-name="Grupo 987752" transform="translate(5.185 5.185)">
          <circle id="Elipse_7813" data-name="Elipse 7813" cx="5.983" cy="5.983" r="5.983" fill="#efefef"/>
        </g>
        <g id="Grupo_987753" data-name="Grupo 987753" transform="translate(8.888 8.888)">
          <circle id="Elipse_7814" data-name="Elipse 7814" cx="2.28" cy="2.28" r="2.28" fill="#f0c020"/>
        </g>
      </g>
      <g id="Grupo_987755" data-name="Grupo 987755" transform="translate(23.64 54.275)">
        <path id="Trazado_663774" data-name="Trazado 663774" d="M68.1,127.549l-1.61-1.433a.689.689,0,0,0-.916,0l-1.61,1.433a.689.689,0,0,1-1.147-.515v-6.9h6.428v6.9A.688.688,0,0,1,68.1,127.549Z" transform="translate(-62.819 -120.136)" fill="#fb5c3c"/>
      </g>
      <g id="Grupo_987756" data-name="Grupo 987756" transform="translate(43.566 54.275)">
        <path id="Trazado_663775" data-name="Trazado 663775" d="M125.964,127.549l-1.61-1.433a.689.689,0,0,0-.916,0l-1.61,1.433a.689.689,0,0,1-1.147-.515v-6.9h6.428v6.9A.688.688,0,0,1,125.964,127.549Z" transform="translate(-120.682 -120.136)" fill="#fb5c3c"/>
      </g>
      <g id="Grupo_987757" data-name="Grupo 987757" transform="translate(20.212 66.684)">
        <path id="Trazado_663776" data-name="Trazado 663776" d="M104.787,157.893h-1.033a.861.861,0,1,1,0-1.722h1.033a.861.861,0,1,1,0,1.722Zm-4.477,0H53.728a.861.861,0,1,1,0-1.722H100.31a.861.861,0,1,1,0,1.722Z" transform="translate(-52.867 -156.171)" fill="#f7e4b0"/>
      </g>
      <g id="Grupo_987758" data-name="Grupo 987758" transform="translate(29.843 50.091)">
        <path id="Trazado_663777" data-name="Trazado 663777" d="M113.492,109.708h-1.033a.861.861,0,1,1,0-1.722h1.033a.861.861,0,0,1,0,1.722Zm-4.477,0H81.694a.861.861,0,1,1,0-1.722h27.321a.861.861,0,1,1,0,1.722Z" transform="translate(-80.833 -107.986)" fill="#f7e4b0"/>
      </g>
      <g id="Grupo_987759" data-name="Grupo 987759" transform="translate(38.815 33.049)">
        <path id="Trazado_663778" data-name="Trazado 663778" d="M121.6,60.222h-1.033a.861.861,0,1,1,0-1.722H121.6a.861.861,0,1,1,0,1.722Zm-4.477,0h-9.377a.861.861,0,1,1,0-1.722h9.377a.861.861,0,1,1,0,1.722Z" transform="translate(-106.885 -58.5)" fill="#f7e4b0"/>
      </g>
      <g id="Grupo_987760" data-name="Grupo 987760" transform="translate(63.493 54.275)">
        <path id="Trazado_663779" data-name="Trazado 663779" d="M183.828,127.549l-1.61-1.433a.689.689,0,0,0-.916,0l-1.61,1.433a.689.689,0,0,1-1.147-.515v-6.9h6.428v6.9a.689.689,0,0,1-1.146.515Z" transform="translate(-178.546 -120.136)" fill="#fb5c3c"/>
      </g>
      <g id="Grupo_987761" data-name="Grupo 987761" transform="translate(33.603 37.407)">
        <path id="Trazado_663780" data-name="Trazado 663780" d="M97.032,78.57l-1.61-1.433a.689.689,0,0,0-.916,0L92.9,78.57a.689.689,0,0,1-1.147-.515v-6.9h6.428v6.9A.688.688,0,0,1,97.032,78.57Z" transform="translate(-91.75 -71.157)" fill="#fb5c3c"/>
      </g>
      <g id="Grupo_987762" data-name="Grupo 987762" transform="translate(53.53 37.407)">
        <path id="Trazado_663781" data-name="Trazado 663781" d="M154.9,78.57l-1.61-1.433a.689.689,0,0,0-.916,0l-1.61,1.433a.689.689,0,0,1-1.147-.515v-6.9h6.428v6.9A.688.688,0,0,1,154.9,78.57Z" transform="translate(-149.614 -71.157)" fill="#fb5c3c"/>
      </g>
      <g id="Grupo_987763" data-name="Grupo 987763" transform="translate(72.028 37.303)">
        <path id="Trazado_663782" data-name="Trazado 663782" d="M206.955,80.514c-.4-1.745-.672-2.9-3.038-3.68a.862.862,0,0,1,0-1.635c1.373-.454,2.365-.781,3.038-3.68a.862.862,0,0,1,1.677,0c.689,2.967,1.722,3.246,3.038,3.68a.862.862,0,0,1,0,1.635c-1.373.454-2.366.782-3.038,3.68A.861.861,0,0,1,206.955,80.514Z" transform="translate(-203.328 -70.855)"/>
      </g>
      <g id="Grupo_987764" data-name="Grupo 987764" transform="translate(74.94 40.73)">
        <path id="Trazado_663783" data-name="Trazado 663783" d="M214.847,82.548a4.568,4.568,0,0,0-1.488,1.684,4.781,4.781,0,0,0-1.574-1.67,4.577,4.577,0,0,0,1.557-1.756,4.67,4.67,0,0,0,1.5,1.743Z" transform="translate(-211.785 -80.805)" fill="#f0c020"/>
      </g>
      <g id="Grupo_987765" data-name="Grupo 987765" transform="translate(12.247 37.303)">
        <path id="Trazado_663784" data-name="Trazado 663784" d="M33.364,80.514c-.4-1.745-.672-2.9-3.038-3.68a.862.862,0,0,1,0-1.635c1.373-.454,2.365-.781,3.038-3.68a.862.862,0,0,1,1.677,0c.689,2.967,1.722,3.246,3.038,3.68a.862.862,0,0,1,0,1.635c-1.373.454-2.366.782-3.038,3.68A.861.861,0,0,1,33.364,80.514Z" transform="translate(-29.737 -70.855)"/>
      </g>
      <g id="Grupo_987766" data-name="Grupo 987766" transform="translate(15.16 40.73)">
        <path id="Trazado_663785" data-name="Trazado 663785" d="M41.257,82.548a4.569,4.569,0,0,0-1.488,1.684,4.781,4.781,0,0,0-1.574-1.67,4.577,4.577,0,0,0,1.557-1.756A4.67,4.67,0,0,0,41.257,82.548Z" transform="translate(-38.195 -80.805)" fill="#f0c020"/>
      </g>
      <g id="Grupo_987767" data-name="Grupo 987767" transform="translate(43.566 20.541)">
        <path id="Trazado_663786" data-name="Trazado 663786" d="M127.11,22.18v6.846a.689.689,0,0,1-1.147.513l-1.608-1.433a.693.693,0,0,0-.916,0l-1.612,1.433a.689.689,0,0,1-1.147-.513V22.18Z" transform="translate(-120.68 -22.18)" fill="#fb5c3c"/>
      </g>
      <g id="Grupo_987768" data-name="Grupo 987768" transform="translate(3.06 19.68)">
        <path id="Trazado_663787" data-name="Trazado 663787" d="M15.089,94.341H67.1a.861.861,0,0,0,0-1.722,0,0,0,0,0,0,0H15.089a10.305,10.305,0,1,1,0-20.611H78.117a10.305,10.305,0,1,1,0,20.611H73.984a.863.863,0,0,0,0,1.725h4.133a12.029,12.029,0,0,0,0-24.058h-.765V54.276a.858.858,0,0,0-.858-.861H67.39V37.409a.858.858,0,0,0-.861-.861h-9.1V20.541a.858.858,0,0,0-.861-.861H36.64a.859.859,0,0,0-.861.861V36.547h-9.1a.857.857,0,0,0-.861.861V42a.861.861,0,1,0,1.722,0v-3.73h5.2v6.037a1.549,1.549,0,0,0,2.58,1.157l1.5-1.331,1.495,1.331a1.55,1.55,0,0,0,2.58-1.157V38.268h5.029V53.414H27.538V48.887a.861.861,0,0,0-1.722-.007v4.534h-9.1a.857.857,0,0,0-.858.861V70.283h-.765a12.029,12.029,0,1,0,0,24.058ZM75.631,70.283h-18.2V64.952a.861.861,0,0,0-1.722,0v5.331H37.5V55.136h5.205v6.038a1.55,1.55,0,0,0,2.58,1.157L46.781,61l1.495,1.331a1.55,1.55,0,0,0,2.58-1.157V55.136H55.7v2.928a.861.861,0,0,0,1.722,0V55.136h5.206v6.038a1.55,1.55,0,0,0,2.58,1.157L66.708,61,68.2,62.331a1.55,1.55,0,0,0,2.58-1.157V55.137h4.847ZM69.061,55.137V60.79l-1.323-1.178a1.55,1.55,0,0,0-2.061,0L64.355,60.79V55.136h4.707ZM54.391,38.268H59.1v5.653l-1.322-1.177a1.549,1.549,0,0,0-2.061,0l-1.323,1.177ZM44.428,21.4h4.706V27l-1.323-1.177a1.549,1.549,0,0,0-2.061,0L44.428,27Zm-1.722,0v5.984a1.55,1.55,0,0,0,2.58,1.157l1.495-1.331,1.495,1.331a1.55,1.55,0,0,0,2.58-1.157V21.4H55.7V36.547H37.5V21.4Zm-3.535,22.52-1.323-1.177a1.55,1.55,0,0,0-2.061,0l-1.323,1.177V38.269h4.706Zm8.472-5.654H52.67v6.037a1.55,1.55,0,0,0,2.58,1.157l1.495-1.331,1.495,1.331a1.55,1.55,0,0,0,2.58-1.157V38.269h4.848V53.414H47.643Zm1.491,16.868V60.79l-1.323-1.177a1.549,1.549,0,0,0-2.061,0L44.428,60.79V55.136Zm-24.633,0h4.706V60.79l-1.323-1.178a1.55,1.55,0,0,0-2.06,0L24.5,60.79Zm-6.929,0h5.207v6.037a1.549,1.549,0,0,0,2.58,1.157L26.854,61l1.495,1.331a1.55,1.55,0,0,0,2.58-1.157V55.136h4.85V70.283H17.572Z" transform="translate(-3.06 -19.68)"/>
      </g>
      <g id="Grupo_987769" data-name="Grupo 987769" transform="translate(69.68 92.616)">
        <path id="Trazado_663788" data-name="Trazado 663788" d="M196.51,232.334a.861.861,0,1,0,.861-.864A.863.863,0,0,0,196.51,232.334Z" transform="translate(-196.51 -231.47)"/>
      </g>
      <g id="Grupo_987770" data-name="Grupo 987770" transform="translate(8.246 75.466)">
        <path id="Trazado_663789" data-name="Trazado 663789" d="M94.833,188.515a6.852,6.852,0,0,0-6.844-6.844H24.963a6.844,6.844,0,1,0,0,13.688H87.989a6.852,6.852,0,0,0,6.844-6.844Zm-1.722,0a5.122,5.122,0,1,1-5.122-5.122A5.128,5.128,0,0,1,93.111,188.515Zm-21.009,0a5.122,5.122,0,1,1-5.122-5.122A5.128,5.128,0,0,1,72.1,188.515Zm-21.009,0a5.122,5.122,0,1,1-5.122-5.122A5.128,5.128,0,0,1,51.094,188.515Zm-31.253,0a5.122,5.122,0,1,1,5.122,5.122A5.128,5.128,0,0,1,19.841,188.515Zm9.646,5.122a6.814,6.814,0,0,0,0-10.245H41.448a6.814,6.814,0,0,0,0,10.245Zm21.009,0a6.814,6.814,0,0,0,0-10.245H62.457a6.814,6.814,0,0,0,0,10.245Zm21.008,0a6.814,6.814,0,0,0,0-10.245H83.465a6.814,6.814,0,0,0,0,10.245Z" transform="translate(-18.119 -181.671)"/>
      </g>
      <g id="Grupo_987771" data-name="Grupo 987771" transform="translate(74.975 79.169)">
        <path id="Trazado_663790" data-name="Trazado 663790" d="M211.887,195.566a3.141,3.141,0,1,0,3.141-3.141A3.145,3.145,0,0,0,211.887,195.566Zm4.56,0a1.419,1.419,0,1,1-1.419-1.419A1.421,1.421,0,0,1,216.447,195.566Z" transform="translate(-211.887 -192.425)"/>
      </g>
      <g id="Grupo_987772" data-name="Grupo 987772" transform="translate(53.966 79.169)">
        <path id="Trazado_663791" data-name="Trazado 663791" d="M154.023,198.707a3.141,3.141,0,1,0-3.141-3.141A3.144,3.144,0,0,0,154.023,198.707Zm0-4.56a1.419,1.419,0,1,1-1.419,1.419A1.421,1.421,0,0,1,154.023,194.147Z" transform="translate(-150.882 -192.425)"/>
      </g>
      <g id="Grupo_987773" data-name="Grupo 987773" transform="translate(32.958 79.169)">
        <path id="Trazado_663792" data-name="Trazado 663792" d="M93.019,198.707a3.141,3.141,0,1,0-3.141-3.141A3.144,3.144,0,0,0,93.019,198.707Zm0-4.56a1.419,1.419,0,1,1-1.419,1.419A1.421,1.421,0,0,1,93.019,194.147Z" transform="translate(-89.878 -192.425)"/>
      </g>
      <g id="Grupo_987774" data-name="Grupo 987774" transform="translate(11.949 79.169)">
        <path id="Trazado_663793" data-name="Trazado 663793" d="M35.154,195.566a3.141,3.141,0,1,0-3.141,3.141A3.144,3.144,0,0,0,35.154,195.566Zm-4.56,0a1.419,1.419,0,1,1,1.419,1.419A1.421,1.421,0,0,1,30.595,195.566Z" transform="translate(-28.873 -192.425)"/>
      </g>
      <g id="Grupo_987775" data-name="Grupo 987775" transform="translate(25.816 44.582)">
        <circle id="Elipse_7815" data-name="Elipse 7815" cx="0.861" cy="0.861" r="0.861" transform="translate(0 0)"/>
      </g>
      <g id="Grupo_987776" data-name="Grupo 987776" transform="translate(55.705 60.647)">
        <circle id="Elipse_7816" data-name="Elipse 7816" cx="0.861" cy="0.861" r="0.861"/>
      </g>
    </g>
  </g>
</svg>
