<svg xmlns="http://www.w3.org/2000/svg" width="105" height="104.465" viewBox="0 0 105 104.465">
  <g id="Grupo_1009745" data-name="Grupo 1009745" transform="translate(-810 -8575.102)">
    <path id="Trazado_663298" data-name="Trazado 663298" d="M0,0H105V104.465H0Z" transform="translate(810 8575.102)" fill="#f0bd51"/>
    <g id="hora" transform="translate(809.759 8590.084)">
      <g id="Grupo_987642" data-name="Grupo 987642" transform="translate(17.873 1.189)">
        <path id="Trazado_663577" data-name="Trazado 663577" d="M234.407,52.386v6.377a25.744,25.744,0,0,1,6.489,0V52.386Z" transform="translate(-202.775 -45.922)" fill="#b5dcff"/>
        <path id="Trazado_663578" data-name="Trazado 663578" d="M237.651,52.386h-3.244v6.377a25.972,25.972,0,0,1,3.244-.205Z" transform="translate(-202.775 -45.922)" fill="#8bcaff"/>
        <path id="Trazado_663579" data-name="Trazado 663579" d="M349.583,86.517l3.223-5.151-3.972-2.421-3.267,5.224A29.92,29.92,0,0,1,349.583,86.517Z" transform="translate(-297.696 -68.6)" fill="#b5dcff"/>
        <path id="Trazado_663580" data-name="Trazado 663580" d="M350.865,80.184l-2.031-1.238-3.267,5.224q1.072.52,2.1,1.125Z" transform="translate(-297.696 -68.601)" fill="#8bcaff"/>
        <path id="Trazado_663581" data-name="Trazado 663581" d="M125.352,83.314l-3.267-5.37-3.972,2.421,3.223,5.3A29.939,29.939,0,0,1,125.352,83.314Z" transform="translate(-103.47 -67.746)" fill="#b5dcff"/>
        <path id="Trazado_663582" data-name="Trazado 663582" d="M120.119,86.157l-2,1.222,3.223,5.3q.967-.672,1.979-1.262Z" transform="translate(-103.471 -74.76)" fill="#8bcaff"/>
        <g id="Grupo_987637" data-name="Grupo 987637" transform="translate(4.714 12.277)">
          <path id="Trazado_663583" data-name="Trazado 663583" d="M80.3,152.508a30.163,30.163,0,1,1,21.328-8.835A29.965,29.965,0,0,1,80.3,152.508Z" transform="translate(-50.139 -92.182)" fill="#80b4fb"/>
        </g>
        <path id="Trazado_663584" data-name="Trazado 663584" d="M65.876,143.673a30.165,30.165,0,0,1,17.877-51.3,30.664,30.664,0,0,0-3.451-.2,30.163,30.163,0,0,0,0,60.326,30.659,30.659,0,0,0,3.451-.2A29.933,29.933,0,0,1,65.876,143.673Z" transform="translate(-45.425 -79.905)" fill="#61a2f9"/>
        <path id="Trazado_663585" data-name="Trazado 663585" d="M221.123,8.138h-9.709a2.048,2.048,0,0,0-2.048,2.048v2.971a2.048,2.048,0,0,0,2.048,2.048h9.709a2.048,2.048,0,0,0,2.048-2.048V10.186A2.048,2.048,0,0,0,221.123,8.138Z" transform="translate(-181.392 -8.138)" fill="#dbedff"/>
        <circle id="Elipse_7786" data-name="Elipse 7786" cx="24.659" cy="24.659" r="24.659" transform="translate(0 42.44) rotate(-45)" fill="#dbedff"/>
        <path id="Trazado_663586" data-name="Trazado 663586" d="M256.617,129.859v24.659h24.659A24.687,24.687,0,0,0,256.617,129.859Z" transform="translate(-221.74 -112.078)" fill="#dd636e"/>
        <path id="Trazado_663587" data-name="Trazado 663587" d="M94.718,154.518A24.7,24.7,0,0,1,115.926,130.1a24.659,24.659,0,1,0,0,48.832A24.7,24.7,0,0,1,94.718,154.518Z" transform="translate(-77.598 -112.078)" fill="#b5dcff"/>
        <path id="Trazado_663588" data-name="Trazado 663588" d="M366.449,44.045l-4.639-2.828a1.823,1.823,0,0,0-2.506.608l-1.377,2.258a1.823,1.823,0,0,0,.608,2.506l4.639,2.828a1.824,1.824,0,0,0,2.506-.608l1.377-2.258A1.823,1.823,0,0,0,366.449,44.045Z" transform="translate(-308.023 -36.157)" fill="#dbedff"/>
        <path id="Trazado_663589" data-name="Trazado 663589" d="M90.3,44.045l4.639-2.828a1.823,1.823,0,0,1,2.506.608l1.377,2.258a1.823,1.823,0,0,1-.608,2.506l-4.639,2.828a1.824,1.824,0,0,1-2.506-.608L89.69,46.552A1.823,1.823,0,0,1,90.3,44.045Z" transform="translate(-78.971 -36.157)" fill="#dbedff"/>
        <g id="Grupo_987638" data-name="Grupo 987638" transform="translate(10.452 0)">
          <path id="Trazado_663590" data-name="Trazado 663590" d="M213.557,13.157V10.186a2.048,2.048,0,0,1,2.048-2.048h-4.191a2.048,2.048,0,0,0-2.048,2.048v2.971a2.048,2.048,0,0,0,2.048,2.048h4.191A2.048,2.048,0,0,1,213.557,13.157Z" transform="translate(-191.844 -8.138)" fill="#b5dcff"/>
          <path id="Trazado_663591" data-name="Trazado 663591" d="M362.727,46.589a1.823,1.823,0,0,1-.608-2.506l1.19-1.952-1.5-.914a1.823,1.823,0,0,0-2.506.608l-1.377,2.258a1.824,1.824,0,0,0,.608,2.506l4.639,2.828a1.824,1.824,0,0,0,2.506-.608l.187-.306Z" transform="translate(-318.476 -36.157)" fill="#b5dcff"/>
          <path id="Trazado_663592" data-name="Trazado 663592" d="M93.881,46.552a1.824,1.824,0,0,1,.608-2.506l3.14-1.915-.187-.306a1.824,1.824,0,0,0-2.506-.608L90.3,44.046a1.824,1.824,0,0,0-.608,2.506l1.377,2.258a1.824,1.824,0,0,0,2.506.608l1.5-.914Z" transform="translate(-89.422 -36.157)" fill="#b5dcff"/>
        </g>
        <path id="Trazado_663593" data-name="Trazado 663593" d="M244.4,185.713a3.488,3.488,0,0,1,2.089.687V171.911a2.089,2.089,0,0,0-4.178,0V186.4A3.487,3.487,0,0,1,244.4,185.713Z" transform="translate(-209.528 -146.203)" fill="#477b9e"/>
        <g id="Grupo_987640" data-name="Grupo 987640" transform="translate(32.787 23.619)">
          <g id="Grupo_987639" data-name="Grupo 987639">
            <path id="Trazado_663594" data-name="Trazado 663594" d="M244.405,171.91a2.087,2.087,0,0,1,1.045-1.807,2.086,2.086,0,0,0-3.134,1.807V186.4a3.488,3.488,0,0,1,2.089-.687v-13.8Z" transform="translate(-242.316 -169.821)" fill="#3f6d8e"/>
          </g>
        </g>
        <path id="Trazado_663595" data-name="Trazado 663595" d="M211.419,307.476a3.489,3.489,0,0,1-1.466-1.64l-4.15,7.21a2.089,2.089,0,0,0,.742,2.851l.019.011.019.011a2.089,2.089,0,0,0,2.84-.783l4.15-7.21A3.488,3.488,0,0,1,211.419,307.476Z" transform="translate(-178.109 -262.347)" fill="#dd636e"/>
        <path id="Trazado_663596" data-name="Trazado 663596" d="M208.215,313.046l3.206-5.57h0a3.489,3.489,0,0,1-1.466-1.64l-4.15,7.21a2.089,2.089,0,0,0,.741,2.851l.019.011.019.011a2.071,2.071,0,0,0,2.228-.116A2.091,2.091,0,0,1,208.215,313.046Z" transform="translate(-178.11 -262.347)" fill="#da4a54"/>
        <g id="Grupo_987641" data-name="Grupo 987641" transform="translate(31.362 38.926)">
          <path id="Trazado_663597" data-name="Trazado 663597" d="M236.072,281.629a3.515,3.515,0,1,1,3.515-3.515A3.513,3.513,0,0,1,236.072,281.629Z" transform="translate(-232.557 -274.6)" fill="#477b9e"/>
        </g>
        <path id="Trazado_663598" data-name="Trazado 663598" d="M236.072,278.115a3.51,3.51,0,0,1,1.757-3.044,3.515,3.515,0,1,0,0,6.088A3.511,3.511,0,0,1,236.072,278.115Z" transform="translate(-201.195 -235.674)" fill="#3f6d8e"/>
      </g>
      <g id="Grupo_987643" data-name="Grupo 987643" transform="translate(21.455 0)">
        <path id="Trazado_663599" data-name="Trazado 663599" d="M105.825,121.721a25.755,25.755,0,1,0,25.755,25.755A25.784,25.784,0,0,0,105.825,121.721Zm-.994,9.023a.994.994,0,0,1,1.987,0v12.228a4.71,4.71,0,0,0-1.987,0Zm-5.238,25.538,3.118-5.4a4.666,4.666,0,0,0,.807.589h0a4.654,4.654,0,0,0,.913.4l-3.119,5.4a.993.993,0,0,1-1.354.376l-.024-.014h0a.991.991,0,0,1-.342-1.356Zm3.813-8.806a2.422,2.422,0,0,1,2.419-2.419h0a2.419,2.419,0,1,1-2.42,2.419Zm23.348,10.818-1.56-.9a1.1,1.1,0,1,0-1.1,1.9l1.558.9a23.753,23.753,0,0,1-7.116,7.116l-.9-1.557a1.1,1.1,0,0,0-1.9,1.1l.9,1.56a23.4,23.4,0,0,1-9.722,2.608v-1.8a1.1,1.1,0,1,0-2.191,0v1.8a23.4,23.4,0,0,1-9.722-2.608l.9-1.56a1.1,1.1,0,0,0-1.9-1.1l-.9,1.557a23.751,23.751,0,0,1-7.116-7.116l1.557-.9a1.1,1.1,0,0,0-1.1-1.9l-1.56.9a23.4,23.4,0,0,1-2.608-9.722h1.8a1.1,1.1,0,1,0,0-2.191h-1.8a23.4,23.4,0,0,1,2.608-9.722l1.56.9a1.1,1.1,0,1,0,1.1-1.9l-1.557-.9a23.753,23.753,0,0,1,7.116-7.116l.9,1.558a1.1,1.1,0,1,0,1.9-1.1l-.9-1.56a23.4,23.4,0,0,1,9.722-2.608v3.815a3.19,3.19,0,0,0-2.089,2.991v13.4a4.6,4.6,0,0,0-1.24,4.622l-3.705,6.418a3.185,3.185,0,1,0,5.516,3.185l3.7-6.417a4.625,4.625,0,0,0,3.387-3.383h19.059A23.393,23.393,0,0,1,126.753,158.294Zm-1.1-23.532-1.556.9a1.1,1.1,0,1,0,1.1,1.9l1.56-.9a23.345,23.345,0,0,1,2.609,9.722H110.3a4.655,4.655,0,0,0-1.293-2.237v-13.4a3.2,3.2,0,0,0-2.089-2.991c0-3.735,0-.475,0-3.815a23.379,23.379,0,0,1,9.722,2.609l-.9,1.56a1.1,1.1,0,1,0,1.9,1.1l.9-1.556A23.7,23.7,0,0,1,125.654,134.762Z" transform="translate(-74.566 -103.94)"/>
        <path id="Trazado_663600" data-name="Trazado 663600" d="M103.8,42.071a1.1,1.1,0,0,0,1-1.183A31.281,31.281,0,0,0,92.273,18.422L94,15.585a2.914,2.914,0,0,0,3.365-1.266l1.377-2.258a2.922,2.922,0,0,0-.973-4.012L93.133,5.221a2.917,2.917,0,0,0-4.012.973L87.744,8.452a2.922,2.922,0,0,0,.418,3.569l-1.794,2.943a30.967,30.967,0,0,0-8.376-2.386V9.258h.514A3.147,3.147,0,0,0,81.65,6.114V3.144A3.147,3.147,0,0,0,78.506,0h-2.3a1.1,1.1,0,0,0,0,2.191h2.3a.954.954,0,0,1,.952.952V6.114a.954.954,0,0,1-.952.953H68.8a.954.954,0,0,1-.952-.953V3.144a.954.954,0,0,1,.952-.952h2.3a1.1,1.1,0,1,0,0-2.191H68.8a3.147,3.147,0,0,0-3.144,3.144V6.114A3.147,3.147,0,0,0,68.8,9.258h.514v3.319a30.971,30.971,0,0,0-8.376,2.386L59.142,12.02a2.922,2.922,0,0,0,.418-3.569L58.182,6.193a2.917,2.917,0,0,0-4.012-.973L49.531,8.049a2.922,2.922,0,0,0-.973,4.012l1.377,2.258A2.914,2.914,0,0,0,53.3,15.585l1.73,2.837A31.261,31.261,0,1,0,104.8,46.184,1.1,1.1,0,0,0,102.614,46a29.067,29.067,0,1,1,0-4.931,1.093,1.093,0,0,0,1.183,1Zm-50.99-28.65a.728.728,0,0,1-1-.243L50.43,10.92a.729.729,0,0,1,.243-1l4.639-2.828a.727.727,0,0,1,1,.242l1.377,2.258a.728.728,0,0,1-.243,1l-4.639,2.828Zm4.029,3.753-1.62-2.656,2.1-1.281,1.641,2.692q-1.084.578-2.122,1.245ZM75.8,12.351a31.671,31.671,0,0,0-4.3,0V9.258h4.3ZM89.615,9.592l1.377-2.258a.727.727,0,0,1,1-.242L96.631,9.92a.727.727,0,0,1,.243,1L95.5,13.178a.727.727,0,0,1-1,.243l-4.639-2.828a.729.729,0,0,1-.243-1Zm.852,7.582q-1.039-.665-2.122-1.245l1.641-2.692.012.007,2.089,1.274Z" transform="translate(-42.393 0)"/>
      </g>
    </g>
  </g>
</svg>
