<svg id="Grupo_1009620" data-name="Grupo 1009620" xmlns="http://www.w3.org/2000/svg" width="95.469" height="106.252" viewBox="0 0 95.469 106.252">
  <g id="Grupo_979799" data-name="Grupo 979799">
    <path id="Trazado_655325" data-name="Trazado 655325" d="M863.158,783.315a1.562,1.562,0,1,1,1.56-1.562A1.563,1.563,0,0,1,863.158,783.315Z" transform="translate(-855.049 -702.935)" fill="#fff"/>
    <g id="Grupo_979798" data-name="Grupo 979798">
      <path id="Trazado_655326" data-name="Trazado 655326" d="M884.015,784.357h6.469a1.561,1.561,0,0,0,1.56-1.562v-12.46H895.5c1.529.01,2.469-1.378,1.1-2.666l-8.256-8.256a1.561,1.561,0,0,0-2.209,0l-8.256,8.256c-.819,1.381-.423,2.37,1.1,2.666h3.461V782.8A1.562,1.562,0,0,0,884.015,784.357Zm3.234-21.631,4.487,4.485h-1.252a1.562,1.562,0,0,0-1.562,1.562v12.46h-3.345v-12.46a1.563,1.563,0,0,0-1.562-1.562h-1.252Z" transform="translate(-844.6 -716.913)" fill="#fff"/>
      <path id="Trazado_655327" data-name="Trazado 655327" d="M911.152,768.446H898.214a1.561,1.561,0,0,0-1.56,1.562v6.611a1.561,1.561,0,0,0,1.56,1.562h12.938a1.561,1.561,0,0,0,1.561-1.562v-6.611A1.561,1.561,0,0,0,911.152,768.446Zm-1.562,6.611h-9.814V771.57h9.814Z" transform="translate(-831.973 -710.666)" fill="#fff"/>
      <path id="Trazado_655328" data-name="Trazado 655328" d="M911.152,764.589H898.214a1.562,1.562,0,0,0,0,3.124h12.938a1.562,1.562,0,0,0,0-3.124Z" transform="translate(-831.973 -713.204)" fill="#fff"/>
      <path id="Trazado_655329" data-name="Trazado 655329" d="M952.425,802.591a5.832,5.832,0,0,0-7.615-2.2V776.109a1.561,1.561,0,1,0-3.123,0v26.076l-15.02,8.672h-2.477a5.724,5.724,0,0,0-5.066-3.074h-9.531c-3.847-1.645-8.014-3.224-12.244-3.224a34.252,34.252,0,0,0-10.744,1.65v-37.93a17.939,17.939,0,0,0,13.8-18.977h5.7V765a1.562,1.562,0,0,0,2.214,1.42l5.823-2.672,5.822,2.672a1.594,1.594,0,0,0,2.214-1.42V749.3h19.506v20a1.562,1.562,0,1,0,3.124,0V747.74a1.563,1.563,0,0,0-1.562-1.562H899.827a18.071,18.071,0,0,0-13.335-12.543,1.562,1.562,0,0,0-.653,3.054,14.608,14.608,0,1,1-6.154,0,1.562,1.562,0,1,0-.653-3.054,17.731,17.731,0,0,0,4.452,35.05v38.75a26.054,26.054,0,0,0-3.278,1.794v-3.277a1.562,1.562,0,0,0-1.562-1.562h-4.935v-1.673a1.563,1.563,0,0,0-1.562-1.562H859.21a1.563,1.563,0,0,0-1.562,1.562v35.574a1.563,1.563,0,0,0,1.562,1.562h19.433a1.563,1.563,0,0,0,1.562-1.562v-4.905h16.688a1.561,1.561,0,0,0,0-3.122H880.2V813.1c1.623-1.342,7.361-5.413,17.143-5.413,4.265,0,11.521,3.174,11.956,3.222h9.822c2.927,0,3.827,5.192.028,5.192H900.3a1.562,1.562,0,0,0,0,3.124h18.857a5.686,5.686,0,0,0,5.247-3.446L946.176,803.2c2.929-1.69,5.446,2.851,2.6,4.5-.063.036-26.507,20.7-26.507,20.7a8.825,8.825,0,0,1-5.417,1.867H903.7a1.561,1.561,0,1,0,0,3.122h13.148a11.972,11.972,0,0,0,7.343-2.529l26.246-20.514q4.042-3.082,1.988-7.752ZM919.059,762.57l-4.261-1.955a1.565,1.565,0,0,0-1.3,0l-4.262,1.955V749.3h9.825Zm-58.287,41.709h9.812v32.451h-9.812Zm12.936,32.451V807.513h3.373v29.218Z" transform="translate(-857.648 -733.601)" fill="#fff"/>
      <path id="Trazado_655330" data-name="Trazado 655330" d="M869.781,746.677A1.562,1.562,0,0,0,867.4,748.7l4.859,5.7a1.565,1.565,0,0,0,1.189.549h.027a1.565,1.565,0,0,0,1.2-.59l9.6-12.083a1.561,1.561,0,1,0-2.446-1.942l-8.42,10.6Z" transform="translate(-851.472 -729.554)" fill="#fff"/>
    </g>
  </g>
</svg>
