<svg xmlns="http://www.w3.org/2000/svg" width="272.377" height="271.297" viewBox="0 0 272.377 271.297">
  <g id="Grupo_989412" data-name="Grupo 989412" transform="translate(-811.312 -4979.217)">
    <g id="Grupo_989382" data-name="Grupo 989382" transform="translate(811.312 4987.887)">
      <path id="Trazado_666400" data-name="Trazado 666400" d="M1067.929,5207.5c13.491-18.958,17.4-45.241,15.172-67.553-1.105-11.053-3.262-22.635-9.789-31.894-9.505-13.484-25.2-20.59-37.161-31.488-17.6-16.037-25.056-39.447-40.034-57.5-19.547-23.557-50.329-26.531-79.163-25.141-21.636,1.044-56.466,1.471-61.562,28.646-5.282,28.17,4.695,54.58-16.433,68.077s-32.278,41.668-25.823,65.729c5.444,20.3,31.548,23.889,36.973,44.6,6.456,24.649,44.016,57.514,80.4,55.167s57.511-26.406,72.77-25.236c17.683,1.356,36.517,1.306,51.382-9.75A60.908,60.908,0,0,0,1067.929,5207.5Z" transform="translate(-811.312 -4993.639)" fill="#5ae4a7"/>
      <path id="Trazado_666401" data-name="Trazado 666401" d="M1067.929,5207.5c13.491-18.958,17.4-45.241,15.172-67.553-1.105-11.053-3.262-22.635-9.789-31.894-9.505-13.484-25.2-20.59-37.161-31.488-17.6-16.037-25.056-39.447-40.034-57.5-19.547-23.557-50.329-26.531-79.163-25.141-21.636,1.044-56.466,1.471-61.562,28.646-5.282,28.17,4.695,54.58-16.433,68.077s-32.278,41.668-25.823,65.729c5.444,20.3,31.548,23.889,36.973,44.6,6.456,24.649,44.016,57.514,80.4,55.167s57.511-26.406,72.77-25.236c17.683,1.356,36.517,1.306,51.382-9.75A60.908,60.908,0,0,0,1067.929,5207.5Z" transform="translate(-811.312 -4993.639)" fill="#bddccc" opacity="0.7"/>
    </g>
    <g id="Grupo_989395" data-name="Grupo 989395" transform="translate(972.263 5032.902)">
      <g id="Grupo_989388" data-name="Grupo 989388" transform="translate(0 0)">
        <path id="Trazado_666402" data-name="Trazado 666402" d="M1193.6,5088.03s-11.2-6.223-12.031,7.882-2.9,105.79-2.9,105.79" transform="translate(-1124.025 -5077.084)" fill="none" stroke="#1a2e35" stroke-linecap="round" stroke-linejoin="round" stroke-width="2"/>
        <path id="Trazado_666403" data-name="Trazado 666403" d="M1173.7,5104.541s9.136,20.33,4.988,103.3" transform="translate(-1121.973 -5084.47)" fill="none" stroke="#1a2e35" stroke-linecap="round" stroke-linejoin="round" stroke-width="2"/>
        <g id="Grupo_989383" data-name="Grupo 989383" transform="translate(28.01 1.193)">
          <path id="Trazado_666404" data-name="Trazado 666404" d="M1165.982,5084.966s-4.285,2.746-6.723-.4,1.649-8.9-1.954-11.359-9.821,1.295-9.821,1.295,4.79,1.407,4.635,4.021-2.461,3.6-2.769,2.46-2.591-6.9-6.48-4.505a9.635,9.635,0,0,0-4.483,6.107s9.052-.965,9.6,2.441-3.713-.594-7.447-.815-7.141.329-6.9,2.592a29.5,29.5,0,0,1-.352,5.976,11.118,11.118,0,0,1,7.272-2.569c4.108.243,3.954,2.857.219,2.637s-6.943,3.339-6.943,3.339,3.4,5.822,7.731,8.7,5.888,1.847,6.393-.372-.658-7.91,1.957-7.755-4.329,9.864-.99,10.435,6.02-.395,6.9-2.591l.879-2.2s-1.163-5.69-.658-7.909,1.12.065,1.713,2.724.965,9.052,2.108,8.745,4.79-4.964,5.647-6.788-4.811-7.4-4.744-8.525,4.438,1.011,5.119,2.176a29.068,29.068,0,0,1,1.34,2.7s2.724-1.713,2.659-6.964S1165.982,5084.966,1165.982,5084.966Z" transform="translate(-1133.289 -5072.374)" fill="#5ae4a7"/>
          <path id="Trazado_666405" data-name="Trazado 666405" d="M1165.982,5084.966s-4.285,2.746-6.723-.4,1.649-8.9-1.954-11.359-9.821,1.295-9.821,1.295,4.79,1.407,4.635,4.021-2.461,3.6-2.769,2.46-2.591-6.9-6.48-4.505a9.635,9.635,0,0,0-4.483,6.107s9.052-.965,9.6,2.441-3.713-.594-7.447-.815-7.141.329-6.9,2.592a29.5,29.5,0,0,1-.352,5.976,11.118,11.118,0,0,1,7.272-2.569c4.108.243,3.954,2.857.219,2.637s-6.943,3.339-6.943,3.339,3.4,5.822,7.731,8.7,5.888,1.847,6.393-.372-.658-7.91,1.957-7.755-4.329,9.864-.99,10.435,6.02-.395,6.9-2.591l.879-2.2s-1.163-5.69-.658-7.909,1.12.065,1.713,2.724.965,9.052,2.108,8.745,4.79-4.964,5.647-6.788-4.811-7.4-4.744-8.525,4.438,1.011,5.119,2.176a29.068,29.068,0,0,1,1.34,2.7s2.724-1.713,2.659-6.964S1165.982,5084.966,1165.982,5084.966Z" transform="translate(-1133.289 -5072.374)" fill="#1a2e35" opacity="0.3"/>
          <path id="Trazado_666406" data-name="Trazado 666406" d="M1151.983,5107.518c2.794-3.455,6.912-8.129,10.363-10.359" transform="translate(-1141.012 -5082.613)" fill="none" stroke="#1a2e35" stroke-linecap="round" stroke-linejoin="round" stroke-width="1"/>
          <path id="Trazado_666407" data-name="Trazado 666407" d="M1146.463,5120.22s.718-1,1.88-2.493" transform="translate(-1138.732 -5091.11)" fill="none" stroke="#1a2e35" stroke-linecap="round" stroke-linejoin="round" stroke-width="1"/>
          <path id="Trazado_666408" data-name="Trazado 666408" d="M1172.747,5098.618s4.152,5.867,4.919,11.909" transform="translate(-1149.59 -5083.216)" fill="none" stroke="#1a2e35" stroke-linecap="round" stroke-linejoin="round" stroke-width="1"/>
          <path id="Trazado_666409" data-name="Trazado 666409" d="M1164.735,5104.521s1.164-.681.724,6.789" transform="translate(-1146.28 -5085.648)" fill="none" stroke="#1a2e35" stroke-linecap="round" stroke-linejoin="round" stroke-width="1"/>
          <path id="Trazado_666410" data-name="Trazado 666410" d="M1169.9,5088.265s2.373-2.108,1.122-6.306" transform="translate(-1148.415 -5076.334)" fill="none" stroke="#1a2e35" stroke-linecap="round" stroke-linejoin="round" stroke-width="1"/>
          <line id="Línea_835" data-name="Línea 835" x1="1.691" y1="3.098" transform="translate(16.589 12.391)" fill="none" stroke="#1a2e35" stroke-linecap="round" stroke-linejoin="round" stroke-width="1"/>
          <path id="Trazado_666411" data-name="Trazado 666411" d="M1152.216,5101.155s-5.382-4.065-8.743-4.264" transform="translate(-1137.496 -5082.502)" fill="none" stroke="#1a2e35" stroke-linecap="round" stroke-linejoin="round" stroke-width="1"/>
        </g>
        <g id="Grupo_989384" data-name="Grupo 989384" transform="translate(51.713)">
          <path id="Trazado_666412" data-name="Trazado 666412" d="M1197.938,5073.057s-.172,6.161-4.98,6.46-7.784-7.715-12.7-5.787-5.4,10.715-5.4,10.715,4.673-3.836,7.186-1.9,1.93,4.92.576,4.449-8.673-2.108-8.927,3.417a11.67,11.67,0,0,0,3.059,8.651s5.2-9.721,8.987-7.948-3.126,3.312-5.892,6.9-4.538,7.373-2.108,8.674a35.726,35.726,0,0,1,5.743,4.426,13.465,13.465,0,0,1,2.385-9.032c3.043-3.948,5.555-2.012,2.789,1.577s-1.39,9.227-1.39,9.227,8.15.56,13.982-1.81,5.862-4.636,3.985-6.655-8.367-4.732-6.431-7.245,6.925,11.059,9.773,8.1,3.708-6.3,2.108-8.673l-1.6-2.378s-6.49-2.714-8.367-4.732.83-1.077,3.9.142,9.72,5.2,10.192,3.85-1.705-8.18-2.947-10.281-10.692-.231-11.769-1.062,4.038-3.753,5.667-3.642a35.214,35.214,0,0,1,3.619.5s.142-3.9-5.16-7.409S1197.938,5073.057,1197.938,5073.057Z" transform="translate(-1173.677 -5070.342)" fill="#5ae4a7"/>
          <path id="Trazado_666413" data-name="Trazado 666413" d="M1197.938,5073.057s-.172,6.161-4.98,6.46-7.784-7.715-12.7-5.787-5.4,10.715-5.4,10.715,4.673-3.836,7.186-1.9,1.93,4.92.576,4.449-8.673-2.108-8.927,3.417a11.67,11.67,0,0,0,3.059,8.651s5.2-9.721,8.987-7.948-3.126,3.312-5.892,6.9-4.538,7.373-2.108,8.674a35.726,35.726,0,0,1,5.743,4.426,13.465,13.465,0,0,1,2.385-9.032c3.043-3.948,5.555-2.012,2.789,1.577s-1.39,9.227-1.39,9.227,8.15.56,13.982-1.81,5.862-4.636,3.985-6.655-8.367-4.732-6.431-7.245,6.925,11.059,9.773,8.1,3.708-6.3,2.108-8.673l-1.6-2.378s-6.49-2.714-8.367-4.732.83-1.077,3.9.142,9.72,5.2,10.192,3.85-1.705-8.18-2.947-10.281-10.692-.231-11.769-1.062,4.038-3.753,5.667-3.642a35.214,35.214,0,0,1,3.619.5s.142-3.9-5.16-7.409S1197.938,5073.057,1197.938,5073.057Z" transform="translate(-1173.677 -5070.342)" fill="#1a2e35" opacity="0.2"/>
          <path id="Trazado_666414" data-name="Trazado 666414" d="M1208.461,5114.052c-1.554-5.153-3.427-12.461-3.308-17.437" transform="translate(-1186.678 -5081.196)" fill="none" stroke="#1a2e35" stroke-linecap="round" stroke-linejoin="round" stroke-width="1"/>
          <path id="Trazado_666415" data-name="Trazado 666415" d="M1213.351,5134.213s-.51-1.4-1.214-3.581" transform="translate(-1189.565 -5095.249)" fill="none" stroke="#1a2e35" stroke-linecap="round" stroke-linejoin="round" stroke-width="1"/>
          <path id="Trazado_666416" data-name="Trazado 666416" d="M1208.737,5094.5s8.7-.157,15.276,3.192" transform="translate(-1188.161 -5080.321)" fill="none" stroke="#1a2e35" stroke-linecap="round" stroke-linejoin="round" stroke-width="1"/>
          <path id="Trazado_666417" data-name="Trazado 666417" d="M1209.2,5106.394s.112-1.629,7.29,3.9" transform="translate(-1188.35 -5085.143)" fill="none" stroke="#1a2e35" stroke-linecap="round" stroke-linejoin="round" stroke-width="1"/>
          <path id="Trazado_666418" data-name="Trazado 666418" d="M1196.97,5089.5s-.494-3.813-5.548-5.421" transform="translate(-1181.007 -5076.017)" fill="none" stroke="#1a2e35" stroke-linecap="round" stroke-linejoin="round" stroke-width="1"/>
          <line id="Línea_836" data-name="Línea 836" x1="4.254" y1="0.418" transform="translate(13.084 18.702)" fill="none" stroke="#1a2e35" stroke-linecap="round" stroke-linejoin="round" stroke-width="1"/>
          <path id="Trazado_666419" data-name="Trazado 666419" d="M1197.282,5112.668s-7.739,2.618-10.228,5.848" transform="translate(-1179.203 -5087.828)" fill="none" stroke="#1a2e35" stroke-linecap="round" stroke-linejoin="round" stroke-width="1"/>
        </g>
        <path id="Trazado_666420" data-name="Trazado 666420" d="M1127.061,5144.837s24.477,16.18,24.062,78.824" transform="translate(-1102.706 -5101.117)" fill="none" stroke="#1a2e35" stroke-linecap="round" stroke-linejoin="round" stroke-width="2"/>
        <g id="Grupo_989385" data-name="Grupo 989385" transform="translate(24.794 36.578)">
          <path id="Trazado_666421" data-name="Trazado 666421" d="M1157.549,5135.536s-.779,7.093-6.355,6.985-8.254-9.639-14.113-7.876-7.24,11.854-7.24,11.854,5.754-3.985,8.471-1.514,1.762,5.859.245,5.188-9.81-3.251-10.625,3.1a13.511,13.511,0,0,0,2.713,10.271s6.922-10.726,11.121-8.324-3.919,3.527-7.45,7.408-5.933,8.079-3.251,9.81a41.334,41.334,0,0,1,6.208,5.649s-.279-5.93,3.6-10.2,6.6-1.8,3.069,2.083-2.475,10.516-2.475,10.516,9.351,1.416,16.305-.769,7.2-4.8,5.226-7.3-9.208-6.25-6.737-8.967,6.947,13.414,10.513,10.274,4.873-6.915,3.251-9.81l-1.622-2.895s-7.233-3.744-9.209-6.251,1.059-1.164,4.482.531,10.726,6.922,11.4,5.405-1.2-9.6-2.43-12.142-12.316-1.276-13.48-2.335,5.013-3.951,6.883-3.667a40.655,40.655,0,0,1,4.129.92s.531-4.482-5.255-9.038S1157.549,5135.536,1157.549,5135.536Z" transform="translate(-1127.809 -5132.669)" fill="#5ae4a7"/>
          <path id="Trazado_666422" data-name="Trazado 666422" d="M1157.549,5135.536s-.779,7.093-6.355,6.985-8.254-9.639-14.113-7.876-7.24,11.854-7.24,11.854,5.754-3.985,8.471-1.514,1.762,5.859.245,5.188-9.81-3.251-10.625,3.1a13.511,13.511,0,0,0,2.713,10.271s6.922-10.726,11.121-8.324-3.919,3.527-7.45,7.408-5.933,8.079-3.251,9.81a41.334,41.334,0,0,1,6.208,5.649s-.279-5.93,3.6-10.2,6.6-1.8,3.069,2.083-2.475,10.516-2.475,10.516,9.351,1.416,16.305-.769,7.2-4.8,5.226-7.3-9.208-6.25-6.737-8.967,6.947,13.414,10.513,10.274,4.873-6.915,3.251-9.81l-1.622-2.895s-7.233-3.744-9.209-6.251,1.059-1.164,4.482.531,10.726,6.922,11.4,5.405-1.2-9.6-2.43-12.142-12.316-1.276-13.48-2.335,5.013-3.951,6.883-3.667a40.655,40.655,0,0,1,4.129.92s.531-4.482-5.255-9.038S1157.549,5135.536,1157.549,5135.536Z" transform="translate(-1127.809 -5132.669)" fill="#1a2e35" opacity="0.3"/>
          <path id="Trazado_666423" data-name="Trazado 666423" d="M1167.135,5182.034c-1.307-6.092-2.778-14.7-2.171-20.432" transform="translate(-1143.1 -5144.623)" fill="none" stroke="#1a2e35" stroke-linecap="round" stroke-linejoin="round" stroke-width="1"/>
          <path id="Trazado_666424" data-name="Trazado 666424" d="M1170.969,5205.762s-.456-1.662-1.062-4.247" transform="translate(-1145.201 -5161.111)" fill="none" stroke="#1a2e35" stroke-linecap="round" stroke-linejoin="round" stroke-width="1"/>
          <path id="Trazado_666425" data-name="Trazado 666425" d="M1169.394,5159.5s10.058.64,17.326,5.125" transform="translate(-1144.989 -5143.753)" fill="none" stroke="#1a2e35" stroke-linecap="round" stroke-linejoin="round" stroke-width="1"/>
          <path id="Trazado_666426" data-name="Trazado 666426" d="M1168.787,5173.292s.283-1.87,8.044,5.191" transform="translate(-1144.738 -5149.359)" fill="none" stroke="#1a2e35" stroke-linecap="round" stroke-linejoin="round" stroke-width="1"/>
          <path id="Trazado_666427" data-name="Trazado 666427" d="M1156.289,5152.619s-.21-4.447-5.891-6.779" transform="translate(-1137.141 -5138.11)" fill="none" stroke="#1a2e35" stroke-linecap="round" stroke-linejoin="round" stroke-width="1"/>
          <line id="Línea_837" data-name="Línea 837" x1="4.87" y1="0.885" transform="translate(15.333 20.259)" fill="none" stroke="#1a2e35" stroke-linecap="round" stroke-linejoin="round" stroke-width="1"/>
          <path id="Trazado_666428" data-name="Trazado 666428" d="M1154.073,5180.063s-9.177,2.29-12.355,5.782" transform="translate(-1133.555 -5152.249)" fill="none" stroke="#1a2e35" stroke-linecap="round" stroke-linejoin="round" stroke-width="1"/>
        </g>
        <path id="Trazado_666429" data-name="Trazado 666429" d="M1143.32,5207.932s15.765,12.031,17.424,29.87l-3.319-59.74" transform="translate(-1109.423 -5114.844)" fill="none" stroke="#1a2e35" stroke-linecap="round" stroke-linejoin="round" stroke-width="2"/>
        <path id="Trazado_666430" data-name="Trazado 666430" d="M1175.838,5217.528s-12.031-87.536,22.817-87.536" transform="translate(-1122.027 -5094.985)" fill="none" stroke="#1a2e35" stroke-linecap="round" stroke-linejoin="round" stroke-width="2"/>
        <g id="Grupo_989386" data-name="Grupo 989386" transform="translate(52.537 21.88)">
          <path id="Trazado_666431" data-name="Trazado 666431" d="M1220.719,5137.1c-3.856-2.281-8.121-2.331-10.21-4.737s2.014-3.624,4.209-2.716,7.283,3.527,8.247,4.1.3-7.763-1.49-10.9-6.677-4.966-9.12-2.4c-5.152,5.411-13.188-1.684-12.638-5.913s-3.4-8.776-11.871-6.11-5.314,4.144-5.314,4.144,6.016,3.688,9.872,5.969,10.246,4.239,8.873,5.9-5.067.646-8.156-1.832-11.962-8.375-12.87-6.18-4.1,8.247-4.1,8.247a90.229,90.229,0,0,1,11.618,2.578c5.158,1.619,6.213,4.456,2.181,4.673s-11.351-2.81-13.632,1.046-.72,13.758-.72,13.758,7.383-5,11.148-4.988,1.357,2.1-2.851,4.821a57.7,57.7,0,0,0-5.278,3.644l3.826,9.811a70.625,70.625,0,0,1,8.832-.632l2.5.177s-.026-10.3,2.951-13.35,3.483,4.012,4.109,5.813-1.261,7.192-1.261,7.192,7.313-4,9.684-5.593l2.372-1.59s-2.736-7.474-4.593-9.614-4.391-1.816-2.251-3.673,5.334-.878,7.156,1.76a55.277,55.277,0,0,1,3.968,7.813s2.731.443,6.278-3.574S1224.575,5139.382,1220.719,5137.1Zm-33.519,11.337c-2.833-1.417,3.9-4.25,3.9-4.25C1193.576,5143.834,1190.034,5149.855,1187.2,5148.438Zm4.772-13.223c-1.208-.6,2.416-1.812,2.416-1.812C1199.622,5134.41,1193.18,5135.819,1191.972,5135.216Z" transform="translate(-1175.08 -5107.624)" fill="#5ae4a7"/>
          <path id="Trazado_666432" data-name="Trazado 666432" d="M1194.005,5189.463q-1.1,1.168-2.271,2.266" transform="translate(-1181.96 -5141.434)" fill="none" stroke="#1a2e35" stroke-linecap="round" stroke-linejoin="round" stroke-width="1"/>
          <path id="Trazado_666433" data-name="Trazado 666433" d="M1211.782,5151.906a93.913,93.913,0,0,1-12.2,19.422" transform="translate(-1185.202 -5125.918)" fill="none" stroke="#1a2e35" stroke-linecap="round" stroke-linejoin="round" stroke-width="1"/>
          <path id="Trazado_666434" data-name="Trazado 666434" d="M1222.6,5142.651c1.7-3.8,2.571-6.3,2.571-6.3a10.475,10.475,0,0,0,6.227.69,11.8,11.8,0,0,1,5.532-.111" transform="translate(-1194.714 -5119.491)" fill="none" stroke="#1a2e35" stroke-linecap="round" stroke-linejoin="round" stroke-width="1"/>
          <path id="Trazado_666435" data-name="Trazado 666435" d="M1209.211,5140.69c.8-.7-11.568-6.841-11.568-6.841" transform="translate(-1184.401 -5118.458)" fill="none" stroke="#1a2e35" stroke-linecap="round" stroke-linejoin="round" stroke-width="1"/>
          <path id="Trazado_666436" data-name="Trazado 666436" d="M1228.457,5151.852s5.855,2.422,9.105,6.167" transform="translate(-1197.131 -5125.896)" fill="none" stroke="#1a2e35" stroke-linecap="round" stroke-linejoin="round" stroke-width="1"/>
          <path id="Trazado_666437" data-name="Trazado 666437" d="M1201.845,5158.134a49,49,0,0,0-9.493-.67,30.522,30.522,0,0,0-9.4,1.6" transform="translate(-1178.331 -5128.209)" fill="none" stroke="#1a2e35" stroke-linecap="round" stroke-linejoin="round" stroke-width="1"/>
          <path id="Trazado_666438" data-name="Trazado 666438" d="M1217.675,5165.208s6.481,4.224,6.36,9.487" transform="translate(-1192.677 -5131.413)" fill="none" stroke="#1a2e35" stroke-linecap="round" stroke-linejoin="round" stroke-width="1"/>
        </g>
        <g id="Grupo_989387" data-name="Grupo 989387" transform="translate(0 30.688)">
          <path id="Trazado_666439" data-name="Trazado 666439" d="M1116.048,5133.892s-3.9,2.834-6.375,0,1.063-8.5-2.479-10.625-9.209,1.771-9.209,1.771,4.6,1.063,4.6,3.542-2.125,3.542-2.479,2.479-2.833-6.375-6.375-3.9a9.121,9.121,0,0,0-3.9,6.021s8.5-1.417,9.209,1.771-3.542-.354-7.084-.354-6.729.708-6.375,2.833a27.887,27.887,0,0,1,0,5.667,10.525,10.525,0,0,1,6.73-2.833c3.9,0,3.9,2.479.354,2.479s-6.375,3.542-6.375,3.542,3.542,5.313,7.792,7.792,5.667,1.417,6.021-.708-1.063-7.437,1.417-7.437-3.542,9.563-.354,9.917,5.667-.708,6.375-2.833l.708-2.125s-1.417-5.313-1.062-7.438,1.062,0,1.771,2.479,1.417,8.5,2.479,8.146,4.25-4.958,4.959-6.729-4.959-6.729-4.959-7.792,4.25.708,4.959,1.771a27.547,27.547,0,0,1,1.417,2.479s2.479-1.771,2.125-6.729S1116.048,5133.892,1116.048,5133.892Z" transform="translate(-1085.561 -5122.632)" fill="#5ae4a7"/>
          <path id="Trazado_666440" data-name="Trazado 666440" d="M1103.7,5156.409c2.448-3.42,6.079-8.066,9.216-10.367" transform="translate(-1093.055 -5132.303)" fill="none" stroke="#1a2e35" stroke-linecap="round" stroke-linejoin="round" stroke-width="1"/>
          <path id="Trazado_666441" data-name="Trazado 666441" d="M1098.884,5169.055s.623-.983,1.638-2.46" transform="translate(-1091.065 -5140.794)" fill="none" stroke="#1a2e35" stroke-linecap="round" stroke-linejoin="round" stroke-width="1"/>
          <path id="Trazado_666442" data-name="Trazado 666442" d="M1122.421,5147.249s4.25,5.313,5.312,10.98" transform="translate(-1100.789 -5132.802)" fill="none" stroke="#1a2e35" stroke-linecap="round" stroke-linejoin="round" stroke-width="1"/>
          <path id="Trazado_666443" data-name="Trazado 666443" d="M1115.179,5153.271s1.062-.709,1.062,6.375" transform="translate(-1097.797 -5135.282)" fill="none" stroke="#1a2e35" stroke-linecap="round" stroke-linejoin="round" stroke-width="1"/>
          <path id="Trazado_666444" data-name="Trazado 666444" d="M1119.4,5137.58s2.125-2.125.708-6.021" transform="translate(-1099.542 -5126.32)" fill="none" stroke="#1a2e35" stroke-linecap="round" stroke-linejoin="round" stroke-width="1"/>
          <line id="Línea_838" data-name="Línea 838" x1="1.771" y1="2.833" transform="translate(15.257 11.968)" fill="none" stroke="#1a2e35" stroke-linecap="round" stroke-linejoin="round" stroke-width="1"/>
          <path id="Trazado_666445" data-name="Trazado 666445" d="M1103.16,5150.791s-5.313-3.542-8.5-3.542" transform="translate(-1089.32 -5132.802)" fill="none" stroke="#1a2e35" stroke-linecap="round" stroke-linejoin="round" stroke-width="1"/>
        </g>
      </g>
      <g id="Grupo_989394" data-name="Grupo 989394" transform="translate(1.938 75.617)">
        <path id="Trazado_666446" data-name="Trazado 666446" d="M1143.726,5216.875s11.2-6.223,12.031,7.883c.513,8.715,1.5,47.042,2.18,75.064" transform="translate(-1111.528 -5205.93)" fill="none" stroke="#1a2e35" stroke-linecap="round" stroke-linejoin="round" stroke-width="2"/>
        <path id="Trazado_666447" data-name="Trazado 666447" d="M1169.867,5233.388s-6.9,15.351-5.985,73.818" transform="translate(-1119.821 -5213.317)" fill="none" stroke="#1a2e35" stroke-linecap="round" stroke-linejoin="round" stroke-width="2"/>
        <g id="Grupo_989389" data-name="Grupo 989389" transform="translate(37.159 1.193)">
          <path id="Trazado_666448" data-name="Trazado 666448" d="M1156.091,5213.812s4.285,2.746,6.723-.4-1.649-8.9,1.954-11.358,9.821,1.294,9.821,1.294-4.789,1.407-4.635,4.021,2.461,3.6,2.769,2.46,2.591-6.9,6.48-4.5a9.631,9.631,0,0,1,4.483,6.106s-9.052-.965-9.6,2.441,3.712-.594,7.447-.814,7.141.328,6.9,2.592a29.481,29.481,0,0,0,.353,5.976,11.117,11.117,0,0,0-7.273-2.569c-4.109.242-3.954,2.856-.219,2.636s6.943,3.339,6.943,3.339-3.4,5.822-7.732,8.7-5.888,1.847-6.394-.372.658-7.909-1.957-7.755,4.33,9.863.99,10.435-6.02-.395-6.9-2.591l-.879-2.2s1.163-5.691.658-7.91-1.12.066-1.713,2.724-.965,9.052-2.108,8.745-4.79-4.964-5.647-6.788,4.81-7.4,4.744-8.525-4.438,1.011-5.119,2.175a29.079,29.079,0,0,0-1.339,2.7s-2.725-1.713-2.66-6.964S1156.091,5213.812,1156.091,5213.812Z" transform="translate(-1152.18 -5201.22)" fill="#5ae4a7"/>
          <path id="Trazado_666449" data-name="Trazado 666449" d="M1156.091,5213.812s4.285,2.746,6.723-.4-1.649-8.9,1.954-11.358,9.821,1.294,9.821,1.294-4.789,1.407-4.635,4.021,2.461,3.6,2.769,2.46,2.591-6.9,6.48-4.5a9.631,9.631,0,0,1,4.483,6.106s-9.052-.965-9.6,2.441,3.712-.594,7.447-.814,7.141.328,6.9,2.592a29.481,29.481,0,0,0,.353,5.976,11.117,11.117,0,0,0-7.273-2.569c-4.109.242-3.954,2.856-.219,2.636s6.943,3.339,6.943,3.339-3.4,5.822-7.732,8.7-5.888,1.847-6.394-.372.658-7.909-1.957-7.755,4.33,9.863.99,10.435-6.02-.395-6.9-2.591l-.879-2.2s1.163-5.691.658-7.91-1.12.066-1.713,2.724-.965,9.052-2.108,8.745-4.79-4.964-5.647-6.788,4.81-7.4,4.744-8.525-4.438,1.011-5.119,2.175a29.079,29.079,0,0,0-1.339,2.7s-2.725-1.713-2.66-6.964S1156.091,5213.812,1156.091,5213.812Z" transform="translate(-1152.18 -5201.22)" fill="#1a2e35" opacity="0.3"/>
          <path id="Trazado_666450" data-name="Trazado 666450" d="M1188.562,5236.363c-2.794-3.454-6.912-8.128-10.363-10.359" transform="translate(-1162.929 -5211.459)" fill="none" stroke="#1a2e35" stroke-linecap="round" stroke-linejoin="round" stroke-width="1"/>
          <path id="Trazado_666451" data-name="Trazado 666451" d="M1200.052,5249.065s-.718-1-1.88-2.492" transform="translate(-1171.18 -5219.957)" fill="none" stroke="#1a2e35" stroke-linecap="round" stroke-linejoin="round" stroke-width="1"/>
          <path id="Trazado_666452" data-name="Trazado 666452" d="M1171.629,5227.465s-4.152,5.866-4.919,11.908" transform="translate(-1158.183 -5212.063)" fill="none" stroke="#1a2e35" stroke-linecap="round" stroke-linejoin="round" stroke-width="1"/>
          <path id="Trazado_666453" data-name="Trazado 666453" d="M1182.524,5233.367s-1.164-.681-.724,6.789" transform="translate(-1164.376 -5214.494)" fill="none" stroke="#1a2e35" stroke-linecap="round" stroke-linejoin="round" stroke-width="1"/>
          <path id="Trazado_666454" data-name="Trazado 666454" d="M1176.89,5217.11s-2.373-2.108-1.122-6.3" transform="translate(-1161.774 -5205.181)" fill="none" stroke="#1a2e35" stroke-linecap="round" stroke-linejoin="round" stroke-width="1"/>
          <line id="Línea_839" data-name="Línea 839" y1="3.098" x2="1.691" transform="translate(18.324 12.391)" fill="none" stroke="#1a2e35" stroke-linecap="round" stroke-linejoin="round" stroke-width="1"/>
          <path id="Trazado_666455" data-name="Trazado 666455" d="M1189.468,5230s5.382-4.065,8.743-4.264" transform="translate(-1167.585 -5211.349)" fill="none" stroke="#1a2e35" stroke-linecap="round" stroke-linejoin="round" stroke-width="1"/>
        </g>
        <g id="Grupo_989390" data-name="Grupo 989390" transform="translate(8.871)">
          <path id="Trazado_666456" data-name="Trazado 666456" d="M1120.906,5201.9s.172,6.161,4.98,6.46,7.784-7.716,12.7-5.787,5.4,10.715,5.4,10.715-4.673-3.836-7.186-1.9-1.929,4.92-.576,4.449,8.673-2.108,8.928,3.417a11.671,11.671,0,0,1-3.059,8.651s-5.2-9.721-8.987-7.949,3.126,3.313,5.892,6.9,4.538,7.372,2.108,8.673a35.745,35.745,0,0,0-5.743,4.427,13.467,13.467,0,0,0-2.384-9.033c-3.043-3.948-5.555-2.012-2.79,1.578s1.39,9.227,1.39,9.227-8.15.561-13.982-1.81-5.862-4.637-3.985-6.655,8.367-4.733,6.431-7.245-6.925,11.059-9.773,8.1-3.708-6.3-2.108-8.673l1.6-2.378s6.49-2.713,8.367-4.733-.83-1.077-3.9.142-9.72,5.2-10.192,3.85,1.705-8.18,2.947-10.281,10.692-.23,11.769-1.061-4.038-3.754-5.667-3.642a35.286,35.286,0,0,0-3.619.5s-.141-3.9,5.16-7.409S1120.906,5201.9,1120.906,5201.9Z" transform="translate(-1103.978 -5199.188)" fill="#5ae4a7"/>
          <path id="Trazado_666457" data-name="Trazado 666457" d="M1120.906,5201.9s.172,6.161,4.98,6.46,7.784-7.716,12.7-5.787,5.4,10.715,5.4,10.715-4.673-3.836-7.186-1.9-1.929,4.92-.576,4.449,8.673-2.108,8.928,3.417a11.671,11.671,0,0,1-3.059,8.651s-5.2-9.721-8.987-7.949,3.126,3.313,5.892,6.9,4.538,7.372,2.108,8.673a35.745,35.745,0,0,0-5.743,4.427,13.467,13.467,0,0,0-2.384-9.033c-3.043-3.948-5.555-2.012-2.79,1.578s1.39,9.227,1.39,9.227-8.15.561-13.982-1.81-5.862-4.637-3.985-6.655,8.367-4.733,6.431-7.245-6.925,11.059-9.773,8.1-3.708-6.3-2.108-8.673l1.6-2.378s6.49-2.713,8.367-4.733-.83-1.077-3.9.142-9.72,5.2-10.192,3.85,1.705-8.18,2.947-10.281,10.692-.23,11.769-1.061-4.038-3.754-5.667-3.642a35.286,35.286,0,0,0-3.619.5s-.141-3.9,5.16-7.409S1120.906,5201.9,1120.906,5201.9Z" transform="translate(-1103.978 -5199.188)" fill="#1a2e35" opacity="0.2"/>
          <path id="Trazado_666458" data-name="Trazado 666458" d="M1137.046,5242.9c1.554-5.152,3.427-12.46,3.308-17.436" transform="translate(-1117.639 -5210.042)" fill="none" stroke="#1a2e35" stroke-linecap="round" stroke-linejoin="round" stroke-width="1"/>
          <path id="Trazado_666459" data-name="Trazado 666459" d="M1133.635,5263.059s.51-1.4,1.213-3.581" transform="translate(-1116.23 -5224.095)" fill="none" stroke="#1a2e35" stroke-linecap="round" stroke-linejoin="round" stroke-width="1"/>
          <path id="Trazado_666460" data-name="Trazado 666460" d="M1128.349,5223.345s-8.7-.157-15.276,3.192" transform="translate(-1107.735 -5209.167)" fill="none" stroke="#1a2e35" stroke-linecap="round" stroke-linejoin="round" stroke-width="1"/>
          <path id="Trazado_666461" data-name="Trazado 666461" d="M1133.511,5235.24s-.112-1.63-7.29,3.9" transform="translate(-1113.167 -5213.989)" fill="none" stroke="#1a2e35" stroke-linecap="round" stroke-linejoin="round" stroke-width="1"/>
          <path id="Trazado_666462" data-name="Trazado 666462" d="M1146.963,5218.346s.494-3.814,5.548-5.421" transform="translate(-1121.736 -5204.863)" fill="none" stroke="#1a2e35" stroke-linecap="round" stroke-linejoin="round" stroke-width="1"/>
          <line id="Línea_840" data-name="Línea 840" y1="0.419" x2="4.254" transform="translate(23.851 18.702)" fill="none" stroke="#1a2e35" stroke-linecap="round" stroke-linejoin="round" stroke-width="1"/>
          <path id="Trazado_666463" data-name="Trazado 666463" d="M1143.357,5241.514s7.738,2.618,10.228,5.848" transform="translate(-1120.247 -5216.674)" fill="none" stroke="#1a2e35" stroke-linecap="round" stroke-linejoin="round" stroke-width="1"/>
        </g>
        <path id="Trazado_666464" data-name="Trazado 666464" d="M1205.112,5273.684s-16.654,11.008-22.255,50.023" transform="translate(-1127.694 -5229.964)" fill="none" stroke="#1a2e35" stroke-linecap="round" stroke-linejoin="round" stroke-width="2"/>
        <g id="Grupo_989391" data-name="Grupo 989391" transform="translate(29.568 36.578)">
          <path id="Trazado_666465" data-name="Trazado 666465" d="M1156.916,5264.382s.779,7.093,6.355,6.985,8.254-9.639,14.113-7.876,7.24,11.855,7.24,11.855-5.754-3.985-8.471-1.514-1.762,5.859-.244,5.188,9.81-3.251,10.624,3.1a13.51,13.51,0,0,1-2.713,10.271s-6.922-10.726-11.121-8.325,3.919,3.528,7.45,7.408,5.933,8.079,3.251,9.81a41.382,41.382,0,0,0-6.208,5.65s.279-5.929-3.6-10.2-6.6-1.8-3.069,2.083,2.475,10.516,2.475,10.516-9.351,1.416-16.305-.77-7.2-4.8-5.226-7.3,9.208-6.251,6.737-8.967-6.946,13.414-10.513,10.275-4.873-6.916-3.251-9.81l1.622-2.894s7.233-3.745,9.209-6.251-1.059-1.165-4.482.531-10.726,6.922-11.4,5.4,1.2-9.6,2.43-12.142,12.316-1.275,13.481-2.335-5.014-3.95-6.884-3.667a40.792,40.792,0,0,0-4.129.919s-.531-4.481,5.255-9.037S1156.916,5264.382,1156.916,5264.382Z" transform="translate(-1139.246 -5261.515)" fill="#5ae4a7"/>
          <path id="Trazado_666466" data-name="Trazado 666466" d="M1156.916,5264.382s.779,7.093,6.355,6.985,8.254-9.639,14.113-7.876,7.24,11.855,7.24,11.855-5.754-3.985-8.471-1.514-1.762,5.859-.244,5.188,9.81-3.251,10.624,3.1a13.51,13.51,0,0,1-2.713,10.271s-6.922-10.726-11.121-8.325,3.919,3.528,7.45,7.408,5.933,8.079,3.251,9.81a41.382,41.382,0,0,0-6.208,5.65s.279-5.929-3.6-10.2-6.6-1.8-3.069,2.083,2.475,10.516,2.475,10.516-9.351,1.416-16.305-.77-7.2-4.8-5.226-7.3,9.208-6.251,6.737-8.967-6.946,13.414-10.513,10.275-4.873-6.916-3.251-9.81l1.622-2.894s7.233-3.745,9.209-6.251-1.059-1.165-4.482.531-10.726,6.922-11.4,5.4,1.2-9.6,2.43-12.142,12.316-1.275,13.481-2.335-5.014-3.95-6.884-3.667a40.792,40.792,0,0,0-4.129.919s-.531-4.481,5.255-9.037S1156.916,5264.382,1156.916,5264.382Z" transform="translate(-1139.246 -5261.515)" fill="#1a2e35" opacity="0.3"/>
          <path id="Trazado_666467" data-name="Trazado 666467" d="M1179.076,5310.881c1.307-6.092,2.778-14.7,2.171-20.433" transform="translate(-1155.701 -5273.468)" fill="none" stroke="#1a2e35" stroke-linecap="round" stroke-linejoin="round" stroke-width="1"/>
          <path id="Trazado_666468" data-name="Trazado 666468" d="M1176.122,5334.607s.456-1.662,1.062-4.248" transform="translate(-1154.48 -5289.957)" fill="none" stroke="#1a2e35" stroke-linecap="round" stroke-linejoin="round" stroke-width="1"/>
          <path id="Trazado_666469" data-name="Trazado 666469" d="M1166.249,5288.345s-10.058.64-17.326,5.125" transform="translate(-1143.244 -5272.599)" fill="none" stroke="#1a2e35" stroke-linecap="round" stroke-linejoin="round" stroke-width="1"/>
          <path id="Trazado_666470" data-name="Trazado 666470" d="M1173.39,5302.138s-.283-1.871-8.044,5.192" transform="translate(-1150.028 -5278.205)" fill="none" stroke="#1a2e35" stroke-linecap="round" stroke-linejoin="round" stroke-width="1"/>
          <path id="Trazado_666471" data-name="Trazado 666471" d="M1187.4,5281.465s.21-4.447,5.891-6.778" transform="translate(-1159.141 -5266.957)" fill="none" stroke="#1a2e35" stroke-linecap="round" stroke-linejoin="round" stroke-width="1"/>
          <line id="Línea_841" data-name="Línea 841" y1="0.885" x2="4.87" transform="translate(27.207 20.259)" fill="none" stroke="#1a2e35" stroke-linecap="round" stroke-linejoin="round" stroke-width="1"/>
          <path id="Trazado_666472" data-name="Trazado 666472" d="M1185.069,5308.908s9.177,2.29,12.355,5.783" transform="translate(-1158.176 -5281.094)" fill="none" stroke="#1a2e35" stroke-linecap="round" stroke-linejoin="round" stroke-width="1"/>
        </g>
        <line id="Línea_842" data-name="Línea 842" y1="30.34" x2="1.686" transform="translate(52.085 63.218)" fill="none" stroke="#1a2e35" stroke-linecap="round" stroke-linejoin="round" stroke-width="2"/>
        <path id="Trazado_666473" data-name="Trazado 666473" d="M1156.51,5317.722c.358-25.531-3.291-58.884-24.8-58.884" transform="translate(-1106.564 -5223.831)" fill="none" stroke="#1a2e35" stroke-linecap="round" stroke-linejoin="round" stroke-width="2"/>
        <g id="Grupo_989392" data-name="Grupo 989392" transform="translate(0 21.88)">
          <path id="Trazado_666474" data-name="Trazado 666474" d="M1092.461,5265.947c3.856-2.28,8.121-2.33,10.21-4.737s-2.014-3.624-4.209-2.716-7.283,3.527-8.247,4.1-.3-7.762,1.49-10.9,6.677-4.966,9.12-2.4c5.152,5.411,13.188-1.684,12.638-5.914s3.4-8.775,11.871-6.109,5.313,4.144,5.313,4.144-6.016,3.688-9.872,5.97-10.246,4.238-8.873,5.9,5.067.646,8.156-1.831,11.962-8.376,12.87-6.181,4.1,8.247,4.1,8.247a90.186,90.186,0,0,0-11.618,2.577c-5.158,1.62-6.213,4.456-2.181,4.673s11.351-2.81,13.632,1.046.72,13.758.72,13.758-7.383-5-11.148-4.987-1.357,2.1,2.851,4.82a57.457,57.457,0,0,1,5.278,3.645l-3.826,9.81a70.7,70.7,0,0,0-8.832-.632l-2.5.177s.026-10.3-2.951-13.349-3.483,4.011-4.109,5.813,1.261,7.192,1.261,7.192-7.312-4-9.684-5.593l-2.372-1.591s2.736-7.474,4.594-9.613,4.391-1.816,2.251-3.674-5.334-.879-7.156,1.76a55.254,55.254,0,0,0-3.968,7.812s-2.73.444-6.278-3.574S1088.6,5268.229,1092.461,5265.947Zm33.519,11.337c2.833-1.417-3.9-4.25-3.9-4.25C1119.6,5272.68,1123.146,5278.7,1125.98,5277.285Zm-4.771-13.223c1.208-.6-2.416-1.812-2.416-1.812C1113.558,5263.256,1120,5264.666,1121.208,5264.062Z" transform="translate(-1088.863 -5236.47)" fill="#5ae4a7"/>
          <path id="Trazado_666475" data-name="Trazado 666475" d="M1152.235,5318.31q1.1,1.167,2.271,2.266" transform="translate(-1115.044 -5270.28)" fill="none" stroke="#1a2e35" stroke-linecap="round" stroke-linejoin="round" stroke-width="1"/>
          <path id="Trazado_666476" data-name="Trazado 666476" d="M1127.467,5280.752a93.893,93.893,0,0,0,12.2,19.422" transform="translate(-1104.811 -5254.764)" fill="none" stroke="#1a2e35" stroke-linecap="round" stroke-linejoin="round" stroke-width="1"/>
          <path id="Trazado_666477" data-name="Trazado 666477" d="M1115.147,5271.5c-1.7-3.8-2.571-6.3-2.571-6.3a10.475,10.475,0,0,1-6.227.69,11.794,11.794,0,0,0-5.531-.111" transform="translate(-1093.802 -5248.337)" fill="none" stroke="#1a2e35" stroke-linecap="round" stroke-linejoin="round" stroke-width="1"/>
          <path id="Trazado_666478" data-name="Trazado 666478" d="M1130.459,5269.537c-.8-.7,11.568-6.842,11.568-6.842" transform="translate(-1106.032 -5247.305)" fill="none" stroke="#1a2e35" stroke-linecap="round" stroke-linejoin="round" stroke-width="1"/>
          <path id="Trazado_666479" data-name="Trazado 666479" d="M1112.972,5280.7s-5.855,2.422-9.105,6.166" transform="translate(-1095.062 -5254.742)" fill="none" stroke="#1a2e35" stroke-linecap="round" stroke-linejoin="round" stroke-width="1"/>
          <path id="Trazado_666480" data-name="Trazado 666480" d="M1132.693,5286.979a49.094,49.094,0,0,1,9.493-.67,30.512,30.512,0,0,1,9.4,1.6" transform="translate(-1106.97 -5257.056)" fill="none" stroke="#1a2e35" stroke-linecap="round" stroke-linejoin="round" stroke-width="1"/>
          <path id="Trazado_666481" data-name="Trazado 666481" d="M1125.686,5294.055s-6.481,4.223-6.36,9.487" transform="translate(-1101.447 -5260.26)" fill="none" stroke="#1a2e35" stroke-linecap="round" stroke-linejoin="round" stroke-width="1"/>
        </g>
        <g id="Grupo_989393" data-name="Grupo 989393" transform="translate(67.356 30.688)">
          <path id="Trazado_666482" data-name="Trazado 666482" d="M1207.564,5262.738s3.9,2.833,6.375,0-1.063-8.5,2.479-10.625,9.209,1.771,9.209,1.771-4.6,1.063-4.6,3.542,2.125,3.542,2.479,2.479,2.833-6.375,6.375-3.9a9.121,9.121,0,0,1,3.9,6.021s-8.5-1.417-9.209,1.771,3.542-.354,7.084-.354,6.729.708,6.375,2.833a27.883,27.883,0,0,0,0,5.667,10.527,10.527,0,0,0-6.73-2.833c-3.9,0-3.9,2.479-.354,2.479s6.375,3.542,6.375,3.542-3.542,5.313-7.792,7.792-5.667,1.417-6.021-.708,1.063-7.437-1.417-7.437,3.542,9.563.354,9.917-5.667-.708-6.375-2.834l-.708-2.125s1.417-5.312,1.062-7.437-1.062,0-1.771,2.479-1.417,8.5-2.479,8.146-4.25-4.958-4.959-6.729,4.959-6.73,4.959-7.792-4.25.709-4.959,1.771a27.61,27.61,0,0,0-1.416,2.48s-2.479-1.771-2.125-6.73S1207.564,5262.738,1207.564,5262.738Z" transform="translate(-1203.634 -5251.478)" fill="#5ae4a7"/>
          <path id="Trazado_666483" data-name="Trazado 666483" d="M1237.652,5285.256c-2.448-3.421-6.079-8.067-9.216-10.367" transform="translate(-1213.88 -5261.15)" fill="none" stroke="#1a2e35" stroke-linecap="round" stroke-linejoin="round" stroke-width="1"/>
          <path id="Trazado_666484" data-name="Trazado 666484" d="M1247.8,5297.9s-.622-.983-1.638-2.46" transform="translate(-1221.204 -5269.64)" fill="none" stroke="#1a2e35" stroke-linecap="round" stroke-linejoin="round" stroke-width="1"/>
          <path id="Trazado_666485" data-name="Trazado 666485" d="M1221.678,5276.1s-4.25,5.313-5.312,10.98" transform="translate(-1208.894 -5261.648)" fill="none" stroke="#1a2e35" stroke-linecap="round" stroke-linejoin="round" stroke-width="1"/>
          <path id="Trazado_666486" data-name="Trazado 666486" d="M1231.913,5282.116s-1.063-.708-1.063,6.375" transform="translate(-1214.877 -5264.127)" fill="none" stroke="#1a2e35" stroke-linecap="round" stroke-linejoin="round" stroke-width="1"/>
          <path id="Trazado_666487" data-name="Trazado 666487" d="M1227.595,5266.425s-2.125-2.125-.708-6.021" transform="translate(-1213.039 -5255.166)" fill="none" stroke="#1a2e35" stroke-linecap="round" stroke-linejoin="round" stroke-width="1"/>
          <line id="Línea_843" data-name="Línea 843" y1="2.833" x2="1.771" transform="translate(17.389 11.968)" fill="none" stroke="#1a2e35" stroke-linecap="round" stroke-linejoin="round" stroke-width="1"/>
          <path id="Trazado_666488" data-name="Trazado 666488" d="M1238.695,5279.637s5.313-3.542,8.5-3.542" transform="translate(-1218.118 -5261.648)" fill="none" stroke="#1a2e35" stroke-linecap="round" stroke-linejoin="round" stroke-width="1"/>
        </g>
      </g>
    </g>
    <g id="Grupo_989397" data-name="Grupo 989397" transform="translate(830.744 4979.717)">
      <rect id="Rectángulo_311326" data-name="Rectángulo 311326" width="130.287" height="171.566" transform="translate(4.108 4.695)" opacity="0.2"/>
      <rect id="Rectángulo_311327" data-name="Rectángulo 311327" width="130.287" height="171.566" fill="#fff" stroke="#1a2e35" stroke-linecap="round" stroke-linejoin="round" stroke-width="1"/>
      <path id="Trazado_666489" data-name="Trazado 666489" d="M945.394,5053.452H856.419v-19.994H971.871v19.994H947.54" transform="translate(-849.379 -5001.919)" fill="none" stroke="#1a2e35" stroke-linecap="round" stroke-linejoin="round" stroke-width="1"/>
      <path id="Trazado_666490" data-name="Trazado 666490" d="M863.631,5100.553h-7.212v-10.336H919.44" transform="translate(-849.379 -5025.367)" fill="none" stroke="#1a2e35" stroke-linecap="round" stroke-linejoin="round" stroke-width="1"/>
      <path id="Trazado_666491" data-name="Trazado 666491" d="M928.622,5090.217h49.7v10.336H872.032" transform="translate(-855.829 -5025.367)" fill="none" stroke="#1a2e35" stroke-linecap="round" stroke-linejoin="round" stroke-width="1"/>
      <path id="Trazado_666492" data-name="Trazado 666492" d="M953.785,5136.194H856.419v-10.336H971.871v10.336h-15.94" transform="translate(-849.379 -5040.091)" fill="none" stroke="#1a2e35" stroke-linecap="round" stroke-linejoin="round" stroke-width="1"/>
      <path id="Trazado_666493" data-name="Trazado 666493" d="M886.267,5212.927H856.419v-52.632H971.871v52.632H889.194" transform="translate(-849.379 -5054.317)" fill="none" stroke="#1a2e35" stroke-linecap="round" stroke-linejoin="round" stroke-width="1"/>
      <rect id="Rectángulo_311328" data-name="Rectángulo 311328" width="115.452" height="9.195" transform="translate(7.041 105.977)" fill="#d1d1d1" stroke="#1a2e35" stroke-linecap="round" stroke-linejoin="round" stroke-width="1"/>
      <path id="Trazado_666494" data-name="Trazado 666494" d="M911.3,5067.915v12.941H856.419v-13.33" transform="translate(-849.379 -5015.993)" fill="none" stroke="#1a2e35" stroke-linecap="round" stroke-linejoin="round" stroke-width="1"/>
      <rect id="Rectángulo_311329" data-name="Rectángulo 311329" width="115.452" height="5.805" transform="translate(7.041 38.634)" fill="#d1d1d1" stroke="#1a2e35" stroke-linecap="round" stroke-linejoin="round" stroke-width="1"/>
      <line id="Línea_844" data-name="Línea 844" y2="6.584" transform="translate(84.162 32.078)" fill="none" stroke="#1a2e35" stroke-linecap="round" stroke-linejoin="round" stroke-width="1"/>
      <rect id="Rectángulo_311330" data-name="Rectángulo 311330" width="7.867" height="3.846" transform="translate(91.144 33.179)" fill="#d1d1d1" stroke="#1a2e35" stroke-linecap="round" stroke-linejoin="round" stroke-width="1"/>
      <line id="Línea_845" data-name="Línea 845" y2="6.978" transform="translate(65.788 44.621)" fill="none" stroke="#1a2e35" stroke-linecap="round" stroke-linejoin="round" stroke-width="1"/>
      <line id="Línea_846" data-name="Línea 846" y2="6.978" transform="translate(89.927 44.621)" fill="none" stroke="#1a2e35" stroke-linecap="round" stroke-linejoin="round" stroke-width="1"/>
      <line id="Línea_847" data-name="Línea 847" y1="13.239" transform="translate(28.28 51.628)" fill="none" stroke="#1a2e35" stroke-linecap="round" stroke-linejoin="round" stroke-width="1"/>
      <line id="Línea_848" data-name="Línea 848" y1="13.239" transform="translate(41.721 51.628)" fill="none" stroke="#1a2e35" stroke-linecap="round" stroke-linejoin="round" stroke-width="1"/>
      <line id="Línea_849" data-name="Línea 849" y2="10.068" transform="translate(56.373 64.931)" fill="none" stroke="#1a2e35" stroke-linecap="round" stroke-linejoin="round" stroke-width="1"/>
      <line id="Línea_850" data-name="Línea 850" y2="31.131" transform="translate(83.9 64.793)" fill="none" stroke="#1a2e35" stroke-linecap="round" stroke-linejoin="round" stroke-width="1"/>
      <path id="Trazado_666495" data-name="Trazado 666495" d="M856.419,5107.828v10.59h76.9" transform="translate(-849.379 -5032.643)" fill="none" stroke="#1a2e35" stroke-linecap="round" stroke-linejoin="round" stroke-width="1"/>
      <line id="Línea_851" data-name="Línea 851" y2="10.187" transform="translate(36.008 75.259)" fill="none" stroke="#1a2e35" stroke-linecap="round" stroke-linejoin="round" stroke-width="1"/>
      <line id="Línea_852" data-name="Línea 852" x2="6.826" transform="translate(115.724 123.739)" fill="none" stroke="#1a2e35" stroke-linecap="round" stroke-linejoin="round" stroke-width="1"/>
      <line id="Línea_853" data-name="Línea 853" x2="105.985" transform="translate(7.203 123.739)" fill="none" stroke="#1a2e35" stroke-linecap="round" stroke-linejoin="round" stroke-width="1"/>
      <line id="Línea_854" data-name="Línea 854" x2="115.348" transform="translate(7.203 132.051)" fill="none" stroke="#1a2e35" stroke-linecap="round" stroke-linejoin="round" stroke-width="1"/>
      <line id="Línea_855" data-name="Línea 855" x2="79.808" transform="translate(42.742 140.329)" fill="none" stroke="#1a2e35" stroke-linecap="round" stroke-linejoin="round" stroke-width="1"/>
      <line id="Línea_856" data-name="Línea 856" x2="32.613" transform="translate(7.203 140.329)" fill="none" stroke="#1a2e35" stroke-linecap="round" stroke-linejoin="round" stroke-width="1"/>
      <rect id="Rectángulo_311331" data-name="Rectángulo 311331" width="3.901" height="3.901" transform="translate(25.266 126.03)" fill="#d1d1d1" stroke="#1a2e35" stroke-linecap="round" stroke-linejoin="round" stroke-width="1"/>
      <rect id="Rectángulo_311332" data-name="Rectángulo 311332" width="3.901" height="3.901" transform="translate(47.656 126.03)" fill="#d1d1d1" stroke="#1a2e35" stroke-linecap="round" stroke-linejoin="round" stroke-width="1"/>
      <rect id="Rectángulo_311333" data-name="Rectángulo 311333" width="3.901" height="3.901" transform="translate(32.192 133.996)" fill="#d1d1d1" stroke="#1a2e35" stroke-linecap="round" stroke-linejoin="round" stroke-width="1"/>
      <rect id="Rectángulo_311334" data-name="Rectángulo 311334" width="3.901" height="3.901" transform="translate(53.591 133.996)" fill="#d1d1d1" stroke="#1a2e35" stroke-linecap="round" stroke-linejoin="round" stroke-width="1"/>
      <rect id="Rectángulo_311335" data-name="Rectángulo 311335" width="3.901" height="3.901" transform="translate(74.053 133.996)" fill="#d1d1d1" stroke="#1a2e35" stroke-linecap="round" stroke-linejoin="round" stroke-width="1"/>
      <rect id="Rectángulo_311336" data-name="Rectángulo 311336" width="3.901" height="3.901" transform="translate(94.827 133.996)" fill="#d1d1d1" stroke="#1a2e35" stroke-linecap="round" stroke-linejoin="round" stroke-width="1"/>
      <line id="Línea_857" data-name="Línea 857" y2="8.278" transform="translate(30.384 132.123)" fill="none" stroke="#1a2e35" stroke-linecap="round" stroke-linejoin="round" stroke-width="1"/>
      <line id="Línea_858" data-name="Línea 858" y2="8.278" transform="translate(51.315 132.123)" fill="none" stroke="#1a2e35" stroke-linecap="round" stroke-linejoin="round" stroke-width="1"/>
      <line id="Línea_859" data-name="Línea 859" y2="8.278" transform="translate(72.245 132.123)" fill="none" stroke="#1a2e35" stroke-linecap="round" stroke-linejoin="round" stroke-width="1"/>
      <line id="Línea_860" data-name="Línea 860" y2="8.278" transform="translate(93.175 132.123)" fill="none" stroke="#1a2e35" stroke-linecap="round" stroke-linejoin="round" stroke-width="1"/>
      <line id="Línea_861" data-name="Línea 861" x2="115.348" transform="translate(7.203 148.765)" fill="none" stroke="#1a2e35" stroke-linecap="round" stroke-linejoin="round" stroke-width="1"/>
      <rect id="Rectángulo_311337" data-name="Rectángulo 311337" width="3.901" height="3.901" transform="translate(17.869 142.432)" fill="#d1d1d1" stroke="#1a2e35" stroke-linecap="round" stroke-linejoin="round" stroke-width="1"/>
      <rect id="Rectángulo_311338" data-name="Rectángulo 311338" width="3.901" height="3.901" transform="translate(53.591 142.432)" fill="#d1d1d1" stroke="#1a2e35" stroke-linecap="round" stroke-linejoin="round" stroke-width="1"/>
      <rect id="Rectángulo_311339" data-name="Rectángulo 311339" width="3.901" height="3.901" transform="translate(74.053 142.432)" fill="#d1d1d1" stroke="#1a2e35" stroke-linecap="round" stroke-linejoin="round" stroke-width="1"/>
      <rect id="Rectángulo_311340" data-name="Rectángulo 311340" width="3.901" height="3.901" transform="translate(100.414 142.432)" fill="#d1d1d1" stroke="#1a2e35" stroke-linecap="round" stroke-linejoin="round" stroke-width="1"/>
      <line id="Línea_862" data-name="Línea 862" y2="8.198" transform="translate(16.061 140.559)" fill="none" stroke="#1a2e35" stroke-linecap="round" stroke-linejoin="round" stroke-width="1"/>
      <line id="Línea_863" data-name="Línea 863" y2="8.198" transform="translate(51.315 140.559)" fill="none" stroke="#1a2e35" stroke-linecap="round" stroke-linejoin="round" stroke-width="1"/>
      <line id="Línea_864" data-name="Línea 864" y2="8.198" transform="translate(72.245 140.559)" fill="none" stroke="#1a2e35" stroke-linecap="round" stroke-linejoin="round" stroke-width="1"/>
      <line id="Línea_865" data-name="Línea 865" y2="8.198" transform="translate(98.763 140.559)" fill="none" stroke="#1a2e35" stroke-linecap="round" stroke-linejoin="round" stroke-width="1"/>
      <g id="Grupo_989396" data-name="Grupo 989396" transform="translate(48.725 7.195)">
        <path id="Trazado_666496" data-name="Trazado 666496" d="M932.231,4998.742v1.421h-3.223v6.065h-1.562v-14.013h5.565v1.422h-4v5.1Z" transform="translate(-927.447 -4992.076)" fill="#1a2e35"/>
        <path id="Trazado_666497" data-name="Trazado 666497" d="M938.838,4995.5c0-2.142,1.061-3.523,3.2-3.523,2.162,0,3.223,1.381,3.223,3.523v7.246c0,2.122-1.061,3.523-3.223,3.523-2.142,0-3.2-1.4-3.2-3.523Zm1.541,7.326c0,1.281.541,2.022,1.661,2.022,1.141,0,1.662-.741,1.662-2.022v-7.406c0-1.261-.521-2.022-1.662-2.022-1.12,0-1.661.761-1.661,2.022Z" transform="translate(-932.153 -4991.978)" fill="#1a2e35"/>
        <path id="Trazado_666498" data-name="Trazado 666498" d="M955.432,4992.216c2.2,0,3.123,1.122,3.123,3.2v1.142c0,1.542-.541,2.5-1.741,2.882,1.281.38,1.762,1.421,1.762,2.922v2.183a3.5,3.5,0,0,0,.28,1.681h-1.582a3.666,3.666,0,0,1-.26-1.7v-2.2c0-1.581-.741-2.082-2.042-2.082h-1.1v5.985h-1.561v-14.013Zm-.4,6.607c1.241,0,1.982-.4,1.982-1.922v-1.341c0-1.261-.461-1.922-1.622-1.922H953.87v5.185Z" transform="translate(-937.718 -4992.076)" fill="#1a2e35"/>
        <path id="Trazado_666499" data-name="Trazado 666499" d="M970.9,5006.209h-1.5l-2.322-11.15v11.169h-1.361v-14.013h2.182l2.3,11.191,2.222-11.191H974.6v14.013h-1.482v-11.27Z" transform="translate(-943.255 -4992.076)" fill="#1a2e35"/>
      </g>
      <line id="Línea_866" data-name="Línea 866" x2="12.711" transform="translate(42.157 28.21)" fill="none" stroke="#1a2e35" stroke-miterlimit="10" stroke-width="1"/>
      <line id="Línea_867" data-name="Línea 867" x2="32.534" transform="translate(7.476 28.21)" fill="none" stroke="#1a2e35" stroke-miterlimit="10" stroke-width="1"/>
      <line id="Línea_868" data-name="Línea 868" x2="28.02" transform="translate(64.901 28.21)" fill="none" stroke="#1a2e35" stroke-miterlimit="10" stroke-width="1"/>
      <line id="Línea_869" data-name="Línea 869" x2="22.139" transform="translate(100.531 28.21)" fill="none" stroke="#1a2e35" stroke-miterlimit="10" stroke-width="1"/>
    </g>
    <g id="Grupo_989409" data-name="Grupo 989409" transform="translate(816.659 5070.693)">
      <g id="Grupo_989399" data-name="Grupo 989399" transform="translate(119.686 133.632)">
        <path id="Trazado_666500" data-name="Trazado 666500" d="M1024.359,5364.221l43.56-1.787,23.784,28.911-58.737,5.119Z" transform="translate(-1024.359 -5362.435)" fill="#fff" stroke="#1a2e35" stroke-linecap="round" stroke-linejoin="round" stroke-width="1"/>
        <path id="Trazado_666501" data-name="Trazado 666501" d="M1039.355,5397.1l47.086-3.283,3.1,3.908-48.88,3.715Z" transform="translate(-1030.554 -5375.397)" fill="none" stroke="#1a2e35" stroke-linecap="round" stroke-linejoin="round" stroke-width="0.5"/>
        <path id="Trazado_666502" data-name="Trazado 666502" d="M1036.944,5389.41l45.127-2.841,1.438,1.811-45.963,3.025Z" transform="translate(-1029.558 -5372.405)" fill="none" stroke="#1a2e35" stroke-linecap="round" stroke-linejoin="round" stroke-width="0.5"/>
        <path id="Trazado_666503" data-name="Trazado 666503" d="M1034.991,5383.171l43.524-2.5,1.332,1.678-44.3,2.664Z" transform="translate(-1028.751 -5369.967)" fill="none" stroke="#1a2e35" stroke-linecap="round" stroke-linejoin="round" stroke-width="0.5"/>
        <path id="Trazado_666504" data-name="Trazado 666504" d="M1029.978,5367.1l39.346-1.713,5.892,7.424-42.806,2.356Z" transform="translate(-1026.68 -5363.653)" fill="none" stroke="#1a2e35" stroke-linecap="round" stroke-linejoin="round" stroke-width="0.5"/>
        <path id="Trazado_666505" data-name="Trazado 666505" d="M1033.341,5377.888l42.159-2.229,1.106,1.394-42.806,2.356Z" transform="translate(-1028.07 -5367.897)" fill="#d1d1d1" stroke="#1a2e35" stroke-linecap="round" stroke-linejoin="round" stroke-width="0.5"/>
        <path id="Trazado_666506" data-name="Trazado 666506" d="M1081.764,5393.521l-1.4-2.482,21.081-1.387,1.939,2.442" transform="translate(-1047.496 -5373.679)" fill="none" stroke="#1a2e35" stroke-linecap="round" stroke-linejoin="round" stroke-width="0.5"/>
        <path id="Trazado_666507" data-name="Trazado 666507" d="M1040.125,5399.545l47.707-3.43.9,1.134L1040.5,5400.8Z" transform="translate(-1030.872 -5376.349)" fill="#d1d1d1" stroke="#1a2e35" stroke-linecap="round" stroke-linejoin="round" stroke-width="0.5"/>
        <line id="Línea_870" data-name="Línea 870" x1="0.663" y1="1.414" transform="translate(26.407 23.213)" fill="none" stroke="#1a2e35" stroke-linecap="round" stroke-linejoin="round" stroke-width="0.5"/>
        <path id="Trazado_666508" data-name="Trazado 666508" d="M1058.687,5403.215l3.418-.254.365.832-3.444.26Z" transform="translate(-1038.54 -5379.177)" fill="#d1d1d1" stroke="#1a2e35" stroke-linecap="round" stroke-linejoin="round" stroke-width="0.5"/>
        <line id="Línea_871" data-name="Línea 871" x1="0.766" y1="1.399" transform="translate(32.732 20.016)" fill="none" stroke="#1a2e35" stroke-linecap="round" stroke-linejoin="round" stroke-width="0.5"/>
        <line id="Línea_872" data-name="Línea 872" x1="0.635" y1="1.43" transform="translate(22.744 20.712)" fill="none" stroke="#1a2e35" stroke-linecap="round" stroke-linejoin="round" stroke-width="0.5"/>
        <line id="Línea_873" data-name="Línea 873" x2="1.743" y2="2.469" transform="translate(45.946 16.498)" fill="none" stroke="#1a2e35" stroke-linecap="round" stroke-linejoin="round" stroke-width="0.5"/>
        <line id="Línea_874" data-name="Línea 874" x2="1.622" y2="2.497" transform="translate(40.782 16.839)" fill="none" stroke="#1a2e35" stroke-linecap="round" stroke-linejoin="round" stroke-width="0.5"/>
        <line id="Línea_875" data-name="Línea 875" x1="1.08" y1="1.838" transform="translate(33.973 15.365)" fill="none" stroke="#1a2e35" stroke-linecap="round" stroke-linejoin="round" stroke-width="0.5"/>
        <line id="Línea_876" data-name="Línea 876" x1="2.629" y1="5.593" transform="translate(21.423 12.361)" fill="none" stroke="#1a2e35" stroke-linecap="round" stroke-linejoin="round" stroke-width="0.5"/>
        <path id="Trazado_666509" data-name="Trazado 666509" d="M1092.52,5385.312l-1.417-1.786-28.865,1.736" transform="translate(-1040.007 -5371.148)" fill="none" stroke="#1a2e35" stroke-linecap="round" stroke-linejoin="round" stroke-width="0.5"/>
        <line id="Línea_877" data-name="Línea 877" x1="1.185" y1="1.759" transform="translate(40.546 13.07)" fill="none" stroke="#1a2e35" stroke-linecap="round" stroke-linejoin="round" stroke-width="0.5"/>
        <line id="Línea_878" data-name="Línea 878" x1="41.54" y2="2.115" transform="translate(4.836 6.504)" fill="none" stroke="#1a2e35" stroke-linecap="round" stroke-linejoin="round" stroke-width="0.5"/>
        <line id="Línea_879" data-name="Línea 879" x1="40.987" y2="2.011" transform="translate(4.447 5.317)" fill="none" stroke="#1a2e35" stroke-linecap="round" stroke-linejoin="round" stroke-width="0.5"/>
        <line id="Línea_880" data-name="Línea 880" x1="40.451" y2="1.913" transform="translate(4.07 4.166)" fill="none" stroke="#1a2e35" stroke-linecap="round" stroke-linejoin="round" stroke-width="0.5"/>
        <path id="Trazado_666510" data-name="Trazado 666510" d="M1089.468,5372.588l1.337-.066.405.564-1.345.068Z" transform="translate(-1051.257 -5366.602)" fill="#d1d1d1" stroke="#1a2e35" stroke-linecap="round" stroke-linejoin="round" stroke-width="0.5"/>
        <path id="Trazado_666511" data-name="Trazado 666511" d="M1076.215,5373.243l1.368-.068.358.574-1.376.069Z" transform="translate(-1045.782 -5366.872)" fill="#d1d1d1" stroke="#1a2e35" stroke-linecap="round" stroke-linejoin="round" stroke-width="0.5"/>
        <path id="Trazado_666512" data-name="Trazado 666512" d="M1084.095,5370.852l1.33-.063.381.552-1.338.065Z" transform="translate(-1049.037 -5365.886)" fill="#d1d1d1" stroke="#1a2e35" stroke-linecap="round" stroke-linejoin="round" stroke-width="0.5"/>
        <path id="Trazado_666513" data-name="Trazado 666513" d="M1071.5,5371.453l1.359-.065.336.561-1.368.066Z" transform="translate(-1043.835 -5366.133)" fill="#d1d1d1" stroke="#1a2e35" stroke-linecap="round" stroke-linejoin="round" stroke-width="0.5"/>
        <path id="Trazado_666514" data-name="Trazado 666514" d="M1059.2,5372.04l1.388-.067.292.569-1.4.068Z" transform="translate(-1038.754 -5366.375)" fill="#d1d1d1" stroke="#1a2e35" stroke-linecap="round" stroke-linejoin="round" stroke-width="0.5"/>
        <path id="Trazado_666515" data-name="Trazado 666515" d="M1046.449,5372.648l1.418-.068.244.577-1.427.07Z" transform="translate(-1033.485 -5366.626)" fill="#d1d1d1" stroke="#1a2e35" stroke-linecap="round" stroke-linejoin="round" stroke-width="0.5"/>
        <line id="Línea_881" data-name="Línea 881" x1="0.815" y1="1.169" transform="translate(36.758 4.523)" fill="none" stroke="#1a2e35" stroke-linecap="round" stroke-linejoin="round" stroke-width="0.5"/>
        <line id="Línea_882" data-name="Línea 882" x1="0.723" y1="1.186" transform="translate(29.601 4.861)" fill="none" stroke="#1a2e35" stroke-linecap="round" stroke-linejoin="round" stroke-width="0.5"/>
        <line id="Línea_883" data-name="Línea 883" x1="0.626" y1="1.204" transform="translate(22.291 5.207)" fill="none" stroke="#1a2e35" stroke-linecap="round" stroke-linejoin="round" stroke-width="0.5"/>
        <line id="Línea_884" data-name="Línea 884" x1="0.525" y1="1.222" transform="translate(14.823 5.56)" fill="none" stroke="#1a2e35" stroke-linecap="round" stroke-linejoin="round" stroke-width="0.5"/>
        <line id="Línea_885" data-name="Línea 885" x1="39.918" y2="1.817" transform="translate(3.698 3.026)" fill="none" stroke="#1a2e35" stroke-linecap="round" stroke-linejoin="round" stroke-width="0.5"/>
        <path id="Trazado_666516" data-name="Trazado 666516" d="M1090.923,5368.48l1.295-.06.4.532-1.3.061Z" transform="translate(-1051.858 -5364.907)" fill="#d1d1d1" stroke="#1a2e35" stroke-linecap="round" stroke-linejoin="round" stroke-width="0.5"/>
        <path id="Trazado_666517" data-name="Trazado 666517" d="M1070.32,5369.427l1.342-.062.327.544-1.35.063Z" transform="translate(-1043.346 -5365.297)" fill="#d1d1d1" stroke="#1a2e35" stroke-linecap="round" stroke-linejoin="round" stroke-width="0.5"/>
        <path id="Trazado_666518" data-name="Trazado 666518" d="M1058.183,5369.984l1.369-.063.283.552-1.378.065Z" transform="translate(-1038.333 -5365.527)" fill="#d1d1d1" stroke="#1a2e35" stroke-linecap="round" stroke-linejoin="round" stroke-width="0.5"/>
        <path id="Trazado_666519" data-name="Trazado 666519" d="M1042.172,5370.721l1.406-.065.224.563-1.416.066Z" transform="translate(-1031.718 -5365.831)" fill="#d1d1d1" stroke="#1a2e35" stroke-linecap="round" stroke-linejoin="round" stroke-width="0.5"/>
        <line id="Línea_886" data-name="Línea 886" x1="0.843" y1="1.115" transform="translate(40.711 3.159)" fill="none" stroke="#1a2e35" stroke-linecap="round" stroke-linejoin="round" stroke-width="0.5"/>
        <line id="Línea_887" data-name="Línea 887" x1="0.696" y1="1.142" transform="translate(28.892 3.697)" fill="none" stroke="#1a2e35" stroke-linecap="round" stroke-linejoin="round" stroke-width="0.5"/>
        <line id="Línea_888" data-name="Línea 888" x1="0.603" y1="1.159" transform="translate(21.677 4.026)" fill="none" stroke="#1a2e35" stroke-linecap="round" stroke-linejoin="round" stroke-width="0.5"/>
        <line id="Línea_889" data-name="Línea 889" x1="0.479" y1="1.181" transform="translate(12.315 4.452)" fill="none" stroke="#1a2e35" stroke-linecap="round" stroke-linejoin="round" stroke-width="0.5"/>
        <g id="Grupo_989398" data-name="Grupo 989398" transform="translate(29.995 25.801)">
          <path id="Trazado_666520" data-name="Trazado 666520" d="M1096.616,5408.24l-.194-.323,1.383-.113-.831-1.355.66-.052,1.971,3.179-2.424.205-.2-.333,1.741-.146-.721-1.175Z" transform="translate(-1084.125 -5406.397)" fill="#1a2e35"/>
          <path id="Trazado_666521" data-name="Trazado 666521" d="M1093.379,5409.237c.3.5.022.862-.918.942a1.849,1.849,0,0,1-1.888-.709l-.94-1.666c-.269-.478.009-.827.935-.9a1.835,1.835,0,0,1,1.832.677Zm-1.651-1.619a.953.953,0,0,0-.977-.4c-.489.039-.619.223-.454.512l.971,1.7a.96.96,0,0,0,1,.412c.491-.041.624-.239.452-.533Z" transform="translate(-1081.279 -5406.602)" fill="#1a2e35"/>
          <path id="Trazado_666522" data-name="Trazado 666522" d="M1086.311,5410.581c-.979.083-1.532-.15-1.793-.643l-.143-.268c-.191-.359-.072-.6.408-.733a1.244,1.244,0,0,1-1.131-.608l-.264-.5a.826.826,0,0,0-.323-.369l.685-.055a.867.867,0,0,1,.319.374l.269.5c.195.362.581.451,1.15.4l.481-.039-.748-1.356.673-.054,1.8,3.225Zm-.669-1.564c-.544.045-.819.164-.629.519l.169.313c.16.3.448.437.962.394l.673-.057-.667-1.211Z" transform="translate(-1078.607 -5406.745)" fill="#1a2e35"/>
          <path id="Trazado_666523" data-name="Trazado 666523" d="M1077.095,5407.884l.656-.053,2.348,2.493-1.338-2.578.592-.047,1.7,3.25-.977.082-2.359-2.535.325,2.707-.985.083-1.595-3.278.651-.052,1.289,2.617Z" transform="translate(-1075.468 -5406.935)" fill="#1a2e35"/>
        </g>
        <line id="Línea_890" data-name="Línea 890" x1="19.348" y2="1.492" transform="translate(40.009 23.017)" fill="none" stroke="#1a2e35" stroke-miterlimit="10" stroke-width="0.5"/>
        <line id="Línea_891" data-name="Línea 891" x1="12.138" y2="0.936" transform="translate(23.628 24.836)" fill="none" stroke="#1a2e35" stroke-miterlimit="10" stroke-width="0.5"/>
        <line id="Línea_892" data-name="Línea 892" x1="9.999" y2="0.771" transform="translate(10.257 26.032)" fill="none" stroke="#1a2e35" stroke-miterlimit="10" stroke-width="0.5"/>
      </g>
      <g id="Grupo_989405" data-name="Grupo 989405" transform="translate(85.479)">
        <g id="Grupo_989401" data-name="Grupo 989401" transform="translate(0 43.156)">
          <path id="Trazado_666524" data-name="Trazado 666524" d="M1040.811,5208.269a79.622,79.622,0,0,0-12.128,4.695c-6.456,3.129-19.172,7.825-25.236,10.172s-9.781,8.412-10.955,11.346-6.26,15.455-6.26,15.455-10.759,16.823-13.5,20.932-6.456,9.781-6.651,15.063,2.739,8.216,9.585,8.216,9.781-2.347,13.107-5.868,14.085-20.736,15.65-22.693,5.869-9.39,5.869-9.39,2.152,19.367,2.152,25.432v14.28h61.622s2.934-21.519,3.521-23.279,5.087-14.476,5.087-14.476,16.209,26.223,18.948,29.744,10.454,10.945,18.035,7.974c7.608-2.982,6.027-11.1,1.919-20.885s-11.319-26.419-11.319-27.2-2.934-12.324-14.868-21.323-23.671-11.151-26.409-12.52S1057.44,5208.269,1040.811,5208.269Z" transform="translate(-966.073 -5208.269)" fill="#449c6e" stroke="#1a2e35" stroke-linecap="round" stroke-linejoin="round" stroke-width="1"/>
          <g id="Grupo_989400" data-name="Grupo 989400" transform="translate(7.834 13.302)">
            <path id="Trazado_666525" data-name="Trazado 666525" d="M1026.3,5268.269l7.629,11.933s-6.26-6.456-10.172-7.434" transform="translate(-997.737 -5246.358)" fill="none" stroke="#1a2e35" stroke-linecap="round" stroke-linejoin="round" stroke-width="1"/>
            <path id="Trazado_666526" data-name="Trazado 666526" d="M1032.689,5286.368l-4.5-1.565s-4.108-2.348-7.433-1.369" transform="translate(-996.498 -5252.524)" fill="none" stroke="#1a2e35" stroke-linecap="round" stroke-linejoin="round" stroke-width="1"/>
            <path id="Trazado_666527" data-name="Trazado 666527" d="M1080.962,5239.959c.44,3.219,1.457,7.223,3.791,9.962" transform="translate(-1021.37 -5234.663)" fill="none" stroke="#1a2e35" stroke-linecap="round" stroke-linejoin="round" stroke-width="1"/>
            <path id="Trazado_666528" data-name="Trazado 666528" d="M1080.416,5230.935s-.044,1.12.067,2.809" transform="translate(-1021.141 -5230.935)" fill="none" stroke="#1a2e35" stroke-linecap="round" stroke-linejoin="round" stroke-width="1"/>
            <path id="Trazado_666529" data-name="Trazado 666529" d="M1084.071,5260.928a17.559,17.559,0,0,0,1.771,1.569" transform="translate(-1022.655 -5243.325)" fill="none" stroke="#1a2e35" stroke-linecap="round" stroke-linejoin="round" stroke-width="1"/>
            <path id="Trazado_666530" data-name="Trazado 666530" d="M1074.756,5245.934a25.9,25.9,0,0,0,4.649,7.922" transform="translate(-1018.807 -5237.131)" fill="none" stroke="#1a2e35" stroke-linecap="round" stroke-linejoin="round" stroke-width="1"/>
            <path id="Trazado_666531" data-name="Trazado 666531" d="M1138.042,5320.415a22.755,22.755,0,0,1-3.62,4.8" transform="translate(-1043.456 -5267.901)" fill="none" stroke="#1a2e35" stroke-linecap="round" stroke-linejoin="round" stroke-width="1"/>
            <path id="Trazado_666532" data-name="Trazado 666532" d="M1151.234,5287.268s-4.546,10.279-8.792,17.628" transform="translate(-1046.769 -5254.207)" fill="none" stroke="#1a2e35" stroke-linecap="round" stroke-linejoin="round" stroke-width="1"/>
            <path id="Trazado_666533" data-name="Trazado 666533" d="M1122.414,5331.388c-.576.709-1.043,1.3-1.325,1.69" transform="translate(-1037.948 -5272.434)" fill="none" stroke="#1a2e35" stroke-linecap="round" stroke-linejoin="round" stroke-width="1"/>
            <path id="Trazado_666534" data-name="Trazado 666534" d="M1131.673,5316.269s-3.6,4.186-6.274,7.408" transform="translate(-1039.728 -5266.188)" fill="none" stroke="#1a2e35" stroke-linecap="round" stroke-linejoin="round" stroke-width="1"/>
            <path id="Trazado_666535" data-name="Trazado 666535" d="M1164.756,5282.8s8.607-13.694,9-14.868" transform="translate(-1055.988 -5246.22)" fill="none" stroke="#1a2e35" stroke-linecap="round" stroke-linejoin="round" stroke-width="1"/>
            <path id="Trazado_666536" data-name="Trazado 666536" d="M1175.97,5280.413c2.561-2.07,6.4-4.687,10.242-5.479" transform="translate(-1060.62 -5249.111)" fill="none" stroke="#1a2e35" stroke-linecap="round" stroke-linejoin="round" stroke-width="1"/>
            <path id="Trazado_666537" data-name="Trazado 666537" d="M1170.756,5287.71s.7-.719,1.87-1.739" transform="translate(-1058.466 -5253.671)" fill="none" stroke="#1a2e35" stroke-linecap="round" stroke-linejoin="round" stroke-width="1"/>
            <path id="Trazado_666538" data-name="Trazado 666538" d="M1184.132,5271.268a47.648,47.648,0,0,0-7.043,4.5" transform="translate(-1061.083 -5247.597)" fill="none" stroke="#1a2e35" stroke-linecap="round" stroke-linejoin="round" stroke-width="1"/>
            <path id="Trazado_666539" data-name="Trazado 666539" d="M1195.089,5319.854a11.063,11.063,0,0,1,10.564.587" transform="translate(-1068.519 -5267.231)" fill="none" stroke="#1a2e35" stroke-linecap="round" stroke-linejoin="round" stroke-width="1"/>
            <path id="Trazado_666540" data-name="Trazado 666540" d="M1198.089,5316.059s6.847-1.37,11.933,1.76" transform="translate(-1069.758 -5265.978)" fill="none" stroke="#1a2e35" stroke-linecap="round" stroke-linejoin="round" stroke-width="1"/>
            <path id="Trazado_666541" data-name="Trazado 666541" d="M979.422,5318.26a10.943,10.943,0,0,1,8.8-2.739" transform="translate(-979.422 -5265.833)" fill="none" stroke="#1a2e35" stroke-linecap="round" stroke-linejoin="round" stroke-width="1"/>
            <path id="Trazado_666542" data-name="Trazado 666542" d="M1000.061,5316.385a16.2,16.2,0,0,1,1.386,1.105" transform="translate(-987.948 -5266.236)" fill="none" stroke="#1a2e35" stroke-linecap="round" stroke-linejoin="round" stroke-width="1"/>
            <path id="Trazado_666543" data-name="Trazado 666543" d="M991.089,5312.6a9.542,9.542,0,0,1,3.212,1" transform="translate(-984.242 -5264.673)" fill="none" stroke="#1a2e35" stroke-linecap="round" stroke-linejoin="round" stroke-width="1"/>
          </g>
        </g>
        <g id="Grupo_989404" data-name="Grupo 989404" transform="translate(66.039)">
          <g id="Grupo_989403" data-name="Grupo 989403" transform="translate(3.206 20.071)">
            <path id="Trazado_666544" data-name="Trazado 666544" d="M1090.178,5212.078s-1.761,7.434-1.174,12.911,6.651,13.89,11.737,15.846,14.477-3.716,17.8-7.042,3.521-13.889,3.521-13.889-5.068-10.953-15.846-14.085S1090.178,5212.078,1090.178,5212.078Z" transform="translate(-1086.055 -5183.907)" fill="#ababab" stroke="#1a2e35" stroke-linecap="round" stroke-linejoin="round" stroke-width="1"/>
            <path id="Trazado_666545" data-name="Trazado 666545" d="M1154.469,5213.517a9.612,9.612,0,0,1-.943,6.927c-1.965,3.872-5.764,7.135-6.783,6.8s3.176-14.33,3.176-14.33S1152.7,5211.346,1154.469,5213.517Z" transform="translate(-1109.892 -5186.875)" fill="#ababab" stroke="#1a2e35" stroke-linecap="round" stroke-linejoin="round" stroke-width="1"/>
            <g id="Grupo_989402" data-name="Grupo 989402">
              <path id="Trazado_666546" data-name="Trazado 666546" d="M1085.483,5194.934a9.612,9.612,0,0,0-1.288,6.872c.644,4.294,3.22,8.588,4.294,8.588s1.5-14.6,1.5-14.6S1087.844,5193.431,1085.483,5194.934Z" transform="translate(-1084.063 -5179.468)" fill="#ababab" stroke="#1a2e35" stroke-linecap="round" stroke-linejoin="round" stroke-width="1"/>
              <path id="Trazado_666547" data-name="Trazado 666547" d="M1091.542,5189.982s-1.5,13.1.215,18.466,5.153,13.741,10.521,15.888,17.606-7.085,19.539-10.735,7.3-19.109,7.3-19.109a14.024,14.024,0,0,0,1.933-13.312c-2.792-7.729-17.822-12.453-24.049-12.238s-12.453,5.367-12.883,9.447A94.365,94.365,0,0,1,1091.542,5189.982Z" transform="translate(-1086.901 -5168.934)" fill="#ababab" stroke="#1a2e35" stroke-linecap="round" stroke-linejoin="round" stroke-width="1"/>
              <path id="Trazado_666548" data-name="Trazado 666548" d="M1109.4,5215.338s-4.723-5.8-9.018-3.865" transform="translate(-1090.806 -5186.344)" fill="none" stroke="#1a2e35" stroke-linecap="round" stroke-linejoin="round" stroke-width="2"/>
              <path id="Trazado_666549" data-name="Trazado 666549" d="M1128.555,5222.442s6.442-1.5,9.448,1.288" transform="translate(-1102.444 -5190.872)" fill="none" stroke="#1a2e35" stroke-linecap="round" stroke-linejoin="round" stroke-width="2"/>
              <path id="Trazado_666550" data-name="Trazado 666550" d="M1101.482,5220.531s1.379,4.1,6.977,3.637" transform="translate(-1091.259 -5190.25)" fill="none" stroke="#1a2e35" stroke-linecap="round" stroke-linejoin="round" stroke-width="1"/>
              <path id="Trazado_666551" data-name="Trazado 666551" d="M1127.824,5230.409s1.288,2.791,7.3,1.718" transform="translate(-1102.142 -5194.33)" fill="none" stroke="#1a2e35" stroke-linecap="round" stroke-linejoin="round" stroke-width="1"/>
              <path id="Trazado_666552" data-name="Trazado 666552" d="M1109.732,5237.064a3.743,3.743,0,0,0,.35,2.565c.7,1.05,2.45,2.566,3.733,2.566s3.966-.466,4.666-1.167a8.13,8.13,0,0,0,1.167-1.516" transform="translate(-1094.631 -5197.08)" fill="none" stroke="#1a2e35" stroke-linecap="round" stroke-linejoin="round" stroke-width="1"/>
              <path id="Trazado_666553" data-name="Trazado 666553" d="M1104.825,5243.622s2.916,3.383,5.366,4.2,7-.583,8.281-1.05" transform="translate(-1092.64 -5199.789)" fill="none" stroke="#1a2e35" stroke-linecap="round" stroke-linejoin="round" stroke-width="1"/>
            </g>
          </g>
          <path id="Trazado_666554" data-name="Trazado 666554" d="M1136.514,5161.071c-.2-1.407.8-3.417,1-4.624s-1.407-3.417-2.814-5.227a8.089,8.089,0,0,1-1.609-5.026c0-1.206-1.407-2.211-2.613-3.015a22.458,22.458,0,0,1-4.021-3.418c-.8-1-4.222-.8-4.825-.8s-3.217-2.211-4.825-3.016-4.825.6-4.825.6-3.819-1.809-4.624-1.809a25.58,25.58,0,0,0-4.221,1.407,17.934,17.934,0,0,1-3.5,1.1,3.442,3.442,0,0,0-.671-.112c-.449-.586-4.47,1.826-4.47,1.826l-3.619.6-1.342,2.179c-1.288.139-4.3.62-4.508,2.092-.268,1.876,0,2.68-.8,3.752s-3.753.8-2.948,3.217,2.68,4.288.268,5.629-3.752,3.753-2.412,5.093,2.412,3.216,2.145,4.288-.536,3.485.536,4.021a18.882,18.882,0,0,1,2.68,1.876l1.34,2.948.8,1.876s1.34-4.288,2.413-4.824,0,1.876,2.144,1.876,4.289-10.185,5.9-10.453,6.433,8.845,11.258,8.845,10.722-4.289,13.134-4.289.536,10.186.536,12.331.536,4.288.536,5.093,2.681-3.753,4.557-4.825c.519-.3,1.141-.656,1.791-1.064l-.028.146s6.635-4.222,7.439-5.629.2-2.613.2-3.82.8-2.211,1-4.021S1136.714,5162.478,1136.514,5161.071Z" transform="translate(-1078.6 -5134.734)" fill="#1a2e35" stroke="#1a2e35" stroke-linecap="round" stroke-linejoin="round" stroke-width="1"/>
        </g>
      </g>
      <line id="Línea_893" data-name="Línea 893" x1="258.57" transform="translate(0 130.753)" fill="none" stroke="#1a2e35" stroke-linecap="round" stroke-linejoin="round" stroke-width="1"/>
      <g id="Grupo_989406" data-name="Grupo 989406" transform="translate(148.314 112.252)">
        <path id="Trazado_666555" data-name="Trazado 666555" d="M1155.288,5327.395s-7.333-2.692-12.6-.586-17.642,7.11-26.069,8.689a109.812,109.812,0,0,1-23.961,1.58c-7.109-.264-11.059.79-12.639,2.106s-7.373,8.689-6.846,9.479,1.109,1.093,3.687.526c1.028-.227,3.95-3.423,3.95-3.423l5.266-2.37s-5.53,6.056-4.74,6.846,2.106-.263,3.16-1.053,3.16-2.633,3.16-2.633l4.74-2.106s-5,3.423-5,5,1.226.648,3.315-.187a24.08,24.08,0,0,0,2.819-2.084l3.963-1.116a17.4,17.4,0,0,0,8.294,1.975,12.7,12.7,0,0,0,8.2-3.063s18.432,2.633,27.648,1.844,20.8.263,25.542-3.161-1.316-12.375-1.843-13.165" transform="translate(-1073.14 -5326.003)" fill="#ababab" stroke="#1a2e35" stroke-linecap="round" stroke-linejoin="round" stroke-width="1"/>
        <path id="Trazado_666556" data-name="Trazado 666556" d="M1075.3,5358.776a18.172,18.172,0,0,1,1.961-4.045c.981-1.226,5.516-4.168,7.109-5.026a17.926,17.926,0,0,1,1.961-.98" transform="translate(-1074.03 -5335.39)" fill="none" stroke="#1a2e35" stroke-linecap="round" stroke-linejoin="round" stroke-width="1"/>
        <line id="Línea_894" data-name="Línea 894" y1="3.079" x2="4.631" transform="translate(12.936 14.315)" fill="none" stroke="#1a2e35" stroke-linecap="round" stroke-linejoin="round" stroke-width="1"/>
        <line id="Línea_895" data-name="Línea 895" y1="2.171" x2="4.318" transform="translate(19.256 16.276)" fill="none" stroke="#1a2e35" stroke-linecap="round" stroke-linejoin="round" stroke-width="1"/>
        <path id="Trazado_666557" data-name="Trazado 666557" d="M1187.986,5327.526c-3.918-.936-9.442-1.85-12.6-.587-4.676,1.871-14.955,6.023-23.1,8.036a7.216,7.216,0,0,1,1.883,4.616,17.848,17.848,0,0,1-.868,6.342c6.208.7,15.36,1.5,21.03,1.019,9.216-.79,20.8.263,25.542-3.16s-1.316-12.376-1.843-13.166" transform="translate(-1105.838 -5326.135)" fill="#449c6e" stroke="#1a2e35" stroke-linecap="round" stroke-linejoin="round" stroke-width="1"/>
      </g>
      <g id="Grupo_989408" data-name="Grupo 989408" transform="translate(85.408 109.042)">
        <path id="Trazado_666558" data-name="Trazado 666558" d="M971.98,5324.346c.494-1.334,4.108-4.52,8.97-3.668s10.393,6.252,13.545,10.41,5.676,5.272,5.676,5.272l-3.72,11.372s-2.286-.554-6.587-1.644-13.905-2.514-18.325-3.884-6.3-6.132-5.342-10.577a26.445,26.445,0,0,1,2.494-7.079" transform="translate(-965.952 -5320.535)" fill="#449c6e" stroke="#1a2e35" stroke-linecap="round" stroke-linejoin="round" stroke-width="1"/>
        <path id="Trazado_666559" data-name="Trazado 666559" d="M1006.956,5337.574c-.329-.435-.69-.884-1.068-1.339-2.751,1.1-6.24,3.124-8.089,6.692a12.73,12.73,0,0,0-1.492,8.4c2.355.446,4.514.869,6.019,1.251,4.3,1.09,6.587,1.643,6.587,1.643l3.72-11.372S1010.108,5341.732,1006.956,5337.574Z" transform="translate(-978.413 -5327.021)" fill="#ababab" stroke="#1a2e35" stroke-linecap="round" stroke-linejoin="round" stroke-width="1"/>
        <g id="Grupo_989407" data-name="Grupo 989407" transform="translate(26.802 3.376)">
          <path id="Trazado_666560" data-name="Trazado 666560" d="M1011.844,5352.276c-.247,1.759-.783,3.773,1.741,4.888s5.082,3.87,6.679,4.517a24.2,24.2,0,0,0,6.052,1.473,16.372,16.372,0,0,0,6.843-.251c3.2-.891,3.112-1.716,3.112-1.716a8.19,8.19,0,0,0,2.98-.407c.986-.484.294-1.708-.9-2.192s-2.66-1.123-2.66-1.123,1.816-1.683,1.361-2.1l-.455-.417s2.1.248,2.284-.424-1.137-3.622-1.663-6.113-1.64-2.151-3.663-2.551-4.786.107-8.423-.667-8.909.532-10.992,1.083" transform="translate(-1011.62 -5333.998)" fill="#ababab" stroke="#1a2e35" stroke-linecap="round" stroke-linejoin="round" stroke-width="1"/>
          <path id="Trazado_666561" data-name="Trazado 666561" d="M1036.188,5327.638l3.319,11.749,2.651,1.26-3.929-13.592a1.061,1.061,0,0,0-1.434-.683h0A1.062,1.062,0,0,0,1036.188,5327.638Z" transform="translate(-1021.753 -5326.287)" fill="#1a2e35"/>
          <path id="Trazado_666562" data-name="Trazado 666562" d="M1037.918,5347.058s5.812,3.1,6.212,3.258a36.73,36.73,0,0,1,3.686,6.514c.376.947-.052,1.5-.944,1.988l-1.2-.485-7.223-4.55-2.652-1.259" transform="translate(-1021.609 -5334.868)" fill="#ababab" stroke="#1a2e35" stroke-linecap="round" stroke-linejoin="round" stroke-width="1"/>
          <path id="Trazado_666563" data-name="Trazado 666563" d="M1032.508,5364.306s5.66,3.359,6.849,3.98,5.542.895,5.542.895" transform="translate(-1020.25 -5341.994)" fill="none" stroke="#1a2e35" stroke-linecap="round" stroke-linejoin="round" stroke-width="1"/>
          <path id="Trazado_666564" data-name="Trazado 666564" d="M1028.9,5369.894s4.751,2.621,5.686,2.952,2.949.869,2.949.869" transform="translate(-1018.759 -5344.302)" fill="none" stroke="#1a2e35" stroke-linecap="round" stroke-linejoin="round" stroke-width="1"/>
        </g>
      </g>
    </g>
    <g id="Grupo_989411" data-name="Grupo 989411" transform="translate(830.157 5174.572)">
      <g id="Grupo_989410" data-name="Grupo 989410" transform="translate(0 0)">
        <path id="Trazado_666565" data-name="Trazado 666565" d="M947.912,5390.906l21.668-19.926-47.739-3.08Z" transform="translate(-875.819 -5334.939)" fill="#ccc" stroke="#1a2e35" stroke-linecap="round" stroke-linejoin="round" stroke-width="1"/>
        <path id="Trazado_666566" data-name="Trazado 666566" d="M963.615,5393.277l9.753-9.24-11.293-.685Z" transform="translate(-892.441 -5341.323)" fill="#1a2e35" stroke="#1a2e35" stroke-linecap="round" stroke-linejoin="round" stroke-width="1"/>
        <path id="Trazado_666567" data-name="Trazado 666567" d="M848.165,5311.737l71.461,3.162-4.111,52.806-72.093-3.478Z" transform="translate(-843.422 -5311.737)" fill="#a6a6a6" stroke="#1a2e35" stroke-linecap="round" stroke-linejoin="round" stroke-width="1"/>
      </g>
      <path id="Trazado_666568" data-name="Trazado 666568" d="M843.964,5360.709c4.223-.62,11.354-2.284,23.4-6.18,28.669-9.275,32.252-35.2,52.489-39.631l-71.461-3.162Z" transform="translate(-843.646 -5311.737)" fill="#1a2e35" stroke="#1a2e35" stroke-linecap="round" stroke-linejoin="round" stroke-width="1"/>
      <ellipse id="Elipse_7845" data-name="Elipse 7845" cx="5.481" cy="4.216" rx="5.481" ry="4.216" transform="translate(32.147 22.556)" fill="#fff" stroke="#1a2e35" stroke-linecap="round" stroke-linejoin="round" stroke-width="1"/>
    </g>
  </g>
</svg>
