<svg xmlns="http://www.w3.org/2000/svg" width="183.885" height="196.193" viewBox="0 0 183.885 196.193">
  <g id="Grupo_988382" data-name="Grupo 988382" transform="translate(-626.24 -4500.199)">
    <g id="Grupo_988347" data-name="Grupo 988347">
      <path id="Trazado_666075" data-name="Trazado 666075" d="M810.125,4648.816l-4.757,12.516a6.788,6.788,0,0,0-5.265,0l-4.756-12.516a31.047,31.047,0,0,1,14.778,0Z" fill="#f8c78d"/>
      <path id="Trazado_666076" data-name="Trazado 666076" d="M805.368,4661.332l-2.631,6.928-2.634-6.928a6.788,6.788,0,0,1,5.265,0Z" fill="#2c3d4f"/>
      <path id="Trazado_666077" data-name="Trazado 666077" d="M810.125,4577.238v2.473H795.347v-2.473a3.378,3.378,0,0,1,3.105-3.6h8.568A3.378,3.378,0,0,1,810.125,4577.238Z" fill="#f16d61"/>
      <path id="Trazado_666078" data-name="Trazado 666078" d="M810.125,4583.891v64.925a30.289,30.289,0,0,0-7.388-.892h0a30.3,30.3,0,0,0-7.388.892v-64.925Z" fill="#367c58"/>
      <path id="Trazado_666079" data-name="Trazado 666079" d="M810.125,4583.891v64.925a30.289,30.289,0,0,0-7.388-.892v-64.033Z" fill="#285d42"/>
      <rect id="Rectángulo_311215" data-name="Rectángulo 311215" width="14.778" height="4.18" transform="translate(795.347 4579.711)" fill="#e6e6e6"/>
    </g>
    <g id="Grupo_988371" data-name="Grupo 988371">
      <rect id="Rectángulo_311216" data-name="Rectángulo 311216" width="106.328" height="148.412" transform="translate(680.557 4519.848)" fill="#fff"/>
      <g id="Grupo_988348" data-name="Grupo 988348">
        <rect id="Rectángulo_311217" data-name="Rectángulo 311217" width="33.382" height="8.108" rx="4.054" transform="translate(759.444 4624.647) rotate(90)" fill="#e57e22"/>
        <rect id="Rectángulo_311218" data-name="Rectángulo 311218" width="33.382" height="8.108" rx="4.054" transform="translate(744.998 4624.647) rotate(90)" fill="#ff856d"/>
        <rect id="Rectángulo_311219" data-name="Rectángulo 311219" width="33.382" height="8.108" rx="4.054" transform="translate(730.552 4624.647) rotate(90)" fill="#3497da"/>
        <rect id="Rectángulo_311220" data-name="Rectángulo 311220" width="33.382" height="8.108" rx="4.054" transform="translate(716.105 4624.647) rotate(90)" fill="#74b4a3"/>
        <circle id="Elipse_7819" data-name="Elipse 7819" cx="3.312" cy="3.312" r="3.312" transform="translate(708.254 4651.077) rotate(-80.824)" fill="#fff"/>
        <circle id="Elipse_7820" data-name="Elipse 7820" cx="3.312" cy="3.312" r="3.312" transform="translate(723.186 4640.192)" fill="#fff"/>
        <circle id="Elipse_7821" data-name="Elipse 7821" cx="3.312" cy="3.312" r="3.312" transform="translate(737.146 4640.839) rotate(-80.824)" fill="#fff"/>
        <circle id="Elipse_7822" data-name="Elipse 7822" cx="3.312" cy="3.312" r="3.312" transform="translate(751.592 4631.159) rotate(-80.824)" fill="#fff"/>
      </g>
      <rect id="Rectángulo_311221" data-name="Rectángulo 311221" width="50.228" height="7.357" rx="3.679" transform="translate(708.606 4530)" fill="#449c6e"/>
      <g id="Grupo_988370" data-name="Grupo 988370">
        <g id="Grupo_988365" data-name="Grupo 988365">
          <g id="Grupo_988356" data-name="Grupo 988356">
            <g id="Grupo_988349" data-name="Grupo 988349">
              <rect id="Rectángulo_311222" data-name="Rectángulo 311222" width="0.326" height="62.54" transform="translate(700.911 4551.756)" fill="#b3b3b3"/>
            </g>
            <g id="Grupo_988350" data-name="Grupo 988350">
              <rect id="Rectángulo_311223" data-name="Rectángulo 311223" width="0.326" height="62.54" transform="translate(709.545 4551.756)" fill="#b3b3b3"/>
            </g>
            <g id="Grupo_988351" data-name="Grupo 988351">
              <rect id="Rectángulo_311224" data-name="Rectángulo 311224" width="0.326" height="62.54" transform="translate(718.179 4551.756)" fill="#b3b3b3"/>
            </g>
            <g id="Grupo_988352" data-name="Grupo 988352">
              <rect id="Rectángulo_311225" data-name="Rectángulo 311225" width="0.326" height="62.54" transform="translate(726.813 4551.756)" fill="#b3b3b3"/>
            </g>
            <g id="Grupo_988353" data-name="Grupo 988353">
              <rect id="Rectángulo_311226" data-name="Rectángulo 311226" width="0.326" height="62.54" transform="translate(735.447 4551.756)" fill="#b3b3b3"/>
            </g>
            <g id="Grupo_988354" data-name="Grupo 988354">
              <rect id="Rectángulo_311227" data-name="Rectángulo 311227" width="0.326" height="62.54" transform="translate(744.08 4551.756)" fill="#b3b3b3"/>
            </g>
            <g id="Grupo_988355" data-name="Grupo 988355">
              <rect id="Rectángulo_311228" data-name="Rectángulo 311228" width="0.326" height="62.54" transform="translate(752.714 4551.756)" fill="#b3b3b3"/>
            </g>
          </g>
          <g id="Grupo_988364" data-name="Grupo 988364">
            <g id="Grupo_988357" data-name="Grupo 988357">
              <rect id="Rectángulo_311229" data-name="Rectángulo 311229" width="62.54" height="0.326" transform="translate(695.706 4556.962)" fill="#b3b3b3"/>
            </g>
            <g id="Grupo_988358" data-name="Grupo 988358">
              <rect id="Rectángulo_311230" data-name="Rectángulo 311230" width="62.54" height="0.326" transform="translate(695.706 4565.596)" fill="#b3b3b3"/>
            </g>
            <g id="Grupo_988359" data-name="Grupo 988359">
              <rect id="Rectángulo_311231" data-name="Rectángulo 311231" width="62.54" height="0.326" transform="translate(695.706 4574.229)" fill="#b3b3b3"/>
            </g>
            <g id="Grupo_988360" data-name="Grupo 988360">
              <rect id="Rectángulo_311232" data-name="Rectángulo 311232" width="62.54" height="0.326" transform="translate(695.706 4582.863)" fill="#b3b3b3"/>
            </g>
            <g id="Grupo_988361" data-name="Grupo 988361">
              <rect id="Rectángulo_311233" data-name="Rectángulo 311233" width="62.54" height="0.326" transform="translate(695.706 4591.497)" fill="#b3b3b3"/>
            </g>
            <g id="Grupo_988362" data-name="Grupo 988362">
              <rect id="Rectángulo_311234" data-name="Rectángulo 311234" width="62.54" height="0.326" transform="translate(695.706 4600.131)" fill="#b3b3b3"/>
            </g>
            <g id="Grupo_988363" data-name="Grupo 988363">
              <rect id="Rectángulo_311235" data-name="Rectángulo 311235" width="62.54" height="0.326" transform="translate(695.706 4608.765)" fill="#b3b3b3"/>
            </g>
          </g>
        </g>
        <g id="Grupo_988367" data-name="Grupo 988367">
          <g id="Grupo_988366" data-name="Grupo 988366">
            <path id="Trazado_666080" data-name="Trazado 666080" d="M761.335,4616.508H693.527V4548.3h2.212V4614.3h65.6Z" fill="#32526e"/>
          </g>
        </g>
        <path id="Trazado_666081" data-name="Trazado 666081" d="M688.768,4552.146l5.865-10.159,5.865,10.159Z" fill="#32526e"/>
        <path id="Trazado_666082" data-name="Trazado 666082" d="M759.431,4609.537l10.159,5.865-10.159,5.865Z" fill="#32526e"/>
        <g id="Grupo_988368" data-name="Grupo 988368">
          <path id="Trazado_666083" data-name="Trazado 666083" d="M736.774,4606.625l-15.088-30.365-15.332,15.693-1.055-1.03,16.783-17.179,14.4,28.99,15.205-46.842,1.4.456Z" fill="#c0382a"/>
        </g>
        <g id="Grupo_988369" data-name="Grupo 988369">
          <path id="Trazado_666084" data-name="Trazado 666084" d="M706.226,4604.254l-.8-1.24,16.176-10.425,14.67-2.9,15.606-15.22,1.03,1.056-15.92,15.526-14.823,2.925Z" fill="#f39c11"/>
        </g>
        <circle id="Elipse_7823" data-name="Elipse 7823" cx="2.91" cy="2.91" r="2.91" transform="translate(702.486 4606.039) rotate(-80.746)" fill="#74b4a3"/>
        <circle id="Elipse_7824" data-name="Elipse 7824" cx="2.91" cy="2.91" r="2.91" transform="translate(718.974 4590.375)" fill="#3497da"/>
        <circle id="Elipse_7825" data-name="Elipse 7825" cx="2.91" cy="2.91" r="2.91" transform="matrix(0.923, -0.386, 0.386, 0.923, 732.823, 4588.812)" fill="#ff856d"/>
        <circle id="Elipse_7826" data-name="Elipse 7826" cx="2.91" cy="2.91" r="2.91" transform="translate(749.484 4572.091)" fill="#e57e22"/>
        <circle id="Elipse_7827" data-name="Elipse 7827" cx="2.91" cy="2.91" r="2.91" transform="translate(702.487 4593.842) rotate(-80.746)" fill="#74b4a3"/>
        <circle id="Elipse_7828" data-name="Elipse 7828" cx="2.91" cy="2.91" r="2.91" transform="translate(718.974 4572.091)" fill="#3497da"/>
        <circle id="Elipse_7829" data-name="Elipse 7829" cx="2.91" cy="2.91" r="2.91" transform="translate(733.721 4601.768)" fill="#ff856d"/>
        <circle id="Elipse_7830" data-name="Elipse 7830" cx="2.91" cy="2.91" r="2.91" transform="translate(749.484 4553.208)" fill="#e57e22"/>
      </g>
    </g>
    <g id="Grupo_988378" data-name="Grupo 988378">
      <path id="Trazado_666085" data-name="Trazado 666085" d="M630.091,4696.393h68.357a3.028,3.028,0,0,0,3.028-3.027v-58.3H627.063v58.3A3.028,3.028,0,0,0,630.091,4696.393Z" fill="#32526e"/>
      <rect id="Rectángulo_311236" data-name="Rectángulo 311236" width="24.898" height="24.898" rx="11.173" transform="translate(668.307 4668.28)" fill="#367c58"/>
      <path id="Trazado_666086" data-name="Trazado 666086" d="M701.476,4603.921a3.028,3.028,0,0,0-3.028-3.028H630.091a3.028,3.028,0,0,0-3.028,3.028v31.149h74.413Z" fill="#32526e"/>
      <path id="Trazado_666087" data-name="Trazado 666087" d="M657.8,4648.756v4.767h-7.226v7.227h-4.767v-7.227H638.58v-4.767h7.226v-7.224h4.767v7.224Z" fill="#32526e"/>
      <rect id="Rectángulo_311237" data-name="Rectángulo 311237" width="24.898" height="24.898" rx="11.173" transform="translate(635.334 4668.28)" fill="#fff"/>
      <rect id="Rectángulo_311238" data-name="Rectángulo 311238" width="24.898" height="24.898" rx="11.173" transform="translate(668.307 4638.285)" fill="#fff"/>
      <g id="Grupo_988372" data-name="Grupo 988372">
        <path id="Trazado_666088" data-name="Trazado 666088" d="M638.58,4678.752v4.766H657.8v-4.766Z" fill="#32526e"/>
      </g>
      <path id="Trazado_666089" data-name="Trazado 666089" d="M657.8,4648.756v4.767h-7.226v7.227h-4.767v-7.227H638.58v-4.767h7.226v-7.224h4.767v7.224Z" fill="#32526e"/>
      <g id="Grupo_988375" data-name="Grupo 988375">
        <g id="Grupo_988373" data-name="Grupo 988373">
          <path id="Trazado_666090" data-name="Trazado 666090" d="M671.554,4683.182v4.768h19.217v-4.768Z" fill="#fff"/>
        </g>
        <g id="Grupo_988374" data-name="Grupo 988374">
          <path id="Trazado_666091" data-name="Trazado 666091" d="M671.554,4674.32v4.768h19.217v-4.768Z" fill="#fff"/>
        </g>
      </g>
      <path id="Trazado_666092" data-name="Trazado 666092" d="M689.811,4655.843l-3.946,3.946-5.109-5.109-5.109,5.109-3.134-3.134,5.109-5.109-5.109-5.109,3.946-3.946,4.3,4.3.812.812,5.109-5.109,3.134,3.134-5.109,5.109Z" fill="#32526e"/>
      <path id="Trazado_666093" data-name="Trazado 666093" d="M694.718,4609.9a3.712,3.712,0,0,0-3.494-2.467H637.559a3.707,3.707,0,0,0-3.708,3.707v16.34a3.7,3.7,0,0,0,3.708,3.707h53.665a3.71,3.71,0,0,0,3.708-3.707v-16.34A3.694,3.694,0,0,0,694.718,4609.9Z" fill="#fff"/>
      <g id="Grupo_988377" data-name="Grupo 988377">
        <g id="Grupo_988376" data-name="Grupo 988376">
          <path id="Trazado_666094" data-name="Trazado 666094" d="M679.06,4611.538l2.387,2.387h4.54l2.387-2.387Z" fill="#32526e"/>
          <path id="Trazado_666095" data-name="Trazado 666095" d="M685.987,4619.314h-4.54l-1.193,1.193,1.193,1.193h4.54l1.193-1.193Z" fill="#32526e"/>
          <path id="Trazado_666096" data-name="Trazado 666096" d="M685.986,4627.09h-4.54l-2.387,2.387h9.313Z" fill="#32526e"/>
          <path id="Trazado_666097" data-name="Trazado 666097" d="M687.6,4620.932l-1.193,1.193v4.54l2.387,2.387v-6.926Z" fill="#32526e"/>
          <path id="Trazado_666098" data-name="Trazado 666098" d="M666.751,4620.083l1.193-1.193v-4.54l-2.387-2.387v6.926Z" fill="#32526e"/>
          <path id="Trazado_666099" data-name="Trazado 666099" d="M665.982,4611.538l2.387,2.387h4.54l2.387-2.387Z" fill="#32526e"/>
          <path id="Trazado_666100" data-name="Trazado 666100" d="M652.9,4611.538l2.387,2.387h4.54l2.387-2.387Z" fill="#32526e"/>
          <path id="Trazado_666101" data-name="Trazado 666101" d="M672.909,4619.314h-4.54l-1.193,1.193,1.193,1.193h4.54l1.193-1.193Z" fill="#32526e"/>
          <path id="Trazado_666102" data-name="Trazado 666102" d="M672.909,4627.09h-4.54l-2.387,2.387H675.3Z" fill="#32526e"/>
          <path id="Trazado_666103" data-name="Trazado 666103" d="M674.527,4620.932l-1.193,1.193v4.54l2.387,2.387v-6.926Z" fill="#32526e"/>
          <path id="Trazado_666104" data-name="Trazado 666104" d="M660.256,4618.889l1.193,1.193,1.193-1.193v-6.926l-2.387,2.387Z" fill="#32526e"/>
          <path id="Trazado_666105" data-name="Trazado 666105" d="M686.411,4618.889l1.193,1.193,1.193-1.193v-6.926l-2.387,2.387Z" fill="#32526e"/>
          <path id="Trazado_666106" data-name="Trazado 666106" d="M673.333,4618.889l1.193,1.193,1.193-1.193v-6.926l-2.387,2.387Z" fill="#32526e"/>
          <path id="Trazado_666107" data-name="Trazado 666107" d="M661.449,4620.932l-1.193,1.193v4.54l2.387,2.387v-6.926Z" fill="#32526e"/>
        </g>
      </g>
      <path id="Trazado_666108" data-name="Trazado 666108" d="M657.655,4638.283H637.911a2.579,2.579,0,0,0-2.578,2.578V4660.6a2.577,2.577,0,0,0,2.578,2.577h19.744a2.575,2.575,0,0,0,2.577-2.577v-19.744A2.577,2.577,0,0,0,657.655,4638.283Zm.145,15.24h-7.227v7.227h-4.767v-7.227H638.58v-4.767h7.226v-7.224h4.767v7.224H657.8Z" fill="#fff"/>
    </g>
    <g id="Grupo_988379" data-name="Grupo 988379">
      <path id="Trazado_666109" data-name="Trazado 666109" d="M660.544,4567.09,635.732,4591.9a5.571,5.571,0,0,1-7.84.023l-.026-.024a5.568,5.568,0,0,1,0-7.865l24.812-24.813a1.591,1.591,0,0,1,2.25,0l5.616,5.616A1.591,1.591,0,0,1,660.544,4567.09Z" fill="#1e3e57"/>
      <circle id="Elipse_7831" data-name="Elipse 7831" cx="18.298" cy="18.298" r="18.298" transform="translate(659.662 4523.561)" fill="#a6ede7" opacity="0.25"/>
      <path id="Trazado_666110" data-name="Trazado 666110" d="M690.98,4530.437a17.166,17.166,0,0,0-24.6,23.864q-.354-.324-.692-.672l-.024-.024A17.166,17.166,0,1,1,690.3,4529.7c.008.008.015.018.023.025Q690.666,4530.072,690.98,4530.437Z" opacity="0.34"/>
      <path id="Trazado_666111" data-name="Trazado 666111" d="M666.143,4537.292a14.934,14.934,0,0,0-1.131,6.609,20.309,20.309,0,0,1,1.036-3.224,20.105,20.105,0,0,1,16.923-12.313A15,15,0,0,0,666.143,4537.292Z" fill="#fff"/>
      <path id="Trazado_666112" data-name="Trazado 666112" d="M668.471,4560.4a20.994,20.994,0,0,0,24.447-33.5.177.177,0,0,1-.023-.024,20.995,20.995,0,0,0-33.528,24.424c-.029.026-.061.049-.087.076a2.814,2.814,0,0,0-.12,3.84l5.4,5.4a2.811,2.811,0,0,0,3.838-.12C668.422,4560.459,668.445,4560.43,668.471,4560.4Zm-2.532-6.522c-.009-.009-.018-.014-.027-.023a17.166,17.166,0,0,1,24.275-24.278l.026.026a17.165,17.165,0,0,1-24.274,24.275Z" fill="#1e3e57"/>
      <path id="Trazado_666113" data-name="Trazado 666113" d="M660.534,4564.83l-5.6-5.6,3.393-3.394a3.932,3.932,0,0,1,.829-.627l5.4,5.4a3.924,3.924,0,0,1-.63.829Z" fill="#162f41"/>
      <rect id="Rectángulo_311239" data-name="Rectángulo 311239" width="6.344" height="11.125" transform="translate(642.905 4568.996) rotate(-45)" fill="#f45c75"/>
    </g>
    <g id="Grupo_988381" data-name="Grupo 988381">
      <rect id="Rectángulo_311240" data-name="Rectángulo 311240" width="98.417" height="7.65" transform="translate(684.512 4500.199)" fill="#449c6e"/>
      <rect id="Rectángulo_311241" data-name="Rectángulo 311241" width="98.417" height="7.063" transform="translate(684.512 4507.849)" fill="#285d42"/>
      <g id="Grupo_988380" data-name="Grupo 988380">
        <rect id="Rectángulo_311242" data-name="Rectángulo 311242" width="0.323" height="2.702" transform="translate(752.93 4511.006)" fill="#231f20"/>
        <rect id="Rectángulo_311243" data-name="Rectángulo 311243" width="0.323" height="1.351" transform="translate(757.772 4512.357)" fill="#231f20"/>
        <rect id="Rectángulo_311244" data-name="Rectángulo 311244" width="0.323" height="2.702" transform="translate(762.613 4511.006)" fill="#231f20"/>
        <path id="Trazado_666114" data-name="Trazado 666114" d="M781.65,4513.708h-4.188v-1.352h-.323v1.352H772.62v-2.7H772.3v2.7h-4.518v-1.351h-.323v1.351H748.411v-1.351h-.323v1.351h-4.519v-2.7h-.323v2.7h-4.188v-1.352h-.323v1.352h-4.519v-2.7h-.323v2.7h-4.518v-1.351h-.323v1.351h-9.36v-1.351h-.323v1.352h-4.518v-2.7h-.323v2.7h-4.518v-1.351h-.323v1.351h-4.518v-2.7h-.323v2.7h-14.2v-1.351h-.323v1.351H685.8v-2.7h-.323v2.7h-.007v.338h96.506v-3.04h-.323Z" fill="#231f20"/>
        <rect id="Rectángulo_311245" data-name="Rectángulo 311245" width="0.323" height="2.702" transform="translate(724.209 4511.006)" fill="#231f20"/>
        <rect id="Rectángulo_311246" data-name="Rectángulo 311246" width="0.323" height="2.702" transform="translate(695.159 4511.006)" fill="#231f20"/>
        <rect id="Rectángulo_311247" data-name="Rectángulo 311247" width="0.323" height="1.351" transform="translate(700 4512.357)" fill="#231f20"/>
      </g>
    </g>
  </g>
</svg>
