<svg id="Grupo_91379" data-name="Grupo 91379" xmlns="http://www.w3.org/2000/svg" width="85" height="85" viewBox="0 0 85 85">
  <rect id="Rectángulo_34178" data-name="Rectángulo 34178" width="85" height="85" fill="none"/>
  <g id="Send_package" data-name="Send package" transform="translate(11.104 9.931)">
    <path id="Trazado_653550" data-name="Trazado 653550" d="M38.412,44.132a2.042,2.042,0,0,0-1.027.008L21.04,48.52a3.067,3.067,0,0,0-2.15,2.116L7.93,44.311a3.082,3.082,0,1,0-3.08,5.339l18.2,10.5a2.053,2.053,0,0,0,1.027.275H41.52a2.053,2.053,0,0,0,.918-.217l3.674-1.837V46.056Z" transform="translate(0.027 1.117)" fill="#ffbcab"/>
    <path id="Trazado_653551" data-name="Trazado 653551" d="M5,11.213H19.373L21.427,3H9.107Z" transform="translate(0.072 0.027)" fill="#a97c50"/>
    <path id="Trazado_653552" data-name="Trazado 653552" d="M41.427,11.213,37.32,3H25l2.053,8.213Z" transform="translate(0.605 0.027)" fill="#a97c50"/>
    <path id="Trazado_653553" data-name="Trazado 653553" d="M53.213,43H45V61.48h8.213V43Z" transform="translate(1.138 1.093)" fill="#006df0"/>
    <path id="Trazado_653554" data-name="Trazado 653554" d="M53,45h8.213V59.373H53Z" transform="translate(1.352 1.147)" fill="#2488ff"/>
    <path id="Trazado_653555" data-name="Trazado 653555" d="M5,11H41.96V39.747H5Z" transform="translate(0.072 0.24)" fill="#bc9977"/>
    <path id="Trazado_653556" data-name="Trazado 653556" d="M23.107,21.267l4.107,2.053V11H19V23.32Z" transform="translate(0.445 0.24)" fill="#ff9811"/>
    <path id="Trazado_653557" data-name="Trazado 653557" d="M27.213,11.213,25.16,3H21.053L19,11.213Z" transform="translate(0.445 0.027)" fill="#ee8700"/>
    <path id="Trazado_653558" data-name="Trazado 653558" d="M39.907,11V29.48a6.16,6.16,0,0,1-6.16,6.16H5v4.107H41.96V11Z" transform="translate(0.072 0.24)" fill="#b38b63"/>
    <path id="Trazado_653559" data-name="Trazado 653559" d="M53,45h3.08V59.373H53Z" transform="translate(1.352 1.147)" fill="#005ece"/>
    <g id="Grupo_979518" data-name="Grupo 979518" transform="translate(2.305 2)">
      <path id="Trazado_653560" data-name="Trazado 653560" d="M62.565,44.053H55.378V43.027A1.027,1.027,0,0,0,54.352,42H46.138a1.027,1.027,0,0,0-1.027,1.027v1.765l-6.423-1.606a3.092,3.092,0,0,0-1.54.013L20.8,47.579a4.07,4.07,0,0,0-2.319,1.672L8.468,43.471a4.109,4.109,0,0,0-4.107,7.118L22.561,61.1a3.08,3.08,0,0,0,1.54.411H41.547a3.094,3.094,0,0,0,1.377-.324l2.188-1.094v1.419a1.027,1.027,0,0,0,1.027,1.027h8.213a1.027,1.027,0,0,0,1.027-1.027V60.48h7.187a1.027,1.027,0,0,0,1.027-1.027V45.08a1.027,1.027,0,0,0-1.027-1.027Zm-20.559,15.3a1.043,1.043,0,0,1-.459.1H24.1a1.027,1.027,0,0,1-.513-.138l-18.2-10.5A2.061,2.061,0,0,1,4.649,46a2.088,2.088,0,0,1,2.795-.75l10.343,5.971a4.088,4.088,0,0,0,5.141,4.29l12.243-3.28a1.027,1.027,0,1,0-.531-1.984L22.395,53.537a2.053,2.053,0,1,1-1.063-3.966l16.347-4.388a1.027,1.027,0,0,1,.513,0l6.92,1.726V57.791ZM53.325,60.48h-6.16V44.053h6.16Zm8.213-2.053h-6.16V46.107h6.16Z" transform="translate(-2.305 -0.933)" fill="#231f20"/>
      <path id="Trazado_653561" data-name="Trazado 653561" d="M42.911,10.781,38.8,2.568A1.027,1.027,0,0,0,37.88,2H9.133a1.027,1.027,0,0,0-.919.568L4.108,10.781A1.827,1.827,0,0,0,4,11.24V39.987a1.027,1.027,0,0,0,1.027,1.027h36.96a1.027,1.027,0,0,0,1.027-1.027V11.24a1.827,1.827,0,0,0-.1-.459Zm-2.585-.568H28.414l-1.54-6.16H37.243Zm-19.9,2.053h6.16V21.9l-2.621-1.311a1.027,1.027,0,0,0-.918,0L20.427,21.9Zm4.332-8.213,1.54,6.16H20.715l1.54-6.16Zm-14.99,0H20.137l-1.54,6.16H6.688ZM40.96,38.96H6.053V12.267h12.32V23.56a1.027,1.027,0,0,0,1.486.919l3.648-1.824,3.648,1.83a1.027,1.027,0,0,0,1.486-.924V12.267H40.96Z" transform="translate(-2.26 -2)" fill="#231f20"/>
    </g>
  </g>
</svg>
