<svg xmlns="http://www.w3.org/2000/svg" width="276.653" height="150.333" viewBox="0 0 276.653 150.333">
  <g id="Grupo_1004457" data-name="Grupo 1004457" transform="translate(-673.565 -526.235)">
    <rect id="Rectángulo_311434" data-name="Rectángulo 311434" width="18.235" height="141.14" transform="translate(864.349 534.305)" fill="#e3f0e9" opacity="0.6"/>
    <rect id="Rectángulo_311435" data-name="Rectángulo 311435" width="18.234" height="98.089" transform="translate(838.884 577.356)" fill="#e3f0e9" opacity="0.6"/>
    <rect id="Rectángulo_311436" data-name="Rectángulo 311436" width="18.234" height="110.561" transform="translate(890.181 564.884)" fill="#e3f0e9" opacity="0.6"/>
    <rect id="Rectángulo_311437" data-name="Rectángulo 311437" width="18.235" height="114.909" transform="translate(813.419 560.536)" fill="#e3f0e9" opacity="0.6"/>
    <rect id="Rectángulo_311438" data-name="Rectángulo 311438" width="18.235" height="80.839" transform="translate(787.953 594.606)" fill="#e3f0e9" opacity="0.6"/>
    <g id="Grupo_1004424" data-name="Grupo 1004424" transform="translate(787.953 566.834)">
      <rect id="Rectángulo_311439" data-name="Rectángulo 311439" width="18.235" height="108.611" transform="translate(76.396 0)" fill="#bddccc" opacity="0.3" style="mix-blend-mode: multiply;isolation: isolate"/>
      <rect id="Rectángulo_311440" data-name="Rectángulo 311440" width="18.234" height="75.482" transform="translate(50.931 33.129)" fill="#bddccc" opacity="0.3" style="mix-blend-mode: multiply;isolation: isolate"/>
      <rect id="Rectángulo_311441" data-name="Rectángulo 311441" width="18.234" height="85.08" transform="translate(102.228 23.532)" fill="#bddccc" opacity="0.3" style="mix-blend-mode: multiply;isolation: isolate"/>
      <rect id="Rectángulo_311442" data-name="Rectángulo 311442" width="18.235" height="88.426" transform="translate(25.465 20.186)" fill="#bddccc" opacity="0.3" style="mix-blend-mode: multiply;isolation: isolate"/>
      <rect id="Rectángulo_311443" data-name="Rectángulo 311443" width="18.235" height="62.208" transform="translate(0 46.403)" fill="#bddccc" opacity="0.3" style="mix-blend-mode: multiply;isolation: isolate"/>
    </g>
    <path id="Trazado_673346" data-name="Trazado 673346" d="M1017.267,543.38l-14.53,10.989,5.542.353-34.685,61.045-19.2-28.792-27.167,63.368-17.474-24.82-21.78,30.787,1.371,5.51,20.4-28.7,18.471,26.236,27.067-63.136,18.633,27.936,38.4-67.583,3.565,3.834Z" transform="translate(-99.988 -7.996)" fill="#367c58"/>
    <g id="Grupo_1004426" data-name="Grupo 1004426" transform="translate(691.055 571.337)">
      <path id="Trazado_673347" data-name="Trazado 673347" d="M786.653,674.049c-20.851-16.6-38.37-38.08-51.635-63.3L706.339,633.79c15.338,29.156,35.594,53.987,59.7,73.185Z" transform="translate(-706.339 -610.752)" fill="#3c8f7c"/>
      <path id="Trazado_673348" data-name="Trazado 673348" d="M735.043,622.035l-17.814,14.539a6.72,6.72,0,0,1-1.206,8,227.806,227.806,0,0,0,50.057,61.361,4.564,4.564,0,0,1,6.82-1.115l13-20.444c-2-1.628-2.292-4.953-.684-7.366a200.032,200.032,0,0,1-43.958-53.885A3.888,3.888,0,0,1,735.043,622.035Z" transform="translate(-710.855 -616.014)" fill="#96d9c9"/>
      <g id="Grupo_1004425" data-name="Grupo 1004425" transform="translate(28.007 37.321)">
        <path id="Trazado_673349" data-name="Trazado 673349" d="M779,703.886c4.452-5.745,4.409-14.221.21-19.292s-11.405-5.3-16.382-.182a15.375,15.375,0,0,0-.71,19.866C766.846,709.977,774.557,709.622,779,703.886Z" transform="translate(-758.82 -680.687)" fill="#50bfa5"/>
        <path id="Trazado_673350" data-name="Trazado 673350" d="M783.076,691.8l-1.678,1.863a5.738,5.738,0,0,1-.388,6.644c-1.457,1.668-3.088,1.822-5.575.349-1.806-1.02-2.674-1.321-3.224-.725-.466.5-.62,1.417.367,2.664a6.8,6.8,0,0,0,1.546,1.447,1.673,1.673,0,0,1,.442,2.123h0a1.2,1.2,0,0,1-1.781.517,9.487,9.487,0,0,1-1.628-1.511l-1.453,1.6q-.76-.953-1.511-1.917l1.581-1.714c-1.279-2.469-1.025-4.923.459-6.48,1.637-1.721,3.531-1.192,5.7.17,1.505.939,2.378,1.088,3,.394.657-.733.443-1.849-.385-2.9a7.386,7.386,0,0,0-1.878-1.687,1.6,1.6,0,0,1-.383-2.122l.047-.081a1.206,1.206,0,0,1,1.7-.523,10.035,10.035,0,0,1,2.06,1.833l1.576-1.718Q782.372,690.916,783.076,691.8Z" transform="translate(-763.191 -684.906)" fill="#3c8f7c"/>
        <path id="Trazado_673351" data-name="Trazado 673351" d="M813.448,740.571q-7.127-6.1-13.725-12.922l-2.259,2.938q6.685,6.908,13.918,13.1Z" transform="translate(-776.841 -702.588)" fill="#50bfa5"/>
      </g>
    </g>
    <g id="Grupo_1004428" data-name="Grupo 1004428" transform="translate(677.827 602.113)">
      <path id="Trazado_673352" data-name="Trazado 673352" d="M770.842,694.249a202.678,202.678,0,0,1-75.7-25.826l-13.589,31.839a234.333,234.333,0,0,0,87.528,29.861Z" transform="translate(-681.551 -668.423)" fill="#3c8f7c"/>
      <path id="Trazado_673353" data-name="Trazado 673353" d="M697.961,679.543l-8.33,19.959c2.515,1.424,3.809,4.489,2.866,6.917a232.61,232.61,0,0,0,73.388,25.037,4.581,4.581,0,0,1,5.365-4.109q.633-11.184,1.267-22.368a5.129,5.129,0,0,1-4.194-5.522,204.282,204.282,0,0,1-64.445-21.986A4.038,4.038,0,0,1,697.961,679.543Z" transform="translate(-685.319 -672.642)" fill="#96d9c9"/>
      <g id="Grupo_1004427" data-name="Grupo 1004427" transform="translate(36.117 22.797)">
        <path id="Trazado_673354" data-name="Trazado 673354" d="M773.2,727.153a14.226,14.226,0,0,0-9.252-15.409,10.993,10.993,0,0,0-14.287,7.6c-1.811,6.4,2.212,13.82,9.1,16.1S772.156,733.806,773.2,727.153Z" transform="translate(-749.23 -711.142)" fill="#50bfa5"/>
        <path id="Trazado_673355" data-name="Trazado 673355" d="M770.964,716.507l-.544,2.272c2.359,1.314,3.353,3.46,2.913,5.457-.447,2.012-1.786,2.906-4.661,2.912-2.064.044-2.963.215-3.149.948-.157.62.156,1.417,1.621,1.941a7.135,7.135,0,0,0,2.048.418,1.547,1.547,0,0,1,1.422,1.476h0a1.182,1.182,0,0,1-1.291,1.252,9.907,9.907,0,0,1-2.15-.43l-.476,1.958q-1.125-.4-2.247-.807.267-1.053.532-2.106c-2.315-1.355-3.3-3.423-2.771-5.36.578-2.139,2.478-2.615,5.025-2.56,1.764.034,2.592-.261,2.794-1.106.211-.892-.52-1.677-1.754-2.123a7.73,7.73,0,0,0-2.453-.451,1.476,1.476,0,0,1-1.369-1.5v-.086a1.186,1.186,0,0,1,1.219-1.22,10.509,10.509,0,0,1,2.682.481q.263-1.054.526-2.109Q769.921,716.138,770.964,716.507Z" transform="translate(-755.219 -713.295)" fill="#3c8f7c"/>
      </g>
    </g>
    <path id="Trazado_673356" data-name="Trazado 673356" d="M816.085,616.37a16.091,16.091,0,0,1-1.864-.744,9.37,9.37,0,0,0-2.126-.8,5.137,5.137,0,0,0-4.312,1.146c-1.39,1.5-3.86.271-3.363,8.142.564,8.909,5.534,7.931,5.655,7.781s4.433-5.7,4.433-5.7,1.508,3.287,1.508,3.167S823.715,618.931,816.085,616.37Z" transform="translate(-60.994 -41.284)" fill="#0e2e35"/>
    <g id="Grupo_1004430" data-name="Grupo 1004430" transform="translate(693.323 633.82)">
      <path id="Trazado_673357" data-name="Trazado 673357" d="M777.6,727.837a165,165,0,0,1-67.008,10.969q2.357,15.106,4.712,30.212c27.365,1.034,53.651-3.269,77.476-12.682Z" transform="translate(-710.589 -727.837)" fill="#3c8f7c"/>
      <path id="Trazado_673358" data-name="Trazado 673358" d="M715.231,747.453q1.546,9.43,3.092,18.861a5.586,5.586,0,0,1,5.262,4.184,189.355,189.355,0,0,0,64.959-10.633,3.793,3.793,0,0,1,2.023-5.376l-9.343-17.839a4.7,4.7,0,0,1-5.59-2.56,166.289,166.289,0,0,1-57.044,9.338A3.232,3.232,0,0,1,715.231,747.453Z" transform="translate(-712.754 -730.753)" fill="#96d9c9"/>
      <g id="Grupo_1004429" data-name="Grupo 1004429" transform="translate(30.53 13.702)">
        <path id="Trazado_673359" data-name="Trazado 673359" d="M788.959,761.809c-2.294-5.589-8.419-9.072-13.813-8.147s-8.543,6.023-6.921,11.728a12.781,12.781,0,0,0,14.019,8.745C788.311,773.091,791.25,767.387,788.959,761.809Z" transform="translate(-767.798 -753.513)" fill="#50bfa5"/>
        <path id="Trazado_673360" data-name="Trazado 673360" d="M781.76,756.793l.647,1.982a4.771,4.771,0,0,1,4.627,3.033c.6,1.741.033,2.98-2.059,4.161-1.484.878-2.06,1.378-1.859,2.022.17.544.764,1.034,2.072.84a5.671,5.671,0,0,0,1.683-.514,1.39,1.39,0,0,1,1.714.561h0a1,1,0,0,1-.366,1.5,7.944,7.944,0,0,1-1.764.547l.552,1.71q-1,.153-2.008.3l-.58-1.849c-2.308-.1-3.971-1.3-4.478-3.017-.56-1.893.605-3.039,2.486-4.038,1.3-.7,1.769-1.263,1.527-2-.255-.777-1.148-1.085-2.252-.926a6.128,6.128,0,0,0-1.994.654,1.331,1.331,0,0,1-1.687-.6l-.039-.067a1,1,0,0,1,.329-1.444,8.323,8.323,0,0,1,2.175-.724q-.292-.925-.585-1.848Q780.832,756.934,781.76,756.793Z" transform="translate(-772.469 -755.043)" fill="#3c8f7c"/>
        <path id="Trazado_673361" data-name="Trazado 673361" d="M827.063,758.362q-7.352,2.605-15,4.533l1.18,2.846q7.749-1.953,15.21-4.6Z" transform="translate(-788.442 -755.775)" fill="#50bfa5"/>
      </g>
    </g>
    <g id="Grupo_1004432" data-name="Grupo 1004432" transform="translate(726.333 664.794)">
      <path id="Trazado_673362" data-name="Trazado 673362" d="M772.447,790.074v7.377c0,1.193,13.305,2.16,29.718,2.16s29.717-.967,29.717-2.16v-7.377Z" transform="translate(-772.447 -787.836)" fill="#e59f39"/>
      <g id="Grupo_1004431" data-name="Grupo 1004431" transform="translate(0 2.238)">
        <path id="Trazado_673363" data-name="Trazado 673363" d="M793.954,799.528v-9.454H772.447v7.377C772.447,798.437,781.535,799.268,793.954,799.528Z" transform="translate(-772.447 -790.074)" fill="#eab054"/>
        <path id="Trazado_673364" data-name="Trazado 673364" d="M814.623,799.547c2.309.042,4.724.064,7.211.064,3.705,0,7.252-.049,10.523-.139v-9.4H814.623Z" transform="translate(-792.116 -790.074)" fill="#eab054"/>
        <path id="Trazado_673365" data-name="Trazado 673365" d="M850.086,799.437c10.588-.331,18-1.1,18-1.986v-7.377h-18Z" transform="translate(-808.654 -790.074)" fill="#eab054"/>
      </g>
      <ellipse id="Elipse_7879" data-name="Elipse 7879" cx="29.718" cy="2.159" rx="29.718" ry="2.159" transform="translate(0)" fill="#e59f39"/>
      <path id="Trazado_673366" data-name="Trazado 673366" d="M831.221,788.619c0,.827-10.956,1.5-24.472,1.5s-24.472-.67-24.472-1.5,10.957-1.5,24.472-1.5S831.221,787.792,831.221,788.619Z" transform="translate(-777.031 -786.459)" fill="#f7cc7f"/>
    </g>
    <g id="Grupo_1004434" data-name="Grupo 1004434" transform="translate(721.249 656.988)">
      <path id="Trazado_673367" data-name="Trazado 673367" d="M762.92,775.445v7.378c0,1.192,13.3,2.159,29.717,2.159s29.718-.967,29.718-2.159v-7.378Z" transform="translate(-762.92 -773.207)" fill="#e59f39"/>
      <g id="Grupo_1004433" data-name="Grupo 1004433" transform="translate(0 2.238)">
        <path id="Trazado_673368" data-name="Trazado 673368" d="M784.426,784.9v-9.454H762.92v7.378C762.92,783.808,772.007,784.64,784.426,784.9Z" transform="translate(-762.92 -775.445)" fill="#eab054"/>
        <path id="Trazado_673369" data-name="Trazado 673369" d="M805.1,784.918c2.308.042,4.723.064,7.21.064,3.706,0,7.252-.049,10.523-.139v-9.4H805.1Z" transform="translate(-782.589 -775.445)" fill="#eab054"/>
        <path id="Trazado_673370" data-name="Trazado 673370" d="M840.559,784.808c10.588-.33,18-1.1,18-1.985v-7.378h-18Z" transform="translate(-799.127 -775.445)" fill="#eab054"/>
      </g>
      <ellipse id="Elipse_7880" data-name="Elipse 7880" cx="29.718" cy="2.159" rx="29.718" ry="2.159" fill="#e59f39"/>
      <path id="Trazado_673371" data-name="Trazado 673371" d="M821.694,773.99c0,.827-10.956,1.5-24.472,1.5s-24.471-.67-24.471-1.5,10.956-1.5,24.471-1.5S821.694,773.163,821.694,773.99Z" transform="translate(-767.504 -771.831)" fill="#f7cc7f"/>
    </g>
    <g id="Grupo_1004436" data-name="Grupo 1004436" transform="translate(724.637 648.974)">
      <path id="Trazado_673372" data-name="Trazado 673372" d="M769.268,760.428v7.377c0,1.193,13.3,2.159,29.717,2.159S828.7,769,828.7,767.805v-7.377Z" transform="translate(-769.268 -758.19)" fill="#e59f39"/>
      <g id="Grupo_1004435" data-name="Grupo 1004435" transform="translate(0 2.238)">
        <path id="Trazado_673373" data-name="Trazado 673373" d="M790.774,769.881v-9.453H769.268v7.377C769.268,768.791,778.355,769.622,790.774,769.881Z" transform="translate(-769.268 -760.428)" fill="#eab054"/>
        <path id="Trazado_673374" data-name="Trazado 673374" d="M811.443,769.9c2.308.042,4.724.063,7.211.063,3.706,0,7.252-.049,10.523-.139v-9.4H811.443Z" transform="translate(-788.936 -760.428)" fill="#eab054"/>
        <path id="Trazado_673375" data-name="Trazado 673375" d="M846.906,769.79c10.588-.33,18-1.1,18-1.985v-7.377h-18Z" transform="translate(-805.475 -760.428)" fill="#eab054"/>
      </g>
      <ellipse id="Elipse_7881" data-name="Elipse 7881" cx="29.718" cy="2.159" rx="29.718" ry="2.159" transform="translate(0 0)" fill="#e59f39"/>
      <path id="Trazado_673376" data-name="Trazado 673376" d="M828.042,758.972c0,.827-10.956,1.5-24.472,1.5s-24.472-.67-24.472-1.5,10.956-1.5,24.472-1.5S828.042,758.145,828.042,758.972Z" transform="translate(-773.852 -756.813)" fill="#f7cc7f"/>
    </g>
    <g id="Grupo_1004438" data-name="Grupo 1004438" transform="translate(721.249 641.069)">
      <path id="Trazado_673377" data-name="Trazado 673377" d="M762.92,745.616v7.377c0,1.193,13.3,2.16,29.717,2.16s29.718-.967,29.718-2.16v-7.377Z" transform="translate(-762.92 -743.378)" fill="#e59f39"/>
      <g id="Grupo_1004437" data-name="Grupo 1004437" transform="translate(0 2.238)">
        <path id="Trazado_673378" data-name="Trazado 673378" d="M784.426,755.069v-9.453H762.92v7.377C762.92,753.979,772.007,754.81,784.426,755.069Z" transform="translate(-762.92 -745.616)" fill="#eab054"/>
        <path id="Trazado_673379" data-name="Trazado 673379" d="M805.1,755.089c2.308.042,4.723.064,7.21.064,3.706,0,7.252-.05,10.523-.14v-9.4H805.1Z" transform="translate(-782.589 -745.616)" fill="#eab054"/>
        <path id="Trazado_673380" data-name="Trazado 673380" d="M840.559,754.978c10.588-.33,18-1.095,18-1.985v-7.377h-18Z" transform="translate(-799.127 -745.616)" fill="#eab054"/>
      </g>
      <ellipse id="Elipse_7882" data-name="Elipse 7882" cx="29.718" cy="2.159" rx="29.718" ry="2.159" fill="#e59f39"/>
      <path id="Trazado_673381" data-name="Trazado 673381" d="M821.694,744.16c0,.827-10.956,1.5-24.472,1.5s-24.471-.671-24.471-1.5,10.956-1.5,24.471-1.5S821.694,743.333,821.694,744.16Z" transform="translate(-767.504 -742.001)" fill="#f7cc7f"/>
    </g>
    <g id="Grupo_1004440" data-name="Grupo 1004440" transform="translate(872.16 664.25)">
      <path id="Trazado_673382" data-name="Trazado 673382" d="M1102.867,788.893v7.094c0,1.147-12.795,2.077-28.578,2.077s-28.578-.93-28.578-2.077v-7.094Z" transform="translate(-1045.711 -786.741)" fill="#e59f39"/>
      <g id="Grupo_1004439" data-name="Grupo 1004439" transform="translate(0 2.152)">
        <path id="Trazado_673383" data-name="Trazado 673383" d="M1114.06,797.984v-9.091h20.681v7.094C1134.741,796.935,1126,797.735,1114.06,797.984Z" transform="translate(-1077.586 -788.893)" fill="#eab054"/>
        <path id="Trazado_673384" data-name="Trazado 673384" d="M1097.353,798c-2.22.04-4.543.062-6.934.062-3.563,0-6.974-.047-10.12-.134v-9.037h17.054Z" transform="translate(-1061.841 -788.893)" fill="#eab054"/>
        <path id="Trazado_673385" data-name="Trazado 673385" d="M1063.024,797.9c-10.182-.318-17.313-1.053-17.313-1.909v-7.094h17.313Z" transform="translate(-1045.711 -788.893)" fill="#eab054"/>
      </g>
      <ellipse id="Elipse_7883" data-name="Elipse 7883" cx="28.578" cy="2.077" rx="28.578" ry="2.077" transform="translate(0 0)" fill="#e59f39"/>
      <path id="Trazado_673386" data-name="Trazado 673386" d="M1055.164,787.494c0,.8,10.536,1.44,23.533,1.44s23.533-.645,23.533-1.44-10.536-1.44-23.533-1.44S1055.164,786.7,1055.164,787.494Z" transform="translate(-1050.119 -785.417)" fill="#f7cc7f"/>
    </g>
    <g id="Grupo_1004442" data-name="Grupo 1004442" transform="translate(877.049 656.742)">
      <path id="Trazado_673387" data-name="Trazado 673387" d="M1112.029,774.825v7.094c0,1.147-12.8,2.077-28.578,2.077s-28.578-.93-28.578-2.077v-7.094Z" transform="translate(-1054.873 -772.673)" fill="#e59f39"/>
      <g id="Grupo_1004441" data-name="Grupo 1004441" transform="translate(0 2.152)">
        <path id="Trazado_673388" data-name="Trazado 673388" d="M1123.223,783.916v-9.091H1143.9v7.094C1143.9,782.867,1135.166,783.667,1123.223,783.916Z" transform="translate(-1086.748 -774.825)" fill="#eab054"/>
        <path id="Trazado_673389" data-name="Trazado 673389" d="M1106.515,783.934c-2.22.041-4.543.062-6.934.062-3.563,0-6.974-.047-10.12-.134v-9.037h17.054Z" transform="translate(-1071.003 -774.825)" fill="#eab054"/>
        <path id="Trazado_673390" data-name="Trazado 673390" d="M1072.186,783.829c-10.182-.318-17.313-1.053-17.313-1.909v-7.094h17.313Z" transform="translate(-1054.873 -774.825)" fill="#eab054"/>
      </g>
      <ellipse id="Elipse_7884" data-name="Elipse 7884" cx="28.578" cy="2.077" rx="28.578" ry="2.077" transform="translate(0 0)" fill="#e59f39"/>
      <ellipse id="Elipse_7885" data-name="Elipse 7885" cx="23.533" cy="1.44" rx="23.533" ry="1.44" transform="translate(5.045 0.637)" fill="#f7cc7f"/>
    </g>
    <g id="Grupo_1004444" data-name="Grupo 1004444" transform="translate(873.791 649.036)">
      <path id="Trazado_673391" data-name="Trazado 673391" d="M1105.924,760.383v7.094c0,1.147-12.795,2.077-28.578,2.077s-28.578-.93-28.578-2.077v-7.094Z" transform="translate(-1048.768 -758.231)" fill="#e59f39"/>
      <g id="Grupo_1004443" data-name="Grupo 1004443" transform="translate(0 2.152)">
        <path id="Trazado_673392" data-name="Trazado 673392" d="M1117.118,769.474v-9.091H1137.8v7.094C1137.8,768.425,1129.061,769.225,1117.118,769.474Z" transform="translate(-1080.643 -760.383)" fill="#eab054"/>
        <path id="Trazado_673393" data-name="Trazado 673393" d="M1100.411,769.492c-2.22.041-4.542.062-6.934.062-3.564,0-6.974-.048-10.12-.134v-9.037h17.054Z" transform="translate(-1064.899 -760.383)" fill="#eab054"/>
        <path id="Trazado_673394" data-name="Trazado 673394" d="M1066.081,769.387c-10.182-.318-17.313-1.053-17.313-1.909v-7.094h17.313Z" transform="translate(-1048.768 -760.383)" fill="#eab054"/>
      </g>
      <ellipse id="Elipse_7886" data-name="Elipse 7886" cx="28.578" cy="2.077" rx="28.578" ry="2.077" transform="translate(0)" fill="#e59f39"/>
      <ellipse id="Elipse_7887" data-name="Elipse 7887" cx="23.533" cy="1.44" rx="23.533" ry="1.44" transform="translate(5.045 0.637)" fill="#f7cc7f"/>
    </g>
    <g id="Grupo_1004446" data-name="Grupo 1004446" transform="translate(877.049 641.434)">
      <path id="Trazado_673395" data-name="Trazado 673395" d="M1112.029,746.139v7.094c0,1.147-12.8,2.077-28.578,2.077s-28.578-.93-28.578-2.077v-7.094Z" transform="translate(-1054.873 -743.987)" fill="#e59f39"/>
      <g id="Grupo_1004445" data-name="Grupo 1004445" transform="translate(0 2.152)">
        <path id="Trazado_673396" data-name="Trazado 673396" d="M1123.223,755.23v-9.091H1143.9v7.094C1143.9,754.181,1135.166,754.981,1123.223,755.23Z" transform="translate(-1086.748 -746.139)" fill="#eab054"/>
        <path id="Trazado_673397" data-name="Trazado 673397" d="M1106.515,755.248c-2.22.041-4.543.062-6.934.062-3.563,0-6.974-.048-10.12-.134v-9.037h17.054Z" transform="translate(-1071.003 -746.139)" fill="#eab054"/>
        <path id="Trazado_673398" data-name="Trazado 673398" d="M1072.186,755.143c-10.182-.318-17.313-1.053-17.313-1.909v-7.094h17.313Z" transform="translate(-1054.873 -746.139)" fill="#eab054"/>
      </g>
      <ellipse id="Elipse_7888" data-name="Elipse 7888" cx="28.578" cy="2.077" rx="28.578" ry="2.077" fill="#e59f39"/>
      <ellipse id="Elipse_7889" data-name="Elipse 7889" cx="23.533" cy="1.44" rx="23.533" ry="1.44" transform="translate(5.045 0.637)" fill="#f7cc7f"/>
    </g>
    <g id="Grupo_1004448" data-name="Grupo 1004448" transform="translate(897.495 620.85)">
      <path id="Trazado_673399" data-name="Trazado 673399" d="M1143.194,717.9l-1.717,5.993c-.277.969-11.312-1.342-24.645-5.161s-23.918-7.7-23.64-8.67l1.717-5.993Z" transform="translate(-1093.187 -703.783)" fill="#e59f39"/>
      <g id="Grupo_1004447" data-name="Grupo 1004447" transform="translate(0 0.284)">
        <path id="Trazado_673400" data-name="Trazado 673400" d="M1150.033,728.286l2.2-7.68,17.472,5-1.717,5.993C1167.758,732.4,1160.182,730.966,1150.033,728.286Z" transform="translate(-1119.697 -711.78)" fill="#eab054"/>
        <path id="Trazado_673401" data-name="Trazado 673401" d="M1135.925,724.259c-1.885-.5-3.852-1.048-5.872-1.626-3.01-.862-5.88-1.727-8.517-2.562l2.187-7.634,14.407,4.127Z" transform="translate(-1106.408 -707.97)" fill="#eab054"/>
        <path id="Trazado_673402" data-name="Trazado 673402" d="M1107.356,715.863c-8.525-2.732-14.371-5.079-14.164-5.8l1.717-5.993,14.626,4.19Z" transform="translate(-1093.187 -704.067)" fill="#eab054"/>
      </g>
      <path id="Trazado_673403" data-name="Trazado 673403" d="M1096.443,703.755c-.278.969,10.306,4.85,23.64,8.67s24.368,6.129,24.645,5.161-10.307-4.85-23.64-8.67S1096.721,702.786,1096.443,703.755Z" transform="translate(-1094.703 -703.534)" fill="#e59f39"/>
      <path id="Trazado_673404" data-name="Trazado 673404" d="M1104.431,706.122c-.193.672,8.552,3.766,19.533,6.911s20.036,5.15,20.229,4.478-8.553-3.765-19.533-6.911S1104.623,705.451,1104.431,706.122Z" transform="translate(-1098.429 -704.68)" fill="#f7cc7f"/>
    </g>
    <g id="Grupo_1004450" data-name="Grupo 1004450" transform="translate(883.843 593.447)">
      <path id="Trazado_673405" data-name="Trazado 673405" d="M1115.67,652.687l1.828,5.96c.3.964-10.215,5.041-23.475,9.108s-24.25,6.582-24.545,5.619l-1.828-5.96Z" transform="translate(-1067.626 -652.418)" fill="#e59f39"/>
      <g id="Grupo_1004449" data-name="Grupo 1004449" transform="translate(0.025 0.269)">
        <path id="Trazado_673406" data-name="Trazado 673406" d="M1127.417,665.653l-2.342-7.638,17.375-5.328,1.828,5.96C1144.522,659.444,1137.386,662.367,1127.417,665.653Z" transform="translate(-1094.431 -652.687)" fill="#eab054"/>
        <path id="Trazado_673407" data-name="Trazado 673407" d="M1113.385,670.791c-1.855.606-3.8,1.222-5.81,1.838-2.994.918-5.872,1.757-8.537,2.5l-2.329-7.593,14.328-4.394Z" transform="translate(-1081.203 -657.56)" fill="#eab054"/>
        <path id="Trazado_673408" data-name="Trazado 673408" d="M1084.516,679.488c-8.636,2.357-14.817,3.577-15.038,2.857l-1.828-5.96,14.546-4.461Z" transform="translate(-1067.651 -661.658)" fill="#eab054"/>
      </g>
      <path id="Trazado_673409" data-name="Trazado 673409" d="M1067.61,667.115c.3.964,11.285-1.552,24.545-5.618s23.77-8.144,23.475-9.108-11.285,1.552-24.545,5.619S1067.314,666.151,1067.61,667.115Z" transform="translate(-1067.604 -652.183)" fill="#e59f39"/>
      <path id="Trazado_673410" data-name="Trazado 673410" d="M1075.554,667.025c.2.668,9.223-1.5,20.143-4.854s19.605-6.6,19.4-7.273-9.223,1.5-20.143,4.854S1075.349,666.358,1075.554,667.025Z" transform="translate(-1071.31 -653.393)" fill="#f7cc7f"/>
    </g>
    <path id="Trazado_673411" data-name="Trazado 673411" d="M864.014,790.883s.706,3.748.707,3.756c.039.488.025,1.723.131,2.15.4,1.6,7.138-2.292,5.37-2.606a7.333,7.333,0,0,1-1.586-1.7,14.886,14.886,0,0,1-.887-2.476Z" transform="translate(-88.816 -123.01)" fill="#f7a491"/>
    <path id="Trazado_673412" data-name="Trazado 673412" d="M869.457,796.921a26.457,26.457,0,0,1-2.626.519c-.886.088-2.023-1.288-2.658-1.027-.7.287-1.08,4.652-1.08,4.652s11.12.506,13.748-.22C877.883,800.558,872.917,798.247,869.457,796.921Z" transform="translate(-88.387 -125.983)" fill="#f47458"/>
    <path id="Trazado_673413" data-name="Trazado 673413" d="M893.07,790.563s.706,3.748.707,3.756c.039.488.025,1.723.13,2.15.4,1.6,7.014-2.036,5.245-2.35a9.994,9.994,0,0,1-1.462-1.956,14.9,14.9,0,0,1-.887-2.476Z" transform="translate(-102.367 -122.861)" fill="#f7a491"/>
    <path id="Trazado_673414" data-name="Trazado 673414" d="M898.193,796.921a26.449,26.449,0,0,1-2.626.519c-.886.088-2.023-1.288-2.658-1.027-.7.287-1.08,4.652-1.08,4.652s11.12.506,13.748-.22C906.619,800.558,901.653,798.247,898.193,796.921Z" transform="translate(-101.788 -125.983)" fill="#f47458"/>
    <path id="Trazado_673415" data-name="Trazado 673415" d="M820.505,716.082l20.23-4.693s9.073-2.4,11.263.417,11.489,41.673,11.489,41.673a39.362,39.362,0,0,1-5.11.209l-11.229-19.93a17.392,17.392,0,0,1-2.072-6.13l-.8-5.707-8.238,2.4s-9.489,2.085-13.348-.313S820.505,716.082,820.505,716.082Z" transform="translate(-68.359 -85.903)" fill="#0e2e35"/>
    <path id="Trazado_673416" data-name="Trazado 673416" d="M832.7,655.658c.32.013,1.2.305,2.476,2.717,1.635,3.08,4.025,12.383,4.025,12.383l-7.133,2.647-.916-1.942-1.51-14.949S832.615,655.654,832.7,655.658Z" transform="translate(-72.788 -60.357)" fill="#eab054"/>
    <path id="Trazado_673417" data-name="Trazado 673417" d="M806.651,653.145a43.708,43.708,0,0,1,9.43,1.342s1.721,14.741-1.549,25.942c-.732,2.507.605,10.394.605,10.394L794,690.546s2.5-19.067,1.56-22.146-.965-13.813-.965-13.813.145-.022,4.749-.815A48.057,48.057,0,0,1,806.651,653.145Z" transform="translate(-56.165 -59.185)" fill="#f7cc7f"/>
    <path id="Trazado_673418" data-name="Trazado 673418" d="M791.8,658.9c1.977-.739,2.944,17.008,3.21,24.312a86.417,86.417,0,0,0,11.119-.111c.714-.054,2.361-.655,3.072-.748a7.114,7.114,0,0,1,1.746-.082,32.968,32.968,0,0,1,4.092,1.835c.387.4,1.433,1.424,1.257,1.866s-2.012-1.229-2.012-1.229l-.9-.5c1.117,1.087,3.247,2.519,2.94,3.041s-2.221-.945-3.59-1.935c1.175,1.057,2.634,2.949,2.3,3.245-.3.265-1.962-1.926-3.736-2.557-.657-.234-1.313.414-1.83.492a3.718,3.718,0,0,1-1.339.074l-1.782-.172a9.286,9.286,0,0,0-1.47.214c-.767.163-2.026.334-3,.572-5.625,1.37-7.5,2.006-9.224,2C787.434,689.214,787.131,660.643,791.8,658.9Z" transform="translate(-53.603 -61.857)" fill="#f7a491"/>
    <path id="Trazado_673419" data-name="Trazado 673419" d="M787.529,674.108c-.37-7.482-.316-16.7,3.892-18.278,1.661-.621,4.588,3.112,4.062,18.43A31.74,31.74,0,0,1,787.529,674.108Z" transform="translate(-53.081 -60.407)" fill="#eab054"/>
    <path id="Trazado_673420" data-name="Trazado 673420" d="M842.533,681.566l-19.915,1.3a1.3,1.3,0,0,0-1.149.885l-5.155,15.356-10.979.717a.556.556,0,0,0-.52.592h0a.557.557,0,0,0,.592.519l31.247-2.041a2.186,2.186,0,0,0,1.906-1.418l5.276-14.158A1.3,1.3,0,0,0,842.533,681.566Z" transform="translate(-61.209 -72.438)" fill="#f47458"/>
    <path id="Trazado_673421" data-name="Trazado 673421" d="M855,698.209a1.1,1.1,0,1,1-1.015-1.3A1.174,1.174,0,0,1,855,698.209Z" transform="translate(-83.597 -79.592)" fill="#fff"/>
    <path id="Trazado_673422" data-name="Trazado 673422" d="M793.862,718.674l22.046-3.806s9.531-1.452,11.721,1.364,8.551,39.313,8.551,39.313a39.374,39.374,0,0,1-5.11.209c-.242-.162-6.05-12.329-8.658-17.812a20.844,20.844,0,0,1-1.731-5.486l-.838-4.967-2.774.955a33.866,33.866,0,0,1-15.186,1.626,14.294,14.294,0,0,1-5.382-1.495C792.643,726.176,793.862,718.674,793.862,718.674Z" transform="translate(-56.016 -87.795)" fill="#184655"/>
    <path id="Trazado_673423" data-name="Trazado 673423" d="M814.8,643.724l.43,3.183s.961,4.586-.276,5.47-5.259-5.6-5.259-5.6l.425-8.067Z" transform="translate(-63.486 -52.453)" fill="#f7a491"/>
    <path id="Trazado_673424" data-name="Trazado 673424" d="M810.238,641.324a9.149,9.149,0,0,0,5.181,5.1l-.364-2.7-4.68-5.014Z" transform="translate(-63.738 -52.453)" fill="#f47458"/>
    <path id="Trazado_673425" data-name="Trazado 673425" d="M814.07,622.214a4.254,4.254,0,0,1,4.905,4.293,32.119,32.119,0,0,1-.359,4.083c-.57,3.675-3.086,6.911-4.749,6.622s-5.849-3.459-5.112-8.688C809.21,625.294,811.32,622.656,814.07,622.214Z" transform="translate(-63.006 -44.735)" fill="#f7a491"/>
    <path id="Trazado_673426" data-name="Trazado 673426" d="M808.878,633.78a1.239,1.239,0,1,1-.942-1.671A1.37,1.37,0,0,1,808.878,633.78Z" transform="translate(-61.975 -49.368)" fill="#f7a491"/>
    <path id="Trazado_673427" data-name="Trazado 673427" d="M808.673,626.41s2.011.5,2.757-.791,3.415-4.071,6.808-2.918-2.986-2.8-3.257-2.8-3.528-.023-3.528-.023-2.51,2.058-2.6,2.285-.814,2.692-.814,2.692Z" transform="translate(-62.712 -43.669)" fill="#0e2e35"/>
    <g id="Grupo_1004452" data-name="Grupo 1004452" transform="translate(844.515 657.028)">
      <rect id="Rectángulo_311444" data-name="Rectángulo 311444" width="50.065" height="18.221" transform="translate(50.065 18.221) rotate(180)" fill="#50bfa5"/>
      <g id="Grupo_1004451" data-name="Grupo 1004451" transform="translate(0)">
        <rect id="Rectángulo_311445" data-name="Rectángulo 311445" width="50.065" height="2.344" transform="translate(50.065 5) rotate(180)" fill="#96d9c9"/>
        <rect id="Rectángulo_311446" data-name="Rectángulo 311446" width="50.065" height="2.344" transform="translate(50.065 9.578) rotate(180)" fill="#96d9c9"/>
        <rect id="Rectángulo_311447" data-name="Rectángulo 311447" width="50.065" height="2.344" transform="translate(50.065 14.157) rotate(180)" fill="#96d9c9"/>
        <rect id="Rectángulo_311448" data-name="Rectángulo 311448" width="50.065" height="2.344" transform="translate(50.065 18.221) rotate(180)" fill="#96d9c9"/>
        <rect id="Rectángulo_311449" data-name="Rectángulo 311449" width="10.412" height="18.221" transform="translate(29.05 18.221) rotate(180)" fill="#f7cc7f"/>
      </g>
      <rect id="Rectángulo_311450" data-name="Rectángulo 311450" width="7.561" height="18.221" transform="translate(57.018 18.221) rotate(180)" fill="#3c8f7c"/>
    </g>
    <rect id="Rectángulo_311451" data-name="Rectángulo 311451" width="276.653" height="1.579" transform="translate(673.565 674.99)" fill="#285d42"/>
    <path id="Trazado_673428" data-name="Trazado 673428" d="M858.555,538.18a4.973,4.973,0,0,0-6.1-3.694,7.321,7.321,0,0,0-8.8-3.889,9.019,9.019,0,0,0-16.2,1.576,6.186,6.186,0,0,0-9.195,5.406c0,.2.011.4.029.6Z" transform="translate(-67.478)" fill="#fff" opacity="0.6"/>
    <path id="Trazado_673429" data-name="Trazado 673429" d="M901.124,586.733a3.764,3.764,0,0,0-4.615-2.8A5.542,5.542,0,0,0,889.847,581a6.825,6.825,0,0,0-12.26,1.193,4.682,4.682,0,0,0-6.958,4.091c0,.153.008.3.022.454Z" transform="translate(-91.901 -23.998)" fill="#fff" opacity="0.6"/>
    <path id="Trazado_673430" data-name="Trazado 673430" d="M768.764,581.276a3.285,3.285,0,0,1,4.024-2.438,4.833,4.833,0,0,1,5.809-2.566,5.952,5.952,0,0,1,10.691,1.04,4.083,4.083,0,0,1,6.068,3.568c0,.133-.007.266-.019.4Z" transform="translate(-44.396 -21.993)" fill="#fff" opacity="0.6"/>
    <g id="Grupo_1004453" data-name="Grupo 1004453" transform="translate(776.946 574.92)">
      <path id="Trazado_673431" data-name="Trazado 673431" d="M874.178,622.616l.355,4.317,2.508-2.824,8.111-6.643-6.917,2.179s-3.405,1.654-3.562,1.873A8.963,8.963,0,0,0,874.178,622.616Z" transform="translate(-870.503 -617.466)" fill="#50bfa5"/>
      <path id="Trazado_673432" data-name="Trazado 673432" d="M867.291,620.76l14.649-3.294-10.973,5.15Z" transform="translate(-867.291 -617.466)" fill="#96d9c9"/>
      <path id="Trazado_673433" data-name="Trazado 673433" d="M880.789,625.813l-4.515-2.253,9.855-6.094Z" transform="translate(-871.48 -617.466)" fill="#96d9c9"/>
    </g>
    <g id="Grupo_1004456" data-name="Grupo 1004456" transform="translate(771.683 581.843)">
      <g id="Grupo_1004454" data-name="Grupo 1004454" transform="translate(7.118)">
        <path id="Trazado_673434" data-name="Trazado 673434" d="M870.876,631.063a5.364,5.364,0,0,1,1.179-.31l-.033-.314a5.585,5.585,0,0,0-1.258.328Z" transform="translate(-870.765 -630.439)" fill="#3c8f7c"/>
      </g>
      <g id="Grupo_1004455" data-name="Grupo 1004455" transform="translate(0 1.606)">
        <path id="Trazado_673435" data-name="Trazado 673435" d="M857.427,657.985a12.836,12.836,0,0,0,1.588-1.737l.252.19a13.121,13.121,0,0,1-1.628,1.78Zm2.808-3.745c.155-.325.3-.664.423-1.006.142-.388.269-.794.376-1.206l.305.079c-.109.422-.239.838-.385,1.236-.13.352-.276.7-.434,1.033Zm1.274-6.9.316-.007a20.427,20.427,0,0,1-.078,2.4l-.314-.03A19.881,19.881,0,0,0,861.509,647.337Zm-.449-4.731.312-.045c.132.924.227,1.678.3,2.375l-.314.032C861.286,644.276,861.192,643.525,861.061,642.606Zm-.353-2.377a11.643,11.643,0,0,1-.12-2.4l.315.02a11.3,11.3,0,0,0,.116,2.329l0,.018-.313.043Zm.4-4.767a5.735,5.735,0,0,1,1.37-2.013l.217.229a5.407,5.407,0,0,0-1.295,1.9Z" transform="translate(-857.427 -633.449)" fill="#3c8f7c"/>
      </g>
    </g>
  </g>
</svg>
