<svg xmlns="http://www.w3.org/2000/svg" width="106.965" height="107.002" viewBox="0 0 106.965 107.002">
  <g id="Grupo_1009635" data-name="Grupo 1009635" transform="translate(0 0)">
    <g id="Container">
      <path id="Trazado_655363" data-name="Trazado 655363" d="M524.642,199c-.9,0-.952-.251-4.529-3.828a1.678,1.678,0,0,1,2.374-2.372l2.155,2.173,3.828-3.845a1.678,1.678,0,0,1,2.374,2.374h0l-5.015,5.014A1.663,1.663,0,0,1,524.642,199Z" transform="translate(-444.418 -180.578)" fill="#fff"/>
      <g id="Grupo_979814" data-name="Grupo 979814">
        <path id="Trazado_655364" data-name="Trazado 655364" d="M581.162,281.759h-6.686V216.71a5.014,5.014,0,0,0-2.272-4.2l-7-4.562a13.371,13.371,0,1,0-21.729-14.19l-11.382-7.454a5.017,5.017,0,0,0-5.481,0L486.5,212.532a5.013,5.013,0,0,0-2.274,4.178v11.566a1.672,1.672,0,0,0,3.343,0V216.71a1.674,1.674,0,0,1,.768-1.387l40.113-26.241a1.673,1.673,0,0,1,1.8,0l12.468,8.19a13.371,13.371,0,0,0,19.52,12.753l8.09,5.3a1.667,1.667,0,0,1,.751,1.387v65.049h-3.292v-3.343a1.671,1.671,0,0,0-3.343,0v3.343h-3.644c.4-1.171.3-.1.3-15.043a5.014,5.014,0,0,0-5.014-5.014H545.764c.4-1.17.3-.1.3-15.043a5.014,5.014,0,0,0-5.015-5.014h-23.4a5.014,5.014,0,0,0-5.014,5.014c0,14.374-.117,13.84.3,15.043h-10.33a5.014,5.014,0,0,0-5.014,5.014c0,14.374-.117,13.84.3,15.043h-3.644v-23.4h6.686a5.014,5.014,0,0,0,5.014-5.014v-13.37a5.014,5.014,0,0,0-5.014-5.014h-6.686v-5.015h70.2V261.7a1.671,1.671,0,0,0,3.343,0V221.59a1.672,1.672,0,0,0-1.672-1.671H492.581a1.67,1.67,0,0,0-1.671,1.671v13.372H480.882a5.014,5.014,0,0,0-5.014,5.014v13.37a5.014,5.014,0,0,0,5.014,5.014h3.343v23.4H477.54a1.671,1.671,0,0,0-1.672,1.671v6.686a1.671,1.671,0,0,0,1.672,1.671H581.162a1.67,1.67,0,0,0,1.671-1.671V283.43A1.67,1.67,0,0,0,581.162,281.759Zm-35.1-83.567a10.027,10.027,0,1,1,10.027,10.027A10.027,10.027,0,0,1,546.065,198.192Zm-51.813,25.07h70.2v3.343h-70.2Zm63.511,43.454v13.37a1.672,1.672,0,0,1-1.671,1.672h-23.4a1.672,1.672,0,0,1-1.672-1.672v-13.37a1.671,1.671,0,0,1,1.672-1.671h23.4A1.67,1.67,0,0,1,557.763,266.716Zm-41.782-6.684V246.66a1.67,1.67,0,0,1,1.671-1.671h23.4a1.671,1.671,0,0,1,1.672,1.671v13.372a1.671,1.671,0,0,1-1.672,1.671h-23.4A1.67,1.67,0,0,1,515.981,260.032Zm-15.043,20.055v-13.37a1.67,1.67,0,0,1,1.671-1.671h23.4a1.67,1.67,0,0,1,1.671,1.671v13.37a1.672,1.672,0,0,1-1.671,1.672h-23.4A1.672,1.672,0,0,1,500.938,280.087Zm-21.727-26.741v-13.37a1.672,1.672,0,0,1,1.671-1.672h20.056a1.672,1.672,0,0,1,1.671,1.672v13.37a1.67,1.67,0,0,1-1.671,1.671H480.882A1.67,1.67,0,0,1,479.211,253.346Zm8.357,5.014h3.343v23.4h-3.343Zm91.924,30.084H479.211V285.1H579.492Z" transform="translate(-475.868 -184.785)" fill="#fff"/>
        <path id="Trazado_655365" data-name="Trazado 655365" d="M529.076,232.453a1.672,1.672,0,0,0-1.671,1.672v3.341a1.671,1.671,0,1,0,3.343,0v-3.341A1.673,1.673,0,0,0,529.076,232.453Z" transform="translate(-438.824 -150.521)" fill="#fff"/>
        <path id="Trazado_655366" data-name="Trazado 655366" d="M517.164,210.27a1.672,1.672,0,0,0,1.672-1.671v-13.37a1.673,1.673,0,0,0-1.672-1.672h-13.37a1.672,1.672,0,0,0-1.671,1.672V208.6a1.67,1.67,0,0,0,1.671,1.671Zm-11.7-13.37h10.027v10.029H505.466Z" transform="translate(-456.996 -178.479)" fill="#fff"/>
        <path id="Trazado_655367" data-name="Trazado 655367" d="M502.822,221.757a1.672,1.672,0,0,0-1.672,1.671v6.686a1.672,1.672,0,0,0,3.343,0v-6.686A1.67,1.67,0,0,0,502.822,221.757Z" transform="translate(-457.696 -158.209)" fill="#fff"/>
        <path id="Trazado_655368" data-name="Trazado 655368" d="M507.684,231.784a1.67,1.67,0,0,0,1.671-1.671v-6.686a1.672,1.672,0,0,0-3.343,0v6.686A1.672,1.672,0,0,0,507.684,231.784Z" transform="translate(-454.201 -158.209)" fill="#fff"/>
        <path id="Trazado_655369" data-name="Trazado 655369" d="M512.546,231.784a1.67,1.67,0,0,0,1.671-1.671v-6.686a1.672,1.672,0,0,0-3.343,0v6.686A1.672,1.672,0,0,0,512.546,231.784Z" transform="translate(-450.706 -158.209)" fill="#fff"/>
        <path id="Trazado_655370" data-name="Trazado 655370" d="M494.07,233.426A1.67,1.67,0,0,0,492.4,235.1v6.686a1.672,1.672,0,0,0,3.343,0V235.1A1.672,1.672,0,0,0,494.07,233.426Z" transform="translate(-463.986 -149.822)" fill="#fff"/>
        <path id="Trazado_655371" data-name="Trazado 655371" d="M498.932,233.426a1.67,1.67,0,0,0-1.671,1.671v6.686a1.672,1.672,0,0,0,3.343,0V235.1A1.672,1.672,0,0,0,498.932,233.426Z" transform="translate(-460.491 -149.822)" fill="#fff"/>
        <path id="Trazado_655372" data-name="Trazado 655372" d="M503.794,233.426a1.67,1.67,0,0,0-1.671,1.671v6.686a1.672,1.672,0,0,0,3.343,0V235.1A1.672,1.672,0,0,0,503.794,233.426Z" transform="translate(-456.996 -149.822)" fill="#fff"/>
        <path id="Trazado_655373" data-name="Trazado 655373" d="M511.573,233.426A1.67,1.67,0,0,0,509.9,235.1v6.686a1.671,1.671,0,0,0,3.343,0V235.1A1.672,1.672,0,0,0,511.573,233.426Z" transform="translate(-451.405 -149.822)" fill="#fff"/>
        <path id="Trazado_655374" data-name="Trazado 655374" d="M516.435,243.453a1.672,1.672,0,0,0,1.672-1.671V235.1a1.672,1.672,0,0,0-3.343,0v6.686A1.67,1.67,0,0,0,516.435,243.453Z" transform="translate(-447.91 -149.822)" fill="#fff"/>
        <path id="Trazado_655375" data-name="Trazado 655375" d="M521.3,243.453a1.672,1.672,0,0,0,1.672-1.671V235.1a1.672,1.672,0,0,0-3.343,0v6.686A1.67,1.67,0,0,0,521.3,243.453Z" transform="translate(-444.416 -149.822)" fill="#fff"/>
      </g>
      <path id="Trazado_655376" data-name="Trazado 655376" d="M484.291,218.356a1.67,1.67,0,0,0-2.363-.009l-.01.009-1.671,1.672a1.67,1.67,0,0,0,1.186,2.857v3.343a1.672,1.672,0,1,0,3.343,0v-3.343a1.67,1.67,0,0,0,1.186-2.857Z" transform="translate(-473.076 -161.009)" fill="#fff"/>
      <path id="Trazado_655377" data-name="Trazado 655377" d="M491.8,220.028l-1.672-1.672a1.67,1.67,0,0,0-2.363-.009l-.01.009-1.671,1.672a1.67,1.67,0,0,0,1.186,2.857v3.343a1.672,1.672,0,1,0,3.343,0v-3.343a1.671,1.671,0,0,0,1.188-2.857Z" transform="translate(-468.883 -161.009)" fill="#fff"/>
    </g>
  </g>
</svg>
