<svg xmlns="http://www.w3.org/2000/svg" width="224.628" height="212.758" viewBox="0 0 224.628 212.758">
  <g id="Grupo_1004740" data-name="Grupo 1004740" transform="translate(-687.573 -980.864)">
    <g id="Grupo_1004673" data-name="Grupo 1004673" transform="translate(690.432 984.142)">
      <rect id="Rectángulo_311496" data-name="Rectángulo 311496" width="14.539" height="6.143" transform="translate(210.8 143.743) rotate(180)" fill="none" stroke="#ececec" stroke-miterlimit="10" stroke-width="1"/>
      <rect id="Rectángulo_311497" data-name="Rectángulo 311497" width="14.539" height="6.143" transform="translate(218.91 151.49) rotate(180)" fill="none" stroke="#ececec" stroke-miterlimit="10" stroke-width="1"/>
      <rect id="Rectángulo_311498" data-name="Rectángulo 311498" width="14.539" height="6.143" transform="translate(53.577 70.369) rotate(180)" fill="none" stroke="#ececec" stroke-miterlimit="10" stroke-width="1"/>
      <rect id="Rectángulo_311499" data-name="Rectángulo 311499" width="14.539" height="6.143" transform="translate(61.822 78.116) rotate(180)" fill="none" stroke="#ececec" stroke-miterlimit="10" stroke-width="1"/>
      <rect id="Rectángulo_311500" data-name="Rectángulo 311500" width="14.539" height="6.143" transform="translate(14.539 151.49) rotate(180)" fill="none" stroke="#ececec" stroke-miterlimit="10" stroke-width="1"/>
      <rect id="Rectángulo_311501" data-name="Rectángulo 311501" width="14.539" height="6.144" transform="translate(22.649 6.144) rotate(180)" fill="none" stroke="#ececec" stroke-miterlimit="10" stroke-width="1"/>
      <rect id="Rectángulo_311502" data-name="Rectángulo 311502" width="14.539" height="6.144" transform="translate(14.539 13.89) rotate(180)" fill="none" stroke="#ececec" stroke-miterlimit="10" stroke-width="1"/>
      <rect id="Rectángulo_311503" data-name="Rectángulo 311503" width="14.539" height="6.144" transform="translate(218.91 6.144) rotate(180)" fill="none" stroke="#ececec" stroke-miterlimit="10" stroke-width="1"/>
      <rect id="Rectángulo_311504" data-name="Rectángulo 311504" width="14.539" height="6.143" transform="translate(70.067 70.369) rotate(180)" fill="none" stroke="#ececec" stroke-miterlimit="10" stroke-width="1"/>
    </g>
    <g id="Grupo_1004677" data-name="Grupo 1004677" transform="translate(867.25 992.952)">
      <g id="Grupo_1004674" data-name="Grupo 1004674">
        <rect id="Rectángulo_311505" data-name="Rectángulo 311505" width="35.435" height="42.983" fill="#ececec"/>
        <rect id="Rectángulo_311506" data-name="Rectángulo 311506" width="27.337" height="35.137" transform="translate(4.049 3.923)" fill="#fff"/>
        <rect id="Rectángulo_311507" data-name="Rectángulo 311507" width="1.067" height="35.137" transform="translate(4.049 3.923)" fill="#c8c8c8"/>
        <rect id="Rectángulo_311508" data-name="Rectángulo 311508" width="1.067" height="42.983" transform="translate(35.435)" fill="#c8c8c8"/>
        <rect id="Rectángulo_311509" data-name="Rectángulo 311509" width="6.446" height="19.204" transform="translate(24.774 31.252) rotate(180)" fill="#ececec"/>
        <rect id="Rectángulo_311510" data-name="Rectángulo 311510" width="17.188" height="9.409" transform="translate(27.586 18.176) rotate(180)" fill="none" stroke="#ececec" stroke-miterlimit="10" stroke-width="1"/>
      </g>
      <g id="Grupo_1004675" data-name="Grupo 1004675" transform="translate(0 105.926)">
        <rect id="Rectángulo_311511" data-name="Rectángulo 311511" width="35.435" height="42.983" fill="#ececec"/>
        <rect id="Rectángulo_311512" data-name="Rectángulo 311512" width="27.337" height="35.137" transform="translate(4.049 3.923)" fill="#fff"/>
        <rect id="Rectángulo_311513" data-name="Rectángulo 311513" width="1.067" height="35.137" transform="translate(4.049 3.923)" fill="#c8c8c8"/>
        <rect id="Rectángulo_311514" data-name="Rectángulo 311514" width="1.067" height="42.983" transform="translate(35.435)" fill="#c8c8c8"/>
        <rect id="Rectángulo_311515" data-name="Rectángulo 311515" width="6.446" height="19.204" transform="translate(13.21 12.048)" fill="#ececec"/>
        <rect id="Rectángulo_311516" data-name="Rectángulo 311516" width="17.188" height="9.409" transform="translate(10.398 8.767)" fill="none" stroke="#ececec" stroke-miterlimit="10" stroke-width="1"/>
      </g>
      <g id="Grupo_1004676" data-name="Grupo 1004676" transform="translate(0 53.157)">
        <rect id="Rectángulo_311517" data-name="Rectángulo 311517" width="35.435" height="42.983" fill="#ececec"/>
        <rect id="Rectángulo_311518" data-name="Rectángulo 311518" width="27.337" height="35.137" transform="translate(4.049 3.923)" fill="#fff"/>
        <rect id="Rectángulo_311519" data-name="Rectángulo 311519" width="1.067" height="35.137" transform="translate(4.049 3.923)" fill="#c8c8c8"/>
        <rect id="Rectángulo_311520" data-name="Rectángulo 311520" width="1.067" height="42.983" transform="translate(35.435)" fill="#c8c8c8"/>
        <rect id="Rectángulo_311521" data-name="Rectángulo 311521" width="5.522" height="13.963" transform="translate(15.071 13.006)" fill="#ececec"/>
        <rect id="Rectángulo_311522" data-name="Rectángulo 311522" width="14.835" height="9.625" transform="translate(11.573 21.491)" fill="none" stroke="#dcdcdc" stroke-miterlimit="10" stroke-width="1"/>
      </g>
    </g>
    <g id="Grupo_1004680" data-name="Grupo 1004680" transform="translate(741.692 1055.271)">
      <g id="Grupo_1004678" data-name="Grupo 1004678" transform="translate(0 22.359)">
        <path id="Trazado_673574" data-name="Trazado 673574" d="M799.827,1171.706a6.6,6.6,0,0,1-.461,2.534,4.2,4.2,0,0,1-1.9,1.958q-.433.259-1.066.591a8.665,8.665,0,0,0-1.239.792,4.564,4.564,0,0,0-1.023,1.08,2.492,2.492,0,0,0-.417,1.426,2.36,2.36,0,0,0,.231,1.065,2.426,2.426,0,0,0,.6.777,2.509,2.509,0,0,0,.878.475,3.42,3.42,0,0,0,1.022.158,2.958,2.958,0,0,0,1.153-.217,3.915,3.915,0,0,0,.936-.547,4.653,4.653,0,0,0,.749-.749,8.236,8.236,0,0,0,.561-.792l2.506,1.728a5.6,5.6,0,0,1-.993,1.584,6.1,6.1,0,0,1-1.411,1.166,6.611,6.611,0,0,1-1.714.72,7.4,7.4,0,0,1-1.9.245,7.541,7.541,0,0,1-2.16-.317,5.488,5.488,0,0,1-1.915-1.008,5.229,5.229,0,0,1-1.382-1.771,5.767,5.767,0,0,1-.532-2.577,5.577,5.577,0,0,1,.215-1.627,4.527,4.527,0,0,1,.62-1.282,5.4,5.4,0,0,1,.95-1.036,10.82,10.82,0,0,1,1.239-.893q.577-.345,1.151-.662a6.877,6.877,0,0,0,1.051-.706,3.461,3.461,0,0,0,.779-.892,2.352,2.352,0,0,0,.3-1.225Zm-.057-6.71v3.974h-3.2V1165Z" transform="translate(-790.353 -1164.996)" fill="#ececec"/>
      </g>
      <g id="Grupo_1004679" data-name="Grupo 1004679" transform="translate(107.195 0)">
        <path id="Trazado_673575" data-name="Trazado 673575" d="M997.366,1136.341a6.615,6.615,0,0,1,.461-2.534,4.208,4.208,0,0,1,1.9-1.958c.289-.172.643-.37,1.066-.59a8.783,8.783,0,0,0,1.239-.792,4.568,4.568,0,0,0,1.022-1.08,2.491,2.491,0,0,0,.417-1.425,2.362,2.362,0,0,0-.231-1.066,2.422,2.422,0,0,0-.6-.777,2.513,2.513,0,0,0-.878-.476,3.422,3.422,0,0,0-1.022-.158,2.965,2.965,0,0,0-1.152.216,3.946,3.946,0,0,0-.936.547,4.644,4.644,0,0,0-.749.749,8.31,8.31,0,0,0-.561.793l-2.506-1.728a5.6,5.6,0,0,1,.994-1.584,6.107,6.107,0,0,1,1.411-1.167,6.634,6.634,0,0,1,1.714-.72,7.378,7.378,0,0,1,1.9-.245,7.557,7.557,0,0,1,2.16.317,5.482,5.482,0,0,1,1.915,1.008,5.221,5.221,0,0,1,1.382,1.771,5.762,5.762,0,0,1,.533,2.578,5.579,5.579,0,0,1-.215,1.627,4.541,4.541,0,0,1-.62,1.282,5.368,5.368,0,0,1-.95,1.036,10.748,10.748,0,0,1-1.239.893q-.576.346-1.151.663a6.855,6.855,0,0,0-1.051.706,3.44,3.44,0,0,0-.779.892,2.343,2.343,0,0,0-.3,1.224Zm.058,6.71v-3.974h3.2v3.974Z" transform="translate(-994.831 -1122.345)" fill="#ececec"/>
      </g>
    </g>
    <ellipse id="Elipse_7891" data-name="Elipse 7891" cx="59.458" cy="8.433" rx="59.458" ry="8.433" transform="translate(740.43 1176.756)" fill="#ececec"/>
    <g id="Grupo_1004682" data-name="Grupo 1004682" transform="translate(709.434 981.364)">
      <path id="Trazado_673576" data-name="Trazado 673576" d="M810.426,1085.654A5.654,5.654,0,1,0,816.08,1080,5.654,5.654,0,0,0,810.426,1085.654Z" transform="translate(-767.645 -1028.291)" fill="#fff" stroke="#263238" stroke-miterlimit="10" stroke-width="1"/>
      <path id="Trazado_673577" data-name="Trazado 673577" d="M728.82,1008.278a26.914,26.914,0,1,0,26.914-26.914A26.914,26.914,0,0,0,728.82,1008.278Z" transform="translate(-728.82 -981.364)" fill="#fff" stroke="#263238" stroke-miterlimit="10" stroke-width="1"/>
      <path id="Trazado_673578" data-name="Trazado 673578" d="M835.4,1105.718a3.147,3.147,0,1,0,3.147-3.147A3.147,3.147,0,0,0,835.4,1105.718Z" transform="translate(-779.529 -1039.03)" fill="#fff" stroke="#263238" stroke-miterlimit="10" stroke-width="1"/>
      <g id="Grupo_1004681" data-name="Grupo 1004681" transform="translate(12.244 21.102)">
        <path id="Trazado_673579" data-name="Trazado 673579" d="M754.587,1021.769l2.814,5.5,2.862-5.5h2.4l-4.148,7.428v3.987h-2.2v-4.019l-4.132-7.4Z" transform="translate(-752.175 -1021.689)" fill="#449c6e"/>
        <path id="Trazado_673580" data-name="Trazado 673580" d="M782.488,1031.239v1.945h-7.926v-11.415h7.781v1.945h-5.563v2.75h4.807v1.8h-4.807v2.974Z" transform="translate(-762.826 -1021.689)" fill="#449c6e"/>
        <path id="Trazado_673581" data-name="Trazado 673581" d="M798.576,1024.687a2.778,2.778,0,0,0-.41-.306,5.087,5.087,0,0,0-.723-.378,6.326,6.326,0,0,0-.925-.313,4.052,4.052,0,0,0-1.013-.128,2.267,2.267,0,0,0-1.366.338,1.117,1.117,0,0,0-.45.948.975.975,0,0,0,.169.587,1.458,1.458,0,0,0,.49.41,4.112,4.112,0,0,0,.812.321q.491.145,1.133.306.836.226,1.519.482a4.121,4.121,0,0,1,1.158.643,2.67,2.67,0,0,1,.731.924,3.069,3.069,0,0,1,.257,1.326,3.3,3.3,0,0,1-.345,1.568,2.9,2.9,0,0,1-.933,1.053,4.031,4.031,0,0,1-1.35.587,6.782,6.782,0,0,1-1.6.185,8.591,8.591,0,0,1-2.54-.386,7.834,7.834,0,0,1-2.25-1.093l.98-1.913a3.074,3.074,0,0,0,.523.378,8,8,0,0,0,.892.466,6.9,6.9,0,0,0,1.142.394,5.163,5.163,0,0,0,1.286.16q1.833,0,1.833-1.173a.963.963,0,0,0-.209-.627,1.783,1.783,0,0,0-.6-.45,5.756,5.756,0,0,0-.933-.354q-.546-.16-1.222-.354a10.265,10.265,0,0,1-1.423-.49,3.724,3.724,0,0,1-1-.627,2.346,2.346,0,0,1-.6-.836,2.889,2.889,0,0,1-.2-1.133,3.548,3.548,0,0,1,.321-1.543,3.121,3.121,0,0,1,.892-1.126,4.04,4.04,0,0,1,1.327-.683,5.481,5.481,0,0,1,1.624-.233,6.308,6.308,0,0,1,2.219.378,8.275,8.275,0,0,1,1.769.892Z" transform="translate(-770.618 -1021.616)" fill="#449c6e"/>
      </g>
    </g>
    <g id="Grupo_1004684" data-name="Grupo 1004684" transform="translate(823.807 981.364)">
      <path id="Trazado_673582" data-name="Trazado 673582" d="M973.711,1085.654a5.654,5.654,0,1,1-5.654-5.654A5.654,5.654,0,0,1,973.711,1085.654Z" transform="translate(-954.323 -1028.291)" fill="#fff" stroke="#263238" stroke-miterlimit="10" stroke-width="1"/>
      <path id="Trazado_673583" data-name="Trazado 673583" d="M1016.73,1008.278a26.914,26.914,0,1,1-26.914-26.914A26.914,26.914,0,0,1,1016.73,1008.278Z" transform="translate(-954.561 -981.364)" fill="#fff" stroke="#263238" stroke-miterlimit="10" stroke-width="1"/>
      <path id="Trazado_673584" data-name="Trazado 673584" d="M953.284,1105.718a3.147,3.147,0,1,1-3.147-3.147A3.147,3.147,0,0,1,953.284,1105.718Z" transform="translate(-946.99 -1039.03)" fill="#fff" stroke="#263238" stroke-miterlimit="10" stroke-width="1"/>
      <g id="Grupo_1004683" data-name="Grupo 1004683" transform="translate(23.897 21.126)">
        <path id="Trazado_673585" data-name="Trazado 673585" d="M994.793,1025.915v7.315h-2.218v-11.415h1.72l5.948,7.492v-7.476h2.219v11.4h-1.8Z" transform="translate(-992.575 -1021.735)" fill="#263238"/>
        <path id="Trazado_673586" data-name="Trazado 673586" d="M1020.218,1033.238a5.187,5.187,0,0,1-2.275-.49,5.593,5.593,0,0,1-1.753-1.3,6.036,6.036,0,0,1-1.535-4,5.745,5.745,0,0,1,.426-2.187,6.022,6.022,0,0,1,1.174-1.849,5.6,5.6,0,0,1,1.776-1.278,5.276,5.276,0,0,1,2.235-.474,5.012,5.012,0,0,1,2.259.506,5.649,5.649,0,0,1,1.745,1.326,6.105,6.105,0,0,1,1.125,1.865,5.87,5.87,0,0,1,.4,2.122,5.773,5.773,0,0,1-.418,2.178,5.913,5.913,0,0,1-1.158,1.833,5.557,5.557,0,0,1-1.769,1.27A5.271,5.271,0,0,1,1020.218,1033.238Zm-3.312-5.788a4.581,4.581,0,0,0,.225,1.431,3.818,3.818,0,0,0,.651,1.222,3.238,3.238,0,0,0,1.045.852,3.239,3.239,0,0,0,2.829-.008,3.242,3.242,0,0,0,1.045-.876,3.888,3.888,0,0,0,.643-1.23,4.561,4.561,0,0,0,.217-1.39,4.461,4.461,0,0,0-.233-1.431,3.944,3.944,0,0,0-.66-1.221,3.149,3.149,0,0,0-1.045-.845,3.256,3.256,0,0,0-2.821.016,3.167,3.167,0,0,0-1.045.868,3.884,3.884,0,0,0-.635,1.222A4.552,4.552,0,0,0,1016.906,1027.45Z" transform="translate(-1003.08 -1021.662)" fill="#263238"/>
      </g>
    </g>
    <g id="Grupo_1004696" data-name="Grupo 1004696" transform="translate(692.278 1093.865)">
      <g id="Grupo_1004693" data-name="Grupo 1004693">
        <g id="Grupo_1004686" data-name="Grupo 1004686" transform="translate(20.497 19.02)">
          <path id="Trazado_673587" data-name="Trazado 673587" d="M752.124,1232.373c-7.372,9.984-15.058,21.569-16.929,34.089-.023.19.281.251.325.063a74.411,74.411,0,0,1,3.26-10.024c4.846-1.334,9.6-2.429,12.148-7.239,2.6-4.945,2.266-11.392,1.772-16.778C752.666,1232.2,752.274,1232.181,752.124,1232.373Z" transform="translate(-735.194 -1232.245)" fill="#449c6e"/>
          <g id="Grupo_1004685" data-name="Grupo 1004685" transform="translate(3.645 3.145)">
            <path id="Trazado_673588" data-name="Trazado 673588" d="M742.161,1259.261a82.555,82.555,0,0,1,12.966-21c.036-.042.093.018.059.059a88.883,88.883,0,0,0-8.851,13.914c2.441-2.478,5.116-4.7,7.427-7.325.045-.051.117.023.074.074-2.3,2.754-4.8,5.748-7.794,7.787q-1.2,2.219-2.431,4.448c.2-.112.408-.213.614-.315.036-.018.068.036.032.055-.229.115-.454.237-.689.337-.388.7-.773,1.4-1.172,2.106C742.307,1259.555,742.091,1259.418,742.161,1259.261Z" transform="translate(-742.147 -1238.244)" fill="#263238"/>
            <path id="Trazado_673589" data-name="Trazado 673589" d="M746.836,1269.951a43.523,43.523,0,0,0,5.659-3.778c.048-.039.118.028.069.069a29.89,29.89,0,0,1-5.647,3.847C746.826,1270.137,746.746,1270,746.836,1269.951Z" transform="translate(-744.359 -1251.526)" fill="#263238"/>
          </g>
        </g>
        <g id="Grupo_1004688" data-name="Grupo 1004688" transform="translate(19.114)">
          <path id="Trazado_673590" data-name="Trazado 673590" d="M733.087,1247.34c.015.151.273.149.27-.013.038-4.123,0-8.265.066-12.406,1.056-2.132,3.323-3.312,4.9-5.02a21.936,21.936,0,0,0,2.94-4.094,29.41,29.41,0,0,0,3.412-11.373c.435-4.41-1.238-18.963-3.1-18.457-.965.262-4.084,7.47-4.912,9.853a68.7,68.7,0,0,0-2.934,12.082C732.224,1227.614,732.349,1237.576,733.087,1247.34Z" transform="translate(-732.556 -1195.964)" fill="#449c6e"/>
          <g id="Grupo_1004687" data-name="Grupo 1004687" transform="translate(0.465 2.545)">
            <path id="Trazado_673591" data-name="Trazado 673591" d="M733.479,1231.864l.018-.016A93.238,93.238,0,0,1,736,1216.3c1.185-5.451,2.571-10.583,5.376-15.444a.081.081,0,0,1,.139.081,57.311,57.311,0,0,0-4.318,11.854c.188-.294.416-.572.611-.85.077-.109.257-.007.181.106a7.639,7.639,0,0,1-.877,1.238.073.073,0,0,1-.036.017c-.966,3.9-1.659,7.881-2.252,11.856.045-.05.088-.1.132-.154.03-.033.081.009.061.047-.073.132-.156.263-.236.394-.3,2.018-.576,4.031-.854,6.028a28.381,28.381,0,0,0,8.391-11.15c.008-.02.041-.012.034.009a23.168,23.168,0,0,1-8.482,11.544q-.112.808-.226,1.611c-.016.111-.193.082-.193-.026,0-.476.025-.952.043-1.428A.11.11,0,0,1,733.479,1231.864Z" transform="translate(-733.442 -1200.819)" fill="#263238"/>
            <path id="Trazado_673592" data-name="Trazado 673592" d="M736.729,1234.158a83.136,83.136,0,0,0,7.319-12.606c.022-.051.109-.015.09.038a40.906,40.906,0,0,1-7.271,12.674C736.8,1234.337,736.673,1234.24,736.729,1234.158Z" transform="translate(-734.999 -1210.671)" fill="#263238"/>
            <path id="Trazado_673593" data-name="Trazado 673593" d="M743.687,1214.154c1.137-2.012,2.337-3.97,3.407-6.022.03-.058.109-.007.084.049a31.322,31.322,0,0,1-3.316,6.075C743.787,1214.36,743.621,1214.271,743.687,1214.154Z" transform="translate(-738.309 -1204.286)" fill="#263238"/>
            <path id="Trazado_673594" data-name="Trazado 673594" d="M742.838,1221.313a.018.018,0,0,1,0,.035A.018.018,0,0,1,742.838,1221.313Z" transform="translate(-737.904 -1210.569)" fill="#263238"/>
          </g>
        </g>
        <g id="Grupo_1004690" data-name="Grupo 1004690" transform="translate(5.342 6.233)">
          <path id="Trazado_673595" data-name="Trazado 673595" d="M717.8,1241.073a41.992,41.992,0,0,1-.963,8.123c.042.294.084.587.127.889a38.694,38.694,0,0,0,1.453-9.054.277.277,0,0,0,.013-.28v-.009a59.972,59.972,0,0,0-.91-12.268c-1.276-7.577-4.066-14.849-9.35-20.528a.377.377,0,0,0-.583.121c-2.132,5.422-1.388,11.891.428,17.3a31.652,31.652,0,0,0,4.191,8.217C714.014,1236.133,716.325,1238.29,717.8,1241.073Z" transform="translate(-706.284 -1207.854)" fill="#449c6e"/>
          <g id="Grupo_1004689" data-name="Grupo 1004689" transform="translate(2.298 2.577)">
            <path id="Trazado_673596" data-name="Trazado 673596" d="M710.877,1212.823c5.008,8.127,8.492,17.764,8.918,27.365.007.17-.279.215-.3.041-.118-.862-.251-1.717-.389-2.569,0,0-.006,0-.008,0a32.787,32.787,0,0,1-5.682-6.558c-.026-.043.037-.095.071-.055a68.837,68.837,0,0,0,5.52,6.008q-.538-3.185-1.287-6.271c-.134-.154-.264-.311-.4-.465-.087-.1.058-.251.148-.149l.121.133a72.483,72.483,0,0,0-2.619-8.313,25.182,25.182,0,0,1-3.629-4.667.039.039,0,0,1,.067-.039c.746,1.047,1.469,2.1,2.316,3.073.337.387.708.749,1.057,1.127a64.092,64.092,0,0,0-4.1-8.547A.112.112,0,0,1,710.877,1212.823Z" transform="translate(-710.667 -1212.77)" fill="#263238"/>
            <path id="Trazado_673597" data-name="Trazado 673597" d="M712.89,1231.972c1.619,2.178,3.463,4.257,4.968,6.509.044.064-.051.13-.1.08a33.261,33.261,0,0,1-4.972-6.526C712.736,1231.965,712.842,1231.909,712.89,1231.972Z" transform="translate(-711.667 -1221.892)" fill="#263238"/>
            <path id="Trazado_673598" data-name="Trazado 673598" d="M722.826,1245.361l.069.069c.048.048-.027.123-.074.074l-.069-.069A.053.053,0,0,1,722.826,1245.361Z" transform="translate(-716.409 -1228.268)" fill="#263238"/>
          </g>
        </g>
        <g id="Grupo_1004692" data-name="Grupo 1004692" transform="translate(0 23.998)">
          <path id="Trazado_673599" data-name="Trazado 673599" d="M696.1,1242.231a24.942,24.942,0,0,0,5.285,12.4,13.154,13.154,0,0,0,4.286,3.345c1.856.918,3.8,1.976,5.719,2.729a37.554,37.554,0,0,1,2.025,7.194c.062-.21.124-.428.186-.637-1.232-10.588-8.083-19.637-16.846-25.445A.426.426,0,0,0,696.1,1242.231Z" transform="translate(-696.095 -1241.741)" fill="#449c6e"/>
          <g id="Grupo_1004691" data-name="Grupo 1004691" transform="translate(3.009 3.49)">
            <path id="Trazado_673600" data-name="Trazado 673600" d="M701.855,1248.527c-.062-.055.021-.166.089-.115a35.851,35.851,0,0,1,11.166,13.761c.064.145-.135.272-.218.127-.407-.714-.823-1.408-1.245-2.09h-.006a12.045,12.045,0,0,1-5.379-3.121c-.04-.036.019-.095.059-.059a12.3,12.3,0,0,0,2.531,1.778c.815.414,1.693.675,2.542,1.007-.742-1.176-1.515-2.3-2.321-3.4a23.343,23.343,0,0,1-6.011-3.379c-.057-.041-.006-.135.057-.1a59.917,59.917,0,0,0,5.587,2.987,50.1,50.1,0,0,0-3.945-4.6c-.679-.359-1.369-.72-2.028-1.1a.056.056,0,0,1,.044-.1,7.288,7.288,0,0,1,1.556.764C703.542,1250.086,702.728,1249.3,701.855,1248.527Z" transform="translate(-701.834 -1248.399)" fill="#263238"/>
            <path id="Trazado_673601" data-name="Trazado 673601" d="M702.155,1255.608a2.531,2.531,0,0,1,.337.24c.033.028-.008.07-.042.055a2.483,2.483,0,0,1-.352-.2C702.038,1255.666,702.094,1255.569,702.155,1255.608Z" transform="translate(-701.947 -1251.824)" fill="#263238"/>
          </g>
        </g>
      </g>
      <g id="Grupo_1004695" data-name="Grupo 1004695" transform="translate(7.166 43.019)">
        <g id="Grupo_1004694" data-name="Grupo 1004694" transform="translate(0 3.372)">
          <path id="Trazado_673602" data-name="Trazado 673602" d="M733.776,1311.146H709.763l1.939-21.868.426-4.823h19.285l.426,4.823Z" transform="translate(-709.763 -1284.456)" fill="#455a64"/>
          <path id="Trazado_673603" data-name="Trazado 673603" d="M733.6,1289.279H713.461l.425-4.823h19.285Z" transform="translate(-711.523 -1284.456)" fill="#263238"/>
        </g>
        <rect id="Rectángulo_311523" data-name="Rectángulo 311523" width="21.582" height="4.773" transform="translate(1.215)" fill="#455a64"/>
      </g>
    </g>
    <line id="Línea_896" data-name="Línea 896" x2="223.628" transform="translate(688.073 1166.955)" fill="none" stroke="#1a2e35" stroke-linecap="round" stroke-linejoin="round" stroke-width="1"/>
    <g id="Grupo_1004734" data-name="Grupo 1004734" transform="translate(737.229 1021.835)">
      <g id="Grupo_1004733" data-name="Grupo 1004733">
        <g id="Grupo_1004697" data-name="Grupo 1004697" transform="translate(19.399 12.156)">
          <path id="Trazado_673604" data-name="Trazado 673604" d="M889.3,1169.1l-4.659-.489a13.027,13.027,0,0,0-.7-3.644c-1.629-4.587-5.19-8.381-7.918-12.156-.009-.018-.03.007-.021.026a43.22,43.22,0,0,1,6.1,12.727,11.972,11.972,0,0,1,.4,2.82l-2.9-.3a17.511,17.511,0,0,0-1.9-8.051c-.037-.073-.158.005-.124.093a16.724,16.724,0,0,1,.969,7.85l-25.2-2.657a42.515,42.515,0,0,1-.281-6.971.187.187,0,1,0-.373.011,59.581,59.581,0,0,0,0,6.9l-2.1-.23a46.84,46.84,0,0,1,1.186-11.866.1.1,0,1,0-.186-.05,55.7,55.7,0,0,0-2.078,11.8l-17.448-1.829a49.909,49.909,0,0,0,2.963-7.619c.072-.217-.246-.3-.318-.085a37.113,37.113,0,0,1-3.652,7.591l-2.587-.266a41.088,41.088,0,0,0,4.739-13.566c.025-.2-.279-.233-.317-.038-.977,5.136-3.8,9.257-6.6,13.367l-6.568-.685c2.55-3.847,6.751-7.22,7.618-11.9.951-5.253-3.735-8.085-4.907-12.628-1.971-7.613,2.159-12.9,7.224-17.7,4.655-4.436,4.544-9.862,5.992-15.8,1.056-4.373,2.63-9.191,5.211-12.888,7.935-11.432,20.671-8.939,20.667-8.767a16.154,16.154,0,0,1,8.236,3.057.047.047,0,0,1,.036.025,4.5,4.5,0,0,1,.481.381,21.353,21.353,0,0,1,6.2,8.444l.019.037a32.214,32.214,0,0,1,1.207,3.242c.617,2,.6,4.707,1.026,7.85a.591.591,0,0,0,.023.18,22.64,22.64,0,0,0,7.79,14.6c6.655,5.884,4.218,14.511-1.97,22.924-2.616,3.561-2.847,5.961-2.019,8.076,0,.015,0,.015.005.033.123.285.24.538.38.812,1.232,2.35,3.59,4.481,5.108,7.68A18.112,18.112,0,0,1,889.3,1169.1Z" transform="translate(-819.262 -1081.753)" fill="#263238"/>
          <path id="Trazado_673605" data-name="Trazado 673605" d="M849.9,1084.262a22.631,22.631,0,0,0-11.794,12.65c-1.722,4.483-2.17,9.441-4.355,13.745-2.064,4.065-5.445,7.027-8.223,10.479-3.674,4.567-6.177,10.28-3.682,15.9,1.547,3.483,5.22,7.067,4.77,11.352-.526,5.009-5.159,9.6-7.735,13.611-.125.194.148.429.29.244,3.453-4.5,9.373-10.349,7.843-16.613-.7-2.872-2.452-5.129-3.8-7.62-2.616-4.831-1.728-9.792,1.387-14.411,4.217-6.255,9.541-10.123,11.692-17.825,1.229-4.4,1.912-8.955,4.388-12.864a22.686,22.686,0,0,1,9.329-8.344C850.163,1084.486,850.058,1084.188,849.9,1084.262Z" transform="translate(-818.845 -1082.941)" fill="#263238"/>
          <path id="Trazado_673606" data-name="Trazado 673606" d="M930.723,1160.932c-1.77-2.759-4.026-4.845-2.782-8.783.863-2.735,2.916-5,4.371-7.382,3.632-5.949,5.925-13.571,3-20.1-1.646-3.676-4.732-4.737-7.233-7.5-3.034-3.356-3.961-8.3-4.763-12.849-1.2-6.821-2.764-14.608-9.672-16.57-.06-.017-.086.083-.028.1,8.767,3.078,8.136,14.447,10.292,22.469a17.8,17.8,0,0,0,3.666,7.392c2.892,3.2,6.545,4.431,7.882,9.2,1.254,4.473.366,9.294-1.5,13.585-1.617,3.725-4.415,6.752-5.964,10.465a8.041,8.041,0,0,0-.218,6.694c.8,1.672,2.255,2.845,3.122,4.472a12.936,12.936,0,0,1,1.321,7.224c-.022.259.344.244.367-.013A12.927,12.927,0,0,0,930.723,1160.932Z" transform="translate(-863.92 -1084.605)" fill="#263238"/>
        </g>
        <g id="Grupo_1004705" data-name="Grupo 1004705" transform="translate(60.765 40.771)">
          <path id="Trazado_673607" data-name="Trazado 673607" d="M901.623,1203.931c12.713,22.484,45.625,54.163,55.366,49.11,11.961-6.2,14.235-37.091,13.334-44.075-.539-4.179-33.316-3.4-32.487,1.029.49,2.622,1.49,5.39.874,5.049-1.935-1.068-6.893-5.75-25.095-19.335C903.472,1188.14,893.207,1189.047,901.623,1203.931Z" transform="translate(-898.116 -1162.365)" fill="#ffaba1"/>
          <path id="Trazado_673608" data-name="Trazado 673608" d="M976.98,1255.552c-1.166-3.014-3.763-11.467-1.992-19.337.019-.088.122-.077.112.015-.7,6.563,1.048,16.222,1.98,19.268C977.1,1255.577,977.009,1255.627,976.98,1255.552Z" transform="translate(-934.212 -1183.826)" fill="#263238"/>
          <g id="Grupo_1004701" data-name="Grupo 1004701" transform="translate(23.788)">
            <path id="Trazado_673609" data-name="Trazado 673609" d="M995.37,1179.393c3.145,5.963,4.808,20.675,3.844,24.378s-25.882,7.361-28.71,4.637-11.863-23.623-10.564-30.378S992.111,1173.214,995.37,1179.393Z" transform="translate(-951.066 -1154.152)" fill="#ffaba1"/>
            <g id="Grupo_1004699" data-name="Grupo 1004699">
              <path id="Trazado_673610" data-name="Trazado 673610" d="M954.666,1144.908c-1.649-2.66-8.479-9.838-10.779-8.377s1.224,7.517,2.736,9.93c3.118,4.972,4.658,12.935,5.336,16.8s8.9-1.741,8.9-1.741S958.938,1151.8,954.666,1144.908Z" transform="translate(-943.129 -1136.337)" fill="#ffaba1"/>
              <path id="Trazado_673611" data-name="Trazado 673611" d="M966.591,1177.01s1.015,6.854,4.905,7.533c3.751.643,4.057-5.005,4.084-5.41.057.362,1.155,6.636,5.134,6.915,4.136.286,3.469-5.437,3.425-5.806.161.324,2.363,4.587,5.435,4.112,5.277-.82-.055-11.874,1.542-15.893,0,0,7.119,1.928,7.337,1.94,0,0-4.857-10.621-10.4-12.47a3.729,3.729,0,0,0-4.406,1.554s-1.187-3.6-4.313-3.916c-1.6-.159-3.288,2.267-3.288,2.267s-1.071-2.841-3.869-2.95c-2.233-.094-3.876,2.372-4.216,3.386C965.338,1166.073,966.591,1177.01,966.591,1177.01Z" transform="translate(-954.149 -1145.16)" fill="#ffaba1"/>
              <g id="Grupo_1004698" data-name="Grupo 1004698" transform="translate(11.595 12.367)">
                <path id="Trazado_673612" data-name="Trazado 673612" d="M967.838,1159.993a.05.05,0,0,0-.095-.034,33.234,33.234,0,0,0-1.7,19.7c.051.208.411.215.4-.025A68.074,68.074,0,0,1,967.838,1159.993Z" transform="translate(-965.247 -1159.927)" fill="#263238"/>
                <path id="Trazado_673613" data-name="Trazado 673613" d="M982.728,1160.261c.017-.073-.1-.1-.133-.027-2.474,6.209-3.182,14.516-.518,21.605.091.243.417.37.333.082C981,1177.073,981.312,1166.291,982.728,1160.261Z" transform="translate(-972.448 -1160.052)" fill="#263238"/>
                <path id="Trazado_673614" data-name="Trazado 673614" d="M998.434,1185c-2.292-6.9-2.143-13.834-.965-20.937.015-.092-.117-.1-.151-.031-1.523,3.318-1.8,7.924-1.715,11.527a19.158,19.158,0,0,0,2.59,9.522C998.26,1185.2,998.483,1185.151,998.434,1185Z" transform="translate(-979.682 -1161.859)" fill="#263238"/>
              </g>
              <path id="Trazado_673615" data-name="Trazado 673615" d="M966.862,1189.333a21.764,21.764,0,0,0,1.3,3.777,7.318,7.318,0,0,0,2.3,3.05,2.4,2.4,0,0,0,1.675.41,3.5,3.5,0,0,0,1.635-.685,4.271,4.271,0,0,0,1.413-3.178l.12-2.926.9,2.791a12,12,0,0,0,1.749,3.465,4.286,4.286,0,0,0,2.94,1.907,2.448,2.448,0,0,0,2.648-1.576,7.4,7.4,0,0,0,.3-3.7l-.482-3.436,1.572,3.076a11.307,11.307,0,0,0,1.62,2.373,4.64,4.64,0,0,0,2.224,1.49,2.2,2.2,0,0,0,2.22-.689,4.871,4.871,0,0,0,.763-2.62,38.342,38.342,0,0,0-.382-6c-.108-1.01-.218-2.024-.278-3.044a7.238,7.238,0,0,1,.289-3.032,7.813,7.813,0,0,0-.009,3.005c.137,1,.322,2,.507,3a32.718,32.718,0,0,1,.71,6.113,5.7,5.7,0,0,1-.816,3.171,3.129,3.129,0,0,1-3.237,1.143,5.674,5.674,0,0,1-2.809-1.775,12.342,12.342,0,0,1-1.844-2.616l1.09-.36a8.5,8.5,0,0,1-.307,4.374,3.549,3.549,0,0,1-1.555,1.831,4.012,4.012,0,0,1-2.33.449,5.408,5.408,0,0,1-3.724-2.414,13.011,13.011,0,0,1-1.864-3.842l1.025-.135a5.1,5.1,0,0,1-1.955,3.837,4.293,4.293,0,0,1-2.065.74,3.1,3.1,0,0,1-2.114-.613,7.5,7.5,0,0,1-2.259-3.44A17.909,17.909,0,0,1,966.862,1189.333Z" transform="translate(-954.42 -1157.483)" fill="#263238"/>
            </g>
            <g id="Grupo_1004700" data-name="Grupo 1004700" transform="translate(3.14 24.834)">
              <path id="Trazado_673616" data-name="Trazado 673616" d="M963.251,1210.334s-22.226-18.006-10.931-23.244c3.356-1.556,19-3.943,19.537-.812.7,4.044-5.645,6.259-9.847,7.017,0,0,8.422,5.06,6.647,11.974A7.09,7.09,0,0,1,963.251,1210.334Z" transform="translate(-949.119 -1184.202)" fill="#ffaba1"/>
              <path id="Trazado_673617" data-name="Trazado 673617" d="M953.486,1187.091a14.961,14.961,0,0,1,4.005-1.721,32.4,32.4,0,0,1,4.273-.952,50.242,50.242,0,0,1,8.744-.7,8.225,8.225,0,0,1,2.3.35,3.075,3.075,0,0,1,1.154.658,2.173,2.173,0,0,1,.456.575,2.3,2.3,0,0,1,.23.688,3.684,3.684,0,0,1-.509,2.5,6.89,6.89,0,0,1-1.619,1.755,13.237,13.237,0,0,1-4.042,2.016,29.97,29.97,0,0,1-4.3,1.038l.159-.936a17.639,17.639,0,0,1,2.626,2.089,16.322,16.322,0,0,1,2.171,2.526,11.275,11.275,0,0,1,1.451,2.988,8.56,8.56,0,0,1,.38,3.255,9.677,9.677,0,0,0-.712-3.136,11.722,11.722,0,0,0-1.637-2.73,15.651,15.651,0,0,0-2.208-2.29,16.9,16.9,0,0,0-2.576-1.824l-1.132-.64,1.292-.3a31.962,31.962,0,0,0,4.106-1.13,12.866,12.866,0,0,0,3.673-1.883c1.027-.805,1.886-1.984,1.684-3.083-.093-.981-1.658-1.266-3.012-1.344a41.542,41.542,0,0,0-4.276.019c-1.439.059-2.876.137-4.305.288A27.766,27.766,0,0,0,953.486,1187.091Z" transform="translate(-951.197 -1183.708)" fill="#263238"/>
            </g>
          </g>
          <g id="Grupo_1004704" data-name="Grupo 1004704" transform="translate(0 25.817)">
            <path id="Trazado_673618" data-name="Trazado 673618" d="M917.293,1230.724l14.517-25.5s-16.891-13.61-27.127-18.74c-5.736-2.875-8.045,1.538-6.422,7.1C903.94,1213.068,917.293,1230.724,917.293,1230.724Z" transform="translate(-897.753 -1185.583)" fill="#ffc800"/>
            <path id="Trazado_673619" data-name="Trazado 673619" d="M917.293,1230.724l14.517-25.5s-16.891-13.61-27.127-18.74c-5.736-2.875-8.045,1.538-6.422,7.1C903.94,1213.068,917.293,1230.724,917.293,1230.724Z" transform="translate(-897.753 -1185.583)" fill="#449c6e"/>
            <path id="Trazado_673620" data-name="Trazado 673620" d="M897.8,1193.012a4.856,4.856,0,0,0-.031.488,1.378,1.378,0,0,1,.1.514,1.2,1.2,0,0,1-.084.456c.005.162.021.336.042.5a1.6,1.6,0,0,0,.32-.959A1.619,1.619,0,0,0,897.8,1193.012Zm11.077,6.128a1.607,1.607,0,1,0,1.6,1.6A1.612,1.612,0,0,0,908.881,1199.14Zm0,2.941a1.334,1.334,0,1,1,1.321-1.342A1.337,1.337,0,0,1,908.881,1202.081Zm8.5,20.325a1.6,1.6,0,1,0,1.6,1.6A1.6,1.6,0,0,0,917.378,1222.406Zm0,2.925a1.323,1.323,0,0,1-1.326-1.321,1.326,1.326,0,1,1,2.653,0A1.32,1.32,0,0,1,917.378,1225.331Zm-9.667-13.358a1.6,1.6,0,1,0,1.6,1.6A1.6,1.6,0,0,0,907.712,1211.974Zm0,2.925a1.326,1.326,0,0,1,0-2.653,1.326,1.326,0,1,1,0,2.653Zm14.8-7.869a1.609,1.609,0,1,0,0,3.219,1.609,1.609,0,0,0,0-3.219Zm0,2.941a1.329,1.329,0,1,1,1.321-1.321A1.326,1.326,0,0,1,922.511,1209.971Z" transform="translate(-897.762 -1189.117)" fill="#fff"/>
            <path id="Trazado_673621" data-name="Trazado 673621" d="M928.514,1213.344,917.29,1233.06s-13.352-17.656-19.03-37.132a9.509,9.509,0,0,1-.2-5.436Z" transform="translate(-897.752 -1187.918)" opacity="0.1"/>
            <g id="Grupo_1004703" data-name="Grupo 1004703" transform="translate(16.888 18.231)">
              <g id="Grupo_1004702" data-name="Grupo 1004702">
                <path id="Trazado_673622" data-name="Trazado 673622" d="M942.615,1220.378c-2.558,3.737-9.2,14.076-12.645,21.359-.02.043.137.141.164.1,3.777-5.627,10.49-17.37,12.715-21.316C942.89,1220.449,942.663,1220.307,942.615,1220.378Z" transform="translate(-929.968 -1220.359)" fill="#263238"/>
              </g>
            </g>
          </g>
        </g>
        <g id="Grupo_1004707" data-name="Grupo 1004707" transform="translate(6.435 63.474)">
          <path id="Trazado_673623" data-name="Trazado 673623" d="M794.116,1261l78.952-.186-4.363-27.146s6.243-7.578,5.062-15.8c-1.294-9.008-17.534-31.833-18.9-33.119-5.495-5.158-11.316-6.085-16.906-4.223h-.013C812.134,1196.754,794.116,1261,794.116,1261Z" transform="translate(-794.116 -1179.642)" fill="#449c6e"/>
          <path id="Trazado_673624" data-name="Trazado 673624" d="M875.063,1251.073a1.332,1.332,0,1,1-1.018-2.186,1.28,1.28,0,0,1,.7.2l-.054-.341a1.549,1.549,0,0,0-.646-.138,1.608,1.608,0,1,0,1.072,2.809Zm-15.936-8.295a1.608,1.608,0,1,0,1.6,1.611A1.613,1.613,0,0,0,859.127,1242.778Zm0,2.94a1.332,1.332,0,1,1,1.329-1.329A1.333,1.333,0,0,1,859.127,1245.719Zm12.589-29.064a1.608,1.608,0,1,0,1.611,1.6A1.605,1.605,0,0,0,871.715,1216.655Zm0,2.94a1.333,1.333,0,1,1,1.335-1.336A1.33,1.33,0,0,1,871.715,1219.6ZM813.838,1257.3a1.608,1.608,0,1,0,0,3.216,1.608,1.608,0,0,0,0-3.216Zm0,2.941a1.33,1.33,0,1,1,1.324-1.324A1.327,1.327,0,0,1,813.838,1260.242Zm16.362-8.223a1.608,1.608,0,1,0,1.6,1.611A1.613,1.613,0,0,0,830.2,1252.019Zm0,2.935a1.329,1.329,0,1,1,1.323-1.324A1.332,1.332,0,0,1,830.2,1254.954Zm-12.367-43.581a1.392,1.392,0,0,0-.228.018c-.06.108-.114.21-.168.318a1.427,1.427,0,0,1,.4-.06,1.327,1.327,0,1,1-1.258,1.731c-.06.114-.114.222-.168.329a1.6,1.6,0,1,0,1.425-2.335Zm4.522,12.3a1.6,1.6,0,1,0,1.6,1.6A1.6,1.6,0,0,0,822.354,1223.674Zm0,2.928a1.327,1.327,0,1,1,1.324-1.329A1.334,1.334,0,0,1,822.354,1226.6Zm13.218-36.352a1.608,1.608,0,0,0,0,3.216,1.608,1.608,0,1,0,0-3.216Zm0,2.94a1.333,1.333,0,1,1,1.341-1.336A1.335,1.335,0,0,1,835.572,1193.191Zm1.611,24.932a1.608,1.608,0,1,0,1.611,1.6A1.605,1.605,0,0,0,837.183,1218.122Zm0,2.94a1.329,1.329,0,1,1,1.336-1.336A1.332,1.332,0,0,1,837.183,1221.063Zm13.709-34.412a1.6,1.6,0,1,0,1.6,1.611A1.61,1.61,0,0,0,850.892,1186.651Zm0,2.934a1.329,1.329,0,1,1,1.323-1.323A1.329,1.329,0,0,1,850.892,1189.585Zm12.331,3.8a1.608,1.608,0,1,0,1.6,1.6A1.609,1.609,0,0,0,863.223,1193.388Zm0,2.94a1.333,1.333,0,1,1,1.323-1.341A1.334,1.334,0,0,1,863.223,1196.329ZM857.8,1255.7a1.608,1.608,0,1,0,1.6,1.6A1.605,1.605,0,0,0,857.8,1255.7Zm0,2.94a1.333,1.333,0,1,1,1.324-1.336A1.33,1.33,0,0,1,857.8,1258.637Zm-14.685-13.415a1.6,1.6,0,1,0,1.6,1.6A1.6,1.6,0,0,0,843.118,1245.222Zm0,2.929a1.327,1.327,0,1,1,1.324-1.33A1.335,1.335,0,0,1,843.118,1248.151Zm17.338-22.255a1.608,1.608,0,1,0,1.6,1.6A1.6,1.6,0,0,0,860.456,1225.9Zm0,2.935a1.329,1.329,0,1,1,1.323-1.336A1.332,1.332,0,0,1,860.456,1228.83Zm1.6-22.608a1.6,1.6,0,1,0,1.6,1.605A1.6,1.6,0,0,0,862.055,1206.222Zm0,2.929a1.327,1.327,0,1,1,1.329-1.324A1.324,1.324,0,0,1,862.055,1209.151Zm11.127,23.218a1.6,1.6,0,0,0-.635,3.073l-.054-.341a1.325,1.325,0,0,1,.689-2.455,1.139,1.139,0,0,1,.323.042c.048-.078.1-.156.156-.246A1.582,1.582,0,0,0,873.182,1232.369Zm-20.955-17.182a1.608,1.608,0,1,0,1.605,1.611A1.615,1.615,0,0,0,852.227,1215.188Zm0,2.935a1.33,1.33,0,1,1,1.324-1.324A1.327,1.327,0,0,1,852.227,1218.122Zm-41.245,14.247a1.6,1.6,0,1,0,1.605,1.6A1.6,1.6,0,0,0,810.982,1232.369Zm0,2.929a1.327,1.327,0,1,1,1.324-1.329A1.329,1.329,0,0,1,810.982,1235.3Zm32.136,24.674a1.607,1.607,0,0,0-1.6,1.533h.282a1.331,1.331,0,0,1,1.323-1.258,1.317,1.317,0,0,1,1.318,1.252h.281A1.6,1.6,0,0,0,843.118,1259.972Zm-12.4-25.105a1.6,1.6,0,1,0,1.605,1.6A1.6,1.6,0,0,0,830.715,1234.867Zm0,2.928a1.326,1.326,0,1,1,1.329-1.329A1.325,1.325,0,0,1,830.715,1237.8Zm.8-32.387a1.6,1.6,0,1,0,1.617,1.6A1.6,1.6,0,0,0,831.512,1205.408Zm0,2.928a1.327,1.327,0,0,1,0-2.653,1.327,1.327,0,1,1,0,2.653Zm-28.489,37.922a1.612,1.612,0,0,0-.306.03c-.036.108-.072.21-.108.311a1.359,1.359,0,0,1,.414-.066,1.333,1.333,0,1,1,0,2.665,1.309,1.309,0,0,1-1.108-.6c-.036.108-.072.21-.107.312a1.589,1.589,0,0,0,1.216.569,1.608,1.608,0,1,0,0-3.216Zm17.469-2.659a1.608,1.608,0,1,0,1.611,1.6A1.6,1.6,0,0,0,820.492,1243.6Zm0,2.935a1.329,1.329,0,1,1,1.336-1.335A1.332,1.332,0,0,1,820.492,1246.533Zm25.561-15.493a1.6,1.6,0,1,0,1.6,1.605A1.615,1.615,0,0,0,846.053,1231.04Zm0,2.929a1.324,1.324,0,1,1,1.324-1.324A1.332,1.332,0,0,1,846.053,1233.969Zm-4.162-52.918a1.289,1.289,0,0,1-.964.527h-.006c-.126.084-.246.167-.372.257a1.4,1.4,0,0,0,.276.024,1.614,1.614,0,0,0,1.461-.935C842.154,1180.967,842.022,1181,841.89,1181.051Zm4.959,17.847a1.608,1.608,0,1,0,1.617,1.6A1.6,1.6,0,0,0,846.849,1198.9Zm0,2.94a1.333,1.333,0,1,1,1.341-1.342A1.335,1.335,0,0,1,846.849,1201.838Z" transform="translate(-797.775 -1180.252)" fill="#fff"/>
          <g id="Grupo_1004706" data-name="Grupo 1004706" transform="translate(43.054 51.947)">
            <path id="Trazado_673625" data-name="Trazado 673625" d="M895.281,1278.733a65.656,65.656,0,0,0-9.587,1.576c-1.561.4-3.094.87-4.624,1.373-.763.252-1.53.477-2.3.7a10.4,10.4,0,0,1-2.47.466.058.058,0,0,0,0,.115,17.588,17.588,0,0,0,2.379-.044,17.029,17.029,0,0,0,2.267-.427c1.588-.39,3.156-.855,4.74-1.262,3.195-.821,6.388-1.641,9.635-2.23C895.471,1278.972,895.433,1278.717,895.281,1278.733Z" transform="translate(-876.244 -1278.733)" fill="#263238"/>
            <path id="Trazado_673626" data-name="Trazado 673626" d="M913.216,1283.837a70.933,70.933,0,0,0-8.009-.385c-1.339.016-2.667.109-4,.239-.636.061-1.271.135-1.9.215-.7.089-1.384.271-2.082.35-.073.008-.073.122,0,.116.661-.055,1.334,0,2-.015s1.332-.037,2-.053c1.334-.033,2.667-.05,4-.095,2.67-.09,5.329-.154,8-.151C913.365,1284.057,913.354,1283.851,913.216,1283.837Z" transform="translate(-886.198 -1280.976)" fill="#263238"/>
          </g>
        </g>
        <g id="Grupo_1004717" data-name="Grupo 1004717" transform="translate(0 64.722)">
          <g id="Grupo_1004712" data-name="Grupo 1004712">
            <path id="Trazado_673627" data-name="Trazado 673627" d="M822.642,1188.772c-20.109,21.078-45.113,65.125-40.168,73.888,5.509,9.76,34.279-20.069,33.369-21.506-.773-1.221,9.474-27.918,16.752-47.314C839.867,1174.46,827.614,1183.559,822.642,1188.772Z" transform="translate(-781.84 -1182.024)" fill="#ffaba1"/>
            <g id="Grupo_1004711" data-name="Grupo 1004711" transform="translate(16.161 0)">
              <path id="Trazado_673628" data-name="Trazado 673628" d="M812.669,1214.043l28.875,5.2s7.208-20.459,8.637-31.819c.8-6.366-2.94-6.627-7.647-3.245C826.06,1196.019,812.669,1214.043,812.669,1214.043Z" transform="translate(-812.669 -1182.024)" fill="#449c6e"/>
              <path id="Trazado_673629" data-name="Trazado 673629" d="M830.921,1211.949a1.6,1.6,0,1,0,1.605,1.6A1.6,1.6,0,0,0,830.921,1211.949Zm0,2.928a1.327,1.327,0,1,1,1.324-1.329A1.329,1.329,0,0,1,830.921,1214.877Zm17.739-24.051a1.608,1.608,0,0,0,0,3.216,1.608,1.608,0,1,0,0-3.216Zm0,2.94a1.333,1.333,0,1,1,1.341-1.336A1.335,1.335,0,0,1,848.66,1193.767Zm-12.618,3.366a1.628,1.628,0,0,0-.7.161h-.006c-.252.252-.5.5-.743.749v.006a1.553,1.553,0,0,0-.156.689,1.608,1.608,0,1,0,1.605-1.605Zm0,2.94a1.333,1.333,0,1,1,1.335-1.335A1.331,1.331,0,0,1,836.042,1200.073Zm13.043,19.158.336.06a.225.225,0,0,1,.06-.048c.024-.066.072-.2.144-.407A1.491,1.491,0,0,0,849.085,1219.231Zm-4.485-13.247a1.6,1.6,0,1,0,1.617,1.6A1.6,1.6,0,0,0,844.6,1205.984Zm0,2.928a1.327,1.327,0,0,1,0-2.653,1.327,1.327,0,1,1,0,2.653Zm9.127-26.489c.06.006.12.012.186.012a1.592,1.592,0,0,0,.928-.3A5.669,5.669,0,0,0,853.727,1182.424Z" transform="translate(-820.589 -1182.077)" fill="#fff"/>
              <g id="Grupo_1004709" data-name="Grupo 1004709" transform="translate(4.272 27.679)">
                <g id="Grupo_1004708" data-name="Grupo 1004708">
                  <path id="Trazado_673630" data-name="Trazado 673630" d="M845.231,1239.632c-4.376-1.167-16.337-3.991-24.35-4.81-.048-.005-.089.176-.042.188,6.563,1.688,19.872,4.108,24.333,4.892C845.256,1239.916,845.314,1239.655,845.231,1239.632Z" transform="translate(-820.819 -1234.822)" fill="#263238"/>
                </g>
              </g>
              <g id="Grupo_1004710" data-name="Grupo 1004710" transform="translate(25.355 18.609)">
                <path id="Trazado_673631" data-name="Trazado 673631" d="M861.035,1235.5c1.191.115,2.376.256,3.559.417l-.248.147c.859-3.147,1.814-6.26,2.84-9.352s2.118-6.161,3.361-9.187c-.754,3.176-1.665,6.308-2.631,9.421s-2.014,6.2-3.152,9.257l-.07.187-.178-.04C863.352,1236.084,862.191,1235.8,861.035,1235.5Z" transform="translate(-861.035 -1217.521)" fill="#263238"/>
                <path id="Trazado_673632" data-name="Trazado 673632" d="M875.533,1226.272a8.9,8.9,0,0,1,.985-1.823,13.049,13.049,0,0,1,1.306-1.621,3.745,3.745,0,0,1-.343.992,6.583,6.583,0,0,1-.522.9A6.817,6.817,0,0,1,875.533,1226.272Z" transform="translate(-867.933 -1220.046)" fill="#263238"/>
              </g>
            </g>
          </g>
          <g id="Grupo_1004716" data-name="Grupo 1004716" transform="translate(0.803 56.188)">
            <g id="Grupo_1004715" data-name="Grupo 1004715" transform="translate(0 0.031)">
              <path id="Trazado_673633" data-name="Trazado 673633" d="M783.852,1314.578c5.455,5.9,18.045,5.448,49.853,7.281,4.4.253,14.548-30.327,9.861-30.839-5.9-.645-28.949-1.872-30.646-1.748C798.609,1290.311,780.152,1310.575,783.852,1314.578Z" transform="translate(-783.372 -1289.264)" fill="#ffaba1"/>
              <g id="Grupo_1004714" data-name="Grupo 1004714" transform="translate(35.766 1.19)">
                <path id="Trazado_673634" data-name="Trazado 673634" d="M869.635,1291.534s13.4.189,20.4,2.467c9.382,3.049,16.227,9.546,18.931,12.442,5.645,6.044,15.113,24.559,10.256,28.217-4.4,3.311-13.12-16.1-13.12-16.1s12.16,18.328,6.133,21.342-14.87-20.1-14.87-20.1,12.072,19.112,5.365,21.236c-5.068,1.605-14.257-18.878-14.257-18.878s10.262,16.5,5.121,18.374c-5.681,2.072-15.349-16.3-15.349-16.3-13.871,2.567-21.525-1.885-26.594-5.7C850.426,1317.6,869.635,1291.534,869.635,1291.534Z" transform="translate(-851.596 -1291.534)" fill="#ffaba1"/>
                <g id="Grupo_1004713" data-name="Grupo 1004713" transform="translate(34.736 20.39)">
                  <path id="Trazado_673635" data-name="Trazado 673635" d="M948.239,1330.452c1.506,2.1,3.045,4.218,4.36,6.446s2.552,4.5,3.653,6.844a44.176,44.176,0,0,1,3.418,9.514c-1.8-5.741-6.379-13.79-7.695-16.019s-2.512-4.513-3.822-6.738C948.119,1330.443,948.2,1330.4,948.239,1330.452Z" transform="translate(-932.266 -1330.429)" fill="#263238"/>
                  <path id="Trazado_673636" data-name="Trazado 673636" d="M932.746,1339.229c1.807,2.766,3.7,5.446,5.389,8.294s3.021,5.668,4.5,8.609c.114.227-.045.213-.168-.009-1.594-2.88-3.291-5.42-4.918-8.28s-3.146-5.786-4.87-8.576C932.65,1339.223,932.718,1339.187,932.746,1339.229Z" transform="translate(-924.904 -1334.607)" fill="#263238"/>
                  <path id="Trazado_673637" data-name="Trazado 673637" d="M918.009,1344.354a73.821,73.821,0,0,1,7.269,13.312c.1.229-.1.189-.219-.039-2.333-4.471-4.132-7.995-7.193-13.17C917.819,1344.378,917.946,1344.269,918.009,1344.354Z" transform="translate(-917.856 -1337.039)" fill="#263238"/>
                </g>
              </g>
            </g>
            <path id="Trazado_673638" data-name="Trazado 673638" d="M815.477,1294.086c2.5-1.6,9.618-5.412,16.839-4.821.08.006.085.11,0,.113-5.911.275-14.215,3.429-16.779,4.8C815.472,1294.214,815.414,1294.126,815.477,1294.086Z" transform="translate(-798.633 -1289.203)" fill="#263238"/>
          </g>
        </g>
        <g id="Grupo_1004732" data-name="Grupo 1004732" transform="translate(34.346)">
          <g id="Grupo_1004731" data-name="Grupo 1004731">
            <g id="Grupo_1004718" data-name="Grupo 1004718" transform="translate(19.43 45.571)">
              <path id="Trazado_673639" data-name="Trazado 673639" d="M884.612,1168.831c.388,1.337,7.311,9.783,13.482,9.167,2.01-.2,1.386-11.223,1.386-11.223l.14-.823,1.95-11.535-13.844-7.888-2-1.035s-.326,3.191-.69,7.168c-.018.184-.036.369-.052.566-.027.224-.055.436-.069.647-.062.593-.123,1.2-.171,1.8-.038.46-.079.908-.1,1.392s-.06.958-.095,1.445A75.389,75.389,0,0,0,884.612,1168.831Z" transform="translate(-884.421 -1145.493)" fill="#ffaba1"/>
              <path id="Trazado_673640" data-name="Trazado 673640" d="M885.6,1152.661a23.468,23.468,0,0,0,14.58,13.29l1.95-11.535-13.844-7.888-2-1.035S885.967,1148.684,885.6,1152.661Z" transform="translate(-884.983 -1145.493)" fill="#263238"/>
            </g>
            <g id="Grupo_1004730" data-name="Grupo 1004730">
              <path id="Trazado_673641" data-name="Trazado 673641" d="M908,1101.955c5.887,19.669-5.229,25.416-9.472,26.681-3.852,1.148-17.112,4.568-25-14.388s-.6-27.911,8.066-31S902.11,1082.285,908,1101.955Z" transform="translate(-858.201 -1069.757)" fill="#ffaba1"/>
              <g id="Grupo_1004724" data-name="Grupo 1004724" transform="translate(30.96 26.53)">
                <path id="Trazado_673642" data-name="Trazado 673642" d="M929.52,1110.762a13.464,13.464,0,0,1-1.346.444,2.291,2.291,0,0,1-1.46.191.73.73,0,0,1-.447-.771,1.811,1.811,0,0,1,1.33-1.263,2.66,2.66,0,0,1,1.917-.026A.779.779,0,0,1,929.52,1110.762Z" transform="translate(-915.855 -1109.171)" fill="#263238"/>
                <path id="Trazado_673643" data-name="Trazado 673643" d="M908.658,1125.886a13.435,13.435,0,0,0,1.164-.809c.443-.316.829-.521,1.03-1.052a.731.731,0,0,0-.348-.821,1.809,1.809,0,0,0-1.809.3,2.661,2.661,0,0,0-1.173,1.517A.779.779,0,0,0,908.658,1125.886Z" transform="translate(-906.925 -1115.783)" fill="#263238"/>
                <g id="Grupo_1004720" data-name="Grupo 1004720" transform="translate(0 9.833)">
                  <g id="Grupo_1004719" data-name="Grupo 1004719" transform="translate(2.215)">
                    <path id="Trazado_673644" data-name="Trazado 673644" d="M915.7,1129.86c-.027-.047-.082.1-.062.151.491,1.309.834,2.892-.214,3.738-.033.026-.006.091.036.07C916.847,1133.117,916.372,1131.021,915.7,1129.86Z" transform="translate(-912.907 -1128.843)" fill="#263238"/>
                    <path id="Trazado_673645" data-name="Trazado 673645" d="M911.778,1127.964c-2.184.561-.9,4.888,1.122,4.368C914.891,1131.82,913.608,1127.493,911.778,1127.964Z" transform="translate(-910.639 -1127.928)" fill="#263238"/>
                  </g>
                  <path id="Trazado_673646" data-name="Trazado 673646" d="M908.986,1128.866c-.305.357-.547.9-.989,1.079-.512.208-1.044-.127-1.518-.46-.049-.035-.075.014-.059.072.233.833.8,1.589,1.729,1.448.845-.127,1.209-1.034,1.169-1.929C909.31,1128.91,909.109,1128.722,908.986,1128.866Z" transform="translate(-906.415 -1128.35)" fill="#263238"/>
                </g>
                <g id="Grupo_1004722" data-name="Grupo 1004722" transform="translate(12.405 5.288)">
                  <g id="Grupo_1004721" data-name="Grupo 1004721" transform="translate(0 0.886)">
                    <path id="Trazado_673647" data-name="Trazado 673647" d="M930.1,1124.451c0-.054.124.033.138.089.344,1.355.967,2.85,2.311,2.946.041,0,.057.071.01.078C931.019,1127.782,930.212,1125.79,930.1,1124.451Z" transform="translate(-930.09 -1122.606)" fill="#263238"/>
                    <path id="Trazado_673648" data-name="Trazado 673648" d="M930.886,1121.044c2.113-.786,3.531,3.5,1.573,4.226C930.533,1125.988,929.115,1121.7,930.886,1121.044Z" transform="translate(-930.078 -1120.948)" fill="#263238"/>
                  </g>
                  <path id="Trazado_673649" data-name="Trazado 673649" d="M933.353,1120.226c.414.115.885.417,1.3.31.479-.124.672-.7.825-1.246.016-.057.061-.032.082.025.294.812.305,1.754-.43,2.172-.67.38-1.43-.148-1.895-.9C933.147,1120.448,933.187,1120.179,933.353,1120.226Z" transform="translate(-931.558 -1119.258)" fill="#263238"/>
                </g>
                <path id="Trazado_673650" data-name="Trazado 673650" d="M922.941,1151.467c.4.237.836.594,1.339.514a3.691,3.691,0,0,0,1.374-.7.049.049,0,0,1,.076.055,1.884,1.884,0,0,1-1.54,1.164,1.488,1.488,0,0,1-1.364-.936C922.785,1151.487,922.882,1151.432,922.941,1151.467Z" transform="translate(-914.218 -1129.199)" fill="#263238"/>
                <g id="Grupo_1004723" data-name="Grupo 1004723" transform="translate(8.131 2.869)">
                  <path id="Trazado_673651" data-name="Trazado 673651" d="M926.607,1127.487s.892,1.91,1.184,2.85c.027.089-.188.2-.5.318-.014.009-.021.018-.037.012a4.681,4.681,0,0,1-4.861-.326.1.1,0,0,1,.1-.174,7.051,7.051,0,0,0,4.447-.093c-.014-.281-1.638-3.219-1.492-3.276a8.574,8.574,0,0,1,2.286-.177c-1.744-4.031-4.12-7.75-5.8-11.79a.134.134,0,0,1,.227-.137c2.766,3.721,4.875,8.316,6.783,12.433C929.189,1127.638,927.034,1127.531,926.607,1127.487Z" transform="translate(-921.926 -1114.644)" fill="#263238"/>
                </g>
              </g>
              <g id="Grupo_1004725" data-name="Grupo 1004725">
                <path id="Trazado_673652" data-name="Trazado 673652" d="M864.757,1074.765c-.183,1.746-8.692,5.55-14.437.791-5.659-4.687-2.832-13.5,5.268-12.233C860.707,1064.123,865.145,1071.072,864.757,1074.765Z" transform="translate(-847.357 -1060.77)" fill="#263238"/>
                <path id="Trazado_673653" data-name="Trazado 673653" d="M847.988,1065.309a10.284,10.284,0,0,1,4.773-4.826,6.2,6.2,0,0,1,6.19.3,12.528,12.528,0,0,1,4.34,5.08,19.126,19.126,0,0,1,1.269,3.234,9.48,9.48,0,0,1,.5,3.465,8.35,8.35,0,0,0,.132-3.6,15.5,15.5,0,0,0-.966-3.519,12.085,12.085,0,0,0-4.58-5.77,7.211,7.211,0,0,0-3.688-1.105,7.285,7.285,0,0,0-3.667,1.017A9.076,9.076,0,0,0,847.988,1065.309Z" transform="translate(-847.657 -1058.564)" fill="#263238"/>
              </g>
              <g id="Grupo_1004726" data-name="Grupo 1004726" transform="translate(9.264 12.033)">
                <path id="Trazado_673654" data-name="Trazado 673654" d="M873.755,1115.53c4.074-1.449,1.05-10.875,1.05-10.875s6.47-3.658,7.721-9.334c0,0-.518,4.72-2.654,7.323-.359.437,13.2-5.792,10.834-17,0,0,5.7,9.909,12.854,9.888.342,0-4.252-9.347-7.091-10.909a21.633,21.633,0,0,0-5.205-2.082,21.271,21.271,0,0,0-16.035,1.236c-8.193,4.212-10.731,15.205-10.111,19.147C866.336,1110.673,871.822,1116.219,873.755,1115.53Z" transform="translate(-865.028 -1081.518)" fill="#263238"/>
                <path id="Trazado_673655" data-name="Trazado 673655" d="M894.216,1105.46c7.541-2.959,11.961-9.934,9.917-17.974a.182.182,0,0,1,.34-.117c3.756,7.577-2.831,16.336-10.281,18.251C894.013,1105.667,894.039,1105.53,894.216,1105.46Z" transform="translate(-878.845 -1084.256)" fill="#263238"/>
                <path id="Trazado_673656" data-name="Trazado 673656" d="M881.368,1134.281c3.42-3.552,2.648-7.945,1.51-12.285-.034-.128.178-.2.224-.077,1.488,4.129,2.474,9.474-1.464,12.659A.2.2,0,0,1,881.368,1134.281Z" transform="translate(-872.773 -1100.708)" fill="#263238"/>
                <path id="Trazado_673657" data-name="Trazado 673657" d="M913.082,1086.212a.043.043,0,0,1,.081-.028c2.435,4.065,5.161,11.4,11.158,10.582a.124.124,0,0,1,.049.243C918.683,1098.3,914.044,1090.949,913.082,1086.212Z" transform="translate(-887.89 -1083.727)" fill="#263238"/>
              </g>
              <g id="Grupo_1004727" data-name="Grupo 1004727" transform="translate(9.157 28.589)">
                <path id="Trazado_673658" data-name="Trazado 673658" d="M865.753,1121.439l-.929,1.983,6.563,4.622,2-4.464Zm5.148,4.583-4.537-2.816.205-.467,5.065,1.719Z" transform="translate(-864.824 -1117.066)" fill="#449c6e"/>
                <path id="Trazado_673659" data-name="Trazado 673659" d="M866.888,1113.991l-.114,2.188,7.821,1.808.172-4.889Zm6.5,2.306-5.263-.9.014-.51,5.339-.316Z" transform="translate(-865.752 -1113.098)" fill="#449c6e"/>
              </g>
              <g id="Grupo_1004729" data-name="Grupo 1004729" transform="translate(10.023 41.344)">
                <g id="Grupo_1004728" data-name="Grupo 1004728">
                  <path id="Trazado_673660" data-name="Trazado 673660" d="M875.355,1141.151s-5.688-5.367-8.211-3.212,2.661,10.568,6.261,11.12a3.472,3.472,0,0,0,4.177-2.771Z" transform="translate(-866.476 -1137.429)" fill="#ffaba1"/>
                  <path id="Trazado_673661" data-name="Trazado 673661" d="M870.663,1142.909a.047.047,0,0,0,0,.093c2.541.464,4.225,2.382,5.556,4.457a1.916,1.916,0,0,0-2.914.069c-.052.056.026.14.089.112a2.136,2.136,0,0,1,2.453.253,10.328,10.328,0,0,1,1.488,1.634c.153.187.509,0,.379-.229l-.03-.05C877.124,1146.246,873.934,1142.546,870.663,1142.909Z" transform="translate(-868.45 -1140.024)" fill="#263238"/>
                </g>
              </g>
              <path id="Trazado_673662" data-name="Trazado 673662" d="M945.279,1136.41a24.814,24.814,0,0,1-.3,5.42" transform="translate(-893.801 -1095.6)" fill="none" stroke="#263238" stroke-miterlimit="10" stroke-width="0.75"/>
            </g>
          </g>
        </g>
      </g>
    </g>
    <g id="Grupo_1004739" data-name="Grupo 1004739" transform="translate(753.033 1007.161)">
      <g id="Grupo_1004735" data-name="Grupo 1004735" transform="translate(56.57 4.567)">
        <path id="Trazado_673663" data-name="Trazado 673663" d="M923.314,1058.158a8.908,8.908,0,0,1,.622-3.418,5.667,5.667,0,0,1,2.561-2.641q.584-.349,1.438-.8a11.757,11.757,0,0,0,1.67-1.067,6.159,6.159,0,0,0,1.379-1.456,3.362,3.362,0,0,0,.563-1.922,3.172,3.172,0,0,0-.312-1.437,3.253,3.253,0,0,0-.816-1.048,3.368,3.368,0,0,0-1.183-.641,4.612,4.612,0,0,0-1.379-.213,4,4,0,0,0-1.554.292,5.308,5.308,0,0,0-1.262.738,6.252,6.252,0,0,0-1.009,1.009,11.085,11.085,0,0,0-.757,1.069l-3.379-2.33a7.557,7.557,0,0,1,1.34-2.136,8.227,8.227,0,0,1,1.9-1.573,8.919,8.919,0,0,1,2.31-.97,9.962,9.962,0,0,1,2.564-.331,10.194,10.194,0,0,1,2.913.427,7.4,7.4,0,0,1,2.582,1.359,7.039,7.039,0,0,1,1.864,2.388,7.772,7.772,0,0,1,.718,3.475,7.533,7.533,0,0,1-.289,2.194,6.117,6.117,0,0,1-.836,1.729,7.25,7.25,0,0,1-1.281,1.4,14.536,14.536,0,0,1-1.67,1.2q-.778.467-1.552.893a9.247,9.247,0,0,0-1.418.951,4.646,4.646,0,0,0-1.05,1.2,3.16,3.16,0,0,0-.408,1.651Zm.078,9.048v-5.359H927.7v5.359Z" transform="translate(-919.896 -1039.284)" fill="#449c6e"/>
      </g>
      <g id="Grupo_1004736" data-name="Grupo 1004736" transform="translate(41.812)">
        <path id="Trazado_673664" data-name="Trazado 673664" d="M901.218,1037.282a6.6,6.6,0,0,1-.461,2.534,4.2,4.2,0,0,1-1.9,1.959q-.433.259-1.066.59a8.669,8.669,0,0,0-1.239.792,4.546,4.546,0,0,0-1.023,1.08,2.492,2.492,0,0,0-.417,1.425,2.359,2.359,0,0,0,.231,1.065,2.43,2.43,0,0,0,.6.777,2.509,2.509,0,0,0,.878.476,3.439,3.439,0,0,0,1.022.158,2.969,2.969,0,0,0,1.153-.216,3.962,3.962,0,0,0,.936-.547,4.648,4.648,0,0,0,.749-.749,8.161,8.161,0,0,0,.561-.792l2.506,1.728a5.6,5.6,0,0,1-.993,1.584,6.1,6.1,0,0,1-1.411,1.166,6.611,6.611,0,0,1-1.714.72,7.384,7.384,0,0,1-1.9.245,7.553,7.553,0,0,1-2.16-.317,5.5,5.5,0,0,1-1.915-1.008,5.223,5.223,0,0,1-1.382-1.771,5.766,5.766,0,0,1-.532-2.577,5.564,5.564,0,0,1,.215-1.627,4.525,4.525,0,0,1,.62-1.282,5.387,5.387,0,0,1,.95-1.036,10.755,10.755,0,0,1,1.239-.893q.577-.346,1.151-.663a6.841,6.841,0,0,0,1.051-.706,3.454,3.454,0,0,0,.779-.892,2.349,2.349,0,0,0,.3-1.225Zm-.058-6.71v3.974h-3.2v-3.974Z" transform="translate(-891.744 -1030.572)" fill="#455a64"/>
      </g>
      <g id="Grupo_1004737" data-name="Grupo 1004737" transform="translate(81.7 42.253)">
        <path id="Trazado_673665" data-name="Trazado 673665" d="M977.305,1117.881a6.607,6.607,0,0,1-.461,2.534,4.2,4.2,0,0,1-1.9,1.958q-.433.259-1.066.59a8.764,8.764,0,0,0-1.239.792,4.542,4.542,0,0,0-1.022,1.08,2.491,2.491,0,0,0-.418,1.425,2.363,2.363,0,0,0,.231,1.066,2.438,2.438,0,0,0,.6.777,2.51,2.51,0,0,0,.878.475,3.419,3.419,0,0,0,1.022.158,2.97,2.97,0,0,0,1.153-.216,3.939,3.939,0,0,0,.936-.547,4.665,4.665,0,0,0,.749-.749,8.23,8.23,0,0,0,.561-.793l2.506,1.728a5.594,5.594,0,0,1-.994,1.584,6.1,6.1,0,0,1-1.411,1.167,6.625,6.625,0,0,1-1.713.72,7.39,7.39,0,0,1-1.9.245,7.554,7.554,0,0,1-2.16-.317,5.473,5.473,0,0,1-1.914-1.008,5.216,5.216,0,0,1-1.382-1.771,5.762,5.762,0,0,1-.533-2.578,5.581,5.581,0,0,1,.215-1.627,4.526,4.526,0,0,1,.62-1.282,5.37,5.37,0,0,1,.949-1.036,10.782,10.782,0,0,1,1.239-.893q.577-.346,1.151-.663a6.844,6.844,0,0,0,1.051-.706,3.446,3.446,0,0,0,.779-.892,2.343,2.343,0,0,0,.3-1.224Zm-.057-6.71v3.974h-3.2v-3.974Z" transform="translate(-967.831 -1111.171)" fill="#455a64"/>
      </g>
      <g id="Grupo_1004738" data-name="Grupo 1004738" transform="translate(0 50.425)">
        <path id="Trazado_673666" data-name="Trazado 673666" d="M814.521,1140.756a6.614,6.614,0,0,1,.461-2.534,4.2,4.2,0,0,1,1.9-1.958c.289-.172.643-.37,1.066-.591a8.705,8.705,0,0,0,1.239-.792,4.567,4.567,0,0,0,1.022-1.08,2.492,2.492,0,0,0,.417-1.425,2.354,2.354,0,0,0-.231-1.066,2.412,2.412,0,0,0-.6-.777,2.509,2.509,0,0,0-.877-.476,3.43,3.43,0,0,0-1.023-.158,2.957,2.957,0,0,0-1.152.217,3.914,3.914,0,0,0-.936.547,4.613,4.613,0,0,0-.749.749,8.163,8.163,0,0,0-.561.792l-2.506-1.728a5.6,5.6,0,0,1,.994-1.584,6.106,6.106,0,0,1,1.411-1.166,6.619,6.619,0,0,1,1.714-.72,7.4,7.4,0,0,1,1.9-.245,7.543,7.543,0,0,1,2.16.317,5.487,5.487,0,0,1,1.915,1.008,5.231,5.231,0,0,1,1.382,1.771,5.76,5.76,0,0,1,.533,2.577,5.576,5.576,0,0,1-.215,1.627,4.529,4.529,0,0,1-.62,1.282,5.387,5.387,0,0,1-.95,1.036,10.821,10.821,0,0,1-1.239.893q-.576.345-1.151.662a6.886,6.886,0,0,0-1.051.706,3.452,3.452,0,0,0-.779.892,2.347,2.347,0,0,0-.3,1.225Zm.058,6.71v-3.974h3.2v3.974Z" transform="translate(-811.986 -1126.759)" fill="#449c6e"/>
      </g>
    </g>
  </g>
</svg>
