<svg xmlns="http://www.w3.org/2000/svg" width="293.265" height="157.068" viewBox="0 0 293.265 157.068">
  <g id="Grupo_1004458" data-name="Grupo 1004458" transform="translate(-117.146 -1004.146)">
    <g id="Grupo_1004461" data-name="Grupo 1004461" transform="translate(305.228 1013.094)" opacity="0.5">
      <g id="Grupo_1004459" data-name="Grupo 1004459" transform="translate(0 1.671)" opacity="0.5">
        <path id="Trazado_673436" data-name="Trazado 673436" d="M453.224,1068.29s-3.233-25.613,5.809-43.633a2.867,2.867,0,0,1,5.351.665c.01.043.02.088.029.132C465.355,1029.932,455.753,1052.206,453.224,1068.29Z" transform="translate(-452.662 -1023.088)" fill="#8ccfa3"/>
      </g>
      <g id="Grupo_1004460" data-name="Grupo 1004460" transform="translate(0.789)" opacity="0.5">
        <path id="Trazado_673437" data-name="Trazado 673437" d="M454.069,1074.487s4.947-34.255,23.211-53.414a3.041,3.041,0,0,1,4.19-.242c.787.7,1.374,1.945,1.237,4.157C482.342,1030.888,462.739,1055.328,454.069,1074.487Z" transform="translate(-454.069 -1020.107)" fill="#8ccfa3"/>
      </g>
    </g>
    <g id="Grupo_1004544" data-name="Grupo 1004544" transform="translate(135.103 1020.72)" opacity="0.4">
      <g id="Grupo_1004474" data-name="Grupo 1004474" transform="translate(5.54 6.795)">
        <g id="Grupo_1004462" data-name="Grupo 1004462">
          <path id="Rectángulo_311453" data-name="Rectángulo 311453" d="M7.144,0h0a7.144,7.144,0,0,1,7.144,7.144V41.912a7.144,7.144,0,0,1-7.144,7.144h0A7.144,7.144,0,0,1,0,41.912V7.144A7.144,7.144,0,0,1,7.144,0Z" transform="translate(14.288 49.056) rotate(-180)" fill="#6fc49a"/>
        </g>
        <g id="Grupo_1004463" data-name="Grupo 1004463" transform="translate(3.795 35.127)">
          <path id="Trazado_673438" data-name="Trazado 673438" d="M172.53,1111.843a3.349,3.349,0,1,0-3.349,3.348A3.349,3.349,0,0,0,172.53,1111.843Z" transform="translate(-165.832 -1108.494)" fill="#3a8a6c"/>
        </g>
        <g id="Grupo_1004464" data-name="Grupo 1004464" transform="translate(3.44 34.792)">
          <path id="Trazado_673439" data-name="Trazado 673439" d="M168.9,1115.3a3.7,3.7,0,1,1,3.7-3.7A3.708,3.708,0,0,1,168.9,1115.3Zm0-6.7a2.994,2.994,0,1,0,2.995,2.995A3,3,0,0,0,168.9,1108.605Z" transform="translate(-165.199 -1107.896)" fill="#fff"/>
        </g>
        <g id="Grupo_1004465" data-name="Grupo 1004465" transform="translate(2.958 2.245)">
          <path id="Rectángulo_311454" data-name="Rectángulo 311454" d="M4.184,0h0A4.183,4.183,0,0,1,8.368,4.183V23.391a4.184,4.184,0,0,1-4.184,4.184h0A4.183,4.183,0,0,1,0,23.391V4.184A4.184,4.184,0,0,1,4.184,0Z" transform="translate(8.368 27.575) rotate(180)" fill="#8ccfa3"/>
        </g>
        <g id="Grupo_1004466" data-name="Grupo 1004466" transform="translate(3.939 3.243)">
          <rect id="Rectángulo_311455" data-name="Rectángulo 311455" width="6.236" height="1.106" rx="0.553" transform="translate(6.236 1.106) rotate(180)" fill="#c98047"/>
        </g>
        <g id="Grupo_1004473" data-name="Grupo 1004473" transform="translate(5.04 9.154)">
          <g id="Grupo_1004467" data-name="Grupo 1004467" transform="translate(3.171 11.435)">
            <path id="Trazado_673440" data-name="Trazado 673440" d="M173.71,1082.836v5.684a.276.276,0,0,0,.276.276h0a.277.277,0,0,0,.276-.276v-5.684a.276.276,0,0,0-.276-.276h0A.276.276,0,0,0,173.71,1082.836Z" transform="translate(-173.71 -1082.56)" fill="#3a8a6c"/>
          </g>
          <g id="Grupo_1004468" data-name="Grupo 1004468" transform="translate(3.171 3.615)">
            <path id="Trazado_673441" data-name="Trazado 673441" d="M173.71,1068.887v5.684a.276.276,0,0,0,.276.276h0a.276.276,0,0,0,.276-.276v-5.684a.277.277,0,0,0-.276-.276h0A.276.276,0,0,0,173.71,1068.887Z" transform="translate(-173.71 -1068.611)" fill="#3a8a6c"/>
          </g>
          <g id="Grupo_1004469" data-name="Grupo 1004469" transform="translate(0 11.435)">
            <path id="Trazado_673442" data-name="Trazado 673442" d="M168.053,1082.836v5.684a.277.277,0,0,0,.276.276h0a.276.276,0,0,0,.276-.276v-5.684a.276.276,0,0,0-.276-.276h0A.276.276,0,0,0,168.053,1082.836Z" transform="translate(-168.053 -1082.56)" fill="#3a8a6c"/>
          </g>
          <g id="Grupo_1004470" data-name="Grupo 1004470" transform="translate(0 3.615)">
            <path id="Trazado_673443" data-name="Trazado 673443" d="M168.053,1068.887v5.684a.276.276,0,0,0,.276.276h0a.276.276,0,0,0,.276-.276v-5.684a.276.276,0,0,0-.276-.276h0A.277.277,0,0,0,168.053,1068.887Z" transform="translate(-168.053 -1068.611)" fill="#3a8a6c"/>
          </g>
          <g id="Grupo_1004471" data-name="Grupo 1004471" transform="translate(1.65 9.831)">
            <path id="Trazado_673444" data-name="Trazado 673444" d="M171,1079.975v7.287a.276.276,0,0,0,.276.276h0a.276.276,0,0,0,.276-.276v-7.287a.276.276,0,0,0-.276-.276h0A.276.276,0,0,0,171,1079.975Z" transform="translate(-170.997 -1079.699)" fill="#3a8a6c"/>
          </g>
          <g id="Grupo_1004472" data-name="Grupo 1004472" transform="translate(1.65)">
            <path id="Trazado_673445" data-name="Trazado 673445" d="M171,1062.438v7.287a.276.276,0,0,0,.276.276h0a.277.277,0,0,0,.276-.276v-7.287a.276.276,0,0,0-.276-.276h0A.276.276,0,0,0,171,1062.438Z" transform="translate(-170.997 -1062.162)" fill="#3a8a6c"/>
          </g>
        </g>
      </g>
      <g id="Grupo_1004487" data-name="Grupo 1004487" transform="translate(23.359 6.795)">
        <g id="Grupo_1004475" data-name="Grupo 1004475">
          <rect id="Rectángulo_311456" data-name="Rectángulo 311456" width="14.289" height="49.056" rx="7.144" transform="translate(14.289 49.056) rotate(-180)" fill="#6fc49a"/>
        </g>
        <g id="Grupo_1004476" data-name="Grupo 1004476" transform="translate(3.796 35.127)">
          <path id="Trazado_673446" data-name="Trazado 673446" d="M204.318,1111.843a3.349,3.349,0,1,0-3.349,3.348A3.349,3.349,0,0,0,204.318,1111.843Z" transform="translate(-197.62 -1108.494)" fill="#3a8a6c"/>
        </g>
        <g id="Grupo_1004477" data-name="Grupo 1004477" transform="translate(3.441 34.792)">
          <path id="Trazado_673447" data-name="Trazado 673447" d="M200.691,1115.3a3.7,3.7,0,1,1,3.7-3.7A3.708,3.708,0,0,1,200.691,1115.3Zm0-6.7a2.994,2.994,0,1,0,2.994,2.995A3,3,0,0,0,200.691,1108.605Z" transform="translate(-196.987 -1107.896)" fill="#fff"/>
        </g>
        <g id="Grupo_1004478" data-name="Grupo 1004478" transform="translate(2.958 2.245)">
          <rect id="Rectángulo_311457" data-name="Rectángulo 311457" width="8.368" height="27.575" rx="4.184" transform="translate(8.368 27.575) rotate(180)" fill="#8ccfa3"/>
        </g>
        <g id="Grupo_1004479" data-name="Grupo 1004479" transform="translate(3.939 3.243)">
          <rect id="Rectángulo_311458" data-name="Rectángulo 311458" width="6.236" height="1.106" rx="0.553" transform="translate(6.236 1.106) rotate(180)" fill="#c98047"/>
        </g>
        <g id="Grupo_1004486" data-name="Grupo 1004486" transform="translate(5.041 9.154)">
          <g id="Grupo_1004480" data-name="Grupo 1004480" transform="translate(3.171 11.435)">
            <path id="Trazado_673448" data-name="Trazado 673448" d="M205.5,1082.836v5.684a.277.277,0,0,0,.276.276h0a.276.276,0,0,0,.276-.276v-5.684a.276.276,0,0,0-.276-.276h0A.277.277,0,0,0,205.5,1082.836Z" transform="translate(-205.497 -1082.56)" fill="#3a8a6c"/>
          </g>
          <g id="Grupo_1004481" data-name="Grupo 1004481" transform="translate(3.171 3.615)">
            <path id="Trazado_673449" data-name="Trazado 673449" d="M205.5,1068.887v5.684a.276.276,0,0,0,.276.276h0a.276.276,0,0,0,.276-.276v-5.684a.276.276,0,0,0-.276-.276h0A.277.277,0,0,0,205.5,1068.887Z" transform="translate(-205.497 -1068.611)" fill="#3a8a6c"/>
          </g>
          <g id="Grupo_1004482" data-name="Grupo 1004482" transform="translate(0 11.435)">
            <path id="Trazado_673450" data-name="Trazado 673450" d="M199.841,1082.836v5.684a.277.277,0,0,0,.276.276h0a.277.277,0,0,0,.276-.276v-5.684a.276.276,0,0,0-.276-.276h0A.276.276,0,0,0,199.841,1082.836Z" transform="translate(-199.841 -1082.56)" fill="#3a8a6c"/>
          </g>
          <g id="Grupo_1004483" data-name="Grupo 1004483" transform="translate(0 3.615)">
            <path id="Trazado_673451" data-name="Trazado 673451" d="M199.841,1068.887v5.684a.276.276,0,0,0,.276.276h0a.276.276,0,0,0,.276-.276v-5.684a.277.277,0,0,0-.276-.276h0A.277.277,0,0,0,199.841,1068.887Z" transform="translate(-199.841 -1068.611)" fill="#3a8a6c"/>
          </g>
          <g id="Grupo_1004484" data-name="Grupo 1004484" transform="translate(1.65 9.831)">
            <path id="Trazado_673452" data-name="Trazado 673452" d="M202.784,1079.975v7.287a.276.276,0,0,0,.276.276h0a.276.276,0,0,0,.276-.276v-7.287a.276.276,0,0,0-.276-.276h0A.276.276,0,0,0,202.784,1079.975Z" transform="translate(-202.784 -1079.699)" fill="#3a8a6c"/>
          </g>
          <g id="Grupo_1004485" data-name="Grupo 1004485" transform="translate(1.65)">
            <path id="Trazado_673453" data-name="Trazado 673453" d="M202.784,1062.438v7.287a.277.277,0,0,0,.276.276h0a.276.276,0,0,0,.276-.276v-7.287a.276.276,0,0,0-.276-.276h0A.276.276,0,0,0,202.784,1062.438Z" transform="translate(-202.784 -1062.162)" fill="#3a8a6c"/>
          </g>
        </g>
      </g>
      <g id="Grupo_1004500" data-name="Grupo 1004500" transform="translate(41.519 6.795)">
        <g id="Grupo_1004488" data-name="Grupo 1004488">
          <path id="Rectángulo_311459" data-name="Rectángulo 311459" d="M7.144,0h0a7.144,7.144,0,0,1,7.144,7.144V41.912a7.144,7.144,0,0,1-7.144,7.144h0A7.144,7.144,0,0,1,0,41.912V7.144A7.144,7.144,0,0,1,7.144,0Z" transform="translate(14.289 49.056) rotate(180)" fill="#6fc49a"/>
        </g>
        <g id="Grupo_1004489" data-name="Grupo 1004489" transform="translate(3.796 35.127)">
          <path id="Trazado_673454" data-name="Trazado 673454" d="M236.713,1111.843a3.349,3.349,0,1,0-3.349,3.348A3.349,3.349,0,0,0,236.713,1111.843Z" transform="translate(-230.015 -1108.494)" fill="#3a8a6c"/>
        </g>
        <g id="Grupo_1004490" data-name="Grupo 1004490" transform="translate(3.441 34.792)">
          <path id="Trazado_673455" data-name="Trazado 673455" d="M233.086,1115.3a3.7,3.7,0,1,1,3.7-3.7A3.708,3.708,0,0,1,233.086,1115.3Zm0-6.7a2.994,2.994,0,1,0,2.994,2.995A3,3,0,0,0,233.086,1108.605Z" transform="translate(-229.382 -1107.896)" fill="#fff"/>
        </g>
        <g id="Grupo_1004491" data-name="Grupo 1004491" transform="translate(2.959 2.245)">
          <rect id="Rectángulo_311460" data-name="Rectángulo 311460" width="8.368" height="27.575" rx="4.184" transform="translate(8.368 27.575) rotate(180)" fill="#8ccfa3"/>
        </g>
        <g id="Grupo_1004492" data-name="Grupo 1004492" transform="translate(3.939 3.243)">
          <rect id="Rectángulo_311461" data-name="Rectángulo 311461" width="6.236" height="1.106" rx="0.553" transform="translate(6.236 1.106) rotate(-180)" fill="#c98047"/>
        </g>
        <g id="Grupo_1004499" data-name="Grupo 1004499" transform="translate(5.041 9.154)">
          <g id="Grupo_1004493" data-name="Grupo 1004493" transform="translate(3.171 11.435)">
            <path id="Trazado_673456" data-name="Trazado 673456" d="M237.892,1082.836v5.684a.277.277,0,0,0,.276.276h0a.277.277,0,0,0,.277-.276v-5.684a.277.277,0,0,0-.277-.276h0A.277.277,0,0,0,237.892,1082.836Z" transform="translate(-237.892 -1082.56)" fill="#3a8a6c"/>
          </g>
          <g id="Grupo_1004494" data-name="Grupo 1004494" transform="translate(3.171 3.615)">
            <path id="Trazado_673457" data-name="Trazado 673457" d="M237.892,1068.887v5.684a.276.276,0,0,0,.276.276h0a.277.277,0,0,0,.277-.276v-5.684a.277.277,0,0,0-.277-.276h0A.277.277,0,0,0,237.892,1068.887Z" transform="translate(-237.892 -1068.611)" fill="#3a8a6c"/>
          </g>
          <g id="Grupo_1004495" data-name="Grupo 1004495" transform="translate(0 11.435)">
            <path id="Trazado_673458" data-name="Trazado 673458" d="M232.236,1082.836v5.684a.277.277,0,0,0,.276.276h0a.276.276,0,0,0,.276-.276v-5.684a.276.276,0,0,0-.276-.276h0A.277.277,0,0,0,232.236,1082.836Z" transform="translate(-232.236 -1082.56)" fill="#3a8a6c"/>
          </g>
          <g id="Grupo_1004496" data-name="Grupo 1004496" transform="translate(0 3.615)">
            <path id="Trazado_673459" data-name="Trazado 673459" d="M232.236,1068.887v5.684a.276.276,0,0,0,.276.276h0a.276.276,0,0,0,.276-.276v-5.684a.276.276,0,0,0-.276-.276h0A.277.277,0,0,0,232.236,1068.887Z" transform="translate(-232.236 -1068.611)" fill="#3a8a6c"/>
          </g>
          <g id="Grupo_1004497" data-name="Grupo 1004497" transform="translate(1.65 9.831)">
            <path id="Trazado_673460" data-name="Trazado 673460" d="M235.179,1079.975v7.287a.276.276,0,0,0,.276.276h0a.276.276,0,0,0,.276-.276v-7.287a.276.276,0,0,0-.276-.276h0A.276.276,0,0,0,235.179,1079.975Z" transform="translate(-235.179 -1079.699)" fill="#3a8a6c"/>
          </g>
          <g id="Grupo_1004498" data-name="Grupo 1004498" transform="translate(1.65)">
            <path id="Trazado_673461" data-name="Trazado 673461" d="M235.179,1062.438v7.287a.277.277,0,0,0,.276.276h0a.276.276,0,0,0,.276-.276v-7.287a.276.276,0,0,0-.276-.276h0A.276.276,0,0,0,235.179,1062.438Z" transform="translate(-235.179 -1062.162)" fill="#3a8a6c"/>
          </g>
        </g>
      </g>
      <g id="Grupo_1004504" data-name="Grupo 1004504" transform="translate(60.22 6.795)">
        <g id="Grupo_1004501" data-name="Grupo 1004501">
          <rect id="Rectángulo_311462" data-name="Rectángulo 311462" width="14.288" height="49.056" rx="7.144" transform="translate(14.288 49.056) rotate(180)" fill="#6fc49a"/>
        </g>
        <g id="Grupo_1004502" data-name="Grupo 1004502" transform="translate(2.958 2.245)">
          <path id="Rectángulo_311463" data-name="Rectángulo 311463" d="M4.183,0h0A4.184,4.184,0,0,1,8.368,4.184V23.391a4.183,4.183,0,0,1-4.183,4.183h0A4.183,4.183,0,0,1,0,23.391V4.183A4.183,4.183,0,0,1,4.183,0Z" transform="translate(8.368 27.575) rotate(180)" fill="#8ccfa3"/>
        </g>
        <g id="Grupo_1004503" data-name="Grupo 1004503" transform="translate(3.939 3.243)">
          <rect id="Rectángulo_311464" data-name="Rectángulo 311464" width="6.236" height="1.106" rx="0.553" transform="translate(6.236 1.106) rotate(-180)" fill="#c98047"/>
        </g>
      </g>
      <g id="Grupo_1004508" data-name="Grupo 1004508" transform="translate(78.268 6.795)">
        <g id="Grupo_1004505" data-name="Grupo 1004505">
          <path id="Rectángulo_311465" data-name="Rectángulo 311465" d="M7.144,0h0a7.144,7.144,0,0,1,7.144,7.144V41.912a7.144,7.144,0,0,1-7.144,7.144h0A7.144,7.144,0,0,1,0,41.912V7.144A7.144,7.144,0,0,1,7.144,0Z" transform="translate(14.288 49.056) rotate(-180)" fill="#6fc49a"/>
        </g>
        <g id="Grupo_1004506" data-name="Grupo 1004506" transform="translate(2.958 2.245)">
          <path id="Rectángulo_311466" data-name="Rectángulo 311466" d="M4.184,0h0A4.184,4.184,0,0,1,8.368,4.184V23.391a4.184,4.184,0,0,1-4.184,4.184h0A4.183,4.183,0,0,1,0,23.392V4.184A4.184,4.184,0,0,1,4.184,0Z" transform="translate(8.368 27.575) rotate(180)" fill="#8ccfa3"/>
        </g>
        <g id="Grupo_1004507" data-name="Grupo 1004507" transform="translate(3.939 3.243)">
          <rect id="Rectángulo_311467" data-name="Rectángulo 311467" width="6.236" height="1.106" rx="0.553" transform="translate(6.236 1.106) rotate(-180)" fill="#c98047"/>
        </g>
      </g>
      <g id="Grupo_1004521" data-name="Grupo 1004521" transform="translate(5.54 62.282)">
        <g id="Grupo_1004509" data-name="Grupo 1004509">
          <path id="Rectángulo_311468" data-name="Rectángulo 311468" d="M7.144,0h0a7.144,7.144,0,0,1,7.144,7.144V41.913a7.143,7.143,0,0,1-7.143,7.143h0A7.144,7.144,0,0,1,0,41.912V7.144A7.144,7.144,0,0,1,7.144,0Z" transform="translate(14.288 49.056) rotate(180)" fill="#6fc49a"/>
        </g>
        <g id="Grupo_1004510" data-name="Grupo 1004510" transform="translate(3.795 35.127)">
          <circle id="Elipse_7890" data-name="Elipse 7890" cx="3.349" cy="3.349" r="3.349" fill="#3a8a6c"/>
        </g>
        <g id="Grupo_1004511" data-name="Grupo 1004511" transform="translate(3.44 34.792)">
          <path id="Trazado_673462" data-name="Trazado 673462" d="M168.9,1214.286a3.7,3.7,0,1,1,3.7-3.7A3.708,3.708,0,0,1,168.9,1214.286Zm0-6.7a2.994,2.994,0,1,0,2.995,2.994A3,3,0,0,0,168.9,1207.588Z" transform="translate(-165.199 -1206.879)" fill="#fff"/>
        </g>
        <g id="Grupo_1004512" data-name="Grupo 1004512" transform="translate(2.958 2.245)">
          <path id="Rectángulo_311469" data-name="Rectángulo 311469" d="M4.184,0h0A4.183,4.183,0,0,1,8.368,4.183V23.391a4.184,4.184,0,0,1-4.184,4.184h0A4.184,4.184,0,0,1,0,23.391V4.184A4.184,4.184,0,0,1,4.184,0Z" transform="translate(8.368 27.575) rotate(180)" fill="#8ccfa3"/>
        </g>
        <g id="Grupo_1004513" data-name="Grupo 1004513" transform="translate(3.939 3.243)">
          <path id="Rectángulo_311470" data-name="Rectángulo 311470" d="M.553,0H5.684a.553.553,0,0,1,.553.553v0a.553.553,0,0,1-.553.553H.553A.553.553,0,0,1,0,.553v0A.553.553,0,0,1,.553,0Z" transform="translate(6.236 1.106) rotate(-180)" fill="#c98047"/>
        </g>
        <g id="Grupo_1004520" data-name="Grupo 1004520" transform="translate(5.04 9.154)">
          <g id="Grupo_1004514" data-name="Grupo 1004514" transform="translate(3.171 11.435)">
            <path id="Trazado_673463" data-name="Trazado 673463" d="M173.71,1181.819v5.684a.276.276,0,0,0,.276.276h0a.276.276,0,0,0,.276-.276v-5.684a.276.276,0,0,0-.276-.276h0A.276.276,0,0,0,173.71,1181.819Z" transform="translate(-173.71 -1181.543)" fill="#3a8a6c"/>
          </g>
          <g id="Grupo_1004515" data-name="Grupo 1004515" transform="translate(3.171 3.615)">
            <path id="Trazado_673464" data-name="Trazado 673464" d="M173.71,1167.869v5.684a.276.276,0,0,0,.276.276h0a.277.277,0,0,0,.276-.276v-5.684a.276.276,0,0,0-.276-.276h0A.276.276,0,0,0,173.71,1167.869Z" transform="translate(-173.71 -1167.593)" fill="#3a8a6c"/>
          </g>
          <g id="Grupo_1004516" data-name="Grupo 1004516" transform="translate(0 11.435)">
            <path id="Trazado_673465" data-name="Trazado 673465" d="M168.053,1181.819v5.684a.276.276,0,0,0,.276.276h0a.276.276,0,0,0,.276-.276v-5.684a.276.276,0,0,0-.276-.276h0A.276.276,0,0,0,168.053,1181.819Z" transform="translate(-168.053 -1181.543)" fill="#3a8a6c"/>
          </g>
          <g id="Grupo_1004517" data-name="Grupo 1004517" transform="translate(0 3.615)">
            <path id="Trazado_673466" data-name="Trazado 673466" d="M168.053,1167.869v5.684a.277.277,0,0,0,.276.276h0a.276.276,0,0,0,.276-.276v-5.684a.276.276,0,0,0-.276-.276h0A.276.276,0,0,0,168.053,1167.869Z" transform="translate(-168.053 -1167.593)" fill="#3a8a6c"/>
          </g>
          <g id="Grupo_1004518" data-name="Grupo 1004518" transform="translate(1.65 9.831)">
            <path id="Trazado_673467" data-name="Trazado 673467" d="M171,1178.957v7.288a.276.276,0,0,0,.276.276h0a.277.277,0,0,0,.276-.276v-7.288a.277.277,0,0,0-.276-.276h0A.276.276,0,0,0,171,1178.957Z" transform="translate(-170.997 -1178.681)" fill="#3a8a6c"/>
          </g>
          <g id="Grupo_1004519" data-name="Grupo 1004519" transform="translate(1.65)">
            <path id="Trazado_673468" data-name="Trazado 673468" d="M171,1161.42v7.288a.276.276,0,0,0,.276.276h0a.277.277,0,0,0,.276-.276v-7.288a.276.276,0,0,0-.276-.276h0A.276.276,0,0,0,171,1161.42Z" transform="translate(-170.997 -1161.144)" fill="#3a8a6c"/>
          </g>
        </g>
      </g>
      <g id="Grupo_1004534" data-name="Grupo 1004534" transform="translate(23.359 62.282)">
        <g id="Grupo_1004522" data-name="Grupo 1004522">
          <path id="Rectángulo_311471" data-name="Rectángulo 311471" d="M7.144,0h0a7.144,7.144,0,0,1,7.144,7.144V41.913a7.144,7.144,0,0,1-7.144,7.144h0A7.144,7.144,0,0,1,0,41.912V7.144A7.144,7.144,0,0,1,7.144,0Z" transform="translate(14.289 49.056) rotate(180)" fill="#6fc49a"/>
        </g>
        <g id="Grupo_1004523" data-name="Grupo 1004523" transform="translate(3.796 35.127)">
          <path id="Trazado_673469" data-name="Trazado 673469" d="M204.318,1210.826a3.349,3.349,0,1,0-3.349,3.349A3.349,3.349,0,0,0,204.318,1210.826Z" transform="translate(-197.62 -1207.477)" fill="#3a8a6c"/>
        </g>
        <g id="Grupo_1004524" data-name="Grupo 1004524" transform="translate(3.441 34.792)">
          <path id="Trazado_673470" data-name="Trazado 673470" d="M200.691,1214.286a3.7,3.7,0,1,1,3.7-3.7A3.708,3.708,0,0,1,200.691,1214.286Zm0-6.7a2.994,2.994,0,1,0,2.994,2.994A3,3,0,0,0,200.691,1207.588Z" transform="translate(-196.987 -1206.879)" fill="#fff"/>
        </g>
        <g id="Grupo_1004525" data-name="Grupo 1004525" transform="translate(2.958 2.245)">
          <rect id="Rectángulo_311472" data-name="Rectángulo 311472" width="8.368" height="27.575" rx="4.184" transform="translate(8.368 27.575) rotate(180)" fill="#8ccfa3"/>
        </g>
        <g id="Grupo_1004526" data-name="Grupo 1004526" transform="translate(3.939 3.243)">
          <path id="Rectángulo_311473" data-name="Rectángulo 311473" d="M.553,0H5.684a.553.553,0,0,1,.553.553v0a.553.553,0,0,1-.553.553H.553A.553.553,0,0,1,0,.553v0A.553.553,0,0,1,.553,0Z" transform="translate(6.236 1.106) rotate(-180)" fill="#c98047"/>
        </g>
        <g id="Grupo_1004533" data-name="Grupo 1004533" transform="translate(5.041 9.154)">
          <g id="Grupo_1004527" data-name="Grupo 1004527" transform="translate(3.171 11.435)">
            <path id="Trazado_673471" data-name="Trazado 673471" d="M205.5,1181.819v5.684a.277.277,0,0,0,.276.276h0a.276.276,0,0,0,.276-.276v-5.684a.276.276,0,0,0-.276-.276h0A.276.276,0,0,0,205.5,1181.819Z" transform="translate(-205.497 -1181.543)" fill="#3a8a6c"/>
          </g>
          <g id="Grupo_1004528" data-name="Grupo 1004528" transform="translate(3.171 3.615)">
            <path id="Trazado_673472" data-name="Trazado 673472" d="M205.5,1167.869v5.684a.277.277,0,0,0,.276.276h0a.276.276,0,0,0,.276-.276v-5.684a.276.276,0,0,0-.276-.276h0A.277.277,0,0,0,205.5,1167.869Z" transform="translate(-205.497 -1167.593)" fill="#3a8a6c"/>
          </g>
          <g id="Grupo_1004529" data-name="Grupo 1004529" transform="translate(0 11.435)">
            <path id="Trazado_673473" data-name="Trazado 673473" d="M199.841,1181.819v5.684a.276.276,0,0,0,.276.276h0a.276.276,0,0,0,.276-.276v-5.684a.276.276,0,0,0-.276-.276h0A.276.276,0,0,0,199.841,1181.819Z" transform="translate(-199.841 -1181.543)" fill="#3a8a6c"/>
          </g>
          <g id="Grupo_1004530" data-name="Grupo 1004530" transform="translate(0 3.615)">
            <path id="Trazado_673474" data-name="Trazado 673474" d="M199.841,1167.869v5.684a.277.277,0,0,0,.276.276h0a.277.277,0,0,0,.276-.276v-5.684a.276.276,0,0,0-.276-.276h0A.276.276,0,0,0,199.841,1167.869Z" transform="translate(-199.841 -1167.593)" fill="#3a8a6c"/>
          </g>
          <g id="Grupo_1004531" data-name="Grupo 1004531" transform="translate(1.65 9.831)">
            <path id="Trazado_673475" data-name="Trazado 673475" d="M202.784,1178.957v7.288a.277.277,0,0,0,.276.276h0a.276.276,0,0,0,.276-.276v-7.288a.276.276,0,0,0-.276-.276h0A.277.277,0,0,0,202.784,1178.957Z" transform="translate(-202.784 -1178.681)" fill="#3a8a6c"/>
          </g>
          <g id="Grupo_1004532" data-name="Grupo 1004532" transform="translate(1.65)">
            <path id="Trazado_673476" data-name="Trazado 673476" d="M202.784,1161.42v7.288a.277.277,0,0,0,.276.276h0a.276.276,0,0,0,.276-.276v-7.288a.276.276,0,0,0-.276-.276h0A.276.276,0,0,0,202.784,1161.42Z" transform="translate(-202.784 -1161.144)" fill="#3a8a6c"/>
          </g>
        </g>
      </g>
      <g id="Grupo_1004536" data-name="Grupo 1004536" transform="translate(41.519 62.282)">
        <g id="Grupo_1004535" data-name="Grupo 1004535">
          <path id="Rectángulo_311474" data-name="Rectángulo 311474" d="M7.144,0h0a7.144,7.144,0,0,1,7.144,7.144V41.913a7.144,7.144,0,0,1-7.144,7.144h0A7.144,7.144,0,0,1,0,41.912V7.144A7.144,7.144,0,0,1,7.144,0Z" transform="translate(14.289 49.056) rotate(-180)" fill="#6fc49a"/>
        </g>
      </g>
      <g id="Grupo_1004538" data-name="Grupo 1004538" transform="translate(60.22 62.282)">
        <g id="Grupo_1004537" data-name="Grupo 1004537">
          <path id="Rectángulo_311475" data-name="Rectángulo 311475" d="M7.144,0h0a7.144,7.144,0,0,1,7.144,7.144V41.912a7.144,7.144,0,0,1-7.144,7.144h0A7.144,7.144,0,0,1,0,41.912V7.144A7.144,7.144,0,0,1,7.144,0Z" transform="translate(14.288 49.056) rotate(-180)" fill="#6fc49a"/>
        </g>
      </g>
      <g id="Grupo_1004540" data-name="Grupo 1004540" transform="translate(78.268 62.282)">
        <g id="Grupo_1004539" data-name="Grupo 1004539">
          <path id="Rectángulo_311476" data-name="Rectángulo 311476" d="M7.144,0h0a7.144,7.144,0,0,1,7.144,7.144V41.913a7.143,7.143,0,0,1-7.143,7.143h0A7.144,7.144,0,0,1,0,41.912V7.144A7.144,7.144,0,0,1,7.144,0Z" transform="translate(14.288 49.056) rotate(180)" fill="#6fc49a"/>
        </g>
      </g>
      <g id="Grupo_1004541" data-name="Grupo 1004541" transform="translate(0)">
        <path id="Trazado_673477" data-name="Trazado 673477" d="M150.9,1173.786h0a1.717,1.717,0,0,1-1.718-1.718v-136.64a1.717,1.717,0,0,1,1.718-1.718h0a1.718,1.718,0,0,1,1.718,1.718v136.64A1.718,1.718,0,0,1,150.9,1173.786Z" transform="translate(-149.179 -1033.711)" fill="#97c9a4"/>
      </g>
      <g id="Grupo_1004542" data-name="Grupo 1004542" transform="translate(0 55.857)">
        <rect id="Rectángulo_311477" data-name="Rectángulo 311477" width="99.255" height="1.38" transform="translate(99.255 1.38) rotate(180)" fill="#97c9a4"/>
      </g>
      <g id="Grupo_1004543" data-name="Grupo 1004543" transform="translate(0 111.316)">
        <rect id="Rectángulo_311478" data-name="Rectángulo 311478" width="105.418" height="1.38" transform="translate(105.418 1.38) rotate(180)" fill="#97c9a4"/>
      </g>
    </g>
    <g id="Grupo_1004545" data-name="Grupo 1004545" transform="translate(311.004 1067.245)">
      <path id="Trazado_673478" data-name="Trazado 673478" d="M498,1117.511s-9.437,8.192-7.8,9.853,9.857-9.886,9.857-9.886,12.356,2.783,15.6,5.9c0,0-12.995,5.005-11,6.214s15.755-3.371,15.755-3.371,10.52,5.567,7.687,12.169-7.365,7.437-8.993,6.7-10.259-7.756-10.93-6.444,3.783,7.788,7.875,9.371c0,0-10.71,6.077-15.109,1.857s-3.538-8.331-6.3-10.89-5.545-3.47-4.7-1.511,6.25,5.373,7.027,9.279,1.716,6.676-3.419,4.084-12.614-9.437-11.509-14.091c.048-.2.094-.4.138-.582a2.27,2.27,0,0,0-.138.582c-1.191-.17-4.209,1.129-6.434,2.2-.355.2-.871.458-1.6.789h0c-.315.16-.57.293-.747.386-4.643,2.663-9.146,10.043-9.146,10.043l-1.144-.494a20.01,20.01,0,0,1,11.358-11.1,23.053,23.053,0,0,0,8.813-6.474s-4.727-11.484,4.349-14.8C487.487,1117.292,493.8,1115.84,498,1117.511Z" transform="translate(-462.966 -1116.707)" fill="#a8c9af"/>
    </g>
    <g id="Grupo_1004551" data-name="Grupo 1004551" transform="translate(360.649 1109.381)">
      <g id="Grupo_1004546" data-name="Grupo 1004546" transform="translate(19.573)">
        <rect id="Rectángulo_311479" data-name="Rectángulo 311479" width="8.116" height="26.183" transform="translate(8.116 26.183) rotate(180)" fill="#225b39"/>
      </g>
      <g id="Grupo_1004547" data-name="Grupo 1004547">
        <rect id="Rectángulo_311480" data-name="Rectángulo 311480" width="19.573" height="26.183" transform="translate(19.573 26.183) rotate(180)" fill="#163421"/>
      </g>
      <g id="Grupo_1004548" data-name="Grupo 1004548" transform="translate(22.276 1.916)">
        <path id="Trazado_673479" data-name="Trazado 673479" d="M593.974,1196.645A1.355,1.355,0,1,0,592.62,1198,1.355,1.355,0,0,0,593.974,1196.645Z" transform="translate(-591.265 -1195.29)" fill="#b2ceba"/>
      </g>
      <g id="Grupo_1004549" data-name="Grupo 1004549" transform="translate(22.673 2.312)">
        <path id="Trazado_673480" data-name="Trazado 673480" d="M593.889,1196.956a.958.958,0,1,0-.958.957A.958.958,0,0,0,593.889,1196.956Z" transform="translate(-591.973 -1195.998)" fill="#56cfa2"/>
      </g>
      <g id="Grupo_1004550" data-name="Grupo 1004550" transform="translate(21.692 6.534)">
        <rect id="Rectángulo_311481" data-name="Rectángulo 311481" width="3.818" height="6.896" transform="translate(3.818 6.896) rotate(180)" fill="#71bf87"/>
      </g>
    </g>
    <g id="Grupo_1004557" data-name="Grupo 1004557" transform="translate(345.508 1109.381)">
      <g id="Grupo_1004552" data-name="Grupo 1004552" transform="translate(19.573)">
        <rect id="Rectángulo_311482" data-name="Rectángulo 311482" width="8.116" height="26.183" transform="translate(8.116 26.183) rotate(180)" fill="#225b39"/>
      </g>
      <g id="Grupo_1004553" data-name="Grupo 1004553">
        <rect id="Rectángulo_311483" data-name="Rectángulo 311483" width="19.573" height="26.183" transform="translate(19.573 26.183) rotate(180)" fill="#163421"/>
      </g>
      <g id="Grupo_1004554" data-name="Grupo 1004554" transform="translate(22.276 1.916)">
        <path id="Trazado_673481" data-name="Trazado 673481" d="M566.965,1196.645A1.355,1.355,0,1,0,565.61,1198,1.355,1.355,0,0,0,566.965,1196.645Z" transform="translate(-564.256 -1195.29)" fill="#b2ceba"/>
      </g>
      <g id="Grupo_1004555" data-name="Grupo 1004555" transform="translate(22.673 2.312)">
        <path id="Trazado_673482" data-name="Trazado 673482" d="M566.879,1196.956a.958.958,0,1,0-.958.957A.958.958,0,0,0,566.879,1196.956Z" transform="translate(-564.964 -1195.998)" fill="#56cfa2"/>
      </g>
      <g id="Grupo_1004556" data-name="Grupo 1004556" transform="translate(21.692 6.534)">
        <rect id="Rectángulo_311484" data-name="Rectángulo 311484" width="3.818" height="6.896" transform="translate(3.818 6.896) rotate(180)" fill="#71bf87"/>
      </g>
    </g>
    <g id="Grupo_1004563" data-name="Grupo 1004563" transform="translate(331.664 1109.381)">
      <g id="Grupo_1004558" data-name="Grupo 1004558" transform="translate(19.573)">
        <rect id="Rectángulo_311485" data-name="Rectángulo 311485" width="8.116" height="26.183" transform="translate(8.116 26.183) rotate(180)" fill="#225b39"/>
      </g>
      <g id="Grupo_1004559" data-name="Grupo 1004559">
        <rect id="Rectángulo_311486" data-name="Rectángulo 311486" width="19.573" height="26.183" transform="translate(19.573 26.183) rotate(180)" fill="#163421"/>
      </g>
      <g id="Grupo_1004560" data-name="Grupo 1004560" transform="translate(22.276 1.916)">
        <path id="Trazado_673483" data-name="Trazado 673483" d="M542.268,1196.645a1.355,1.355,0,1,0-1.354,1.354A1.355,1.355,0,0,0,542.268,1196.645Z" transform="translate(-539.559 -1195.29)" fill="#b2ceba"/>
      </g>
      <g id="Grupo_1004561" data-name="Grupo 1004561" transform="translate(22.673 2.312)">
        <path id="Trazado_673484" data-name="Trazado 673484" d="M542.182,1196.956a.958.958,0,1,0-.957.957A.958.958,0,0,0,542.182,1196.956Z" transform="translate(-540.267 -1195.998)" fill="#56cfa2"/>
      </g>
      <g id="Grupo_1004562" data-name="Grupo 1004562" transform="translate(21.692 6.534)">
        <rect id="Rectángulo_311487" data-name="Rectángulo 311487" width="3.818" height="6.896" transform="translate(3.818 6.896) rotate(180)" fill="#71bf87"/>
      </g>
    </g>
    <g id="Grupo_1004567" data-name="Grupo 1004567" transform="translate(330.444 1126.432)">
      <g id="Grupo_1004564" data-name="Grupo 1004564">
        <rect id="Rectángulo_311488" data-name="Rectángulo 311488" width="45.856" height="33.88" transform="translate(45.856 33.88) rotate(180)" fill="#f77d48"/>
      </g>
      <g id="Grupo_1004565" data-name="Grupo 1004565" transform="translate(24.574)">
        <rect id="Rectángulo_311489" data-name="Rectángulo 311489" width="36.357" height="33.88" transform="translate(36.357 33.88) rotate(180)" fill="#ff8c64"/>
      </g>
      <g id="Grupo_1004566" data-name="Grupo 1004566" transform="translate(39.056 3.273)">
        <path id="Rectángulo_311490" data-name="Rectángulo 311490" d="M1.129,0h9.28a1.129,1.129,0,0,1,1.129,1.129v0a1.129,1.129,0,0,1-1.129,1.129H1.129A1.129,1.129,0,0,1,0,1.129v0A1.129,1.129,0,0,1,1.129,0Z" transform="translate(11.538 2.258) rotate(180)" fill="#2c3a64"/>
      </g>
    </g>
    <g id="Grupo_1004578" data-name="Grupo 1004578" transform="translate(194.034 1041.997)">
      <g id="Grupo_1004568" data-name="Grupo 1004568" transform="translate(61.085 39.458)">
        <path id="Trazado_673485" data-name="Trazado 673485" d="M369.526,1142.753l-6.2,73.734s-.65,4.469,2.675,4.477c5.466.014,27.208,0,27.208,0s-4.115-.93-4.065-3.024c.059-2.468,7.248-75.885,7.248-75.885Z" transform="translate(-363.273 -1142.055)" fill="#5fb888"/>
      </g>
      <g id="Grupo_1004569" data-name="Grupo 1004569" transform="translate(62.872 38.088)">
        <path id="Trazado_673486" data-name="Trazado 673486" d="M396.655,1218.55c-1.075,0-22.124.039-27.447-.03-2.32-.029-2.727-2.063-2.746-3.379a6.631,6.631,0,0,1,.07-1.1l.161-1.917.411-4.884.363-4.315.466-5.546.393-4.681,4.406-52.393,26.866-.7s-3.028,30.725-5.17,53.09c-.239,2.492-.466,4.882-.677,7.112q-.1,1.068-.2,2.086c-.2,2.116-.38,4.059-.538,5.775-.084.9-.16,1.745-.23,2.514-.274,3.017-.433,4.943-.436,5.309a3.091,3.091,0,0,0,.052.6C392.845,1218.444,396.252,1218.55,396.655,1218.55Z" transform="translate(-366.462 -1139.611)" fill="#8ccfa3"/>
      </g>
      <g id="Grupo_1004570" data-name="Grupo 1004570" transform="translate(2.094 0)">
        <path id="Trazado_673487" data-name="Trazado 673487" d="M258.04,1071.667l15.105,60.674,2.068,8.309,7.035,28.26h130.7l-25.931-97.244Z" transform="translate(-258.04 -1071.667)" fill="#8ccfa3"/>
      </g>
      <g id="Grupo_1004571" data-name="Grupo 1004571">
        <path id="Trazado_673488" data-name="Trazado 673488" d="M256.4,1071.667l-2.093.7,23.519,98.657,2.783-2.11Z" transform="translate(-254.305 -1071.667)" fill="#5fb888"/>
      </g>
      <g id="Grupo_1004572" data-name="Grupo 1004572" transform="translate(23.519 97.244)">
        <path id="Trazado_673489" data-name="Trazado 673489" d="M296.26,1247.25h129.9l3.587-2.111h-130.7Z" transform="translate(-296.26 -1245.14)" fill="#68bf89"/>
      </g>
      <g id="Grupo_1004573" data-name="Grupo 1004573" transform="translate(69.136 117.027)">
        <rect id="Rectángulo_311491" data-name="Rectángulo 311491" width="28.125" height="1.337" transform="translate(28.125 1.337) rotate(180)" fill="#8ccfa3"/>
      </g>
      <g id="Grupo_1004574" data-name="Grupo 1004574" transform="translate(63.516 99.354)">
        <path id="Trazado_673490" data-name="Trazado 673490" d="M394.2,1248.9l-.145,1.022-26.45,5.344.363-4.315.173-2.05Z" transform="translate(-367.609 -1248.904)" fill="#6fc49a"/>
      </g>
      <g id="Grupo_1004575" data-name="Grupo 1004575" transform="translate(62.873 108.665)" opacity="0.5">
        <path id="Trazado_673491" data-name="Trazado 673491" d="M396.656,1273.875c-1.075,0-22.124.039-27.447-.03-2.32-.029-2.727-2.063-2.746-3.379l26.325-4.953c-.274,3.016-.433,4.943-.436,5.309a3.09,3.09,0,0,0,.052.6C392.846,1273.769,396.252,1273.875,396.656,1273.875Z" transform="translate(-366.463 -1265.513)" fill="#6fc49a"/>
      </g>
      <g id="Grupo_1004576" data-name="Grupo 1004576" transform="translate(2.093)">
        <path id="Trazado_673492" data-name="Trazado 673492" d="M258.039,1071.667H387.02l20.927,78.153H277.5Z" transform="translate(-258.039 -1071.667)" fill="#6fc49a"/>
      </g>
      <g id="Grupo_1004577" data-name="Grupo 1004577" transform="translate(7.435 4.187)">
        <path id="Trazado_673493" data-name="Trazado 673493" d="M406.052,1149.716H285.286l-4.316-17.192-1.67-6.652-.681-2.713-4.436-17.668-.229-.92-2.345-9.339-1.049-4.179-.895-3.564-.73-2.907-1.368-5.448H386.594l1.5,5.448.8,2.907.983,3.564,1.152,4.179,7.589,27.528h0l.642,2.332.3,1.082,5.239,19Z" transform="translate(-267.569 -1079.136)" fill="#3a8a6c"/>
      </g>
    </g>
    <g id="Grupo_1004600" data-name="Grupo 1004600" transform="translate(143.398 1080.549)">
      <g id="Grupo_1004599" data-name="Grupo 1004599" transform="translate(0 0)">
        <g id="Grupo_1004579" data-name="Grupo 1004579" transform="translate(33.236)">
          <path id="Trazado_673494" data-name="Trazado 673494" d="M235.558,1143.873a3.157,3.157,0,0,0-3.521-3.433,4.514,4.514,0,0,1,1.764.946,4.537,4.537,0,0,0-5.109.771c-2.662,2.207-1.008,7.742-1.818,8.792s-3.962,1.261-3.576,4.659,10.005,7.653,9.388,10.465c0,0,3.77-5.542,1.074-8.071a4.994,4.994,0,0,1,1.447,2.709s.357-2.872-1.471-3.791a6.749,6.749,0,0,1-2.8-4.318C231.074,1152.07,235.558,1143.873,235.558,1143.873Z" transform="translate(-223.265 -1140.44)" fill="#2c3a64"/>
        </g>
        <g id="Grupo_1004580" data-name="Grupo 1004580" transform="translate(37.688 19.915)">
          <path id="Trazado_673495" data-name="Trazado 673495" d="M235.272,1175.966s2.865,11.854,5.678,14.224c1.691,1.424,6.718,4.693,6.718,4.693l-2.091.759s-6.973-2.355-8.534-4.19-5.835-11.032-5.835-11.032Z" transform="translate(-231.208 -1175.966)" fill="#ffb27d"/>
        </g>
        <g id="Grupo_1004581" data-name="Grupo 1004581" transform="translate(40.816 38.539)">
          <path id="Trazado_673496" data-name="Trazado 673496" d="M254.268,1213.815l-.673-1.667a4.73,4.73,0,0,0-4.386-2.959H236.787v41.533h51.386v-33.651H259.094A5.206,5.206,0,0,1,254.268,1213.815Z" transform="translate(-236.787 -1209.189)" fill="#f99746"/>
        </g>
        <g id="Grupo_1004582" data-name="Grupo 1004582" transform="translate(13.035 29.535)">
          <path id="Trazado_673497" data-name="Trazado 673497" d="M189.016,1204.333c.025.045.052.093.079.139.627,1.09,2.066,3.761,3.65,6.683.749,1.386,1.534,2.83,2.278,4.188,1.283,2.344,2.45,4.431,3.13,5.534.692,1.122,1.2,1.909,1.408,2.225l0,0a.519.519,0,0,1,.067.325,16.951,16.951,0,0,0,.045,2.938,22.547,22.547,0,0,0,7.367,14.6l1.906.281s-2.7-9.994-3.492-15.643a10.909,10.909,0,0,1-.146-2.24,23.38,23.38,0,0,0-.615-6.114,136.988,136.988,0,0,0-3.9-14.154c-.089-.276-2.77-9.974-2.77-9.974-2.25,1.967-10.456,2.778-10.456,2.778S186.179,1199.288,189.016,1204.333Z" transform="translate(-187.23 -1193.127)" fill="#2f539b"/>
        </g>
        <g id="Grupo_1004583" data-name="Grupo 1004583" transform="translate(30.755 75.645)">
          <path id="Trazado_673498" data-name="Trazado 673498" d="M226.839,1279.809h-7.956a4.371,4.371,0,0,1,.225-2.133c.4-.883.966-.911.073-2.294.505.521,2.13.736,3.28.581a9.741,9.741,0,0,0,1.38,2.1C224.361,1278.436,226.68,1278.3,226.839,1279.809Z" transform="translate(-218.84 -1275.382)" fill="#233862"/>
        </g>
        <g id="Grupo_1004584" data-name="Grupo 1004584" transform="translate(14.821 36.05)">
          <path id="Trazado_673499" data-name="Trazado 673499" d="M190.416,1209.44c.025.045.052.093.079.139.627,1.09,4.018,7.354,5.6,10.276a42.365,42.365,0,0,1-.559-15.106Z" transform="translate(-190.416 -1204.749)" fill="#233862"/>
        </g>
        <g id="Grupo_1004585" data-name="Grupo 1004585" transform="translate(38.239 2.894)">
          <path id="Trazado_673500" data-name="Trazado 673500" d="M238.395,1145.659a31.85,31.85,0,0,0-4.777,2.336c-2.155,2.391-1.54,5.511-.307,5.541.791.019.637,1.334.637,1.334l8.812-3.728S241.7,1144.955,238.395,1145.659Z" transform="translate(-232.191 -1145.603)" fill="#2c3a64"/>
        </g>
        <g id="Grupo_1004586" data-name="Grupo 1004586" transform="translate(36.845 18.135)">
          <path id="Trazado_673501" data-name="Trazado 673501" d="M234.34,1172.79a11.285,11.285,0,0,1,1.174,4.853,8.433,8.433,0,0,1-5.811,3.2S233.309,1172.788,234.34,1172.79Z" transform="translate(-229.703 -1172.79)" fill="#6385db"/>
        </g>
        <g id="Grupo_1004587" data-name="Grupo 1004587" transform="translate(1.054 27.875)">
          <path id="Trazado_673502" data-name="Trazado 673502" d="M185.826,1195.2l.027-1.488c-2.964.374-10.222-3.543-10.222-3.543s-3.1,2.063-3.526,7.954c-.207,2.875-1.518,15.036-1.663,18.667-.053,1.316-.07,2.256-.076,2.631v0a.523.523,0,0,1-.126.306,16.938,16.938,0,0,0-1.607,2.463c-4.524,8.417-2.158,19.853-2.158,19.853l1.051-.267s3.825-11.856,6.326-16.984a10.718,10.718,0,0,1,1.132-1.938,23.389,23.389,0,0,0,2.908-5.414C179.738,1213.028,185.826,1195.2,185.826,1195.2Z" transform="translate(-165.857 -1190.165)" fill="#2f539b"/>
        </g>
        <g id="Grupo_1004588" data-name="Grupo 1004588" transform="translate(0 75.587)">
          <path id="Trazado_673503" data-name="Trazado 673503" d="M171.975,1279.764H164.02a4.371,4.371,0,0,1,.225-2.133c.4-.883,1.022-1.284.873-2.352a2.863,2.863,0,0,0,2.479.949,8.737,8.737,0,0,0,1.381,1.789C169.5,1278.391,171.816,1278.258,171.975,1279.764Z" transform="translate(-163.976 -1275.279)" fill="#233862"/>
        </g>
        <g id="Grupo_1004589" data-name="Grupo 1004589" transform="translate(10.512 13.626)">
          <path id="Trazado_673504" data-name="Trazado 673504" d="M208.524,1179.016c-1.068.182.175,1.031-1.295,1.191a26.575,26.575,0,0,0-5.383.836,1.215,1.215,0,0,0-.775.628c-.491,1.475-3.6,4.009-3.6,4.009-13.853-.631-14.746-6.8-14.746-6.8,8.991-8.732,16.64-13.492,22.962-14.081a11.252,11.252,0,0,1,4.585.483c2.211.984,3.422,3.98,3.422,3.98S212.585,1178.323,208.524,1179.016Z" transform="translate(-182.729 -1164.747)" fill="#739af0"/>
        </g>
        <g id="Grupo_1004590" data-name="Grupo 1004590" transform="translate(29.585 17.816)">
          <path id="Trazado_673505" data-name="Trazado 673505" d="M222.18,1183.491a26.566,26.566,0,0,0-5.383.836,22.062,22.062,0,0,1,2.8-12.106S221.721,1180.877,222.18,1183.491Z" transform="translate(-216.752 -1172.221)" fill="#6385db"/>
        </g>
        <g id="Grupo_1004591" data-name="Grupo 1004591" transform="translate(30.426 16.64)">
          <path id="Trazado_673506" data-name="Trazado 673506" d="M224.644,1170.13s-5.26-.287-6.2,3.015,1.754,16.486,2.333,17.847c1.055,2.478,6.374,9.856,6.374,9.856l1.7-.883s-3.424-10.8-4.189-11.87C223.472,1186.417,226.219,1171.567,224.644,1170.13Z" transform="translate(-218.253 -1170.124)" fill="#ffb27d"/>
        </g>
        <g id="Grupo_1004592" data-name="Grupo 1004592" transform="translate(39.1 46.251)">
          <path id="Trazado_673507" data-name="Trazado 673507" d="M235.659,1223.177a7.694,7.694,0,0,1,.794.815c.354.432.043.588,1.059,2.546,0,0-.052.272-.273.222s-.987-.809-1.381-.755c0,0-.281.232-.312,1a18.532,18.532,0,0,1-.156,2.6c-.125.3-1.038-1.251-1.487-2.37-.394-.982-.01-4.292-.01-4.292Z" transform="translate(-233.726 -1222.947)" fill="#ffb27d"/>
        </g>
        <g id="Grupo_1004593" data-name="Grupo 1004593" transform="translate(29.584 15.665)">
          <path id="Trazado_673508" data-name="Trazado 673508" d="M216.751,1176.8c.014.077,4.978.913,8.083-.663,0,0,2.594-8.127-1.113-7.738s-5.9,1.556-6,3.331A34.172,34.172,0,0,1,216.751,1176.8Z" transform="translate(-216.751 -1168.384)" fill="#739af0"/>
        </g>
        <g id="Grupo_1004594" data-name="Grupo 1004594" transform="translate(37.935 11.553)">
          <path id="Trazado_673509" data-name="Trazado 673509" d="M231.654,1164.22a3.3,3.3,0,0,0,1,2.314c.659.679,1.612,1.209,2.282.539a7.251,7.251,0,0,0,1.035-1.251c.579-.994,1.267-2.01,1.267-2.01l-2.978-2.608-.178-.156a7.589,7.589,0,0,1-2.218,2.517A.689.689,0,0,0,231.654,1164.22Z" transform="translate(-231.648 -1161.049)" fill="#ffb27d"/>
        </g>
        <g id="Grupo_1004595" data-name="Grupo 1004595" transform="translate(40.492 11.709)">
          <path id="Trazado_673510" data-name="Trazado 673510" d="M239.24,1163.937s-.688,1.014-1.267,2.009c-1.85-1.141-1.853-3.432-1.71-4.619Z" transform="translate(-236.209 -1161.327)" fill="#ed985f"/>
        </g>
        <g id="Grupo_1004596" data-name="Grupo 1004596" transform="translate(40.368 6.388)">
          <path id="Trazado_673511" data-name="Trazado 673511" d="M239.227,1161.073s-4.494-2.5-2.894-5.275,2.1-4.966,5.035-3.486,2.879,2.856,2.57,3.912S240.436,1161.652,239.227,1161.073Z" transform="translate(-235.989 -1151.835)" fill="#ffb27d"/>
        </g>
        <g id="Grupo_1004597" data-name="Grupo 1004597" transform="translate(39.896 6.012)">
          <path id="Trazado_673512" data-name="Trazado 673512" d="M244.327,1154.311c-.206-1.232-.832-1.35-1.268-1.267a3.594,3.594,0,0,0-4.371-1.673,6.117,6.117,0,0,1-3.542,2.127s.521.97,2.67,1.571a3.673,3.673,0,0,0,2.12-.169,12.006,12.006,0,0,1-3.05,1.149c2.831.26,5.525-2.329,5.8-2.606a4.043,4.043,0,0,1,.223,1.855c-.187.834-.927,2.345-.475,2.541C242.439,1157.838,244.635,1156.158,244.327,1154.311Z" transform="translate(-235.146 -1151.165)" fill="#2c3a64"/>
        </g>
        <g id="Grupo_1004598" data-name="Grupo 1004598" transform="translate(54.309 38.753)">
          <path id="Trazado_673513" data-name="Trazado 673513" d="M261.518,1209.655s-1.254.941-.309,1.556,2.632.781,2.639.377C263.872,1210.234,263.2,1209.271,261.518,1209.655Z" transform="translate(-260.857 -1209.57)" fill="#ffb27d"/>
        </g>
      </g>
    </g>
    <g id="Grupo_1004601" data-name="Grupo 1004601" transform="translate(117.146 1160.37)">
      <rect id="Rectángulo_311492" data-name="Rectángulo 311492" width="293.265" height="0.845" rx="0.423" transform="translate(0 0)" fill="#233862"/>
    </g>
    <g id="Grupo_1004602" data-name="Grupo 1004602" transform="translate(209.906 1062.399)">
      <path id="Trazado_673514" data-name="Trazado 673514" d="M301.109,1112.625l-1.114-1.645a6.5,6.5,0,0,0-5.124-2.918H282.62l2.126,7.774,8.436,30.847a3.181,3.181,0,0,0,3.068,2.341h44.085a3.18,3.18,0,0,0,3.068-4.019l-7.977-29.169h-28.68A7.156,7.156,0,0,1,301.109,1112.625Z" transform="translate(-282.62 -1108.062)" fill="#f99746"/>
    </g>
    <g id="Grupo_1004627" data-name="Grupo 1004627" transform="translate(212.028 1004.146)">
      <g id="Grupo_1004623" data-name="Grupo 1004623">
        <g id="Grupo_1004603" data-name="Grupo 1004603" transform="translate(17.463 47.448)">
          <path id="Trazado_673515" data-name="Trazado 673515" d="M317.732,1094.9a.682.682,0,0,0-.122.729l0,0a4.522,4.522,0,0,0,1.431,1.571c.086.07.163.133.23.192l.052.047.04.036c.629.58.392.713,1.522,1.89,1.289,1.342,2.176,1.366,2.428,1.244.214-.1-.22-.816-.7-1.615-.024-.039-.046-.078-.07-.117l-.191-.321c-.563-.962-.418-1.414-.284-2.845.109-1.163,1.812-6.5,1.812-6.5l-2.47-.426s-.745,4.249-1.565,4.9c-.438.349-.928.353-1.35.612l-.087.055A3.246,3.246,0,0,0,317.732,1094.9Z" transform="translate(-317.556 -1088.789)" fill="#ffb27d"/>
        </g>
        <g id="Grupo_1004604" data-name="Grupo 1004604" transform="translate(17.463 53.018)">
          <path id="Trazado_673516" data-name="Trazado 673516" d="M317.732,1099.268a.682.682,0,0,0-.122.729l0,0a5.238,5.238,0,0,0,1.433,1.566c.085.071.16.136.227.2l.052.047.04.036c.629.58.392.713,1.522,1.89,1.289,1.342,2.176,1.366,2.428,1.244.214-.1-.22-.816-.7-1.615a5.5,5.5,0,0,1-2.3-1.694c-.748-.954-1.255-2.171-1.764-2.918l-.145-.027A3.246,3.246,0,0,0,317.732,1099.268Z" transform="translate(-317.556 -1098.725)" fill="#233862"/>
        </g>
        <g id="Grupo_1004605" data-name="Grupo 1004605" transform="translate(35.582 46.702)">
          <path id="Trazado_673517" data-name="Trazado 673517" d="M351.852,1092.781c.152.762,1.239.636,2.454.34s.925.056,2.653-.135,2.252-.835,2.305-1.092c.047-.228-.807-.308-1.723-.414l-.346-.042a7.475,7.475,0,0,1-2.73-1.346,10.973,10.973,0,0,1-2.216-2.635l-2.37.187s1.243,1.889,1.724,2.71a2.867,2.867,0,0,1,.232,1.615A3.047,3.047,0,0,0,351.852,1092.781Z" transform="translate(-349.878 -1087.458)" fill="#ffb27d"/>
        </g>
        <g id="Grupo_1004606" data-name="Grupo 1004606" transform="translate(37.52 50.724)">
          <path id="Trazado_673518" data-name="Trazado 673518" d="M355.824,1096.274c1.214-.3.926.056,2.653-.135s2.252-.835,2.305-1.092c.047-.228-.807-.308-1.723-.414l-.008.017a4.873,4.873,0,0,1-2.475.769c-1.173.028-2.414-.308-3.224-.3a3.045,3.045,0,0,0,.018.811C353.523,1096.7,354.61,1096.57,355.824,1096.274Z" transform="translate(-353.335 -1094.633)" fill="#233862"/>
        </g>
        <g id="Grupo_1004607" data-name="Grupo 1004607" transform="translate(20.344 33.069)">
          <path id="Trazado_673519" data-name="Trazado 673519" d="M330.83,1066.938l-2.217,5.961-2.9,7.782a4.68,4.68,0,0,1-1.536-.141,6.648,6.648,0,0,1-1.486-.724s.806-8.357,2.306-13.154a8.538,8.538,0,0,1,1.29-2.788C328.615,1061.131,330.83,1066.938,330.83,1066.938Z" transform="translate(-322.696 -1063.138)" fill="#ed7d2b"/>
        </g>
        <g id="Grupo_1004608" data-name="Grupo 1004608" transform="translate(4.799 26.204)">
          <path id="Trazado_673520" data-name="Trazado 673520" d="M316.4,1052.088c-1.261-.407-4.551-.008-8.12.637a2.42,2.42,0,0,1-2.5-1.13h0l-8.982-.7s-2.966,6.572-1.345,10.76a1.576,1.576,0,0,0,1.569,1.013h0s5.427.01,7.163.01c4.467,0,9.455-3.067,10.1-3.2,1.056-.211,1.477,1.9,2.532,4.119s9.922,9.822,9.922,9.822a7.815,7.815,0,0,0,1.926-.2,1.9,1.9,0,0,0,.827-.522S319.669,1053.145,316.4,1052.088Z" transform="translate(-294.966 -1050.891)" fill="#f99746"/>
        </g>
        <g id="Grupo_1004609" data-name="Grupo 1004609" transform="translate(0.036)">
          <path id="Trazado_673521" data-name="Trazado 673521" d="M301.1,1004.679a3.185,3.185,0,0,0-1.715-.447,4.761,4.761,0,0,1-.829-.05c-3.428-.5-5.494,4.474-5.615,5.979-.223,2.762-1.685,3.182-3.742,4.912-4.125,3.467-2.917,7.5-.663,9,1.353.9,3.738,0,3.738,0,.034.024,6.523-3.625,9.722-5.384C306.789,1018.005,303.023,1005.827,301.1,1004.679Z" transform="translate(-286.468 -1004.146)" fill="#233862"/>
        </g>
        <g id="Grupo_1004610" data-name="Grupo 1004610" transform="translate(8.506 8.009)">
          <path id="Trazado_673522" data-name="Trazado 673522" d="M305.953,1023.464a4.23,4.23,0,0,1-2.635.08,4.7,4.7,0,0,1-1.74-2.086c.455-.021.954-.418,1.339-3.024l.193.069,3.252,1.172s-.236,1.043-.389,2.037C305.845,1022.546,305.775,1023.346,305.953,1023.464Z" transform="translate(-301.578 -1018.434)" fill="#ffb27d"/>
        </g>
        <g id="Grupo_1004611" data-name="Grupo 1004611" transform="translate(10.038 8.079)">
          <path id="Trazado_673523" data-name="Trazado 673523" d="M307.563,1019.73s-.13.563-.32,1.615a3.673,3.673,0,0,1-2.932-2.787Z" transform="translate(-304.311 -1018.558)" fill="#ed975d"/>
        </g>
        <g id="Grupo_1004612" data-name="Grupo 1004612" transform="translate(9.713 2.457)">
          <path id="Trazado_673524" data-name="Trazado 673524" d="M307.792,1016.359s-4.45-.6-4.034-3.365.121-4.706,2.98-4.44,3.251,1.4,3.337,2.361S308.961,1016.443,307.792,1016.359Z" transform="translate(-303.73 -1008.53)" fill="#ffb27d"/>
        </g>
        <g id="Grupo_1004613" data-name="Grupo 1004613" transform="translate(8.436 2.213)">
          <path id="Trazado_673525" data-name="Trazado 673525" d="M308.912,1009.207s-2.849,2.454-4.787,2.652a3.715,3.715,0,0,1-2.672-.425,7.567,7.567,0,0,0,1.83-2.478,1.363,1.363,0,0,1,1.124-.8C305.791,1008.034,308.414,1007.98,308.912,1009.207Z" transform="translate(-301.453 -1008.094)" fill="#233862"/>
        </g>
        <g id="Grupo_1004614" data-name="Grupo 1004614" transform="translate(14.115 2.573)">
          <path id="Trazado_673526" data-name="Trazado 673526" d="M311.583,1009.269a7.01,7.01,0,0,1,1.252,1.605,5.383,5.383,0,0,1,.145,2.864s1.486-2.887.646-4.291A1.187,1.187,0,0,0,311.583,1009.269Z" transform="translate(-311.583 -1008.737)" fill="#233862"/>
        </g>
        <g id="Grupo_1004615" data-name="Grupo 1004615" transform="translate(4.684 10.928)">
          <path id="Trazado_673527" data-name="Trazado 673527" d="M306.7,1032.309c-.137,9.009-.039,7.126-1.025,7.981a3.789,3.789,0,0,1-1.784.386c-2.762.182-7.618-.274-7.8-.785-.637-1.767-.187-2.315-.717-5.02-.056-.288-.124-.6-.2-.938-.442-1.858-.873-2.489.7-5.473a23.279,23.279,0,0,1,3.042-4.817c3.761,2.235,4.066.358,4.066.358S306.77,1027.916,306.7,1032.309Z" transform="translate(-294.76 -1023.641)" fill="#2f539b"/>
        </g>
        <g id="Grupo_1004616" data-name="Grupo 1004616" transform="translate(20.344 36.594)">
          <path id="Trazado_673528" data-name="Trazado 673528" d="M328.613,1075.661l-2.9,7.782a4.682,4.682,0,0,1-1.536-.141,6.646,6.646,0,0,1-1.486-.724s.806-8.357,2.306-13.154Z" transform="translate(-322.696 -1069.425)" fill="#f99746"/>
        </g>
        <g id="Grupo_1004617" data-name="Grupo 1004617" transform="translate(12.902 11.288)">
          <path id="Trazado_673529" data-name="Trazado 673529" d="M309.419,1024.282s3.871.657,4.325,2.325,1.947,11.785,1.947,11.785-1.092,1.066-2,.156-2.858-9.467-2.858-9.467Z" transform="translate(-309.419 -1024.282)" fill="#2f539b"/>
        </g>
        <g id="Grupo_1004618" data-name="Grupo 1004618" transform="translate(5.298 18.407)">
          <path id="Trazado_673530" data-name="Trazado 673530" d="M304.375,1046.539c-2.762.182-7.618-.274-7.8-.785-.637-1.767-.187-2.315-.717-5.02l1.334-3.751s-.222,4.178,1.01,5.277,5.044,2.123,5.643,3.041A3.359,3.359,0,0,1,304.375,1046.539Z" transform="translate(-295.855 -1036.983)" fill="#233862"/>
        </g>
        <g id="Grupo_1004619" data-name="Grupo 1004619" transform="translate(10.653 25.784)">
          <path id="Trazado_673531" data-name="Trazado 673531" d="M305.408,1050.563s2.726-.605,3.166-.364a6.41,6.41,0,0,1,1.649,1.43c.135.307-.979-.233-1.341-.33a3.21,3.21,0,0,0-1.158.253,3.847,3.847,0,0,1-2.075.207Z" transform="translate(-305.408 -1050.142)" fill="#ffb27d"/>
        </g>
        <g id="Grupo_1004620" data-name="Grupo 1004620" transform="translate(0 10.929)">
          <path id="Trazado_673532" data-name="Trazado 673532" d="M295.238,1023.642s-3.659.224-4.927,1.991c-1.784,2.486-5.325,13.085-3.3,14.5,2.283,1.593,10.391.42,10.391.42a3.3,3.3,0,0,0-.105-1.872c-.375-.61-6.475-1.6-6.757-1.879s3.521-5.49,3.522-6.334S295.238,1023.642,295.238,1023.642Z" transform="translate(-286.404 -1023.642)" fill="#2f539b"/>
        </g>
        <g id="Grupo_1004621" data-name="Grupo 1004621" transform="translate(13.95 26.6)">
          <path id="Trazado_673533" data-name="Trazado 673533" d="M311.29,1051.6a5.267,5.267,0,0,0,.758.825.56.56,0,0,0,.308.066l-.384-.693Z" transform="translate(-311.29 -1051.598)" fill="#ffb27d"/>
        </g>
        <g id="Grupo_1004622" data-name="Grupo 1004622" transform="translate(13.819 25.841)">
          <path id="Trazado_673534" data-name="Trazado 673534" d="M311.055,1050.244l1.66.807a.3.3,0,0,1-.275.107,3.978,3.978,0,0,1-.72-.2Z" transform="translate(-311.055 -1050.244)" fill="#ffb27d"/>
        </g>
      </g>
      <g id="Grupo_1004624" data-name="Grupo 1004624" transform="translate(10.653 27.735)">
        <path id="Trazado_673535" data-name="Trazado 673535" d="M322.75,1053.629l-17.342-.006v.383l17.188.006Z" transform="translate(-305.407 -1053.623)" fill="#233862"/>
      </g>
      <g id="Grupo_1004625" data-name="Grupo 1004625" transform="translate(14.708 18.297)">
        <path id="Trazado_673536" data-name="Trazado 673536" d="M312.642,1046.609l13.133,0,3.954-9.823-13.113,0Z" transform="translate(-312.642 -1036.786)" fill="#233862"/>
      </g>
      <g id="Grupo_1004626" data-name="Grupo 1004626" transform="translate(23.252 22.585)">
        <path id="Trazado_673537" data-name="Trazado 673537" d="M329.158,1045.062a.455.455,0,0,0-.446-.625.9.9,0,0,0-.8.625.456.456,0,0,0,.446.626A.9.9,0,0,0,329.158,1045.062Z" transform="translate(-327.882 -1044.436)" fill="#fff"/>
      </g>
    </g>
    <g id="Grupo_1004628" data-name="Grupo 1004628" transform="translate(274.919 1056.764)" opacity="0.5">
      <path id="Trazado_673538" data-name="Trazado 673538" d="M425.011,1105.991l-3.632-4.64-.172-.219-.2-.038-16.765-3.085-5.642,30.665,21.734,4,4.826-26.232.04-.215Z" transform="translate(-398.595 -1098.01)" fill="#8c9df4"/>
    </g>
    <g id="Grupo_1004630" data-name="Grupo 1004630" transform="translate(268.181 1051.133)">
      <g id="Grupo_1004629" data-name="Grupo 1004629">
        <path id="Trazado_673539" data-name="Trazado 673539" d="M408.824,1092.063l.008.218,1.034,26.652-22.083.857-1.208-31.156,17.034-.66.208-.008.215.176,4.56,3.732Z" transform="translate(-386.575 -1087.966)" fill="#8c9df4"/>
      </g>
    </g>
    <g id="Grupo_1004645" data-name="Grupo 1004645" transform="translate(238.924 1060.757)">
      <g id="Grupo_1004631" data-name="Grupo 1004631" transform="translate(0 2.106)">
        <path id="Trazado_673540" data-name="Trazado 673540" d="M371.364,1108.89l-36.852,2.054a.135.135,0,0,0-.127.142l2.69,48.257a.135.135,0,0,0,.142.127l36.8-2.051a.135.135,0,0,0,.127-.142l-2.692-48.309A.083.083,0,0,0,371.364,1108.89Z" transform="translate(-334.385 -1108.89)" fill="#233862"/>
      </g>
      <g id="Grupo_1004632" data-name="Grupo 1004632" transform="translate(1.23 3.302)">
        <path id="Trazado_673541" data-name="Trazado 673541" d="M372.261,1156.834l-31.215,1.959a1.7,1.7,0,0,1-1.8-1.589l-2.661-42.415a1.7,1.7,0,0,1,1.589-1.8l31.215-1.959a1.7,1.7,0,0,1,1.8,1.589l2.662,42.415A1.7,1.7,0,0,1,372.261,1156.834Z" transform="translate(-336.579 -1111.025)" fill="#ebf3fa"/>
      </g>
      <g id="Grupo_1004643" data-name="Grupo 1004643" transform="translate(4.906 9.775)">
        <g id="Grupo_1004633" data-name="Grupo 1004633">
          <path id="Trazado_673542" data-name="Trazado 673542" d="M362.823,1123.1l-19.636,1.232a.018.018,0,0,1-.02-.017l-.03-.49a.018.018,0,0,1,.017-.02l19.636-1.232a.018.018,0,0,1,.019.017l.031.49A.017.017,0,0,1,362.823,1123.1Z" transform="translate(-343.137 -1122.571)" fill="#bdd1f9"/>
        </g>
        <g id="Grupo_1004634" data-name="Grupo 1004634" transform="translate(0.264 4.216)">
          <path id="Trazado_673543" data-name="Trazado 673543" d="M363.295,1130.619l-19.636,1.232a.018.018,0,0,1-.02-.017l-.031-.49a.019.019,0,0,1,.017-.02l19.636-1.232a.018.018,0,0,1,.019.017l.031.491A.018.018,0,0,1,363.295,1130.619Z" transform="translate(-343.608 -1130.092)" fill="#bdd1f9"/>
        </g>
        <g id="Grupo_1004635" data-name="Grupo 1004635" transform="translate(0.132 1.637)">
          <path id="Trazado_673544" data-name="Trazado 673544" d="M370.561,1126.019l-27.138,1.7a.019.019,0,0,1-.02-.017l-.031-.491a.018.018,0,0,1,.017-.019l27.139-1.7a.019.019,0,0,1,.02.017l.031.491A.018.018,0,0,1,370.561,1126.019Z" transform="translate(-343.372 -1125.492)" fill="#bdd1f9"/>
        </g>
        <g id="Grupo_1004636" data-name="Grupo 1004636" transform="translate(1.801 17.622)">
          <path id="Trazado_673545" data-name="Trazado 673545" d="M359.7,1154.534l-13.256.832-.071-.063-.025-.392.063-.072,13.256-.832.071.062.025.393Z" transform="translate(-346.35 -1154.007)" fill="#bdd1f9"/>
        </g>
        <g id="Grupo_1004637" data-name="Grupo 1004637" transform="translate(1.669 15.194)">
          <path id="Trazado_673546" data-name="Trazado 673546" d="M364.573,1150.2l-18.363,1.152-.071-.062-.025-.393.063-.072,18.363-1.152.071.062.025.394Z" transform="translate(-346.114 -1149.675)" fill="#bdd1f9"/>
        </g>
        <g id="Grupo_1004638" data-name="Grupo 1004638" transform="translate(1.854 19.577)">
          <path id="Trazado_673547" data-name="Trazado 673547" d="M366.131,1158.021l-19.636,1.232a.019.019,0,0,1-.02-.017l-.031-.491a.019.019,0,0,1,.017-.02l19.636-1.232a.018.018,0,0,1,.019.017l.031.491A.018.018,0,0,1,366.131,1158.021Z" transform="translate(-346.444 -1157.494)" fill="#bdd1f9"/>
        </g>
        <g id="Grupo_1004639" data-name="Grupo 1004639" transform="translate(1.99 21.551)">
          <path id="Trazado_673548" data-name="Trazado 673548" d="M368.509,1161.542l-21.721,1.363-.078-.068-.024-.381.068-.077,21.722-1.363.077.068.024.381Z" transform="translate(-346.686 -1161.015)" fill="#bdd1f9"/>
        </g>
        <g id="Grupo_1004640" data-name="Grupo 1004640" transform="translate(2.342 25.733)">
          <path id="Trazado_673549" data-name="Trazado 673549" d="M361.358,1169l-13.947.875-.073-.065-.025-.389.065-.073,13.946-.875.072.064.025.39Z" transform="translate(-347.314 -1168.475)" fill="#bdd1f9"/>
        </g>
        <g id="Grupo_1004641" data-name="Grupo 1004641" transform="translate(2.606 29.949)">
          <path id="Trazado_673550" data-name="Trazado 673550" d="M361.83,1176.523l-13.946.875-.073-.064-.025-.39.064-.072L361.8,1176l.073.065.024.39Z" transform="translate(-347.786 -1175.996)" fill="#bdd1f9"/>
        </g>
        <g id="Grupo_1004642" data-name="Grupo 1004642" transform="translate(2.474 27.504)">
          <path id="Trazado_673551" data-name="Trazado 673551" d="M366.965,1172.162l-19.317,1.212-.073-.065-.025-.389.065-.073,19.317-1.212.072.064.025.39Z" transform="translate(-347.55 -1171.635)" fill="#bdd1f9"/>
        </g>
      </g>
      <g id="Grupo_1004644" data-name="Grupo 1004644" transform="translate(7.806)">
        <path id="Trazado_673552" data-name="Trazado 673552" d="M367.443,1105.137l-17.185.958a1.986,1.986,0,0,0-1.946,2.02l.145,2.6a.458.458,0,0,0,.5.414l20.34-1.133a.459.459,0,0,0,.45-.467l-.145-2.6A1.985,1.985,0,0,0,367.443,1105.137Z" transform="translate(-348.309 -1105.134)" fill="#ff8c64"/>
      </g>
    </g>
    <g id="Grupo_1004670" data-name="Grupo 1004670" transform="translate(254.875 1057.316)">
      <g id="Grupo_1004646" data-name="Grupo 1004646" transform="translate(39.475 21.84)">
        <path id="Trazado_673553" data-name="Trazado 673553" d="M435.822,1140.417s-.357-.8-.589-1.183-1.22-1.5-1.388-1.243-.841,1.951-.483,2.426-.023,1.3,1.755,1.8Z" transform="translate(-433.259 -1137.954)" fill="#ffb27d"/>
      </g>
      <g id="Grupo_1004647" data-name="Grupo 1004647" transform="translate(41.095 19.231)">
        <path id="Trazado_673554" data-name="Trazado 673554" d="M456.849,1133.3s-9.1,7.6-12.649,6.893c-2.775-.55-7.162-1.941-7.162-1.941a2.8,2.8,0,0,0-.83,2.421s5.589,5.259,9.571,5.293c6.224.053,9.16-3.084,9.16-3.084Z" transform="translate(-436.149 -1133.3)" fill="#ed7d2b"/>
      </g>
      <g id="Grupo_1004648" data-name="Grupo 1004648" transform="translate(67.287 97.991)">
        <path id="Trazado_673555" data-name="Trazado 673555" d="M493.341,1275.17s-.264,4.262-1.089,4.323c-.109.008-4.182.008-4.182.008l-5.2-.03a1.687,1.687,0,0,1,1.554-1.517c1.519-.265,4.063-1.333,4.984-3.341C490.378,1272.5,493.341,1275.17,493.341,1275.17Z" transform="translate(-482.872 -1273.8)" fill="#113c68"/>
      </g>
      <g id="Grupo_1004649" data-name="Grupo 1004649" transform="translate(60.419 47.042)">
        <path id="Trazado_673556" data-name="Trazado 673556" d="M488.258,1235.528a10.838,10.838,0,0,1-2.814.529,10.346,10.346,0,0,1-2.627-.375,71.972,71.972,0,0,0-1.935-9.217c-.859-3.323-2.084-7.6-3.828-12.9-4.822-14.672-6.289-23.256-6.422-24.069l-.01-.064.016-.007,14.825-6.509s-1.833,20.222.506,27.984a32.718,32.718,0,0,1,.848,3.718C488.292,1223.045,488.258,1235.528,488.258,1235.528Z" transform="translate(-470.621 -1182.912)" fill="#2a4e96"/>
      </g>
      <g id="Grupo_1004650" data-name="Grupo 1004650" transform="translate(60.43 47.042)">
        <path id="Trazado_673557" data-name="Trazado 673557" d="M480.89,1226.465c-.859-3.323-2.084-7.6-3.828-12.9-4.822-14.672-6.289-23.256-6.422-24.069,0-.024,0-.047.006-.071l14.825-6.509s-1.833,20.222.506,27.984C486.3,1211.98,480.89,1226.465,480.89,1226.465Z" transform="translate(-470.639 -1182.912)" fill="#233862"/>
      </g>
      <g id="Grupo_1004651" data-name="Grupo 1004651" transform="translate(55.708 97.991)">
        <path id="Trazado_673558" data-name="Trazado 673558" d="M472.686,1275.17s-.265,4.262-1.089,4.323c-.11.008-4.182.008-4.182.008l-5.2-.03a1.687,1.687,0,0,1,1.553-1.517c1.52-.265,4.063-1.333,4.984-3.341C469.723,1272.5,472.686,1275.17,472.686,1275.17Z" transform="translate(-462.217 -1273.8)" fill="#15447c"/>
      </g>
      <g id="Grupo_1004652" data-name="Grupo 1004652" transform="translate(57.768 47.518)">
        <path id="Trazado_673559" data-name="Trazado 673559" d="M465.9,1183.762a211.106,211.106,0,0,0,2.075,29.194c2.267,16.089,1.5,22.919,1.5,22.919a15.436,15.436,0,0,0,2.186.556,9.92,9.92,0,0,0,3.243-.375s3.246-16.1,2.315-24.148,4.444-27.634,4.444-27.634Z" transform="translate(-465.892 -1183.762)" fill="#2a4e96"/>
      </g>
      <g id="Grupo_1004653" data-name="Grupo 1004653" transform="translate(62.138 10.375)">
        <path id="Trazado_673560" data-name="Trazado 673560" d="M479.833,1123.981l-2.894,1.9-2.636-.745a6.3,6.3,0,0,1-.617-3.16,19.719,19.719,0,0,1,.1-2.1l3.9-1.723,1.457-.643c0,.023-.113,1.2-.129,1.368A9.97,9.97,0,0,0,479.833,1123.981Z" transform="translate(-473.686 -1117.503)" fill="#ffb27d"/>
      </g>
      <g id="Grupo_1004654" data-name="Grupo 1004654" transform="translate(57.646 15.754)">
        <path id="Trazado_673561" data-name="Trazado 673561" d="M465.734,1162.505c3.6,3.478,17.233,2.893,18.073-.939s-.917-32.618-7.069-34.426c-1.277-.375-8.1,1.831-8.1,1.831a43.262,43.262,0,0,0-1.774,6.369c-.136.695-.534,8.05-.832,14.933-.139,3.219-.257,6.334-.317,8.615A24.731,24.731,0,0,0,465.734,1162.505Z" transform="translate(-465.674 -1127.097)" fill="#f99746"/>
      </g>
      <g id="Grupo_1004655" data-name="Grupo 1004655" transform="translate(62.138 11.017)">
        <path id="Trazado_673562" data-name="Trazado 673562" d="M478.73,1119.428c-.792,1.339-3.571,2.511-5.043,3.048a19.719,19.719,0,0,1,.1-2.1l3.9-1.723C478.558,1118.637,479.083,1118.83,478.73,1119.428Z" transform="translate(-473.686 -1118.648)" fill="#fca56b"/>
      </g>
      <g id="Grupo_1004656" data-name="Grupo 1004656" transform="translate(59.983 2.149)">
        <path id="Trazado_673563" data-name="Trazado 673563" d="M470.628,1113.182s6.291,1.963,7.452-1.974,2.756-6.334-1.211-7.753-5.194-.149-5.9,1.071S469.022,1112.571,470.628,1113.182Z" transform="translate(-469.842 -1102.829)" fill="#ffb27d"/>
      </g>
      <g id="Grupo_1004657" data-name="Grupo 1004657" transform="translate(60.764)">
        <path id="Trazado_673564" data-name="Trazado 673564" d="M471.827,1102.461s.4,4.581,1.348,4.382,1.99-.625,1.852.757.921,3.748,2.287,3.742c2.93-.012,6.112-7.529,5.31-8.955C480.311,1098.274,468.482,1097.444,471.827,1102.461Z" transform="translate(-471.236 -1098.995)" fill="#163560"/>
      </g>
      <g id="Grupo_1004658" data-name="Grupo 1004658" transform="translate(60.608 13.965)">
        <path id="Trazado_673565" data-name="Trazado 673565" d="M472.63,1125.837c.081-.034,4.683-2.1,5.221-1.921s1.209,1.821,1.209,1.821l-8.1,1.832A4.027,4.027,0,0,1,472.63,1125.837Z" transform="translate(-470.957 -1123.906)" fill="#ed7d2b"/>
      </g>
      <g id="Grupo_1004664" data-name="Grupo 1004664" transform="translate(0 2.901)">
        <g id="Grupo_1004659" data-name="Grupo 1004659" transform="translate(33.085 32.822)">
          <path id="Trazado_673566" data-name="Trazado 673566" d="M422.405,1165.186l25.8,24.288c.506.476,1.143.628,1.417.337l.871-.925c.274-.291.084-.918-.422-1.394l-25.8-24.287c-.506-.476-1.144-.628-1.417-.337l-.871.925C421.71,1164.083,421.9,1164.71,422.405,1165.186Z" transform="translate(-421.858 -1162.72)" fill="#1f4d84"/>
        </g>
        <g id="Grupo_1004660" data-name="Grupo 1004660" transform="translate(48.108 46.936)">
          <path id="Trazado_673567" data-name="Trazado 673567" d="M448.658,1189.88l11.32,10.658c.506.476,1.143.628,1.417.337l.871-.925c.274-.291.084-.918-.422-1.394l-11.32-10.658Z" transform="translate(-448.658 -1187.898)" fill="#739af0"/>
        </g>
        <g id="Grupo_1004661" data-name="Grupo 1004661">
          <path id="Trazado_673568" data-name="Trazado 673568" d="M397.783,1110.533a20.216,20.216,0,0,0-28.578-.87c-.108.1-.214.2-.317.306a20.22,20.22,0,1,0,28.9.564Zm-1.964,27.419a18.624,18.624,0,1,1,.8-26.325A18.6,18.6,0,0,1,395.819,1137.952Z" transform="translate(-362.84 -1104.169)" fill="#1f4d84"/>
        </g>
        <g id="Grupo_1004663" data-name="Grupo 1004663" transform="translate(1.597 1.596)" opacity="0.5">
          <g id="Grupo_1004662" data-name="Grupo 1004662">
            <path id="Trazado_673569" data-name="Trazado 673569" d="M370.746,1138.4a18.624,18.624,0,1,0,.8-26.324A18.55,18.55,0,0,0,370.746,1138.4Z" transform="translate(-365.688 -1107.017)" fill="#b3cff9"/>
          </g>
        </g>
      </g>
      <g id="Grupo_1004665" data-name="Grupo 1004665" transform="translate(57.686 23.901)">
        <path id="Trazado_673570" data-name="Trazado 673570" d="M465.745,1165.275c14.214-10.128,13.032-23.644,13.032-23.644-5.2,2.93-10.35,9.409-12.716,15.028C465.923,1159.878,465.8,1162.994,465.745,1165.275Z" transform="translate(-465.745 -1141.631)" fill="#ed7d2b"/>
      </g>
      <g id="Grupo_1004668" data-name="Grupo 1004668" transform="translate(39.574 17.629)">
        <g id="Grupo_1004666" data-name="Grupo 1004666" transform="translate(0 24.182)">
          <path id="Trazado_673571" data-name="Trazado 673571" d="M437.518,1174.7a3.876,3.876,0,0,1-1.815-1.122s-.428.03.07.941c.041.076.134.272.2.411a.089.089,0,0,1-.075.127,9.454,9.454,0,0,0-2.274.047c-.154.032-.2.4-.193.558a1.421,1.421,0,0,0,.3.97,4.966,4.966,0,0,0,1.8.941,5.436,5.436,0,0,0,2.779-.349l.91-.422-.283-1.691-.229.048C438.347,1175.238,437.9,1174.795,437.518,1174.7Z" transform="translate(-433.435 -1173.58)" fill="#ffb27d"/>
        </g>
        <g id="Grupo_1004667" data-name="Grupo 1004667" transform="translate(5.125)">
          <path id="Trazado_673572" data-name="Trazado 673572" d="M464.185,1130.442s12.772,2.432-3.758,20.927c-2.643,2.958-16.925,6.809-16.925,6.809s-1.449-1.233-.719-2.231c0,0,9.834-7.141,12-8.276.974-.511,3.778-11.4,5.365-14.02A7.153,7.153,0,0,1,464.185,1130.442Z" transform="translate(-442.578 -1130.442)" fill="#f99746"/>
        </g>
      </g>
      <g id="Grupo_1004669" data-name="Grupo 1004669" transform="translate(39.96 21.415)">
        <path id="Trazado_673573" data-name="Trazado 673573" d="M435.855,1140.309a6.536,6.536,0,0,1-.5-1.22,6.746,6.746,0,0,0-.824-1.865c-.087-.086-.373.026-.406.4a2.145,2.145,0,0,0,.205.808,9.15,9.15,0,0,1,.27,1.605C434.8,1140.678,435.855,1140.309,435.855,1140.309Z" transform="translate(-434.124 -1137.196)" fill="#ffb27d"/>
      </g>
    </g>
  </g>
</svg>
