<svg xmlns="http://www.w3.org/2000/svg" width="400" height="413" viewBox="0 0 400 413">
  <g id="Grupo_986481" data-name="Grupo 986481" transform="translate(-810 -7930.481)">
    <rect id="Rectángulo_306538" data-name="Rectángulo 306538" width="400" height="405" transform="translate(810 7938.481)" fill="none"/>
    <g id="Grupo_986482" data-name="Grupo 986482" transform="translate(810 7930.481)">
      <g id="Grupo_986268" data-name="Grupo 986268" transform="translate(0 0)">
        <g id="Grupo_985994" data-name="Grupo 985994" transform="translate(113.948 199.911)">
          <g id="Grupo_985993" data-name="Grupo 985993">
            <g id="Grupo_985992" data-name="Grupo 985992">
              <g id="Grupo_985991" data-name="Grupo 985991">
                <g id="Grupo_985990" data-name="Grupo 985990">
                  <g id="Grupo_985989" data-name="Grupo 985989">
                    <g id="Grupo_985988" data-name="Grupo 985988">
                      <path id="Trazado_658757" data-name="Trazado 658757" d="M340.384,3125.122l-101.151-.975L208.579,3124l-8.334.02-2.168.03a4.447,4.447,0,0,0-.738.041,4.738,4.738,0,0,0,.738.047l2.168.052,8.333.105,30.654.167,101.155.064c39.48,0,75.232.048,101.113.239,12.941.094,23.414.217,30.652.357,3.618.07,6.429.144,8.333.217a1.461,1.461,0,1,1,0,.411c-1.906.055-4.716.1-8.336.132-7.239.065-17.712.082-30.654.042C415.612,3125.847,379.862,3125.531,340.384,3125.122Z" transform="translate(-197.339 -3123.998)" fill="#ebebeb"/>
                    </g>
                  </g>
                </g>
              </g>
            </g>
          </g>
        </g>
        <g id="Grupo_986001" data-name="Grupo 986001" transform="translate(115.059 186.664)">
          <g id="Grupo_986000" data-name="Grupo 986000">
            <g id="Grupo_985999" data-name="Grupo 985999">
              <g id="Grupo_985998" data-name="Grupo 985998">
                <g id="Grupo_985997" data-name="Grupo 985997">
                  <g id="Grupo_985996" data-name="Grupo 985996">
                    <g id="Grupo_985995" data-name="Grupo 985995">
                      <path id="Trazado_658758" data-name="Trazado 658758" d="M339.836,3131.7l-99.769-16.724-30.259-4.918-8.236-1.276-2.146-.306a.371.371,0,1,0-.015.091l2.132.389,8.217,1.405,30.254,4.94,99.918,15.809c39,6.14,74.312,11.755,99.85,15.975,12.769,2.108,23.1,3.862,30.223,5.128,3.564.633,6.328,1.144,8.2,1.515a1.461,1.461,0,1,1-.067.413c-1.891-.242-4.675-.635-8.255-1.166-7.161-1.061-17.511-2.676-30.288-4.73C414.036,3144.136,378.77,3138.254,339.836,3131.7Z" transform="translate(-198.689 -3108.393)" fill="#ebebeb"/>
                    </g>
                  </g>
                </g>
              </g>
            </g>
          </g>
        </g>
        <g id="Grupo_986008" data-name="Grupo 986008" transform="translate(118.308 173.377)">
          <g id="Grupo_986007" data-name="Grupo 986007">
            <g id="Grupo_986006" data-name="Grupo 986006">
              <g id="Grupo_986005" data-name="Grupo 986005">
                <g id="Grupo_986004" data-name="Grupo 986004">
                  <g id="Grupo_986003" data-name="Grupo 986003">
                    <g id="Grupo_986002" data-name="Grupo 986002">
                      <path id="Trazado_658759" data-name="Trazado 658759" d="M338.359,3138.03l-95.895-32.267-29.108-9.633-7.934-2.558-2.071-.641a4.348,4.348,0,0,0-.715-.188,4.374,4.374,0,0,0,.687.277l2.044.722,7.892,2.685,29.1,9.654,96.189,31.377c37.551,12.216,71.538,23.333,96.093,31.531,12.279,4.1,22.2,7.459,29.041,9.836,3.42,1.189,6.069,2.13,7.857,2.792a14.86,14.86,0,0,1,2.694,1.115,14.912,14.912,0,0,1-2.825-.714c-1.83-.537-4.517-1.363-7.97-2.452-6.906-2.177-16.872-5.4-29.168-9.45C409.677,3162.029,375.776,3150.652,338.359,3138.03Z" transform="translate(-202.635 -3092.74)" fill="#ebebeb"/>
                    </g>
                  </g>
                </g>
              </g>
            </g>
          </g>
        </g>
        <g id="Grupo_986015" data-name="Grupo 986015" transform="translate(123.596 160.781)">
          <g id="Grupo_986014" data-name="Grupo 986014">
            <g id="Grupo_986013" data-name="Grupo 986013">
              <g id="Grupo_986012" data-name="Grupo 986012">
                <g id="Grupo_986011" data-name="Grupo 986011">
                  <g id="Grupo_986010" data-name="Grupo 986010">
                    <g id="Grupo_986009" data-name="Grupo 986009">
                      <path id="Trazado_658760" data-name="Trazado 658760" d="M335.984,3144.024l-89.638-46.979-27.233-14.1-7.432-3.779-1.944-.961a4.476,4.476,0,0,0-.678-.3,4.492,4.492,0,0,0,.636.381l1.906,1.035,7.373,3.895,27.223,14.123,90.06,46.161c35.163,17.989,66.981,34.33,89.944,46.3,11.482,5.982,20.753,10.865,27.135,14.29,3.191,1.712,5.66,3.06,7.323,3.994a15.117,15.117,0,0,1,2.486,1.522,15.107,15.107,0,0,1-2.676-1.154c-1.722-.82-4.246-2.061-7.484-3.681-6.477-3.24-15.812-8-27.319-13.935C402.649,3178.967,370.955,3162.387,335.984,3144.024Z" transform="translate(-209.059 -3077.902)" fill="#ebebeb"/>
                    </g>
                  </g>
                </g>
              </g>
            </g>
          </g>
        </g>
        <g id="Grupo_986022" data-name="Grupo 986022" transform="translate(130.713 149.297)">
          <g id="Grupo_986021" data-name="Grupo 986021">
            <g id="Grupo_986020" data-name="Grupo 986020">
              <g id="Grupo_986019" data-name="Grupo 986019">
                <g id="Grupo_986018" data-name="Grupo 986018">
                  <g id="Grupo_986017" data-name="Grupo 986017">
                    <g id="Grupo_986016" data-name="Grupo 986016">
                      <path id="Trazado_658761" data-name="Trazado 658761" d="M332.754,3149.567l-81.208-60.444-24.7-18.2-6.752-4.9-1.77-1.254a4.306,4.306,0,0,0-.622-.4,4.689,4.689,0,0,0,.568.475l1.721,1.321,6.676,5,24.685,18.214,81.754,59.7c31.926,23.276,60.8,44.4,81.617,59.817,10.408,7.707,18.8,13.983,24.572,18.366,2.885,2.191,5.113,3.908,6.61,5.092a15.182,15.182,0,0,1,2.219,1.893,15.107,15.107,0,0,1-2.465-1.558c-1.573-1.079-3.872-2.7-6.818-4.808-5.892-4.215-14.369-10.378-24.81-18.042C393.15,3194.523,364.431,3173.183,332.754,3149.567Z" transform="translate(-217.704 -3064.373)" fill="#ebebeb"/>
                    </g>
                  </g>
                </g>
              </g>
            </g>
          </g>
        </g>
        <g id="Grupo_986029" data-name="Grupo 986029" transform="translate(139.456 139.15)">
          <g id="Grupo_986028" data-name="Grupo 986028">
            <g id="Grupo_986027" data-name="Grupo 986027">
              <g id="Grupo_986026" data-name="Grupo 986026">
                <g id="Grupo_986025" data-name="Grupo 986025">
                  <g id="Grupo_986024" data-name="Grupo 986024">
                    <g id="Grupo_986023" data-name="Grupo 986023">
                      <path id="Trazado_658762" data-name="Trazado 658762" d="M328.754,3154.51l-70.84-72.366-21.573-21.825c-2.553-2.544-4.538-4.524-5.909-5.891l-1.555-1.514a4.561,4.561,0,0,0-.552-.494,4.5,4.5,0,0,0,.487.559l1.5,1.572,5.818,5.981c5.11,5.177,12.469,12.631,21.559,21.839,18.312,18.371,43.575,43.714,71.493,71.719,27.924,27.969,53.171,53.337,71.339,71.813,9.085,9.235,16.4,16.744,21.424,21.971,2.509,2.615,4.445,4.658,5.739,6.06a15.1,15.1,0,0,1,1.9,2.216,15.185,15.185,0,0,1-2.191-1.924c-1.387-1.312-3.406-3.271-5.989-5.812-5.166-5.082-12.585-12.492-21.708-21.69C381.438,3208.331,356.38,3182.775,328.754,3154.51Z" transform="translate(-228.324 -3052.419)" fill="#ebebeb"/>
                    </g>
                  </g>
                </g>
              </g>
            </g>
          </g>
        </g>
        <g id="Grupo_986036" data-name="Grupo 986036" transform="translate(149.67 130.489)">
          <g id="Grupo_986035" data-name="Grupo 986035">
            <g id="Grupo_986034" data-name="Grupo 986034">
              <g id="Grupo_986033" data-name="Grupo 986033">
                <g id="Grupo_986032" data-name="Grupo 986032">
                  <g id="Grupo_986031" data-name="Grupo 986031">
                    <g id="Grupo_986030" data-name="Grupo 986030">
                      <path id="Trazado_658763" data-name="Trazado 658763" d="M324.094,3158.719l-58.745-82.529-17.924-24.922-4.923-6.739-1.3-1.738a4.624,4.624,0,0,0-.468-.574,4.407,4.407,0,0,0,.394.627l1.233,1.787,4.818,6.815,17.908,24.935c15.238,21,36.26,49.974,59.492,81.989,23.244,31.982,44.247,60.977,59.326,82.058,7.542,10.54,13.606,19.1,17.752,25.044,2.074,2.974,3.668,5.294,4.729,6.881a15.161,15.161,0,0,1,1.53,2.485,15.2,15.2,0,0,1-1.867-2.242c-1.166-1.511-2.857-3.762-5.014-6.675-4.314-5.826-10.492-14.3-18.077-24.809C367.783,3220.1,347,3190.947,324.094,3158.719Z" transform="translate(-240.732 -3042.217)" fill="#ebebeb"/>
                    </g>
                  </g>
                </g>
              </g>
            </g>
          </g>
        </g>
        <g id="Grupo_986043" data-name="Grupo 986043" transform="translate(161.207 123.469)">
          <g id="Grupo_986042" data-name="Grupo 986042">
            <g id="Grupo_986041" data-name="Grupo 986041">
              <g id="Grupo_986040" data-name="Grupo 986040">
                <g id="Grupo_986039" data-name="Grupo 986039">
                  <g id="Grupo_986038" data-name="Grupo 986038">
                    <g id="Grupo_986037" data-name="Grupo 986037">
                      <path id="Trazado_658764" data-name="Trazado 658764" d="M318.908,3162.079l-45.145-90.719c-5.826-11.564-10.541-20.924-13.817-27.424l-3.811-7.429c-.436-.827-.773-1.463-1.013-1.92a4.578,4.578,0,0,0-.374-.64,4.362,4.362,0,0,0,.291.682l.938,1.958,3.7,7.487,13.8,27.434,45.971,90.3c17.97,35.23,34.192,67.159,45.8,90.343,5.8,11.592,10.459,21,13.626,27.519,1.584,3.261,2.8,5.8,3.6,7.537a15.2,15.2,0,0,1,1.123,2.7,15.092,15.092,0,0,1-1.495-2.507c-.917-1.676-2.236-4.163-3.912-7.378-3.353-6.43-8.133-15.77-13.985-27.336C352.482,3229.55,336.5,3197.5,318.908,3162.079Z" transform="translate(-254.746 -3033.946)" fill="#ebebeb"/>
                    </g>
                  </g>
                </g>
              </g>
            </g>
          </g>
        </g>
        <g id="Grupo_986050" data-name="Grupo 986050" transform="translate(173.83 118.296)">
          <g id="Grupo_986049" data-name="Grupo 986049">
            <g id="Grupo_986048" data-name="Grupo 986048">
              <g id="Grupo_986047" data-name="Grupo 986047">
                <g id="Grupo_986046" data-name="Grupo 986046">
                  <g id="Grupo_986045" data-name="Grupo 986045">
                    <g id="Grupo_986044" data-name="Grupo 986044">
                      <path id="Trazado_658765" data-name="Trazado 658765" d="M313.327,3164.506c-11.846-37.764-22.568-71.938-30.338-96.709l-9.339-29.26c-1.123-3.428-2-6.095-2.6-7.937-.3-.886-.533-1.567-.7-2.056a4.47,4.47,0,0,0-.268-.691,4.449,4.449,0,0,0,.18.72l.619,2.081c.575,1.852,1.405,4.532,2.474,7.977,2.209,6.937,5.388,16.927,9.316,29.268,8,24.7,19.032,58.772,31.225,96.425,12.216,37.625,23.225,71.713,31.045,96.439,3.913,12.362,7.033,22.382,9.136,29.324,1.052,3.471,1.85,6.172,2.368,8.011a15.115,15.115,0,0,1,.685,2.838,15.06,15.06,0,0,1-1.083-2.71c-.642-1.8-1.555-4.464-2.706-7.9-2.3-6.878-5.556-16.855-9.52-29.2C335.889,3236.431,325.139,3202.26,313.327,3164.506Z" transform="translate(-270.079 -3027.853)" fill="#ebebeb"/>
                    </g>
                  </g>
                </g>
              </g>
            </g>
          </g>
        </g>
        <g id="Grupo_986057" data-name="Grupo 986057" transform="translate(187.104 115.177)">
          <g id="Grupo_986056" data-name="Grupo 986056">
            <g id="Grupo_986055" data-name="Grupo 986055">
              <g id="Grupo_986054" data-name="Grupo 986054">
                <g id="Grupo_986053" data-name="Grupo 986053">
                  <g id="Grupo_986052" data-name="Grupo 986052">
                    <g id="Grupo_986051" data-name="Grupo 986051">
                      <path id="Trazado_658766" data-name="Trazado 658766" d="M307.461,3165.948c-5.771-39.161-10.993-74.6-14.779-100.287-1.952-12.805-3.532-23.171-4.628-30.369-.57-3.562-1.014-6.333-1.32-8.247-.159-.922-.281-1.632-.369-2.141a4.416,4.416,0,0,0-.156-.725,4.62,4.62,0,0,0,.066.739c.068.512.162,1.227.285,2.154.277,1.918.677,4.7,1.191,8.267,1.092,7.2,2.664,17.566,4.607,30.372,4.02,25.652,9.566,61.042,15.694,100.148,6.156,39.083,11.674,74.482,15.515,100.134,1.923,12.825,3.431,23.212,4.418,30.4.494,3.593.859,6.387,1.081,8.284a15.169,15.169,0,0,1,.232,2.911,15.089,15.089,0,0,1-.644-2.848c-.352-1.878-.834-4.654-1.43-8.231-1.194-7.156-2.84-17.521-4.816-30.339C318.452,3240.536,313.2,3205.094,307.461,3165.948Z" transform="translate(-286.205 -3024.179)" fill="#ebebeb"/>
                    </g>
                  </g>
                </g>
              </g>
            </g>
          </g>
        </g>
        <g id="Grupo_986064" data-name="Grupo 986064" transform="translate(198.69 114.197)">
          <g id="Grupo_986063" data-name="Grupo 986063">
            <g id="Grupo_986062" data-name="Grupo 986062">
              <g id="Grupo_986061" data-name="Grupo 986061">
                <g id="Grupo_986060" data-name="Grupo 986060">
                  <g id="Grupo_986059" data-name="Grupo 986059">
                    <g id="Grupo_986058" data-name="Grupo 986058">
                      <path id="Trazado_658767" data-name="Trazado 658767" d="M301.027,3166.381c.356-39.584.677-75.407.911-101.371.054-12.953.1-23.439.129-30.721-.011-3.608-.019-6.414-.025-8.353-.013-.936-.023-1.656-.03-2.173a4.557,4.557,0,0,0-.041-.74,4.79,4.79,0,0,0-.048.74c-.012.516-.028,1.236-.05,2.173-.023,1.938-.057,4.744-.1,8.351-.035,7.282-.086,17.768-.147,30.721,0,25.966,0,61.79,0,101.376.029,39.566,0,75.4-.177,101.334-.085,12.969-.2,23.464-.337,30.718-.068,3.627-.139,6.443-.212,8.352a15.364,15.364,0,0,1-.218,2.912,15.456,15.456,0,0,1-.192-2.914c-.056-1.91-.1-4.726-.137-8.354-.069-7.254-.091-17.751-.06-30.72C300.35,3241.774,300.643,3205.946,301.027,3166.381Z" transform="translate(-300.278 -3023.024)" fill="#ebebeb"/>
                    </g>
                  </g>
                </g>
              </g>
            </g>
          </g>
        </g>
        <g id="Grupo_986071" data-name="Grupo 986071" transform="translate(167.939 115.302)">
          <g id="Grupo_986070" data-name="Grupo 986070">
            <g id="Grupo_986069" data-name="Grupo 986069">
              <g id="Grupo_986068" data-name="Grupo 986068">
                <g id="Grupo_986067" data-name="Grupo 986067">
                  <g id="Grupo_986066" data-name="Grupo 986066">
                    <g id="Grupo_986065" data-name="Grupo 986065">
                      <path id="Trazado_658768" data-name="Trazado 658768" d="M285.511,3165.8c6.492-39.048,12.367-74.384,16.625-100,2.061-12.787,3.73-23.138,4.888-30.327.548-3.566.974-6.34,1.269-8.256.131-.926.232-1.639.3-2.15a4.417,4.417,0,0,0,.072-.739,4.526,4.526,0,0,0-.163.723c-.092.509-.221,1.217-.389,2.137-.323,1.911-.793,4.678-1.4,8.235l-4.911,30.323c-4.025,25.652-9.577,61.04-15.711,100.146-6.1,39.091-11.683,74.481-15.878,100.077-2.1,12.8-3.839,23.149-5.1,30.293-.629,3.572-1.138,6.343-1.506,8.217a15.077,15.077,0,0,1-.67,2.842,15.052,15.052,0,0,1,.258-2.908c.24-1.9.631-4.686,1.157-8.275,1.055-7.177,2.659-17.55,4.7-30.357C273.144,3240.165,278.992,3204.818,285.511,3165.8Z" transform="translate(-262.924 -3024.326)" fill="#ebebeb"/>
                    </g>
                  </g>
                </g>
              </g>
            </g>
          </g>
        </g>
        <g id="Grupo_986078" data-name="Grupo 986078" transform="translate(137.315 118.55)">
          <g id="Grupo_986077" data-name="Grupo 986077">
            <g id="Grupo_986076" data-name="Grupo 986076">
              <g id="Grupo_986075" data-name="Grupo 986075">
                <g id="Grupo_986074" data-name="Grupo 986074">
                  <g id="Grupo_986073" data-name="Grupo 986073">
                    <g id="Grupo_986072" data-name="Grupo 986072">
                      <path id="Trazado_658769" data-name="Trazado 658769" d="M270.254,3164.2c12.548-37.535,23.9-71.5,32.135-96.123l9.593-29.178,2.548-7.952.639-2.076a4.469,4.469,0,0,0,.187-.717,4.351,4.351,0,0,0-.275.688c-.172.488-.41,1.167-.72,2.05l-2.674,7.911-9.615,29.171c-8,24.7-19.046,58.768-31.247,96.417-12.166,37.641-23.237,71.71-31.4,96.324-4.08,12.308-7.429,22.253-9.8,29.11-1.183,3.428-2.121,6.083-2.781,7.876a14.972,14.972,0,0,1-1.111,2.7,15,15,0,0,1,.71-2.832c.535-1.834,1.357-4.528,2.442-7.989,2.168-6.921,5.382-16.912,9.411-29.237C246.351,3235.689,257.681,3201.707,270.254,3164.2Z" transform="translate(-225.723 -3028.152)" fill="#ebebeb"/>
                    </g>
                  </g>
                </g>
              </g>
            </g>
          </g>
        </g>
        <g id="Grupo_986085" data-name="Grupo 986085" transform="translate(108.264 123.841)">
          <g id="Grupo_986084" data-name="Grupo 986084">
            <g id="Grupo_986083" data-name="Grupo 986083">
              <g id="Grupo_986082" data-name="Grupo 986082">
                <g id="Grupo_986081" data-name="Grupo 986081">
                  <g id="Grupo_986080" data-name="Grupo 986080">
                    <g id="Grupo_986079" data-name="Grupo 986079">
                      <path id="Trazado_658770" data-name="Trazado 658770" d="M255.793,3161.629l46.821-89.863,14.055-27.3,3.766-7.451.957-1.949a4.561,4.561,0,0,0,.3-.679,4.537,4.537,0,0,0-.38.637l-1.031,1.911-3.882,7.392-14.075,27.291c-11.783,23.126-28.04,55.03-46,90.286-17.928,35.251-34.212,67.148-46.139,90.168-5.962,11.511-10.829,20.8-14.242,27.2-1.707,3.2-3.048,5.675-3.981,7.341a15.206,15.206,0,0,1-1.516,2.493,15.169,15.169,0,0,1,1.149-2.683c.817-1.726,2.053-4.256,3.668-7.5,3.229-6.493,7.973-15.852,13.887-27.387C220.969,3228.461,237.492,3196.687,255.793,3161.629Z" transform="translate(-190.434 -3034.385)" fill="#ebebeb"/>
                    </g>
                  </g>
                </g>
              </g>
            </g>
          </g>
        </g>
        <g id="Grupo_986092" data-name="Grupo 986092" transform="translate(81.614 130.967)">
          <g id="Grupo_986091" data-name="Grupo 986091">
            <g id="Grupo_986090" data-name="Grupo 986090">
              <g id="Grupo_986089" data-name="Grupo 986089">
                <g id="Grupo_986088" data-name="Grupo 986088">
                  <g id="Grupo_986087" data-name="Grupo 986087">
                    <g id="Grupo_986086" data-name="Grupo 986086">
                      <path id="Trazado_658771" data-name="Trazado 658771" d="M242.5,3158.134l60.262-81.422c7.649-10.442,13.841-18.895,18.141-24.764l4.883-6.769,1.25-1.775a4.492,4.492,0,0,0,.4-.624,4.653,4.653,0,0,0-.474.569l-1.317,1.726-4.986,6.693L302.5,3076.519l-59.521,81.969c-23.206,32.01-44.266,60.963-59.637,81.832-7.683,10.435-13.941,18.853-18.31,24.637-2.185,2.893-3.9,5.127-5.077,6.627a15.232,15.232,0,0,1-1.888,2.225,15.088,15.088,0,0,1,1.553-2.471c1.076-1.577,2.692-3.882,4.793-6.836,4.2-5.907,10.347-14.408,17.987-24.875C197.677,3218.689,218.952,3189.894,242.5,3158.134Z" transform="translate(-158.062 -3042.78)" fill="#ebebeb"/>
                    </g>
                  </g>
                </g>
              </g>
            </g>
          </g>
        </g>
        <g id="Grupo_986099" data-name="Grupo 986099" transform="translate(57.952 139.724)">
          <g id="Grupo_986098" data-name="Grupo 986098">
            <g id="Grupo_986097" data-name="Grupo 986097">
              <g id="Grupo_986096" data-name="Grupo 986096">
                <g id="Grupo_986095" data-name="Grupo 986095">
                  <g id="Grupo_986094" data-name="Grupo 986094">
                    <g id="Grupo_986093" data-name="Grupo 986093">
                      <path id="Trazado_658772" data-name="Trazado 658772" d="M230.677,3153.807c28.179-27.74,53.68-52.843,72.165-71.039l21.763-21.635,5.875-5.926,1.51-1.558a4.508,4.508,0,0,0,.492-.553,4.512,4.512,0,0,0-.557.488l-1.568,1.5-5.964,5.834-21.778,21.62L231.1,3154.231c-27.892,28-53.189,53.321-71.612,71.539-9.209,9.111-16.7,16.45-21.911,21.484-2.606,2.517-4.645,4.457-6.043,5.755a15.279,15.279,0,0,1-2.21,1.9,15.067,15.067,0,0,1,1.918-2.2c1.307-1.39,3.262-3.416,5.8-6.006,5.068-5.181,12.457-12.619,21.629-21.769C177.006,3206.639,202.49,3181.51,230.677,3153.807Z" transform="translate(-129.319 -3053.095)" fill="#ebebeb"/>
                    </g>
                  </g>
                </g>
              </g>
            </g>
          </g>
        </g>
        <g id="Grupo_986106" data-name="Grupo 986106" transform="translate(37.752 149.954)">
          <g id="Grupo_986105" data-name="Grupo 986105">
            <g id="Grupo_986104" data-name="Grupo 986104">
              <g id="Grupo_986103" data-name="Grupo 986103">
                <g id="Grupo_986102" data-name="Grupo 986102">
                  <g id="Grupo_986101" data-name="Grupo 986101">
                    <g id="Grupo_986100" data-name="Grupo 986100">
                      <path id="Trazado_658773" data-name="Trazado 658773" d="M220.6,3148.764l82.312-58.926,24.856-17.978,6.722-4.938,1.734-1.3a4.5,4.5,0,0,0,.572-.469,4.47,4.47,0,0,0-.625.4l-1.783,1.237-6.8,4.833-24.869,17.962-81.773,59.673c-31.9,23.314-60.816,44.382-81.843,59.506-10.512,7.565-19.047,13.648-24.978,17.807-2.966,2.08-5.28,3.679-6.864,4.743a15.157,15.157,0,0,1-2.478,1.536,15.175,15.175,0,0,1,2.236-1.872c1.507-1.17,3.752-2.866,6.657-5.029,5.81-4.328,14.264-10.524,24.744-18.132C159.378,3192.586,188.453,3171.736,220.6,3148.764Z" transform="translate(-104.781 -3065.147)" fill="#ebebeb"/>
                    </g>
                  </g>
                </g>
              </g>
            </g>
          </g>
        </g>
        <g id="Grupo_986113" data-name="Grupo 986113" transform="translate(21.456 161.511)">
          <g id="Grupo_986112" data-name="Grupo 986112">
            <g id="Grupo_986111" data-name="Grupo 986111">
              <g id="Grupo_986110" data-name="Grupo 986110">
                <g id="Grupo_986109" data-name="Grupo 986109">
                  <g id="Grupo_986108" data-name="Grupo 986108">
                    <g id="Grupo_986107" data-name="Grupo 986107">
                      <path id="Trazado_658774" data-name="Trazado 658774" d="M212.493,3143.144l90.494-45.3,27.356-13.863,7.409-3.825,1.916-1.017a4.319,4.319,0,0,0,.638-.375,4.512,4.512,0,0,0-.68.293l-1.953.941-7.468,3.709-27.366,13.843-90.076,46.129c-35.143,18.031-66.991,34.309-90.119,45.953-11.562,5.825-20.942,10.5-27.45,13.674-3.254,1.589-5.789,2.805-7.519,3.608a15.009,15.009,0,0,1-2.688,1.127,15.051,15.051,0,0,1,2.5-1.5c1.671-.92,4.152-2.244,7.36-3.925,6.414-3.364,15.73-8.16,27.268-14.033C145.189,3176.833,177.161,3160.8,212.493,3143.144Z" transform="translate(-84.986 -3078.761)" fill="#ebebeb"/>
                    </g>
                  </g>
                </g>
              </g>
            </g>
          </g>
        </g>
        <g id="Grupo_986120" data-name="Grupo 986120" transform="translate(9.511 174.158)">
          <g id="Grupo_986119" data-name="Grupo 986119">
            <g id="Grupo_986118" data-name="Grupo 986118">
              <g id="Grupo_986117" data-name="Grupo 986117">
                <g id="Grupo_986116" data-name="Grupo 986116">
                  <g id="Grupo_986115" data-name="Grupo 986115">
                    <g id="Grupo_986114" data-name="Grupo 986114">
                      <path id="Trazado_658775" data-name="Trazado 658775" d="M206.583,3137.087l96.479-30.466,29.191-9.378,7.917-2.609,2.051-.7a4.553,4.553,0,0,0,.689-.27,4.352,4.352,0,0,0-.717.182l-2.077.621-7.958,2.484-29.2,9.355-96.2,31.354c-37.535,12.267-71.542,23.321-96.21,31.174-12.333,3.929-22.329,7.062-29.255,9.174-3.462,1.057-6.157,1.858-7.992,2.378a14.956,14.956,0,0,1-2.832.688,14.915,14.915,0,0,1,2.7-1.087c1.795-.645,4.453-1.562,7.884-2.717,6.862-2.312,16.815-5.579,29.131-9.558C134.827,3159.744,168.919,3148.949,206.583,3137.087Z" transform="translate(-70.476 -3093.659)" fill="#ebebeb"/>
                    </g>
                  </g>
                </g>
              </g>
            </g>
          </g>
        </g>
        <g id="Grupo_986127" data-name="Grupo 986127" transform="translate(2.302 187.46)">
          <g id="Grupo_986126" data-name="Grupo 986126">
            <g id="Grupo_986125" data-name="Grupo 986125">
              <g id="Grupo_986124" data-name="Grupo 986124">
                <g id="Grupo_986123" data-name="Grupo 986123">
                  <g id="Grupo_986122" data-name="Grupo 986122">
                    <g id="Grupo_986121" data-name="Grupo 986121">
                      <path id="Trazado_658776" data-name="Trazado 658776" d="M203.035,3130.722,303.1,3115.847l30.3-4.657,8.228-1.328,2.136-.371a4.356,4.356,0,0,0,.723-.157,4.551,4.551,0,0,0-.737.066l-2.149.286-8.248,1.2-30.3,4.635-99.92,15.792c-38.994,6.194-74.313,11.747-99.906,15.612-12.8,1.935-23.16,3.453-30.33,4.447-3.586.5-6.373.865-8.266,1.089a15.008,15.008,0,0,1-2.905.234,15.173,15.173,0,0,1,2.842-.647c1.874-.353,4.643-.838,8.212-1.438,7.139-1.2,17.482-2.857,30.27-4.845C128.617,3141.783,163.978,3136.5,203.035,3130.722Z" transform="translate(-61.718 -3109.329)" fill="#ebebeb"/>
                    </g>
                  </g>
                </g>
              </g>
            </g>
          </g>
        </g>
        <g id="Grupo_986134" data-name="Grupo 986134" transform="translate(0 199.229)">
          <g id="Grupo_986133" data-name="Grupo 986133">
            <g id="Grupo_986132" data-name="Grupo 986132">
              <g id="Grupo_986131" data-name="Grupo 986131">
                <g id="Grupo_986130" data-name="Grupo 986130">
                  <g id="Grupo_986129" data-name="Grupo 986129">
                    <g id="Grupo_986128" data-name="Grupo 986128">
                      <path id="Trazado_658777" data-name="Trazado 658777" d="M201.929,3123.876l101.152.85,30.654.11,8.334-.03,2.168-.032a4.629,4.629,0,0,0,.738-.042,4.737,4.737,0,0,0-.738-.047l-2.168-.049-8.334-.1-30.654-.128-101.154.061c-39.48.053-75.233.045-101.114-.114-12.941-.077-23.414-.188-30.652-.318-3.619-.065-6.429-.135-8.334-.207a1.46,1.46,0,1,1,0-.411c1.906-.057,4.716-.1,8.336-.142,7.239-.075,17.712-.1,30.654-.08C126.7,3123.245,162.451,3123.516,201.929,3123.876Z" transform="translate(-58.922 -3123.195)" fill="#ebebeb"/>
                    </g>
                  </g>
                </g>
              </g>
            </g>
          </g>
        </g>
        <g id="Grupo_986141" data-name="Grupo 986141" transform="translate(2.552 168.432)">
          <g id="Grupo_986140" data-name="Grupo 986140">
            <g id="Grupo_986139" data-name="Grupo 986139">
              <g id="Grupo_986138" data-name="Grupo 986138">
                <g id="Grupo_986137" data-name="Grupo 986137">
                  <g id="Grupo_986136" data-name="Grupo 986136">
                    <g id="Grupo_986135" data-name="Grupo 986135">
                      <path id="Trazado_658778" data-name="Trazado 658778" d="M203.253,3109.461l99.79,16.6,30.265,4.879,8.239,1.266,2.146.3a.37.37,0,1,0,.015-.09l-2.133-.388-8.218-1.394-30.261-4.9-99.938-15.682c-39.009-6.09-74.326-11.66-99.869-15.848-12.771-2.091-23.1-3.832-30.23-5.09-3.565-.629-6.33-1.136-8.2-1.5a15.048,15.048,0,0,1-2.836-.67,14.945,14.945,0,0,1,2.9.257c1.892.239,4.676.629,8.257,1.155,7.162,1.052,17.513,2.654,30.294,4.692C129.036,3097.115,164.311,3102.952,203.253,3109.461Z" transform="translate(-62.022 -3086.914)" fill="#ebebeb"/>
                    </g>
                  </g>
                </g>
              </g>
            </g>
          </g>
        </g>
        <g id="Grupo_986148" data-name="Grupo 986148" transform="translate(10.016 137.736)">
          <g id="Grupo_986147" data-name="Grupo 986147">
            <g id="Grupo_986146" data-name="Grupo 986146">
              <g id="Grupo_986145" data-name="Grupo 986145">
                <g id="Grupo_986144" data-name="Grupo 986144">
                  <g id="Grupo_986143" data-name="Grupo 986143">
                    <g id="Grupo_986142" data-name="Grupo 986142">
                      <path id="Trazado_658779" data-name="Trazado 658779" d="M207.019,3095.295l95.935,32.144,29.121,9.6,7.938,2.548,2.072.638a.371.371,0,1,0,.029-.088l-2.045-.719-7.9-2.675-29.113-9.618-96.228-31.253c-37.567-12.168-71.569-23.242-96.134-31.409-12.283-4.081-22.21-7.431-29.052-9.8-3.421-1.184-6.072-2.122-7.862-2.782a14.867,14.867,0,0,1-2.694-1.111,14.99,14.99,0,0,1,2.826.71c1.831.535,4.519,1.357,7.973,2.442,6.908,2.168,16.879,5.383,29.179,9.413C135.67,3071.386,169.586,3082.719,207.019,3095.295Z" transform="translate(-71.088 -3050.754)" fill="#ebebeb"/>
                    </g>
                  </g>
                </g>
              </g>
            </g>
          </g>
        </g>
        <g id="Grupo_986155" data-name="Grupo 986155" transform="translate(22.202 108.614)">
          <g id="Grupo_986154" data-name="Grupo 986154">
            <g id="Grupo_986153" data-name="Grupo 986153">
              <g id="Grupo_986152" data-name="Grupo 986152">
                <g id="Grupo_986151" data-name="Grupo 986151">
                  <g id="Grupo_986150" data-name="Grupo 986150">
                    <g id="Grupo_986149" data-name="Grupo 986149">
                      <path id="Trazado_658780" data-name="Trazado 658780" d="M213.136,3081.867l89.7,46.866,27.251,14.068,7.437,3.77,1.946.958a4.5,4.5,0,0,0,.677.3,4.567,4.567,0,0,0-.636-.38l-1.907-1.033-7.379-3.884-27.24-14.089L212.864,3082.4c-35.186-17.944-67.024-34.244-90-46.183-11.49-5.966-20.767-10.839-27.153-14.255-3.192-1.708-5.664-3.052-7.328-3.985a15.239,15.239,0,0,1-2.489-1.519,15.066,15.066,0,0,1,2.678,1.15c1.724.817,4.249,2.055,7.489,3.671,6.481,3.233,15.822,7.98,27.337,13.9C146.427,3047.01,178.142,3063.549,213.136,3081.867Z" transform="translate(-85.892 -3016.447)" fill="#ebebeb"/>
                    </g>
                  </g>
                </g>
              </g>
            </g>
          </g>
        </g>
        <g id="Grupo_986162" data-name="Grupo 986162" transform="translate(38.716 81.895)">
          <g id="Grupo_986161" data-name="Grupo 986161">
            <g id="Grupo_986160" data-name="Grupo 986160">
              <g id="Grupo_986159" data-name="Grupo 986159">
                <g id="Grupo_986158" data-name="Grupo 986158">
                  <g id="Grupo_986157" data-name="Grupo 986157">
                    <g id="Grupo_986156" data-name="Grupo 986156">
                      <path id="Trazado_658781" data-name="Trazado 658781" d="M221.43,3069.518l81.283,60.342,24.721,18.165,6.757,4.89,1.772,1.25a4.405,4.405,0,0,0,.622.4,4.485,4.485,0,0,0-.568-.475l-1.723-1.318-6.682-4.993L302.906,3129.6,221.077,3070c-31.955-23.236-60.858-44.323-81.692-59.714-10.418-7.694-18.821-13.96-24.6-18.335-2.887-2.188-5.118-3.9-6.616-5.084a15.241,15.241,0,0,1-2.22-1.891,15.08,15.08,0,0,1,2.466,1.555c1.575,1.077,3.877,2.7,6.825,4.8,5.9,4.207,14.383,10.361,24.833,18.011C160.979,3024.638,189.724,3045.942,221.43,3069.518Z" transform="translate(-105.952 -2984.972)" fill="#ebebeb"/>
                    </g>
                  </g>
                </g>
              </g>
            </g>
          </g>
        </g>
        <g id="Grupo_986169" data-name="Grupo 986169" transform="translate(59.111 58.168)">
          <g id="Grupo_986168" data-name="Grupo 986168">
            <g id="Grupo_986167" data-name="Grupo 986167">
              <g id="Grupo_986166" data-name="Grupo 986166">
                <g id="Grupo_986165" data-name="Grupo 986165">
                  <g id="Grupo_986164" data-name="Grupo 986164">
                    <g id="Grupo_986163" data-name="Grupo 986163">
                      <path id="Trazado_658782" data-name="Trazado 658782" d="M231.68,3058.537l70.93,72.276,21.6,21.8,5.917,5.884,1.556,1.512a4.67,4.67,0,0,0,.552.494,4.532,4.532,0,0,0-.488-.558l-1.5-1.571-5.825-5.973-21.587-21.812-71.582-71.628c-27.96-27.935-53.239-53.271-71.429-71.723-9.1-9.224-16.425-16.723-21.451-21.946-2.512-2.61-4.45-4.652-5.747-6.052a15.2,15.2,0,0,1-1.9-2.214,15.181,15.181,0,0,1,2.194,1.922c1.388,1.309,3.411,3.266,6,5.8,5.172,5.076,12.6,12.477,21.735,21.663C178.928,3004.781,204.018,3030.306,231.68,3058.537Z" transform="translate(-130.727 -2957.021)" fill="#ebebeb"/>
                    </g>
                  </g>
                </g>
              </g>
            </g>
          </g>
        </g>
        <g id="Grupo_986176" data-name="Grupo 986176" transform="translate(82.939 37.91)">
          <g id="Grupo_986175" data-name="Grupo 986175">
            <g id="Grupo_986174" data-name="Grupo 986174">
              <g id="Grupo_986173" data-name="Grupo 986173">
                <g id="Grupo_986172" data-name="Grupo 986172">
                  <g id="Grupo_986171" data-name="Grupo 986171">
                    <g id="Grupo_986170" data-name="Grupo 986170">
                      <path id="Trazado_658783" data-name="Trazado 658783" d="M243.641,3049.171l58.849,82.454,17.955,24.9,4.932,6.734,1.3,1.736a4.6,4.6,0,0,0,.468.574,4.477,4.477,0,0,0-.4-.627c-.294-.423-.7-1.016-1.235-1.785l-4.827-6.809-17.939-24.912-59.595-81.914c-23.284-31.953-44.324-60.92-59.429-81.984-7.555-10.529-13.63-19.08-17.783-25.021-2.078-2.971-3.674-5.289-4.738-6.875a15.131,15.131,0,0,1-1.533-2.483,15.135,15.135,0,0,1,1.87,2.239c1.168,1.51,2.862,3.759,5.022,6.669,4.322,5.82,10.51,14.288,18.108,24.787C199.876,2987.846,220.7,3016.972,243.641,3049.171Z" transform="translate(-159.671 -2933.156)" fill="#ebebeb"/>
                    </g>
                  </g>
                </g>
              </g>
            </g>
          </g>
        </g>
        <g id="Grupo_986183" data-name="Grupo 986183" transform="translate(109.725 21.561)">
          <g id="Grupo_986182" data-name="Grupo 986182">
            <g id="Grupo_986181" data-name="Grupo 986181">
              <g id="Grupo_986180" data-name="Grupo 986180">
                <g id="Grupo_986179" data-name="Grupo 986179">
                  <g id="Grupo_986178" data-name="Grupo 986178">
                    <g id="Grupo_986177" data-name="Grupo 986177">
                      <path id="Trazado_658784" data-name="Trazado 658784" d="M257.051,3041.641l45.26,90.663,13.851,27.406,3.821,7.423c.438.826.775,1.462,1.016,1.918a4.454,4.454,0,0,0,.375.64,4.5,4.5,0,0,0-.292-.681l-.941-1.957c-.859-1.737-2.1-4.251-3.7-7.482-3.279-6.5-8-15.857-13.831-27.416l-46.086-90.244c-18.014-35.207-34.277-67.115-45.911-90.286-5.819-11.583-10.485-20.981-13.661-27.5-1.588-3.26-2.8-5.8-3.606-7.533a15.064,15.064,0,0,1-1.126-2.694,15.168,15.168,0,0,1,1.5,2.505c.919,1.674,2.241,4.16,3.921,7.373,3.361,6.425,8.152,15.759,14.02,27.319C223.393,2974.212,239.414,3006.243,257.051,3041.641Z" transform="translate(-192.208 -2913.896)" fill="#ebebeb"/>
                    </g>
                  </g>
                </g>
              </g>
            </g>
          </g>
        </g>
        <g id="Grupo_986190" data-name="Grupo 986190" transform="translate(138.868 9.572)">
          <g id="Grupo_986189" data-name="Grupo 986189">
            <g id="Grupo_986188" data-name="Grupo 986188">
              <g id="Grupo_986187" data-name="Grupo 986187">
                <g id="Grupo_986186" data-name="Grupo 986186">
                  <g id="Grupo_986185" data-name="Grupo 986185">
                    <g id="Grupo_986184" data-name="Grupo 986184">
                      <path id="Trazado_658785" data-name="Trazado 658785" d="M271.6,3036.148l30.462,96.67c3.953,12.333,7.154,22.315,9.376,29.249,1.127,3.425,2,6.092,2.609,7.933.3.884.536,1.566.7,2.055a4.457,4.457,0,0,0,.269.69,4.4,4.4,0,0,0-.181-.719c-.148-.494-.355-1.184-.622-2.081-.577-1.851-1.412-4.53-2.484-7.974-2.217-6.934-5.409-16.92-9.353-29.255l-31.347-96.386c-12.264-37.609-23.316-71.683-31.167-96.4-3.928-12.357-7.062-22.373-9.173-29.313-1.056-3.469-1.858-6.17-2.377-8.008a15.055,15.055,0,0,1-.689-2.837,15.088,15.088,0,0,1,1.087,2.709c.645,1.8,1.561,4.462,2.716,7.9,2.311,6.875,5.577,16.848,9.557,29.189C248.944,2964.252,259.737,2998.41,271.6,3036.148Z" transform="translate(-227.61 -2899.773)" fill="#ebebeb"/>
                    </g>
                  </g>
                </g>
              </g>
            </g>
          </g>
        </g>
        <g id="Grupo_986197" data-name="Grupo 986197" transform="translate(169.528 2.328)">
          <g id="Grupo_986196" data-name="Grupo 986196">
            <g id="Grupo_986195" data-name="Grupo 986195">
              <g id="Grupo_986194" data-name="Grupo 986194">
                <g id="Grupo_986193" data-name="Grupo 986193">
                  <g id="Grupo_986192" data-name="Grupo 986192">
                    <g id="Grupo_986191" data-name="Grupo 986191">
                      <path id="Trazado_658786" data-name="Trazado 658786" d="M286.894,3032.849c5.82,39.155,11.088,74.587,14.906,100.269,1.967,12.8,3.56,23.166,4.667,30.363.575,3.561,1.022,6.333,1.329,8.246.16.922.283,1.632.371,2.14a4.568,4.568,0,0,0,.157.725,4.462,4.462,0,0,0-.067-.739c-.068-.512-.164-1.226-.287-2.154-.279-1.917-.683-4.695-1.2-8.265-1.1-7.2-2.686-17.562-4.645-30.366-4.052-25.646-9.642-61.029-15.821-100.128-6.2-39.074-11.768-74.467-15.641-100.114-1.939-12.822-3.46-23.208-4.457-30.393-.5-3.593-.866-6.386-1.091-8.283a15.106,15.106,0,0,1-.236-2.911,15.14,15.14,0,0,1,.647,2.847c.354,1.878.841,4.653,1.441,8.23,1.2,7.154,2.862,17.518,4.854,30.332C275.809,2958.277,281.107,2993.711,286.894,3032.849Z" transform="translate(-264.853 -2891.239)" fill="#ebebeb"/>
                    </g>
                  </g>
                </g>
              </g>
            </g>
          </g>
        </g>
        <g id="Grupo_986204" data-name="Grupo 986204" transform="translate(199.614)">
          <g id="Grupo_986203" data-name="Grupo 986203">
            <g id="Grupo_986202" data-name="Grupo 986202">
              <g id="Grupo_986201" data-name="Grupo 986201">
                <g id="Grupo_986200" data-name="Grupo 986200">
                  <g id="Grupo_986199" data-name="Grupo 986199">
                    <g id="Grupo_986198" data-name="Grupo 986198">
                      <path id="Trazado_658787" data-name="Trazado 658787" d="M302.275,3031.817c-.306,39.584-.584,75.406-.784,101.372-.039,12.953-.07,23.439-.091,30.721.016,3.608.027,6.414.035,8.352.014.936.026,1.656.033,2.172a4.582,4.582,0,0,0,.042.74,4.725,4.725,0,0,0,.047-.739c.011-.516.027-1.237.047-2.172.021-1.938.051-4.745.09-8.352.026-7.282.063-17.768.109-30.721-.032-25.966-.076-61.79-.124-101.375-.078-39.566-.093-75.4.049-101.334.069-12.969.173-23.465.3-30.719.063-3.626.131-6.443.2-8.352a15.31,15.31,0,0,1,.214-2.913,15.424,15.424,0,0,1,.2,2.913c.058,1.91.108,4.728.147,8.355.079,7.254.114,17.751.1,30.72C302.858,2956.423,302.61,2992.251,302.275,3031.817Z" transform="translate(-301.4 -2888.497)" fill="#ebebeb"/>
                    </g>
                  </g>
                </g>
              </g>
            </g>
          </g>
        </g>
        <g id="Grupo_986211" data-name="Grupo 986211" transform="translate(186.42 2.538)">
          <g id="Grupo_986210" data-name="Grupo 986210">
            <g id="Grupo_986209" data-name="Grupo 986209">
              <g id="Grupo_986208" data-name="Grupo 986208">
                <g id="Grupo_986207" data-name="Grupo 986207">
                  <g id="Grupo_986206" data-name="Grupo 986206">
                    <g id="Grupo_986205" data-name="Grupo 986205">
                      <path id="Trazado_658788" data-name="Trazado 658788" d="M308.356,3033.04l-16.5,100.019c-2.045,12.79-3.7,23.144-4.85,30.334-.543,3.566-.966,6.341-1.258,8.257-.13.927-.23,1.64-.3,2.152a4.563,4.563,0,0,0-.072.738,4.4,4.4,0,0,0,.163-.723c.091-.508.219-1.217.385-2.138.321-1.911.787-4.679,1.385-8.236,1.155-7.189,2.818-17.542,4.872-30.331,3.992-25.656,9.5-61.052,15.584-100.165,6.051-39.1,11.587-74.5,15.749-100.1,2.078-12.8,3.808-23.154,5.059-30.3.625-3.573,1.129-6.344,1.5-8.22a15.144,15.144,0,0,1,.666-2.843,15.1,15.1,0,0,1-.255,2.909c-.237,1.9-.624,4.687-1.147,8.276-1.045,7.179-2.637,17.553-4.662,30.363C320.628,2958.654,314.825,2994.008,308.356,3033.04Z" transform="translate(-285.374 -2891.487)" fill="#ebebeb"/>
                    </g>
                  </g>
                </g>
              </g>
            </g>
          </g>
        </g>
        <g id="Grupo_986218" data-name="Grupo 986218" transform="translate(173.157 9.998)">
          <g id="Grupo_986217" data-name="Grupo 986217">
            <g id="Grupo_986216" data-name="Grupo 986216">
              <g id="Grupo_986215" data-name="Grupo 986215">
                <g id="Grupo_986214" data-name="Grupo 986214">
                  <g id="Grupo_986213" data-name="Grupo 986213">
                    <g id="Grupo_986212" data-name="Grupo 986212">
                      <path id="Trazado_658789" data-name="Trazado 658789" d="M314.192,3036.531c-12.5,37.551-23.813,71.533-32.012,96.165l-9.555,29.19c-1.1,3.437-1.949,6.11-2.538,7.957l-.636,2.076a4.5,4.5,0,0,0-.186.718,4.237,4.237,0,0,0,.275-.688l.717-2.05c.618-1.838,1.514-4.5,2.664-7.915L282.5,3132.8c7.972-24.707,18.97-58.792,31.124-96.459,12.117-37.656,23.145-71.739,31.278-96.363,4.064-12.313,7.4-22.263,9.759-29.122,1.18-3.43,2.114-6.087,2.771-7.88a14.922,14.922,0,0,1,1.107-2.7,15.06,15.06,0,0,1-.707,2.833c-.533,1.835-1.352,4.53-2.432,7.992-2.159,6.924-5.36,16.919-9.373,29.249C338,2965.01,326.716,2999.008,314.192,3036.531Z" transform="translate(-269.262 -2900.275)" fill="#ebebeb"/>
                    </g>
                  </g>
                </g>
              </g>
            </g>
          </g>
        </g>
        <g id="Grupo_986225" data-name="Grupo 986225" transform="translate(160.577 22.193)">
          <g id="Grupo_986224" data-name="Grupo 986224">
            <g id="Grupo_986223" data-name="Grupo 986223">
              <g id="Grupo_986222" data-name="Grupo 986222">
                <g id="Grupo_986221" data-name="Grupo 986221">
                  <g id="Grupo_986220" data-name="Grupo 986220">
                    <g id="Grupo_986219" data-name="Grupo 986219">
                      <path id="Trazado_658790" data-name="Trazado 658790" d="M319.717,3042.2l-46.706,89.922-14.02,27.32c-1.623,3.22-2.885,5.726-3.756,7.456l-.955,1.95a4.568,4.568,0,0,0-.3.679,4.43,4.43,0,0,0,.379-.637l1.03-1.912,3.872-7.4,14.04-27.309,45.889-90.344c17.882-35.275,34.126-67.193,46.024-90.228,5.947-11.519,10.8-20.819,14.207-27.221,1.7-3.2,3.041-5.678,3.97-7.346a15.2,15.2,0,0,1,1.515-2.495,15.253,15.253,0,0,1-1.147,2.684c-.814,1.729-2.047,4.26-3.658,7.507-3.221,6.5-7.952,15.862-13.852,27.405C354.455,2975.327,337.974,3007.122,319.717,3042.2Z" transform="translate(-253.981 -2914.641)" fill="#ebebeb"/>
                    </g>
                  </g>
                </g>
              </g>
            </g>
          </g>
        </g>
        <g id="Grupo_986232" data-name="Grupo 986232" transform="translate(149.102 38.726)">
          <g id="Grupo_986231" data-name="Grupo 986231">
            <g id="Grupo_986230" data-name="Grupo 986230">
              <g id="Grupo_986229" data-name="Grupo 986229">
                <g id="Grupo_986228" data-name="Grupo 986228">
                  <g id="Grupo_986227" data-name="Grupo 986227">
                    <g id="Grupo_986226" data-name="Grupo 986226">
                      <path id="Trazado_658791" data-name="Trazado 658791" d="M324.832,3049.9l-60.159,81.5-18.109,24.787-4.874,6.775-1.247,1.777a4.671,4.671,0,0,0-.4.624,4.419,4.419,0,0,0,.473-.569l1.315-1.728,4.978-6.7,18.127-24.775,59.416-82.045c23.165-32.039,44.188-61.02,59.533-81.907,7.67-10.446,13.917-18.871,18.279-24.662,2.181-2.895,3.89-5.131,5.069-6.633a15.184,15.184,0,0,1,1.885-2.227,15.224,15.224,0,0,1-1.551,2.472c-1.074,1.579-2.687,3.886-4.785,6.843-4.194,5.912-10.328,14.421-17.955,24.9C369.576,2989.289,348.337,3018.111,324.832,3049.9Z" transform="translate(-240.042 -2934.117)" fill="#ebebeb"/>
                    </g>
                  </g>
                </g>
              </g>
            </g>
          </g>
        </g>
        <g id="Grupo_986239" data-name="Grupo 986239" transform="translate(138.96 59.15)">
          <g id="Grupo_986238" data-name="Grupo 986238">
            <g id="Grupo_986237" data-name="Grupo 986237">
              <g id="Grupo_986236" data-name="Grupo 986236">
                <g id="Grupo_986235" data-name="Grupo 986235">
                  <g id="Grupo_986234" data-name="Grupo 986234">
                    <g id="Grupo_986233" data-name="Grupo 986233">
                      <path id="Trazado_658792" data-name="Trazado 658792" d="M329.4,3059.416l-72.075,71.13-21.736,21.663-5.866,5.933-1.508,1.561a4.591,4.591,0,0,0-.492.553,4.435,4.435,0,0,0,.556-.49l1.567-1.5,5.956-5.842,21.751-21.647,71.427-71.784c27.856-28.038,53.122-53.388,71.522-71.631,9.2-9.122,16.677-16.471,21.884-21.511,2.6-2.52,4.639-4.463,6.036-5.763a15.215,15.215,0,0,1,2.207-1.906,15.13,15.13,0,0,1-1.916,2.2c-1.306,1.392-3.257,3.419-5.788,6.012-5.061,5.187-12.441,12.635-21.6,21.8C383.006,3006.515,357.553,3031.675,329.4,3059.416Z" transform="translate(-227.722 -2958.177)" fill="#ebebeb"/>
                    </g>
                  </g>
                </g>
              </g>
            </g>
          </g>
        </g>
        <g id="Grupo_986246" data-name="Grupo 986246" transform="translate(130.299 83.016)">
          <g id="Grupo_986245" data-name="Grupo 986245">
            <g id="Grupo_986244" data-name="Grupo 986244">
              <g id="Grupo_986243" data-name="Grupo 986243">
                <g id="Grupo_986242" data-name="Grupo 986242">
                  <g id="Grupo_986241" data-name="Grupo 986241">
                    <g id="Grupo_986240" data-name="Grupo 986240">
                      <path id="Trazado_658793" data-name="Trazado 658793" d="M333.292,3070.521l-82.237,59.03-24.834,18.01-6.715,4.947-1.732,1.306a4.691,4.691,0,0,0-.572.47,4.361,4.361,0,0,0,.625-.4l1.781-1.238,6.792-4.843,24.847-17.993,81.7-59.778c31.868-23.355,60.76-44.459,81.767-59.611,10.5-7.578,19.03-13.672,24.957-17.839,2.963-2.083,5.274-3.685,6.857-4.751A15,15,0,0,1,449,2986.3a15.256,15.256,0,0,1-2.233,1.874c-1.507,1.172-3.749,2.871-6.652,5.038-5.8,4.335-14.25,10.542-24.721,18.164C394.456,3026.62,365.407,3047.507,333.292,3070.521Z" transform="translate(-217.202 -2986.292)" fill="#ebebeb"/>
                    </g>
                  </g>
                </g>
              </g>
            </g>
          </g>
        </g>
        <g id="Grupo_986253" data-name="Grupo 986253" transform="translate(123.274 109.85)">
          <g id="Grupo_986252" data-name="Grupo 986252">
            <g id="Grupo_986251" data-name="Grupo 986251">
              <g id="Grupo_986250" data-name="Grupo 986250">
                <g id="Grupo_986249" data-name="Grupo 986249">
                  <g id="Grupo_986248" data-name="Grupo 986248">
                    <g id="Grupo_986247" data-name="Grupo 986247">
                      <path id="Trazado_658794" data-name="Trazado 658794" d="M336.4,3082.969l-90.436,45.416-27.338,13.9-7.4,3.834-1.914,1.02a4.33,4.33,0,0,0-.638.376,4.491,4.491,0,0,0,.679-.293l1.953-.944c1.731-.864,4.24-2.113,7.463-3.718l27.347-13.878,90.018-46.244c35.119-18.076,66.947-34.4,90.06-46.07,11.555-5.84,20.929-10.522,27.432-13.709,3.252-1.594,5.785-2.813,7.514-3.618a15.154,15.154,0,0,1,2.686-1.13,14.911,14.911,0,0,1-2.5,1.5c-1.67.923-4.15,2.249-7.355,3.935-6.41,3.372-15.719,8.181-27.251,14.068C403.658,3049.194,371.708,3065.271,336.4,3082.969Z" transform="translate(-208.668 -3017.903)" fill="#ebebeb"/>
                    </g>
                  </g>
                </g>
              </g>
            </g>
          </g>
        </g>
        <g id="Grupo_986260" data-name="Grupo 986260" transform="translate(118.089 139.049)">
          <g id="Grupo_986259" data-name="Grupo 986259">
            <g id="Grupo_986258" data-name="Grupo 986258">
              <g id="Grupo_986257" data-name="Grupo 986257">
                <g id="Grupo_986256" data-name="Grupo 986256">
                  <g id="Grupo_986255" data-name="Grupo 986255">
                    <g id="Grupo_986254" data-name="Grupo 986254">
                      <path id="Trazado_658795" data-name="Trazado 658795" d="M338.64,3096.47l-96.44,30.591-29.178,9.416-7.914,2.62-2.051.705a4.372,4.372,0,0,0-.688.271,4.407,4.407,0,0,0,.717-.183l2.076-.624,7.954-2.495,29.187-9.393,96.156-31.477c37.518-12.315,71.512-23.414,96.169-31.3,12.329-3.945,22.32-7.091,29.243-9.212,3.461-1.061,6.155-1.866,7.989-2.388a14.936,14.936,0,0,1,2.831-.692,15.178,15.178,0,0,1-2.7,1.091c-1.794.647-4.451,1.566-7.881,2.726-6.858,2.32-16.808,5.6-29.119,9.6C410.366,3073.722,376.29,3084.561,338.64,3096.47Z" transform="translate(-202.369 -3052.3)" fill="#ebebeb"/>
                    </g>
                  </g>
                </g>
              </g>
            </g>
          </g>
        </g>
        <g id="Grupo_986267" data-name="Grupo 986267" transform="translate(114.951 169.771)">
          <g id="Grupo_986266" data-name="Grupo 986266">
            <g id="Grupo_986265" data-name="Grupo 986265">
              <g id="Grupo_986264" data-name="Grupo 986264">
                <g id="Grupo_986263" data-name="Grupo 986263">
                  <g id="Grupo_986262" data-name="Grupo 986262">
                    <g id="Grupo_986261" data-name="Grupo 986261">
                      <path id="Trazado_658796" data-name="Trazado 658796" d="M339.977,3110.672l-100.041,15-30.294,4.7-8.227,1.338-2.135.373a4.414,4.414,0,0,0-.723.158,4.514,4.514,0,0,0,.737-.067c.51-.07,1.223-.166,2.149-.29l8.246-1.209,30.3-4.675,99.9-15.919c38.985-6.244,74.3-11.843,99.886-15.741,12.794-1.951,23.156-3.483,30.325-4.486,3.584-.5,6.371-.872,8.264-1.1a14.931,14.931,0,0,1,2.9-.238,15.1,15.1,0,0,1-2.841.65c-1.873.356-4.641.845-8.21,1.449-7.138,1.208-17.479,2.879-30.264,4.884C414.381,3099.515,379.027,3104.846,339.977,3110.672Z" transform="translate(-198.557 -3088.492)" fill="#ebebeb"/>
                    </g>
                  </g>
                </g>
              </g>
            </g>
          </g>
        </g>
      </g>
      <g id="Grupo_986269" data-name="Grupo 986269" transform="translate(26.351 399.404)">
        <path id="Trazado_658797" data-name="Trazado 658797" d="M435.609,3359.227c0,.121-77.165.221-172.33.221-95.2,0-172.347-.1-172.347-.221s77.148-.221,172.347-.221C358.444,3359.006,435.609,3359.105,435.609,3359.227Z" transform="translate(-90.932 -3359.006)" fill="#263238"/>
      </g>
      <g id="Grupo_986458" data-name="Grupo 986458" transform="translate(35.797 35.218)">
        <g id="Grupo_986273" data-name="Grupo 986273" transform="translate(240.091 294.865)">
          <g id="Grupo_986272" data-name="Grupo 986272">
            <g id="Grupo_986271" data-name="Grupo 986271" transform="translate(1.019 17.266)">
              <path id="Trazado_658798" data-name="Trazado 658798" d="M397.977,3303.628s-3.693,8.616-2.418,16.341-.164,16.857,3.113,18.466,4.7-.257,4.886-3.878.6-9.178.706-13.454a39.738,39.738,0,0,1,.338-5.43l1.4-11.6Z" transform="translate(-395.292 -3298.581)" fill="#ffbf9d"/>
              <path id="Trazado_658799" data-name="Trazado 658799" d="M412.893,3297.683s5.134,21.125,5.116,23.743a20.035,20.035,0,0,1-1.651,6.289s-1.558,9.253-2.4,10.374-9.2,2.6-9.2,2.6l-5.357-3.153,2.173-4.809,4.623.778,1.066-3.963-3-4.579-2.565-22.068Z" transform="translate(-396.018 -3297.683)" fill="#ffbf9d"/>
              <g id="Grupo_986270" data-name="Grupo 986270" transform="translate(2.588 16.302)">
                <path id="Trazado_658800" data-name="Trazado 658800" d="M407.365,3316.888a5.771,5.771,0,0,1-.285,1.089c-.2.694-.5,1.693-.812,2.942a58.975,58.975,0,0,0-1.643,9.919c-.081.98-.121,1.939-.153,2.867a24.083,24.083,0,0,1-.162,2.7,5.352,5.352,0,0,1-2.183,3.956,2.814,2.814,0,0,1-2.954.044,2.02,2.02,0,0,1-.608-.58c-.1-.163-.139-.259-.128-.265a3.36,3.36,0,0,0,.817.694,2.68,2.68,0,0,0,2.713-.159,5.1,5.1,0,0,0,1.95-3.746,25.149,25.149,0,0,0,.134-2.657c.026-.934.063-1.9.146-2.891a50.98,50.98,0,0,1,1.778-9.968c.355-1.246.7-2.234.947-2.914A5.456,5.456,0,0,1,407.365,3316.888Z" transform="translate(-398.436 -3316.887)" fill="#ff9a6c"/>
              </g>
            </g>
            <path id="Trazado_658801" data-name="Trazado 658801" d="M397.758,3299.656l-3.7-13.051s13.555-9.881,14.3-9.231,4.145,19.506,4.145,19.506l-6.952,7.7Z" transform="translate(-394.054 -3277.344)" fill="#ffbf9d"/>
          </g>
        </g>
        <path id="Trazado_658802" data-name="Trazado 658802" d="M359.373,3072.924c-4.6-7.133-28.737-14.1-28.737-14.1l6.485,5.576,14.015,77.87,30.954,114.78L406.2,3252.4S375.005,3097.165,359.373,3072.924Z" transform="translate(-142.752 -2949.456)" fill="#ef8b53"/>
        <g id="Grupo_986279" data-name="Grupo 986279" transform="translate(103.91 235.88)">
          <g id="Grupo_986278" data-name="Grupo 986278">
            <g id="Grupo_986277" data-name="Grupo 986277">
              <path id="Trazado_658803" data-name="Trazado 658803" d="M369.676,3255.6l-56.99,28.871s-4.532,34.994-.632,59.133h51.53C376.633,3297.224,369.676,3255.6,369.676,3255.6Z" transform="translate(-243.097 -3215.072)" fill="#263238"/>
              <path id="Trazado_658804" data-name="Trazado 658804" d="M306.536,3285.6l-59.926-50.18s-24.081,37.784-16.506,75.368c1.135,5.635,4.739,21.63,7.105,29.763h70.766C306.176,3313.982,306.536,3285.6,306.536,3285.6Z" transform="translate(-228.629 -3212.023)" fill="#263238"/>
              <g id="Grupo_986276" data-name="Grupo 986276" transform="translate(13.259)">
                <g id="Grupo_986275" data-name="Grupo 986275">
                  <g id="Grupo_986274" data-name="Grupo 986274">
                    <path id="Trazado_658805" data-name="Trazado 658805" d="M358.337,3249.2c.218-.083-48.406,36.651-48.406,36.651l-65.2-45.644,12.03-23.742s33.369,14.67,50.668,10.991,36.256-19.6,36.256-19.6C347.948,3217.405,355.677,3238.625,358.337,3249.2Z" transform="translate(-244.736 -3207.858)" fill="#263238"/>
                  </g>
                </g>
              </g>
            </g>
            <path id="Trazado_658806" data-name="Trazado 658806" d="M339.954,3267.411l-.883,1.261-3.382,4.944-12.664,18.725-.047.07.007.082c.616,7.011.85,15.152,1.272,24.217s.114,17.914.609,28.63l.687-.036c-.532-10.714-.259-19.56-.709-28.622-.459-9.021-.736-17.145-1.4-24.143,5.324-8.036,9.538-14.4,12.442-18.779l3.283-5.013.831-1.3a3.333,3.333,0,0,0,.264-.452A3.066,3.066,0,0,0,339.954,3267.411Z" transform="translate(-245.308 -3216.795)" fill="#455a64"/>
          </g>
        </g>
        <g id="Grupo_986432" data-name="Grupo 986432" transform="translate(100.574)">
          <g id="Grupo_986431" data-name="Grupo 986431">
            <g id="Grupo_986281" data-name="Grupo 986281" transform="translate(56.195 22.914)">
              <g id="Grupo_986280" data-name="Grupo 986280">
                <path id="Trazado_658807" data-name="Trazado 658807" d="M331.769,2956.978a26.965,26.965,0,0,1,9.58,22.539c-.311,4.135-1.417,8.857,1.193,12.015,2.582,3.126,7.656,3.036,10.131,6.253,2.915,3.787.474,9.422,1.517,14.136a9.306,9.306,0,0,0,9.872,7.112,35.675,35.675,0,0,1-17.959,8.035l-5.025-6.652c1.9,2.328,1.4,6.041-.447,8.42s-4.692,3.676-7.508,4.6a44.823,44.823,0,0,1-40.284-6.752" transform="translate(-292.84 -2956.978)" fill="#263238"/>
              </g>
            </g>
            <g id="Grupo_986283" data-name="Grupo 986283" transform="translate(19.122)">
              <g id="Grupo_986282" data-name="Grupo 986282">
                <path id="Trazado_658808" data-name="Trazado 658808" d="M248.389,2989.448c1-3.171,2.691-6.11,3.368-9.373,1.453-7.012-1.86-14.9,1.439-21.217,2.348-4.493,7.351-6.693,12.082-8.2s9.807-2.776,13.335-6.356c2.587-2.625,4.059-6.242,6.638-8.877,3.674-3.755,9.1-5.027,14.262-5.354,5.3-.335,10.784.19,15.553,2.6s8.729,6.944,9.579,12.351c.414,2.637.1,5.4.906,7.938.887,2.791,3.012,4.962,4.323,7.57a14.348,14.348,0,0,1-3.406,16.839l-36.4,48.485c-7.647,2.979-26.176-.624-32.087-6.447S245.851,2997.461,248.389,2989.448Z" transform="translate(-247.806 -2929.984)" fill="#263238"/>
              </g>
            </g>
            <g id="Grupo_986285" data-name="Grupo 986285" transform="translate(42.178 19.022)">
              <g id="Grupo_986284" data-name="Grupo 986284">
                <path id="Trazado_658809" data-name="Trazado 658809" d="M330.456,2974.6c-1.5-11.008-9.619-24.016-20.222-22l-32.728,11.344c-3.22.611-.915,6.027-.6,9.389l7.116,76.108c-.053.017-4.421,3.254-6,2.63a.453.453,0,0,0-.529.685c3.931,5.884,22.485,31.612,41.607,23.758,4.273-1.755-.446-15.634.053-20.777l-.568-13.135c-.423-6.706-.629-9.454-.62-9.392,0,0,13.53-3.432,14.995-22.1C333.691,3001.833,332.123,2986.833,330.456,2974.6Z" transform="translate(-275.813 -2952.392)" fill="#ffbf9d"/>
              </g>
            </g>
            <g id="Grupo_986300" data-name="Grupo 986300" transform="translate(86.76 55.847)">
              <g id="Grupo_986299" data-name="Grupo 986299">
                <g id="Grupo_986298" data-name="Grupo 986298">
                  <g id="Grupo_986297" data-name="Grupo 986297">
                    <g id="Grupo_986296" data-name="Grupo 986296">
                      <g id="Grupo_986295" data-name="Grupo 986295">
                        <g id="Grupo_986294" data-name="Grupo 986294">
                          <g id="Grupo_986293" data-name="Grupo 986293">
                            <g id="Grupo_986292" data-name="Grupo 986292">
                              <g id="Grupo_986291" data-name="Grupo 986291">
                                <g id="Grupo_986290" data-name="Grupo 986290">
                                  <g id="Grupo_986289" data-name="Grupo 986289">
                                    <g id="Grupo_986288" data-name="Grupo 986288">
                                      <g id="Grupo_986287" data-name="Grupo 986287">
                                        <g id="Grupo_986286" data-name="Grupo 986286">
                                          <path id="Trazado_658810" data-name="Trazado 658810" d="M334.539,2997.74a2.353,2.353,0,0,1-2.033,2.561,2.213,2.213,0,0,1-2.523-1.944,2.355,2.355,0,0,1,2.031-2.562A2.214,2.214,0,0,1,334.539,2997.74Z" transform="translate(-329.969 -2995.774)" fill="#263238"/>
                                        </g>
                                      </g>
                                    </g>
                                  </g>
                                </g>
                              </g>
                            </g>
                          </g>
                        </g>
                      </g>
                    </g>
                  </g>
                </g>
              </g>
            </g>
            <g id="Grupo_986315" data-name="Grupo 986315" transform="translate(64.322 57.061)">
              <g id="Grupo_986314" data-name="Grupo 986314">
                <g id="Grupo_986313" data-name="Grupo 986313">
                  <g id="Grupo_986312" data-name="Grupo 986312">
                    <g id="Grupo_986311" data-name="Grupo 986311">
                      <g id="Grupo_986310" data-name="Grupo 986310">
                        <g id="Grupo_986309" data-name="Grupo 986309">
                          <g id="Grupo_986308" data-name="Grupo 986308">
                            <g id="Grupo_986307" data-name="Grupo 986307">
                              <g id="Grupo_986306" data-name="Grupo 986306">
                                <g id="Grupo_986305" data-name="Grupo 986305">
                                  <g id="Grupo_986304" data-name="Grupo 986304">
                                    <g id="Grupo_986303" data-name="Grupo 986303">
                                      <g id="Grupo_986302" data-name="Grupo 986302">
                                        <g id="Grupo_986301" data-name="Grupo 986301">
                                          <path id="Trazado_658811" data-name="Trazado 658811" d="M307.282,2999.171a2.355,2.355,0,0,1-2.033,2.561,2.211,2.211,0,0,1-2.522-1.945,2.355,2.355,0,0,1,2.03-2.562A2.213,2.213,0,0,1,307.282,2999.171Z" transform="translate(-302.713 -2997.204)" fill="#263238"/>
                                        </g>
                                      </g>
                                    </g>
                                  </g>
                                </g>
                              </g>
                            </g>
                          </g>
                        </g>
                      </g>
                    </g>
                  </g>
                </g>
              </g>
            </g>
            <g id="Grupo_986331" data-name="Grupo 986331" transform="translate(85.52 47.903)">
              <g id="Grupo_986330" data-name="Grupo 986330">
                <g id="Grupo_986329" data-name="Grupo 986329">
                  <g id="Grupo_986328" data-name="Grupo 986328">
                    <g id="Grupo_986327" data-name="Grupo 986327">
                      <g id="Grupo_986326" data-name="Grupo 986326">
                        <g id="Grupo_986325" data-name="Grupo 986325">
                          <g id="Grupo_986324" data-name="Grupo 986324">
                            <g id="Grupo_986323" data-name="Grupo 986323">
                              <g id="Grupo_986322" data-name="Grupo 986322">
                                <g id="Grupo_986321" data-name="Grupo 986321">
                                  <g id="Grupo_986320" data-name="Grupo 986320">
                                    <g id="Grupo_986319" data-name="Grupo 986319">
                                      <g id="Grupo_986318" data-name="Grupo 986318">
                                        <g id="Grupo_986317" data-name="Grupo 986317">
                                          <g id="Grupo_986316" data-name="Grupo 986316">
                                            <path id="Trazado_658812" data-name="Trazado 658812" d="M338.306,2988.891c-.249.433-2.383-.958-5.054-.557-2.675.354-4.385,2.289-4.734,1.94-.17-.153.038-.9.779-1.77a6.122,6.122,0,0,1,3.718-2.033,5.963,5.963,0,0,1,4.1.928C338.047,2988.034,338.431,2988.7,338.306,2988.891Z" transform="translate(-328.463 -2986.416)" fill="#263238"/>
                                          </g>
                                        </g>
                                      </g>
                                    </g>
                                  </g>
                                </g>
                              </g>
                            </g>
                          </g>
                        </g>
                      </g>
                    </g>
                  </g>
                </g>
              </g>
            </g>
            <g id="Grupo_986347" data-name="Grupo 986347" transform="translate(60.808 49.527)">
              <g id="Grupo_986346" data-name="Grupo 986346">
                <g id="Grupo_986345" data-name="Grupo 986345">
                  <g id="Grupo_986344" data-name="Grupo 986344">
                    <g id="Grupo_986343" data-name="Grupo 986343">
                      <g id="Grupo_986342" data-name="Grupo 986342">
                        <g id="Grupo_986341" data-name="Grupo 986341">
                          <g id="Grupo_986340" data-name="Grupo 986340">
                            <g id="Grupo_986339" data-name="Grupo 986339">
                              <g id="Grupo_986338" data-name="Grupo 986338">
                                <g id="Grupo_986337" data-name="Grupo 986337">
                                  <g id="Grupo_986336" data-name="Grupo 986336">
                                    <g id="Grupo_986335" data-name="Grupo 986335">
                                      <g id="Grupo_986334" data-name="Grupo 986334">
                                        <g id="Grupo_986333" data-name="Grupo 986333">
                                          <g id="Grupo_986332" data-name="Grupo 986332">
                                            <path id="Trazado_658813" data-name="Trazado 658813" d="M309.012,2991.222c-.315.4-2.415-1.172-5.288-1.046-2.873.081-4.91,1.8-5.239,1.426-.16-.167.142-.874,1.032-1.651a6.844,6.844,0,0,1,4.172-1.617,6.636,6.636,0,0,1,4.229,1.314C308.833,2990.36,309.166,2991.044,309.012,2991.222Z" transform="translate(-298.443 -2988.329)" fill="#263238"/>
                                          </g>
                                        </g>
                                      </g>
                                    </g>
                                  </g>
                                </g>
                              </g>
                            </g>
                          </g>
                        </g>
                      </g>
                    </g>
                  </g>
                </g>
              </g>
            </g>
            <g id="Grupo_986363" data-name="Grupo 986363" transform="translate(77.652 48.75)">
              <g id="Grupo_986362" data-name="Grupo 986362">
                <g id="Grupo_986361" data-name="Grupo 986361">
                  <g id="Grupo_986360" data-name="Grupo 986360">
                    <g id="Grupo_986359" data-name="Grupo 986359">
                      <g id="Grupo_986358" data-name="Grupo 986358">
                        <g id="Grupo_986357" data-name="Grupo 986357">
                          <g id="Grupo_986356" data-name="Grupo 986356">
                            <g id="Grupo_986355" data-name="Grupo 986355">
                              <g id="Grupo_986354" data-name="Grupo 986354">
                                <g id="Grupo_986353" data-name="Grupo 986353">
                                  <g id="Grupo_986352" data-name="Grupo 986352">
                                    <g id="Grupo_986351" data-name="Grupo 986351">
                                      <g id="Grupo_986350" data-name="Grupo 986350">
                                        <g id="Grupo_986349" data-name="Grupo 986349">
                                          <g id="Grupo_986348" data-name="Grupo 986348">
                                            <path id="Trazado_658814" data-name="Trazado 658814" d="M321.635,3008.527c-.022-.144,1.491-.539,3.952-1.063.625-.117,1.212-.294,1.285-.745a3.39,3.39,0,0,0-.564-1.893l-2.233-4.8c-3.113-6.839-5.418-12.484-5.149-12.61s3.009,5.314,6.121,12.153q1.129,2.532,2.156,4.836a3.865,3.865,0,0,1,.517,2.525,1.613,1.613,0,0,1-.965,1.032,4.173,4.173,0,0,1-1.059.238C323.206,3008.536,321.655,3008.67,321.635,3008.527Z" transform="translate(-318.905 -2987.413)" fill="#263238"/>
                                          </g>
                                        </g>
                                      </g>
                                    </g>
                                  </g>
                                </g>
                              </g>
                            </g>
                          </g>
                        </g>
                      </g>
                    </g>
                  </g>
                </g>
              </g>
            </g>
            <g id="Grupo_986378" data-name="Grupo 986378" transform="translate(59.893 95.151)">
              <g id="Grupo_986377" data-name="Grupo 986377">
                <g id="Grupo_986376" data-name="Grupo 986376">
                  <g id="Grupo_986375" data-name="Grupo 986375">
                    <g id="Grupo_986374" data-name="Grupo 986374">
                      <g id="Grupo_986373" data-name="Grupo 986373">
                        <g id="Grupo_986372" data-name="Grupo 986372">
                          <g id="Grupo_986371" data-name="Grupo 986371">
                            <g id="Grupo_986370" data-name="Grupo 986370">
                              <g id="Grupo_986369" data-name="Grupo 986369">
                                <g id="Grupo_986368" data-name="Grupo 986368">
                                  <g id="Grupo_986367" data-name="Grupo 986367">
                                    <g id="Grupo_986366" data-name="Grupo 986366">
                                      <g id="Grupo_986365" data-name="Grupo 986365">
                                        <g id="Grupo_986364" data-name="Grupo 986364">
                                          <path id="Trazado_658815" data-name="Trazado 658815" d="M321.77,3046.763a44.385,44.385,0,0,1-24.438-4.688s6.983,12.463,24.752,9.32Z" transform="translate(-297.332 -3042.075)" fill="#ff9a6c"/>
                                        </g>
                                      </g>
                                    </g>
                                  </g>
                                </g>
                              </g>
                            </g>
                          </g>
                        </g>
                      </g>
                    </g>
                  </g>
                </g>
              </g>
            </g>
            <g id="Grupo_986380" data-name="Grupo 986380" transform="translate(72.237 75.425)">
              <g id="Grupo_986379" data-name="Grupo 986379">
                <path id="Trazado_658816" data-name="Trazado 658816" d="M312.944,3020.7a3.981,3.981,0,0,1,1.266-1.552,3.025,3.025,0,0,1,2.135-.222,4.937,4.937,0,0,1,2.8,1.467,3.162,3.162,0,0,1,.7,3.046h0c-.277,1.064-1.816,1.648-2.869,1.838a4.592,4.592,0,0,1-3.075-.667,2.788,2.788,0,0,1-1.575-2.1A3.491,3.491,0,0,1,312.944,3020.7Z" transform="translate(-312.327 -3018.837)" fill="#ff9a6c"/>
              </g>
            </g>
            <g id="Grupo_986396" data-name="Grupo 986396" transform="translate(73.049 73.707)">
              <g id="Grupo_986395" data-name="Grupo 986395">
                <g id="Grupo_986394" data-name="Grupo 986394">
                  <g id="Grupo_986393" data-name="Grupo 986393">
                    <g id="Grupo_986392" data-name="Grupo 986392">
                      <g id="Grupo_986391" data-name="Grupo 986391">
                        <g id="Grupo_986390" data-name="Grupo 986390">
                          <g id="Grupo_986389" data-name="Grupo 986389">
                            <g id="Grupo_986388" data-name="Grupo 986388">
                              <g id="Grupo_986387" data-name="Grupo 986387">
                                <g id="Grupo_986386" data-name="Grupo 986386">
                                  <g id="Grupo_986385" data-name="Grupo 986385">
                                    <g id="Grupo_986384" data-name="Grupo 986384">
                                      <g id="Grupo_986383" data-name="Grupo 986383">
                                        <g id="Grupo_986382" data-name="Grupo 986382">
                                          <g id="Grupo_986381" data-name="Grupo 986381">
                                            <path id="Trazado_658817" data-name="Trazado 658817" d="M313.624,3016.814c.4-.056.611,2.705,3.049,4.485s5.268,1.249,5.317,1.633c.05.17-.6.587-1.8.716a6.541,6.541,0,0,1-4.426-1.207,6.032,6.032,0,0,1-2.385-3.774C313.192,3017.521,313.44,3016.812,313.624,3016.814Z" transform="translate(-313.313 -3016.813)" fill="#263238"/>
                                          </g>
                                        </g>
                                      </g>
                                    </g>
                                  </g>
                                </g>
                              </g>
                            </g>
                          </g>
                        </g>
                      </g>
                    </g>
                  </g>
                </g>
              </g>
            </g>
            <g id="Grupo_986408" data-name="Grupo 986408" transform="translate(59.98 40.9)">
              <g id="Grupo_986407" data-name="Grupo 986407">
                <g id="Grupo_986406" data-name="Grupo 986406">
                  <g id="Grupo_986405" data-name="Grupo 986405">
                    <g id="Grupo_986404" data-name="Grupo 986404">
                      <g id="Grupo_986403" data-name="Grupo 986403">
                        <g id="Grupo_986402" data-name="Grupo 986402">
                          <g id="Grupo_986401" data-name="Grupo 986401">
                            <g id="Grupo_986400" data-name="Grupo 986400">
                              <g id="Grupo_986399" data-name="Grupo 986399">
                                <g id="Grupo_986398" data-name="Grupo 986398">
                                  <g id="Grupo_986397" data-name="Grupo 986397">
                                    <path id="Trazado_658818" data-name="Trazado 658818" d="M308.617,2979.728c-.192.71-2.68.578-5.548,1.167-2.88.531-5.15,1.589-5.58,1-.193-.283.165-.967,1.059-1.711a9.283,9.283,0,0,1,4.055-1.835,9.154,9.154,0,0,1,4.423.183C308.122,2978.89,308.7,2979.39,308.617,2979.728Z" transform="translate(-297.438 -2978.165)" fill="#263238"/>
                                  </g>
                                </g>
                              </g>
                            </g>
                          </g>
                        </g>
                      </g>
                    </g>
                  </g>
                </g>
              </g>
            </g>
            <g id="Grupo_986420" data-name="Grupo 986420" transform="translate(84.204 38.796)">
              <g id="Grupo_986419" data-name="Grupo 986419">
                <g id="Grupo_986418" data-name="Grupo 986418">
                  <g id="Grupo_986417" data-name="Grupo 986417">
                    <g id="Grupo_986416" data-name="Grupo 986416">
                      <g id="Grupo_986415" data-name="Grupo 986415">
                        <g id="Grupo_986414" data-name="Grupo 986414">
                          <g id="Grupo_986413" data-name="Grupo 986413">
                            <g id="Grupo_986412" data-name="Grupo 986412">
                              <g id="Grupo_986411" data-name="Grupo 986411">
                                <g id="Grupo_986410" data-name="Grupo 986410">
                                  <g id="Grupo_986409" data-name="Grupo 986409">
                                    <path id="Trazado_658819" data-name="Trazado 658819" d="M336.5,2977.958c-.454.617-2.441.172-4.779.328-2.343.083-4.286.731-4.786.162-.221-.278.047-.881.87-1.5a7.2,7.2,0,0,1,3.812-1.255,7.063,7.063,0,0,1,3.895.86C336.385,2977.085,336.7,2977.659,336.5,2977.958Z" transform="translate(-326.864 -2975.687)" fill="#263238"/>
                                  </g>
                                </g>
                              </g>
                            </g>
                          </g>
                        </g>
                      </g>
                    </g>
                  </g>
                </g>
              </g>
            </g>
            <g id="Grupo_986422" data-name="Grupo 986422" transform="translate(35.094 18.176)">
              <g id="Grupo_986421" data-name="Grupo 986421">
                <path id="Trazado_658820" data-name="Trazado 658820" d="M268.747,2966.445c1.651-2.621,4.618-3.969,7.446-5.094A160.756,160.756,0,0,1,314.1,2951.4c1.614,2.742.122,6.477-2.314,8.473s-5.565,2.786-8.479,3.91-5.9,2.855-7.1,5.815c-1.277,3.148-.2,6.877-1.321,10.086-1.93,5.525-9.4,7.306-11.3,12.84-1.437,4.187.915,8.642,1.5,13.041a16.5,16.5,0,0,1-4.661,13.719,15.473,15.473,0,0,1-10.45,4.343q-1.33-23.774-2.661-47.548C267.125,2972.775,267,2969.218,268.747,2966.445Z" transform="translate(-267.208 -2951.396)" fill="#263238"/>
              </g>
            </g>
            <g id="Grupo_986424" data-name="Grupo 986424" transform="translate(2.272 30.417)">
              <g id="Grupo_986423" data-name="Grupo 986423">
                <path id="Trazado_658821" data-name="Trazado 658821" d="M230.734,3008.664c2.428-2.244,5.471-4.183,6.439-7.393,1.409-4.676-2.233-10.17.112-14.428,2.139-3.883,8.44-3.687,10.428-7.653,1.553-3.1-.23-5.841.36-8.561s4.335-5.108,7.02-4.783l20.991,31.37c1.949,10.524,3.91,16.125,1.719,22.281-1.2,3.377-2.768,6.669-3.239,10.232s.412,7.6,3.238,9.71c-12.55,1.014-24.311-5.759-35.18-12.308l-11.5-6.931a8.477,8.477,0,0,1-3.161-2.715C226.271,3014.609,228.307,3010.907,230.734,3008.664Z" transform="translate(-227.338 -2965.817)" fill="#263238"/>
              </g>
            </g>
            <g id="Grupo_986426" data-name="Grupo 986426" transform="translate(17.241 6.918)">
              <g id="Grupo_986425" data-name="Grupo 986425">
                <path id="Trazado_658822" data-name="Trazado 658822" d="M245.521,3019.778a5.831,5.831,0,0,0,1.341.266,11.137,11.137,0,0,0,3.909-.285,12,12,0,0,0,5.453-3.027,12.422,12.422,0,0,0,3.59-7.566,13.041,13.041,0,0,0-.412-4.963,20.453,20.453,0,0,0-2.331-4.81,19.332,19.332,0,0,1-2.4-4.991,6.607,6.607,0,0,1,.673-5.488c1.142-1.577,3.262-1.963,5.23-2.781a5.759,5.759,0,0,0,2.676-2.043,5.935,5.935,0,0,0,.864-3.394c-.027-2.37-1.006-4.535-1.427-6.741a7.58,7.58,0,0,1-.021-3.305,4.617,4.617,0,0,1,1.812-2.625c1.812-1.334,4.124-1.548,6.349-1.75a13.3,13.3,0,0,0,6.469-1.962,12.436,12.436,0,0,0,4.426-4.948,21.218,21.218,0,0,0,1.634-6.2,29.764,29.764,0,0,1,1.23-5.817,12.976,12.976,0,0,1,2.952-4.588,14.275,14.275,0,0,1,8.683-4.054,14.044,14.044,0,0,1,7.774,1.67,17.273,17.273,0,0,1,4.834,3.8,23.448,23.448,0,0,1,2.988,4.416,1.275,1.275,0,0,0-.119-.336c-.1-.213-.216-.547-.435-.95a17,17,0,0,0-2.223-3.326,17.191,17.191,0,0,0-4.857-3.975,14.369,14.369,0,0,0-8-1.827,14.752,14.752,0,0,0-9.063,4.135,13.571,13.571,0,0,0-3.132,4.8,30.206,30.206,0,0,0-1.295,5.944,20.634,20.634,0,0,1-1.59,5.985,11.733,11.733,0,0,1-4.182,4.647,12.622,12.622,0,0,1-6.16,1.843c-2.2.2-4.676.4-6.7,1.882a5.375,5.375,0,0,0-2.093,3.046,8.325,8.325,0,0,0,.012,3.643c.461,2.335,1.406,4.432,1.425,6.611a5.2,5.2,0,0,1-.732,2.969,5.068,5.068,0,0,1-2.36,1.789c-.938.408-1.945.688-2.917,1.113a5.975,5.975,0,0,0-2.58,1.913,7.267,7.267,0,0,0-.757,6.078,19.777,19.777,0,0,0,2.511,5.151,20.03,20.03,0,0,1,2.306,4.648,12.529,12.529,0,0,1,.436,4.737,12.041,12.041,0,0,1-3.358,7.318,11.888,11.888,0,0,1-5.241,3.046A13.16,13.16,0,0,1,245.521,3019.778Z" transform="translate(-245.521 -2938.133)" fill="#455a64"/>
              </g>
            </g>
            <g id="Grupo_986428" data-name="Grupo 986428" transform="translate(0 6.919)">
              <g id="Grupo_986427" data-name="Grupo 986427">
                <path id="Trazado_658823" data-name="Trazado 658823" d="M225.078,2997.476a2.766,2.766,0,0,0-.414,1.058,4.767,4.767,0,0,0,.538,3.209,4.679,4.679,0,0,0,4.287,2.478,6.25,6.25,0,0,0,5.5-3.6,8.878,8.878,0,0,0,.895-3.946A12.4,12.4,0,0,0,235,2992.4c-1-2.8-2.8-5.53-2.843-8.8a6.1,6.1,0,0,1,1.456-4.449,6.211,6.211,0,0,1,4.562-1.469c1.72-.06,3.594.167,5.434-.581a4.754,4.754,0,0,0,2.234-1.94,7.084,7.084,0,0,0,.918-2.855,23.558,23.558,0,0,0-.454-5.754,13.03,13.03,0,0,1,.291-5.333,13.413,13.413,0,0,1,5.842-7.9c2.72-1.692,5.867-1.875,8.7-2.05a24.948,24.948,0,0,0,7.944-1.291,16.5,16.5,0,0,0,5.624-3.648,16.9,16.9,0,0,0,3.081-4.079,12.548,12.548,0,0,0,1.494-4.107,24.193,24.193,0,0,1-1.741,3.96,17.122,17.122,0,0,1-3.113,3.918,16.279,16.279,0,0,1-5.522,3.456,24.815,24.815,0,0,1-7.8,1.168c-2.835.153-6.1.3-9.012,2.074a14.071,14.071,0,0,0-6.191,8.306,13.759,13.759,0,0,0-.322,5.63,23.185,23.185,0,0,1,.449,5.565,4.831,4.831,0,0,1-2.7,4.194c-1.585.661-3.408.481-5.171.535a6.863,6.863,0,0,0-5.039,1.7,6.79,6.79,0,0,0-1.637,4.976,13.01,13.01,0,0,0,1.148,4.82c.608,1.467,1.287,2.829,1.8,4.19a11.844,11.844,0,0,1,.885,4.056,8.363,8.363,0,0,1-.791,3.7,5.823,5.823,0,0,1-5.044,3.42,4.552,4.552,0,0,1-2.494-.622,4.6,4.6,0,0,1-1.54-1.583,4.737,4.737,0,0,1-.639-3.033A11.152,11.152,0,0,1,225.078,2997.476Z" transform="translate(-224.578 -2938.135)" fill="#263238"/>
              </g>
            </g>
            <g id="Grupo_986430" data-name="Grupo 986430" transform="translate(95.387 22.189)">
              <g id="Grupo_986429" data-name="Grupo 986429">
                <path id="Trazado_658824" data-name="Trazado 658824" d="M377.835,3007.926a5.272,5.272,0,0,1-.041,3.385,4.268,4.268,0,0,1-8.294-1.281,9.183,9.183,0,0,1,.48-3.276c.667-2.191,2.026-4.575,1.818-7.431a10.546,10.546,0,0,0-3.817-7.479,11.751,11.751,0,0,0-3.912-2.125,16.923,16.923,0,0,0-4.47-.662,22.854,22.854,0,0,1-4.339-.468,5.756,5.756,0,0,1-3.378-2.165,7.474,7.474,0,0,1-1.221-3.83,15.014,15.014,0,0,1,.325-3.992c.514-2.585,1.265-5.1,1.125-7.572a11.689,11.689,0,0,0-2.242-6.287,14.48,14.48,0,0,0-4.09-3.563,27.034,27.034,0,0,1-3.27-2.33,8.677,8.677,0,0,1-2.057-2.725c-.012,0,.007.081.053.227a3.839,3.839,0,0,0,.251.635,6.911,6.911,0,0,0,1.562,2.082,25.012,25.012,0,0,0,3.237,2.465,14.365,14.365,0,0,1,3.9,3.528,11.22,11.22,0,0,1,2.051,6c.11,2.329-.632,4.768-1.18,7.4a15.683,15.683,0,0,0-.362,4.18,8.19,8.19,0,0,0,1.341,4.218,6.46,6.46,0,0,0,3.779,2.455,23.122,23.122,0,0,0,4.478.493,16.365,16.365,0,0,1,4.292.626,11.088,11.088,0,0,1,3.678,1.984,9.866,9.866,0,0,1,3.593,6.946c.221,2.612-1.037,4.9-1.724,7.2a9.723,9.723,0,0,0-.465,3.506,4.919,4.919,0,0,0,1.265,3.032,4.859,4.859,0,0,0,5.116,1.331,4.7,4.7,0,0,0,2.745-3.03,4.9,4.9,0,0,0,.121-2.634A2.76,2.76,0,0,0,377.835,3007.926Z" transform="translate(-340.448 -2956.123)" fill="#263238"/>
              </g>
            </g>
          </g>
        </g>
        <g id="Grupo_986435" data-name="Grupo 986435" transform="translate(127.078 105.728)">
          <path id="Trazado_658825" data-name="Trazado 658825" d="M328.524,3062.209s16.992,30.015,23.086,44.09c3.393,7.835,4.229,22.64-1.385,45.324-4.209,17.011,4.674,40.047,6.025,43.355,3.047,7.461-16.427,17.928-19.142,19.775-24.076,16.37-78.055-13.695-78.055-13.695l14.846-34.183L261.4,3138l-4.629-75.188,23.065-8.277c12.242,6.216,30.333,6.369,35.335,2.758Z" transform="translate(-256.773 -3054.535)" fill="#ef8b53"/>
          <g id="Grupo_986433" data-name="Grupo 986433" transform="translate(69.624 34.17)">
            <path id="Trazado_658826" data-name="Trazado 658826" d="M341.348,3225.716s.123-.043.37-.105l1.091-.264,1.772-.423,2.364-.781c.9-.274,1.831-.751,2.888-1.177,1.049-.448,2.129-1.072,3.315-1.679a52.164,52.164,0,0,0,7.413-5.25,54.887,54.887,0,0,0,7.65-8c.318-.385.6-.8.9-1.209s.6-.828.873-1.262c.294-.426.562-.87.82-1.324a6.261,6.261,0,0,0,.365-.691l.17-.351.092-.346a12.829,12.829,0,0,0-.206-3.207c-.173-1.091-.387-2.191-.63-3.3-.973-4.442-2.231-9.052-3.519-13.835-.645-2.391-1.309-4.823-1.945-7.3-.316-1.241-.628-2.493-.9-3.769-.137-.637-.261-1.281-.342-1.946a19.709,19.709,0,0,1-.071-1.991c.088-5.267.627-10.36,1.146-15.278l0-.014,0-.015c2.067-8.415,3.881-16.4,4.188-23.73a32.3,32.3,0,0,0-.2-5.31,37.885,37.885,0,0,0-1.143-4.849,71,71,0,0,0-3.044-8.355,93.779,93.779,0,0,0-5.818-11.281c-.763-1.274-1.385-2.238-1.809-2.889l-.482-.737a1.976,1.976,0,0,1-.157-.256,2.845,2.845,0,0,1,.189.232c.119.158.292.4.514.717.445.636,1.087,1.588,1.871,2.851a88.847,88.847,0,0,1,5.942,11.247,70.222,70.222,0,0,1,3.105,8.372,37.933,37.933,0,0,1,1.176,4.9,32.548,32.548,0,0,1,.221,5.373c-.286,7.388-2.089,15.4-4.147,23.824l0-.028c-.512,4.9-1.048,10.008-1.134,15.229a19.353,19.353,0,0,0,.068,1.94c.078.633.2,1.271.335,1.9.27,1.263.581,2.513.9,3.751.633,2.476,1.295,4.908,1.937,7.3,1.283,4.785,2.534,9.4,3.5,13.863.242,1.115.454,2.224.626,3.328a13.018,13.018,0,0,1,.2,3.334c-.038.144-.073.293-.118.432l-.179.37a6.483,6.483,0,0,1-.379.715c-.266.463-.541.915-.838,1.344s-.579.864-.888,1.273-.6.83-.916,1.217a54.774,54.774,0,0,1-7.735,8.008,51.571,51.571,0,0,1-7.491,5.225c-1.2.6-2.289,1.218-3.348,1.656-1.067.416-2.012.883-2.916,1.146l-2.385.745c-.7.167-1.3.28-1.788.383l-1.1.221C341.476,3225.7,341.348,3225.716,341.348,3225.716Z" transform="translate(-341.348 -3094.788)" fill="#263238"/>
          </g>
          <g id="Grupo_986434" data-name="Grupo 986434" transform="translate(92.183 64.015)" opacity="0.3">
            <path id="Trazado_658827" data-name="Trazado 658827" d="M375.385,3198.638a106.412,106.412,0,0,1-2.263-37.9c1.239-10.266,3.252-20.689,1.109-30.8.077,9.317-1.8,16.562-4.21,27.615-2.265,10.4-.841,15.47-.683,19.374" transform="translate(-368.751 -3129.946)"/>
          </g>
          <path id="Trazado_658828" data-name="Trazado 658828" d="M259.543,3212.723s4.434,2.091,8.508-4.324,9.009-27.908,9.7-30.208c.438-1.461,1.971-46.474,1.971-46.474l-7.105,42.721,1.775,4.1c-2.093,5.837-3.81,8.5-5.89,14.13C265.474,3200.866,262.135,3211.246,259.543,3212.723Z" transform="translate(-257.263 -3066.199)" opacity="0.3"/>
        </g>
        <g id="Grupo_986456" data-name="Grupo 986456" transform="translate(0 109.372)">
          <path id="Trazado_658829" data-name="Trazado 658829" d="M271.251,3121.131s-7.3,73.76-18.719,81.293a16.365,16.365,0,0,1-9.908,2.316c-12.776-.587-22.7-11.742-22.741-24.929-.044-15.644,2.52-36.9,3.5-45.641,1.963-17.508,8.846-65.09,26.868-69.993s21,21.762,21,21.762Z" transform="translate(-123.174 -3059.545)" fill="#ef8b53"/>
          <path id="Trazado_658830" data-name="Trazado 658830" d="M225.777,3058.861s-3.305,4.514-3.285,9.347c.007,1.379,2.474,11.394,2.474,11.394l10.2,8.082,19.053,6.34L252.7,3105l16.39,2.873s.324-13,0-21.2-9.894-16.438-9.894-16.438-7.948-9.868-11.355-9.366-3.244,4.349-1.623,6.524,6.164,7.36,6.164,7.36l-18.816-1.673-5.677-5.018s1.876-5.078,1.3-6.858A3.032,3.032,0,0,0,225.777,3058.861Z" transform="translate(-123.635 -3058.827)" fill="#ffbf9d"/>
          <g id="Grupo_986436" data-name="Grupo 986436" transform="translate(104.078 13.854)">
            <path id="Trazado_658831" data-name="Trazado 658831" d="M228.836,3075.152a9.888,9.888,0,0,1,1.779,1.1c1.068.728,2.526,1.76,4.12,2.922l.319.233-.244,0a6.194,6.194,0,0,1,4.666-.985,5.206,5.206,0,0,1,1.376.46c.3.159.454.274.443.3a18.565,18.565,0,0,0-1.865-.457,6.306,6.306,0,0,0-4.38,1.049l-.123.086-.122-.088-.319-.233c-1.595-1.161-3.025-2.234-4.048-3.027A10.157,10.157,0,0,1,228.836,3075.152Z" transform="translate(-228.834 -3075.148)" fill="#ff9a6c"/>
          </g>
          <g id="Grupo_986443" data-name="Grupo 986443" transform="translate(18.732 14.332)">
            <g id="Grupo_986437" data-name="Grupo 986437" transform="translate(63.213 7.617)">
              <path id="Trazado_658832" data-name="Trazado 658832" d="M223.349,3084.685c.1.059-4.6,9.045-10.512,20.068s-10.784,19.916-10.888,19.856,4.6-9.043,10.513-20.07S223.246,3084.626,223.349,3084.685Z" transform="translate(-201.948 -3084.685)" fill="#263238"/>
            </g>
            <g id="Grupo_986438" data-name="Grupo 986438" transform="translate(91.681)">
              <path id="Trazado_658833" data-name="Trazado 658833" d="M238.562,3075.712c.119.007-.235,8.451-.791,18.86s-1.1,18.843-1.218,18.836.235-8.449.79-18.86S238.444,3075.706,238.562,3075.712Z" transform="translate(-236.529 -3075.712)" fill="#263238"/>
            </g>
            <g id="Grupo_986439" data-name="Grupo 986439" transform="translate(94.477 0.211)">
              <path id="Trazado_658834" data-name="Trazado 658834" d="M239.941,3075.96c.119-.009.9,9.23,1.754,20.634s1.445,20.661,1.326,20.67-.9-9.228-1.753-20.636S239.823,3075.969,239.941,3075.96Z" transform="translate(-239.926 -3075.96)" fill="#263238"/>
            </g>
            <g id="Grupo_986442" data-name="Grupo 986442" transform="translate(0 26.295)">
              <path id="Trazado_658835" data-name="Trazado 658835" d="M125.161,3242.129l50.646-120.3,59.556-15.14-49.708,128.485Z" transform="translate(-125.161 -3106.688)" fill="#455a64"/>
              <path id="Trazado_658836" data-name="Trazado 658836" d="M151.458,3278.267,125.161,3265l60.493-6.956,33.618,16.381Z" transform="translate(-125.161 -3129.562)" fill="#455a64"/>
              <path id="Trazado_658837" data-name="Trazado 658837" d="M151.458,3278.267,125.161,3265l60.493-6.956,33.618,16.381Z" transform="translate(-125.161 -3129.562)" opacity="0.3"/>
              <path id="Trazado_658838" data-name="Trazado 658838" d="M248.353,3106.688l1.332,5.607,9.231-.288-26.653,139.546-33.618-16.381Z" transform="translate(-138.151 -3106.688)" fill="#455a64"/>
              <g id="Grupo_986440" data-name="Grupo 986440" transform="translate(60.123)">
                <path id="Trazado_658839" data-name="Trazado 658839" d="M248.273,3106.688s-.048.164-.161.475c-.12.326-.289.783-.509,1.376l-2,5.274-7.42,19.367c-6.308,16.35-15.013,38.913-24.628,63.832l-14.814,38.235-.268-.253,22.3-11.514.15-.077.063.158,8.232,20.464,2.219,5.573c.244.628.432,1.111.566,1.454s.179.5.179.5-.081-.161-.221-.484l-.607-1.436-2.294-5.541-8.361-20.409.213.081-22.262,11.586-.458.239.19-.492c4.467-11.562,9.484-24.549,14.776-38.25,9.661-24.9,18.406-47.446,24.744-63.784l7.546-19.314,2.071-5.243.549-1.359C248.2,3106.841,248.273,3106.688,248.273,3106.688Z" transform="translate(-198.195 -3106.688)" fill="#263238"/>
              </g>
              <g id="Grupo_986441" data-name="Grupo 986441" transform="translate(82.771 5.608)">
                <path id="Trazado_658840" data-name="Trazado 658840" d="M254.469,3113.294c.114.031-6.232,24.98-14.173,55.718s-14.474,55.64-14.588,55.609,6.23-24.975,14.174-55.722S254.354,3113.262,254.469,3113.294Z" transform="translate(-225.706 -3113.294)" fill="#263238"/>
              </g>
              <path id="Trazado_658841" data-name="Trazado 658841" d="M248.353,3106.688l1.332,5.607-28.761,111.326-22.279,11.551Z" transform="translate(-138.151 -3106.688)" opacity="0.3"/>
            </g>
          </g>
          <g id="Grupo_986449" data-name="Grupo 986449" transform="translate(0 12.237)">
            <g id="Grupo_986444" data-name="Grupo 986444" transform="translate(63.214)">
              <path id="Trazado_658842" data-name="Trazado 658842" d="M215.33,3073.243c.087.083-7.932,9.2-17.909,20.366s-18.139,20.152-18.225,20.068,7.93-9.2,17.91-20.368S215.243,3073.16,215.33,3073.243Z" transform="translate(-179.195 -3073.243)" fill="#263238"/>
            </g>
            <g id="Grupo_986447" data-name="Grupo 986447" transform="translate(0 19.189)">
              <path id="Trazado_658843" data-name="Trazado 658843" d="M102.407,3211.82l50.646-103.008,59.556-12.964L162.9,3205.864Z" transform="translate(-102.407 -3095.848)" fill="#ef8b53"/>
              <path id="Trazado_658844" data-name="Trazado 658844" d="M128.7,3242.764l-26.3-11.358,60.493-5.956,33.618,14.026Z" transform="translate(-102.407 -3115.434)" fill="#ef8b53"/>
              <path id="Trazado_658845" data-name="Trazado 658845" d="M128.7,3242.764l-26.3-11.358,60.493-5.956,33.618,14.026Z" transform="translate(-102.407 -3115.434)" opacity="0.3"/>
              <path id="Trazado_658846" data-name="Trazado 658846" d="M225.6,3095.848l1.332,4.8,9.231-.247L209.508,3219.89l-33.618-14.026Z" transform="translate(-115.397 -3095.848)" fill="#ef8b53"/>
              <g id="Grupo_986445" data-name="Grupo 986445" transform="translate(60.098)">
                <path id="Trazado_658847" data-name="Trazado 658847" d="M225.513,3095.848s-.049.144-.163.415l-.518,1.2-2.028,4.586-7.531,16.833-24.992,55.467-14.3,31.6-.255-.271,22.3-9.851.136-.059.064.136,8.235,17.531,2.219,4.777q.366.8.567,1.247c.126.282.179.432.179.432s-.081-.137-.22-.412l-.606-1.228c-.533-1.1-1.3-2.695-2.293-4.74l-8.359-17.468.2.076-22.263,9.929-.473.211.217-.482c4.349-9.638,9.182-20.35,14.266-31.618L215,3118.748l7.654-16.775c.906-1.963,1.613-3.494,2.1-4.552.239-.5.423-.9.556-1.178C225.437,3095.979,225.513,3095.848,225.513,3095.848Z" transform="translate(-175.41 -3095.848)" fill="#263238"/>
              </g>
              <g id="Grupo_986446" data-name="Grupo 986446" transform="translate(82.771 4.801)">
                <path id="Trazado_658848" data-name="Trazado 658848" d="M231.714,3101.5c.114.037-6.233,21.406-14.175,47.726s-14.472,47.635-14.586,47.6,6.233-21.4,14.177-47.731S231.6,3101.467,231.714,3101.5Z" transform="translate(-202.951 -3101.504)" fill="#263238"/>
              </g>
              <path id="Trazado_658849" data-name="Trazado 658849" d="M225.6,3095.848l1.332,4.8-28.761,95.324-22.279,9.89Z" transform="translate(-115.397 -3095.848)" opacity="0.3"/>
            </g>
            <g id="Grupo_986448" data-name="Grupo 986448" transform="translate(75.01 18.932)">
              <path id="Trazado_658850" data-name="Trazado 658850" d="M193.524,3103.462a3.463,3.463,0,0,1,.622-.181l1.8-.435,6.646-1.518,21.959-4.846,4.117-.895.193-.042.054.2,1.325,4.8-.2-.154,9.232-.215.228-.005-.053.226-2.27,9.834c-.275,1.142-.495,2.053-.656,2.721-.074.286-.135.52-.184.711a.952.952,0,0,1-.081.238.9.9,0,0,1,.028-.251c.037-.194.081-.432.135-.722l.563-2.743,2.125-9.869.175.221-9.23.278-.159.005-.044-.159-1.339-4.8.248.154-4.115.9-21.986,4.72-6.674,1.381-1.819.353A3.588,3.588,0,0,1,193.524,3103.462Z" transform="translate(-193.524 -3095.546)" fill="#263238"/>
            </g>
          </g>
          <g id="Grupo_986450" data-name="Grupo 986450" transform="translate(99.335 9.729)">
            <path id="Trazado_658851" data-name="Trazado 658851" d="M236.643,3084.324a14.13,14.13,0,0,0-2.107-2.52,9.232,9.232,0,0,0-3-1.776c-.613-.235-1.289-.323-2.02-.561a2.539,2.539,0,0,1-1.032-.623,2.25,2.25,0,0,1-.547-1.154c-.142-.842-.057-1.6-.168-2.325a9.924,9.924,0,0,0-.476-2.051,7.333,7.333,0,0,0-.813-1.7,2.3,2.3,0,0,0-1.231-.918,1.808,1.808,0,0,0-1.241-.036,1.247,1.247,0,0,0-.65.68c-.219.513-.227.852-.274.843-.015,0-.018-.082-.011-.238a2.257,2.257,0,0,1,.131-.673,1.415,1.415,0,0,1,.708-.839,2.02,2.02,0,0,1,1.427-.036,2.585,2.585,0,0,1,1.425,1,7.4,7.4,0,0,1,.9,1.777,9.951,9.951,0,0,1,.522,2.136c.119.76.044,1.569.172,2.3a1.817,1.817,0,0,0,.432.933,2.153,2.153,0,0,0,.862.519c.653.221,1.377.33,2.016.586a9.1,9.1,0,0,1,3.067,1.927,8.618,8.618,0,0,1,1.53,1.928A2.766,2.766,0,0,1,236.643,3084.324Z" transform="translate(-223.072 -3070.289)" fill="#ff9a6c"/>
          </g>
          <g id="Grupo_986451" data-name="Grupo 986451" transform="translate(99.244 0.121)">
            <path id="Trazado_658852" data-name="Trazado 658852" d="M226.744,3058.973a15.822,15.822,0,0,1-.915,1.5,17.65,17.65,0,0,0-1.651,3.862,58.309,58.309,0,0,0-1.153,5.9,5.953,5.953,0,0,1-.023-1.787,19.844,19.844,0,0,1,.767-4.244,14.128,14.128,0,0,1,1.807-3.9A4.622,4.622,0,0,1,226.744,3058.973Z" transform="translate(-222.962 -3058.971)" fill="#ff9a6c"/>
          </g>
          <g id="Grupo_986452" data-name="Grupo 986452" transform="translate(95.082 10.177)">
            <path id="Trazado_658853" data-name="Trazado 658853" d="M228.144,3070.817c.109.048-2.094,5.581-4.92,12.356s-5.205,12.23-5.314,12.182,2.093-5.58,4.92-12.357S228.035,3070.769,228.144,3070.817Z" transform="translate(-217.906 -3070.816)" fill="#263238"/>
          </g>
          <g id="Grupo_986453" data-name="Grupo 986453" transform="translate(101.16 11.656)">
            <path id="Trazado_658854" data-name="Trazado 658854" d="M231.122,3072.559c.114.032-1.1,4.9-2.706,10.877s-3.006,10.793-3.119,10.76,1.1-4.9,2.706-10.878S231.008,3072.526,231.122,3072.559Z" transform="translate(-225.289 -3072.559)" fill="#263238"/>
          </g>
          <g id="Grupo_986454" data-name="Grupo 986454" transform="translate(117.608 14.949)">
            <path id="Trazado_658855" data-name="Trazado 658855" d="M261.152,3078.122a72.387,72.387,0,0,1-7.963-.608,72.545,72.545,0,0,1-7.92-1.048,72.191,72.191,0,0,1,7.964.608A72.4,72.4,0,0,1,261.152,3078.122Z" transform="translate(-245.269 -3076.438)" fill="#ff9a6c"/>
          </g>
          <g id="Grupo_986455" data-name="Grupo 986455" transform="translate(127.105 8.658)">
            <path id="Trazado_658856" data-name="Trazado 658856" d="M260.287,3069.032a4.066,4.066,0,0,1-1.425,1.9,3.894,3.894,0,0,1-2.053,1.131c-.054-.116.831-.638,1.777-1.469S260.185,3068.958,260.287,3069.032Z" transform="translate(-256.806 -3069.027)" fill="#ff9a6c"/>
          </g>
        </g>
        <g id="Grupo_986457" data-name="Grupo 986457" transform="translate(122.393 157.368)">
          <path id="Trazado_658857" data-name="Trazado 658857" d="M268.186,3115.369a.866.866,0,0,1,.2.019l.578.092,2.241.391,8.44,1.543.119.022-.013.125c-1.1,10.349-3.117,26.958-6.62,45.43-1.483,7.856-3.122,15.294-4.763,22.018a123.527,123.527,0,0,1-4.915,17.708,15.461,15.461,0,0,1-3.7,5.948,14.477,14.477,0,0,1-4.357,2.9,12.5,12.5,0,0,1-3.169.875,7.745,7.745,0,0,1-1.142.074,1.475,1.475,0,0,1,.287-.046c.191-.018.473-.061.841-.117a13.338,13.338,0,0,0,3.118-.945,14.559,14.559,0,0,0,4.258-2.924,15.293,15.293,0,0,0,3.583-5.885,126.76,126.76,0,0,0,4.813-17.688c1.619-6.724,3.244-14.156,4.726-22,3.5-18.454,5.585-35.041,6.782-45.375l.105.146-8.417-1.665-2.228-.459-.571-.127A.765.765,0,0,1,268.186,3115.369Z" transform="translate(-251.082 -3115.367)" fill="#263238"/>
        </g>
      </g>
      <g id="Grupo_986479" data-name="Grupo 986479" transform="translate(275.281 46.277)">
        <g id="Grupo_986472" data-name="Grupo 986472">
          <g id="Grupo_986471" data-name="Grupo 986471">
            <g id="Grupo_986470" data-name="Grupo 986470">
              <g id="Grupo_986469" data-name="Grupo 986469">
                <g id="Grupo_986468" data-name="Grupo 986468">
                  <g id="Grupo_986462" data-name="Grupo 986462" transform="translate(0.124 0.2)">
                    <g id="Grupo_986461" data-name="Grupo 986461">
                      <g id="Grupo_986460" data-name="Grupo 986460">
                        <g id="Grupo_986459" data-name="Grupo 986459">
                          <path id="Trazado_658858" data-name="Trazado 658858" d="M395.714,3005.409l3.216-9.99a34.1,34.1,0,0,1-5.442-17.381c-.659-18.522,13.367-34.087,31.329-34.767s33.057,13.784,33.716,32.307-13.367,34.087-31.329,34.766a31.716,31.716,0,0,1-20.153-6.271l.012.015Z" transform="translate(-393.467 -2943.248)" fill="#fff"/>
                        </g>
                      </g>
                    </g>
                  </g>
                  <g id="Grupo_986467" data-name="Grupo 986467">
                    <g id="Grupo_986466" data-name="Grupo 986466">
                      <g id="Grupo_986465" data-name="Grupo 986465">
                        <g id="Grupo_986464" data-name="Grupo 986464">
                          <g id="Grupo_986463" data-name="Grupo 986463">
                            <path id="Trazado_658859" data-name="Trazado 658859" d="M395.688,3005.373s.261-.04.753-.1l2.18-.277,8.4-1.044-.067.171-.012-.015a.107.107,0,0,1,.013-.148.1.1,0,0,1,.124,0,31.989,31.989,0,0,0,14.952,5.969,30.878,30.878,0,0,0,5.014.219,35.569,35.569,0,0,0,5.325-.684,31.684,31.684,0,0,0,10.806-4.46,32.875,32.875,0,0,0,9.246-9.1,34.049,34.049,0,0,0-2.8-41.8,31.8,31.8,0,0,0-27.832-10.363,31.245,31.245,0,0,0-13.165,4.939,33.084,33.084,0,0,0-9.333,9.3,33.934,33.934,0,0,0-4.785,11.1l-.3,1.4a9.24,9.24,0,0,0-.234,1.387q-.158,1.388-.31,2.73a47.612,47.612,0,0,0,.059,5.207,34.11,34.11,0,0,0,5.255,15.525.106.106,0,0,1,.012.087l-2.439,7.379-.64,1.917c-.145.434-.229.662-.229.662s.057-.207.188-.631l.59-1.9,2.346-7.486.012.087a34.077,34.077,0,0,1-5.394-15.609,47.7,47.7,0,0,1-.083-5.256l.3-2.76a9.44,9.44,0,0,1,.231-1.4q.147-.7.3-1.414a34.225,34.225,0,0,1,4.805-11.247,33.438,33.438,0,0,1,9.426-9.442,31.62,31.62,0,0,1,13.333-5.026,32.2,32.2,0,0,1,28.223,10.49,14.984,14.984,0,0,1,1.3,1.543l1.236,1.589,1.082,1.694a14.109,14.109,0,0,1,1.009,1.727q.454.891.908,1.777c.319.583.51,1.226.77,1.832.233.619.508,1.221.706,1.849q.273.95.545,1.9a34.429,34.429,0,0,1-4.749,28.469,33.236,33.236,0,0,1-9.381,9.187,31.974,31.974,0,0,1-10.944,4.476,35.763,35.763,0,0,1-5.383.669,31.174,31.174,0,0,1-5.062-.244,32.007,32.007,0,0,1-15.034-6.112l.137-.152.012.014a.106.106,0,0,1-.012.147.1.1,0,0,1-.054.024l-8.492.923-2.155.228C395.921,3005.357,395.688,3005.373,395.688,3005.373Z" transform="translate(-393.316 -2943.012)" fill="#263238"/>
                          </g>
                        </g>
                      </g>
                    </g>
                  </g>
                </g>
              </g>
            </g>
          </g>
        </g>
        <g id="Grupo_986478" data-name="Grupo 986478" transform="translate(17.635 20.492)">
          <g id="Grupo_986477" data-name="Grupo 986477">
            <g id="Grupo_986476" data-name="Grupo 986476">
              <g id="Grupo_986475" data-name="Grupo 986475">
                <g id="Grupo_986474" data-name="Grupo 986474">
                  <g id="Grupo_986473" data-name="Grupo 986473">
                    <path id="Trazado_658860" data-name="Trazado 658860" d="M414.738,2981.317l4.545-5.184,9.644,7.981,14.323-16.962,4.685,4.7-19.227,21.811Z" transform="translate(-414.738 -2967.153)" fill="#ef8b53"/>
                  </g>
                </g>
              </g>
            </g>
          </g>
        </g>
      </g>
    </g>
  </g>
</svg>
