<svg xmlns="http://www.w3.org/2000/svg" width="85" height="85" viewBox="0 0 85 85">
  <g id="Grupo_985987" data-name="Grupo 985987" transform="translate(-285 -5589)">
    <rect id="Rectángulo_306095" data-name="Rectángulo 306095" width="85" height="85" transform="translate(285 5589)" fill="none"/>
    <g id="bolsa-de-la-compra" transform="translate(286.266 5600.606)">
      <path id="Trazado_658746" data-name="Trazado 658746" d="M88.239,15.525H72.714a1.035,1.035,0,0,1-1.035-1.035V8.8a8.8,8.8,0,1,1,17.594,0V14.49A1.035,1.035,0,0,1,88.239,15.525Zm-14.49-2.07H87.2V8.8a6.727,6.727,0,1,0-13.455,0Z" transform="translate(-39.243)"/>
      <path id="Trazado_658747" data-name="Trazado 658747" d="M71.137,52.962H25.6l3.1-5.175H68.032Z" transform="translate(-7.135 -33.297)" fill="#8c6b3b"/>
      <path id="Trazado_658748" data-name="Trazado 658748" d="M68.759,51.617H23.219a1.035,1.035,0,0,1-.888-1.568l3.1-5.175a1.034,1.034,0,0,1,.888-.5H65.654a1.034,1.034,0,0,1,.888.5l3.1,5.175a1.035,1.035,0,0,1-.888,1.568Zm-43.711-2.07H66.931l-1.863-3.1H26.911Z" transform="translate(-4.756 -30.918)"/>
      <rect id="Rectángulo_310562" data-name="Rectángulo 310562" width="14.489" height="15.524" transform="translate(55.317 25.245) rotate(-166.838)" fill="#83d816"/>
      <path id="Trazado_658749" data-name="Trazado 658749" d="M112.34,39.61a1.047,1.047,0,0,1-.237-.027l-14.109-3.3a1.035,1.035,0,0,1-.772-1.243l3.536-15.116A1.033,1.033,0,0,1,102,19.151l14.109,3.3a1.035,1.035,0,0,1,.772,1.243l-3.536,15.116A1.035,1.035,0,0,1,112.34,39.61ZM99.473,34.5l12.094,2.829,3.064-13.1L102.537,21.4Z" transform="translate(-57.022 -13.325)"/>
      <rect id="Rectángulo_310563" data-name="Rectángulo 310563" width="17.431" height="18.677" transform="translate(42.003 22.726) rotate(173.258)" fill="#2a8ee6"/>
      <path id="Trazado_658750" data-name="Trazado 658750" d="M38.722,33.037a1.035,1.035,0,0,1-1.027-.914L35.5,13.576a1.036,1.036,0,0,1,.906-1.149L53.72,10.381a1.036,1.036,0,0,1,1.149.907l2.192,18.547a1.036,1.036,0,0,1-.906,1.149L38.845,33.03A1.129,1.129,0,0,1,38.722,33.037ZM37.68,14.361,39.63,30.853l15.255-1.8L52.935,12.558Z" transform="translate(-14.032 -7.228)"/>
      <rect id="Rectángulo_310564" data-name="Rectángulo 310564" width="17.15" height="18.048" transform="matrix(-0.972, 0.234, -0.234, -0.972, 51.127, 28.518)" fill="#ed5481"/>
      <path id="Trazado_658751" data-name="Trazado 658751" d="M66.251,56.4a1.035,1.035,0,0,1-1.005-.793l-4.22-17.547a1.035,1.035,0,0,1,.764-1.248L78.463,32.8a1.034,1.034,0,0,1,1.248.764l4.22,17.548a1.035,1.035,0,0,1-.764,1.248L66.493,56.368A1.011,1.011,0,0,1,66.251,56.4ZM63.28,38.578l3.736,15.536,14.661-3.525L77.94,35.054Z" transform="translate(-31.8 -22.834)"/>
      <path id="Trazado_658752" data-name="Trazado 658752" d="M68.451,105.217H18.772l2.07-40.364H66.381Z" transform="translate(-2.378 -45.189)" fill="#fbad4a"/>
      <path id="Trazado_658753" data-name="Trazado 658753" d="M66.073,103.875H16.394a1.035,1.035,0,0,1-1.034-1.088l2.07-40.364a1.035,1.035,0,0,1,1.034-.982H64a1.035,1.035,0,0,1,1.034.982l2.07,40.364a1.035,1.035,0,0,1-1.035,1.088Zm-48.59-2.07h47.5L63.019,63.511H19.447Z" transform="translate(0 -42.811)"/>
      <circle id="Elipse_7726" data-name="Elipse 7726" cx="2.07" cy="2.07" r="2.07" transform="translate(46.925 23.804)" fill="#8c6b3b"/>
      <path id="Trazado_658754" data-name="Trazado 658754" d="M119.157,81.3a3.1,3.1,0,1,1,3.1-3.1A3.108,3.108,0,0,1,119.157,81.3Zm0-4.14a1.035,1.035,0,1,0,1.035,1.035A1.036,1.036,0,0,0,119.157,77.163Z" transform="translate(-70.161 -52.324)"/>
      <circle id="Elipse_7727" data-name="Elipse 7727" cx="2.07" cy="2.07" r="2.07" transform="translate(31.401 23.804)" fill="#8c6b3b"/>
      <path id="Trazado_658755" data-name="Trazado 658755" d="M67.957,81.3a3.1,3.1,0,1,1,3.1-3.1A3.108,3.108,0,0,1,67.957,81.3Zm0-4.14A1.035,1.035,0,1,0,68.992,78.2,1.036,1.036,0,0,0,67.957,77.163Z" transform="translate(-34.486 -52.324)"/>
      <path id="Trazado_658756" data-name="Trazado 658756" d="M80.476,100.858a8.807,8.807,0,0,1-8.8-8.8V86.369a1.035,1.035,0,1,1,2.07,0v5.692a6.727,6.727,0,1,0,13.455,0V86.768a1.022,1.022,0,0,1-.08-.4,1.035,1.035,0,0,1,1.035-1.035h.08a1.035,1.035,0,0,1,1.035,1.035v5.692A8.807,8.807,0,0,1,80.476,100.858Z" transform="translate(-39.243 -59.459)"/>
    </g>
  </g>
</svg>
