<svg xmlns="http://www.w3.org/2000/svg" width="135.354" height="134.664" viewBox="0 0 135.354 134.664">
  <g id="Grupo_986516" data-name="Grupo 986516" transform="translate(-985 -14249.234)">
    <path id="Trazado_626454" data-name="Trazado 626454" d="M0,0H135.354V134.664H0Z" transform="translate(985 14249.234)" fill="#f0bd51"/>
    <g id="logistica_5_" data-name="logistica(5)" transform="translate(1011.752 14275.093)">
      <g id="Grupo_986514" data-name="Grupo 986514" transform="translate(1.32 1.32)">
        <g id="Grupo_986497" data-name="Grupo 986497" transform="translate(39.604 47.525)">
          <path id="Trazado_658861" data-name="Trazado 658861" d="M38.921,52.842a7.926,7.926,0,0,0-7.472,5.281H31V37H44.782a2.629,2.629,0,0,1,2.561,1.993l.818,3.287H40.241a1.324,1.324,0,0,0-1.32,1.32v2.64a1.324,1.324,0,0,0,1.32,1.32h9.241L51,53.647l1.043,4.158a1.325,1.325,0,0,1,.053.317h-5.7a7.926,7.926,0,0,0-7.472-5.281Z" transform="translate(-31 -37)" fill="#fcd770"/>
        </g>
        <g id="Grupo_986498" data-name="Grupo 986498" transform="translate(2.64 39.604)">
          <path id="Trazado_658862" data-name="Trazado 658862" d="M38.644,31H4.32A1.324,1.324,0,0,0,3,32.32V60.043H39.964V32.32A1.324,1.324,0,0,0,38.644,31Z" transform="translate(-3 -31)" fill="#d3a06c"/>
        </g>
        <g id="Grupo_986499" data-name="Grupo 986499" transform="translate(15.842 39.604)">
          <path id="Trazado_658863" data-name="Trazado 658863" d="M23.561,31v9.241L18.281,37.6,13,40.241V31Z" transform="translate(-13 -31)" fill="#b27946"/>
        </g>
        <g id="Grupo_986500" data-name="Grupo 986500" transform="translate(47.525 52.805)">
          <path id="Trazado_658864" data-name="Trazado 658864" d="M46.241,41l1.32,5.281H38.32A1.324,1.324,0,0,1,37,44.96V42.32A1.324,1.324,0,0,1,38.32,41Z" transform="translate(-37 -41)" fill="#69d6f4"/>
        </g>
        <g id="Grupo_986501" data-name="Grupo 986501" transform="translate(39.604 63.366)">
          <path id="Trazado_658865" data-name="Trazado 658865" d="M31.449,54.281A7.99,7.99,0,1,1,31,56.921,7.926,7.926,0,0,1,31.449,54.281Z" transform="translate(-31 -49)" fill="#969faa"/>
        </g>
        <g id="Grupo_986502" data-name="Grupo 986502" transform="translate(7.921 63.366)">
          <path id="Trazado_658866" data-name="Trazado 658866" d="M22.393,54.281A7.927,7.927,0,1,1,14.921,49,7.977,7.977,0,0,1,22.393,54.281Z" transform="translate(-7 -49)" fill="#969faa"/>
        </g>
        <g id="Grupo_986503" data-name="Grupo 986503" transform="translate(54.997 68.647)">
          <path id="Trazado_658867" data-name="Trazado 658867" d="M43.109,55.64A7.977,7.977,0,0,0,42.66,53h5.7a1.339,1.339,0,0,1,.026.33v3.63a1.324,1.324,0,0,1-1.32,1.32H42.66A7.977,7.977,0,0,0,43.109,55.64Z" transform="translate(-42.66 -53)" fill="#ccd1d9"/>
        </g>
        <g id="Grupo_986504" data-name="Grupo 986504" transform="translate(45.055 68.704)">
          <circle id="Elipse_7728" data-name="Elipse 7728" cx="2.687" cy="2.687" r="2.687" transform="translate(0 0)" fill="#ccd1d9"/>
        </g>
        <g id="Grupo_986505" data-name="Grupo 986505" transform="translate(23.314 68.647)">
          <path id="Trazado_658868" data-name="Trazado 658868" d="M34.95,55.64a7.977,7.977,0,0,0,.449,2.64H18.66a7.99,7.99,0,0,0,0-5.281H35.4A7.977,7.977,0,0,0,34.95,55.64Z" transform="translate(-18.66 -53)" fill="#ccd1d9"/>
        </g>
        <g id="Grupo_986506" data-name="Grupo 986506" transform="translate(12.806 68.704)">
          <circle id="Elipse_7729" data-name="Elipse 7729" cx="2.687" cy="2.687" r="2.687" transform="translate(0 0)" fill="#ccd1d9"/>
        </g>
        <g id="Grupo_986507" data-name="Grupo 986507" transform="translate(0 68.647)">
          <path id="Trazado_658869" data-name="Trazado 658869" d="M8.921,55.64a7.977,7.977,0,0,0,.449,2.64H2.32A1.324,1.324,0,0,1,1,56.96V54.32A1.324,1.324,0,0,1,2.32,53H9.37A7.977,7.977,0,0,0,8.921,55.64Z" transform="translate(-1 -53)" fill="#ccd1d9"/>
        </g>
        <g id="Grupo_986508" data-name="Grupo 986508" transform="translate(63.366 42.244)">
          <path id="Trazado_658870" data-name="Trazado 658870" d="M64.842,40.921a7.91,7.91,0,0,1-1.584,4.752l-6.337,8.449-5-6.667-1.333-1.782A7.926,7.926,0,0,1,56.815,33h.106a7.933,7.933,0,0,1,7.921,7.921Z" transform="translate(-49 -33)" fill="#ff826e"/>
        </g>
        <g id="Grupo_986509" data-name="Grupo 986509" transform="translate(39.604)">
          <path id="Trazado_658871" data-name="Trazado 658871" d="M60.043,15.521v.264a14.5,14.5,0,0,1-2.3,7.828,13.581,13.581,0,0,1-.805,1.135L45.521,39.284,34.1,24.749A14.539,14.539,0,0,1,31,15.785v-.264a14.521,14.521,0,1,1,29.043,0Z" transform="translate(-31 -1)" fill="#ff826e"/>
        </g>
        <g id="Grupo_986510" data-name="Grupo 986510" transform="translate(10.561 7.921)">
          <path id="Trazado_658872" data-name="Trazado 658872" d="M23.508,10.525a7.917,7.917,0,0,1-.251,9.149l-6.337,8.449-5.254-7-1.083-1.452a7.92,7.92,0,1,1,12.924-9.149Z" transform="translate(-9 -7)" fill="#ff826e"/>
        </g>
        <g id="Grupo_986511" data-name="Grupo 986511" transform="translate(68.703 47.205)">
          <circle id="Elipse_7730" data-name="Elipse 7730" cx="2.687" cy="2.687" r="2.687" transform="translate(0 0)" fill="#ffeaa7"/>
        </g>
        <g id="Grupo_986512" data-name="Grupo 986512" transform="translate(45.055 5.282)">
          <circle id="Elipse_7731" data-name="Elipse 7731" cx="9.137" cy="9.137" r="9.137" transform="translate(0 0)" fill="#ffeaa7"/>
        </g>
        <g id="Grupo_986513" data-name="Grupo 986513" transform="translate(16.031 12.807)">
          <circle id="Elipse_7732" data-name="Elipse 7732" cx="2.687" cy="2.687" r="2.687" transform="translate(0 0)" fill="#ffeaa7"/>
        </g>
      </g>
      <g id="Grupo_986515" data-name="Grupo 986515" transform="translate(0 0)">
        <path id="Trazado_658873" data-name="Trazado 658873" d="M37.96,52a3.96,3.96,0,1,0,3.96,3.96A3.965,3.965,0,0,0,37.96,52Zm0,5.281a1.32,1.32,0,1,1,1.32-1.32A1.321,1.321,0,0,1,37.96,57.281Z" transform="translate(10.884 16.647)"/>
        <path id="Trazado_658874" data-name="Trazado 658874" d="M13.96,52a3.96,3.96,0,1,0,3.96,3.96A3.965,3.965,0,0,0,13.96,52Zm0,5.281a1.32,1.32,0,1,1,1.32-1.32A1.321,1.321,0,0,1,13.96,57.281Z" transform="translate(3.201 16.647)"/>
        <path id="Trazado_658875" data-name="Trazado 658875" d="M15.96,17.921A3.96,3.96,0,1,0,12,13.96,3.965,3.965,0,0,0,15.96,17.921Zm0-5.281a1.32,1.32,0,1,1-1.32,1.32A1.321,1.321,0,0,1,15.96,12.64Z" transform="translate(3.842 3.201)"/>
        <path id="Trazado_658876" data-name="Trazado 658876" d="M55.96,36a3.96,3.96,0,1,0,3.96,3.96A3.965,3.965,0,0,0,55.96,36Zm0,5.281a1.32,1.32,0,1,1,1.32-1.32A1.321,1.321,0,0,1,55.96,41.281Z" transform="translate(16.647 11.525)"/>
        <path id="Trazado_658877" data-name="Trazado 658877" d="M73.869,42.341c.02-.473.058-.945.058-1.417A32.891,32.891,0,0,0,69.2,23.934,15.9,15.9,0,0,0,71.287,16.1v-.259A15.829,15.829,0,0,0,41.731,7.947a33.383,33.383,0,0,0-14.953,3.172A9.234,9.234,0,0,0,12.409,22.7l.547.729A32.8,32.8,0,0,0,7.97,39.6H5.281a2.643,2.643,0,0,0-2.64,2.64v26.4A2.643,2.643,0,0,0,0,71.287v2.64a2.643,2.643,0,0,0,2.64,2.64H8.825a9.221,9.221,0,0,0,16.673,0h15.01a9.221,9.221,0,0,0,16.673,0h3.545a2.643,2.643,0,0,0,2.64-2.64V70.292a4.023,4.023,0,0,0-.117-.961l-.845-3.38a33.007,33.007,0,0,0,5.238-5.686l4.965,6.622L80,57.03a9.233,9.233,0,0,0-6.131-14.689ZM55.446,2.64a13.216,13.216,0,0,1,13.2,13.2V16.1a13.257,13.257,0,0,1-2.821,8.156L55.446,37.468,45.065,24.255A13.254,13.254,0,0,1,42.244,16.1v-.257A13.216,13.216,0,0,1,55.446,2.64ZM19.8,10.561a6.6,6.6,0,0,1,5.281,10.56L19.8,28.162l-5.281-7.042A6.6,6.6,0,0,1,19.8,10.561ZM5.281,42.244H15.842V52.3l6.6-3.3,6.6,3.3V42.244H39.6v26.4H25.5a9.221,9.221,0,0,0-16.673,0H5.281Zm13.2,0H26.4v5.785l-3.96-1.98-3.96,1.98Zm23.762,7.921H54.7a1.319,1.319,0,0,1,1.281,1l.411,1.641h-6.23a2.643,2.643,0,0,0-2.64,2.64v2.64a2.643,2.643,0,0,0,2.64,2.64h8.21l1.98,7.921H57.181a9.217,9.217,0,0,0-14.937-2.494Zm15.471,7.921h-7.55v-2.64h6.89ZM2.64,73.927v-2.64H8.026a8.3,8.3,0,0,0,0,2.64Zm14.521,5.281a6.6,6.6,0,1,1,6.6-6.6A6.608,6.608,0,0,1,17.162,79.208ZM26.3,73.927a8.3,8.3,0,0,0,0-2.64H39.71a8.3,8.3,0,0,0,0,2.64Zm22.548,5.281a6.6,6.6,0,1,1,6.6-6.6A6.608,6.608,0,0,1,48.845,79.208Zm9.135-5.281a8.3,8.3,0,0,0,0-2.64h2.746v2.64Zm3.7-10.858L58.547,50.524a3.957,3.957,0,0,0-3.843-3H42.244V42.244A2.643,2.643,0,0,0,39.6,39.6h-29a30.169,30.169,0,0,1,4.049-13.9L19.8,32.564l7.393-9.857a9.294,9.294,0,0,0,1.848-5.545,9.167,9.167,0,0,0-.832-3.809,29.963,29.963,0,0,1,12.312-2.78,15.771,15.771,0,0,0-.919,5.269V16.1a15.91,15.91,0,0,0,3.385,9.787L55.446,41.74,67.551,26.333a30.282,30.282,0,0,1,3.736,14.591c0,.477-.037.956-.058,1.435a9.23,9.23,0,0,0-6.015,14.669l.762,1.016a30.414,30.414,0,0,1-4.293,5.024Zm16.2-7.625-5.281,7.042-5.281-7.042a6.6,6.6,0,1,1,10.561,0Z" transform="translate(0 0)"/>
        <path id="Trazado_658878" data-name="Trazado 658878" d="M44.561,25.122A10.561,10.561,0,1,0,34,14.561,10.573,10.573,0,0,0,44.561,25.122Zm0-18.482a7.921,7.921,0,1,1-7.921,7.921A7.929,7.929,0,0,1,44.561,6.64Z" transform="translate(10.884 1.281)"/>
        <path id="Trazado_658879" data-name="Trazado 658879" d="M24,26h2.64v2.64H24Z" transform="translate(7.683 8.323)"/>
        <path id="Trazado_658880" data-name="Trazado 658880" d="M28,26h2.64v2.64H28Z" transform="translate(8.964 8.323)"/>
        <path id="Trazado_658881" data-name="Trazado 658881" d="M32,26h2.64v2.64H32Z" transform="translate(10.244 8.323)"/>
      </g>
    </g>
  </g>
</svg>
