<svg xmlns="http://www.w3.org/2000/svg" width="135.354" height="134.664" viewBox="0 0 135.354 134.664">
  <g id="Grupo_986517" data-name="Grupo 986517" transform="translate(-985 -14249.234)">
    <path id="Trazado_626454" data-name="Trazado 626454" d="M0,0H135.354V134.664H0Z" transform="translate(985 14249.234)" fill="#f0bd51"/>
    <g id="servicio-al-cliente" transform="translate(1010.096 14274.46)">
      <path id="Trazado_658893" data-name="Trazado 658893" d="M151.428,113.807V104.3a16.3,16.3,0,0,1,16.3-16.3h0a16.3,16.3,0,0,1,16.3,16.3v9.508Z" transform="translate(-125.243 -73.059)" fill="#d3a06c"/>
      <path id="Trazado_658894" data-name="Trazado 658894" d="M240.786,88c-.459,0-.909.031-1.358.068A16.293,16.293,0,0,1,254.369,104.3v9.508h2.717V104.3A16.3,16.3,0,0,0,240.786,88Z" transform="translate(-198.302 -73.059)" fill="#b27946"/>
      <path id="Trazado_658895" data-name="Trazado 658895" d="M129.085,350.941h29.882l-2.549-7.647a8.151,8.151,0,0,0-6.274-5.441L139.952,336H129.085l-10.194,1.853a8.151,8.151,0,0,0-6.274,5.441l-1.19,5.407v2.24Z" transform="translate(-92.034 -278.953)" fill="#92e0c0"/>
      <g id="Grupo_986518" data-name="Grupo 986518" transform="translate(26.185 29.882)">
        <path id="Trazado_658896" data-name="Trazado 658896" d="M215.428,312v4.075l5.433,5.433,5.433-5.433V312Z" transform="translate(-204.562 -288.909)" fill="#f9e0a6"/>
        <path id="Trazado_658897" data-name="Trazado 658897" d="M311.428,216h1.358a4.075,4.075,0,0,1,4.075,4.075h0a4.075,4.075,0,0,1-4.075,4.075h-1.358Z" transform="translate(-284.263 -209.209)" fill="#f9e0a6"/>
        <path id="Trazado_658898" data-name="Trazado 658898" d="M156.861,216H155.5a4.075,4.075,0,0,0-4.075,4.075h0a4.075,4.075,0,0,0,4.075,4.075h1.358Z" transform="translate(-151.428 -209.209)" fill="#f9e0a6"/>
        <path id="Trazado_658899" data-name="Trazado 658899" d="M175.428,181.433v8.15a12.224,12.224,0,0,0,12.224,12.224h0a12.224,12.224,0,0,0,12.224-12.224v-8.15h0a16.4,16.4,0,0,1-11.594-4.8l-.63-.63-.63.63a16.4,16.4,0,0,1-11.594,4.8Z" transform="translate(-171.353 -176)" fill="#f9e0a6"/>
      </g>
      <path id="Trazado_658900" data-name="Trazado 658900" d="M250.294,214.961A12.223,12.223,0,0,1,239.428,227.1a12.187,12.187,0,0,0,13.583-12.144v-8.15a16.451,16.451,0,0,1-2.717-.243Z" transform="translate(-198.302 -171.496)" fill="#eabd8c"/>
      <path id="Trazado_658901" data-name="Trazado 658901" d="M346.145,8H365.16a2.716,2.716,0,0,1,2.717,2.717V21.583A2.716,2.716,0,0,1,365.16,24.3h-4.075l-10.866,6.791,1.164-6.791h-5.239a2.716,2.716,0,0,1-2.717-2.717V10.717A2.716,2.716,0,0,1,346.145,8Z" transform="translate(-284.645 -6.642)" fill="#ececec"/>
      <path id="Trazado_658902" data-name="Trazado 658902" d="M292.558,350.941h5.885l-2.549-7.647a8.151,8.151,0,0,0-6.274-5.441L279.428,336l9.773,5.429a5.433,5.433,0,0,1,2.761,4.149Z" transform="translate(-231.511 -278.953)" fill="#48c397"/>
      <path id="Trazado_658903" data-name="Trazado 658903" d="M38.258,289.612l-4.871,4.4a2.716,2.716,0,0,1-3.841,0L19.8,284.276a2.716,2.716,0,0,1,0-3.841l4.4-4.4-8.15-8.15-5.1,5.1a8.15,8.15,0,0,0,0,11.525l18.357,18.357a8.15,8.15,0,0,0,11.525,0l5.569-5.1Z" transform="translate(-6.64 -222.398)" fill="#fb5968"/>
      <path id="Trazado_658904" data-name="Trazado 658904" d="M65.679,130.329a9.508,9.508,0,0,0-7.32-6.347l-9.077-1.652v-.7a13.67,13.67,0,0,0,4.049-3.6h2.742a4.08,4.08,0,0,0,4.075-4.075v-16.3a17.657,17.657,0,0,0-35.315,0v9.508a5.442,5.442,0,0,0,4.332,5.32,13.608,13.608,0,0,0,6.535,9.141v.7l-9.079,1.652a9.506,9.506,0,0,0-7.318,6.347l-.543,1.631-4.626-4.626a1.361,1.361,0,0,1,0-1.922l5.365-5.364-10.07-10.07-6.063,6.063a9.508,9.508,0,0,0,0,13.445l18.357,18.357a9.5,9.5,0,0,0,13.4.041l6.616-6.062-2.063-2.059H68.823Zm-23.188-3.352L38.416,122.9v-.064a13.572,13.572,0,0,0,8.15,0v.064Zm13.583-11.662H54.931a13.491,13.491,0,0,0,.886-2.829,5.38,5.38,0,0,0,1.615-.642v2.113A1.36,1.36,0,0,1,56.073,115.315Zm0-10.489a2.693,2.693,0,0,1,0,4.678ZM27.55,107.165a2.708,2.708,0,0,1,1.358-2.339V109.5A2.708,2.708,0,0,1,27.55,107.165Zm1.358-6.791v1.551a5.387,5.387,0,0,0-1.358.562v-4.83a14.941,14.941,0,1,1,29.882,0v4.83a5.338,5.338,0,0,0-1.358-.562v-1.551H54.715a14.944,14.944,0,0,1-10.634-4.4l-1.591-1.591L40.9,95.969a14.944,14.944,0,0,1-10.634,4.4Zm2.717,9.508v-6.843a17.61,17.61,0,0,0,10.866-4.827,17.6,17.6,0,0,0,10.866,4.827v6.843a10.784,10.784,0,0,1-1.47,5.433h-9.4v2.717h7.164a10.849,10.849,0,0,1-18.03-8.15ZM15.655,120.049l-1.475,1.475-6.229-6.229,1.475-1.475Zm12.787,27.865a6.754,6.754,0,0,1-4.8-1.99L5.282,127.568a6.793,6.793,0,0,1,0-9.6l.747-.747,6.229,6.229-.049.049a4.082,4.082,0,0,0,0,5.763L21.95,139a4.054,4.054,0,0,0,2.882,1.194,4,4,0,0,0,2.832-1.146l.1-.091,6.258,6.258-.78.714A6.757,6.757,0,0,1,28.442,147.913Zm7.586-4.541-6.244-6.244,1.794-1.622,6.233,6.233Zm.933-6.325-5.29-5.29-5.879,5.318a1.387,1.387,0,0,1-1.921,0l-2.966-2.966.973-2.92a6.794,6.794,0,0,1,5.228-4.535l9.494-1.725,5.891,5.891,5.889-5.889,9.493,1.725a6.791,6.791,0,0,1,5.228,4.535l1.955,5.858Z" transform="translate(-0.007 -66.417)"/>
      <path id="Trazado_658905" data-name="Trazado 658905" d="M358.519,0H339.5a4.08,4.08,0,0,0-4.075,4.075V14.941a4.08,4.08,0,0,0,4.075,4.075h3.628l-1.4,8.192,13.107-8.192h3.685a4.08,4.08,0,0,0,4.075-4.075V4.075A4.08,4.08,0,0,0,358.519,0Zm1.358,14.941a1.361,1.361,0,0,1-1.358,1.358h-4.465l-8.626,5.391.925-5.391H339.5a1.361,1.361,0,0,1-1.358-1.358V4.075A1.361,1.361,0,0,1,339.5,2.717h19.016a1.361,1.361,0,0,1,1.358,1.358Z" transform="translate(-278.003)"/>
      <rect id="Rectángulo_310576" data-name="Rectángulo 310576" width="16.299" height="2.717" transform="translate(62.858 5.433)"/>
      <rect id="Rectángulo_310577" data-name="Rectángulo 310577" width="10.866" height="2.717" transform="translate(62.858 10.866)"/>
      <rect id="Rectángulo_310578" data-name="Rectángulo 310578" width="2.717" height="2.717" transform="translate(76.441 10.866)"/>
      <path id="Trazado_658906" data-name="Trazado 658906" d="M13.3,53.688l-1.4-2.329L8.223,53.567A35.324,35.324,0,0,1,52.948,28.292l.8-2.594A38.033,38.033,0,0,0,5.475,53.4L2.9,49.109l-2.329,1.4,4.774,7.955Z" transform="translate(0 -19.925)"/>
      <path id="Trazado_658907" data-name="Trazado 658907" d="M410.315,156.973l2.329,1.4,2.377-3.962a35.345,35.345,0,0,1-5.986,33.648l2.109,1.711a38.037,38.037,0,0,0,6.509-36.043l3.992,2.395,1.4-2.329-7.955-4.774Z" transform="translate(-339.114 -123.716)"/>
    </g>
  </g>
</svg>
