<svg xmlns="http://www.w3.org/2000/svg" width="85" height="85" viewBox="0 0 85 85">
  <g id="Grupo_986529" data-name="Grupo 986529" transform="translate(-285 -5589)">
    <rect id="Rect치ngulo_306095" data-name="Rect치ngulo 306095" width="85" height="85" transform="translate(285 5589)" fill="none"/>
    <g id="Filledoutline" transform="translate(276.988 5587.264)">
      <rect id="Rect치ngulo_310595" data-name="Rect치ngulo 310595" width="31.166" height="43.361" transform="translate(37.889 20.554)" fill="#0093b9"/>
      <path id="Trazado_659310" data-name="Trazado 659310" d="M176,88h23.911v35.866H176Z" transform="translate(-134.527 -63.723)" fill="#e3e4e2"/>
      <path id="Trazado_659311" data-name="Trazado 659311" d="M236.875,31.357H224V27.679h3.679L226.759,24h7.357l-.92,3.679h3.679Z" transform="translate(-177.009 -7.08)" fill="#57c3c1"/>
      <path id="Trazado_659312" data-name="Trazado 659312" d="M65.107,261.429H32V232H48.554v14.714H65.107Z" transform="translate(-7.08 -191.169)" fill="#f8bc1e"/>
      <path id="Trazado_659313" data-name="Trazado 659313" d="M224,360h5.518v5.518H224Z" transform="translate(-177.009 -304.455)" fill="#f9da62"/>
      <path id="Trazado_659314" data-name="Trazado 659314" d="M199.634,368h-1.379a1.379,1.379,0,0,0-1.379,1.379v2.334a7.323,7.323,0,0,1-7.322,7.322h-4.174A1.379,1.379,0,0,0,184,380.415v1.379h15.634Z" transform="translate(-141.607 -311.535)" fill="#f5a922"/>
      <path id="Trazado_659315" data-name="Trazado 659315" d="M80,360h5.518v5.518H80Z" transform="translate(-49.562 -304.455)" fill="#f9da62"/>
      <path id="Trazado_659316" data-name="Trazado 659316" d="M55.634,368H54.255a1.379,1.379,0,0,0-1.379,1.379v2.334a7.323,7.323,0,0,1-7.322,7.322H41.379A1.379,1.379,0,0,0,40,380.415v1.379H55.634Z" transform="translate(-14.161 -311.535)" fill="#f5a922"/>
      <path id="Trazado_659317" data-name="Trazado 659317" d="M80,232h5.518v5.518H80Z" transform="translate(-49.562 -191.169)" fill="#f9da62"/>
      <path id="Trazado_659318" data-name="Trazado 659318" d="M55.634,240H54.255a1.379,1.379,0,0,0-1.379,1.379v2.334a7.323,7.323,0,0,1-7.322,7.322H41.379A1.379,1.379,0,0,0,40,252.415v1.379H55.634Z" transform="translate(-14.161 -198.25)" fill="#f5a922"/>
      <path id="Trazado_659319" data-name="Trazado 659319" d="M244.721,234.218l-24.67,7.381L216,240.892l3-2.816,24.67-7.381a1.839,1.839,0,1,1,1.055,3.524Z" transform="translate(-169.928 -189.945)" fill="#f8bc1e"/>
      <path id="Trazado_659320" data-name="Trazado 659320" d="M239.756,224.583a2.759,2.759,0,0,0-3.434-1.852l-24.67,7.381a.922.922,0,0,0-.366.211l-3,2.816a.92.92,0,0,0,.471,1.576l4.051.708a.922.922,0,0,0,.422-.025l20.017-5.989.087,1.894-6.361,1.9.527,1.762,7.048-2.109a.92.92,0,0,0,.655-.923l-.141-3.07,2.836-.849a2.759,2.759,0,0,0,1.852-3.434Zm-26.841,8.991-2.026-.354,1.5-1.408,4.2-1.256.527,1.762Zm5.959-1.783-.527-1.762,14.731-4.408.087,1.894Zm19.048-5.98a.914.914,0,0,1-.546.445l-2.4.717-.087-1.894,1.955-.585a.92.92,0,0,1,1.073,1.318Z" transform="translate(-162.848 -182.862)"/>
      <path id="Trazado_659321" data-name="Trazado 659321" d="M58.027,238.714H42.393V224.92a.92.92,0,0,0-.92-.92H24.92a.92.92,0,0,0-.92.92v29.429a.92.92,0,0,0,.92.92H58.027a.92.92,0,0,0,.92-.92V239.634A.92.92,0,0,0,58.027,238.714Zm-10.116,1.839H51.59v3.679H47.911ZM31.357,225.839h3.679v3.679H31.357Zm-5.518,0h3.679v4.6a.92.92,0,0,0,.92.92h5.518a.92.92,0,0,0,.92-.92v-4.6h3.679v12.875H25.839Zm5.518,14.714h3.679v3.679H31.357Zm-5.518,0h3.679v4.6a.92.92,0,0,0,.92.92h5.518a.92.92,0,0,0,.92-.92v-4.6h3.679v12.875H25.839Zm31.268,12.875H42.393V240.554h3.679v4.6a.92.92,0,0,0,.92.92h5.518a.92.92,0,0,0,.92-.92v-4.6h3.679Z" transform="translate(0 -184.089)"/>
      <path id="Trazado_659322" data-name="Trazado 659322" d="M280,448h1.839v1.839H280Z" transform="translate(-226.571 -382.339)"/>
      <path id="Trazado_659323" data-name="Trazado 659323" d="M136,448h1.839v1.839H136Z" transform="translate(-99.125 -382.339)"/>
      <path id="Trazado_659324" data-name="Trazado 659324" d="M136,320h1.839v1.839H136Z" transform="translate(-99.125 -269.053)"/>
      <path id="Trazado_659325" data-name="Trazado 659325" d="M137.839,23.357a1.841,1.841,0,0,1,1.839-1.839H145.2v1.839h-4.6a.92.92,0,0,0-.92.92V38.072h1.839V25.2H163.59V39.911h1.839V24.277a.92.92,0,0,0-.92-.92h-4.6V21.518h5.518a1.841,1.841,0,0,1,1.839,1.839V38.991h1.839V23.357a3.683,3.683,0,0,0-3.679-3.679h-8.938l.634-2.536A.92.92,0,0,0,156.232,16h-7.357a.92.92,0,0,0-.892,1.143l.634,2.536h-8.938A3.683,3.683,0,0,0,136,23.357V38.072h1.839Zm9.2-1.839h2.759a.92.92,0,0,0,.892-1.143l-.634-2.536h5l-.634,2.536a.92.92,0,0,0,.892,1.143h2.759v1.839H147.036Z" transform="translate(-99.125)"/>
      <path id="Trazado_659326" data-name="Trazado 659326" d="M351.357,344.277a1.841,1.841,0,0,1-1.839,1.839H344v1.839h5.518a3.683,3.683,0,0,0,3.679-3.679V336h-1.839Z" transform="translate(-283.214 -283.214)"/>
      <path id="Trazado_659327" data-name="Trazado 659327" d="M349.518,350.438V344h-1.839v5.518H344v1.839h4.6A.92.92,0,0,0,349.518,350.438Z" transform="translate(-283.214 -290.294)"/>
      <path id="Trazado_659328" data-name="Trazado 659328" d="M205.518,112.92a.92.92,0,0,0-.92-.92H200.92a.92.92,0,0,0-.92.92V116.6a.92.92,0,0,0,.92.92H204.6a.92.92,0,0,0,.92-.92Zm-1.839,2.759h-1.839v-1.839h1.839Z" transform="translate(-155.768 -84.964)"/>
      <path id="Trazado_659329" data-name="Trazado 659329" d="M204.6,184H200.92a.92.92,0,0,0-.92.92V188.6a.92.92,0,0,0,.92.92H204.6a.92.92,0,0,0,.92-.92V184.92A.92.92,0,0,0,204.6,184Zm-.92,3.679h-1.839v-1.839h1.839Z" transform="translate(-155.768 -148.687)"/>
      <path id="Trazado_659330" data-name="Trazado 659330" d="M264,112h1.839v1.839H264Z" transform="translate(-212.41 -84.964)"/>
      <path id="Trazado_659331" data-name="Trazado 659331" d="M264,144h11.036v1.839H264Z" transform="translate(-212.41 -113.286)"/>
      <path id="Trazado_659332" data-name="Trazado 659332" d="M296,112h7.357v1.839H296Z" transform="translate(-240.732 -84.964)"/>
      <path id="Trazado_659333" data-name="Trazado 659333" d="M264,184h1.839v1.839H264Z" transform="translate(-212.41 -148.687)"/>
      <path id="Trazado_659334" data-name="Trazado 659334" d="M264,216h11.036v1.839H264Z" transform="translate(-212.41 -177.009)"/>
      <path id="Trazado_659335" data-name="Trazado 659335" d="M296,184h7.357v1.839H296Z" transform="translate(-240.732 -148.687)"/>
    </g>
  </g>
</svg>
