<svg id="Grupo_979530" data-name="Grupo 979530" xmlns="http://www.w3.org/2000/svg" width="156" height="156" viewBox="0 0 156 156">
  <rect id="Rectángulo_34178" data-name="Rectángulo 34178" width="156" height="156" fill="none"/>
  <g id="materias-primas_1_" data-name="materias-primas(1)" transform="translate(20.199 -11.762)">
    <g id="Grupo_979561" data-name="Grupo 979561" transform="translate(1.693 42.975)">
      <g id="Grupo_979551" data-name="Grupo 979551">
        <g id="Grupo_979545" data-name="Grupo 979545" transform="translate(61.069 11.799)">
          <path id="Trazado_653581" data-name="Trazado 653581" d="M326.092,126.254H277.976v31.435h6.595a1.139,1.139,0,0,1,1.139,1.139V183.86l3.072-3.064a9.7,9.7,0,0,1,13.7,0l15.842,15.8h7.772v-70.34Z" transform="translate(-277.976 -120.561)" fill="#0593fc"/>
          <path id="Trazado_653582" data-name="Trazado 653582" d="M277.976,126.254h6.314v31.435h-6.314Z" transform="translate(-277.976 -120.561)" fill="#0182fc"/>
          <path id="Trazado_653583" data-name="Trazado 653583" d="M327.982,101.041H277.976v5.693h50.007a1.139,1.139,0,0,0,1.139-1.139v-3.416A1.139,1.139,0,0,0,327.982,101.041Z" transform="translate(-277.976 -101.041)" fill="#0182fc"/>
          <path id="Trazado_653584" data-name="Trazado 653584" d="M284.1,105.594v-3.416a1.139,1.139,0,0,1,1.139-1.139h-7.264v5.693h7.264A1.138,1.138,0,0,1,284.1,105.594Z" transform="translate(-277.976 -101.04)" fill="#0172fb"/>
          <g id="Grupo_979544" data-name="Grupo 979544" transform="translate(40.391 76.081)">
            <path id="Trazado_653585" data-name="Trazado 653585" d="M466.485,438.005h-9.616l5.708,5.693h3.907a1.139,1.139,0,0,0,1.139-1.139v-3.416A1.139,1.139,0,0,0,466.485,438.005Z" transform="translate(-456.869 -438.005)" fill="#0182fc"/>
          </g>
        </g>
        <g id="Grupo_979550" data-name="Grupo 979550">
          <path id="Trazado_653586" data-name="Trazado 653586" d="M20.918,73v82.639H42.045v-38.04a1.139,1.139,0,0,1,1.139-1.139H78.957V73Z" transform="translate(-17.888 -67.528)" fill="#fed402"/>
          <path id="Trazado_653587" data-name="Trazado 653587" d="M20.918,74h8.141v82.413H20.918Z" transform="translate(-17.888 -68.302)" fill="#fac600"/>
          <g id="Grupo_979546" data-name="Grupo 979546" transform="translate(0 0)">
            <path id="Trazado_653588" data-name="Trazado 653588" d="M70.46,48.782H8.639A1.139,1.139,0,0,0,7.5,49.921v3.416a1.139,1.139,0,0,0,1.139,1.139H70.46A1.139,1.139,0,0,0,71.6,53.336V49.92A1.138,1.138,0,0,0,70.46,48.782Z" transform="translate(-7.5 -48.782)" fill="#fac600"/>
          </g>
          <g id="Grupo_979547" data-name="Grupo 979547">
            <path id="Trazado_653589" data-name="Trazado 653589" d="M17.1,53.335V49.92a1.139,1.139,0,0,1,1.139-1.139h-9.6A1.139,1.139,0,0,0,7.5,49.92v3.416a1.139,1.139,0,0,0,1.139,1.139h9.6A1.139,1.139,0,0,1,17.1,53.335Z" transform="translate(-7.5 -48.781)" fill="#e8b800"/>
          </g>
          <g id="Grupo_979548" data-name="Grupo 979548" transform="translate(0 87.88)">
            <path id="Trazado_653590" data-name="Trazado 653590" d="M8.639,438.005A1.139,1.139,0,0,0,7.5,439.144v3.416A1.139,1.139,0,0,0,8.639,443.7H31.656v-5.693H8.639Z" transform="translate(-7.5 -438.005)" fill="#fac600"/>
          </g>
          <g id="Grupo_979549" data-name="Grupo 979549" transform="translate(0 87.88)">
            <path id="Trazado_653591" data-name="Trazado 653591" d="M17.1,442.558v-3.416A1.139,1.139,0,0,1,18.234,438h-9.6A1.139,1.139,0,0,0,7.5,439.143v3.416A1.139,1.139,0,0,0,8.639,443.7h9.6A1.139,1.139,0,0,1,17.1,442.558Z" transform="translate(-7.5 -438.004)" fill="#e8b800"/>
          </g>
        </g>
      </g>
      <g id="Grupo_979560" data-name="Grupo 979560" transform="translate(24.156 48.927)">
        <g id="Grupo_979557" data-name="Grupo 979557">
          <path id="Trazado_653592" data-name="Trazado 653592" d="M159.135,266.62A1.139,1.139,0,0,0,158,265.481H115.628a1.139,1.139,0,0,0-1.139,1.139v43.507h26.12l18.525-18.474V266.62Z" transform="translate(-114.489 -265.481)" fill="#ffbd86"/>
          <g id="Grupo_979552" data-name="Grupo 979552" transform="translate(0)">
            <path id="Trazado_653593" data-name="Trazado 653593" d="M123.254,265.481h-7.625a1.139,1.139,0,0,0-1.139,1.139v43.507h7.625V266.62A1.139,1.139,0,0,1,123.254,265.481Z" transform="translate(-114.49 -265.481)" fill="#f6a96c"/>
          </g>
          <g id="Grupo_979553" data-name="Grupo 979553" transform="translate(18.496)">
            <path id="Trazado_653594" data-name="Trazado 653594" d="M203.379,276.324h-6.287a.683.683,0,0,1-.683-.683V265.481h7.654V275.64A.683.683,0,0,1,203.379,276.324Z" transform="translate(-196.408 -265.481)" fill="#fe646f"/>
          </g>
          <g id="Grupo_979554" data-name="Grupo 979554" transform="translate(18.496)">
            <path id="Trazado_653595" data-name="Trazado 653595" d="M200.178,275.64V265.481h-3.769V275.64a.683.683,0,0,0,.683.683h3.769A.683.683,0,0,1,200.178,275.64Z" transform="translate(-196.409 -265.481)" fill="#fd4755"/>
          </g>
          <g id="Grupo_979555" data-name="Grupo 979555" transform="translate(5.764 27.386)">
            <path id="Trazado_653596" data-name="Trazado 653596" d="M150.817,398.257H140.7a.683.683,0,0,1-.683-.683V387.46a.683.683,0,0,1,.683-.683h10.114a.683.683,0,0,1,.683.683v10.114A.683.683,0,0,1,150.817,398.257Z" transform="translate(-140.02 -386.777)" fill="#fff"/>
          </g>
          <g id="Grupo_979556" data-name="Grupo 979556" transform="translate(5.764 27.387)">
            <path id="Trazado_653597" data-name="Trazado 653597" d="M145.694,397.575V387.461a.683.683,0,0,1,.683-.683H140.7a.683.683,0,0,0-.683.683v10.114a.683.683,0,0,0,.683.683h5.675A.683.683,0,0,1,145.694,397.575Z" transform="translate(-140.019 -386.778)" fill="#f3f0f3"/>
          </g>
        </g>
        <g id="Grupo_979558" data-name="Grupo 979558" transform="translate(26.12 20.276)">
          <path id="Trazado_653598" data-name="Trazado 653598" d="M251.775,358.117l-21.6,21.538h56.891l-21.6-21.538A9.7,9.7,0,0,0,251.775,358.117Z" transform="translate(-230.177 -355.286)" fill="#7a6d79"/>
        </g>
        <g id="Grupo_979559" data-name="Grupo 979559" transform="translate(26.12 20.278)">
          <path id="Trazado_653599" data-name="Trazado 653599" d="M263.005,356.337a9.7,9.7,0,0,0-11.231,1.784l-21.6,21.538h8.766l21.6-21.538A9.689,9.689,0,0,1,263.005,356.337Z" transform="translate(-230.177 -355.292)" fill="#685e68"/>
        </g>
      </g>
    </g>
    <g id="Grupo_979562" data-name="Grupo 979562" transform="translate(0 41.282)">
      <path id="Trazado_653600" data-name="Trazado 653600" d="M145.01,379.278H134.9a2.379,2.379,0,0,0-2.376,2.377v10.114a2.379,2.379,0,0,0,2.376,2.376H145.01a2.379,2.379,0,0,0,2.376-2.376V381.655A2.379,2.379,0,0,0,145.01,379.278ZM144,390.758h-8.093v-8.094H144v8.094Z" transform="translate(-102.599 -302.965)"/>
      <path id="Trazado_653601" data-name="Trazado 653601" d="M110.878,68.425a1.693,1.693,0,0,0,1.693-1.693V62.161h.2a2.835,2.835,0,0,0,2.832-2.832V55.913a2.835,2.835,0,0,0-2.832-2.832H64.455v-2.72h.2a2.835,2.835,0,0,0,2.832-2.832V44.114a2.835,2.835,0,0,0-2.832-2.832H2.832A2.835,2.835,0,0,0,0,44.114v3.415a2.835,2.835,0,0,0,2.832,2.832h.2V70.118H3A1.693,1.693,0,1,0,3,73.5h.028V99.138H3a1.693,1.693,0,0,0,0,3.387h.028v26.637h-.2A2.836,2.836,0,0,0,0,131.993v3.416a2.835,2.835,0,0,0,2.832,2.832h79.8a1.693,1.693,0,1,0,0-3.387H56.066l18.7-18.646a8.018,8.018,0,0,1,11.3,0l18.7,18.646H90.539a1.693,1.693,0,1,0,0,3.387h22.23a2.835,2.835,0,0,0,2.832-2.832v-3.416a2.835,2.835,0,0,0-2.832-2.832h-.2v-22.27h.028a1.693,1.693,0,1,0,0-3.387h-.028V82.1h.028a1.693,1.693,0,1,0,0-3.387h-.028V74.634a1.693,1.693,0,1,0-3.387,0v4.078H64.455V73.5h.028a1.693,1.693,0,0,0,0-3.387h-.028V62.16h44.729v4.571a1.693,1.693,0,0,0,1.693,1.693ZM15.353,50.361a1.693,1.693,0,1,0,0-3.387H3.387V44.669H64.1v2.306H23.256a1.693,1.693,0,1,0,0,3.387H61.069V70.118H6.416V50.361Zm8.8,84.493H3.387v-2.306h20.77Zm0-5.693H6.416V102.525h17.74Zm0-36.121v6.1H6.416V73.5H61.069v16.7H26.988a2.835,2.835,0,0,0-2.832,2.832Zm21.883.555h4.267v7.456H46.039ZM68.8,117.371,51.27,134.854H27.543V93.6H42.652v8.466a2.379,2.379,0,0,0,2.377,2.376h6.287a2.379,2.379,0,0,0,2.377-2.376V93.6H68.8v23.775Zm35.051,11.791L88.459,113.81a11.411,11.411,0,0,0-16.087,0l-.183.183v-7.1h37v22.27h-5.331Zm8.361,3.387v2.306h-2.652l-2.312-2.306ZM109.184,82.1V103.5h-37V93.041a2.835,2.835,0,0,0-2.832-2.832h-4.9V82.1ZM64.455,58.774V56.468h47.758v2.306Z" transform="translate(0 -41.282)"/>
      <path id="Trazado_653602" data-name="Trazado 653602" d="M366.532,389.783h-1.366a1.693,1.693,0,0,0,0,3.387h1.366a1.693,1.693,0,0,0,0-3.387Z" transform="translate(-281.407 -311.098)"/>
      <path id="Trazado_653603" data-name="Trazado 653603" d="M339.952,415a1.693,1.693,0,0,0,0,3.387h1.366a1.693,1.693,0,0,0,0-3.387Z" transform="translate(-261.886 -330.618)"/>
      <path id="Trazado_653604" data-name="Trazado 653604" d="M395.421,429.478h1.366a1.693,1.693,0,0,0,0-3.387h-1.366a1.693,1.693,0,0,0,0,3.387Z" transform="translate(-304.831 -339.208)"/>
    </g>
  </g>
</svg>
