<svg xmlns="http://www.w3.org/2000/svg" width="105" height="104.465" viewBox="0 0 105 104.465">
  <g id="Grupo_1009732" data-name="Grupo 1009732" transform="translate(-180 -6356.234)">
    <path id="Trazado_626454" data-name="Trazado 626454" d="M0,0H105V104.465H0Z" transform="translate(180 6356.234)" fill="#f0bd51"/>
    <g id="FILLED_OUTLINE" transform="translate(177.52 6355.217)">
      <circle id="Elipse_7776" data-name="Elipse 7776" cx="13.658" cy="13.658" r="13.658" transform="translate(63.527 17.242)" fill="#008cb7"/>
      <circle id="Elipse_7777" data-name="Elipse 7777" cx="9.933" cy="9.933" r="9.933" transform="translate(37.452 61.942)" fill="#8bb276"/>
      <path id="Trazado_660370" data-name="Trazado 660370" d="M57.035,208.115A32.316,32.316,0,0,1,50.682,172.8l2.276.994a29.832,29.832,0,0,0,5.865,32.6Z" transform="translate(-25.444 -132.461)" fill="#62b8d3"/>
      <path id="Trazado_660371" data-name="Trazado 660371" d="M444.511,44.377l-2.168,2.168L444.1,48.3l2.168-2.168A13.734,13.734,0,0,0,444.511,44.377Z" transform="translate(-358.586 -23.973)" fill="#00779c"/>
      <path id="Trazado_660372" data-name="Trazado 660372" d="M464,106.483h3.668c.037-.409.057-.823.057-1.242s-.02-.833-.057-1.242H464Z" transform="translate(-376.882 -74.342)" fill="#00779c"/>
      <path id="Trazado_660373" data-name="Trazado 660373" d="M446.267,156.511l-2.168-2.168-1.756,1.756,2.168,2.168A13.738,13.738,0,0,0,446.267,156.511Z" transform="translate(-358.586 -116.872)" fill="#00779c"/>
      <path id="Trazado_660374" data-name="Trazado 660374" d="M392,179.668c.409.037.823.057,1.242.057s.833-.02,1.242-.057V176H392Z" transform="translate(-316.057 -135.167)" fill="#00779c"/>
      <path id="Trazado_660375" data-name="Trazado 660375" d="M332.377,156.511a13.74,13.74,0,0,0,1.756,1.756L336.3,156.1l-1.756-1.756Z" transform="translate(-265.688 -116.872)" fill="#00779c"/>
      <path id="Trazado_660376" data-name="Trazado 660376" d="M312.057,106.483h3.668V104h-3.668c-.037.409-.057.823-.057,1.242S312.02,106.074,312.057,106.483Z" transform="translate(-248.474 -74.342)" fill="#00779c"/>
      <path id="Trazado_660377" data-name="Trazado 660377" d="M332.377,46.133l2.168,2.168,1.756-1.756-2.168-2.168a13.738,13.738,0,0,0-1.756,1.756Z" transform="translate(-265.688 -23.973)" fill="#00779c"/>
      <path id="Trazado_660378" data-name="Trazado 660378" d="M394.483,24.057c-.409-.037-.823-.057-1.242-.057s-.833.02-1.242.057v3.668h2.483Z" transform="translate(-316.057 -6.758)" fill="#00779c"/>
      <path id="Trazado_660379" data-name="Trazado 660379" d="M372.1,76.053,370.344,74.3l3.361-3.361V64h2.483v7.45a1.242,1.242,0,0,1-.364.878Z" transform="translate(-297.762 -40.55)" fill="#62b8d3"/>
      <rect id="Rectángulo_311166" data-name="Rectángulo 311166" width="7.45" height="12.417" transform="translate(36.21 24.692)" fill="#008cb7"/>
      <path id="Trazado_660380" data-name="Trazado 660380" d="M38,46.208,34.277,40h-1.3a2.483,2.483,0,0,0-2.306,3.406l1.121,2.8H28.36a2.483,2.483,0,0,0-2.468,2.758l.69,6.208a2.483,2.483,0,0,0,2.468,2.209h5.44a2.483,2.483,0,0,0,1.756-.727L38,54.9h4.967V46.208Z" transform="translate(-6.758 -20.275)" fill="#ffcbb1"/>
      <path id="Trazado_660381" data-name="Trazado 660381" d="M148.558,379.725,144.833,376h-8.692a4.967,4.967,0,0,0,4.967,4.967h2.483l-4.967,4.967-14.372-4.422a2.483,2.483,0,0,0-2.8,1L120,384.692l21.108,8.692,7.45-3.725h12.417v-9.933Z" transform="translate(-86.273 -304.125)" fill="#ffcbb1"/>
      <path id="Trazado_660382" data-name="Trazado 660382" d="M211.867,171.239v-2.611l-2.495-.6-.832-2.007,1.345-2.2-1.846-1.846-2.2,1.345-2.007-.832-.6-2.495h-2.611l-.6,2.495-2.007.832-2.2-1.345-1.846,1.846,1.345,2.2-.832,2.007-2.495.6v2.611l2.495.6.832,2.007-1.345,2.2,1.846,1.846,2.2-1.345,2.007.832.6,2.495h2.611l.6-2.495,2.007-.832,2.2,1.345,1.846-1.846-1.345-2.2.832-2.007Zm-9.933,1.178a2.483,2.483,0,1,1,2.483-2.483A2.483,2.483,0,0,1,201.933,172.417Z" transform="translate(-147.098 -121.65)" fill="#008cb7"/>
      <path id="Trazado_660383" data-name="Trazado 660383" d="M398.6,242.817l-1.82-1.689a29.7,29.7,0,0,0,7.95-20.264,30.044,30.044,0,0,0-.6-5.968l2.435-.487a32.516,32.516,0,0,1,.646,6.455A32.178,32.178,0,0,1,398.6,242.817Z" transform="translate(-320.094 -167.614)" fill="#62b8d3"/>
      <path id="Trazado_660384" data-name="Trazado 660384" d="M206.681,51.347l-.594-2.411a32.557,32.557,0,0,1,14.2-.29L219.8,51.08a30.074,30.074,0,0,0-13.114.268Z" transform="translate(-158.999 -27.033)" fill="#62b8d3"/>
      <path id="Trazado_660385" data-name="Trazado 660385" d="M91.912,194.939a26.1,26.1,0,0,1,0-27.487l2.109,1.311a23.614,23.614,0,0,0,0,24.865Z" transform="translate(-59.24 -127.945)" fill="#62b8d3"/>
      <path id="Trazado_660386" data-name="Trazado 660386" d="M364.138,246.243,362.4,244.47a23.416,23.416,0,0,0,7.078-16.848,23.773,23.773,0,0,0-.472-4.72l2.434-.494a26.261,26.261,0,0,1,.522,5.214,25.881,25.881,0,0,1-7.823,18.621Z" transform="translate(-291.051 -174.372)" fill="#62b8d3"/>
      <path id="Trazado_660387" data-name="Trazado 660387" d="M206.347,91.563l-.744-2.369a26.258,26.258,0,0,1,13.036-.672l-.494,2.434A23.777,23.777,0,0,0,206.347,91.563Z" transform="translate(-158.59 -60.825)" fill="#62b8d3"/>
      <path id="Trazado_660388" data-name="Trazado 660388" d="M169.556,346.313a6.209,6.209,0,0,1,7.761-9.484l-1.243,2.15a3.726,3.726,0,0,0-4.656,5.691Z" transform="translate(-126.827 -270.332)" fill="#abc79b"/>
      <path id="Trazado_660389" data-name="Trazado 660389" d="M50.479,185.711a29.59,29.59,0,0,1,2.479-11.92l-2.276-.994a32.316,32.316,0,0,0,6.353,35.318l1.788-1.724a29.653,29.653,0,0,1-8.344-20.68Z" transform="translate(-25.444 -132.461)"/>
      <path id="Trazado_660390" data-name="Trazado 660390" d="M318.9,16a14.9,14.9,0,1,0,14.9,14.9A14.9,14.9,0,0,0,318.9,16Zm9.609,22.753-1.281-1.281-1.756,1.756,1.281,1.281a12.359,12.359,0,0,1-6.612,2.745V40.833h-2.483v2.421a12.359,12.359,0,0,1-6.612-2.745l1.281-1.281-1.756-1.756-1.281,1.281a12.36,12.36,0,0,1-2.745-6.612h2.421V29.658h-2.421a12.36,12.36,0,0,1,2.745-6.612l1.281,1.281,1.756-1.756-1.281-1.281a12.359,12.359,0,0,1,6.612-2.745v2.421h2.483V18.546a12.359,12.359,0,0,1,6.612,2.745l-1.281,1.281,1.756,1.756,1.281-1.281a12.359,12.359,0,0,1,2.745,6.612h-2.421v2.483h2.421a12.36,12.36,0,0,1-2.745,6.612Z" transform="translate(-241.715)"/>
      <path id="Trazado_660391" data-name="Trazado 660391" d="M373.7,70.936,370.343,74.3l1.756,1.756,3.725-3.725a1.241,1.241,0,0,0,.364-.878V64H373.7Z" transform="translate(-297.761 -40.55)"/>
      <path id="Trazado_660392" data-name="Trazado 660392" d="M30.365,50.776l1.392-1.392h3.211v1.242a1.242,1.242,0,0,0,1.242,1.242h7.45A1.242,1.242,0,0,0,44.9,50.625V38.208a1.242,1.242,0,0,0-1.242-1.242H36.21a1.242,1.242,0,0,0-1.242,1.242H31.946L28.583,32.6a1.242,1.242,0,0,0-1.065-.6h-1.3a3.725,3.725,0,0,0-3.459,5.108l.44,1.1H21.6a3.725,3.725,0,0,0-3.7,4.136l.69,6.208a3.721,3.721,0,0,0,3.7,3.314h5.44a3.7,3.7,0,0,0,2.634-1.091ZM37.452,39.45h4.967v9.933H37.452ZM21.057,48.279l-.69-6.208A1.242,1.242,0,0,1,21.6,40.692h3.434a1.242,1.242,0,0,0,1.153-1.7l-1.121-2.8a1.242,1.242,0,0,1,1.153-1.7h.6l3.363,5.605a1.242,1.242,0,0,0,1.065.6h3.725V46.9H31.243a1.241,1.241,0,0,0-.878.364L28.609,49.02a1.234,1.234,0,0,1-.878.364h-5.44A1.24,1.24,0,0,1,21.057,48.279Z" transform="translate(0 -13.517)"/>
      <path id="Trazado_660393" data-name="Trazado 660393" d="M138.953,314.271a1.241,1.241,0,0,0-.878-.364H138a11.174,11.174,0,1,0-21.469,5.415,3.746,3.746,0,0,0-2.871,1.645l-1.456,2.185a1.242,1.242,0,0,0,.56,1.837l21.108,8.692a1.242,1.242,0,0,0,1.028-.038l7.188-3.594h12.123v-2.483H141.8a1.241,1.241,0,0,0-.555.131l-6.944,3.472-19.185-7.9.616-.924a1.249,1.249,0,0,1,1.4-.5l14.372,4.422a1.241,1.241,0,0,0,1.243-.309l4.967-4.967a1.242,1.242,0,0,0-.878-2.12H134.35a3.731,3.731,0,0,1-3.512-2.483h6.723l3.361,3.361a1.242,1.242,0,0,0,.878.364h12.417v-2.483h-11.9Zm-9.57-.364a1.242,1.242,0,0,0-1.242,1.242,6.217,6.217,0,0,0,5.714,6.189l-2.338,2.338-11.8-3.63a8.586,8.586,0,0,1-1.51-4.9,8.691,8.691,0,0,1,17.293-1.242Z" transform="translate(-79.515 -243.274)"/>
      <path id="Trazado_660394" data-name="Trazado 660394" d="M187.179,159.373l-.347.838-1.879.451a1.241,1.241,0,0,0-.952,1.207v2.611a1.242,1.242,0,0,0,.952,1.207l1.879.451.347.838-1.015,1.656a1.242,1.242,0,0,0,.181,1.527l1.846,1.846a1.242,1.242,0,0,0,1.527.181l1.656-1.015.838.347.451,1.879a1.242,1.242,0,0,0,1.207.952h2.611a1.242,1.242,0,0,0,1.207-.952l.451-1.879.838-.347,1.656,1.015a1.242,1.242,0,0,0,1.527-.181l1.846-1.846a1.242,1.242,0,0,0,.181-1.527l-1.015-1.656.347-.838,1.879-.451a1.242,1.242,0,0,0,.952-1.207v-2.611a1.242,1.242,0,0,0-.952-1.207l-1.879-.451-.347-.838,1.015-1.656a1.242,1.242,0,0,0-.181-1.527l-1.846-1.846a1.241,1.241,0,0,0-1.527-.181l-1.656,1.015-.838-.347-.451-1.879a1.242,1.242,0,0,0-1.207-.952h-2.611a1.242,1.242,0,0,0-1.207.952l-.451,1.879-.838.347-1.656-1.015a1.241,1.241,0,0,0-1.527.181l-1.846,1.846a1.242,1.242,0,0,0-.181,1.527Zm1.7,2.373.832-2.007a1.242,1.242,0,0,0-.088-1.124l-.834-1.361.462-.462,1.361.834a1.242,1.242,0,0,0,1.124.088l2.007-.832a1.242,1.242,0,0,0,.732-.858l.37-1.542h.653l.37,1.542a1.242,1.242,0,0,0,.732.858l2.007.832a1.241,1.241,0,0,0,1.124-.088l1.361-.834.462.462-.834,1.361a1.242,1.242,0,0,0-.088,1.124l.832,2.007a1.242,1.242,0,0,0,.858.732l1.542.37v.653l-1.542.37a1.242,1.242,0,0,0-.858.732l-.832,2.007a1.242,1.242,0,0,0,.088,1.124l.834,1.361-.462.462-1.361-.834a1.242,1.242,0,0,0-1.124-.088l-2.007.832a1.242,1.242,0,0,0-.732.858l-.37,1.542h-.653l-.37-1.542a1.242,1.242,0,0,0-.732-.858l-2.007-.832a1.242,1.242,0,0,0-1.124.088l-1.361.834-.462-.462.834-1.361a1.242,1.242,0,0,0,.088-1.124l-.832-2.007a1.242,1.242,0,0,0-.858-.732l-1.542-.37v-.653l1.542-.37a1.242,1.242,0,0,0,.858-.732Z" transform="translate(-140.34 -114.892)"/>
      <path id="Trazado_660395" data-name="Trazado 660395" d="M235.725,207.45A3.725,3.725,0,1,0,232,203.725,3.725,3.725,0,0,0,235.725,207.45Zm0-4.967a1.242,1.242,0,1,1-1.242,1.242A1.242,1.242,0,0,1,235.725,202.483Z" transform="translate(-180.89 -155.442)"/>
      <path id="Trazado_660396" data-name="Trazado 660396" d="M404.133,214.866a30.03,30.03,0,0,1,.6,5.961,29.7,29.7,0,0,1-7.95,20.264l1.82,1.689a32.178,32.178,0,0,0,8.613-21.953,32.532,32.532,0,0,0-.647-6.462Z" transform="translate(-320.094 -167.578)"/>
      <path id="Trazado_660397" data-name="Trazado 660397" d="M213.833,50.483a30.048,30.048,0,0,1,5.968.6l.487-2.435a32.557,32.557,0,0,0-14.2.29l.594,2.411A29.935,29.935,0,0,1,213.833,50.483Z" transform="translate(-158.998 -27.033)"/>
      <path id="Trazado_660398" data-name="Trazado 660398" d="M91.912,167.452a26.1,26.1,0,0,0,0,27.487l2.109-1.311a23.614,23.614,0,0,1,0-24.865Z" transform="translate(-59.24 -127.945)"/>
      <path id="Trazado_660399" data-name="Trazado 660399" d="M364.138,246.213a25.881,25.881,0,0,0,7.823-18.621,26.277,26.277,0,0,0-.523-5.219l-2.432.5a23.771,23.771,0,0,1,.472,4.72A23.416,23.416,0,0,1,362.4,244.44Z" transform="translate(-291.051 -174.342)"/>
      <path id="Trazado_660400" data-name="Trazado 660400" d="M213.425,90.483a23.772,23.772,0,0,1,4.72.472l.494-2.434a26.258,26.258,0,0,0-13.036.672l.744,2.369A23.593,23.593,0,0,1,213.425,90.483Z" transform="translate(-158.59 -60.825)"/>
      <path id="Trazado_660401" data-name="Trazado 660401" d="M168,342.208a6.2,6.2,0,0,0,1.552,4.107l1.862-1.643a3.726,3.726,0,0,1,4.656-5.691l1.243-2.15A6.21,6.21,0,0,0,168,342.208Z" transform="translate(-126.823 -270.333)"/>
    </g>
  </g>
</svg>
