<svg xmlns="http://www.w3.org/2000/svg" width="105" height="104.465" viewBox="0 0 105 104.465">
  <g id="Grupo_1009740" data-name="Grupo 1009740" transform="translate(-600 -16463.234)">
    <path id="Trazado_626454" data-name="Trazado 626454" d="M0,0H105V104.465H0Z" transform="translate(600 16463.234)" fill="#f0bd51"/>
    <g id="productos-de-limpieza" transform="translate(624.957 16468.396)">
      <path id="Trazado_659624" data-name="Trazado 659624" d="M127.961,101.077a21.38,21.38,0,0,0-7.637-7.085C116.582,92,114.1,92,114.013,89.919H103.794s-.166,3.742-4.405,8.314a15.638,15.638,0,0,0-2.569,4.019c-5.193,9.805-2.486,33.5,3.066,36.472a5.429,5.429,0,0,0,2.831.8h19.458a5.464,5.464,0,0,0,2.044-.4C130.226,136.583,133.844,110.468,127.961,101.077ZM125.53,119.1c-2.417.014-1.436-4.474-2.32-7.9s-5.193-9.28-2.182-9.391c2.541-.1,4.378,3.673,5.565,7.292a17.509,17.509,0,0,1,.635,2.79c.563,4.875-.028,7.223-1.7,7.209Z" transform="translate(-81.056 -62.841)" fill="#ffd175"/>
      <path id="Trazado_659625" data-name="Trazado 659625" d="M130.037,213.828A4,4,0,0,0,133.3,215.5h10.868a3.988,3.988,0,0,0,3.812-2.817,31.458,31.458,0,0,0,1.367-9.363c0-10.551-4.751-19.1-10.62-19.1-4.9,0-9.018,5.966-10.247,14.072C127.568,205.914,128.134,210.292,130.037,213.828Z" transform="translate(-110.368 -144.118)" fill="#c9aa68"/>
      <path id="Trazado_659626" data-name="Trazado 659626" d="M167.624,27.144h-.594V23.416a1.5,1.5,0,0,0-1.489-1.505h-5.487a1.507,1.507,0,0,0-1.508,1.505v3.729h-.594a1.141,1.141,0,0,0-1.146,1.139s0,0,0,.006v1.845a1.143,1.143,0,0,0,1.139,1.146h9.673a1.145,1.145,0,0,0,1.146-1.141V28.286a1.143,1.143,0,0,0-1.141-1.146h0Z" transform="translate(-135.15 -4.223)" fill="#967739"/>
      <path id="Trazado_659627" data-name="Trazado 659627" d="M191.974,240.394a2.866,2.866,0,0,1-5.731,0c0-1.478,1.008-2.582,1.519-3.7.442-.967.911-2.32,1.16-3.052a.173.173,0,0,1,.215-.117l.018.006h0a.15.15,0,0,1,.11.11c.249.746.718,2.1,1.16,3.052.536,1.119,1.547,2.223,1.547,3.7Z" transform="translate(-160.523 -186.607)" fill="#84c8e1"/>
      <path id="Trazado_659628" data-name="Trazado 659628" d="M194.733,321.883c-.028-.124-.539-4.364,3.618-3.853,3.149.387,3.894-3.011,3.894-3.011a9.45,9.45,0,0,1-1.8,7.112,3.964,3.964,0,0,1-3.936,1.326A2.21,2.21,0,0,1,194.733,321.883Z" transform="translate(-167.811 -256.855)" fill="#a0d972"/>
      <path id="Trazado_659629" data-name="Trazado 659629" d="M195.243,322.007A2.186,2.186,0,0,0,197,323.443a3.957,3.957,0,0,0,3.936-1.326,9.485,9.485,0,0,0,1.8-7.1c-1.008,5.013-2.569,6.7-5.911,6.339l-.014-.028C196.306,321.551,195.768,321.758,195.243,322.007Z" transform="translate(-168.28 -256.855)" fill="#7ba15b"/>
      <path id="Trazado_659630" data-name="Trazado 659630" d="M192.118,240.463h0a2.861,2.861,0,0,1-5.719.177q0-.089,0-.178c0-1.48,1.008-2.581,1.519-3.705.439-.96.913-2.319,1.163-3.059a.184.184,0,0,1,.233-.117.186.186,0,0,1,.116.116c.249.74.722,2.1,1.16,3.056.517,1.12,1.525,2.222,1.525,3.708Z" transform="translate(-160.655 -186.655)" fill="#84c8e1"/>
      <path id="Trazado_659631" data-name="Trazado 659631" d="M194.854,321.947c-.029-.127-.533-4.369,3.624-3.858,3.153.387,3.9-3.009,3.9-3.009a9.415,9.415,0,0,1-1.8,7.105,3.972,3.972,0,0,1-3.937,1.327A2.175,2.175,0,0,1,194.854,321.947Z" transform="translate(-167.915 -256.907)" fill="#a0d972"/>
      <path id="Trazado_659632" data-name="Trazado 659632" d="M195.333,322.092a2.194,2.194,0,0,0,1.754,1.436,3.969,3.969,0,0,0,3.937-1.326,9.448,9.448,0,0,0,1.8-7.1c-1.01,5.01-2.571,6.69-5.918,6.343l-.012-.025C196.4,321.634,195.867,321.844,195.333,322.092Z" transform="translate(-168.357 -256.924)" fill="#7ba15b"/>
      <path id="Trazado_659633" data-name="Trazado 659633" d="M20.02,205.568c1.864,0,3.784-1.726,3.784-7.582,0-18.132-3.452-19.707-3.452-24.333,0-2.9,2.417-2.555,2.417-4.2s-2.8-3.038-5.1-4.336c0,0-1.933.207-3.314.207s-3.314-.207-3.314-.207c-2.279,1.312-5.085,2.693-5.085,4.331s2.417,1.312,2.417,4.2c0,4.613-3.452,6.2-3.452,24.333,0,5.855,1.933,7.582,3.8,7.582Z" transform="translate(-4.243 -127.656)" fill="#8ccd74"/>
      <path id="Trazado_659634" data-name="Trazado 659634" d="M26.469,288.579a1.156,1.156,0,0,1-1.077-.718,10.989,10.989,0,0,1-.649-4.115,72.082,72.082,0,0,1,1.188-14.666h0a5.634,5.634,0,0,1,11.02,0,71.072,71.072,0,0,1,1.188,14.666,10.989,10.989,0,0,1-.649,4.115h0a1.182,1.182,0,0,1-1.077.718Z" transform="translate(-21.326 -213.415)" fill="#6ba257"/>
      <path id="Trazado_659635" data-name="Trazado 659635" d="M60.525,286.81a2.541,2.541,0,1,1-5.082,0c0-1.312.9-2.292,1.353-3.3.387-.856.815-2.058,1.036-2.721a.168.168,0,0,1,.207-.11c.055.014.083.055.11.11.221.663.649,1.864,1.036,2.721C59.627,284.5,60.525,285.479,60.525,286.81Z" transform="translate(-47.786 -227.251)" fill="#84bcde"/>
      <path id="Trazado_659636" data-name="Trazado 659636" d="M44.6,360.729c.014-.111-.083-3.922-3.673-2.942-2.734.732-3.812-2.168-3.812-2.168a8.363,8.363,0,0,0,2.472,6.035,3.522,3.522,0,0,0,3.632.677A1.946,1.946,0,0,0,44.6,360.729Z" transform="translate(-31.99 -291.848)" fill="#a0d972"/>
      <path id="Trazado_659637" data-name="Trazado 659637" d="M57.883,119.924h-.041V118.4h0a1.126,1.126,0,0,0-.11-.47l-.5-.994a1.074,1.074,0,0,0-1.422-.483h0a1.131,1.131,0,0,0-.47.456l-.539,1.022a.992.992,0,0,0-.124.5v1.491h-.041a1.115,1.115,0,0,0-1.106,1.123v2.342h0a17.118,17.118,0,0,0,5.427,0v-2.334a1.093,1.093,0,0,0-1.05-1.132h-.029Z" transform="translate(-46.139 -85.623)" fill="#9e8963"/>
      <path id="Trazado_659638" data-name="Trazado 659638" d="M44.6,360.839a1.988,1.988,0,0,1-1.367,1.491,3.52,3.52,0,0,1-3.632-.677,8.418,8.418,0,0,1-2.472-6.035c1.519,4.295,3.107,5.579,6.007,4.847v-.033C43.607,360.571,44.1,360.687,44.6,360.839Z" transform="translate(-32 -291.848)" fill="#7ba15b"/>
      <path id="Trazado_659639" data-name="Trazado 659639" d="M317.941,226.649a69.2,69.2,0,0,0-.663,14.749c.028.235.055.47.1.677.083.552.566,1.712,1.478,1.712h16.8a1.506,1.506,0,0,0,1.505-1.491V226.9c0-1.712-1.353-3.439-2.2-4.309-.994-1.036-4.212-3.881-4.212-3.881a2.051,2.051,0,0,1-.815-2.016l.29-1.671h0a2.1,2.1,0,0,0-.249-1.381l-.483-.829a2.047,2.047,0,0,1-.083-1.92l.152-.318a.742.742,0,0,0-.349-.99l-.011-.006a.816.816,0,0,0-.318-.069H323.42c-.884.028-1.519,1.008-1.754,1.547a43.344,43.344,0,0,0-2.168,7.278c-.577,2.6-1.088,5.455-1.558,8.314Z" transform="translate(-273.315 -165.916)" fill="#84c3e8"/>
      <path id="Trazado_659640" data-name="Trazado 659640" d="M344.071,291.478a5.9,5.9,0,0,0-5.869,4.93c-.069.428-.138.87-.221,1.326a73.076,73.076,0,0,0-.76,12.4,1.593,1.593,0,0,0,1.588,1.519h11.269a1.6,1.6,0,0,0,1.6-1.6V297.527a4.7,4.7,0,0,0-1.422-2.389c-.414-.442-1.367-1.312-2.279-2.141a5.887,5.887,0,0,0-3.908-1.519Z" transform="translate(-290.62 -236.565)" fill="#c0ecfd"/>
      <path id="Trazado_659641" data-name="Trazado 659641" d="M371.339,309.264a2.459,2.459,0,1,0,4.916.111h0v-.11c0-1.271-.87-2.223-1.312-3.19-.373-.829-.787-1.989-.994-2.624a.165.165,0,0,0-.207-.1h0a.16.16,0,0,0-.1.1c-.207.635-.621,1.809-.994,2.624-.442.967-1.312,1.92-1.312,3.19Z" transform="translate(-320.056 -246.792)" fill="#65a9cc"/>
      <path id="Trazado_659642" data-name="Trazado 659642" d="M368.937,380.709c-.014-.11.069-3.784,3.563-2.845,2.638.718,3.687-2.085,3.687-2.085a8.153,8.153,0,0,1-2.389,5.842,3.4,3.4,0,0,1-3.522.649A1.905,1.905,0,0,1,368.937,380.709Z" transform="translate(-317.986 -309.224)" fill="#a0d972"/>
      <path id="Trazado_659643" data-name="Trazado 659643" d="M333.936,132.221l.276-.428a9.617,9.617,0,0,1,8.134-4.474h8.228a.489.489,0,0,1,.483.483v1.61a.485.485,0,0,1-.456.483,11.717,11.717,0,0,0-4.433,1.022,8.4,8.4,0,0,0,2.61,6.7.446.446,0,0,1,.069.5.429.429,0,0,1-.58.166.07.07,0,0,0-.055-.028h0a13.634,13.634,0,0,1-4.295-5.828,4.877,4.877,0,0,0-1.243,2.486.563.563,0,0,1-.539.442h-6.477a2.04,2.04,0,0,1-2.044-2.036.011.011,0,0,1,0-.01,2.262,2.262,0,0,1,.32-1.085Z" transform="translate(-287.542 -95.076)" fill="#c8e0ee"/>
      <path id="Trazado_659644" data-name="Trazado 659644" d="M363.164,188.733h4.474l-.718-3.314h-3.08l-.718,3.314Z" transform="translate(-312.976 -145.153)" fill="#515151"/>
      <path id="Trazado_659645" data-name="Trazado 659645" d="M369.043,380.773a1.889,1.889,0,0,0,1.326,1.436,3.4,3.4,0,0,0,3.522-.649,8.123,8.123,0,0,0,2.389-5.842c-1.464,4.143-3.011,5.386-5.814,4.682v-.028c-.456.138-.939.249-1.422.4Z" transform="translate(-318.078 -309.172)" fill="#7ba15b"/>
      <g id="Grupo_986687" data-name="Grupo 986687" transform="translate(56.377 32.241)">
        <path id="Trazado_659646" data-name="Trazado 659646" d="M408.234,154.924a6.149,6.149,0,0,1,2.237-1.505,8.452,8.452,0,0,0,2.61,6.712h0a.44.44,0,0,1,.069.5.417.417,0,0,1-.562.168l-.005,0c-.014-.014-.041-.028-.055-.041h0a13.274,13.274,0,0,1-4.295-5.828Z" transform="translate(-408.233 -149.813)" fill="#fff"/>
        <path id="Trazado_659647" data-name="Trazado 659647" d="M461.794,129.668l-1.533.193a.287.287,0,0,1-.318-.207v-2.1a.265.265,0,0,1,.282-.25h.035l1.533.193h0a.255.255,0,0,1,.235.249v1.685a.267.267,0,0,1-.235.235Z" transform="translate(-452.802 -127.305)" fill="#fff"/>
      </g>
      <g id="Grupo_986688" data-name="Grupo 986688" transform="translate(0 17.009)">
        <path id="Trazado_659648" data-name="Trazado 659648" d="M53.729,285.824a3.239,3.239,0,0,0,3.233-3.234c0-1.5-.86-2.436-1.417-3.591-.378-.829-.793-2.016-1.005-2.652a.857.857,0,0,0-1.624,0c-.213.635-.627,1.826-1.007,2.654-.552,1.148-1.411,2.085-1.416,3.582a3.237,3.237,0,0,0,3.233,3.24Zm-1.074-5.3a12.632,12.632,0,0,0,1.073-2.321,12.407,12.407,0,0,0,1.074,2.32,4.167,4.167,0,0,1,.779,2.071,1.854,1.854,0,0,1-3.707.1c0-.035,0-.068,0-.1a4.157,4.157,0,0,1,.779-2.07Z" transform="translate(-43.52 -240.03)"/>
        <path id="Trazado_659649" data-name="Trazado 659649" d="M41.075,356.1c-.211-2.218-1.773-4.023-4.53-3.229a2.135,2.135,0,0,1-2.228-.591,3.742,3.742,0,0,1-.758-1.146h0a.691.691,0,0,0-1.338.2,9.043,9.043,0,0,0,2.683,6.576,4.345,4.345,0,0,0,4.281.847.691.691,0,0,0-.334-1.341,3.059,3.059,0,0,1-2.991-.5h0a7.315,7.315,0,0,1-1.906-3.147,3.489,3.489,0,0,0,2.947.436,1.891,1.891,0,0,1,2.692,1.461,8.446,8.446,0,0,1-1.381-.45.688.688,0,0,0-.591,1.243c1.8.8,3.962.691,5.278,2.552a.691.691,0,0,0,1.123-.805h0a5.89,5.89,0,0,0-2.948-2.1Z" transform="translate(-27.767 -304.605)"/>
        <path id="Trazado_659650" data-name="Trazado 659650" d="M65.465,31.762l-1.53-.188a.979.979,0,0,0-.487.062,1.131,1.131,0,0,0-.394-.069H54.823a10.26,10.26,0,0,0-8.562,4.557,21.959,21.959,0,0,0-9.956-7.069c-1.768-.711-2.46-1.05-2.606-1.748h0a1.873,1.873,0,0,0,.634-1.4v-1.79a1.878,1.878,0,0,0-1.744-1.87v-3a2.243,2.243,0,0,0-2.239-2.239H24.972a2.241,2.241,0,0,0-2.239,2.239v3h0a1.877,1.877,0,0,0-1.744,1.867V25.9A1.874,1.874,0,0,0,22,27.556C21.436,30,20.45,32,17.854,34.916a14.851,14.851,0,0,0-2.113,3.045c-.4-.235-.812-.465-1.221-.69a4.717,4.717,0,0,0-.967-.49V35.452a1.832,1.832,0,0,0-1.135-1.7,4.1,4.1,0,0,0-.182-1.729l-.5-1a1.75,1.75,0,0,0-3.113-.05L8.067,32a3.835,3.835,0,0,0-.206,1.757h0a1.828,1.828,0,0,0-1.135,1.7v1.33a4.928,4.928,0,0,0-.967.489c-2.323,1.3-4.724,2.647-4.724,4.534A2.418,2.418,0,0,0,2.262,43.8a2.362,2.362,0,0,1,1.185,2.21,12.886,12.886,0,0,1-.87,4.151C1.551,53.354,0,58.183,0,70.338-.011,74.3.93,78.517,4.483,78.61H15.8a3.62,3.62,0,0,0,3.161-1.892,6.134,6.134,0,0,0,2.734.646H41.14a5.939,5.939,0,0,0,2.466-.525,2.313,2.313,0,0,0,2.009,1.728H62.428a2.19,2.19,0,0,0,2.185-2.185v-15.4c0-2.071-1.667-4.037-2.384-4.785-1-1.044-4.118-3.8-4.251-3.918a1.379,1.379,0,0,1-.6-1.381l.284-1.667h0a2.769,2.769,0,0,0-.333-1.849l-.481-.829a1.377,1.377,0,0,1-.057-1.276l.148-.313h0a1.446,1.446,0,0,0-1.308-2.058h-.4l-.421-1.95a1.238,1.238,0,0,0,1.014-.982h0a4.445,4.445,0,0,1,.414-1.214h0a14.192,14.192,0,0,0,4,4.972A1.109,1.109,0,0,0,61.74,42.1a7.82,7.82,0,0,1-2.454-5.768,11.054,11.054,0,0,1,3.834-.813,1.308,1.308,0,0,0,.355-.079,1,1,0,0,0,.456.048l1.529-.193h0a.95.95,0,0,0,.84-.927V32.679a.946.946,0,0,0-.837-.921ZM24.114,19.249a.858.858,0,0,1,.858-.858h5.378a.859.859,0,0,1,.858.858v3H24.114ZM22.37,24.117a.494.494,0,0,1,.494-.494h9.592a.5.5,0,0,1,.494.494V25.9a.5.5,0,0,1-.494.494H22.864a.5.5,0,0,1-.494-.494ZM8.115,35.456A.43.43,0,0,1,8.5,35.01a15.617,15.617,0,0,0,3.292,0,.432.432,0,0,1,.381.446v1.432h0a23.386,23.386,0,0,1-4.055,0Zm1.178-2.809.552-1.026a.364.364,0,0,1,.653.008L11,32.64a.387.387,0,0,1,.039.163v.882a14.243,14.243,0,0,1-1.784,0v-.87h0a.36.36,0,0,1,.037-.17ZM15.8,77.234H4.492c-1.971,0-3.1-2.511-3.1-6.891C1.39,58.4,2.9,53.7,3.9,50.587c.931-2.8,1.837-6.206-.791-7.883-.518-.4-.69-.552-.69-.895-.028-1.181,2.846-2.663,4.557-3.633.552.055,2.023.188,3.16.188s2.6-.138,3.16-.188c1.714.967,4.586,2.453,4.557,3.633-.029,1.055-2.425,1.1-2.413,4.2a14.15,14.15,0,0,0,.936,4.574c1,3.113,2.511,7.818,2.511,19.757C18.9,74.724,17.764,77.234,15.8,77.234Zm4.477-7.892a68.96,68.96,0,0,0-1.44-15.191c1.657-11.816,10.335-18.71,16.45-8.119,3.343,5.8,3.9,15.59,1.69,22.332A3.318,3.318,0,0,1,33.814,70.7H22.946a3.184,3.184,0,0,1-2.674-1.355Zm20.87,6.647H21.691a4.746,4.746,0,0,1-2.138-.511,13.848,13.848,0,0,0,.706-4.22,4.721,4.721,0,0,0,2.687.829H33.807a4.684,4.684,0,0,0,4.483-3.3c2.321-7.1,1.725-17.287-1.8-23.418-2.132-3.836-5.013-5.949-8.111-5.949C22.877,39.451,19.33,45.8,18.027,51.2a17.516,17.516,0,0,1-1.2-5.18,2.361,2.361,0,0,1,1.185-2.21c2.248-1.559,1.16-3.654-1.1-5.1h0a13.6,13.6,0,0,1,1.951-2.838,16.65,16.65,0,0,0,4.5-8.086h9.025c.376,1.34,1.736,1.886,3.4,2.556a20.974,20.974,0,0,1,9.74,7.105A2.751,2.751,0,0,0,47.449,40.9h0a21.967,21.967,0,0,1,.9,3.046,4.047,4.047,0,0,0-.559.929h0a28.3,28.3,0,0,0-1.1,3.084c-1.034-4.923-3.894-10-6.724-9.657a1.665,1.665,0,0,0-1.476.76c-1.177,1.917,2.5,7.024,3.011,9.49a19.473,19.473,0,0,1,.443,3.552c.117,2.185.289,5.024,2.712,4.858a72.656,72.656,0,0,0-1.306,18.446,4.152,4.152,0,0,1-2.211.58ZM49.6,43.01l-.043.017q-.269-1.084-.6-2.047h1.084ZM44.938,55.457c-1.288.586-1.439-.855-1.613-3.44a20.928,20.928,0,0,0-.483-3.81,24.925,24.925,0,0,0-1.657-4.027c-.552-1.222-1.783-3.545-1.508-4.4.021-.062.251-.1.407-.1,2.147-.262,4.907,5.559,5.429,9.476.112.967.178,1.851.2,2.617-.286,1.206-.541,2.449-.779,3.683ZM55.7,44.32a.064.064,0,0,1,0,.059l-.151.315a2.758,2.758,0,0,0,.112,2.556l.481.829a1.377,1.377,0,0,1,.166.923l-.284,1.667a2.741,2.741,0,0,0,1.072,2.674c.287.254,3.23,2.86,4.143,3.817.468.49,2,2.216,2,3.831v15.4a.806.806,0,0,1-.8.8H45.618c-2.071-.128-.579-14.639-.229-16.34.844-5.18,2.025-11.617,3.671-15.437a2.655,2.655,0,0,1,.541-.8h0a.927.927,0,0,1,.612-.323h5.427a.054.054,0,0,1,.052.029Zm-4.668-1.41.414-1.933h1.961l.414,1.933ZM54.5,39.6H48.141A1.355,1.355,0,0,1,47,37.524l.276-.431h0a8.89,8.89,0,0,1,7.55-4.153h8.022v1.215a12.461,12.461,0,0,0-4.473,1.065A6.049,6.049,0,0,0,54.5,39.6Zm2.7-2.059h0A4.78,4.78,0,0,1,57.914,37a8.16,8.16,0,0,0,.88,3.292h0A13.022,13.022,0,0,1,57.2,37.54Zm7.723-3.566-.7.088V33l.7.088Z" transform="translate(0 -17.009)"/>
        <path id="Trazado_659651" data-name="Trazado 659651" d="M369.7,298.41a.847.847,0,0,0-.805.58c-.207.613-.606,1.762-.967,2.562-.54,1.113-1.367,2.022-1.371,3.476a3.149,3.149,0,0,0,6.3,0c0-1.454-.829-2.362-1.371-3.475-.366-.8-.766-1.95-.967-2.563a.846.846,0,0,0-.818-.58Zm1.769,6.618a1.768,1.768,0,0,1-3.537,0,4.02,4.02,0,0,1,.75-1.989,11.85,11.85,0,0,0,1.018-2.189,11.816,11.816,0,0,0,1.019,2.19A4.016,4.016,0,0,1,371.465,305.027Z" transform="translate(-315.932 -259.547)"/>
        <path id="Trazado_659652" data-name="Trazado 659652" d="M349.991,372.92c-2.669-.768-4.2.974-4.407,3.128a5.668,5.668,0,0,0-2.845,2.044h0a.69.69,0,1,0,1.108.822.181.181,0,0,1,.014-.021c1.269-1.788,3.366-1.682,5.095-2.46a.688.688,0,0,0-.591-1.243,8.081,8.081,0,0,1-1.3.423,1.8,1.8,0,0,1,2.562-1.358,3.394,3.394,0,0,0,2.816-.391,7.067,7.067,0,0,1-1.819,2.965,2.935,2.935,0,0,1-2.87.479.69.69,0,0,0-.337,1.338h0a6.105,6.105,0,0,0,1.508.214,3.738,3.738,0,0,0,2.661-1.034,8.767,8.767,0,0,0,2.6-6.376.692.692,0,0,0-1.337-.2,2.426,2.426,0,0,1-2.866,1.668Z" transform="translate(-295.289 -321.942)"/>
        <path id="Trazado_659653" data-name="Trazado 659653" d="M168.293,321.092a.692.692,0,0,0,.931-.293c.84-1.613,2.3-2.23,3.708-2.825a11.241,11.241,0,0,0,1.787-.881.691.691,0,0,0-.762-1.152,10.623,10.623,0,0,1-1.614.783c.117-1.6.993-2.526,2.868-2.27a3.809,3.809,0,0,0,3.314-1.1h0a8.35,8.35,0,0,1-1.67,4.095,3.505,3.505,0,0,1-3.321,1.063.69.69,0,1,0-.139,1.373,8.751,8.751,0,0,0,.892.054,4.46,4.46,0,0,0,3.66-1.642,10.057,10.057,0,0,0,1.925-7.669h0a.691.691,0,0,0-1.353-.011c-.025.113-.638,2.779-3.138,2.472-3.187-.449-4.575,1.855-4.419,4.271A6.521,6.521,0,0,0,168,320.161h0a.689.689,0,0,0,.289.928Z" transform="translate(-144.733 -269.596)"/>
        <path id="Trazado_659654" data-name="Trazado 659654" d="M184.963,239.722h0a3.555,3.555,0,0,0,3.549-3.545c0-1.657-.967-2.714-1.585-4-.427-.932-.893-2.273-1.134-2.99a.876.876,0,0,0-1.659,0c-.242.717-.708,2.058-1.137,2.993-.619,1.275-1.585,2.327-1.585,3.992a3.553,3.553,0,0,0,3.549,3.545Zm-1.282-5.918a14.69,14.69,0,0,0,1.282-2.813,14.765,14.765,0,0,0,1.28,2.812,4.744,4.744,0,0,1,.888,2.368h0a2.17,2.17,0,0,1-4.336.159c0-.052,0-.1,0-.156a4.737,4.737,0,0,1,.887-2.373Z" transform="translate(-156.359 -199.378)"/>
      </g>
    </g>
  </g>
</svg>
