<svg xmlns="http://www.w3.org/2000/svg" xmlns:xlink="http://www.w3.org/1999/xlink" width="400" height="400" viewBox="0 0 400 400">
  <defs>
    <clipPath id="clip-path">
      <rect id="Rect치ngulo_309031" data-name="Rect치ngulo 309031" width="374.697" height="357.727" fill="none"/>
    </clipPath>
  </defs>
  <g id="Grupo_979573" data-name="Grupo 979573" transform="translate(-1020 -789)">
    <rect id="Rect치ngulo_306368" data-name="Rect치ngulo 306368" width="400" height="400" transform="translate(1020 789)" fill="none"/>
    <g id="Grupo_979578" data-name="Grupo 979578" transform="translate(719.755 -4215.587)">
      <g id="Grupo_979575" data-name="Grupo 979575" transform="translate(312.897 5025.724)">
        <g id="Grupo_979574" data-name="Grupo 979574" clip-path="url(#clip-path)">
          <path id="Trazado_654312" data-name="Trazado 654312" d="M646.595,5399.669c-22.13-8.76-32.277-32.356-36.775-54.664-.752-3.724-2.081-7.522-1.093-11.18s4.563-6.845,8.24-6.074c3.05.641,5,3.549,7.164,5.823a22.2,22.2,0,0,0,10.625,6.22c2.642.663,5.73.718,7.749-1.114,2.768-2.513,2.1-7,1.206-10.673q-2.5-10.255-5-20.512c-.894-3.668-1.795-7.417-1.479-11.173s2.072-7.6,5.335-9.406,8.064-.818,9.654,2.6c.661,1.422.726,3.048,1.189,4.549s1.575,3.021,3.124,3.1c1.568.083,2.791-1.307,3.635-2.643,2.913-4.61,4.351-10,5.63-15.321s2.457-10.742,4.939-15.6,6.479-9.2,11.67-10.744,11.568.372,14.122,5.221.788,10.835-1.506,15.808a84.34,84.34,0,0,1-13.214,20.326c-.964,1.1-2.008,2.283-2.128,3.749-.217,2.639,2.681,4.521,5.29,4.752,2.954.264,5.859-.727,8.8-1.068s6.347.184,8.074,2.635c2.4,3.4.188,8.079-2.29,11.39a72.187,72.187,0,0,1-17.945,16.935c-2.469,1.629-5.107,3.172-6.835,5.587s-2.261,6.03-.33,8.3,5.507,2.305,8.214,1.108,4.875-3.334,7.331-4.992c4.6-3.1,11.2-4.3,15.468-.706,2.806,2.364,3.941,6.314,3.676,9.988a27.557,27.557,0,0,1-3.417,10.4c-5.84,11.414-14.386,21.514-25.136,28.353s-21.339,10.513-33.988,9.018" transform="translate(-334.476 -5042.273)" fill="#e6e2f4"/>
        </g>
      </g>
      <path id="Trazado_654313" data-name="Trazado 654313" d="M652.219,5384.6a338.2,338.2,0,0,1,4.66-38.542q.882-5.085,1.74-10.041c.579-3.294,1.153-6.561,1.912-9.72a168.815,168.815,0,0,1,5.4-17.911c1.994-5.614,4.09-10.87,6.085-15.768s3.965-9.425,5.923-13.476a133.963,133.963,0,0,1,10.661-18.412c1.424-2.068,2.581-3.636,3.379-4.687.387-.5.689-.9.916-1.191a.257.257,0,1,1,.057.042c-.213.307-.5.715-.859,1.232-.762,1.079-1.882,2.67-3.269,4.759a141.573,141.573,0,0,0-10.44,18.475c-1.928,4.054-3.852,8.583-5.833,13.481S668.5,5303,666.532,5308.6a170.955,170.955,0,0,0-5.339,17.851c-.75,3.145-1.315,6.383-1.893,9.686s-1.15,6.647-1.737,10.034a346.833,346.833,0,0,0-4.706,38.461" transform="translate(-24.781 -16.705)" fill="#c4bbe5"/>
      <path id="Trazado_654314" data-name="Trazado 654314" d="M660.209,5328.789a7.547,7.547,0,0,1-.731-1.481c-.433-.969-1.016-2.393-1.707-4.161-1.388-3.535-3.137-8.481-5.045-13.942s-3.723-10.372-5.16-13.876c-.713-1.754-1.305-3.167-1.726-4.139a7.5,7.5,0,0,1-.584-1.547,7.523,7.523,0,0,1,.826,1.431c.5.938,1.161,2.326,1.935,4.062,1.558,3.466,3.454,8.368,5.363,13.837,1.87,5.394,3.56,10.274,4.851,14,.594,1.68,1.1,3.1,1.5,4.233a7.659,7.659,0,0,1,.48,1.582Z" transform="translate(-24.272 -19.274)" fill="#e9e8e8"/>
      <path id="Trazado_654315" data-name="Trazado 654315" d="M706.528,5310.262a10.441,10.441,0,0,1-1.83.673c-1.186.4-2.906.958-5.008,1.721-4.216,1.493-9.966,3.761-16.2,6.539s-11.765,5.556-15.709,7.671c-1.98,1.044-3.56,1.932-4.655,2.539a10.262,10.262,0,0,1-1.735.889,10.233,10.233,0,0,1,1.6-1.125c1.056-.681,2.6-1.636,4.558-2.739,3.9-2.234,9.411-5.079,15.662-7.878a171.252,171.252,0,0,1,16.326-6.365c2.129-.706,3.877-1.2,5.091-1.514a10.325,10.325,0,0,1,1.907-.411Z" transform="translate(-25.451 -20.78)" fill="#c4bbe5"/>
      <path id="Trazado_654316" data-name="Trazado 654316" d="M649.621,5389.455a2.556,2.556,0,0,1-.461-.5l-1.212-1.517c-1.048-1.322-2.514-3.276-4.293-5.711-3.562-4.871-8.272-11.753-13.365-19.418s-9.736-14.585-13.192-19.524l-4.11-5.837c-.444-.637-.81-1.162-1.11-1.6a2.44,2.44,0,0,1-.349-.584c.018-.015.177.157.461.5l1.213,1.517c1.047,1.321,2.514,3.274,4.293,5.711,3.562,4.87,8.272,11.753,13.367,19.421s9.734,14.582,13.19,19.521c1.689,2.4,3.078,4.371,4.11,5.837l1.11,1.593a2.533,2.533,0,0,1,.349.586" transform="translate(-21.809 -22.57)" fill="#e9e8e8"/>
      <path id="Trazado_654317" data-name="Trazado 654317" d="M710.592,5355.878a2.667,2.667,0,0,1-.562.4l-1.679,1.043c-1.554.946-3.652,2.222-6.205,3.773-5.238,3.188-12.422,7.671-20.355,12.636s-15.167,9.391-20.473,12.47c-2.653,1.541-4.811,2.765-6.321,3.581-.7.372-1.275.678-1.743.929a2.5,2.5,0,0,1-.632.282,2.675,2.675,0,0,1,.562-.406l1.679-1.042,6.2-3.772c5.238-3.187,12.423-7.671,20.358-12.639s15.164-9.389,20.471-12.468c2.652-1.54,4.81-2.764,6.321-3.581l1.743-.929a2.471,2.471,0,0,1,.632-.282Z" transform="translate(-24.81 -24.111)" fill="#c4bbe5"/>
      <path id="Trazado_654318" data-name="Trazado 654318" d="M416.691,5208.265l-86.349-16.771,11.3-58.2L428,5150.063l-11.305,58.2Z" transform="translate(-1.274 -7.855)" fill="#e6e2f4"/>
      <path id="Trazado_654319" data-name="Trazado 654319" d="M429.037,5150.875a5.875,5.875,0,0,1-.955.618c-.709.415-1.644.958-2.813,1.64l-10.427,5.906-34.631,19.271-.285.158-.212-.249-.513-.6-25.946-30.663-7.793-9.351-2.088-2.568a6.366,6.366,0,0,1-.687-.931,6.168,6.168,0,0,1,.809.826c.555.622,1.287,1.444,2.2,2.473,1.943,2.234,4.656,5.355,7.986,9.186,6.734,7.864,15.946,18.623,26.124,30.511l.513.6-.5-.09,34.745-19.063,10.551-5.686,2.885-1.509a6.135,6.135,0,0,1,1.032-.479Z" transform="translate(-2.176 -7.915)" fill="#c4bbe5"/>
      <path id="Trazado_654320" data-name="Trazado 654320" d="M330.493,5194.577c-.138-.172,7.905-6.889,17.962-15s18.327-14.553,18.466-14.38-7.9,6.886-17.965,15-18.325,14.551-18.463,14.379Z" transform="translate(-1.285 -10.186)" fill="#c4bbe5"/>
      <path id="Trazado_654321" data-name="Trazado 654321" d="M400.907,5170.424c.2-.1,5.075,9.067,10.895,20.471s10.379,20.734,10.183,20.835-5.073-9.064-10.895-20.473-10.379-20.732-10.183-20.833Z" transform="translate(-6.427 -10.568)" fill="#c4bbe5"/>
      <path id="Trazado_654322" data-name="Trazado 654322" d="M468.586,5117.711,414,5123.429,409.5,5085.5l54.589-5.717,4.494,37.925" transform="translate(-7.055 -3.948)" fill="#e6e2f4"/>
      <path id="Trazado_654323" data-name="Trazado 654323" d="M464.338,5080.258a3.669,3.669,0,0,1-.449.558q-.512.58-1.357,1.532l-5.063,5.574c-4.346,4.709-10.295,11.154-16.884,18.295l-.138.151-.174-.115c-.133-.086-.277-.181-.421-.275l-21.341-14.055-6.437-4.308-1.737-1.193a4.046,4.046,0,0,1-.588-.446,3.946,3.946,0,0,1,.641.359l1.786,1.112,6.52,4.171,21.417,13.927.422.276-.313.036c6.631-7.1,12.617-13.507,16.991-18.188l5.179-5.46,1.425-1.464a3.784,3.784,0,0,1,.521-.487" transform="translate(-7.073 -3.983)" fill="#c4bbe5"/>
      <path id="Trazado_654324" data-name="Trazado 654324" d="M414.6,5125.382c-.116-.081,3.373-5.709,7.791-12.571s8.1-12.362,8.211-12.282-3.373,5.708-7.793,12.571-8.094,12.361-8.209,12.282Z" transform="translate(-7.427 -5.463)" fill="#c4bbe5"/>
      <g id="Grupo_979577" data-name="Grupo 979577" transform="translate(312.897 5025.724)">
        <g id="Grupo_979576" data-name="Grupo 979576" clip-path="url(#clip-path)">
          <path id="Trazado_654325" data-name="Trazado 654325" d="M451.376,5097.967c.1-.1,4.765,4.638,10.424,10.577s10.17,10.834,10.072,10.934-4.765-4.637-10.425-10.577-10.169-10.834-10.072-10.933" transform="translate(-323.01 -5031)" fill="#e9e8e8"/>
          <path id="Trazado_654326" data-name="Trazado 654326" d="M389.266,5067.8,359.1,5046.91l14.249-21.186,30.167,20.89L389.266,5067.8Z" transform="translate(-316.271 -5025.724)" fill="#e6e2f4"/>
        </g>
      </g>
      <path id="Trazado_654327" data-name="Trazado 654327" d="M404.556,5046.96a2.588,2.588,0,0,1-.471.087l-1.355.185-5,.618L381.2,5049.77l-.136.016-.038-.134c-.03-.1-.062-.213-.094-.323-1.829-6.4-3.484-12.191-4.7-16.425l-1.386-4.99c-.15-.565-.27-1.018-.361-1.362a2.705,2.705,0,0,1-.1-.481,2.639,2.639,0,0,1,.168.461l.422,1.342,1.488,4.956c1.235,4.226,2.923,10.007,4.789,16.394l.094.323-.174-.118c6.454-.708,12.282-1.349,16.54-1.817l5-.511,1.361-.122a2.436,2.436,0,0,1,.476-.019Z" transform="translate(-4.491 -0.025)" fill="#c4bbe5"/>
      <path id="Trazado_654328" data-name="Trazado 654328" d="M359.017,5048.482c-.023-.091,4.2-1.425,9.429-2.979s9.491-2.739,9.514-2.648-4.2,1.424-9.429,2.978-9.49,2.74-9.514,2.649Z" transform="translate(-3.368 -1.251)" fill="#c4bbe5"/>
      <path id="Trazado_654329" data-name="Trazado 654329" d="M390.461,5050.061c.092-.007.395,4.428.676,9.9s.435,9.925.342,9.932-.394-4.427-.676-9.906-.434-9.923-.342-9.931Z" transform="translate(-5.663 -1.777)" fill="#c4bbe5"/>
      <path id="Trazado_654330" data-name="Trazado 654330" d="M614.281,5113.09a14.8,14.8,0,1,1,14.8-14.8,14.8,14.8,0,0,1-14.8,14.8Zm33.635-14.644a33.635,33.635,0,1,0-62.627,16.992h-.019l.1.126c1.289,2.174,2.905,3.728,4.538,6.011l19.528,25.87a6.074,6.074,0,0,0,9.7,0l19.2-25.443a72.342,72.342,0,0,0,4.886-6.472l.069-.092h-.013a33.418,33.418,0,0,0,4.643-16.992Z" transform="translate(-19.554 -2.855)" fill="#e6e2f4"/>
      <path id="Trazado_654331" data-name="Trazado 654331" d="M659.966,5169.835a7.982,7.982,0,1,1,7.981-7.982,7.983,7.983,0,0,1-7.981,7.982Zm18.137-7.9a18.137,18.137,0,1,0-33.771,9.162h-.01l.052.069c.7,1.172,1.567,2.009,2.447,3.241l10.531,13.95a3.274,3.274,0,0,0,5.227,0l10.356-13.719a39.222,39.222,0,0,0,2.634-3.49l.038-.05H675.6a18.024,18.024,0,0,0,2.5-9.162Z" transform="translate(-24.022 -8.623)" fill="#c4bbe5"/>
      <path id="Trazado_654332" data-name="Trazado 654332" d="M687.51,5411.34c0,.121-83.867.22-187.3.22-103.466,0-187.315-.1-187.315-.22s83.849-.22,187.315-.22c103.431,0,187.3.1,187.3.22Z" transform="translate(0 -28.146)" fill="#233237"/>
      <path id="Trazado_654333" data-name="Trazado 654333" d="M459.591,5093.578l5.566,78.862a24.588,24.588,0,0,0,49.063-3.34c-.493-7.505-.94-13.653-.94-13.653s19.092-2.968,19.327-22.056c.136-11.026-1.765-36.043-3.395-55.21a25.035,25.035,0,0,0-24.954-22.9H492.726a35.327,35.327,0,0,0-33.135,38.3" transform="translate(-10.703 -2.158)" fill="#cd8d77"/>
      <path id="Trazado_654334" data-name="Trazado 654334" d="M515.593,5162.485s-12.065.98-24.886-7.073c0,0,5.883,13.737,24.93,12.018l-.044-4.945Z" transform="translate(-12.986 -9.471)" fill="#c46246"/>
      <path id="Trazado_654335" data-name="Trazado 654335" d="M527.874,5104.664a2.726,2.726,0,0,1-2.629,2.75,2.608,2.608,0,0,1-2.811-2.458,2.727,2.727,0,0,1,2.626-2.752,2.61,2.61,0,0,1,2.813,2.459Z" transform="translate(-15.303 -5.585)" fill="#233237"/>
      <path id="Trazado_654336" data-name="Trazado 654336" d="M530.308,5100.409c-.338.354-2.4-1.173-5.338-1.165-2.93-.035-5.083,1.474-5.4,1.115-.156-.159.188-.8,1.125-1.483a7.485,7.485,0,0,1,4.323-1.333,7.182,7.182,0,0,1,4.247,1.371c.9.692,1.208,1.335,1.042,1.5Z" transform="translate(-15.091 -5.245)" fill="#233237"/>
      <path id="Trazado_654337" data-name="Trazado 654337" d="M497,5104.664a2.726,2.726,0,0,1-2.628,2.75,2.607,2.607,0,0,1-2.811-2.458,2.728,2.728,0,0,1,2.627-2.752,2.61,2.61,0,0,1,2.811,2.459Z" transform="translate(-13.048 -5.585)" fill="#233237"/>
      <path id="Trazado_654338" data-name="Trazado 654338" d="M499.2,5101c-.338.355-2.406-1.172-5.337-1.164-2.929-.034-5.083,1.474-5.4,1.115-.156-.159.185-.8,1.126-1.483a7.478,7.478,0,0,1,4.322-1.333,7.185,7.185,0,0,1,4.248,1.371c.9.692,1.208,1.335,1.042,1.494Z" transform="translate(-12.819 -5.288)" fill="#233237"/>
      <path id="Trazado_654339" data-name="Trazado 654339" d="M511.428,5122.768c-.014-.167,1.809-.483,4.765-.861.749-.076,1.457-.225,1.583-.737a3.8,3.8,0,0,0-.5-2.22q-1.055-2.718-2.215-5.7c-3.077-8.121-5.3-14.8-4.975-14.919s3.089,6.362,6.164,14.484q1.11,3,2.123,5.739a4.335,4.335,0,0,1,.388,2.939,1.882,1.882,0,0,1-1.232,1.1,5.1,5.1,0,0,1-1.272.176c-2.974.161-4.818.174-4.829.007Z" transform="translate(-14.399 -5.303)" fill="#233237"/>
      <path id="Trazado_654340" data-name="Trazado 654340" d="M502.185,5126.882c.476-.027.483,3.157,3.208,5.417s6.115,1.911,6.139,2.355c.044.2-.756.618-2.188.657a7.939,7.939,0,0,1-5.126-1.786,6.913,6.913,0,0,1-2.486-4.542c-.12-1.331.235-2.119.452-2.1Z" transform="translate(-13.789 -7.388)" fill="#233237"/>
      <path id="Trazado_654341" data-name="Trazado 654341" d="M499.813,5088.65c-.289.8-3.218.42-6.659.834-3.45.346-6.226,1.353-6.683.639-.2-.342.28-1.093,1.4-1.865a11.663,11.663,0,0,1,10.163-1.122c1.263.509,1.9,1.135,1.775,1.514Z" transform="translate(-12.673 -4.435)" fill="#233237"/>
      <path id="Trazado_654342" data-name="Trazado 654342" d="M529.206,5091.237c-.515.666-2.536-.025-4.967-.058-2.428-.118-4.487.448-4.96-.25-.208-.338.116-1.006,1.015-1.637a7.2,7.2,0,0,1,8,.248c.859.685,1.141,1.372.913,1.7Z" transform="translate(-15.068 -4.563)" fill="#233237"/>
      <path id="Trazado_654343" data-name="Trazado 654343" d="M465.542,5112c-.325-.141-13.116-3.878-12.7,9.171s13.433,9.941,13.444,9.565-.744-18.736-.744-18.736Z" transform="translate(-10.22 -6.258)" fill="#cd8d77"/>
      <path id="Trazado_654344" data-name="Trazado 654344" d="M462.4,5126.259c-.059-.04-.223.167-.6.354a2.275,2.275,0,0,1-1.7.09c-1.394-.462-2.625-2.613-2.764-4.964a7.5,7.5,0,0,1,.533-3.276,2.626,2.626,0,0,1,1.654-1.8,1.158,1.158,0,0,1,1.362.58c.186.36.112.623.182.643.038.031.273-.227.151-.763a1.45,1.45,0,0,0-.539-.8,1.711,1.711,0,0,0-1.268-.292,3.191,3.191,0,0,0-2.31,2.1,7.729,7.729,0,0,0-.672,3.663c.168,2.627,1.592,5.044,3.5,5.529a2.43,2.43,0,0,0,2.068-.411c.393-.335.453-.629.408-.652Z" transform="translate(-10.481 -6.594)" fill="#c46246"/>
      <path id="Trazado_654345" data-name="Trazado 654345" d="M458.529,5107.258c1.991-.482,5.434,1.355,6.282,3.219s1.036,3.975,1.882,5.84,2.759,3.55,4.752,3.079a4.015,4.015,0,0,0,2.72-2.978,11.042,11.042,0,0,0,.038-4.209c-.768-6.1-2.05-12.138-2.3-18.276s.629-12.515,3.853-17.745,9.144-9.075,15.266-8.582c4.055.327,7.775,2.442,11.8,3.006a15.938,15.938,0,0,0,13.245-4.421c.438-.437,2.475-1.779,2.475-1.779,0-.316-.3-3.042-1.373-4.036-7.993-7.393-22.4-9.456-32.957-6.8s-20.457,10.112-25,20.008-3.2,23.658-.693,33.671" transform="translate(-10.468 -1.953)" fill="#233237"/>
      <path id="Trazado_654346" data-name="Trazado 654346" d="M529.028,5074.746s-50.079-16.112-71.741,27.215c0,0-3.238-10.843-3.238-16.655,0-3.883,2.322-27,26.109-34.272,0,0,35.837-13.677,48.87,23.712" transform="translate(-10.308 -1.67)" fill="#e94757"/>
      <path id="Trazado_654347" data-name="Trazado 654347" d="M488.439,5077.266a10.892,10.892,0,0,0,17.341,1.577,6.422,6.422,0,0,0,12.14-.636,14.586,14.586,0,0,0,4.871,3.558c1.9.7,4.314.433,5.564-1.163,1.273-1.625.9-4.1-.345-5.743a11.862,11.862,0,0,0-5.076-3.418,36.676,36.676,0,0,0-18.9-2.865,25.461,25.461,0,0,0-16.569,9.023l.971-.333" transform="translate(-12.749 -3.11)" fill="#233237"/>
      <path id="Trazado_654348" data-name="Trazado 654348" d="M457.542,5105.368l0-.013h0l0,.013a60.128,60.128,0,0,1,6.336-10.123,61.857,61.857,0,0,0-6.336,10.123" transform="translate(-10.563 -5.077)" fill="#1b1f20"/>
      <path id="Trazado_654349" data-name="Trazado 654349" d="M457.287,5101.96l0-.013c-.083-.276-1.511-5.112-2.442-9.985-.032-.167-.064-.335-.095-.5a36.388,36.388,0,0,1-.7-6.154c0-3.883,2.322-27,26.109-34.272a45.7,45.7,0,0,1,14.769-2.442c11.443,0,26.573,4.561,34.1,26.154h0a23.278,23.278,0,0,0-15.924-7.231q-.445-.019-.9-.028a34.835,34.835,0,0,0-6.479-.624,30.7,30.7,0,0,0-4.124.274,26.613,26.613,0,0,0-13.053,5.485,62.858,62.858,0,0,0-24.921,19.216,60.13,60.13,0,0,0-6.336,10.123" transform="translate(-10.308 -1.67)" fill="#583cb6"/>
      <path id="Trazado_654350" data-name="Trazado 654350" d="M491.261,5074.061a26.613,26.613,0,0,1,13.053-5.485,30.7,30.7,0,0,1,4.124-.274,34.834,34.834,0,0,1,6.479.624c-.239,0-.483-.008-.727-.008a59.661,59.661,0,0,0-22.929,5.143" transform="translate(-13.026 -3.11)" fill="#1b1f20"/>
      <path id="Trazado_654351" data-name="Trazado 654351" d="M459.8,5096.971a94.307,94.307,0,0,1,29.174-27.945c11.511-7.19,30.545-14.3,43.665-17.786,3.938-1.045,8.044-1.958,12.059-1.265s7.946,3.368,8.943,7.318c1.247,4.945-7.53,12.577-11.654,15.578a135.306,135.306,0,0,1-12.538,7.4s.112-9.172-14.568-11.064c-19.971-2.572-55.08,27.762-55.08,27.762Z" transform="translate(-10.728 -1.753)" fill="#c4bbe5"/>
      <path id="Trazado_654352" data-name="Trazado 654352" d="M504.047,5059.75s7.216-3.993,14.463-4.922a18.592,18.592,0,0,0-3.93-2.358,37.253,37.253,0,0,0-11.27,3.789l.738,3.491Z" transform="translate(-13.906 -1.953)" fill="#e9e8e8"/>
      <path id="Trazado_654353" data-name="Trazado 654353" d="M535.8,5179.987l-15.883-3.5-6.461-1.615-5.384-8.346s-2.568,14.917-12.177,22.946a11.172,11.172,0,0,1-9.463,2.271c-2.178-.458-4.733-1.022-6.628-1.527-.4-.109-.847-.25-1.32-.421a30.975,30.975,0,0,1-16.354-14.108c-2.138-3.792-3.939-7.685-3.324-9.162l-7.538,15.614-44.418,20.46-25.221,61.583,48.876,14.457,1.522,50.742-9.208,64,138.286.1-4.9-142.4L535.8,5179.987" transform="translate(-5.02 -10.283)" fill="#583cb6"/>
      <path id="Trazado_654354" data-name="Trazado 654354" d="M508.316,5237.441a4.955,4.955,0,0,1-.87.019l-2.459-.058-8.791-.314-.172-.005-.008-.174c-.148-3.815-.325-8.332-.515-13.167-.23-6.96-.438-13.257-.59-17.886-.053-2.245-.1-4.084-.129-5.422-.006-.6-.008-1.09-.012-1.475a2.462,2.462,0,0,1,.024-.517,2.218,2.218,0,0,1,.064.513c.025.384.057.872.1,1.472.067,1.335.158,3.172.268,5.415.187,4.627.44,10.923.72,17.879.166,4.836.321,9.354.451,13.17l-.18-.179,8.785.47,2.454.162a4.908,4.908,0,0,1,.866.1" transform="translate(-13.282 -12.614)" fill="#233237"/>
      <path id="Trazado_654355" data-name="Trazado 654355" d="M501.051,5218.281a1.153,1.153,0,0,1,.657-.215,2.706,2.706,0,0,1,1.824.505,2.8,2.8,0,0,1,.887,1.01,2.579,2.579,0,0,1,.241,1.537,3.122,3.122,0,0,1-2.26,2.551,3.285,3.285,0,0,1-3.216-1.15,3.129,3.129,0,0,1-.607-2.734,3.392,3.392,0,0,1,.914-1.654c.324-.311.555-.412.567-.393s-.172.178-.44.508a3.539,3.539,0,0,0-.735,1.6,2.855,2.855,0,0,0,.613,2.412,2.917,2.917,0,0,0,2.8.979,2.745,2.745,0,0,0,1.962-2.183,2.31,2.31,0,0,0-.912-2.234,2.705,2.705,0,0,0-1.63-.585c-.422,0-.654.082-.667.044Z" transform="translate(-13.554 -14.023)" fill="#233237"/>
      <path id="Trazado_654356" data-name="Trazado 654356" d="M499.493,5198.991a1.336,1.336,0,0,1,.694-.316,3.012,3.012,0,0,1,2.065.3,3.058,3.058,0,0,1,1.109.981,2.757,2.757,0,0,1,.457,1.651,3.3,3.3,0,0,1-2.231,3,3.382,3.382,0,0,1-3.536-1.233,2.964,2.964,0,0,1-.613-1.594,3.409,3.409,0,0,1,1.565-3.066,1.459,1.459,0,0,1,.713-.275c.014.038-.24.132-.616.417a3.4,3.4,0,0,0-1.134,1.577,2.776,2.776,0,0,0,.4,2.693,3.007,3.007,0,0,0,3.09,1.06,2.927,2.927,0,0,0,1.953-2.6,2.524,2.524,0,0,0-1.312-2.342,3.02,3.02,0,0,0-1.884-.407c-.465.06-.708.185-.725.147" transform="translate(-13.477 -12.614)" fill="#233237"/>
      <path id="Trazado_654357" data-name="Trazado 654357" d="M494.794,5266.83a.927.927,0,0,1,.212-.1c.167-.064.376-.144.635-.246.566-.19,1.372-.548,2.4-1.024a31.531,31.531,0,0,0,7.781-5.532,61.63,61.63,0,0,0,8.91-11.051,156.493,156.493,0,0,0,8.68-15.127,262.564,262.564,0,0,0,12.328-29.21c1.386-3.817,2.461-6.924,3.213-9.067.369-1.047.659-1.873.869-2.466.1-.262.175-.472.236-.64a1.006,1.006,0,0,1,.095-.212.894.894,0,0,1-.051.228c-.052.17-.116.385-.2.652-.191.6-.455,1.436-.79,2.495-.7,2.16-1.733,5.283-3.083,9.116a244.361,244.361,0,0,1-12.228,29.3,151.239,151.239,0,0,1-8.735,15.152,60.568,60.568,0,0,1-9.035,11.056,30.587,30.587,0,0,1-7.92,5.459,22.347,22.347,0,0,1-2.443.953l-.65.2a.936.936,0,0,1-.227.056Z" transform="translate(-13.284 -12.155)" fill="#233237"/>
      <path id="Trazado_654358" data-name="Trazado 654358" d="M525.775,5254.437c.362,0,8.78-.579,8.78-.579s-3.475,6.145-7.094,8.437h-7.367l5.68-7.858Z" transform="translate(-15.132 -16.661)" fill="#fdfdfe"/>
      <path id="Trazado_654359" data-name="Trazado 654359" d="M493.206,5289.55a3.025,3.025,0,0,1,.481-.365c.36-.25.831-.575,1.419-.981,1.229-.858,3-2.114,5.12-3.744,4.266-3.241,9.863-8.086,15.884-13.62,3.02-2.762,5.912-5.372,8.413-7.874a65.041,65.041,0,0,0,6.2-7.04,38.769,38.769,0,0,0,3.4-5.334c.368-.652.6-1.186.779-1.536a3.1,3.1,0,0,1,.289-.53,3.073,3.073,0,0,1-.208.567c-.157.362-.362.911-.707,1.578a35.126,35.126,0,0,1-3.3,5.439,61.81,61.81,0,0,1-6.166,7.143c-2.5,2.529-5.385,5.152-8.4,7.912a208.434,208.434,0,0,1-15.993,13.544c-2.153,1.6-3.953,2.823-5.212,3.637-.629.41-1.13.708-1.466.913a3.07,3.07,0,0,1-.529.292Z" transform="translate(-13.168 -16.271)" fill="#233237"/>
      <path id="Trazado_654360" data-name="Trazado 654360" d="M467.613,5389.1a.92.92,0,0,1,.106-.2l.346-.558c.31-.487.784-1.193,1.419-2.088,1.273-1.785,3.234-4.283,5.822-7.226,5.21-5.853,12.512-13.828,20.556-22.663l20.673-22.558c2.643-2.853,4.79-5.169,6.3-6.8l1.731-1.834.458-.469a.95.95,0,0,1,.167-.15.788.788,0,0,1-.134.18c-.112.133-.252.3-.425.5l-1.668,1.89-6.2,6.9-20.578,22.646-20.648,22.571c-2.613,2.911-4.605,5.372-5.919,7.12-.654.878-1.149,1.566-1.483,2.037-.155.218-.281.393-.381.533-.088.118-.136.178-.144.173" transform="translate(-11.299 -21.824)" fill="#233237"/>
      <path id="Trazado_654361" data-name="Trazado 654361" d="M546.761,5180.586c.727,1.09,17.079,2.907,21.076,6.9s43.969,34.521,43.969,34.521l-28.473,38.4-18.4-4.051-18.173-75.778" transform="translate(-17.079 -11.31)" fill="#583cb6"/>
      <path id="Trazado_654362" data-name="Trazado 654362" d="M616.551,5224.985c-.019-.015-1.872-1.431-4.813-3.685h0l4.814,3.685" transform="translate(-21.825 -14.283)" fill="#a3a09f"/>
      <path id="Trazado_654363" data-name="Trazado 654363" d="M577.262,5261.561,609.22,5221.3c2.941,2.254,4.794,3.67,4.813,3.685h0L587.25,5261.11l-9.988.45" transform="translate(-19.307 -14.283)" fill="#34246d"/>
      <path id="Trazado_654364" data-name="Trazado 654364" d="M556.081,5221.125a8.1,8.1,0,0,1-.331-1.338,15.857,15.857,0,0,1-.28-1.593c-.081-.625-.206-1.333-.247-2.127-.067-.793-.131-1.661-.125-2.6-.037-.936.027-1.934.072-2.984a38.475,38.475,0,0,1,3.289-13.214c.452-.95.865-1.861,1.336-2.67.433-.83.9-1.566,1.326-2.235.408-.681.85-1.25,1.215-1.764a15.413,15.413,0,0,1,.994-1.274,8.2,8.2,0,0,1,.92-1.027,8.28,8.28,0,0,1-.784,1.132c-.267.351-.589.785-.928,1.313s-.765,1.1-1.153,1.788c-.409.674-.853,1.414-1.269,2.241-.452.81-.847,1.717-1.285,2.661a40.329,40.329,0,0,0-3.255,13.081c-.057,1.04-.133,2.025-.111,2.953-.022.927.023,1.788.069,2.575.02.79.123,1.5.181,2.12s.132,1.158.2,1.594a8.257,8.257,0,0,1,.162,1.367Z" transform="translate(-17.687 -11.873)" fill="#233237"/>
      <path id="Trazado_654365" data-name="Trazado 654365" d="M569.435,5256.5a166.284,166.284,0,0,1-6.664-15.785,166.963,166.963,0,0,1,6.664,15.785Z" transform="translate(-18.248 -15.701)" fill="#233237"/>
      <path id="Trazado_654366" data-name="Trazado 654366" d="M432.938,5226.29c-.068.037-.751-1.221-2.046-3.127a43.924,43.924,0,0,0-12.815-12.438c-1.944-1.235-3.222-1.881-3.187-1.951a4.52,4.52,0,0,1,.931.388c.59.269,1.42.709,2.419,1.3a38.943,38.943,0,0,1,12.913,12.532c.619.981,1.085,1.8,1.371,2.38a4.338,4.338,0,0,1,.414.918Z" transform="translate(-7.449 -13.368)" fill="#233237"/>
      <path id="Trazado_654367" data-name="Trazado 654367" d="M430.51,5286.334l-48.876-14.457,48.876,14.457" transform="translate(-5.02 -17.976)" fill="#a3a09f"/>
      <path id="Trazado_654368" data-name="Trazado 654368" d="M435.529,5287.44l-5.019-1.484h0L381.633,5271.5l1.964-4.8,54.075,14.72-2.144,6.017" transform="translate(-5.02 -17.599)" fill="#34246d"/>
      <path id="Trazado_654369" data-name="Trazado 654369" d="M536.887,5251.42h20.586v8.5l-26.334-.17a57.494,57.494,0,0,0,5.748-8.33Z" transform="translate(-15.938 -16.483)" fill="#fdfdfe"/>
      <path id="Trazado_654370" data-name="Trazado 654370" d="M477.394,5214.04c-5.924,0-11.475-4.248-14.443-9.508-3.264-5.787-4.073-12.594-4.817-19.2l.034-.506a43.788,43.788,0,0,0,5.917,13.375c2.938,4.444,7.3,8.624,12.623,8.741h.238c3.109,0,5.516-1.336,7.983-3.292a59.144,59.144,0,0,0,7.34-7.077c1.389-1.588,3.039-3.257,5.145-3.38.068,0,.135,0,.2,0,2.12,0,2.78,2.039,4.522,3.41a21.333,21.333,0,0,0,9.236,4.244,19.863,19.863,0,0,0,3.805.47,13.07,13.07,0,0,0,4-.688c-.908,2.747-2.49,3.883-5.362,4.23a9.68,9.68,0,0,1-1.17.069,13.553,13.553,0,0,1-7.061-2.241,38.287,38.287,0,0,1-6.565-5.648q-.324.3-.641.609a2.833,2.833,0,0,0-.463-.037,2.475,2.475,0,0,0-.594.068,1.336,1.336,0,0,0-.694.316s.007.006.017.006c.064,0,.3-.1.708-.154a2.388,2.388,0,0,1,.334-.022,3.074,3.074,0,0,1,.473.039c-1.095,1.093-2.111,2.26-3.1,3.453a2.914,2.914,0,0,1,.043-1.877,3.4,3.4,0,0,1,1.134-1.577c.375-.285.629-.379.616-.417,0,0-.006,0-.019,0a1.785,1.785,0,0,0-.694.279,3.409,3.409,0,0,0-1.565,3.066,3.06,3.06,0,0,0,.2.874c-.753.915-1.494,1.841-2.247,2.756-.1-2.049-.184-3.736-.247-4.987-.039-.6-.07-1.088-.1-1.472a2.156,2.156,0,0,0-.064-.513h0a2.462,2.462,0,0,0-.024.517c0,.384.006.873.012,1.475.031,1.321.074,3.129.127,5.335-.64.773-1.289,1.535-1.963,2.275-2.987,3.276-6.7,6.211-11.087,6.858a12.285,12.285,0,0,1-1.787.131" transform="translate(-10.607 -11.62)" fill="#463091"/>
      <path id="Trazado_654371" data-name="Trazado 654371" d="M494.907,5205.769c-.053-2.206-.1-4.014-.127-5.335-.006-.6-.008-1.09-.012-1.475a2.462,2.462,0,0,1,.024-.517h0a2.156,2.156,0,0,1,.064.513c.025.384.057.872.1,1.472.062,1.25.146,2.938.247,4.987l-.291.354" transform="translate(-13.282 -12.614)" fill="#1e272b"/>
      <path id="Trazado_654372" data-name="Trazado 654372" d="M497.64,5202.658a3.06,3.06,0,0,1-.2-.874,3.409,3.409,0,0,1,1.565-3.066,1.785,1.785,0,0,1,.694-.279c.012,0,.018,0,.019,0,.014.038-.24.132-.616.417a3.4,3.4,0,0,0-1.134,1.577,2.914,2.914,0,0,0-.043,1.877c-.1.115-.191.229-.285.344m1.871-3.66c-.009,0-.015,0-.017-.006a1.336,1.336,0,0,1,.694-.316,2.475,2.475,0,0,1,.594-.068,2.833,2.833,0,0,1,.463.037l-.22.217a3.074,3.074,0,0,0-.473-.039,2.388,2.388,0,0,0-.334.022c-.407.053-.644.154-.708.154" transform="translate(-13.477 -12.613)" fill="#1e272b"/>
      <path id="Trazado_654373" data-name="Trazado 654373" d="M523.63,5176.5a2.03,2.03,0,0,1,.09.47c.041.311.109.77.164,1.364.126,1.185.254,2.907.3,5.04a71.986,71.986,0,0,1-1.582,16.565l-.028.135-.029.133-.131.034a18.023,18.023,0,0,1-9.116-.242,21.607,21.607,0,0,1-6.753-3.164,17.445,17.445,0,0,1-3.689-3.41,10.064,10.064,0,0,1-.8-1.108,1.857,1.857,0,0,1-.242-.41,21.354,21.354,0,0,0,4.908,4.671,21.918,21.918,0,0,0,6.682,3.03,17.878,17.878,0,0,0,8.9.206l-.159.166.027-.134a77.476,77.476,0,0,0,1.7-16.469c-.01-2.124-.092-3.843-.164-5.031-.033-.553-.06-1.006-.082-1.367a1.982,1.982,0,0,1,0-.479Z" transform="translate(-13.797 -11.011)" fill="#233237"/>
      <path id="Trazado_654374" data-name="Trazado 654374" d="M494.676,5193.6a2.859,2.859,0,0,1-.271.507,14.357,14.357,0,0,1-.938,1.353,35.984,35.984,0,0,1-4.161,4.39c-.94.864-1.994,1.783-3.137,2.753-.575.483-1.152.99-1.791,1.493a16.344,16.344,0,0,1-2.095,1.349,13.009,13.009,0,0,1-5.1,1.55,9.66,9.66,0,0,1-5.58-1.234,17.787,17.787,0,0,1-4.377-3.687,43.024,43.024,0,0,1-3.294-4.164,42.367,42.367,0,0,1-4.31-7.871,40.936,40.936,0,0,1-1.9-5.741c-.176-.692-.285-1.237-.351-1.607a2.828,2.828,0,0,1-.084-.566,2.815,2.815,0,0,1,.171.547c.1.364.23.9.431,1.582a46.911,46.911,0,0,0,2.018,5.664,43.574,43.574,0,0,0,7.638,11.867,17.548,17.548,0,0,0,4.272,3.592,9.27,9.27,0,0,0,5.335,1.188,12.721,12.721,0,0,0,4.944-1.479,16.288,16.288,0,0,0,2.051-1.3c.619-.479,1.213-.988,1.789-1.463,1.151-.958,2.215-1.859,3.163-2.706a40.72,40.72,0,0,0,4.237-4.265c.453-.546.781-.99,1-1.295a2.843,2.843,0,0,1,.345-.458Z" transform="translate(-10.544 -11.422)" fill="#233237"/>
      <path id="Trazado_654375" data-name="Trazado 654375" d="M477.96,5296.388l6.519-9.507s4.484-15.591,3.875-17.765-2.591-10.307-2.123-10.4,5.351-1.916,8,4.6c1.648,4.059,2.189,9.4,2.364,12.859a2.958,2.958,0,0,0,3.552,2.754c4.511-.924,12.015-2.338,13.8-1.912,2.59.619,4.906,3.923,5.132,5.025s-1.561,3.6-1.561,3.6a6.8,6.8,0,0,1,2.876,2.827c.092.229.17.457.237.676a4.1,4.1,0,0,1-.907,3.967l-.689.756s2.744.752,3.083,2.325a9.376,9.376,0,0,1-.094,3.467l-2.575,2.661a4.342,4.342,0,0,1,1.335,2.519c.133,1.449-3.732,5.031-3.732,5.031l-16.592,5.948-6.582,1.68-15.913-21.118Z" transform="translate(-12.055 -16.993)" fill="#cd8d77"/>
      <path id="Trazado_654376" data-name="Trazado 654376" d="M519.772,5287.807c.019.124-2.571.594-5.747,1.243a58.261,58.261,0,0,1-5.776,1.1,6.442,6.442,0,0,1,1.634-.567c1.027-.29,2.459-.643,4.055-.967s3.05-.559,4.107-.694a6.415,6.415,0,0,1,1.727-.118Z" transform="translate(-14.267 -19.138)" fill="#c46246"/>
      <path id="Trazado_654377" data-name="Trazado 654377" d="M521.616,5296.66a49.346,49.346,0,0,1-8.908,2.719,49.139,49.139,0,0,1,8.908-2.719Z" transform="translate(-14.592 -19.786)" fill="#c46246"/>
      <path id="Trazado_654378" data-name="Trazado 654378" d="M522.637,5305.4a61.284,61.284,0,0,1-9.5,4.156,60.813,60.813,0,0,1,9.5-4.156Z" transform="translate(-14.623 -20.424)" fill="#c46246"/>
      <path id="Trazado_654379" data-name="Trazado 654379" d="M432.692,5356.369l61.02-40.937-15.392-27.887-55.7,28.643,6.318-30.095-37.8-11.18-9.43,51.494c-1.459,22.912,16.916,41.413,39.072,35.395a40.38,40.38,0,0,0,11.906-5.431Z" transform="translate(-5.02 -18.198)" fill="#cd8d77"/>
      <path id="Trazado_654380" data-name="Trazado 654380" d="M417.124,5335.553a2.524,2.524,0,0,1-.21-.768,12.848,12.848,0,0,1-.211-2.159,14.983,14.983,0,0,1,6.178-12.385,12.7,12.7,0,0,1,1.851-1.129,2.525,2.525,0,0,1,.74-.295c.037.07-.988.555-2.4,1.672a15.769,15.769,0,0,0-6.055,12.138c-.041,1.8.189,2.912.11,2.925Z" transform="translate(-7.581 -21.405)" fill="#c46246"/>
      <path id="Trazado_654381" data-name="Trazado 654381" d="M586.215,5263.94c.381-.522,43.459,25.721,43.459,25.721l13.805,62.911,19.873,7.294s6.205-70.009,1.481-80.911-52.583-50.1-52.583-50.1l-26.036,35.086Z" transform="translate(-19.961 -14.835)" fill="#cd8d77"/>
      <path id="Trazado_654382" data-name="Trazado 654382" d="M642.58,5289.244a14.036,14.036,0,0,1-8.488,5.459,46.64,46.64,0,0,0,4.513-2.311,47.451,47.451,0,0,0,3.975-3.149Z" transform="translate(-23.457 -19.245)" fill="#c46246"/>
      <path id="Trazado_654383" data-name="Trazado 654383" d="M530.327,5266.637l3.371,60.378,68.842-4.653-2.084-44.947-10.021-13.49-60.108,2.712" transform="translate(-15.879 -17.396)" fill="#233237"/>
      <path id="Trazado_654384" data-name="Trazado 654384" d="M513.441,5332.847c.209,1.159,6.053,55.847,6.053,55.847l102.457-7.127,17.34-2.32-8-50.926-12.249-2.93-105.606,7.456" transform="translate(-14.646 -21.885)" fill="#583cb6"/>
      <path id="Trazado_654385" data-name="Trazado 654385" d="M630.5,5385.949l4.175-.559.034.267-4.209.292" transform="translate(-23.195 -26.267)" fill="#9e9a99"/>
      <path id="Trazado_654386" data-name="Trazado 654386" d="M519.494,5388.694s-.007-.054-.017-.157c-.343-3.209-5.833-54.567-6.035-55.69l61.9-4.371.03.337,25.816-2.162,17.855-1.26,7.083,55.617-4.175.559-102.461,7.127" transform="translate(-14.646 -21.885)" fill="#463091"/>
      <path id="Trazado_654387" data-name="Trazado 654387" d="M592.22,5323.059l-58.522,3.956-3.371-60.378,60.108-2.712,1.784,59.135Z" transform="translate(-15.879 -17.396)" fill="#3a5965"/>
      <path id="Trazado_654388" data-name="Trazado 654388" d="M553.865,5265.747l1.233,18.608,3.131-1.792,1.739,1.792,2.153-1.792,3.332,1.792v-19.131l-11.588.522Z" transform="translate(-17.598 -17.491)" fill="#233237"/>
      <path id="Trazado_654389" data-name="Trazado 654389" d="M579.94,5325.512l-4.006-45.315,39.12,10.782,3.77,31.276-38.884,3.256" transform="translate(-19.21 -18.584)" fill="#583cb6"/>
      <path id="Trazado_654390" data-name="Trazado 654390" d="M615.053,5290.979a1.721,1.721,0,0,1-.243.326c-.2.232-.448.526-.755.891l-2.876,3.282-10,11.211-.152.171-.159-.167-5.324-5.579-13.936-14.728-4.186-4.5q-.694-.765-1.122-1.237a2.849,2.849,0,0,1-.369-.454,2.95,2.95,0,0,1,.433.393c.3.3.7.693,1.183,1.18,1.048,1.078,2.5,2.571,4.288,4.4l14.028,14.639c1.853,1.95,3.646,3.835,5.312,5.591l-.31,0c4.055-4.454,7.572-8.314,10.113-11.106,1.239-1.337,2.241-2.417,2.968-3.2l.807-.844a1.627,1.627,0,0,1,.3-.275" transform="translate(-19.21 -18.584)" fill="#233237"/>
      <path id="Trazado_654391" data-name="Trazado 654391" d="M593.462,5300.887c.108.057-2.682,5.407-6.227,11.944s-6.508,11.8-6.616,11.737,2.682-5.406,6.228-11.947,6.508-11.792,6.615-11.735Z" transform="translate(-19.552 -20.095)" fill="#233237"/>
      <path id="Trazado_654392" data-name="Trazado 654392" d="M620.3,5324.026c-.1.063-2.816-4.269-6.055-9.675s-5.782-9.839-5.679-9.9,2.815,4.269,6.056,9.675,5.781,9.839,5.678,9.9" transform="translate(-21.593 -20.356)" fill="#233237"/>
      <path id="Trazado_654393" data-name="Trazado 654393" d="M602.711,5324.9l-2.551-28.858,24.912,6.866,2.4,19.917-24.762,2.075" transform="translate(-20.979 -19.742)" fill="#e94757"/>
      <path id="Trazado_654394" data-name="Trazado 654394" d="M602.711,5324.9l-2.551-28.858,24.912,6.866,2.4,19.917-24.762,2.075" transform="translate(-20.979 -19.742)" fill="#c4bbe5"/>
      <path id="Trazado_654395" data-name="Trazado 654395" d="M625.072,5302.911a5.291,5.291,0,0,1-.616.792l-1.815,2.106c-1.623,1.833-3.819,4.31-6.345,7.158l-.152.172-.159-.167-3.393-3.551c-3.477-3.653-6.607-6.975-8.856-9.4l-2.647-2.882a8.886,8.886,0,0,1-.928-1.1,8.974,8.974,0,0,1,1.052.98c.7.711,1.628,1.65,2.749,2.785,2.306,2.366,5.472,5.655,8.949,9.306l3.382,3.563-.31,0,6.461-7.054c.776-.822,1.413-1.5,1.906-2.022a5.236,5.236,0,0,1,.724-.7Z" transform="translate(-20.979 -19.742)" fill="#233237"/>
      <path id="Trazado_654396" data-name="Trazado 654396" d="M611.322,5309.22a166.638,166.638,0,0,1-8.178,15.082,167.368,167.368,0,0,1,8.178-15.082Z" transform="translate(-21.197 -20.704)" fill="#233237"/>
      <path id="Trazado_654397" data-name="Trazado 654397" d="M628.412,5323.956a120.187,120.187,0,0,1-7.472-12.465,119.6,119.6,0,0,1,7.472,12.465Z" transform="translate(-22.496 -20.87)" fill="#233237"/>
      <path id="Trazado_654398" data-name="Trazado 654398" d="M620.043,5302.136v2.321l3.638.422.19-1.772-3.828-.971Z" transform="translate(-22.431 -20.187)" fill="#fff"/>
      <path id="Trazado_654399" data-name="Trazado 654399" d="M606.189,5289.439v3.394l6.867,1.132.38-2.582-7.247-1.944Z" transform="translate(-21.419 -19.259)" fill="#fff"/>
      <path id="Trazado_654400" data-name="Trazado 654400" d="M576.157,5345.959l-.338-16.876-13.689.925,1.466,17.139,12.561-1.188Z" transform="translate(-18.202 -22.155)" fill="#c4bbe5"/>
      <path id="Trazado_654401" data-name="Trazado 654401" d="M625.472,5377.2l-22.967,2.178-1.926-20.317,22.967-2.178,1.926,20.317Z" transform="translate(-21.01 -24.185)" fill="#fdfdfe"/>
      <path id="Trazado_654402" data-name="Trazado 654402" d="M625.452,5377.18a3.02,3.02,0,0,1-.058-.39c-.031-.278-.073-.642-.125-1.1-.1-.988-.253-2.378-.44-4.134-.362-3.569-.873-8.614-1.489-14.677l.2.168-22.962,2.211c-.046.051.373-.452.2-.238v.006l0,.011v.021l0,.043.008.086.016.173.033.346.065.688q.065.687.13,1.37.129,1.362.256,2.7c.166,1.783.331,3.534.49,5.237.316,3.41.616,6.643.894,9.633l-.211-.175,16.573-1.472,4.708-.4,1.257-.1a4.055,4.055,0,0,1,.448-.02,2.457,2.457,0,0,1-.4.061c-.306.034-.707.079-1.215.138l-4.653.493-16.681,1.68-.192.02-.019-.195c-.289-2.99-.6-6.222-.932-9.629-.163-1.7-.331-3.453-.5-5.236q-.128-1.339-.259-2.7-.064-.681-.13-1.369l-.065-.687-.032-.345-.018-.173-.007-.086,0-.043,0-.022v-.016c-.178.212.24-.3.2-.244,8.459-.788,16.35-1.526,22.97-2.143l.186-.019.017.186,1.308,14.813c.145,1.742.258,3.12.339,4.1.034.445.059.8.081,1.067a2.2,2.2,0,0,1,.012.354Z" transform="translate(-20.989 -24.169)" fill="#233237"/>
      <path id="Trazado_654403" data-name="Trazado 654403" d="M622,5362.128c.013.122-4,.644-8.967,1.167s-9,.848-9.014.728,4-.643,8.968-1.166,9-.848,9.012-.728Z" transform="translate(-21.261 -24.566)" fill="#233237"/>
      <path id="Trazado_654404" data-name="Trazado 654404" d="M621.923,5365.853a13.079,13.079,0,0,1-2.469.611c-1.54.308-3.681.664-6.06.943s-4.547.428-6.116.485a12.945,12.945,0,0,1-2.543-.024,16.385,16.385,0,0,1,2.523-.287c1.559-.138,3.712-.335,6.083-.613s4.51-.583,6.06-.812a16.385,16.385,0,0,1,2.521-.3Z" transform="translate(-21.313 -24.839)" fill="#233237"/>
      <path id="Trazado_654405" data-name="Trazado 654405" d="M622.968,5374a13.012,13.012,0,0,1-2.469.61c-1.539.308-3.679.663-6.06.943s-4.546.428-6.114.486a13.061,13.061,0,0,1-2.543-.023,16.389,16.389,0,0,1,2.522-.287c1.56-.137,3.713-.334,6.084-.612s4.51-.584,6.059-.812a16.108,16.108,0,0,1,2.521-.3Z" transform="translate(-21.39 -25.434)" fill="#233237"/>
      <path id="Trazado_654406" data-name="Trazado 654406" d="M621.749,5369.823a163.483,163.483,0,0,1-16.809,2.4,163.228,163.228,0,0,1,16.809-2.4Z" transform="translate(-21.328 -25.129)" fill="#233237"/>
      <path id="Trazado_654407" data-name="Trazado 654407" d="M642.767,5400.655s18.91-12.509,20.365-18.91,2.327-12.217,2.327-12.217l-20.2-8.369,2.005,7.28s-7.245,4.308-7.984,9.523c-.493,3.482-9.856,9.431-9.856,9.431a7.733,7.733,0,0,0-6.5-2.779l-7.869.555,5.314,11.995,22.4,3.491Z" transform="translate(-22.067 -24.497)" fill="#cd8d77"/>
      <path id="Trazado_654408" data-name="Trazado 654408" d="M651.246,5385.267a3.093,3.093,0,0,1-.894.363c-.59.2-1.469.39-2.5.729a10.3,10.3,0,0,0-3.283,1.907,16.332,16.332,0,0,1-4.042,2.566,13.693,13.693,0,0,1-8.576.719,4.569,4.569,0,0,1-1.436-.532,1.051,1.051,0,0,1-.522-1.046.774.774,0,0,1,.425-.611c.169-.063.262-.024.26-.016s-.091.018-.22.095a.707.707,0,0,0-.294.552.859.859,0,0,0,.487.819,4.565,4.565,0,0,0,1.369.435,14.048,14.048,0,0,0,8.335-.821,16.734,16.734,0,0,0,3.966-2.483,10.136,10.136,0,0,1,3.435-1.88c1.076-.31,1.957-.454,2.555-.6a5.774,5.774,0,0,1,.939-.2Z" transform="translate(-23.156 -26.257)" fill="#c46246"/>
      <path id="Trazado_654409" data-name="Trazado 654409" d="M637.5,5395.059c-.037.063-.971-.492-2.582-1.154a23.257,23.257,0,0,0-6.558-1.634c-.662-.071-1.313-.09-1.939-.1l-.119,0-.062-.1a20.513,20.513,0,0,0-3.518-4.153c-1.017-.918-1.7-1.394-1.663-1.445.014-.022.2.072.525.274a13.771,13.771,0,0,1,1.321.958,18.008,18.008,0,0,1,3.7,4.132l-.182-.1c.64.008,1.3.027,1.979.1a20.683,20.683,0,0,1,6.643,1.786,17.574,17.574,0,0,1,1.838.985,2.588,2.588,0,0,1,.617.456Z" transform="translate(-22.505 -26.345)" fill="#c46246"/>
      <path id="Trazado_654410" data-name="Trazado 654410" d="M643.874,5392.026c.038.124-1.281.6-2.768,1.45s-2.575,1.73-2.662,1.633a9.214,9.214,0,0,1,5.43-3.083Z" transform="translate(-23.775 -26.75)" fill="#c46246"/>
      <path id="Trazado_654411" data-name="Trazado 654411" d="M654.92,5367.743c-.016.131-1.312-.029-2.824.377-1.518.386-2.571,1.157-2.65,1.051a5.47,5.47,0,0,1,5.475-1.428Z" transform="translate(-24.578 -24.96)" fill="#c46246"/>
      <path id="Trazado_654412" data-name="Trazado 654412" d="M357.509,5357.325c2.493,2.961,6.7,1.531,8.516-.574s2.413-4.974,2.941-7.705c1.207-6.243,2.4-12.786.546-18.867a10.406,10.406,0,0,0-2.837-4.863,5.442,5.442,0,0,0-5.287-1.25c-2.115.766-3.272,3.008-4.065,5.113a44.673,44.673,0,0,0-2.691,19.49c.264,3.078.915,6.271,2.877,8.655" transform="translate(-3.036 -21.77)" fill="#e94757"/>
      <path id="Trazado_654413" data-name="Trazado 654413" d="M361.129,5359.01a4.589,4.589,0,0,1-3.621-1.685c-1.962-2.384-2.613-5.577-2.877-8.655q-.163-1.893-.162-3.792a44.7,44.7,0,0,1,2.853-15.7c.793-2.105,1.949-4.348,4.065-5.113a4.375,4.375,0,0,1,1.5-.257,5.884,5.884,0,0,1,3.792,1.506,10.406,10.406,0,0,1,2.837,4.863,23.724,23.724,0,0,1,.961,6.959,63.474,63.474,0,0,1-1.507,11.908c-.528,2.731-1.122,5.6-2.941,7.705a6.83,6.83,0,0,1-4.9,2.259" transform="translate(-3.036 -21.77)" fill="#463091"/>
      <path id="Trazado_654414" data-name="Trazado 654414" d="M367.935,5376.214a19.236,19.236,0,0,1,11.757-2.506c2.188.164,4.494.608,6.106,2.1s2.144,4.315.584,5.856a5.653,5.653,0,0,1-3.618,1.27c-3.146.245-6.682,0-9.023,2.117-1.336,1.208-2.128,3.086-3.793,3.769a4.063,4.063,0,0,1-4.631-1.583,6.951,6.951,0,0,1-.96-5.062,7.827,7.827,0,0,1,3.579-5.958Z" transform="translate(-3.75 -25.408)" fill="#583cb6"/>
      <path id="Trazado_654415" data-name="Trazado 654415" d="M349.469,5363.438a11.538,11.538,0,0,0,.844-10.733,20.453,20.453,0,0,0-7.074-8.522,33.819,33.819,0,0,0-11.8-5.615,12.008,12.008,0,0,0-5.12-.406,5.313,5.313,0,0,0-4,2.938c-.979,2.355.4,4.986,1.819,7.1a85.747,85.747,0,0,0,8.367,10.558c2.462,2.648,5.242,5.23,8.721,6.217s6.961.521,8.536-1.971" transform="translate(-0.663 -22.808)" fill="#583cb6"/>
      <path id="Trazado_654416" data-name="Trazado 654416" d="M362.152,5408.961a6.887,6.887,0,0,0,.071-1.454c.008-1.052.018-2.375.031-3.949a57.079,57.079,0,0,1,.367-5.822,44.621,44.621,0,0,1,1.482-6.965,25.131,25.131,0,0,1,2.913-6.443,12.99,12.99,0,0,1,4.051-4.029,12.306,12.306,0,0,1,3.583-1.476.731.731,0,1,0-.045-.229,11.215,11.215,0,0,0-3.753,1.345,12.943,12.943,0,0,0-4.288,4.082,24.5,24.5,0,0,0-3.029,6.577,41.54,41.54,0,0,0-1.456,7.074,48.8,48.8,0,0,0-.245,5.884c.024,1.675.1,3.025.159,3.958a6.72,6.72,0,0,0,.159,1.446Z" transform="translate(-3.574 -25.762)" fill="#233237"/>
      <path id="Trazado_654417" data-name="Trazado 654417" d="M362.036,5402.936a2.877,2.877,0,0,0-.021-.67c-.045-.5-.1-1.13-.175-1.9-.152-1.652-.364-4.042-.54-7-.381-5.917-.6-14.114-.42-23.16s.78-17.229,1.458-23.12c.153-1.475.321-2.8.487-3.971s.283-2.174.422-2.992c.113-.769.206-1.393.279-1.89a2.92,2.92,0,0,0,.058-.667,2.762,2.762,0,0,0-.176.644c-.1.493-.231,1.113-.389,1.873-.174.814-.338,1.818-.523,2.984s-.395,2.494-.576,3.968a216.976,216.976,0,0,0-1.634,23.157c-.182,9.067.106,17.281.6,23.2.229,2.963.506,5.354.73,7,.116.771.211,1.4.286,1.893a2.853,2.853,0,0,0,.14.654Z" transform="translate(-3.457 -22.774)" fill="#233237"/>
      <path id="Trazado_654418" data-name="Trazado 654418" d="M358.729,5387.745a12.924,12.924,0,0,0-.192-1.987c-.187-1.271-.528-3.1-1.09-5.333a71.558,71.558,0,0,0-2.454-7.695,69.867,69.867,0,0,0-4.113-8.995,49.66,49.66,0,0,0-10.981-14.149,24.665,24.665,0,0,0-2.456-1.907c-.375-.263-.708-.528-1.042-.732l-.934-.528a12.8,12.8,0,0,0-1.77-.923,59.532,59.532,0,0,1,5.925,4.405,52.354,52.354,0,0,1,10.735,14.118,74.487,74.487,0,0,1,4.124,8.908c1.118,2.807,1.927,5.409,2.558,7.6.611,2.2,1.012,4.011,1.269,5.266a12.729,12.729,0,0,0,.42,1.947Z" transform="translate(-1.519 -23.353)" fill="#233237"/>
    </g>
  </g>
</svg>
