<svg xmlns="http://www.w3.org/2000/svg" width="275.799" height="242.25" viewBox="0 0 275.799 242.25">
  <g id="Grupo_1009735" data-name="Grupo 1009735" transform="translate(-820 -14911)">
    <g id="Grupo_1009640" data-name="Grupo 1009640" transform="translate(460.383 -1235.338)">
      <g id="Grupo_986531" data-name="Grupo 986531" transform="translate(395.856 16149.024)">
        <path id="Trazado_659337" data-name="Trazado 659337" d="M224.521,3774.067A119.782,119.782,0,1,1,344.3,3654.287,119.916,119.916,0,0,1,224.521,3774.067Zm0-228.762A108.981,108.981,0,1,0,333.5,3654.287,109.1,109.1,0,0,0,224.521,3545.305Z" transform="translate(-104.74 -3534.504)" fill="#ef8b53"/>
      </g>
      <g id="Grupo_986565" data-name="Grupo 986565" transform="translate(359.617 16146.338)">
        <path id="Trazado_659390" data-name="Trazado 659390" d="M334.982,3698.474h-15.07v-58.929H286.98v-58.93H262.312v-10.768H202.535v52.884H164.409v75.745H145.121v3.186H144.5a1.33,1.33,0,0,1-1.329-1.331V3535.616a1.33,1.33,0,0,0-1.33-1.329H128.9v-.856a4.265,4.265,0,0,0-4.265-4.265H83.781a4.265,4.265,0,0,0-4.265,4.265v7.563a4.266,4.266,0,0,0,4.265,4.267h40.853a4.266,4.266,0,0,0,4.265-4.267v-.123h4.89a1.328,1.328,0,0,1,1.329,1.329v167.641a1.329,1.329,0,0,0,1.33,1.329h8.672v15.1h18.4a23.022,23.022,0,0,0,46.025,0H282.66a23.022,23.022,0,0,0,46.025,0h6.3a1.33,1.33,0,0,0,1.331-1.33V3699.8A1.331,1.331,0,0,0,334.982,3698.474Z" transform="translate(-75.527 -3524.473)" fill="gray" opacity="0.5" style="mix-blend-mode: multiply;isolation: isolate"/>
        <g id="Grupo_986564" data-name="Grupo 986564">
          <g id="Grupo_986553" data-name="Grupo 986553">
            <path id="Trazado_659391" data-name="Trazado 659391" d="M131.467,3696.785h-6.98a1.33,1.33,0,0,1-1.33-1.329V3530.743a1.329,1.329,0,0,0-1.329-1.33H102.721a1.331,1.331,0,0,0-1.33,1.33v3.926a1.33,1.33,0,0,0,1.33,1.329h11.058a1.331,1.331,0,0,1,1.33,1.33v167.639a1.329,1.329,0,0,0,1.329,1.33h15.028Z" transform="translate(-59.506 -3524.292)" fill="#16131b"/>
            <path id="Trazado_659392" data-name="Trazado 659392" d="M304.946,3624.189H115.084v27.8H304.946a1.327,1.327,0,0,0,1.329-1.328V3625.52A1.33,1.33,0,0,0,304.946,3624.189Z" transform="translate(-49.478 -3454.882)" fill="#75cf3f"/>
            <path id="Trazado_659393" data-name="Trazado 659393" d="M113.732,3535.2a45.348,45.348,0,0,1,.686-5.767l.007-.021h-11.7a1.331,1.331,0,0,0-1.33,1.33v3.926a1.33,1.33,0,0,0,1.33,1.329h10.817C113.613,3535.678,113.679,3535.4,113.732,3535.2Z" transform="translate(-59.506 -3524.292)" fill="#546796" opacity="0.5" style="mix-blend-mode: multiply;isolation: isolate"/>
            <g id="Grupo_986552" data-name="Grupo 986552">
              <rect id="Rectángulo_310646" data-name="Rectángulo 310646" width="49.384" height="16.096" rx="2.463" fill="#75cf3f"/>
            </g>
            <path id="Trazado_659394" data-name="Trazado 659394" d="M144.959,3625.789a23.045,23.045,0,0,0-23.046,23.047c0,.667.045,1.326.1,1.978h45.892c.055-.652.1-1.311.1-1.978A23.046,23.046,0,0,0,144.959,3625.789Z" transform="translate(-44.477 -3453.711)" fill="#546796" opacity="0.5" style="mix-blend-mode: multiply;isolation: isolate"/>
            <circle id="Elipse_7741" data-name="Elipse 7741" cx="23.046" cy="23.046" r="23.046" transform="translate(83.969 173.393)" fill="#16131b"/>
            <path id="Trazado_659395" data-name="Trazado 659395" d="M154.923,3644.585a11.2,11.2,0,1,1-11.2-11.2A11.2,11.2,0,0,1,154.923,3644.585Z" transform="translate(-36.707 -3448.147)" fill="#d7dbe2"/>
            <path id="Trazado_659396" data-name="Trazado 659396" d="M213.795,3625.789a23.045,23.045,0,0,0-23.046,23.047c0,.667.043,1.326.1,1.978H236.74c.055-.652.1-1.311.1-1.978A23.045,23.045,0,0,0,213.795,3625.789Z" transform="translate(5.936 -3453.711)" fill="#546796" opacity="0.5" style="mix-blend-mode: multiply;isolation: isolate"/>
            <circle id="Elipse_7742" data-name="Elipse 7742" cx="23.046" cy="23.046" r="23.046" transform="translate(203.111 173.392)" fill="#16131b"/>
            <path id="Trazado_659397" data-name="Trazado 659397" d="M223.7,3644.585a11.2,11.2,0,1,1-11.2-11.2A11.2,11.2,0,0,1,223.7,3644.585Z" transform="translate(13.661 -3448.147)" fill="#d7dbe2"/>
          </g>
          <g id="Grupo_986563" data-name="Grupo 986563" transform="translate(84.894 40.68)">
            <path id="Trazado_659398" data-name="Trazado 659398" d="M224.119,3549.939H164.343v52.883H126.218v75.745h82.637v-69.7h15.264Z" transform="translate(-126.218 -3549.939)" fill="#c47c4c"/>
            <rect id="Rectángulo_310647" data-name="Rectángulo 310647" width="42.726" height="58.929" transform="translate(70.67 69.699)" fill="#c47c4c"/>
            <g id="Grupo_986556" data-name="Grupo 986556" transform="translate(29.521 69.699)">
              <rect id="Rectángulo_310648" data-name="Rectángulo 310648" width="59.776" height="58.929" fill="#f3c37c"/>
              <rect id="Rectángulo_310649" data-name="Rectángulo 310649" width="16.039" height="15.163" transform="translate(21.868)" fill="#fff" opacity="0.9"/>
              <rect id="Rectángulo_310650" data-name="Rectángulo 310650" width="16.039" height="15.163" transform="translate(21.868 43.766)" fill="#fff" opacity="0.9"/>
              <g id="Grupo_986555" data-name="Grupo 986555" transform="translate(2.865 46.846)">
                <rect id="Rectángulo_310651" data-name="Rectángulo 310651" width="15.508" height="9.369" fill="#fffff3"/>
                <g id="Grupo_986554" data-name="Grupo 986554" transform="translate(0.708 1.314)">
                  <rect id="Rectángulo_310652" data-name="Rectángulo 310652" width="1.646" height="6.742" fill="#16131b"/>
                  <rect id="Rectángulo_310653" data-name="Rectángulo 310653" width="0.577" height="6.742" transform="translate(2.645)" fill="#16131b"/>
                  <rect id="Rectángulo_310654" data-name="Rectángulo 310654" width="1.349" height="6.742" transform="translate(5.587)" fill="#16131b"/>
                  <rect id="Rectángulo_310655" data-name="Rectángulo 310655" width="0.823" height="6.742" transform="translate(3.886)" fill="#16131b"/>
                  <rect id="Rectángulo_310656" data-name="Rectángulo 310656" width="0.557" height="6.742" transform="translate(7.945)" fill="#16131b"/>
                  <rect id="Rectángulo_310657" data-name="Rectángulo 310657" width="1.115" height="6.742" transform="translate(10.581)" fill="#16131b"/>
                  <rect id="Rectángulo_310658" data-name="Rectángulo 310658" width="0.554" height="6.742" transform="translate(12.078)" fill="#16131b"/>
                  <rect id="Rectángulo_310659" data-name="Rectángulo 310659" width="0.764" height="6.742" transform="translate(9.317)" fill="#16131b"/>
                  <rect id="Rectángulo_310660" data-name="Rectángulo 310660" width="0.823" height="6.742" transform="translate(13.226)" fill="#16131b"/>
                </g>
              </g>
            </g>
            <g id="Grupo_986559" data-name="Grupo 986559" transform="translate(95.727 69.699)">
              <rect id="Rectángulo_310661" data-name="Rectángulo 310661" width="59.776" height="58.929" fill="#f3c37c"/>
              <rect id="Rectángulo_310662" data-name="Rectángulo 310662" width="16.039" height="15.163" transform="translate(21.869)" fill="#fff" opacity="0.9"/>
              <rect id="Rectángulo_310663" data-name="Rectángulo 310663" width="16.039" height="15.163" transform="translate(21.869 43.766)" fill="#fff" opacity="0.9"/>
              <g id="Grupo_986558" data-name="Grupo 986558" transform="translate(2.865 46.846)">
                <rect id="Rectángulo_310664" data-name="Rectángulo 310664" width="15.508" height="9.369" fill="#fffff3"/>
                <g id="Grupo_986557" data-name="Grupo 986557" transform="translate(0.709 1.314)">
                  <rect id="Rectángulo_310665" data-name="Rectángulo 310665" width="1.646" height="6.742" fill="#16131b"/>
                  <rect id="Rectángulo_310666" data-name="Rectángulo 310666" width="0.577" height="6.742" transform="translate(2.645)" fill="#16131b"/>
                  <rect id="Rectángulo_310667" data-name="Rectángulo 310667" width="1.349" height="6.742" transform="translate(5.587)" fill="#16131b"/>
                  <rect id="Rectángulo_310668" data-name="Rectángulo 310668" width="0.823" height="6.742" transform="translate(3.886)" fill="#16131b"/>
                  <rect id="Rectángulo_310669" data-name="Rectángulo 310669" width="0.557" height="6.742" transform="translate(7.945)" fill="#16131b"/>
                  <rect id="Rectángulo_310670" data-name="Rectángulo 310670" width="1.115" height="6.742" transform="translate(10.581)" fill="#16131b"/>
                  <rect id="Rectángulo_310671" data-name="Rectángulo 310671" width="0.554" height="6.742" transform="translate(12.078)" fill="#16131b"/>
                  <rect id="Rectángulo_310672" data-name="Rectángulo 310672" width="0.764" height="6.742" transform="translate(9.317)" fill="#16131b"/>
                  <rect id="Rectángulo_310673" data-name="Rectángulo 310673" width="0.823" height="6.742" transform="translate(13.226)" fill="#16131b"/>
                </g>
              </g>
            </g>
            <g id="Grupo_986562" data-name="Grupo 986562" transform="translate(62.794 10.769)">
              <rect id="Rectángulo_310674" data-name="Rectángulo 310674" width="59.776" height="58.93" fill="#f3c37c"/>
              <rect id="Rectángulo_310675" data-name="Rectángulo 310675" width="16.039" height="15.163" transform="translate(21.869)" fill="#fff" opacity="0.9"/>
              <rect id="Rectángulo_310676" data-name="Rectángulo 310676" width="16.039" height="15.163" transform="translate(21.869 43.766)" fill="#fff" opacity="0.9"/>
              <g id="Grupo_986561" data-name="Grupo 986561" transform="translate(2.865 46.846)">
                <rect id="Rectángulo_310677" data-name="Rectángulo 310677" width="15.508" height="9.369" fill="#fffff3"/>
                <g id="Grupo_986560" data-name="Grupo 986560" transform="translate(0.709 1.314)">
                  <rect id="Rectángulo_310678" data-name="Rectángulo 310678" width="1.646" height="6.742" fill="#16131b"/>
                  <rect id="Rectángulo_310679" data-name="Rectángulo 310679" width="0.577" height="6.742" transform="translate(2.645)" fill="#16131b"/>
                  <rect id="Rectángulo_310680" data-name="Rectángulo 310680" width="1.349" height="6.742" transform="translate(5.587)" fill="#16131b"/>
                  <rect id="Rectángulo_310681" data-name="Rectángulo 310681" width="0.823" height="6.742" transform="translate(3.886)" fill="#16131b"/>
                  <rect id="Rectángulo_310682" data-name="Rectángulo 310682" width="0.558" height="6.742" transform="translate(7.945)" fill="#16131b"/>
                  <rect id="Rectángulo_310683" data-name="Rectángulo 310683" width="1.115" height="6.742" transform="translate(10.581)" fill="#16131b"/>
                  <rect id="Rectángulo_310684" data-name="Rectángulo 310684" width="0.554" height="6.742" transform="translate(12.078)" fill="#16131b"/>
                  <rect id="Rectángulo_310685" data-name="Rectángulo 310685" width="0.764" height="6.742" transform="translate(9.317)" fill="#16131b"/>
                  <rect id="Rectángulo_310686" data-name="Rectángulo 310686" width="0.823" height="6.742" transform="translate(13.225)" fill="#16131b"/>
                </g>
              </g>
            </g>
          </g>
        </g>
      </g>
    </g>
  </g>
</svg>
